M48
; DRILL file {KiCad (5.1.7)-1} date 01/13/21 20:41:09
; FORMAT={-:-/ absolute / metric / decimal}
; #@! TF.CreationDate,2021-01-13T20:41:09+01:00
; #@! TF.GenerationSoftware,Kicad,Pcbnew,(5.1.7)-1
; #@! TF.FileFunction,Plated,1,2,PTH
FMAT,2
METRIC
T1C0.400
T2C0.500
T3C0.700
T4C1.000
T5C1.300
%
G90
G05
T1
X14.605Y-4.445
X17.78Y-6.35
X17.78Y-7.62
X17.78Y-8.89
X19.05Y-6.35
X19.05Y-7.62
X19.05Y-8.89
X20.32Y-6.35
X20.32Y-7.62
X20.32Y-8.89
X21.59Y-6.35
X21.59Y-7.62
X21.59Y-8.89
X22.86Y-6.35
X22.86Y-7.62
X22.86Y-8.89
X25.4Y-6.35
X25.4Y-7.62
X25.4Y-8.89
X26.67Y-6.35
X26.67Y-7.62
X26.67Y-8.89
X27.94Y-6.35
X27.94Y-7.62
X27.94Y-8.89
X29.21Y-6.35
X29.21Y-7.62
X29.21Y-8.89
X30.48Y-6.35
X30.48Y-7.62
X30.48Y-8.89
X32.258Y-3.81
T3
X13.323Y8.382
X18.173Y8.382
T4
X8.2Y-7.62
X10.74Y-5.08
X10.74Y-7.62
X13.28Y-7.62
X0.0Y0.0
X0.0Y-2.54
X0.0Y-5.08
X0.0Y-7.62
X2.54Y0.0
X2.54Y-2.54
X2.54Y-5.08
X2.54Y-7.62
X35.275Y-7.62
X37.815Y-5.08
X37.815Y-7.62
X40.355Y-7.62
X45.72Y0.0
X45.72Y-2.54
X45.72Y-5.08
X45.72Y-7.62
X48.26Y0.0
X48.26Y-2.54
X48.26Y-5.08
X48.26Y-7.62
T5
X1.195Y8.2
X5.005Y8.2
T2
G00X12.148Y11.582
M15
G01X12.148Y10.782
M16
G05
G00X12.148Y11.582
M15
G01X12.148Y10.782
M16
G05
G00X19.348Y10.782
M15
G01X19.348Y11.582
M16
G05
T0
M30
