%TF.GenerationSoftware,KiCad,Pcbnew,(5.1.7)-1*%
%TF.CreationDate,2021-01-13T20:41:06+01:00*%
%TF.ProjectId,MicroBBPS,4d696372-6f42-4425-9053-2e6b69636164,rev?*%
%TF.SameCoordinates,Original*%
%TF.FileFunction,Paste,Top*%
%TF.FilePolarity,Positive*%
%FSLAX46Y46*%
G04 Gerber Fmt 4.6, Leading zero omitted, Abs format (unit mm)*
G04 Created by KiCad (PCBNEW (5.1.7)-1) date 2021-01-13 20:41:06*
%MOMM*%
%LPD*%
G01*
G04 APERTURE LIST*
%ADD10C,0.100000*%
%ADD11R,2.400000X1.000000*%
%ADD12R,1.800000X2.500000*%
%ADD13R,0.400000X1.250000*%
%ADD14R,1.500000X2.000000*%
%ADD15R,3.800000X2.000000*%
G04 APERTURE END LIST*
D10*
%TO.C,J2*%
G36*
X11848000Y10282000D02*
G01*
X10698000Y10282000D01*
X10698000Y12082000D01*
X11848000Y12082000D01*
X11848000Y10282000D01*
G37*
X11848000Y10282000D02*
X10698000Y10282000D01*
X10698000Y12082000D01*
X11848000Y12082000D01*
X11848000Y10282000D01*
G36*
X19648000Y12032000D02*
G01*
X20748000Y12032000D01*
X20748000Y10282000D01*
X19648000Y10282000D01*
X19648000Y12032000D01*
G37*
X19648000Y12032000D02*
X20748000Y12032000D01*
X20748000Y10282000D01*
X19648000Y10282000D01*
X19648000Y12032000D01*
%TD*%
D11*
%TO.C,D3*%
X19750000Y850000D03*
X19750000Y-850000D03*
%TD*%
%TO.C,D1*%
X28500000Y850000D03*
X28500000Y-850000D03*
%TD*%
D12*
%TO.C,D2*%
X10033000Y5937000D03*
X10033000Y1937000D03*
%TD*%
%TO.C,C8*%
G36*
G01*
X45635000Y9390000D02*
X44535000Y9390000D01*
G75*
G02*
X44285000Y9640000I0J250000D01*
G01*
X44285000Y11740000D01*
G75*
G02*
X44535000Y11990000I250000J0D01*
G01*
X45635000Y11990000D01*
G75*
G02*
X45885000Y11740000I0J-250000D01*
G01*
X45885000Y9640000D01*
G75*
G02*
X45635000Y9390000I-250000J0D01*
G01*
G37*
G36*
G01*
X45635000Y5790000D02*
X44535000Y5790000D01*
G75*
G02*
X44285000Y6040000I0J250000D01*
G01*
X44285000Y8140000D01*
G75*
G02*
X44535000Y8390000I250000J0D01*
G01*
X45635000Y8390000D01*
G75*
G02*
X45885000Y8140000I0J-250000D01*
G01*
X45885000Y6040000D01*
G75*
G02*
X45635000Y5790000I-250000J0D01*
G01*
G37*
%TD*%
%TO.C,C7*%
G36*
G01*
X39920000Y9390000D02*
X38820000Y9390000D01*
G75*
G02*
X38570000Y9640000I0J250000D01*
G01*
X38570000Y11740000D01*
G75*
G02*
X38820000Y11990000I250000J0D01*
G01*
X39920000Y11990000D01*
G75*
G02*
X40170000Y11740000I0J-250000D01*
G01*
X40170000Y9640000D01*
G75*
G02*
X39920000Y9390000I-250000J0D01*
G01*
G37*
G36*
G01*
X39920000Y5790000D02*
X38820000Y5790000D01*
G75*
G02*
X38570000Y6040000I0J250000D01*
G01*
X38570000Y8140000D01*
G75*
G02*
X38820000Y8390000I250000J0D01*
G01*
X39920000Y8390000D01*
G75*
G02*
X40170000Y8140000I0J-250000D01*
G01*
X40170000Y6040000D01*
G75*
G02*
X39920000Y5790000I-250000J0D01*
G01*
G37*
%TD*%
%TO.C,C6*%
G36*
G01*
X34205000Y9390000D02*
X33105000Y9390000D01*
G75*
G02*
X32855000Y9640000I0J250000D01*
G01*
X32855000Y11740000D01*
G75*
G02*
X33105000Y11990000I250000J0D01*
G01*
X34205000Y11990000D01*
G75*
G02*
X34455000Y11740000I0J-250000D01*
G01*
X34455000Y9640000D01*
G75*
G02*
X34205000Y9390000I-250000J0D01*
G01*
G37*
G36*
G01*
X34205000Y5790000D02*
X33105000Y5790000D01*
G75*
G02*
X32855000Y6040000I0J250000D01*
G01*
X32855000Y8140000D01*
G75*
G02*
X33105000Y8390000I250000J0D01*
G01*
X34205000Y8390000D01*
G75*
G02*
X34455000Y8140000I0J-250000D01*
G01*
X34455000Y6040000D01*
G75*
G02*
X34205000Y5790000I-250000J0D01*
G01*
G37*
%TD*%
%TO.C,C5*%
G36*
G01*
X28490000Y9390000D02*
X27390000Y9390000D01*
G75*
G02*
X27140000Y9640000I0J250000D01*
G01*
X27140000Y11740000D01*
G75*
G02*
X27390000Y11990000I250000J0D01*
G01*
X28490000Y11990000D01*
G75*
G02*
X28740000Y11740000I0J-250000D01*
G01*
X28740000Y9640000D01*
G75*
G02*
X28490000Y9390000I-250000J0D01*
G01*
G37*
G36*
G01*
X28490000Y5790000D02*
X27390000Y5790000D01*
G75*
G02*
X27140000Y6040000I0J250000D01*
G01*
X27140000Y8140000D01*
G75*
G02*
X27390000Y8390000I250000J0D01*
G01*
X28490000Y8390000D01*
G75*
G02*
X28740000Y8140000I0J-250000D01*
G01*
X28740000Y6040000D01*
G75*
G02*
X28490000Y5790000I-250000J0D01*
G01*
G37*
%TD*%
D13*
%TO.C,J2*%
X17048000Y8382000D03*
X16398000Y8382000D03*
X15748000Y8382000D03*
X15098000Y8382000D03*
X14398000Y8382000D03*
G36*
G01*
X17248000Y11682000D02*
X17248000Y10682000D01*
G75*
G02*
X16748000Y10182000I-500000J0D01*
G01*
X14748000Y10182000D01*
G75*
G02*
X14248000Y10682000I0J500000D01*
G01*
X14248000Y11682000D01*
G75*
G02*
X14748000Y12182000I500000J0D01*
G01*
X16748000Y12182000D01*
G75*
G02*
X17248000Y11682000I0J-500000D01*
G01*
G37*
%TD*%
%TO.C,F2*%
G36*
G01*
X31105000Y-775000D02*
X32355000Y-775000D01*
G75*
G02*
X32605000Y-1025000I0J-250000D01*
G01*
X32605000Y-1775000D01*
G75*
G02*
X32355000Y-2025000I-250000J0D01*
G01*
X31105000Y-2025000D01*
G75*
G02*
X30855000Y-1775000I0J250000D01*
G01*
X30855000Y-1025000D01*
G75*
G02*
X31105000Y-775000I250000J0D01*
G01*
G37*
G36*
G01*
X31105000Y2025000D02*
X32355000Y2025000D01*
G75*
G02*
X32605000Y1775000I0J-250000D01*
G01*
X32605000Y1025000D01*
G75*
G02*
X32355000Y775000I-250000J0D01*
G01*
X31105000Y775000D01*
G75*
G02*
X30855000Y1025000I0J250000D01*
G01*
X30855000Y1775000D01*
G75*
G02*
X31105000Y2025000I250000J0D01*
G01*
G37*
%TD*%
%TO.C,F1*%
G36*
G01*
X15905000Y-775000D02*
X17155000Y-775000D01*
G75*
G02*
X17405000Y-1025000I0J-250000D01*
G01*
X17405000Y-1775000D01*
G75*
G02*
X17155000Y-2025000I-250000J0D01*
G01*
X15905000Y-2025000D01*
G75*
G02*
X15655000Y-1775000I0J250000D01*
G01*
X15655000Y-1025000D01*
G75*
G02*
X15905000Y-775000I250000J0D01*
G01*
G37*
G36*
G01*
X15905000Y2025000D02*
X17155000Y2025000D01*
G75*
G02*
X17405000Y1775000I0J-250000D01*
G01*
X17405000Y1025000D01*
G75*
G02*
X17155000Y775000I-250000J0D01*
G01*
X15905000Y775000D01*
G75*
G02*
X15655000Y1025000I0J250000D01*
G01*
X15655000Y1775000D01*
G75*
G02*
X15905000Y2025000I250000J0D01*
G01*
G37*
%TD*%
%TO.C,C4*%
G36*
G01*
X33619998Y-900000D02*
X34920002Y-900000D01*
G75*
G02*
X35170000Y-1149998I0J-249998D01*
G01*
X35170000Y-1975002D01*
G75*
G02*
X34920002Y-2225000I-249998J0D01*
G01*
X33619998Y-2225000D01*
G75*
G02*
X33370000Y-1975002I0J249998D01*
G01*
X33370000Y-1149998D01*
G75*
G02*
X33619998Y-900000I249998J0D01*
G01*
G37*
G36*
G01*
X33619998Y2225000D02*
X34920002Y2225000D01*
G75*
G02*
X35170000Y1975002I0J-249998D01*
G01*
X35170000Y1149998D01*
G75*
G02*
X34920002Y900000I-249998J0D01*
G01*
X33619998Y900000D01*
G75*
G02*
X33370000Y1149998I0J249998D01*
G01*
X33370000Y1975002D01*
G75*
G02*
X33619998Y2225000I249998J0D01*
G01*
G37*
%TD*%
%TO.C,C3*%
G36*
G01*
X35825000Y-12080002D02*
X35825000Y-10779998D01*
G75*
G02*
X36074998Y-10530000I249998J0D01*
G01*
X36900002Y-10530000D01*
G75*
G02*
X37150000Y-10779998I0J-249998D01*
G01*
X37150000Y-12080002D01*
G75*
G02*
X36900002Y-12330000I-249998J0D01*
G01*
X36074998Y-12330000D01*
G75*
G02*
X35825000Y-12080002I0J249998D01*
G01*
G37*
G36*
G01*
X32700000Y-12080002D02*
X32700000Y-10779998D01*
G75*
G02*
X32949998Y-10530000I249998J0D01*
G01*
X33775002Y-10530000D01*
G75*
G02*
X34025000Y-10779998I0J-249998D01*
G01*
X34025000Y-12080002D01*
G75*
G02*
X33775002Y-12330000I-249998J0D01*
G01*
X32949998Y-12330000D01*
G75*
G02*
X32700000Y-12080002I0J249998D01*
G01*
G37*
%TD*%
%TO.C,C2*%
G36*
G01*
X13339998Y-900000D02*
X14640002Y-900000D01*
G75*
G02*
X14890000Y-1149998I0J-249998D01*
G01*
X14890000Y-1975002D01*
G75*
G02*
X14640002Y-2225000I-249998J0D01*
G01*
X13339998Y-2225000D01*
G75*
G02*
X13090000Y-1975002I0J249998D01*
G01*
X13090000Y-1149998D01*
G75*
G02*
X13339998Y-900000I249998J0D01*
G01*
G37*
G36*
G01*
X13339998Y2225000D02*
X14640002Y2225000D01*
G75*
G02*
X14890000Y1975002I0J-249998D01*
G01*
X14890000Y1149998D01*
G75*
G02*
X14640002Y900000I-249998J0D01*
G01*
X13339998Y900000D01*
G75*
G02*
X13090000Y1149998I0J249998D01*
G01*
X13090000Y1975002D01*
G75*
G02*
X13339998Y2225000I249998J0D01*
G01*
G37*
%TD*%
%TO.C,C1*%
G36*
G01*
X12435000Y-10779998D02*
X12435000Y-12080002D01*
G75*
G02*
X12185002Y-12330000I-249998J0D01*
G01*
X11359998Y-12330000D01*
G75*
G02*
X11110000Y-12080002I0J249998D01*
G01*
X11110000Y-10779998D01*
G75*
G02*
X11359998Y-10530000I249998J0D01*
G01*
X12185002Y-10530000D01*
G75*
G02*
X12435000Y-10779998I0J-249998D01*
G01*
G37*
G36*
G01*
X15560000Y-10779998D02*
X15560000Y-12080002D01*
G75*
G02*
X15310002Y-12330000I-249998J0D01*
G01*
X14484998Y-12330000D01*
G75*
G02*
X14235000Y-12080002I0J249998D01*
G01*
X14235000Y-10779998D01*
G75*
G02*
X14484998Y-10530000I249998J0D01*
G01*
X15310002Y-10530000D01*
G75*
G02*
X15560000Y-10779998I0J-249998D01*
G01*
G37*
%TD*%
%TO.C,R2*%
G36*
G01*
X26025001Y900000D02*
X24774999Y900000D01*
G75*
G02*
X24525000Y1149999I0J249999D01*
G01*
X24525000Y1950001D01*
G75*
G02*
X24774999Y2200000I249999J0D01*
G01*
X26025001Y2200000D01*
G75*
G02*
X26275000Y1950001I0J-249999D01*
G01*
X26275000Y1149999D01*
G75*
G02*
X26025001Y900000I-249999J0D01*
G01*
G37*
G36*
G01*
X26025001Y-2200000D02*
X24774999Y-2200000D01*
G75*
G02*
X24525000Y-1950001I0J249999D01*
G01*
X24525000Y-1149999D01*
G75*
G02*
X24774999Y-900000I249999J0D01*
G01*
X26025001Y-900000D01*
G75*
G02*
X26275000Y-1149999I0J-249999D01*
G01*
X26275000Y-1950001D01*
G75*
G02*
X26025001Y-2200000I-249999J0D01*
G01*
G37*
%TD*%
%TO.C,R1*%
G36*
G01*
X23485001Y900000D02*
X22234999Y900000D01*
G75*
G02*
X21985000Y1149999I0J249999D01*
G01*
X21985000Y1950001D01*
G75*
G02*
X22234999Y2200000I249999J0D01*
G01*
X23485001Y2200000D01*
G75*
G02*
X23735000Y1950001I0J-249999D01*
G01*
X23735000Y1149999D01*
G75*
G02*
X23485001Y900000I-249999J0D01*
G01*
G37*
G36*
G01*
X23485001Y-2200000D02*
X22234999Y-2200000D01*
G75*
G02*
X21985000Y-1950001I0J249999D01*
G01*
X21985000Y-1149999D01*
G75*
G02*
X22234999Y-900000I249999J0D01*
G01*
X23485001Y-900000D01*
G75*
G02*
X23735000Y-1149999I0J-249999D01*
G01*
X23735000Y-1950001D01*
G75*
G02*
X23485001Y-2200000I-249999J0D01*
G01*
G37*
%TD*%
D14*
%TO.C,U3*%
X25640000Y-10770000D03*
X30240000Y-10770000D03*
X27940000Y-10770000D03*
D15*
X27940000Y-4470000D03*
%TD*%
D14*
%TO.C,U1*%
X18020000Y-10770000D03*
X22620000Y-10770000D03*
X20320000Y-10770000D03*
D15*
X20320000Y-4470000D03*
%TD*%
M02*
