%TF.GenerationSoftware,KiCad,Pcbnew,(5.1.7)-1*%
%TF.CreationDate,2021-01-13T20:41:06+01:00*%
%TF.ProjectId,MicroBBPS,4d696372-6f42-4425-9053-2e6b69636164,rev?*%
%TF.SameCoordinates,Original*%
%TF.FileFunction,Legend,Bot*%
%TF.FilePolarity,Positive*%
%FSLAX46Y46*%
G04 Gerber Fmt 4.6, Leading zero omitted, Abs format (unit mm)*
G04 Created by KiCad (PCBNEW (5.1.7)-1) date 2021-01-13 20:41:06*
%MOMM*%
%LPD*%
G01*
G04 APERTURE LIST*
%ADD10C,0.120000*%
%ADD11C,0.150000*%
%ADD12C,0.100000*%
%ADD13C,0.010000*%
%ADD14C,2.800000*%
%ADD15O,1.200000X1.900000*%
%ADD16C,1.390000*%
%ADD17O,1.800000X1.800000*%
G04 APERTURE END LIST*
D10*
X48650000Y-13130000D02*
X48650000Y-10630000D01*
X48650000Y-10630000D02*
X37150000Y-10630000D01*
D11*
X47769047Y-11582380D02*
X47769047Y-12296666D01*
X47816666Y-12439523D01*
X47911904Y-12534761D01*
X48054761Y-12582380D01*
X48150000Y-12582380D01*
X46816666Y-12582380D02*
X47292857Y-12582380D01*
X47292857Y-11582380D01*
X45911904Y-12487142D02*
X45959523Y-12534761D01*
X46102380Y-12582380D01*
X46197619Y-12582380D01*
X46340476Y-12534761D01*
X46435714Y-12439523D01*
X46483333Y-12344285D01*
X46530952Y-12153809D01*
X46530952Y-12010952D01*
X46483333Y-11820476D01*
X46435714Y-11725238D01*
X46340476Y-11630000D01*
X46197619Y-11582380D01*
X46102380Y-11582380D01*
X45959523Y-11630000D01*
X45911904Y-11677619D01*
X45197619Y-11582380D02*
X45197619Y-12296666D01*
X45245238Y-12439523D01*
X45340476Y-12534761D01*
X45483333Y-12582380D01*
X45578571Y-12582380D01*
X44245238Y-12582380D02*
X44721428Y-12582380D01*
X44721428Y-11582380D01*
X43340476Y-12487142D02*
X43388095Y-12534761D01*
X43530952Y-12582380D01*
X43626190Y-12582380D01*
X43769047Y-12534761D01*
X43864285Y-12439523D01*
X43911904Y-12344285D01*
X43959523Y-12153809D01*
X43959523Y-12010952D01*
X43911904Y-11820476D01*
X43864285Y-11725238D01*
X43769047Y-11630000D01*
X43626190Y-11582380D01*
X43530952Y-11582380D01*
X43388095Y-11630000D01*
X43340476Y-11677619D01*
X42626190Y-11582380D02*
X42626190Y-12296666D01*
X42673809Y-12439523D01*
X42769047Y-12534761D01*
X42911904Y-12582380D01*
X43007142Y-12582380D01*
X41673809Y-12582380D02*
X42150000Y-12582380D01*
X42150000Y-11582380D01*
X40769047Y-12487142D02*
X40816666Y-12534761D01*
X40959523Y-12582380D01*
X41054761Y-12582380D01*
X41197619Y-12534761D01*
X41292857Y-12439523D01*
X41340476Y-12344285D01*
X41388095Y-12153809D01*
X41388095Y-12010952D01*
X41340476Y-11820476D01*
X41292857Y-11725238D01*
X41197619Y-11630000D01*
X41054761Y-11582380D01*
X40959523Y-11582380D01*
X40816666Y-11630000D01*
X40769047Y-11677619D01*
X40054761Y-11582380D02*
X40054761Y-12296666D01*
X40102380Y-12439523D01*
X40197619Y-12534761D01*
X40340476Y-12582380D01*
X40435714Y-12582380D01*
X39102380Y-12582380D02*
X39578571Y-12582380D01*
X39578571Y-11582380D01*
X38197619Y-12487142D02*
X38245238Y-12534761D01*
X38388095Y-12582380D01*
X38483333Y-12582380D01*
X38626190Y-12534761D01*
X38721428Y-12439523D01*
X38769047Y-12344285D01*
X38816666Y-12153809D01*
X38816666Y-12010952D01*
X38769047Y-11820476D01*
X38721428Y-11725238D01*
X38626190Y-11630000D01*
X38483333Y-11582380D01*
X38388095Y-11582380D01*
X38245238Y-11630000D01*
X38197619Y-11677619D01*
D12*
X48459523Y-9332380D02*
X48269047Y-9332380D01*
X48173809Y-9380000D01*
X48078571Y-9475238D01*
X48030952Y-9665714D01*
X48030952Y-9999047D01*
X48078571Y-10189523D01*
X48173809Y-10284761D01*
X48269047Y-10332380D01*
X48459523Y-10332380D01*
X48554761Y-10284761D01*
X48650000Y-10189523D01*
X48697619Y-9999047D01*
X48697619Y-9665714D01*
X48650000Y-9475238D01*
X48554761Y-9380000D01*
X48459523Y-9332380D01*
X47602380Y-10332380D02*
X47602380Y-9665714D01*
X47602380Y-9856190D02*
X47554761Y-9760952D01*
X47507142Y-9713333D01*
X47411904Y-9665714D01*
X47316666Y-9665714D01*
X46554761Y-10332380D02*
X46554761Y-9332380D01*
X46554761Y-10284761D02*
X46650000Y-10332380D01*
X46840476Y-10332380D01*
X46935714Y-10284761D01*
X46983333Y-10237142D01*
X47030952Y-10141904D01*
X47030952Y-9856190D01*
X46983333Y-9760952D01*
X46935714Y-9713333D01*
X46840476Y-9665714D01*
X46650000Y-9665714D01*
X46554761Y-9713333D01*
X45697619Y-10284761D02*
X45792857Y-10332380D01*
X45983333Y-10332380D01*
X46078571Y-10284761D01*
X46126190Y-10189523D01*
X46126190Y-9808571D01*
X46078571Y-9713333D01*
X45983333Y-9665714D01*
X45792857Y-9665714D01*
X45697619Y-9713333D01*
X45650000Y-9808571D01*
X45650000Y-9903809D01*
X46126190Y-9999047D01*
X45221428Y-10332380D02*
X45221428Y-9665714D01*
X45221428Y-9856190D02*
X45173809Y-9760952D01*
X45126190Y-9713333D01*
X45030952Y-9665714D01*
X44935714Y-9665714D01*
X43840476Y-10332380D02*
X43840476Y-9332380D01*
X43269047Y-10332380D01*
X43269047Y-9332380D01*
X42364285Y-9665714D02*
X42364285Y-10332380D01*
X42792857Y-9665714D02*
X42792857Y-10189523D01*
X42745238Y-10284761D01*
X42650000Y-10332380D01*
X42507142Y-10332380D01*
X42411904Y-10284761D01*
X42364285Y-10237142D01*
X41888095Y-10332380D02*
X41888095Y-9665714D01*
X41888095Y-9760952D02*
X41840476Y-9713333D01*
X41745238Y-9665714D01*
X41602380Y-9665714D01*
X41507142Y-9713333D01*
X41459523Y-9808571D01*
X41459523Y-10332380D01*
X41459523Y-9808571D02*
X41411904Y-9713333D01*
X41316666Y-9665714D01*
X41173809Y-9665714D01*
X41078571Y-9713333D01*
X41030952Y-9808571D01*
X41030952Y-10332380D01*
X40554761Y-10332380D02*
X40554761Y-9332380D01*
X40554761Y-9713333D02*
X40459523Y-9665714D01*
X40269047Y-9665714D01*
X40173809Y-9713333D01*
X40126190Y-9760952D01*
X40078571Y-9856190D01*
X40078571Y-10141904D01*
X40126190Y-10237142D01*
X40173809Y-10284761D01*
X40269047Y-10332380D01*
X40459523Y-10332380D01*
X40554761Y-10284761D01*
X39269047Y-10284761D02*
X39364285Y-10332380D01*
X39554761Y-10332380D01*
X39650000Y-10284761D01*
X39697619Y-10189523D01*
X39697619Y-9808571D01*
X39650000Y-9713333D01*
X39554761Y-9665714D01*
X39364285Y-9665714D01*
X39269047Y-9713333D01*
X39221428Y-9808571D01*
X39221428Y-9903809D01*
X39697619Y-9999047D01*
X38792857Y-10332380D02*
X38792857Y-9665714D01*
X38792857Y-9856190D02*
X38745238Y-9760952D01*
X38697619Y-9713333D01*
X38602380Y-9665714D01*
X38507142Y-9665714D01*
D10*
X14986000Y9144000D02*
X14478000Y10414000D01*
X15748000Y8636000D02*
X14986000Y9144000D01*
X16510000Y9144000D02*
X15748000Y8636000D01*
X17018000Y10414000D02*
X16510000Y9144000D01*
X15748000Y9144000D02*
X17018000Y10414000D01*
X17018000Y10414000D02*
X15748000Y12192000D01*
X14478000Y10414000D02*
X15748000Y12192000D01*
X15748000Y9144000D02*
X14478000Y10414000D01*
X15748000Y12192000D02*
X15748000Y9144000D01*
X41148000Y-3302000D02*
X43942000Y-3302000D01*
X43942000Y-2794000D02*
X41402000Y-2794000D01*
X43942000Y-2286000D02*
X41910000Y-2286000D01*
X43942000Y-1778000D02*
X42418000Y-1778000D01*
X43942000Y-1270000D02*
X42926000Y-1270000D01*
X43942000Y-254000D02*
X43942000Y-762000D01*
X41148000Y-3048000D02*
X43942000Y-254000D01*
X41148000Y-6096000D02*
X41148000Y-3048000D01*
X43942000Y-8890000D02*
X41148000Y-8890000D01*
X43942000Y-762000D02*
X43942000Y-8890000D01*
X8128000Y-10414000D02*
X8128000Y-8890000D01*
X9906000Y-12192000D02*
X8128000Y-10414000D01*
X15240000Y-12192000D02*
X9906000Y-12192000D01*
X36310000Y-12190000D02*
X15240000Y-12192000D01*
X33655000Y-10795000D02*
X34925000Y-9525000D01*
X14605000Y-10795000D02*
X33655000Y-10795000D01*
X13335000Y-9525000D02*
X14605000Y-10795000D01*
X13335000Y-8890000D02*
X13335000Y-9525000D01*
X13970000Y-5080000D02*
X12065000Y-5080000D01*
X31115000Y-3810000D02*
X15240000Y-3810000D01*
X34290000Y-5080000D02*
X33020000Y-3810000D01*
X36195000Y-5080000D02*
X34290000Y-5080000D01*
X-635000Y9525000D02*
X-635000Y6985000D01*
X-635000Y5715000D02*
X-635000Y5080000D01*
X0Y6350000D02*
X-635000Y5715000D01*
X4445000Y6350000D02*
X0Y6350000D01*
X5080000Y5715000D02*
X5715000Y6350000D01*
X1270000Y5715000D02*
X5080000Y5715000D01*
X0Y4445000D02*
X1270000Y5715000D01*
X-635000Y4445000D02*
X0Y4445000D01*
X6985000Y6350000D02*
X6985000Y8255000D01*
X5715000Y5080000D02*
X6985000Y6350000D01*
X3810000Y5080000D02*
X5715000Y5080000D01*
X13843000Y3429000D02*
X11938000Y5334000D01*
X14478000Y3429000D02*
X13843000Y3429000D01*
X12573000Y5334000D02*
X14478000Y3429000D01*
X13208000Y5334000D02*
X12573000Y5334000D01*
X15113000Y3429000D02*
X13208000Y5334000D01*
X15748000Y3429000D02*
X15113000Y3429000D01*
X13843000Y5334000D02*
X15748000Y3429000D01*
X14478000Y5334000D02*
X13843000Y5334000D01*
X16383000Y3429000D02*
X14478000Y5334000D01*
X10033000Y3429000D02*
X17653000Y3429000D01*
X10033000Y5334000D02*
X10033000Y3429000D01*
X15748000Y5334000D02*
X10033000Y5334000D01*
X17653000Y3429000D02*
X15748000Y5334000D01*
X-1270000Y11430000D02*
X-1270000Y10795000D01*
X-1270000Y9525000D02*
X-1270000Y4445000D01*
X-635000Y10160000D02*
X-1270000Y9525000D01*
X1905000Y10795000D02*
X0Y10795000D01*
X2540000Y10160000D02*
X1905000Y10795000D01*
X2540000Y11430000D02*
X-635000Y11430000D01*
X3810000Y10160000D02*
X2540000Y11430000D01*
X-635000Y12065000D02*
X-1270000Y12065000D01*
X3175000Y12065000D02*
X-635000Y12065000D01*
X5080000Y10160000D02*
X3175000Y12065000D01*
X635000Y13335000D02*
X0Y12700000D01*
X1905000Y5080000D02*
X3810000Y5080000D01*
X635000Y3810000D02*
X1905000Y5080000D01*
X-635000Y3810000D02*
X635000Y3810000D01*
X-1905000Y2540000D02*
X-635000Y3810000D01*
X-1905000Y12700000D02*
X-1905000Y2540000D01*
X0Y12700000D02*
X-1905000Y12700000D01*
X9525000Y12065000D02*
X9525000Y10795000D01*
X8890000Y11430000D02*
X8890000Y10160000D01*
X8255000Y10795000D02*
X8255000Y9525000D01*
X7620000Y10160000D02*
X7620000Y8890000D01*
X6985000Y9525000D02*
X6985000Y8255000D01*
X3175000Y13335000D02*
X6985000Y9525000D01*
X635000Y13335000D02*
X3175000Y13335000D01*
X3810000Y13970000D02*
X635000Y13970000D01*
X7620000Y10160000D02*
X3810000Y13970000D01*
X4445000Y14605000D02*
X635000Y14605000D01*
X8255000Y10795000D02*
X4445000Y14605000D01*
X5080000Y15240000D02*
X635000Y15240000D01*
X8890000Y11430000D02*
X5080000Y15240000D01*
X5715000Y15875000D02*
X635000Y15875000D01*
X9525000Y12065000D02*
X5715000Y15875000D01*
D13*
%TO.C,G\u002A\u002A\u002A*%
G36*
X24299334Y-1291167D02*
G01*
X29464000Y-1291167D01*
X29464000Y-767292D01*
X28806817Y-767292D01*
X28788170Y-776394D01*
X28737783Y-782024D01*
X28666086Y-784424D01*
X28583509Y-783837D01*
X28500482Y-780507D01*
X28427436Y-774677D01*
X28374799Y-766591D01*
X28353067Y-756709D01*
X28342787Y-723028D01*
X28325402Y-663161D01*
X28309711Y-607904D01*
X28275292Y-485558D01*
X28018729Y-491487D01*
X27762165Y-497417D01*
X27728341Y-635000D01*
X27694517Y-772584D01*
X27468009Y-778591D01*
X27375903Y-779592D01*
X27301884Y-777650D01*
X27254588Y-773171D01*
X27241796Y-768008D01*
X27248299Y-744837D01*
X27266703Y-685988D01*
X27295548Y-595955D01*
X27333379Y-479232D01*
X27378737Y-340311D01*
X27430166Y-183687D01*
X27470846Y-60405D01*
X27151805Y-60405D01*
X27137875Y-218248D01*
X27097698Y-402324D01*
X27034137Y-551571D01*
X26947470Y-665722D01*
X26837977Y-744509D01*
X26705936Y-787666D01*
X26551626Y-794924D01*
X26537448Y-793874D01*
X26453006Y-780670D01*
X26372052Y-758120D01*
X26336365Y-743191D01*
X26227118Y-664819D01*
X26142821Y-554221D01*
X26083262Y-410803D01*
X26048227Y-233970D01*
X26037504Y-23128D01*
X26040559Y83097D01*
X26055668Y252719D01*
X26072248Y333892D01*
X25840247Y333892D01*
X25836509Y319575D01*
X25825937Y304414D01*
X25818410Y294083D01*
X25783318Y247368D01*
X25735031Y187879D01*
X25712787Y161713D01*
X25642109Y80010D01*
X25510471Y190003D01*
X25378834Y299997D01*
X25378834Y-783167D01*
X24955500Y-783167D01*
X24955500Y783166D01*
X25320378Y783166D01*
X25513648Y625607D01*
X25627980Y532526D01*
X25713460Y462552D01*
X25773757Y411694D01*
X25812541Y375959D01*
X25833480Y351356D01*
X25840247Y333892D01*
X26072248Y333892D01*
X26083962Y391237D01*
X26128186Y508573D01*
X26185375Y606448D01*
X26271236Y696068D01*
X26381032Y758132D01*
X26506090Y792083D01*
X26637738Y797365D01*
X26767304Y773421D01*
X26886117Y719694D01*
X26965937Y656563D01*
X27034173Y562910D01*
X27088409Y436593D01*
X27127114Y285407D01*
X27148757Y117143D01*
X27151805Y-60405D01*
X27470846Y-60405D01*
X27486208Y-13852D01*
X27494293Y10583D01*
X27746495Y772583D01*
X28308789Y772583D01*
X28557295Y10583D01*
X28613089Y-160826D01*
X28664564Y-319596D01*
X28710279Y-461230D01*
X28748789Y-581230D01*
X28778653Y-675096D01*
X28798426Y-738331D01*
X28806667Y-766436D01*
X28806817Y-767292D01*
X29464000Y-767292D01*
X29464000Y1291166D01*
X24299334Y1291166D01*
X24299334Y-1291167D01*
G37*
X24299334Y-1291167D02*
X29464000Y-1291167D01*
X29464000Y-767292D01*
X28806817Y-767292D01*
X28788170Y-776394D01*
X28737783Y-782024D01*
X28666086Y-784424D01*
X28583509Y-783837D01*
X28500482Y-780507D01*
X28427436Y-774677D01*
X28374799Y-766591D01*
X28353067Y-756709D01*
X28342787Y-723028D01*
X28325402Y-663161D01*
X28309711Y-607904D01*
X28275292Y-485558D01*
X28018729Y-491487D01*
X27762165Y-497417D01*
X27728341Y-635000D01*
X27694517Y-772584D01*
X27468009Y-778591D01*
X27375903Y-779592D01*
X27301884Y-777650D01*
X27254588Y-773171D01*
X27241796Y-768008D01*
X27248299Y-744837D01*
X27266703Y-685988D01*
X27295548Y-595955D01*
X27333379Y-479232D01*
X27378737Y-340311D01*
X27430166Y-183687D01*
X27470846Y-60405D01*
X27151805Y-60405D01*
X27137875Y-218248D01*
X27097698Y-402324D01*
X27034137Y-551571D01*
X26947470Y-665722D01*
X26837977Y-744509D01*
X26705936Y-787666D01*
X26551626Y-794924D01*
X26537448Y-793874D01*
X26453006Y-780670D01*
X26372052Y-758120D01*
X26336365Y-743191D01*
X26227118Y-664819D01*
X26142821Y-554221D01*
X26083262Y-410803D01*
X26048227Y-233970D01*
X26037504Y-23128D01*
X26040559Y83097D01*
X26055668Y252719D01*
X26072248Y333892D01*
X25840247Y333892D01*
X25836509Y319575D01*
X25825937Y304414D01*
X25818410Y294083D01*
X25783318Y247368D01*
X25735031Y187879D01*
X25712787Y161713D01*
X25642109Y80010D01*
X25510471Y190003D01*
X25378834Y299997D01*
X25378834Y-783167D01*
X24955500Y-783167D01*
X24955500Y783166D01*
X25320378Y783166D01*
X25513648Y625607D01*
X25627980Y532526D01*
X25713460Y462552D01*
X25773757Y411694D01*
X25812541Y375959D01*
X25833480Y351356D01*
X25840247Y333892D01*
X26072248Y333892D01*
X26083962Y391237D01*
X26128186Y508573D01*
X26185375Y606448D01*
X26271236Y696068D01*
X26381032Y758132D01*
X26506090Y792083D01*
X26637738Y797365D01*
X26767304Y773421D01*
X26886117Y719694D01*
X26965937Y656563D01*
X27034173Y562910D01*
X27088409Y436593D01*
X27127114Y285407D01*
X27148757Y117143D01*
X27151805Y-60405D01*
X27470846Y-60405D01*
X27486208Y-13852D01*
X27494293Y10583D01*
X27746495Y772583D01*
X28308789Y772583D01*
X28557295Y10583D01*
X28613089Y-160826D01*
X28664564Y-319596D01*
X28710279Y-461230D01*
X28748789Y-581230D01*
X28778653Y-675096D01*
X28798426Y-738331D01*
X28806667Y-766436D01*
X28806817Y-767292D01*
X29464000Y-767292D01*
X29464000Y1291166D01*
X24299334Y1291166D01*
X24299334Y-1291167D01*
G36*
X38479576Y789787D02*
G01*
X38358744Y772332D01*
X38290500Y754106D01*
X38224772Y730327D01*
X38176043Y710124D01*
X38158626Y700548D01*
X38159738Y677303D01*
X38172827Y626558D01*
X38193863Y560007D01*
X38218817Y489341D01*
X38243657Y426251D01*
X38264353Y382430D01*
X38272198Y371080D01*
X38295909Y372348D01*
X38346323Y386370D01*
X38392531Y402669D01*
X38500912Y432247D01*
X38612368Y443156D01*
X38712381Y434931D01*
X38773321Y414825D01*
X38818261Y378551D01*
X38865394Y321241D01*
X38883201Y293117D01*
X38908667Y243018D01*
X38924395Y193370D01*
X38932636Y131636D01*
X38935645Y45278D01*
X38935890Y0D01*
X38929353Y-142455D01*
X38907920Y-250776D01*
X38869322Y-331237D01*
X38811292Y-390109D01*
X38789611Y-404587D01*
X38709418Y-433757D01*
X38603550Y-444138D01*
X38484233Y-435795D01*
X38363693Y-408794D01*
X38343417Y-402167D01*
X38277772Y-379956D01*
X38230386Y-364627D01*
X38213104Y-359834D01*
X38209797Y-379368D01*
X38207277Y-431444D01*
X38205945Y-506273D01*
X38205834Y-537182D01*
X38206446Y-623904D01*
X38210135Y-677877D01*
X38219683Y-708683D01*
X38237870Y-725906D01*
X38264042Y-737760D01*
X38389326Y-774627D01*
X38533868Y-796466D01*
X38682126Y-802400D01*
X38818557Y-791548D01*
X38898279Y-773626D01*
X39053414Y-706163D01*
X39178437Y-609814D01*
X39273823Y-483919D01*
X39340045Y-327824D01*
X39377576Y-140871D01*
X39381374Y-103294D01*
X39382675Y46915D01*
X39363362Y200436D01*
X39326219Y342454D01*
X39276579Y453873D01*
X39193182Y564489D01*
X39083573Y665020D01*
X38963665Y741167D01*
X38949258Y748024D01*
X38860264Y774959D01*
X38743526Y790978D01*
X38612233Y795962D01*
X38479576Y789787D01*
G37*
X38479576Y789787D02*
X38358744Y772332D01*
X38290500Y754106D01*
X38224772Y730327D01*
X38176043Y710124D01*
X38158626Y700548D01*
X38159738Y677303D01*
X38172827Y626558D01*
X38193863Y560007D01*
X38218817Y489341D01*
X38243657Y426251D01*
X38264353Y382430D01*
X38272198Y371080D01*
X38295909Y372348D01*
X38346323Y386370D01*
X38392531Y402669D01*
X38500912Y432247D01*
X38612368Y443156D01*
X38712381Y434931D01*
X38773321Y414825D01*
X38818261Y378551D01*
X38865394Y321241D01*
X38883201Y293117D01*
X38908667Y243018D01*
X38924395Y193370D01*
X38932636Y131636D01*
X38935645Y45278D01*
X38935890Y0D01*
X38929353Y-142455D01*
X38907920Y-250776D01*
X38869322Y-331237D01*
X38811292Y-390109D01*
X38789611Y-404587D01*
X38709418Y-433757D01*
X38603550Y-444138D01*
X38484233Y-435795D01*
X38363693Y-408794D01*
X38343417Y-402167D01*
X38277772Y-379956D01*
X38230386Y-364627D01*
X38213104Y-359834D01*
X38209797Y-379368D01*
X38207277Y-431444D01*
X38205945Y-506273D01*
X38205834Y-537182D01*
X38206446Y-623904D01*
X38210135Y-677877D01*
X38219683Y-708683D01*
X38237870Y-725906D01*
X38264042Y-737760D01*
X38389326Y-774627D01*
X38533868Y-796466D01*
X38682126Y-802400D01*
X38818557Y-791548D01*
X38898279Y-773626D01*
X39053414Y-706163D01*
X39178437Y-609814D01*
X39273823Y-483919D01*
X39340045Y-327824D01*
X39377576Y-140871D01*
X39381374Y-103294D01*
X39382675Y46915D01*
X39363362Y200436D01*
X39326219Y342454D01*
X39276579Y453873D01*
X39193182Y564489D01*
X39083573Y665020D01*
X38963665Y741167D01*
X38949258Y748024D01*
X38860264Y774959D01*
X38743526Y790978D01*
X38612233Y795962D01*
X38479576Y789787D01*
G36*
X40317209Y778402D02*
G01*
X40161863Y773919D01*
X40041684Y767416D01*
X39949507Y757326D01*
X39878167Y742084D01*
X39820501Y720123D01*
X39769343Y689877D01*
X39717530Y649781D01*
X39713552Y646446D01*
X39648039Y566177D01*
X39602376Y458774D01*
X39578291Y335357D01*
X39577511Y207050D01*
X39601762Y84974D01*
X39619296Y39408D01*
X39686373Y-72361D01*
X39776438Y-156864D01*
X39893850Y-216705D01*
X40042968Y-254485D01*
X40130653Y-265904D01*
X40280167Y-280637D01*
X40280167Y-783167D01*
X40703500Y-783167D01*
X40703500Y84666D01*
X40280167Y84666D01*
X40217663Y84666D01*
X40151849Y92972D01*
X40103581Y108167D01*
X40049149Y152686D01*
X40015600Y218682D01*
X40005751Y292204D01*
X40022423Y359301D01*
X40046475Y390806D01*
X40093007Y416418D01*
X40159724Y435463D01*
X40184058Y439173D01*
X40280167Y450005D01*
X40280167Y84666D01*
X40703500Y84666D01*
X40703500Y787204D01*
X40317209Y778402D01*
G37*
X40317209Y778402D02*
X40161863Y773919D01*
X40041684Y767416D01*
X39949507Y757326D01*
X39878167Y742084D01*
X39820501Y720123D01*
X39769343Y689877D01*
X39717530Y649781D01*
X39713552Y646446D01*
X39648039Y566177D01*
X39602376Y458774D01*
X39578291Y335357D01*
X39577511Y207050D01*
X39601762Y84974D01*
X39619296Y39408D01*
X39686373Y-72361D01*
X39776438Y-156864D01*
X39893850Y-216705D01*
X40042968Y-254485D01*
X40130653Y-265904D01*
X40280167Y-280637D01*
X40280167Y-783167D01*
X40703500Y-783167D01*
X40703500Y84666D01*
X40280167Y84666D01*
X40217663Y84666D01*
X40151849Y92972D01*
X40103581Y108167D01*
X40049149Y152686D01*
X40015600Y218682D01*
X40005751Y292204D01*
X40022423Y359301D01*
X40046475Y390806D01*
X40093007Y416418D01*
X40159724Y435463D01*
X40184058Y439173D01*
X40280167Y450005D01*
X40280167Y84666D01*
X40703500Y84666D01*
X40703500Y787204D01*
X40317209Y778402D01*
G36*
X37383717Y781120D02*
G01*
X37241488Y774316D01*
X37127787Y761754D01*
X37035795Y742437D01*
X36958692Y715366D01*
X36901546Y686537D01*
X36815996Y615669D01*
X36764188Y520145D01*
X36745457Y398695D01*
X36745367Y388384D01*
X36762100Y269254D01*
X36809682Y169614D01*
X36884307Y97318D01*
X36887393Y95360D01*
X36938998Y57616D01*
X36955088Y32106D01*
X36934281Y21351D01*
X36928105Y21166D01*
X36879694Y3698D01*
X36824291Y-41765D01*
X36772703Y-104805D01*
X36743140Y-157086D01*
X36708061Y-281089D01*
X36712632Y-403792D01*
X36754428Y-519234D01*
X36831020Y-621454D01*
X36939984Y-704492D01*
X36973124Y-722110D01*
X37010726Y-739186D01*
X37048855Y-752008D01*
X37094475Y-761343D01*
X37154553Y-767959D01*
X37236055Y-772621D01*
X37345946Y-776095D01*
X37491193Y-779150D01*
X37491459Y-779155D01*
X37909500Y-786995D01*
X37909500Y-444500D01*
X37486167Y-444500D01*
X37359167Y-444500D01*
X37277841Y-440738D01*
X37225314Y-427278D01*
X37189834Y-402167D01*
X37154634Y-339694D01*
X37151988Y-265460D01*
X37182125Y-195039D01*
X37186686Y-189132D01*
X37220033Y-159581D01*
X37268660Y-142036D01*
X37345344Y-132134D01*
X37356019Y-131326D01*
X37486167Y-121912D01*
X37486167Y-444500D01*
X37909500Y-444500D01*
X37909500Y190500D01*
X37486167Y190500D01*
X37371287Y190500D01*
X37300097Y193525D01*
X37255695Y206192D01*
X37222747Y233887D01*
X37212537Y246271D01*
X37176738Y302443D01*
X37173724Y347742D01*
X37202829Y397240D01*
X37205709Y400829D01*
X37245909Y432306D01*
X37310783Y451709D01*
X37364459Y459051D01*
X37486167Y471589D01*
X37486167Y190500D01*
X37909500Y190500D01*
X37909500Y783166D01*
X37561292Y783167D01*
X37383717Y781120D01*
G37*
X37383717Y781120D02*
X37241488Y774316D01*
X37127787Y761754D01*
X37035795Y742437D01*
X36958692Y715366D01*
X36901546Y686537D01*
X36815996Y615669D01*
X36764188Y520145D01*
X36745457Y398695D01*
X36745367Y388384D01*
X36762100Y269254D01*
X36809682Y169614D01*
X36884307Y97318D01*
X36887393Y95360D01*
X36938998Y57616D01*
X36955088Y32106D01*
X36934281Y21351D01*
X36928105Y21166D01*
X36879694Y3698D01*
X36824291Y-41765D01*
X36772703Y-104805D01*
X36743140Y-157086D01*
X36708061Y-281089D01*
X36712632Y-403792D01*
X36754428Y-519234D01*
X36831020Y-621454D01*
X36939984Y-704492D01*
X36973124Y-722110D01*
X37010726Y-739186D01*
X37048855Y-752008D01*
X37094475Y-761343D01*
X37154553Y-767959D01*
X37236055Y-772621D01*
X37345946Y-776095D01*
X37491193Y-779150D01*
X37491459Y-779155D01*
X37909500Y-786995D01*
X37909500Y-444500D01*
X37486167Y-444500D01*
X37359167Y-444500D01*
X37277841Y-440738D01*
X37225314Y-427278D01*
X37189834Y-402167D01*
X37154634Y-339694D01*
X37151988Y-265460D01*
X37182125Y-195039D01*
X37186686Y-189132D01*
X37220033Y-159581D01*
X37268660Y-142036D01*
X37345344Y-132134D01*
X37356019Y-131326D01*
X37486167Y-121912D01*
X37486167Y-444500D01*
X37909500Y-444500D01*
X37909500Y190500D01*
X37486167Y190500D01*
X37371287Y190500D01*
X37300097Y193525D01*
X37255695Y206192D01*
X37222747Y233887D01*
X37212537Y246271D01*
X37176738Y302443D01*
X37173724Y347742D01*
X37202829Y397240D01*
X37205709Y400829D01*
X37245909Y432306D01*
X37310783Y451709D01*
X37364459Y459051D01*
X37486167Y471589D01*
X37486167Y190500D01*
X37909500Y190500D01*
X37909500Y783166D01*
X37561292Y783167D01*
X37383717Y781120D01*
G36*
X35529553Y772583D02*
G01*
X35281539Y21166D01*
X35225422Y-149434D01*
X35173679Y-307856D01*
X35127786Y-449495D01*
X35089220Y-569744D01*
X35059457Y-663999D01*
X35039973Y-727653D01*
X35032245Y-756100D01*
X35032180Y-756709D01*
X35043655Y-769219D01*
X35082863Y-777417D01*
X35154708Y-781875D01*
X35258979Y-783167D01*
X35487124Y-783167D01*
X35525293Y-635000D01*
X35563461Y-486834D01*
X36062802Y-486834D01*
X36101231Y-635000D01*
X36139661Y-783167D01*
X36368414Y-783167D01*
X36485655Y-781057D01*
X36561086Y-774707D01*
X36595021Y-764085D01*
X36597167Y-759734D01*
X36590806Y-734952D01*
X36572686Y-674509D01*
X36544247Y-582965D01*
X36506933Y-464882D01*
X36462186Y-324820D01*
X36411448Y-167340D01*
X36399852Y-131611D01*
X35962810Y-131611D01*
X35962800Y-132292D01*
X35943444Y-142970D01*
X35895073Y-148475D01*
X35830630Y-149268D01*
X35763058Y-145809D01*
X35705299Y-138560D01*
X35670296Y-127979D01*
X35665372Y-121709D01*
X35669998Y-89803D01*
X35682873Y-28780D01*
X35701739Y52449D01*
X35724340Y144971D01*
X35748418Y239871D01*
X35771717Y328237D01*
X35791979Y401155D01*
X35806946Y449713D01*
X35814000Y465220D01*
X35821687Y446168D01*
X35836715Y394701D01*
X35856887Y319646D01*
X35880003Y229833D01*
X35903866Y134090D01*
X35926277Y41245D01*
X35945037Y-39872D01*
X35957947Y-100433D01*
X35962810Y-131611D01*
X36399852Y-131611D01*
X36356162Y2998D01*
X36349318Y24002D01*
X36101469Y784303D01*
X35529553Y772583D01*
G37*
X35529553Y772583D02*
X35281539Y21166D01*
X35225422Y-149434D01*
X35173679Y-307856D01*
X35127786Y-449495D01*
X35089220Y-569744D01*
X35059457Y-663999D01*
X35039973Y-727653D01*
X35032245Y-756100D01*
X35032180Y-756709D01*
X35043655Y-769219D01*
X35082863Y-777417D01*
X35154708Y-781875D01*
X35258979Y-783167D01*
X35487124Y-783167D01*
X35525293Y-635000D01*
X35563461Y-486834D01*
X36062802Y-486834D01*
X36101231Y-635000D01*
X36139661Y-783167D01*
X36368414Y-783167D01*
X36485655Y-781057D01*
X36561086Y-774707D01*
X36595021Y-764085D01*
X36597167Y-759734D01*
X36590806Y-734952D01*
X36572686Y-674509D01*
X36544247Y-582965D01*
X36506933Y-464882D01*
X36462186Y-324820D01*
X36411448Y-167340D01*
X36399852Y-131611D01*
X35962810Y-131611D01*
X35962800Y-132292D01*
X35943444Y-142970D01*
X35895073Y-148475D01*
X35830630Y-149268D01*
X35763058Y-145809D01*
X35705299Y-138560D01*
X35670296Y-127979D01*
X35665372Y-121709D01*
X35669998Y-89803D01*
X35682873Y-28780D01*
X35701739Y52449D01*
X35724340Y144971D01*
X35748418Y239871D01*
X35771717Y328237D01*
X35791979Y401155D01*
X35806946Y449713D01*
X35814000Y465220D01*
X35821687Y446168D01*
X35836715Y394701D01*
X35856887Y319646D01*
X35880003Y229833D01*
X35903866Y134090D01*
X35926277Y41245D01*
X35945037Y-39872D01*
X35957947Y-100433D01*
X35962810Y-131611D01*
X36399852Y-131611D01*
X36356162Y2998D01*
X36349318Y24002D01*
X36101469Y784303D01*
X35529553Y772583D01*
G36*
X33903709Y779725D02*
G01*
X33765133Y776717D01*
X33661229Y773194D01*
X33584338Y768199D01*
X33526801Y760779D01*
X33480958Y749978D01*
X33439151Y734841D01*
X33398736Y716763D01*
X33286495Y650792D01*
X33211037Y571648D01*
X33167197Y471865D01*
X33150481Y357803D01*
X33157795Y216262D01*
X33198892Y96809D01*
X33276366Y-5345D01*
X33392812Y-94988D01*
X33397326Y-97775D01*
X33388423Y-115812D01*
X33359470Y-163304D01*
X33314063Y-234594D01*
X33255801Y-324024D01*
X33194826Y-416131D01*
X33126211Y-519212D01*
X33065228Y-611122D01*
X33015991Y-685639D01*
X32982611Y-736542D01*
X32969710Y-756709D01*
X32971953Y-768567D01*
X32998813Y-776494D01*
X33055503Y-781107D01*
X33147236Y-783020D01*
X33193784Y-783167D01*
X33433566Y-783167D01*
X33598589Y-497417D01*
X33663298Y-386863D01*
X33711821Y-308395D01*
X33748076Y-256846D01*
X33775980Y-227045D01*
X33799451Y-213825D01*
X33815140Y-211667D01*
X33866667Y-211667D01*
X33866667Y-783167D01*
X34290000Y-783167D01*
X34290000Y285750D01*
X33866667Y285750D01*
X33866667Y105833D01*
X33793580Y105833D01*
X33726336Y112826D01*
X33668914Y129334D01*
X33611446Y176663D01*
X33578246Y246934D01*
X33573737Y325693D01*
X33591750Y381465D01*
X33627956Y414035D01*
X33691478Y442456D01*
X33767320Y461181D01*
X33819042Y465548D01*
X33842127Y463262D01*
X33856219Y450696D01*
X33863530Y419498D01*
X33866274Y361316D01*
X33866667Y285750D01*
X34290000Y285750D01*
X34290000Y787204D01*
X33903709Y779725D01*
G37*
X33903709Y779725D02*
X33765133Y776717D01*
X33661229Y773194D01*
X33584338Y768199D01*
X33526801Y760779D01*
X33480958Y749978D01*
X33439151Y734841D01*
X33398736Y716763D01*
X33286495Y650792D01*
X33211037Y571648D01*
X33167197Y471865D01*
X33150481Y357803D01*
X33157795Y216262D01*
X33198892Y96809D01*
X33276366Y-5345D01*
X33392812Y-94988D01*
X33397326Y-97775D01*
X33388423Y-115812D01*
X33359470Y-163304D01*
X33314063Y-234594D01*
X33255801Y-324024D01*
X33194826Y-416131D01*
X33126211Y-519212D01*
X33065228Y-611122D01*
X33015991Y-685639D01*
X32982611Y-736542D01*
X32969710Y-756709D01*
X32971953Y-768567D01*
X32998813Y-776494D01*
X33055503Y-781107D01*
X33147236Y-783020D01*
X33193784Y-783167D01*
X33433566Y-783167D01*
X33598589Y-497417D01*
X33663298Y-386863D01*
X33711821Y-308395D01*
X33748076Y-256846D01*
X33775980Y-227045D01*
X33799451Y-213825D01*
X33815140Y-211667D01*
X33866667Y-211667D01*
X33866667Y-783167D01*
X34290000Y-783167D01*
X34290000Y285750D01*
X33866667Y285750D01*
X33866667Y105833D01*
X33793580Y105833D01*
X33726336Y112826D01*
X33668914Y129334D01*
X33611446Y176663D01*
X33578246Y246934D01*
X33573737Y325693D01*
X33591750Y381465D01*
X33627956Y414035D01*
X33691478Y442456D01*
X33767320Y461181D01*
X33819042Y465548D01*
X33842127Y463262D01*
X33856219Y450696D01*
X33863530Y419498D01*
X33866274Y361316D01*
X33866667Y285750D01*
X34290000Y285750D01*
X34290000Y787204D01*
X33903709Y779725D01*
G36*
X31877000Y444500D02*
G01*
X32385000Y444500D01*
X32385000Y190500D01*
X31919334Y190500D01*
X31919334Y-148167D01*
X32385000Y-148167D01*
X32385000Y-444500D01*
X31877000Y-444500D01*
X31877000Y-783167D01*
X32808334Y-783167D01*
X32808334Y783166D01*
X31877000Y783166D01*
X31877000Y444500D01*
G37*
X31877000Y444500D02*
X32385000Y444500D01*
X32385000Y190500D01*
X31919334Y190500D01*
X31919334Y-148167D01*
X32385000Y-148167D01*
X32385000Y-444500D01*
X31877000Y-444500D01*
X31877000Y-783167D01*
X32808334Y-783167D01*
X32808334Y783166D01*
X31877000Y783166D01*
X31877000Y444500D01*
G36*
X31275945Y672041D02*
G01*
X31260791Y617703D01*
X31237470Y530438D01*
X31208110Y418385D01*
X31174839Y289680D01*
X31139785Y152460D01*
X31132245Y122724D01*
X31021285Y-315468D01*
X30984394Y-141859D01*
X30966138Y-62248D01*
X30939213Y47027D01*
X30906443Y174888D01*
X30870653Y310257D01*
X30845696Y402166D01*
X30743888Y772583D01*
X30506111Y778568D01*
X30411499Y780396D01*
X30334739Y780826D01*
X30284279Y779882D01*
X30268334Y777891D01*
X30274674Y756976D01*
X30292746Y700223D01*
X30321126Y612029D01*
X30358393Y496793D01*
X30403121Y358915D01*
X30453890Y202793D01*
X30509275Y32825D01*
X30520205Y-678D01*
X30772076Y-772584D01*
X31275438Y-784398D01*
X31523303Y-24049D01*
X31579038Y147526D01*
X31630397Y306788D01*
X31675938Y449178D01*
X31714218Y570134D01*
X31743796Y665096D01*
X31763228Y729504D01*
X31771073Y758796D01*
X31771167Y759733D01*
X31750681Y771678D01*
X31688965Y779393D01*
X31585636Y782916D01*
X31539926Y783166D01*
X31308685Y783166D01*
X31275945Y672041D01*
G37*
X31275945Y672041D02*
X31260791Y617703D01*
X31237470Y530438D01*
X31208110Y418385D01*
X31174839Y289680D01*
X31139785Y152460D01*
X31132245Y122724D01*
X31021285Y-315468D01*
X30984394Y-141859D01*
X30966138Y-62248D01*
X30939213Y47027D01*
X30906443Y174888D01*
X30870653Y310257D01*
X30845696Y402166D01*
X30743888Y772583D01*
X30506111Y778568D01*
X30411499Y780396D01*
X30334739Y780826D01*
X30284279Y779882D01*
X30268334Y777891D01*
X30274674Y756976D01*
X30292746Y700223D01*
X30321126Y612029D01*
X30358393Y496793D01*
X30403121Y358915D01*
X30453890Y202793D01*
X30509275Y32825D01*
X30520205Y-678D01*
X30772076Y-772584D01*
X31275438Y-784398D01*
X31523303Y-24049D01*
X31579038Y147526D01*
X31630397Y306788D01*
X31675938Y449178D01*
X31714218Y570134D01*
X31743796Y665096D01*
X31763228Y729504D01*
X31771073Y758796D01*
X31771167Y759733D01*
X31750681Y771678D01*
X31688965Y779393D01*
X31585636Y782916D01*
X31539926Y783166D01*
X31308685Y783166D01*
X31275945Y672041D01*
G36*
X26532115Y431536D02*
G01*
X26491012Y370416D01*
X26469347Y300079D01*
X26454597Y199471D01*
X26446761Y80090D01*
X26445839Y-46572D01*
X26451833Y-169017D01*
X26464740Y-275751D01*
X26484563Y-355279D01*
X26491012Y-370417D01*
X26537181Y-436560D01*
X26589167Y-464697D01*
X26641574Y-453735D01*
X26684550Y-409667D01*
X26699056Y-382449D01*
X26709444Y-347361D01*
X26716369Y-297407D01*
X26720485Y-225593D01*
X26722449Y-124923D01*
X26722917Y0D01*
X26722362Y133600D01*
X26720260Y231871D01*
X26715957Y301810D01*
X26708796Y350410D01*
X26698123Y384668D01*
X26684550Y409667D01*
X26636366Y456675D01*
X26583755Y463599D01*
X26532115Y431536D01*
G37*
X26532115Y431536D02*
X26491012Y370416D01*
X26469347Y300079D01*
X26454597Y199471D01*
X26446761Y80090D01*
X26445839Y-46572D01*
X26451833Y-169017D01*
X26464740Y-275751D01*
X26484563Y-355279D01*
X26491012Y-370417D01*
X26537181Y-436560D01*
X26589167Y-464697D01*
X26641574Y-453735D01*
X26684550Y-409667D01*
X26699056Y-382449D01*
X26709444Y-347361D01*
X26716369Y-297407D01*
X26720485Y-225593D01*
X26722449Y-124923D01*
X26722917Y0D01*
X26722362Y133600D01*
X26720260Y231871D01*
X26715957Y301810D01*
X26708796Y350410D01*
X26698123Y384668D01*
X26684550Y409667D01*
X26636366Y456675D01*
X26583755Y463599D01*
X26532115Y431536D01*
G36*
X28025102Y474736D02*
G01*
X28009433Y429718D01*
X27987712Y359848D01*
X27962206Y273192D01*
X27935181Y177819D01*
X27908904Y81796D01*
X27885641Y-6808D01*
X27867659Y-79925D01*
X27857224Y-129489D01*
X27855547Y-142875D01*
X27874951Y-145318D01*
X27926751Y-147164D01*
X28001012Y-148106D01*
X28026932Y-148167D01*
X28111493Y-147318D01*
X28161318Y-143582D01*
X28183988Y-135172D01*
X28187085Y-120302D01*
X28184152Y-111125D01*
X28173934Y-77134D01*
X28156439Y-11129D01*
X28134033Y77686D01*
X28109083Y180103D01*
X28106597Y190500D01*
X28081841Y293111D01*
X28059824Y382419D01*
X28042790Y449447D01*
X28032985Y485217D01*
X28032453Y486833D01*
X28025102Y474736D01*
G37*
X28025102Y474736D02*
X28009433Y429718D01*
X27987712Y359848D01*
X27962206Y273192D01*
X27935181Y177819D01*
X27908904Y81796D01*
X27885641Y-6808D01*
X27867659Y-79925D01*
X27857224Y-129489D01*
X27855547Y-142875D01*
X27874951Y-145318D01*
X27926751Y-147164D01*
X28001012Y-148106D01*
X28026932Y-148167D01*
X28111493Y-147318D01*
X28161318Y-143582D01*
X28183988Y-135172D01*
X28187085Y-120302D01*
X28184152Y-111125D01*
X28173934Y-77134D01*
X28156439Y-11129D01*
X28134033Y77686D01*
X28109083Y180103D01*
X28106597Y190500D01*
X28081841Y293111D01*
X28059824Y382419D01*
X28042790Y449447D01*
X28032985Y485217D01*
X28032453Y486833D01*
X28025102Y474736D01*
G36*
X24593358Y10618552D02*
G01*
X24534329Y10506021D01*
X24531333Y10441233D01*
X24576407Y10277140D01*
X24738942Y10169723D01*
X24807178Y10145095D01*
X25021538Y10046503D01*
X25171680Y9896586D01*
X25270173Y9665958D01*
X25329589Y9325235D01*
X25362407Y8847166D01*
X25380444Y8468642D01*
X25401386Y8228098D01*
X25434209Y8094294D01*
X25487885Y8035985D01*
X25571388Y8021928D01*
X25599514Y8021666D01*
X25801333Y8021666D01*
X25801333Y10561666D01*
X25589666Y10561666D01*
X25430578Y10531053D01*
X25378000Y10472199D01*
X25320950Y10447446D01*
X25189828Y10514532D01*
X24957195Y10616630D01*
X24766494Y10646333D01*
X24593358Y10618552D01*
G37*
X24593358Y10618552D02*
X24534329Y10506021D01*
X24531333Y10441233D01*
X24576407Y10277140D01*
X24738942Y10169723D01*
X24807178Y10145095D01*
X25021538Y10046503D01*
X25171680Y9896586D01*
X25270173Y9665958D01*
X25329589Y9325235D01*
X25362407Y8847166D01*
X25380444Y8468642D01*
X25401386Y8228098D01*
X25434209Y8094294D01*
X25487885Y8035985D01*
X25571388Y8021928D01*
X25599514Y8021666D01*
X25801333Y8021666D01*
X25801333Y10561666D01*
X25589666Y10561666D01*
X25430578Y10531053D01*
X25378000Y10472199D01*
X25320950Y10447446D01*
X25189828Y10514532D01*
X24957195Y10616630D01*
X24766494Y10646333D01*
X24593358Y10618552D01*
G36*
X33151819Y11796522D02*
G01*
X32801810Y11672804D01*
X32528743Y11447025D01*
X32443937Y11316454D01*
X32336097Y10967163D01*
X32336892Y10596072D01*
X32443151Y10271487D01*
X32496145Y10192085D01*
X32590210Y10044496D01*
X32593971Y9970877D01*
X32584110Y9969000D01*
X32431386Y9895125D01*
X32275725Y9707623D01*
X32153069Y9457676D01*
X32109169Y9292669D01*
X32107136Y8864558D01*
X32250016Y8512863D01*
X32526718Y8248155D01*
X32926148Y8081007D01*
X33437213Y8021991D01*
X33442500Y8021983D01*
X34014000Y8021666D01*
X34014000Y8275666D01*
X34005447Y8423403D01*
X33951358Y8498878D01*
X33809084Y8526582D01*
X33569500Y8530915D01*
X33268747Y8552077D01*
X33006138Y8604445D01*
X32913333Y8639248D01*
X32776984Y8737089D01*
X32715278Y8886251D01*
X32701666Y9122333D01*
X32717913Y9372760D01*
X32784308Y9515963D01*
X32913333Y9605418D01*
X33122125Y9668382D01*
X33413817Y9707530D01*
X33569500Y9713752D01*
X33827997Y9719365D01*
X33959813Y9750643D01*
X34007595Y9832076D01*
X34014000Y9969000D01*
X34004751Y10119362D01*
X33947884Y10194342D01*
X33799719Y10220148D01*
X33590666Y10223000D01*
X33213295Y10275480D01*
X32958383Y10427440D01*
X32837317Y10670655D01*
X32828666Y10773333D01*
X32901873Y11023624D01*
X33090582Y11209190D01*
X33348429Y11315036D01*
X33629052Y11326165D01*
X33886085Y11227581D01*
X33979711Y11145636D01*
X34039152Y11063844D01*
X34083206Y10951426D01*
X34114877Y10782194D01*
X34137170Y10529959D01*
X34153091Y10168531D01*
X34165645Y9671721D01*
X34169160Y9494636D01*
X34197321Y8021666D01*
X34691333Y8021666D01*
X34691333Y9514506D01*
X34689702Y10060741D01*
X34683010Y10465618D01*
X34668560Y10757094D01*
X34643655Y10963127D01*
X34605597Y11111676D01*
X34551688Y11230699D01*
X34520665Y11283493D01*
X34263191Y11561664D01*
X33922539Y11740317D01*
X33538738Y11818814D01*
X33151819Y11796522D01*
G37*
X33151819Y11796522D02*
X32801810Y11672804D01*
X32528743Y11447025D01*
X32443937Y11316454D01*
X32336097Y10967163D01*
X32336892Y10596072D01*
X32443151Y10271487D01*
X32496145Y10192085D01*
X32590210Y10044496D01*
X32593971Y9970877D01*
X32584110Y9969000D01*
X32431386Y9895125D01*
X32275725Y9707623D01*
X32153069Y9457676D01*
X32109169Y9292669D01*
X32107136Y8864558D01*
X32250016Y8512863D01*
X32526718Y8248155D01*
X32926148Y8081007D01*
X33437213Y8021991D01*
X33442500Y8021983D01*
X34014000Y8021666D01*
X34014000Y8275666D01*
X34005447Y8423403D01*
X33951358Y8498878D01*
X33809084Y8526582D01*
X33569500Y8530915D01*
X33268747Y8552077D01*
X33006138Y8604445D01*
X32913333Y8639248D01*
X32776984Y8737089D01*
X32715278Y8886251D01*
X32701666Y9122333D01*
X32717913Y9372760D01*
X32784308Y9515963D01*
X32913333Y9605418D01*
X33122125Y9668382D01*
X33413817Y9707530D01*
X33569500Y9713752D01*
X33827997Y9719365D01*
X33959813Y9750643D01*
X34007595Y9832076D01*
X34014000Y9969000D01*
X34004751Y10119362D01*
X33947884Y10194342D01*
X33799719Y10220148D01*
X33590666Y10223000D01*
X33213295Y10275480D01*
X32958383Y10427440D01*
X32837317Y10670655D01*
X32828666Y10773333D01*
X32901873Y11023624D01*
X33090582Y11209190D01*
X33348429Y11315036D01*
X33629052Y11326165D01*
X33886085Y11227581D01*
X33979711Y11145636D01*
X34039152Y11063844D01*
X34083206Y10951426D01*
X34114877Y10782194D01*
X34137170Y10529959D01*
X34153091Y10168531D01*
X34165645Y9671721D01*
X34169160Y9494636D01*
X34197321Y8021666D01*
X34691333Y8021666D01*
X34691333Y9514506D01*
X34689702Y10060741D01*
X34683010Y10465618D01*
X34668560Y10757094D01*
X34643655Y10963127D01*
X34605597Y11111676D01*
X34551688Y11230699D01*
X34520665Y11283493D01*
X34263191Y11561664D01*
X33922539Y11740317D01*
X33538738Y11818814D01*
X33151819Y11796522D01*
G36*
X43896491Y10617726D02*
G01*
X43837721Y10505242D01*
X43835333Y10451675D01*
X43882814Y10296469D01*
X44049946Y10182548D01*
X44139453Y10147046D01*
X44370484Y10018463D01*
X44530564Y9811552D01*
X44629067Y9502072D01*
X44675369Y9065778D01*
X44682000Y8744053D01*
X44684275Y8394590D01*
X44697194Y8181038D01*
X44729895Y8069981D01*
X44791517Y8028003D01*
X44879555Y8021666D01*
X45057365Y8043552D01*
X45133555Y8078111D01*
X45153717Y8178751D01*
X45170696Y8416893D01*
X45183079Y8760714D01*
X45189449Y9178391D01*
X45190000Y9348111D01*
X45190000Y10561666D01*
X44936000Y10561666D01*
X44757680Y10535759D01*
X44682020Y10473335D01*
X44682000Y10472199D01*
X44624950Y10447446D01*
X44493828Y10514532D01*
X44261195Y10616630D01*
X44070494Y10646333D01*
X43896491Y10617726D01*
G37*
X43896491Y10617726D02*
X43837721Y10505242D01*
X43835333Y10451675D01*
X43882814Y10296469D01*
X44049946Y10182548D01*
X44139453Y10147046D01*
X44370484Y10018463D01*
X44530564Y9811552D01*
X44629067Y9502072D01*
X44675369Y9065778D01*
X44682000Y8744053D01*
X44684275Y8394590D01*
X44697194Y8181038D01*
X44729895Y8069981D01*
X44791517Y8028003D01*
X44879555Y8021666D01*
X45057365Y8043552D01*
X45133555Y8078111D01*
X45153717Y8178751D01*
X45170696Y8416893D01*
X45183079Y8760714D01*
X45189449Y9178391D01*
X45190000Y9348111D01*
X45190000Y10561666D01*
X44936000Y10561666D01*
X44757680Y10535759D01*
X44682020Y10473335D01*
X44682000Y10472199D01*
X44624950Y10447446D01*
X44493828Y10514532D01*
X44261195Y10616630D01*
X44070494Y10646333D01*
X43896491Y10617726D01*
G36*
X46532088Y11790686D02*
G01*
X46164145Y11666981D01*
X45883127Y11450901D01*
X45868657Y11433119D01*
X45744175Y11163646D01*
X45697917Y10820073D01*
X45732172Y10478651D01*
X45832777Y10237589D01*
X45913371Y10097803D01*
X45892833Y9992151D01*
X45756837Y9849881D01*
X45753673Y9846947D01*
X45565795Y9573808D01*
X45464436Y9220949D01*
X45470116Y8864592D01*
X45478792Y8825903D01*
X45569378Y8626897D01*
X45728172Y8396633D01*
X45776620Y8339496D01*
X45909664Y8202550D01*
X46039392Y8118506D01*
X46213710Y8071665D01*
X46480530Y8046323D01*
X46706176Y8034851D01*
X47391333Y8003737D01*
X47391333Y8529666D01*
X46892713Y8529666D01*
X46469118Y8569648D01*
X46187157Y8693389D01*
X46038200Y8906586D01*
X46008444Y9113171D01*
X46053586Y9378223D01*
X46203037Y9557426D01*
X46477833Y9666327D01*
X46822803Y9715000D01*
X47111510Y9743231D01*
X47272242Y9782605D01*
X47346101Y9853575D01*
X47374189Y9976592D01*
X47375790Y9990166D01*
X47381677Y10129508D01*
X47329658Y10198028D01*
X47178424Y10220819D01*
X46992462Y10223000D01*
X46595384Y10270065D01*
X46334646Y10409520D01*
X46214252Y10638754D01*
X46206000Y10735801D01*
X46279121Y11027868D01*
X46483469Y11229294D01*
X46796516Y11320388D01*
X46878532Y11323666D01*
X47074836Y11313028D01*
X47222891Y11267280D01*
X47329440Y11165673D01*
X47401223Y10987457D01*
X47444980Y10711883D01*
X47467453Y10318200D01*
X47475381Y9785660D01*
X47476000Y9484494D01*
X47476000Y8021666D01*
X48068666Y8021666D01*
X48068666Y9465204D01*
X48065447Y10048500D01*
X48051751Y10490640D01*
X48021526Y10819747D01*
X47968717Y11063939D01*
X47887269Y11251339D01*
X47771129Y11410066D01*
X47616316Y11566306D01*
X47312289Y11744472D01*
X46932841Y11817891D01*
X46532088Y11790686D01*
G37*
X46532088Y11790686D02*
X46164145Y11666981D01*
X45883127Y11450901D01*
X45868657Y11433119D01*
X45744175Y11163646D01*
X45697917Y10820073D01*
X45732172Y10478651D01*
X45832777Y10237589D01*
X45913371Y10097803D01*
X45892833Y9992151D01*
X45756837Y9849881D01*
X45753673Y9846947D01*
X45565795Y9573808D01*
X45464436Y9220949D01*
X45470116Y8864592D01*
X45478792Y8825903D01*
X45569378Y8626897D01*
X45728172Y8396633D01*
X45776620Y8339496D01*
X45909664Y8202550D01*
X46039392Y8118506D01*
X46213710Y8071665D01*
X46480530Y8046323D01*
X46706176Y8034851D01*
X47391333Y8003737D01*
X47391333Y8529666D01*
X46892713Y8529666D01*
X46469118Y8569648D01*
X46187157Y8693389D01*
X46038200Y8906586D01*
X46008444Y9113171D01*
X46053586Y9378223D01*
X46203037Y9557426D01*
X46477833Y9666327D01*
X46822803Y9715000D01*
X47111510Y9743231D01*
X47272242Y9782605D01*
X47346101Y9853575D01*
X47374189Y9976592D01*
X47375790Y9990166D01*
X47381677Y10129508D01*
X47329658Y10198028D01*
X47178424Y10220819D01*
X46992462Y10223000D01*
X46595384Y10270065D01*
X46334646Y10409520D01*
X46214252Y10638754D01*
X46206000Y10735801D01*
X46279121Y11027868D01*
X46483469Y11229294D01*
X46796516Y11320388D01*
X46878532Y11323666D01*
X47074836Y11313028D01*
X47222891Y11267280D01*
X47329440Y11165673D01*
X47401223Y10987457D01*
X47444980Y10711883D01*
X47467453Y10318200D01*
X47475381Y9785660D01*
X47476000Y9484494D01*
X47476000Y8021666D01*
X48068666Y8021666D01*
X48068666Y9465204D01*
X48065447Y10048500D01*
X48051751Y10490640D01*
X48021526Y10819747D01*
X47968717Y11063939D01*
X47887269Y11251339D01*
X47771129Y11410066D01*
X47616316Y11566306D01*
X47312289Y11744472D01*
X46932841Y11817891D01*
X46532088Y11790686D01*
G36*
X21822000Y10363317D02*
G01*
X21823657Y9840794D01*
X21830961Y9456114D01*
X21847406Y9177799D01*
X21876488Y8974372D01*
X21921704Y8814354D01*
X21986549Y8666269D01*
X22017114Y8606483D01*
X22288342Y8256290D01*
X22653202Y8029129D01*
X23078794Y7935498D01*
X23532217Y7985897D01*
X23735783Y8058020D01*
X24044551Y8278141D01*
X24274053Y8608681D01*
X24411134Y9004164D01*
X24442635Y9419113D01*
X24355398Y9808050D01*
X24282776Y9948607D01*
X23985896Y10279987D01*
X23605396Y10492372D01*
X23219000Y10560194D01*
X22862011Y10544453D01*
X22642907Y10488940D01*
X22531958Y10377981D01*
X22499441Y10195898D01*
X22499333Y10180695D01*
X22499333Y9904139D01*
X22841408Y10021994D01*
X23237129Y10091023D01*
X23560098Y10012314D01*
X23793458Y9797976D01*
X23920347Y9460114D01*
X23938666Y9234067D01*
X23878624Y8859102D01*
X23700664Y8605303D01*
X23408036Y8475738D01*
X23120927Y8461559D01*
X22842751Y8502603D01*
X22660629Y8601897D01*
X22550186Y8726310D01*
X22483133Y8830647D01*
X22434101Y8955031D01*
X22399450Y9128034D01*
X22375538Y9378228D01*
X22358723Y9734184D01*
X22345365Y10224473D01*
X22342465Y10356144D01*
X22312597Y11747000D01*
X21822000Y11747000D01*
X21822000Y10363317D01*
G37*
X21822000Y10363317D02*
X21823657Y9840794D01*
X21830961Y9456114D01*
X21847406Y9177799D01*
X21876488Y8974372D01*
X21921704Y8814354D01*
X21986549Y8666269D01*
X22017114Y8606483D01*
X22288342Y8256290D01*
X22653202Y8029129D01*
X23078794Y7935498D01*
X23532217Y7985897D01*
X23735783Y8058020D01*
X24044551Y8278141D01*
X24274053Y8608681D01*
X24411134Y9004164D01*
X24442635Y9419113D01*
X24355398Y9808050D01*
X24282776Y9948607D01*
X23985896Y10279987D01*
X23605396Y10492372D01*
X23219000Y10560194D01*
X22862011Y10544453D01*
X22642907Y10488940D01*
X22531958Y10377981D01*
X22499441Y10195898D01*
X22499333Y10180695D01*
X22499333Y9904139D01*
X22841408Y10021994D01*
X23237129Y10091023D01*
X23560098Y10012314D01*
X23793458Y9797976D01*
X23920347Y9460114D01*
X23938666Y9234067D01*
X23878624Y8859102D01*
X23700664Y8605303D01*
X23408036Y8475738D01*
X23120927Y8461559D01*
X22842751Y8502603D01*
X22660629Y8601897D01*
X22550186Y8726310D01*
X22483133Y8830647D01*
X22434101Y8955031D01*
X22399450Y9128034D01*
X22375538Y9378228D01*
X22358723Y9734184D01*
X22345365Y10224473D01*
X22342465Y10356144D01*
X22312597Y11747000D01*
X21822000Y11747000D01*
X21822000Y10363317D01*
G36*
X27050509Y10562058D02*
G01*
X26905339Y10510791D01*
X26633837Y10370920D01*
X26442299Y10184846D01*
X26318531Y9924101D01*
X26250337Y9560218D01*
X26225522Y9064728D01*
X26224666Y8921840D01*
X26224666Y8021666D01*
X26732666Y8021666D01*
X26732666Y8872182D01*
X26735696Y9264953D01*
X26749912Y9527605D01*
X26783009Y9699318D01*
X26842679Y9819269D01*
X26936616Y9926638D01*
X26940485Y9930515D01*
X27227641Y10108747D01*
X27559495Y10146176D01*
X27889143Y10044414D01*
X28093846Y9890846D01*
X28293180Y9596738D01*
X28352840Y9286121D01*
X28293119Y8988747D01*
X28134309Y8734368D01*
X27896703Y8552736D01*
X27600595Y8473604D01*
X27266277Y8526724D01*
X27186526Y8560579D01*
X26989449Y8650068D01*
X26867791Y8696968D01*
X26856794Y8699000D01*
X26817855Y8629385D01*
X26816840Y8468245D01*
X26846092Y8287139D01*
X26897957Y8157627D01*
X26916642Y8139617D01*
X27135858Y8060010D01*
X27439552Y8012291D01*
X27744278Y8006560D01*
X27875666Y8023572D01*
X28259448Y8165227D01*
X28538774Y8420917D01*
X28682330Y8662231D01*
X28830521Y9135584D01*
X28809819Y9597210D01*
X28640042Y10014918D01*
X28350391Y10354517D01*
X27970778Y10564093D01*
X27528413Y10635866D01*
X27050509Y10562058D01*
G37*
X27050509Y10562058D02*
X26905339Y10510791D01*
X26633837Y10370920D01*
X26442299Y10184846D01*
X26318531Y9924101D01*
X26250337Y9560218D01*
X26225522Y9064728D01*
X26224666Y8921840D01*
X26224666Y8021666D01*
X26732666Y8021666D01*
X26732666Y8872182D01*
X26735696Y9264953D01*
X26749912Y9527605D01*
X26783009Y9699318D01*
X26842679Y9819269D01*
X26936616Y9926638D01*
X26940485Y9930515D01*
X27227641Y10108747D01*
X27559495Y10146176D01*
X27889143Y10044414D01*
X28093846Y9890846D01*
X28293180Y9596738D01*
X28352840Y9286121D01*
X28293119Y8988747D01*
X28134309Y8734368D01*
X27896703Y8552736D01*
X27600595Y8473604D01*
X27266277Y8526724D01*
X27186526Y8560579D01*
X26989449Y8650068D01*
X26867791Y8696968D01*
X26856794Y8699000D01*
X26817855Y8629385D01*
X26816840Y8468245D01*
X26846092Y8287139D01*
X26897957Y8157627D01*
X26916642Y8139617D01*
X27135858Y8060010D01*
X27439552Y8012291D01*
X27744278Y8006560D01*
X27875666Y8023572D01*
X28259448Y8165227D01*
X28538774Y8420917D01*
X28682330Y8662231D01*
X28830521Y9135584D01*
X28809819Y9597210D01*
X28640042Y10014918D01*
X28350391Y10354517D01*
X27970778Y10564093D01*
X27528413Y10635866D01*
X27050509Y10562058D01*
G36*
X30074001Y10584534D02*
G01*
X29688099Y10399790D01*
X29447319Y10190419D01*
X29296107Y9925615D01*
X29208868Y9567817D01*
X29192419Y9183428D01*
X29253579Y8838850D01*
X29297761Y8733742D01*
X29581944Y8342837D01*
X29950244Y8098631D01*
X30399931Y8002456D01*
X30754333Y8022816D01*
X31026699Y8087014D01*
X31257709Y8179293D01*
X31285830Y8195718D01*
X31496208Y8409657D01*
X31670910Y8733741D01*
X31783961Y9109059D01*
X31806899Y9334000D01*
X31304666Y9334000D01*
X31250845Y9050581D01*
X31115496Y8765335D01*
X30937791Y8556399D01*
X30902502Y8531795D01*
X30653353Y8464023D01*
X30348075Y8493234D01*
X30057865Y8604777D01*
X29886632Y8740819D01*
X29743409Y9014202D01*
X29693124Y9348294D01*
X29738417Y9672536D01*
X29844166Y9876121D01*
X30096794Y10070312D01*
X30408406Y10153830D01*
X30728527Y10129492D01*
X31006682Y10000116D01*
X31176601Y9801726D01*
X31269117Y9554534D01*
X31304666Y9334000D01*
X31806899Y9334000D01*
X31812666Y9390544D01*
X31739682Y9813552D01*
X31540478Y10160314D01*
X31244682Y10420812D01*
X30881919Y10585027D01*
X30481817Y10642941D01*
X30074001Y10584534D01*
G37*
X30074001Y10584534D02*
X29688099Y10399790D01*
X29447319Y10190419D01*
X29296107Y9925615D01*
X29208868Y9567817D01*
X29192419Y9183428D01*
X29253579Y8838850D01*
X29297761Y8733742D01*
X29581944Y8342837D01*
X29950244Y8098631D01*
X30399931Y8002456D01*
X30754333Y8022816D01*
X31026699Y8087014D01*
X31257709Y8179293D01*
X31285830Y8195718D01*
X31496208Y8409657D01*
X31670910Y8733741D01*
X31783961Y9109059D01*
X31806899Y9334000D01*
X31304666Y9334000D01*
X31250845Y9050581D01*
X31115496Y8765335D01*
X30937791Y8556399D01*
X30902502Y8531795D01*
X30653353Y8464023D01*
X30348075Y8493234D01*
X30057865Y8604777D01*
X29886632Y8740819D01*
X29743409Y9014202D01*
X29693124Y9348294D01*
X29738417Y9672536D01*
X29844166Y9876121D01*
X30096794Y10070312D01*
X30408406Y10153830D01*
X30728527Y10129492D01*
X31006682Y10000116D01*
X31176601Y9801726D01*
X31269117Y9554534D01*
X31304666Y9334000D01*
X31806899Y9334000D01*
X31812666Y9390544D01*
X31739682Y9813552D01*
X31540478Y10160314D01*
X31244682Y10420812D01*
X30881919Y10585027D01*
X30481817Y10642941D01*
X30074001Y10584534D01*
G36*
X35199333Y10346627D02*
G01*
X35201415Y9814095D01*
X35209684Y9420292D01*
X35227178Y9134644D01*
X35256934Y8926576D01*
X35301989Y8765512D01*
X35365381Y8620879D01*
X35372082Y8607639D01*
X35640614Y8249319D01*
X36002670Y8025165D01*
X36440827Y7941417D01*
X36937662Y8004318D01*
X37003913Y8023069D01*
X37288308Y8147523D01*
X37495097Y8348315D01*
X37666225Y8656666D01*
X37801816Y9125287D01*
X37787086Y9562612D01*
X37640773Y9946941D01*
X37381616Y10256576D01*
X37028356Y10469817D01*
X36599731Y10564966D01*
X36114481Y10520321D01*
X36067166Y10508302D01*
X35928492Y10428567D01*
X35878902Y10256948D01*
X35876666Y10180695D01*
X35876666Y9904139D01*
X36217370Y10021521D01*
X36598923Y10082659D01*
X36923853Y10001307D01*
X37165880Y9794889D01*
X37298725Y9480832D01*
X37316000Y9293028D01*
X37264835Y8975725D01*
X37131229Y8699481D01*
X36945018Y8517399D01*
X36860509Y8482322D01*
X36469856Y8448069D01*
X36138805Y8544208D01*
X35927371Y8726145D01*
X35860406Y8830307D01*
X35811490Y8954361D01*
X35777011Y9126874D01*
X35753354Y9376415D01*
X35736907Y9731551D01*
X35724055Y10220851D01*
X35721215Y10355978D01*
X35692764Y11747000D01*
X35199333Y11747000D01*
X35199333Y10346627D01*
G37*
X35199333Y10346627D02*
X35201415Y9814095D01*
X35209684Y9420292D01*
X35227178Y9134644D01*
X35256934Y8926576D01*
X35301989Y8765512D01*
X35365381Y8620879D01*
X35372082Y8607639D01*
X35640614Y8249319D01*
X36002670Y8025165D01*
X36440827Y7941417D01*
X36937662Y8004318D01*
X37003913Y8023069D01*
X37288308Y8147523D01*
X37495097Y8348315D01*
X37666225Y8656666D01*
X37801816Y9125287D01*
X37787086Y9562612D01*
X37640773Y9946941D01*
X37381616Y10256576D01*
X37028356Y10469817D01*
X36599731Y10564966D01*
X36114481Y10520321D01*
X36067166Y10508302D01*
X35928492Y10428567D01*
X35878902Y10256948D01*
X35876666Y10180695D01*
X35876666Y9904139D01*
X36217370Y10021521D01*
X36598923Y10082659D01*
X36923853Y10001307D01*
X37165880Y9794889D01*
X37298725Y9480832D01*
X37316000Y9293028D01*
X37264835Y8975725D01*
X37131229Y8699481D01*
X36945018Y8517399D01*
X36860509Y8482322D01*
X36469856Y8448069D01*
X36138805Y8544208D01*
X35927371Y8726145D01*
X35860406Y8830307D01*
X35811490Y8954361D01*
X35777011Y9126874D01*
X35753354Y9376415D01*
X35736907Y9731551D01*
X35724055Y10220851D01*
X35721215Y10355978D01*
X35692764Y11747000D01*
X35199333Y11747000D01*
X35199333Y10346627D01*
G36*
X39138053Y10599499D02*
G01*
X38793529Y10524745D01*
X38641734Y10451233D01*
X38402777Y10259949D01*
X38239219Y10031394D01*
X38138836Y9731685D01*
X38089405Y9326941D01*
X38078316Y8889500D01*
X38078000Y8021666D01*
X38586000Y8021666D01*
X38586000Y8787871D01*
X38604802Y9304468D01*
X38670147Y9676005D01*
X38795439Y9923480D01*
X38994083Y10067895D01*
X39279483Y10130247D01*
X39447337Y10137177D01*
X39707954Y10066170D01*
X39965844Y9883030D01*
X40164844Y9636302D01*
X40238731Y9453119D01*
X40242412Y9110150D01*
X40117352Y8817952D01*
X39897222Y8598768D01*
X39615694Y8474846D01*
X39306439Y8468429D01*
X39003129Y8601765D01*
X38978418Y8620478D01*
X38755333Y8795957D01*
X38755333Y8503845D01*
X38783920Y8282185D01*
X38853510Y8135236D01*
X38861166Y8128449D01*
X39062964Y8043241D01*
X39359676Y7998187D01*
X39680050Y8000839D01*
X39838301Y8024876D01*
X40203798Y8182179D01*
X40476198Y8451113D01*
X40651027Y8799015D01*
X40723809Y9193224D01*
X40690069Y9601078D01*
X40545330Y9989915D01*
X40285118Y10327074D01*
X40167291Y10425816D01*
X39891861Y10548919D01*
X39526473Y10607185D01*
X39138053Y10599499D01*
G37*
X39138053Y10599499D02*
X38793529Y10524745D01*
X38641734Y10451233D01*
X38402777Y10259949D01*
X38239219Y10031394D01*
X38138836Y9731685D01*
X38089405Y9326941D01*
X38078316Y8889500D01*
X38078000Y8021666D01*
X38586000Y8021666D01*
X38586000Y8787871D01*
X38604802Y9304468D01*
X38670147Y9676005D01*
X38795439Y9923480D01*
X38994083Y10067895D01*
X39279483Y10130247D01*
X39447337Y10137177D01*
X39707954Y10066170D01*
X39965844Y9883030D01*
X40164844Y9636302D01*
X40238731Y9453119D01*
X40242412Y9110150D01*
X40117352Y8817952D01*
X39897222Y8598768D01*
X39615694Y8474846D01*
X39306439Y8468429D01*
X39003129Y8601765D01*
X38978418Y8620478D01*
X38755333Y8795957D01*
X38755333Y8503845D01*
X38783920Y8282185D01*
X38853510Y8135236D01*
X38861166Y8128449D01*
X39062964Y8043241D01*
X39359676Y7998187D01*
X39680050Y8000839D01*
X39838301Y8024876D01*
X40203798Y8182179D01*
X40476198Y8451113D01*
X40651027Y8799015D01*
X40723809Y9193224D01*
X40690069Y9601078D01*
X40545330Y9989915D01*
X40285118Y10327074D01*
X40167291Y10425816D01*
X39891861Y10548919D01*
X39526473Y10607185D01*
X39138053Y10599499D01*
G36*
X42076097Y10577291D02*
G01*
X41842986Y10469481D01*
X41603962Y10300345D01*
X41397262Y10105911D01*
X41261122Y9922206D01*
X41233781Y9785260D01*
X41234255Y9784080D01*
X41324607Y9701322D01*
X41533287Y9564090D01*
X41826915Y9393141D01*
X42094239Y9249333D01*
X42461374Y9062766D01*
X42708418Y8950816D01*
X42862530Y8904492D01*
X42950873Y8914803D01*
X42989487Y8953000D01*
X43052606Y9083278D01*
X43038328Y9194115D01*
X42925928Y9310544D01*
X42694678Y9457599D01*
X42467814Y9583088D01*
X42172570Y9746622D01*
X42006686Y9854790D01*
X41948513Y9928838D01*
X41976400Y9990016D01*
X42018330Y10024238D01*
X42269174Y10120597D01*
X42576441Y10125046D01*
X42832067Y10046852D01*
X42996098Y9885766D01*
X43138640Y9623349D01*
X43227859Y9327283D01*
X43242666Y9173882D01*
X43189225Y8974711D01*
X43057300Y8748186D01*
X43023474Y8705496D01*
X42857417Y8539993D01*
X42679888Y8463869D01*
X42414241Y8445017D01*
X42401596Y8445000D01*
X42096050Y8474512D01*
X41887263Y8586065D01*
X41726336Y8814188D01*
X41652186Y8974166D01*
X41517937Y9158963D01*
X41339482Y9207000D01*
X41174373Y9152418D01*
X41115703Y9008960D01*
X41149748Y8807058D01*
X41262783Y8577145D01*
X41441084Y8349652D01*
X41670925Y8155011D01*
X41860161Y8052487D01*
X42310396Y7945425D01*
X42766577Y8003051D01*
X43070295Y8127500D01*
X43427189Y8397639D01*
X43657581Y8760473D01*
X43751481Y9185817D01*
X43698901Y9643489D01*
X43633926Y9830504D01*
X43404747Y10176625D01*
X43066851Y10437258D01*
X42666535Y10590207D01*
X42250099Y10613279D01*
X42076097Y10577291D01*
G37*
X42076097Y10577291D02*
X41842986Y10469481D01*
X41603962Y10300345D01*
X41397262Y10105911D01*
X41261122Y9922206D01*
X41233781Y9785260D01*
X41234255Y9784080D01*
X41324607Y9701322D01*
X41533287Y9564090D01*
X41826915Y9393141D01*
X42094239Y9249333D01*
X42461374Y9062766D01*
X42708418Y8950816D01*
X42862530Y8904492D01*
X42950873Y8914803D01*
X42989487Y8953000D01*
X43052606Y9083278D01*
X43038328Y9194115D01*
X42925928Y9310544D01*
X42694678Y9457599D01*
X42467814Y9583088D01*
X42172570Y9746622D01*
X42006686Y9854790D01*
X41948513Y9928838D01*
X41976400Y9990016D01*
X42018330Y10024238D01*
X42269174Y10120597D01*
X42576441Y10125046D01*
X42832067Y10046852D01*
X42996098Y9885766D01*
X43138640Y9623349D01*
X43227859Y9327283D01*
X43242666Y9173882D01*
X43189225Y8974711D01*
X43057300Y8748186D01*
X43023474Y8705496D01*
X42857417Y8539993D01*
X42679888Y8463869D01*
X42414241Y8445017D01*
X42401596Y8445000D01*
X42096050Y8474512D01*
X41887263Y8586065D01*
X41726336Y8814188D01*
X41652186Y8974166D01*
X41517937Y9158963D01*
X41339482Y9207000D01*
X41174373Y9152418D01*
X41115703Y9008960D01*
X41149748Y8807058D01*
X41262783Y8577145D01*
X41441084Y8349652D01*
X41670925Y8155011D01*
X41860161Y8052487D01*
X42310396Y7945425D01*
X42766577Y8003051D01*
X43070295Y8127500D01*
X43427189Y8397639D01*
X43657581Y8760473D01*
X43751481Y9185817D01*
X43698901Y9643489D01*
X43633926Y9830504D01*
X43404747Y10176625D01*
X43066851Y10437258D01*
X42666535Y10590207D01*
X42250099Y10613279D01*
X42076097Y10577291D01*
G36*
X22160666Y3534333D02*
G01*
X22668666Y3534333D01*
X22668666Y7259666D01*
X22160666Y7259666D01*
X22160666Y3534333D01*
G37*
X22160666Y3534333D02*
X22668666Y3534333D01*
X22668666Y7259666D01*
X22160666Y7259666D01*
X22160666Y3534333D01*
G36*
X32386291Y7258004D02*
G01*
X32161215Y7247033D01*
X32040480Y7217775D01*
X31991589Y7161253D01*
X31982046Y7068490D01*
X31982000Y7048000D01*
X31989218Y6943022D01*
X32033904Y6880163D01*
X32150608Y6848627D01*
X32373879Y6837618D01*
X32659333Y6836333D01*
X33018849Y6829249D01*
X33252983Y6802185D01*
X33405312Y6746427D01*
X33506000Y6667000D01*
X33638426Y6504848D01*
X33674498Y6358096D01*
X33601496Y6207210D01*
X33406704Y6032657D01*
X33077403Y5814901D01*
X32870454Y5690843D01*
X32430290Y5415047D01*
X32125853Y5177453D01*
X31935727Y4953178D01*
X31838497Y4717338D01*
X31812666Y4461768D01*
X31880307Y4117392D01*
X32060151Y3823393D01*
X32317578Y3633900D01*
X32350128Y3621416D01*
X32543069Y3583441D01*
X32853275Y3553852D01*
X33228727Y3536831D01*
X33433967Y3534333D01*
X34268000Y3534333D01*
X34268000Y4042333D01*
X33434455Y4042333D01*
X33040865Y4046383D01*
X32779223Y4062850D01*
X32612249Y4098215D01*
X32502664Y4158955D01*
X32445346Y4214230D01*
X32333918Y4405502D01*
X32356957Y4598108D01*
X32522466Y4803656D01*
X32838444Y5033751D01*
X33125000Y5200167D01*
X33567324Y5457650D01*
X33872629Y5679358D01*
X34062585Y5888601D01*
X34158863Y6108692D01*
X34183333Y6338621D01*
X34147076Y6686094D01*
X34026249Y6940002D01*
X33802773Y7111950D01*
X33458566Y7213541D01*
X32975548Y7256379D01*
X32748204Y7259666D01*
X32386291Y7258004D01*
G37*
X32386291Y7258004D02*
X32161215Y7247033D01*
X32040480Y7217775D01*
X31991589Y7161253D01*
X31982046Y7068490D01*
X31982000Y7048000D01*
X31989218Y6943022D01*
X32033904Y6880163D01*
X32150608Y6848627D01*
X32373879Y6837618D01*
X32659333Y6836333D01*
X33018849Y6829249D01*
X33252983Y6802185D01*
X33405312Y6746427D01*
X33506000Y6667000D01*
X33638426Y6504848D01*
X33674498Y6358096D01*
X33601496Y6207210D01*
X33406704Y6032657D01*
X33077403Y5814901D01*
X32870454Y5690843D01*
X32430290Y5415047D01*
X32125853Y5177453D01*
X31935727Y4953178D01*
X31838497Y4717338D01*
X31812666Y4461768D01*
X31880307Y4117392D01*
X32060151Y3823393D01*
X32317578Y3633900D01*
X32350128Y3621416D01*
X32543069Y3583441D01*
X32853275Y3553852D01*
X33228727Y3536831D01*
X33433967Y3534333D01*
X34268000Y3534333D01*
X34268000Y4042333D01*
X33434455Y4042333D01*
X33040865Y4046383D01*
X32779223Y4062850D01*
X32612249Y4098215D01*
X32502664Y4158955D01*
X32445346Y4214230D01*
X32333918Y4405502D01*
X32356957Y4598108D01*
X32522466Y4803656D01*
X32838444Y5033751D01*
X33125000Y5200167D01*
X33567324Y5457650D01*
X33872629Y5679358D01*
X34062585Y5888601D01*
X34158863Y6108692D01*
X34183333Y6338621D01*
X34147076Y6686094D01*
X34026249Y6940002D01*
X33802773Y7111950D01*
X33458566Y7213541D01*
X32975548Y7256379D01*
X32748204Y7259666D01*
X32386291Y7258004D01*
G36*
X34360261Y6138048D02*
G01*
X34354499Y6012446D01*
X34398857Y5822205D01*
X34556700Y5687470D01*
X34629280Y5651000D01*
X34836546Y5522461D01*
X34977326Y5343514D01*
X35062853Y5083214D01*
X35104362Y4710616D01*
X35113418Y4317500D01*
X35114666Y3534333D01*
X35627077Y3534333D01*
X35603705Y4825500D01*
X35580333Y6116666D01*
X35347500Y6143457D01*
X35171755Y6135221D01*
X35115172Y6041231D01*
X35114666Y6024501D01*
X35100068Y5927423D01*
X35027360Y5956585D01*
X34966500Y6007506D01*
X34769373Y6126010D01*
X34585500Y6191575D01*
X34419279Y6213190D01*
X34360261Y6138048D01*
G37*
X34360261Y6138048D02*
X34354499Y6012446D01*
X34398857Y5822205D01*
X34556700Y5687470D01*
X34629280Y5651000D01*
X34836546Y5522461D01*
X34977326Y5343514D01*
X35062853Y5083214D01*
X35104362Y4710616D01*
X35113418Y4317500D01*
X35114666Y3534333D01*
X35627077Y3534333D01*
X35603705Y4825500D01*
X35580333Y6116666D01*
X35347500Y6143457D01*
X35171755Y6135221D01*
X35115172Y6041231D01*
X35114666Y6024501D01*
X35100068Y5927423D01*
X35027360Y5956585D01*
X34966500Y6007506D01*
X34769373Y6126010D01*
X34585500Y6191575D01*
X34419279Y6213190D01*
X34360261Y6138048D01*
G36*
X43858787Y6146686D02*
G01*
X43424202Y5995891D01*
X43088313Y5747188D01*
X42885410Y5405014D01*
X42807681Y4955451D01*
X42806405Y4895092D01*
X42872065Y4413236D01*
X43084333Y4009183D01*
X43330788Y3756085D01*
X43642810Y3591882D01*
X44033979Y3525001D01*
X44443476Y3557454D01*
X44810482Y3691256D01*
X44835926Y3706241D01*
X45116098Y3967028D01*
X45319078Y4334132D01*
X45420990Y4753147D01*
X45420989Y4754218D01*
X44900690Y4754218D01*
X44809396Y4436126D01*
X44599314Y4165569D01*
X44312204Y4019681D01*
X43991604Y4004232D01*
X43681052Y4124988D01*
X43517833Y4265023D01*
X43360225Y4554358D01*
X43321822Y4901762D01*
X43401909Y5245750D01*
X43531669Y5455779D01*
X43697479Y5610201D01*
X43889181Y5679289D01*
X44131816Y5693333D01*
X44412495Y5671756D01*
X44592505Y5591700D01*
X44686777Y5496792D01*
X44869163Y5145163D01*
X44900690Y4754218D01*
X45420989Y4754218D01*
X45420556Y5038372D01*
X45296797Y5472087D01*
X45051149Y5813010D01*
X44711204Y6047907D01*
X44304553Y6163543D01*
X43858787Y6146686D01*
G37*
X43858787Y6146686D02*
X43424202Y5995891D01*
X43088313Y5747188D01*
X42885410Y5405014D01*
X42807681Y4955451D01*
X42806405Y4895092D01*
X42872065Y4413236D01*
X43084333Y4009183D01*
X43330788Y3756085D01*
X43642810Y3591882D01*
X44033979Y3525001D01*
X44443476Y3557454D01*
X44810482Y3691256D01*
X44835926Y3706241D01*
X45116098Y3967028D01*
X45319078Y4334132D01*
X45420990Y4753147D01*
X45420989Y4754218D01*
X44900690Y4754218D01*
X44809396Y4436126D01*
X44599314Y4165569D01*
X44312204Y4019681D01*
X43991604Y4004232D01*
X43681052Y4124988D01*
X43517833Y4265023D01*
X43360225Y4554358D01*
X43321822Y4901762D01*
X43401909Y5245750D01*
X43531669Y5455779D01*
X43697479Y5610201D01*
X43889181Y5679289D01*
X44131816Y5693333D01*
X44412495Y5671756D01*
X44592505Y5591700D01*
X44686777Y5496792D01*
X44869163Y5145163D01*
X44900690Y4754218D01*
X45420989Y4754218D01*
X45420556Y5038372D01*
X45296797Y5472087D01*
X45051149Y5813010D01*
X44711204Y6047907D01*
X44304553Y6163543D01*
X43858787Y6146686D01*
G36*
X46431060Y7263250D02*
G01*
X46046724Y7041580D01*
X45835085Y6832878D01*
X45692133Y6621376D01*
X45626522Y6385743D01*
X45613333Y6121588D01*
X45680105Y5675965D01*
X45877720Y5336256D01*
X46202132Y5106013D01*
X46649289Y4988789D01*
X46921462Y4973666D01*
X47189191Y4977825D01*
X47329083Y5005255D01*
X47382631Y5078386D01*
X47391331Y5219650D01*
X47391333Y5227666D01*
X47383103Y5374408D01*
X47330229Y5449838D01*
X47190440Y5477681D01*
X46938789Y5481666D01*
X46591189Y5513638D01*
X46362746Y5625792D01*
X46212747Y5842483D01*
X46174234Y5939089D01*
X46161118Y6162927D01*
X46230372Y6427508D01*
X46354662Y6655368D01*
X46461214Y6752316D01*
X46766645Y6831880D01*
X47094414Y6791065D01*
X47318453Y6674617D01*
X47390412Y6610031D01*
X47443251Y6532828D01*
X47480551Y6417076D01*
X47505894Y6236846D01*
X47522861Y5966207D01*
X47535034Y5579231D01*
X47545994Y5049986D01*
X47546494Y5023617D01*
X47574654Y3534333D01*
X48068666Y3534333D01*
X48068350Y4994833D01*
X48066455Y5535913D01*
X48059205Y5936039D01*
X48043846Y6223574D01*
X48017626Y6426876D01*
X47977791Y6574308D01*
X47921589Y6694229D01*
X47899791Y6731274D01*
X47604372Y7074042D01*
X47240620Y7277969D01*
X46839270Y7341542D01*
X46431060Y7263250D01*
G37*
X46431060Y7263250D02*
X46046724Y7041580D01*
X45835085Y6832878D01*
X45692133Y6621376D01*
X45626522Y6385743D01*
X45613333Y6121588D01*
X45680105Y5675965D01*
X45877720Y5336256D01*
X46202132Y5106013D01*
X46649289Y4988789D01*
X46921462Y4973666D01*
X47189191Y4977825D01*
X47329083Y5005255D01*
X47382631Y5078386D01*
X47391331Y5219650D01*
X47391333Y5227666D01*
X47383103Y5374408D01*
X47330229Y5449838D01*
X47190440Y5477681D01*
X46938789Y5481666D01*
X46591189Y5513638D01*
X46362746Y5625792D01*
X46212747Y5842483D01*
X46174234Y5939089D01*
X46161118Y6162927D01*
X46230372Y6427508D01*
X46354662Y6655368D01*
X46461214Y6752316D01*
X46766645Y6831880D01*
X47094414Y6791065D01*
X47318453Y6674617D01*
X47390412Y6610031D01*
X47443251Y6532828D01*
X47480551Y6417076D01*
X47505894Y6236846D01*
X47522861Y5966207D01*
X47535034Y5579231D01*
X47545994Y5049986D01*
X47546494Y5023617D01*
X47574654Y3534333D01*
X48068666Y3534333D01*
X48068350Y4994833D01*
X48066455Y5535913D01*
X48059205Y5936039D01*
X48043846Y6223574D01*
X48017626Y6426876D01*
X47977791Y6574308D01*
X47921589Y6694229D01*
X47899791Y6731274D01*
X47604372Y7074042D01*
X47240620Y7277969D01*
X46839270Y7341542D01*
X46431060Y7263250D01*
G36*
X31156500Y6143457D02*
G01*
X30923666Y6116666D01*
X30899728Y5164302D01*
X30887127Y4748540D01*
X30869524Y4468621D01*
X30839910Y4291070D01*
X30791273Y4182408D01*
X30716603Y4109158D01*
X30672367Y4078650D01*
X30433183Y3986811D01*
X30230639Y3972681D01*
X30008770Y4059737D01*
X29849426Y4270116D01*
X29748276Y4615187D01*
X29700991Y5106318D01*
X29696131Y5375833D01*
X29694496Y5742540D01*
X29683944Y5972056D01*
X29655782Y6096526D01*
X29601319Y6148093D01*
X29511860Y6158900D01*
X29484333Y6159000D01*
X29272666Y6159000D01*
X29272666Y4124513D01*
X29547884Y3824199D01*
X29882906Y3566436D01*
X30263143Y3471045D01*
X30682225Y3539114D01*
X30840724Y3603537D01*
X31053197Y3724069D01*
X31203735Y3874496D01*
X31302455Y4084160D01*
X31359473Y4382405D01*
X31384902Y4798574D01*
X31389333Y5194941D01*
X31389333Y6170247D01*
X31156500Y6143457D01*
G37*
X31156500Y6143457D02*
X30923666Y6116666D01*
X30899728Y5164302D01*
X30887127Y4748540D01*
X30869524Y4468621D01*
X30839910Y4291070D01*
X30791273Y4182408D01*
X30716603Y4109158D01*
X30672367Y4078650D01*
X30433183Y3986811D01*
X30230639Y3972681D01*
X30008770Y4059737D01*
X29849426Y4270116D01*
X29748276Y4615187D01*
X29700991Y5106318D01*
X29696131Y5375833D01*
X29694496Y5742540D01*
X29683944Y5972056D01*
X29655782Y6096526D01*
X29601319Y6148093D01*
X29511860Y6158900D01*
X29484333Y6159000D01*
X29272666Y6159000D01*
X29272666Y4124513D01*
X29547884Y3824199D01*
X29882906Y3566436D01*
X30263143Y3471045D01*
X30682225Y3539114D01*
X30840724Y3603537D01*
X31053197Y3724069D01*
X31203735Y3874496D01*
X31302455Y4084160D01*
X31359473Y4382405D01*
X31384902Y4798574D01*
X31389333Y5194941D01*
X31389333Y6170247D01*
X31156500Y6143457D01*
G36*
X37007866Y6119353D02*
G01*
X36595360Y5941589D01*
X36266646Y5646231D01*
X36161159Y5518740D01*
X36105709Y5420157D01*
X36117274Y5331206D01*
X36212833Y5232608D01*
X36409365Y5105087D01*
X36723847Y4929365D01*
X37056589Y4749337D01*
X37388836Y4572584D01*
X37605414Y4469690D01*
X37738291Y4431589D01*
X37819438Y4449215D01*
X37880822Y4513501D01*
X37882089Y4515228D01*
X37970699Y4655361D01*
X37993130Y4714682D01*
X37924564Y4775241D01*
X37742629Y4894102D01*
X37482660Y5048568D01*
X37402301Y5094206D01*
X37075584Y5300101D01*
X36911244Y5458824D01*
X36909301Y5570219D01*
X37069774Y5634128D01*
X37330410Y5651000D01*
X37662576Y5576989D01*
X37918032Y5378162D01*
X38076583Y5089325D01*
X38118036Y4745286D01*
X38041771Y4424883D01*
X37872956Y4153728D01*
X37626585Y4004918D01*
X37267546Y3957733D01*
X37250022Y3957666D01*
X36944470Y4008602D01*
X36725430Y4177965D01*
X36561988Y4486988D01*
X36457669Y4658228D01*
X36282836Y4717104D01*
X36206845Y4719666D01*
X36025215Y4706021D01*
X35969311Y4630564D01*
X35991629Y4462354D01*
X36146992Y4087039D01*
X36427127Y3784947D01*
X36796554Y3574583D01*
X37219797Y3474453D01*
X37661377Y3503064D01*
X37772834Y3533245D01*
X38150791Y3736265D01*
X38435457Y4057250D01*
X38606679Y4461438D01*
X38644306Y4914071D01*
X38632700Y5016390D01*
X38497384Y5444783D01*
X38227435Y5779507D01*
X37904036Y5992029D01*
X37451523Y6137736D01*
X37007866Y6119353D01*
G37*
X37007866Y6119353D02*
X36595360Y5941589D01*
X36266646Y5646231D01*
X36161159Y5518740D01*
X36105709Y5420157D01*
X36117274Y5331206D01*
X36212833Y5232608D01*
X36409365Y5105087D01*
X36723847Y4929365D01*
X37056589Y4749337D01*
X37388836Y4572584D01*
X37605414Y4469690D01*
X37738291Y4431589D01*
X37819438Y4449215D01*
X37880822Y4513501D01*
X37882089Y4515228D01*
X37970699Y4655361D01*
X37993130Y4714682D01*
X37924564Y4775241D01*
X37742629Y4894102D01*
X37482660Y5048568D01*
X37402301Y5094206D01*
X37075584Y5300101D01*
X36911244Y5458824D01*
X36909301Y5570219D01*
X37069774Y5634128D01*
X37330410Y5651000D01*
X37662576Y5576989D01*
X37918032Y5378162D01*
X38076583Y5089325D01*
X38118036Y4745286D01*
X38041771Y4424883D01*
X37872956Y4153728D01*
X37626585Y4004918D01*
X37267546Y3957733D01*
X37250022Y3957666D01*
X36944470Y4008602D01*
X36725430Y4177965D01*
X36561988Y4486988D01*
X36457669Y4658228D01*
X36282836Y4717104D01*
X36206845Y4719666D01*
X36025215Y4706021D01*
X35969311Y4630564D01*
X35991629Y4462354D01*
X36146992Y4087039D01*
X36427127Y3784947D01*
X36796554Y3574583D01*
X37219797Y3474453D01*
X37661377Y3503064D01*
X37772834Y3533245D01*
X38150791Y3736265D01*
X38435457Y4057250D01*
X38606679Y4461438D01*
X38644306Y4914071D01*
X38632700Y5016390D01*
X38497384Y5444783D01*
X38227435Y5779507D01*
X37904036Y5992029D01*
X37451523Y6137736D01*
X37007866Y6119353D01*
G36*
X39284500Y6143457D02*
G01*
X39051666Y6116666D01*
X39027425Y5290465D01*
X39028771Y4698796D01*
X39075247Y4251591D01*
X39171494Y3928892D01*
X39322152Y3710741D01*
X39411101Y3639940D01*
X39691321Y3527345D01*
X40019161Y3495064D01*
X40325233Y3542798D01*
X40514949Y3644696D01*
X40633650Y3737309D01*
X40739035Y3745419D01*
X40898667Y3665918D01*
X40968338Y3623846D01*
X41320080Y3474455D01*
X41651426Y3483260D01*
X41946888Y3615267D01*
X42138996Y3777399D01*
X42271419Y4007342D01*
X42350795Y4330464D01*
X42383765Y4772132D01*
X42379944Y5270000D01*
X42353666Y6116666D01*
X42120833Y6143457D01*
X41888000Y6170247D01*
X41888000Y5413207D01*
X41879746Y4899934D01*
X41851267Y4529951D01*
X41796992Y4277849D01*
X41711348Y4118218D01*
X41588760Y4025651D01*
X41583091Y4023020D01*
X41391001Y3980900D01*
X41192735Y4061163D01*
X41171801Y4074608D01*
X41079309Y4142298D01*
X41018032Y4223037D01*
X40981550Y4350026D01*
X40963444Y4556466D01*
X40957294Y4875558D01*
X40956666Y5187285D01*
X40956666Y6159000D01*
X40448666Y6159000D01*
X40448666Y5243849D01*
X40441157Y4777524D01*
X40412435Y4451155D01*
X40353205Y4235785D01*
X40254176Y4102458D01*
X40106053Y4022216D01*
X40050831Y4004218D01*
X39838713Y4015439D01*
X39690997Y4122669D01*
X39613818Y4217377D01*
X39563370Y4340221D01*
X39534144Y4526423D01*
X39520635Y4811204D01*
X39517333Y5229784D01*
X39517333Y6170247D01*
X39284500Y6143457D01*
G37*
X39284500Y6143457D02*
X39051666Y6116666D01*
X39027425Y5290465D01*
X39028771Y4698796D01*
X39075247Y4251591D01*
X39171494Y3928892D01*
X39322152Y3710741D01*
X39411101Y3639940D01*
X39691321Y3527345D01*
X40019161Y3495064D01*
X40325233Y3542798D01*
X40514949Y3644696D01*
X40633650Y3737309D01*
X40739035Y3745419D01*
X40898667Y3665918D01*
X40968338Y3623846D01*
X41320080Y3474455D01*
X41651426Y3483260D01*
X41946888Y3615267D01*
X42138996Y3777399D01*
X42271419Y4007342D01*
X42350795Y4330464D01*
X42383765Y4772132D01*
X42379944Y5270000D01*
X42353666Y6116666D01*
X42120833Y6143457D01*
X41888000Y6170247D01*
X41888000Y5413207D01*
X41879746Y4899934D01*
X41851267Y4529951D01*
X41796992Y4277849D01*
X41711348Y4118218D01*
X41588760Y4025651D01*
X41583091Y4023020D01*
X41391001Y3980900D01*
X41192735Y4061163D01*
X41171801Y4074608D01*
X41079309Y4142298D01*
X41018032Y4223037D01*
X40981550Y4350026D01*
X40963444Y4556466D01*
X40957294Y4875558D01*
X40956666Y5187285D01*
X40956666Y6159000D01*
X40448666Y6159000D01*
X40448666Y5243849D01*
X40441157Y4777524D01*
X40412435Y4451155D01*
X40353205Y4235785D01*
X40254176Y4102458D01*
X40106053Y4022216D01*
X40050831Y4004218D01*
X39838713Y4015439D01*
X39690997Y4122669D01*
X39613818Y4217377D01*
X39563370Y4340221D01*
X39534144Y4526423D01*
X39520635Y4811204D01*
X39517333Y5229784D01*
X39517333Y6170247D01*
X39284500Y6143457D01*
G36*
X21130991Y5230478D02*
G01*
X21110161Y4770543D01*
X21072790Y4450253D01*
X21006592Y4239973D01*
X20899278Y4110066D01*
X20738561Y4030898D01*
X20619761Y3997462D01*
X20420686Y3989792D01*
X20238234Y4097888D01*
X20175261Y4157376D01*
X20078590Y4264405D01*
X20016078Y4378406D01*
X19980320Y4537396D01*
X19963912Y4779395D01*
X19959450Y5142421D01*
X19959333Y5266151D01*
X19959333Y6159000D01*
X19437523Y6159000D01*
X19465595Y5093515D01*
X19493666Y4028030D01*
X19770169Y3781181D01*
X19968064Y3628650D01*
X20133028Y3541899D01*
X20172336Y3534333D01*
X20243002Y3496446D01*
X20282254Y3362050D01*
X20297194Y3100046D01*
X20298000Y2984000D01*
X20298000Y2433666D01*
X20806000Y2433666D01*
X20806000Y2973728D01*
X20810425Y3268526D01*
X20836415Y3440914D01*
X20903036Y3537797D01*
X21029358Y3606079D01*
X21070013Y3623148D01*
X21300567Y3751090D01*
X21464029Y3931438D01*
X21570365Y4191280D01*
X21629535Y4557704D01*
X21651503Y5057800D01*
X21652350Y5206500D01*
X21652666Y6159000D01*
X21159648Y6159000D01*
X21130991Y5230478D01*
G37*
X21130991Y5230478D02*
X21110161Y4770543D01*
X21072790Y4450253D01*
X21006592Y4239973D01*
X20899278Y4110066D01*
X20738561Y4030898D01*
X20619761Y3997462D01*
X20420686Y3989792D01*
X20238234Y4097888D01*
X20175261Y4157376D01*
X20078590Y4264405D01*
X20016078Y4378406D01*
X19980320Y4537396D01*
X19963912Y4779395D01*
X19959450Y5142421D01*
X19959333Y5266151D01*
X19959333Y6159000D01*
X19437523Y6159000D01*
X19465595Y5093515D01*
X19493666Y4028030D01*
X19770169Y3781181D01*
X19968064Y3628650D01*
X20133028Y3541899D01*
X20172336Y3534333D01*
X20243002Y3496446D01*
X20282254Y3362050D01*
X20297194Y3100046D01*
X20298000Y2984000D01*
X20298000Y2433666D01*
X20806000Y2433666D01*
X20806000Y2973728D01*
X20810425Y3268526D01*
X20836415Y3440914D01*
X20903036Y3537797D01*
X21029358Y3606079D01*
X21070013Y3623148D01*
X21300567Y3751090D01*
X21464029Y3931438D01*
X21570365Y4191280D01*
X21629535Y4557704D01*
X21651503Y5057800D01*
X21652350Y5206500D01*
X21652666Y6159000D01*
X21159648Y6159000D01*
X21130991Y5230478D01*
G36*
X24053880Y6108100D02*
G01*
X23676527Y5926369D01*
X23379842Y5640695D01*
X23245787Y5397000D01*
X23167213Y5020900D01*
X23182601Y4597301D01*
X23285263Y4207636D01*
X23354731Y4070539D01*
X23620697Y3778615D01*
X23976941Y3572685D01*
X24365269Y3479759D01*
X24601943Y3491718D01*
X24937174Y3578807D01*
X25129508Y3696612D01*
X25204943Y3863703D01*
X25208666Y3925039D01*
X25193832Y4067434D01*
X25115888Y4106869D01*
X24933500Y4072395D01*
X24471384Y4011976D01*
X24107255Y4078426D01*
X23850254Y4266312D01*
X23709522Y4570202D01*
X23684666Y4814621D01*
X23724585Y5175447D01*
X23860124Y5426742D01*
X24114956Y5612262D01*
X24116689Y5613160D01*
X24453761Y5703616D01*
X24777978Y5629467D01*
X25069980Y5395314D01*
X25079378Y5384279D01*
X25159629Y5282832D01*
X25216800Y5180240D01*
X25254802Y5047213D01*
X25277544Y4854463D01*
X25288938Y4572701D01*
X25292895Y4172638D01*
X25293333Y3781837D01*
X25293333Y2433666D01*
X25801333Y2433666D01*
X25801202Y3809500D01*
X25795220Y4415752D01*
X25773070Y4879545D01*
X25728247Y5227477D01*
X25654245Y5486146D01*
X25544560Y5682151D01*
X25392686Y5842088D01*
X25282936Y5928639D01*
X24895785Y6119335D01*
X24473199Y6175788D01*
X24053880Y6108100D01*
G37*
X24053880Y6108100D02*
X23676527Y5926369D01*
X23379842Y5640695D01*
X23245787Y5397000D01*
X23167213Y5020900D01*
X23182601Y4597301D01*
X23285263Y4207636D01*
X23354731Y4070539D01*
X23620697Y3778615D01*
X23976941Y3572685D01*
X24365269Y3479759D01*
X24601943Y3491718D01*
X24937174Y3578807D01*
X25129508Y3696612D01*
X25204943Y3863703D01*
X25208666Y3925039D01*
X25193832Y4067434D01*
X25115888Y4106869D01*
X24933500Y4072395D01*
X24471384Y4011976D01*
X24107255Y4078426D01*
X23850254Y4266312D01*
X23709522Y4570202D01*
X23684666Y4814621D01*
X23724585Y5175447D01*
X23860124Y5426742D01*
X24114956Y5612262D01*
X24116689Y5613160D01*
X24453761Y5703616D01*
X24777978Y5629467D01*
X25069980Y5395314D01*
X25079378Y5384279D01*
X25159629Y5282832D01*
X25216800Y5180240D01*
X25254802Y5047213D01*
X25277544Y4854463D01*
X25288938Y4572701D01*
X25292895Y4172638D01*
X25293333Y3781837D01*
X25293333Y2433666D01*
X25801333Y2433666D01*
X25801202Y3809500D01*
X25795220Y4415752D01*
X25773070Y4879545D01*
X25728247Y5227477D01*
X25654245Y5486146D01*
X25544560Y5682151D01*
X25392686Y5842088D01*
X25282936Y5928639D01*
X24895785Y6119335D01*
X24473199Y6175788D01*
X24053880Y6108100D01*
G36*
X26955788Y6094462D02*
G01*
X26596955Y5887523D01*
X26331216Y5577877D01*
X26172664Y5192368D01*
X26135390Y4757843D01*
X26233487Y4301146D01*
X26314692Y4116496D01*
X26567886Y3793233D01*
X26918707Y3578667D01*
X27325943Y3484549D01*
X27748383Y3522633D01*
X28022274Y3629494D01*
X28138045Y3769940D01*
X28172000Y3925039D01*
X28157165Y4067434D01*
X28079221Y4106869D01*
X27896833Y4072395D01*
X27602875Y4024082D01*
X27333229Y4009073D01*
X27037824Y4083632D01*
X26823314Y4271453D01*
X26693083Y4535250D01*
X26650515Y4837733D01*
X26698992Y5141615D01*
X26841897Y5409608D01*
X27082615Y5604425D01*
X27184665Y5646489D01*
X27537264Y5689732D01*
X27848199Y5570181D01*
X28076214Y5349571D01*
X28144547Y5250989D01*
X28193122Y5137550D01*
X28225274Y4980184D01*
X28244339Y4749821D01*
X28253652Y4417389D01*
X28256549Y3953817D01*
X28256666Y3776915D01*
X28256666Y2433666D01*
X28775581Y2433666D01*
X28748957Y3909430D01*
X28737644Y4449966D01*
X28723909Y4848646D01*
X28704471Y5132948D01*
X28676046Y5330346D01*
X28635353Y5468318D01*
X28579110Y5574339D01*
X28544150Y5623930D01*
X28205311Y5951033D01*
X27784214Y6131371D01*
X27393624Y6171848D01*
X26955788Y6094462D01*
G37*
X26955788Y6094462D02*
X26596955Y5887523D01*
X26331216Y5577877D01*
X26172664Y5192368D01*
X26135390Y4757843D01*
X26233487Y4301146D01*
X26314692Y4116496D01*
X26567886Y3793233D01*
X26918707Y3578667D01*
X27325943Y3484549D01*
X27748383Y3522633D01*
X28022274Y3629494D01*
X28138045Y3769940D01*
X28172000Y3925039D01*
X28157165Y4067434D01*
X28079221Y4106869D01*
X27896833Y4072395D01*
X27602875Y4024082D01*
X27333229Y4009073D01*
X27037824Y4083632D01*
X26823314Y4271453D01*
X26693083Y4535250D01*
X26650515Y4837733D01*
X26698992Y5141615D01*
X26841897Y5409608D01*
X27082615Y5604425D01*
X27184665Y5646489D01*
X27537264Y5689732D01*
X27848199Y5570181D01*
X28076214Y5349571D01*
X28144547Y5250989D01*
X28193122Y5137550D01*
X28225274Y4980184D01*
X28244339Y4749821D01*
X28253652Y4417389D01*
X28256549Y3953817D01*
X28256666Y3776915D01*
X28256666Y2433666D01*
X28775581Y2433666D01*
X28748957Y3909430D01*
X28737644Y4449966D01*
X28723909Y4848646D01*
X28704471Y5132948D01*
X28676046Y5330346D01*
X28635353Y5468318D01*
X28579110Y5574339D01*
X28544150Y5623930D01*
X28205311Y5951033D01*
X27784214Y6131371D01*
X27393624Y6171848D01*
X26955788Y6094462D01*
D10*
%TO.C,Right1*%
X49590000Y-8950000D02*
X44390000Y-8950000D01*
X49590000Y-1270000D02*
X49590000Y-8950000D01*
X44390000Y1330000D02*
X44390000Y-8950000D01*
X49590000Y-1270000D02*
X46990000Y-1270000D01*
X46990000Y-1270000D02*
X46990000Y1330000D01*
X46990000Y1330000D02*
X44390000Y1330000D01*
X49590000Y0D02*
X49590000Y1330000D01*
X49590000Y1330000D02*
X48260000Y1330000D01*
%TO.C,Left1*%
X3870000Y-8950000D02*
X-1330000Y-8950000D01*
X3870000Y-1270000D02*
X3870000Y-8950000D01*
X-1330000Y1330000D02*
X-1330000Y-8950000D01*
X3870000Y-1270000D02*
X1270000Y-1270000D01*
X1270000Y-1270000D02*
X1270000Y1330000D01*
X1270000Y1330000D02*
X-1330000Y1330000D01*
X3870000Y0D02*
X3870000Y1330000D01*
X3870000Y1330000D02*
X2540000Y1330000D01*
D13*
%TO.C,G\u002A\u002A\u002A*%
G36*
X19171992Y1632217D02*
G01*
X19169352Y1631848D01*
X19000881Y1590679D01*
X18847405Y1519052D01*
X18712155Y1420684D01*
X18598360Y1299290D01*
X18509252Y1158587D01*
X18448060Y1002291D01*
X18418017Y834118D01*
X18415443Y764625D01*
X18427830Y594544D01*
X18465738Y445418D01*
X18532043Y309853D01*
X18629623Y180450D01*
X18652320Y155538D01*
X18783648Y40326D01*
X18932567Y-46052D01*
X19093834Y-102060D01*
X19262206Y-126163D01*
X19432439Y-116828D01*
X19519676Y-98324D01*
X19680521Y-36843D01*
X19826115Y54808D01*
X19952190Y172214D01*
X20054476Y310962D01*
X20128705Y466638D01*
X20156595Y560274D01*
X20170683Y663873D01*
X20171455Y785853D01*
X20159935Y911261D01*
X20137149Y1025148D01*
X20121321Y1074507D01*
X20044927Y1226526D01*
X19941049Y1358962D01*
X19814333Y1469097D01*
X19669423Y1554209D01*
X19510967Y1611579D01*
X19343607Y1638489D01*
X19171992Y1632217D01*
G37*
X19171992Y1632217D02*
X19169352Y1631848D01*
X19000881Y1590679D01*
X18847405Y1519052D01*
X18712155Y1420684D01*
X18598360Y1299290D01*
X18509252Y1158587D01*
X18448060Y1002291D01*
X18418017Y834118D01*
X18415443Y764625D01*
X18427830Y594544D01*
X18465738Y445418D01*
X18532043Y309853D01*
X18629623Y180450D01*
X18652320Y155538D01*
X18783648Y40326D01*
X18932567Y-46052D01*
X19093834Y-102060D01*
X19262206Y-126163D01*
X19432439Y-116828D01*
X19519676Y-98324D01*
X19680521Y-36843D01*
X19826115Y54808D01*
X19952190Y172214D01*
X20054476Y310962D01*
X20128705Y466638D01*
X20156595Y560274D01*
X20170683Y663873D01*
X20171455Y785853D01*
X20159935Y911261D01*
X20137149Y1025148D01*
X20121321Y1074507D01*
X20044927Y1226526D01*
X19941049Y1358962D01*
X19814333Y1469097D01*
X19669423Y1554209D01*
X19510967Y1611579D01*
X19343607Y1638489D01*
X19171992Y1632217D01*
G36*
X7728857Y1378857D02*
G01*
X8182429Y1378857D01*
X8182429Y-36285D01*
X7728857Y-36285D01*
X7728857Y-362857D01*
X9017000Y-362857D01*
X9017000Y-36285D01*
X8563429Y-36285D01*
X8563429Y1378857D01*
X9017000Y1378857D01*
X9017000Y1687286D01*
X7728857Y1687286D01*
X7728857Y1378857D01*
G37*
X7728857Y1378857D02*
X8182429Y1378857D01*
X8182429Y-36285D01*
X7728857Y-36285D01*
X7728857Y-362857D01*
X9017000Y-362857D01*
X9017000Y-36285D01*
X8563429Y-36285D01*
X8563429Y1378857D01*
X9017000Y1378857D01*
X9017000Y1687286D01*
X7728857Y1687286D01*
X7728857Y1378857D01*
G36*
X11339829Y684893D02*
G01*
X11285469Y500879D01*
X11234049Y327010D01*
X11186508Y166449D01*
X11143785Y22360D01*
X11106819Y-102096D01*
X11076550Y-203755D01*
X11053917Y-279453D01*
X11039859Y-326029D01*
X11035424Y-340178D01*
X11040356Y-350378D01*
X11067044Y-357214D01*
X11119860Y-361180D01*
X11203176Y-362769D01*
X11236271Y-362857D01*
X11445568Y-362857D01*
X11472994Y-267607D01*
X11493656Y-195027D01*
X11517374Y-110536D01*
X11531685Y-58964D01*
X11562949Y54429D01*
X12280139Y54429D01*
X12307566Y-40821D01*
X12328227Y-113401D01*
X12351945Y-197892D01*
X12366256Y-249464D01*
X12397520Y-362857D01*
X12586987Y-362857D01*
X12675447Y-361785D01*
X12732152Y-358197D01*
X12761580Y-351530D01*
X12768209Y-341222D01*
X12767871Y-340178D01*
X12761281Y-319051D01*
X12745356Y-266286D01*
X12721037Y-185046D01*
X12689267Y-78492D01*
X12650984Y50212D01*
X12607131Y197903D01*
X12558648Y361421D01*
X12558223Y362857D01*
X12189439Y362857D01*
X11917065Y362857D01*
X11807876Y363543D01*
X11730909Y365830D01*
X11682120Y370065D01*
X11657466Y376597D01*
X11652816Y385536D01*
X11659726Y408591D01*
X11674944Y461672D01*
X11697076Y539840D01*
X11724727Y638154D01*
X11756504Y751677D01*
X11785728Y856478D01*
X11819754Y976786D01*
X11851080Y1083906D01*
X11878317Y1173380D01*
X11900078Y1240752D01*
X11914973Y1281563D01*
X11921353Y1291907D01*
X11929386Y1271164D01*
X11945302Y1221045D01*
X11967419Y1147177D01*
X11994055Y1055186D01*
X12023527Y950699D01*
X12025551Y943429D01*
X12057552Y828612D01*
X12088874Y716645D01*
X12117195Y615805D01*
X12140189Y534368D01*
X12154175Y485322D01*
X12189439Y362857D01*
X12558223Y362857D01*
X12506476Y537601D01*
X12462904Y684893D01*
X12166520Y1687286D01*
X11635784Y1687286D01*
X11339829Y684893D01*
G37*
X11339829Y684893D02*
X11285469Y500879D01*
X11234049Y327010D01*
X11186508Y166449D01*
X11143785Y22360D01*
X11106819Y-102096D01*
X11076550Y-203755D01*
X11053917Y-279453D01*
X11039859Y-326029D01*
X11035424Y-340178D01*
X11040356Y-350378D01*
X11067044Y-357214D01*
X11119860Y-361180D01*
X11203176Y-362769D01*
X11236271Y-362857D01*
X11445568Y-362857D01*
X11472994Y-267607D01*
X11493656Y-195027D01*
X11517374Y-110536D01*
X11531685Y-58964D01*
X11562949Y54429D01*
X12280139Y54429D01*
X12307566Y-40821D01*
X12328227Y-113401D01*
X12351945Y-197892D01*
X12366256Y-249464D01*
X12397520Y-362857D01*
X12586987Y-362857D01*
X12675447Y-361785D01*
X12732152Y-358197D01*
X12761580Y-351530D01*
X12768209Y-341222D01*
X12767871Y-340178D01*
X12761281Y-319051D01*
X12745356Y-266286D01*
X12721037Y-185046D01*
X12689267Y-78492D01*
X12650984Y50212D01*
X12607131Y197903D01*
X12558648Y361421D01*
X12558223Y362857D01*
X12189439Y362857D01*
X11917065Y362857D01*
X11807876Y363543D01*
X11730909Y365830D01*
X11682120Y370065D01*
X11657466Y376597D01*
X11652816Y385536D01*
X11659726Y408591D01*
X11674944Y461672D01*
X11697076Y539840D01*
X11724727Y638154D01*
X11756504Y751677D01*
X11785728Y856478D01*
X11819754Y976786D01*
X11851080Y1083906D01*
X11878317Y1173380D01*
X11900078Y1240752D01*
X11914973Y1281563D01*
X11921353Y1291907D01*
X11929386Y1271164D01*
X11945302Y1221045D01*
X11967419Y1147177D01*
X11994055Y1055186D01*
X12023527Y950699D01*
X12025551Y943429D01*
X12057552Y828612D01*
X12088874Y716645D01*
X12117195Y615805D01*
X12140189Y534368D01*
X12154175Y485322D01*
X12189439Y362857D01*
X12558223Y362857D01*
X12506476Y537601D01*
X12462904Y684893D01*
X12166520Y1687286D01*
X11635784Y1687286D01*
X11339829Y684893D01*
G36*
X12917714Y1360714D02*
G01*
X13480143Y1360714D01*
X13480143Y-362857D01*
X13861143Y-362857D01*
X13861143Y1359769D01*
X14137821Y1364778D01*
X14414500Y1369786D01*
X14424984Y1687286D01*
X12917714Y1687286D01*
X12917714Y1360714D01*
G37*
X12917714Y1360714D02*
X13480143Y1360714D01*
X13480143Y-362857D01*
X13861143Y-362857D01*
X13861143Y1359769D01*
X14137821Y1364778D01*
X14414500Y1369786D01*
X14424984Y1687286D01*
X12917714Y1687286D01*
X12917714Y1360714D01*
G36*
X6360835Y1704485D02*
G01*
X6221657Y1689228D01*
X6098850Y1664949D01*
X6073321Y1657908D01*
X6058009Y1648607D01*
X6048496Y1626968D01*
X6043487Y1585911D01*
X6041685Y1518355D01*
X6041571Y1484433D01*
X6041571Y1320310D01*
X6091464Y1329890D01*
X6132993Y1337896D01*
X6197499Y1350367D01*
X6272335Y1364857D01*
X6286500Y1367602D01*
X6446408Y1390217D01*
X6586066Y1392839D01*
X6703090Y1376042D01*
X6795099Y1340402D01*
X6859710Y1286491D01*
X6892865Y1221403D01*
X6898926Y1140252D01*
X6870169Y1068551D01*
X6807059Y1007264D01*
X6782542Y991661D01*
X6735827Y967753D01*
X6664287Y935162D01*
X6577092Y897903D01*
X6483408Y859990D01*
X6468550Y854178D01*
X6372421Y814634D01*
X6279382Y772595D01*
X6199408Y732803D01*
X6142471Y700001D01*
X6137896Y696923D01*
X6032654Y604154D01*
X5957379Y493815D01*
X5912991Y370082D01*
X5900410Y237131D01*
X5920556Y99137D01*
X5974348Y-39725D01*
X5975262Y-41496D01*
X6055018Y-156705D01*
X6163339Y-249857D01*
X6299576Y-320412D01*
X6322786Y-329160D01*
X6400454Y-348797D01*
X6505375Y-363516D01*
X6628825Y-373119D01*
X6762079Y-377407D01*
X6896414Y-376181D01*
X7023104Y-369242D01*
X7133425Y-356391D01*
X7175500Y-348606D01*
X7320643Y-317500D01*
X7325813Y-131536D01*
X7327225Y-54370D01*
X7326954Y7159D01*
X7325120Y45473D01*
X7322895Y54429D01*
X7303089Y49936D01*
X7256086Y37816D01*
X7189662Y20102D01*
X7136296Y5606D01*
X7041655Y-18068D01*
X6957468Y-33015D01*
X6869040Y-41087D01*
X6761678Y-44134D01*
X6740071Y-44287D01*
X6643975Y-44011D01*
X6575549Y-41296D01*
X6526202Y-34979D01*
X6487342Y-23893D01*
X6450377Y-6873D01*
X6445624Y-4357D01*
X6370837Y52007D01*
X6327434Y120615D01*
X6315186Y195892D01*
X6333868Y272263D01*
X6383253Y344151D01*
X6462256Y405483D01*
X6511906Y430725D01*
X6584898Y463367D01*
X6670365Y498701D01*
X6736770Y524382D01*
X6872390Y577596D01*
X6978678Y625556D01*
X7061560Y671585D01*
X7126962Y719010D01*
X7180808Y771156D01*
X7185121Y776002D01*
X7259605Y887181D01*
X7301549Y1014168D01*
X7311470Y1123554D01*
X7296213Y1268092D01*
X7250610Y1393050D01*
X7174452Y1498692D01*
X7067531Y1585282D01*
X6929637Y1653082D01*
X6876143Y1671747D01*
X6774038Y1694350D01*
X6647281Y1707223D01*
X6506128Y1710542D01*
X6360835Y1704485D01*
G37*
X6360835Y1704485D02*
X6221657Y1689228D01*
X6098850Y1664949D01*
X6073321Y1657908D01*
X6058009Y1648607D01*
X6048496Y1626968D01*
X6043487Y1585911D01*
X6041685Y1518355D01*
X6041571Y1484433D01*
X6041571Y1320310D01*
X6091464Y1329890D01*
X6132993Y1337896D01*
X6197499Y1350367D01*
X6272335Y1364857D01*
X6286500Y1367602D01*
X6446408Y1390217D01*
X6586066Y1392839D01*
X6703090Y1376042D01*
X6795099Y1340402D01*
X6859710Y1286491D01*
X6892865Y1221403D01*
X6898926Y1140252D01*
X6870169Y1068551D01*
X6807059Y1007264D01*
X6782542Y991661D01*
X6735827Y967753D01*
X6664287Y935162D01*
X6577092Y897903D01*
X6483408Y859990D01*
X6468550Y854178D01*
X6372421Y814634D01*
X6279382Y772595D01*
X6199408Y732803D01*
X6142471Y700001D01*
X6137896Y696923D01*
X6032654Y604154D01*
X5957379Y493815D01*
X5912991Y370082D01*
X5900410Y237131D01*
X5920556Y99137D01*
X5974348Y-39725D01*
X5975262Y-41496D01*
X6055018Y-156705D01*
X6163339Y-249857D01*
X6299576Y-320412D01*
X6322786Y-329160D01*
X6400454Y-348797D01*
X6505375Y-363516D01*
X6628825Y-373119D01*
X6762079Y-377407D01*
X6896414Y-376181D01*
X7023104Y-369242D01*
X7133425Y-356391D01*
X7175500Y-348606D01*
X7320643Y-317500D01*
X7325813Y-131536D01*
X7327225Y-54370D01*
X7326954Y7159D01*
X7325120Y45473D01*
X7322895Y54429D01*
X7303089Y49936D01*
X7256086Y37816D01*
X7189662Y20102D01*
X7136296Y5606D01*
X7041655Y-18068D01*
X6957468Y-33015D01*
X6869040Y-41087D01*
X6761678Y-44134D01*
X6740071Y-44287D01*
X6643975Y-44011D01*
X6575549Y-41296D01*
X6526202Y-34979D01*
X6487342Y-23893D01*
X6450377Y-6873D01*
X6445624Y-4357D01*
X6370837Y52007D01*
X6327434Y120615D01*
X6315186Y195892D01*
X6333868Y272263D01*
X6383253Y344151D01*
X6462256Y405483D01*
X6511906Y430725D01*
X6584898Y463367D01*
X6670365Y498701D01*
X6736770Y524382D01*
X6872390Y577596D01*
X6978678Y625556D01*
X7061560Y671585D01*
X7126962Y719010D01*
X7180808Y771156D01*
X7185121Y776002D01*
X7259605Y887181D01*
X7301549Y1014168D01*
X7311470Y1123554D01*
X7296213Y1268092D01*
X7250610Y1393050D01*
X7174452Y1498692D01*
X7067531Y1585282D01*
X6929637Y1653082D01*
X6876143Y1671747D01*
X6774038Y1694350D01*
X6647281Y1707223D01*
X6506128Y1710542D01*
X6360835Y1704485D01*
G36*
X9996085Y1711251D02*
G01*
X9868402Y1702467D01*
X9747480Y1687536D01*
X9647464Y1667465D01*
X9579428Y1649602D01*
X9579428Y1312714D01*
X9710964Y1346263D01*
X9878318Y1380213D01*
X10030028Y1393474D01*
X10162584Y1386308D01*
X10272478Y1358977D01*
X10356202Y1311741D01*
X10372556Y1296930D01*
X10413716Y1246841D01*
X10430501Y1197448D01*
X10432143Y1169220D01*
X10421070Y1109856D01*
X10385935Y1055392D01*
X10323867Y1003511D01*
X10231990Y951893D01*
X10107434Y898221D01*
X10086062Y889968D01*
X9922309Y824415D01*
X9789990Y763900D01*
X9685099Y705674D01*
X9603631Y646989D01*
X9541578Y585096D01*
X9494936Y517248D01*
X9470579Y467710D01*
X9443861Y371511D01*
X9434581Y257707D01*
X9442256Y140244D01*
X9466403Y33069D01*
X9487388Y-18143D01*
X9568329Y-139951D01*
X9675138Y-236995D01*
X9808465Y-309752D01*
X9946474Y-353647D01*
X10026719Y-366456D01*
X10132782Y-374738D01*
X10254480Y-378501D01*
X10381629Y-377751D01*
X10504047Y-372496D01*
X10611551Y-362744D01*
X10673125Y-353116D01*
X10758012Y-336511D01*
X10813888Y-322338D01*
X10846771Y-303561D01*
X10862678Y-273147D01*
X10867627Y-224057D01*
X10867636Y-149258D01*
X10867571Y-125777D01*
X10866744Y-49896D01*
X10864514Y10216D01*
X10861260Y46852D01*
X10858727Y54429D01*
X10838572Y49963D01*
X10791286Y37922D01*
X10724729Y20338D01*
X10672762Y6330D01*
X10551926Y-20320D01*
X10423857Y-37950D01*
X10296639Y-46375D01*
X10178353Y-45416D01*
X10077085Y-34889D01*
X10000917Y-14612D01*
X9988814Y-9071D01*
X9909609Y45351D01*
X9863394Y112585D01*
X9848276Y195449D01*
X9848303Y200116D01*
X9859935Y264891D01*
X9894797Y323707D01*
X9955677Y378752D01*
X10045363Y432212D01*
X10166640Y486276D01*
X10255828Y519949D01*
X10420201Y585693D01*
X10551577Y653453D01*
X10653246Y725104D01*
X10707234Y777165D01*
X10776052Y870143D01*
X10816550Y968905D01*
X10833004Y1084817D01*
X10833822Y1113756D01*
X10821316Y1261414D01*
X10779819Y1388039D01*
X10709039Y1493916D01*
X10608681Y1579324D01*
X10478451Y1644547D01*
X10318055Y1689865D01*
X10215859Y1706539D01*
X10116560Y1712928D01*
X9996085Y1711251D01*
G37*
X9996085Y1711251D02*
X9868402Y1702467D01*
X9747480Y1687536D01*
X9647464Y1667465D01*
X9579428Y1649602D01*
X9579428Y1312714D01*
X9710964Y1346263D01*
X9878318Y1380213D01*
X10030028Y1393474D01*
X10162584Y1386308D01*
X10272478Y1358977D01*
X10356202Y1311741D01*
X10372556Y1296930D01*
X10413716Y1246841D01*
X10430501Y1197448D01*
X10432143Y1169220D01*
X10421070Y1109856D01*
X10385935Y1055392D01*
X10323867Y1003511D01*
X10231990Y951893D01*
X10107434Y898221D01*
X10086062Y889968D01*
X9922309Y824415D01*
X9789990Y763900D01*
X9685099Y705674D01*
X9603631Y646989D01*
X9541578Y585096D01*
X9494936Y517248D01*
X9470579Y467710D01*
X9443861Y371511D01*
X9434581Y257707D01*
X9442256Y140244D01*
X9466403Y33069D01*
X9487388Y-18143D01*
X9568329Y-139951D01*
X9675138Y-236995D01*
X9808465Y-309752D01*
X9946474Y-353647D01*
X10026719Y-366456D01*
X10132782Y-374738D01*
X10254480Y-378501D01*
X10381629Y-377751D01*
X10504047Y-372496D01*
X10611551Y-362744D01*
X10673125Y-353116D01*
X10758012Y-336511D01*
X10813888Y-322338D01*
X10846771Y-303561D01*
X10862678Y-273147D01*
X10867627Y-224057D01*
X10867636Y-149258D01*
X10867571Y-125777D01*
X10866744Y-49896D01*
X10864514Y10216D01*
X10861260Y46852D01*
X10858727Y54429D01*
X10838572Y49963D01*
X10791286Y37922D01*
X10724729Y20338D01*
X10672762Y6330D01*
X10551926Y-20320D01*
X10423857Y-37950D01*
X10296639Y-46375D01*
X10178353Y-45416D01*
X10077085Y-34889D01*
X10000917Y-14612D01*
X9988814Y-9071D01*
X9909609Y45351D01*
X9863394Y112585D01*
X9848276Y195449D01*
X9848303Y200116D01*
X9859935Y264891D01*
X9894797Y323707D01*
X9955677Y378752D01*
X10045363Y432212D01*
X10166640Y486276D01*
X10255828Y519949D01*
X10420201Y585693D01*
X10551577Y653453D01*
X10653246Y725104D01*
X10707234Y777165D01*
X10776052Y870143D01*
X10816550Y968905D01*
X10833004Y1084817D01*
X10833822Y1113756D01*
X10821316Y1261414D01*
X10779819Y1388039D01*
X10709039Y1493916D01*
X10608681Y1579324D01*
X10478451Y1644547D01*
X10318055Y1689865D01*
X10215859Y1706539D01*
X10116560Y1712928D01*
X9996085Y1711251D01*
G36*
X15214857Y1705807D02*
G01*
X15071179Y1692728D01*
X14946712Y1672010D01*
X14890750Y1657908D01*
X14875632Y1648780D01*
X14866157Y1627556D01*
X14861081Y1587256D01*
X14859164Y1520901D01*
X14859000Y1479495D01*
X14859000Y1310434D01*
X14988479Y1344428D01*
X15142829Y1376653D01*
X15289597Y1391440D01*
X15422922Y1388980D01*
X15536944Y1369462D01*
X15625802Y1333075D01*
X15640604Y1323388D01*
X15691707Y1266373D01*
X15716019Y1193423D01*
X15710298Y1116210D01*
X15703508Y1096916D01*
X15682556Y1060974D01*
X15648298Y1026703D01*
X15596509Y991646D01*
X15522962Y953344D01*
X15423430Y909342D01*
X15293688Y857182D01*
X15285979Y854178D01*
X15189850Y814634D01*
X15096811Y772595D01*
X15016836Y732803D01*
X14959900Y700001D01*
X14955325Y696923D01*
X14850082Y604154D01*
X14774808Y493815D01*
X14730420Y370082D01*
X14717839Y237131D01*
X14737985Y99137D01*
X14791776Y-39725D01*
X14792690Y-41496D01*
X14872446Y-156705D01*
X14980768Y-249857D01*
X15117005Y-320412D01*
X15140214Y-329160D01*
X15217882Y-348797D01*
X15322803Y-363516D01*
X15446253Y-373119D01*
X15579508Y-377407D01*
X15713842Y-376181D01*
X15840532Y-369242D01*
X15950854Y-356391D01*
X15992928Y-348606D01*
X16138071Y-317500D01*
X16143242Y-131536D01*
X16144654Y-54370D01*
X16144383Y7159D01*
X16142549Y45473D01*
X16140323Y54429D01*
X16120518Y49936D01*
X16073515Y37816D01*
X16007090Y20102D01*
X15953724Y5606D01*
X15859084Y-18068D01*
X15774896Y-33015D01*
X15686468Y-41087D01*
X15579106Y-44134D01*
X15557500Y-44287D01*
X15461403Y-44011D01*
X15392978Y-41296D01*
X15343631Y-34979D01*
X15304771Y-23893D01*
X15267805Y-6873D01*
X15263052Y-4357D01*
X15188266Y52007D01*
X15144862Y120615D01*
X15132614Y195892D01*
X15151296Y272263D01*
X15200682Y344151D01*
X15279684Y405483D01*
X15329335Y430725D01*
X15402327Y463367D01*
X15487794Y498701D01*
X15554199Y524382D01*
X15689818Y577596D01*
X15796106Y625556D01*
X15878989Y671585D01*
X15944390Y719010D01*
X15998237Y771156D01*
X16002550Y776002D01*
X16073482Y882012D01*
X16115478Y1001018D01*
X16129392Y1126513D01*
X16116081Y1251993D01*
X16076401Y1370954D01*
X16011206Y1476891D01*
X15921354Y1563298D01*
X15896779Y1580050D01*
X15784408Y1639883D01*
X15663336Y1680122D01*
X15525143Y1702834D01*
X15367000Y1710070D01*
X15214857Y1705807D01*
G37*
X15214857Y1705807D02*
X15071179Y1692728D01*
X14946712Y1672010D01*
X14890750Y1657908D01*
X14875632Y1648780D01*
X14866157Y1627556D01*
X14861081Y1587256D01*
X14859164Y1520901D01*
X14859000Y1479495D01*
X14859000Y1310434D01*
X14988479Y1344428D01*
X15142829Y1376653D01*
X15289597Y1391440D01*
X15422922Y1388980D01*
X15536944Y1369462D01*
X15625802Y1333075D01*
X15640604Y1323388D01*
X15691707Y1266373D01*
X15716019Y1193423D01*
X15710298Y1116210D01*
X15703508Y1096916D01*
X15682556Y1060974D01*
X15648298Y1026703D01*
X15596509Y991646D01*
X15522962Y953344D01*
X15423430Y909342D01*
X15293688Y857182D01*
X15285979Y854178D01*
X15189850Y814634D01*
X15096811Y772595D01*
X15016836Y732803D01*
X14959900Y700001D01*
X14955325Y696923D01*
X14850082Y604154D01*
X14774808Y493815D01*
X14730420Y370082D01*
X14717839Y237131D01*
X14737985Y99137D01*
X14791776Y-39725D01*
X14792690Y-41496D01*
X14872446Y-156705D01*
X14980768Y-249857D01*
X15117005Y-320412D01*
X15140214Y-329160D01*
X15217882Y-348797D01*
X15322803Y-363516D01*
X15446253Y-373119D01*
X15579508Y-377407D01*
X15713842Y-376181D01*
X15840532Y-369242D01*
X15950854Y-356391D01*
X15992928Y-348606D01*
X16138071Y-317500D01*
X16143242Y-131536D01*
X16144654Y-54370D01*
X16144383Y7159D01*
X16142549Y45473D01*
X16140323Y54429D01*
X16120518Y49936D01*
X16073515Y37816D01*
X16007090Y20102D01*
X15953724Y5606D01*
X15859084Y-18068D01*
X15774896Y-33015D01*
X15686468Y-41087D01*
X15579106Y-44134D01*
X15557500Y-44287D01*
X15461403Y-44011D01*
X15392978Y-41296D01*
X15343631Y-34979D01*
X15304771Y-23893D01*
X15267805Y-6873D01*
X15263052Y-4357D01*
X15188266Y52007D01*
X15144862Y120615D01*
X15132614Y195892D01*
X15151296Y272263D01*
X15200682Y344151D01*
X15279684Y405483D01*
X15329335Y430725D01*
X15402327Y463367D01*
X15487794Y498701D01*
X15554199Y524382D01*
X15689818Y577596D01*
X15796106Y625556D01*
X15878989Y671585D01*
X15944390Y719010D01*
X15998237Y771156D01*
X16002550Y776002D01*
X16073482Y882012D01*
X16115478Y1001018D01*
X16129392Y1126513D01*
X16116081Y1251993D01*
X16076401Y1370954D01*
X16011206Y1476891D01*
X15921354Y1563298D01*
X15896779Y1580050D01*
X15784408Y1639883D01*
X15663336Y1680122D01*
X15525143Y1702834D01*
X15367000Y1710070D01*
X15214857Y1705807D01*
G36*
X17354277Y99189D02*
G01*
X17194254Y39900D01*
X17051755Y-47617D01*
X16929349Y-159056D01*
X16829603Y-290109D01*
X16755084Y-436472D01*
X16708360Y-593838D01*
X16691998Y-757900D01*
X16708566Y-924354D01*
X16718492Y-967136D01*
X16779731Y-1134162D01*
X16869283Y-1281779D01*
X16983340Y-1407452D01*
X17118092Y-1508649D01*
X17269730Y-1582835D01*
X17434445Y-1627476D01*
X17608427Y-1640038D01*
X17716500Y-1631007D01*
X17846009Y-1598313D01*
X17979808Y-1539804D01*
X18105704Y-1461994D01*
X18211503Y-1371393D01*
X18220636Y-1361743D01*
X18328370Y-1220630D01*
X18405685Y-1065056D01*
X18450978Y-900018D01*
X18462643Y-730513D01*
X18453848Y-635227D01*
X18410883Y-464850D01*
X18338629Y-310984D01*
X18240853Y-176148D01*
X18121325Y-62857D01*
X17983813Y26370D01*
X17832087Y89017D01*
X17669915Y122566D01*
X17501066Y124499D01*
X17354277Y99189D01*
G37*
X17354277Y99189D02*
X17194254Y39900D01*
X17051755Y-47617D01*
X16929349Y-159056D01*
X16829603Y-290109D01*
X16755084Y-436472D01*
X16708360Y-593838D01*
X16691998Y-757900D01*
X16708566Y-924354D01*
X16718492Y-967136D01*
X16779731Y-1134162D01*
X16869283Y-1281779D01*
X16983340Y-1407452D01*
X17118092Y-1508649D01*
X17269730Y-1582835D01*
X17434445Y-1627476D01*
X17608427Y-1640038D01*
X17716500Y-1631007D01*
X17846009Y-1598313D01*
X17979808Y-1539804D01*
X18105704Y-1461994D01*
X18211503Y-1371393D01*
X18220636Y-1361743D01*
X18328370Y-1220630D01*
X18405685Y-1065056D01*
X18450978Y-900018D01*
X18462643Y-730513D01*
X18453848Y-635227D01*
X18410883Y-464850D01*
X18338629Y-310984D01*
X18240853Y-176148D01*
X18121325Y-62857D01*
X17983813Y26370D01*
X17832087Y89017D01*
X17669915Y122566D01*
X17501066Y124499D01*
X17354277Y99189D01*
G36*
X7350672Y-674983D02*
G01*
X7281424Y-684029D01*
X7252607Y-690382D01*
X7211842Y-703675D01*
X7191839Y-721520D01*
X7185210Y-755532D01*
X7184571Y-797363D01*
X7184571Y-885449D01*
X7269098Y-860010D01*
X7390382Y-836596D01*
X7493020Y-844081D01*
X7575751Y-881510D01*
X7637312Y-947932D01*
X7676440Y-1042394D01*
X7691874Y-1163943D01*
X7692072Y-1179285D01*
X7686375Y-1292356D01*
X7667163Y-1378300D01*
X7632229Y-1444468D01*
X7602373Y-1478148D01*
X7534987Y-1519547D01*
X7447147Y-1539668D01*
X7348599Y-1537346D01*
X7267492Y-1518170D01*
X7184571Y-1489917D01*
X7184571Y-1664835D01*
X7265177Y-1685132D01*
X7334955Y-1696892D01*
X7419467Y-1702842D01*
X7506192Y-1702976D01*
X7582611Y-1697293D01*
X7636203Y-1685787D01*
X7637601Y-1685243D01*
X7737472Y-1626823D01*
X7813898Y-1541557D01*
X7865576Y-1431347D01*
X7889232Y-1318069D01*
X7894870Y-1156156D01*
X7873863Y-1014349D01*
X7827541Y-894491D01*
X7757234Y-798427D01*
X7664273Y-727999D01*
X7549989Y-685052D01*
X7422683Y-671387D01*
X7350672Y-674983D01*
G37*
X7350672Y-674983D02*
X7281424Y-684029D01*
X7252607Y-690382D01*
X7211842Y-703675D01*
X7191839Y-721520D01*
X7185210Y-755532D01*
X7184571Y-797363D01*
X7184571Y-885449D01*
X7269098Y-860010D01*
X7390382Y-836596D01*
X7493020Y-844081D01*
X7575751Y-881510D01*
X7637312Y-947932D01*
X7676440Y-1042394D01*
X7691874Y-1163943D01*
X7692072Y-1179285D01*
X7686375Y-1292356D01*
X7667163Y-1378300D01*
X7632229Y-1444468D01*
X7602373Y-1478148D01*
X7534987Y-1519547D01*
X7447147Y-1539668D01*
X7348599Y-1537346D01*
X7267492Y-1518170D01*
X7184571Y-1489917D01*
X7184571Y-1664835D01*
X7265177Y-1685132D01*
X7334955Y-1696892D01*
X7419467Y-1702842D01*
X7506192Y-1702976D01*
X7582611Y-1697293D01*
X7636203Y-1685787D01*
X7637601Y-1685243D01*
X7737472Y-1626823D01*
X7813898Y-1541557D01*
X7865576Y-1431347D01*
X7889232Y-1318069D01*
X7894870Y-1156156D01*
X7873863Y-1014349D01*
X7827541Y-894491D01*
X7757234Y-798427D01*
X7664273Y-727999D01*
X7549989Y-685052D01*
X7422683Y-671387D01*
X7350672Y-674983D01*
G36*
X8091714Y-834571D02*
G01*
X8309429Y-834571D01*
X8309429Y-1542143D01*
X8091714Y-1542143D01*
X8091714Y-1705428D01*
X8726714Y-1705428D01*
X8726714Y-1542143D01*
X8509000Y-1542143D01*
X8509000Y-834571D01*
X8726714Y-834571D01*
X8726714Y-689428D01*
X8091714Y-689428D01*
X8091714Y-834571D01*
G37*
X8091714Y-834571D02*
X8309429Y-834571D01*
X8309429Y-1542143D01*
X8091714Y-1542143D01*
X8091714Y-1705428D01*
X8726714Y-1705428D01*
X8726714Y-1542143D01*
X8509000Y-1542143D01*
X8509000Y-834571D01*
X8726714Y-834571D01*
X8726714Y-689428D01*
X8091714Y-689428D01*
X8091714Y-834571D01*
G36*
X9292336Y-977610D02*
G01*
X9247145Y-1077569D01*
X9204860Y-1171102D01*
X9168719Y-1251046D01*
X9141962Y-1310235D01*
X9130346Y-1335932D01*
X9119517Y-1359038D01*
X9111414Y-1371173D01*
X9105555Y-1368550D01*
X9101461Y-1347379D01*
X9098648Y-1303873D01*
X9096635Y-1234243D01*
X9094942Y-1134702D01*
X9093724Y-1047750D01*
X9088804Y-689428D01*
X8926286Y-689428D01*
X8926286Y-1707160D01*
X9039182Y-1701758D01*
X9152078Y-1696357D01*
X9283878Y-1406071D01*
X9329437Y-1305606D01*
X9372080Y-1211351D01*
X9408563Y-1130490D01*
X9435645Y-1070205D01*
X9447660Y-1043214D01*
X9479643Y-970643D01*
X9484554Y-1338035D01*
X9489466Y-1705428D01*
X9652000Y-1705428D01*
X9652000Y-689428D01*
X9422623Y-689428D01*
X9292336Y-977610D01*
G37*
X9292336Y-977610D02*
X9247145Y-1077569D01*
X9204860Y-1171102D01*
X9168719Y-1251046D01*
X9141962Y-1310235D01*
X9130346Y-1335932D01*
X9119517Y-1359038D01*
X9111414Y-1371173D01*
X9105555Y-1368550D01*
X9101461Y-1347379D01*
X9098648Y-1303873D01*
X9096635Y-1234243D01*
X9094942Y-1134702D01*
X9093724Y-1047750D01*
X9088804Y-689428D01*
X8926286Y-689428D01*
X8926286Y-1707160D01*
X9039182Y-1701758D01*
X9152078Y-1696357D01*
X9283878Y-1406071D01*
X9329437Y-1305606D01*
X9372080Y-1211351D01*
X9408563Y-1130490D01*
X9435645Y-1070205D01*
X9447660Y-1043214D01*
X9479643Y-970643D01*
X9484554Y-1338035D01*
X9489466Y-1705428D01*
X9652000Y-1705428D01*
X9652000Y-689428D01*
X9422623Y-689428D01*
X9292336Y-977610D01*
G36*
X11171464Y-689827D02*
G01*
X11068214Y-691172D01*
X10992895Y-695425D01*
X10937202Y-703555D01*
X10892833Y-716535D01*
X10873310Y-724687D01*
X10799383Y-775698D01*
X10753617Y-849133D01*
X10735651Y-945629D01*
X10735366Y-968084D01*
X10749554Y-1058163D01*
X10791797Y-1127513D01*
X10865337Y-1181215D01*
X10874410Y-1185856D01*
X10916321Y-1207787D01*
X10929522Y-1221925D01*
X10917830Y-1236559D01*
X10902763Y-1247408D01*
X10883305Y-1271238D01*
X10852642Y-1319981D01*
X10814968Y-1385691D01*
X10774478Y-1460425D01*
X10735364Y-1536237D01*
X10701822Y-1605184D01*
X10678043Y-1659320D01*
X10668223Y-1690702D01*
X10668167Y-1691821D01*
X10684521Y-1699125D01*
X10727054Y-1704064D01*
X10772520Y-1705428D01*
X10877040Y-1705428D01*
X10954656Y-1526172D01*
X10998645Y-1429235D01*
X11035248Y-1361613D01*
X11068582Y-1318207D01*
X11102762Y-1293916D01*
X11141905Y-1283641D01*
X11151119Y-1282788D01*
X11203214Y-1279071D01*
X11208326Y-1492250D01*
X11213437Y-1705428D01*
X11393714Y-1705428D01*
X11393714Y-834571D01*
X11212286Y-834571D01*
X11212286Y-1124857D01*
X11120933Y-1124857D01*
X11053283Y-1118723D01*
X10998111Y-1102832D01*
X10986010Y-1096309D01*
X10944660Y-1049289D01*
X10928008Y-985575D01*
X10938098Y-921592D01*
X10973154Y-878065D01*
X11036478Y-848317D01*
X11121794Y-835023D01*
X11142422Y-834571D01*
X11212286Y-834571D01*
X11393714Y-834571D01*
X11393714Y-689428D01*
X11171464Y-689827D01*
G37*
X11171464Y-689827D02*
X11068214Y-691172D01*
X10992895Y-695425D01*
X10937202Y-703555D01*
X10892833Y-716535D01*
X10873310Y-724687D01*
X10799383Y-775698D01*
X10753617Y-849133D01*
X10735651Y-945629D01*
X10735366Y-968084D01*
X10749554Y-1058163D01*
X10791797Y-1127513D01*
X10865337Y-1181215D01*
X10874410Y-1185856D01*
X10916321Y-1207787D01*
X10929522Y-1221925D01*
X10917830Y-1236559D01*
X10902763Y-1247408D01*
X10883305Y-1271238D01*
X10852642Y-1319981D01*
X10814968Y-1385691D01*
X10774478Y-1460425D01*
X10735364Y-1536237D01*
X10701822Y-1605184D01*
X10678043Y-1659320D01*
X10668223Y-1690702D01*
X10668167Y-1691821D01*
X10684521Y-1699125D01*
X10727054Y-1704064D01*
X10772520Y-1705428D01*
X10877040Y-1705428D01*
X10954656Y-1526172D01*
X10998645Y-1429235D01*
X11035248Y-1361613D01*
X11068582Y-1318207D01*
X11102762Y-1293916D01*
X11141905Y-1283641D01*
X11151119Y-1282788D01*
X11203214Y-1279071D01*
X11208326Y-1492250D01*
X11213437Y-1705428D01*
X11393714Y-1705428D01*
X11393714Y-834571D01*
X11212286Y-834571D01*
X11212286Y-1124857D01*
X11120933Y-1124857D01*
X11053283Y-1118723D01*
X10998111Y-1102832D01*
X10986010Y-1096309D01*
X10944660Y-1049289D01*
X10928008Y-985575D01*
X10938098Y-921592D01*
X10973154Y-878065D01*
X11036478Y-848317D01*
X11121794Y-835023D01*
X11142422Y-834571D01*
X11212286Y-834571D01*
X11393714Y-834571D01*
X11393714Y-689428D01*
X11171464Y-689827D01*
G36*
X11557000Y-834571D02*
G01*
X11847286Y-834571D01*
X11847286Y-1705428D01*
X12028714Y-1705428D01*
X12028714Y-834571D01*
X12319000Y-834571D01*
X12319000Y-689428D01*
X11557000Y-689428D01*
X11557000Y-834571D01*
G37*
X11557000Y-834571D02*
X11847286Y-834571D01*
X11847286Y-1705428D01*
X12028714Y-1705428D01*
X12028714Y-834571D01*
X12319000Y-834571D01*
X12319000Y-689428D01*
X11557000Y-689428D01*
X11557000Y-834571D01*
G36*
X12563929Y-684225D02*
G01*
X12521456Y-695017D01*
X12499326Y-710607D01*
X12489914Y-741722D01*
X12485890Y-794006D01*
X12480422Y-888048D01*
X12556206Y-861309D01*
X12668843Y-835765D01*
X12769548Y-841426D01*
X12854999Y-877372D01*
X12921871Y-942685D01*
X12937187Y-966764D01*
X12959724Y-1012367D01*
X12972936Y-1059048D01*
X12979057Y-1118746D01*
X12980341Y-1197428D01*
X12974541Y-1308180D01*
X12956030Y-1390813D01*
X12922131Y-1452077D01*
X12870173Y-1498721D01*
X12857869Y-1506591D01*
X12782307Y-1534352D01*
X12689068Y-1540912D01*
X12590180Y-1525908D01*
X12557138Y-1515733D01*
X12482286Y-1489324D01*
X12482286Y-1576361D01*
X12483880Y-1629222D01*
X12493837Y-1657755D01*
X12519915Y-1673912D01*
X12552426Y-1684414D01*
X12607788Y-1695368D01*
X12682134Y-1702970D01*
X12749926Y-1705428D01*
X12831205Y-1702117D01*
X12894148Y-1689560D01*
X12956316Y-1663820D01*
X12972516Y-1655535D01*
X13038437Y-1614295D01*
X13086879Y-1564306D01*
X13124266Y-1505857D01*
X13149811Y-1458441D01*
X13166228Y-1418003D01*
X13175523Y-1374240D01*
X13179702Y-1316852D01*
X13180769Y-1235539D01*
X13180786Y-1215571D01*
X13174034Y-1077778D01*
X13152436Y-967166D01*
X13113980Y-876975D01*
X13057435Y-801282D01*
X12980817Y-742711D01*
X12880264Y-700279D01*
X12765377Y-676260D01*
X12645756Y-672933D01*
X12563929Y-684225D01*
G37*
X12563929Y-684225D02*
X12521456Y-695017D01*
X12499326Y-710607D01*
X12489914Y-741722D01*
X12485890Y-794006D01*
X12480422Y-888048D01*
X12556206Y-861309D01*
X12668843Y-835765D01*
X12769548Y-841426D01*
X12854999Y-877372D01*
X12921871Y-942685D01*
X12937187Y-966764D01*
X12959724Y-1012367D01*
X12972936Y-1059048D01*
X12979057Y-1118746D01*
X12980341Y-1197428D01*
X12974541Y-1308180D01*
X12956030Y-1390813D01*
X12922131Y-1452077D01*
X12870173Y-1498721D01*
X12857869Y-1506591D01*
X12782307Y-1534352D01*
X12689068Y-1540912D01*
X12590180Y-1525908D01*
X12557138Y-1515733D01*
X12482286Y-1489324D01*
X12482286Y-1576361D01*
X12483880Y-1629222D01*
X12493837Y-1657755D01*
X12519915Y-1673912D01*
X12552426Y-1684414D01*
X12607788Y-1695368D01*
X12682134Y-1702970D01*
X12749926Y-1705428D01*
X12831205Y-1702117D01*
X12894148Y-1689560D01*
X12956316Y-1663820D01*
X12972516Y-1655535D01*
X13038437Y-1614295D01*
X13086879Y-1564306D01*
X13124266Y-1505857D01*
X13149811Y-1458441D01*
X13166228Y-1418003D01*
X13175523Y-1374240D01*
X13179702Y-1316852D01*
X13180769Y-1235539D01*
X13180786Y-1215571D01*
X13174034Y-1077778D01*
X13152436Y-967166D01*
X13113980Y-876975D01*
X13057435Y-801282D01*
X12980817Y-742711D01*
X12880264Y-700279D01*
X12765377Y-676260D01*
X12645756Y-672933D01*
X12563929Y-684225D01*
G36*
X13389429Y-834571D02*
G01*
X13806714Y-834571D01*
X13806714Y-1106714D01*
X13407571Y-1106714D01*
X13407571Y-1251857D01*
X13806714Y-1251857D01*
X13806714Y-1542143D01*
X13389429Y-1542143D01*
X13389429Y-1705428D01*
X13988143Y-1705428D01*
X13988143Y-689428D01*
X13389429Y-689428D01*
X13389429Y-834571D01*
G37*
X13389429Y-834571D02*
X13806714Y-834571D01*
X13806714Y-1106714D01*
X13407571Y-1106714D01*
X13407571Y-1251857D01*
X13806714Y-1251857D01*
X13806714Y-1542143D01*
X13389429Y-1542143D01*
X13389429Y-1705428D01*
X13988143Y-1705428D01*
X13988143Y-689428D01*
X13389429Y-689428D01*
X13389429Y-834571D01*
G36*
X14677571Y-1542143D02*
G01*
X14242143Y-1542143D01*
X14242143Y-1705428D01*
X14859000Y-1705428D01*
X14859000Y-689428D01*
X14677571Y-689428D01*
X14677571Y-1542143D01*
G37*
X14677571Y-1542143D02*
X14242143Y-1542143D01*
X14242143Y-1705428D01*
X14859000Y-1705428D01*
X14859000Y-689428D01*
X14677571Y-689428D01*
X14677571Y-1542143D01*
G36*
X15149286Y-834571D02*
G01*
X15566571Y-834571D01*
X15566571Y-1106714D01*
X15167428Y-1106714D01*
X15167428Y-1251857D01*
X15566571Y-1251857D01*
X15566571Y-1542143D01*
X15149286Y-1542143D01*
X15149286Y-1705428D01*
X15445619Y-1705428D01*
X15545840Y-1704723D01*
X15633078Y-1702771D01*
X15700991Y-1699822D01*
X15743239Y-1696125D01*
X15754048Y-1693333D01*
X15757224Y-1672696D01*
X15760088Y-1620572D01*
X15762527Y-1541759D01*
X15764424Y-1441055D01*
X15765667Y-1323259D01*
X15766141Y-1193168D01*
X15766143Y-1185333D01*
X15766143Y-689428D01*
X15149286Y-689428D01*
X15149286Y-834571D01*
G37*
X15149286Y-834571D02*
X15566571Y-834571D01*
X15566571Y-1106714D01*
X15167428Y-1106714D01*
X15167428Y-1251857D01*
X15566571Y-1251857D01*
X15566571Y-1542143D01*
X15149286Y-1542143D01*
X15149286Y-1705428D01*
X15445619Y-1705428D01*
X15545840Y-1704723D01*
X15633078Y-1702771D01*
X15700991Y-1699822D01*
X15743239Y-1696125D01*
X15754048Y-1693333D01*
X15757224Y-1672696D01*
X15760088Y-1620572D01*
X15762527Y-1541759D01*
X15764424Y-1441055D01*
X15765667Y-1323259D01*
X15766141Y-1193168D01*
X15766143Y-1185333D01*
X15766143Y-689428D01*
X15149286Y-689428D01*
X15149286Y-834571D01*
G36*
X6468385Y-679515D02*
G01*
X6368143Y-692039D01*
X6368143Y-868324D01*
X6427107Y-850712D01*
X6487504Y-838733D01*
X6560152Y-832858D01*
X6633585Y-832979D01*
X6696335Y-838986D01*
X6736936Y-850769D01*
X6741282Y-853719D01*
X6784203Y-899563D01*
X6796727Y-942541D01*
X6777640Y-984521D01*
X6725732Y-1027372D01*
X6639789Y-1072963D01*
X6583072Y-1097619D01*
X6470658Y-1149627D01*
X6390122Y-1200742D01*
X6337323Y-1254485D01*
X6308123Y-1314376D01*
X6303012Y-1335813D01*
X6298638Y-1443140D01*
X6326620Y-1537143D01*
X6385157Y-1614117D01*
X6463519Y-1666265D01*
X6520466Y-1685773D01*
X6596368Y-1702232D01*
X6677808Y-1713746D01*
X6751368Y-1718416D01*
X6803571Y-1714360D01*
X6837203Y-1708110D01*
X6890677Y-1699989D01*
X6916964Y-1696398D01*
X7003143Y-1685062D01*
X7003143Y-1593493D01*
X7002220Y-1539737D01*
X6996069Y-1514241D01*
X6979619Y-1508980D01*
X6953250Y-1514550D01*
X6806951Y-1543988D01*
X6688615Y-1551056D01*
X6597618Y-1535734D01*
X6535964Y-1500453D01*
X6500464Y-1454466D01*
X6497421Y-1409491D01*
X6527702Y-1364354D01*
X6592171Y-1317879D01*
X6691694Y-1268892D01*
X6713343Y-1259740D01*
X6825203Y-1207053D01*
X6905313Y-1153370D01*
X6958075Y-1094598D01*
X6987890Y-1026641D01*
X6993909Y-998817D01*
X6991542Y-911459D01*
X6959430Y-826777D01*
X6903169Y-755666D01*
X6849883Y-718491D01*
X6765422Y-689729D01*
X6657447Y-674352D01*
X6536583Y-673444D01*
X6468385Y-679515D01*
G37*
X6468385Y-679515D02*
X6368143Y-692039D01*
X6368143Y-868324D01*
X6427107Y-850712D01*
X6487504Y-838733D01*
X6560152Y-832858D01*
X6633585Y-832979D01*
X6696335Y-838986D01*
X6736936Y-850769D01*
X6741282Y-853719D01*
X6784203Y-899563D01*
X6796727Y-942541D01*
X6777640Y-984521D01*
X6725732Y-1027372D01*
X6639789Y-1072963D01*
X6583072Y-1097619D01*
X6470658Y-1149627D01*
X6390122Y-1200742D01*
X6337323Y-1254485D01*
X6308123Y-1314376D01*
X6303012Y-1335813D01*
X6298638Y-1443140D01*
X6326620Y-1537143D01*
X6385157Y-1614117D01*
X6463519Y-1666265D01*
X6520466Y-1685773D01*
X6596368Y-1702232D01*
X6677808Y-1713746D01*
X6751368Y-1718416D01*
X6803571Y-1714360D01*
X6837203Y-1708110D01*
X6890677Y-1699989D01*
X6916964Y-1696398D01*
X7003143Y-1685062D01*
X7003143Y-1593493D01*
X7002220Y-1539737D01*
X6996069Y-1514241D01*
X6979619Y-1508980D01*
X6953250Y-1514550D01*
X6806951Y-1543988D01*
X6688615Y-1551056D01*
X6597618Y-1535734D01*
X6535964Y-1500453D01*
X6500464Y-1454466D01*
X6497421Y-1409491D01*
X6527702Y-1364354D01*
X6592171Y-1317879D01*
X6691694Y-1268892D01*
X6713343Y-1259740D01*
X6825203Y-1207053D01*
X6905313Y-1153370D01*
X6958075Y-1094598D01*
X6987890Y-1026641D01*
X6993909Y-998817D01*
X6991542Y-911459D01*
X6959430Y-826777D01*
X6903169Y-755666D01*
X6849883Y-718491D01*
X6765422Y-689729D01*
X6657447Y-674352D01*
X6536583Y-673444D01*
X6468385Y-679515D01*
G36*
X10034901Y-686707D02*
G01*
X9941316Y-730951D01*
X9867682Y-804852D01*
X9813612Y-908847D01*
X9778722Y-1043371D01*
X9770791Y-1099284D01*
X9766589Y-1244746D01*
X9787453Y-1377667D01*
X9831233Y-1493936D01*
X9895779Y-1589443D01*
X9978939Y-1660076D01*
X10078564Y-1701724D01*
X10086891Y-1703618D01*
X10149301Y-1716122D01*
X10191890Y-1720558D01*
X10230159Y-1717169D01*
X10277928Y-1706606D01*
X10378313Y-1670526D01*
X10455576Y-1614973D01*
X10511813Y-1536709D01*
X10549116Y-1432498D01*
X10569581Y-1299100D01*
X10572867Y-1250680D01*
X10572928Y-1209792D01*
X10377636Y-1209792D01*
X10373895Y-1304676D01*
X10362873Y-1384319D01*
X10358845Y-1400710D01*
X10323750Y-1469872D01*
X10267994Y-1518089D01*
X10200242Y-1542744D01*
X10129165Y-1541223D01*
X10063427Y-1510908D01*
X10045520Y-1495287D01*
X10009147Y-1438179D01*
X9982947Y-1355847D01*
X9967626Y-1258091D01*
X9963884Y-1154713D01*
X9972425Y-1055517D01*
X9993952Y-970304D01*
X10005939Y-943133D01*
X10056359Y-878389D01*
X10120345Y-842511D01*
X10190036Y-835083D01*
X10257569Y-855691D01*
X10315082Y-903916D01*
X10348251Y-961241D01*
X10364507Y-1025320D01*
X10374404Y-1112422D01*
X10377636Y-1209792D01*
X10572928Y-1209792D01*
X10573084Y-1106364D01*
X10556137Y-988513D01*
X10520324Y-890768D01*
X10463943Y-806769D01*
X10449838Y-790830D01*
X10372386Y-724925D01*
X10283218Y-686418D01*
X10173920Y-671977D01*
X10148824Y-671684D01*
X10034901Y-686707D01*
G37*
X10034901Y-686707D02*
X9941316Y-730951D01*
X9867682Y-804852D01*
X9813612Y-908847D01*
X9778722Y-1043371D01*
X9770791Y-1099284D01*
X9766589Y-1244746D01*
X9787453Y-1377667D01*
X9831233Y-1493936D01*
X9895779Y-1589443D01*
X9978939Y-1660076D01*
X10078564Y-1701724D01*
X10086891Y-1703618D01*
X10149301Y-1716122D01*
X10191890Y-1720558D01*
X10230159Y-1717169D01*
X10277928Y-1706606D01*
X10378313Y-1670526D01*
X10455576Y-1614973D01*
X10511813Y-1536709D01*
X10549116Y-1432498D01*
X10569581Y-1299100D01*
X10572867Y-1250680D01*
X10572928Y-1209792D01*
X10377636Y-1209792D01*
X10373895Y-1304676D01*
X10362873Y-1384319D01*
X10358845Y-1400710D01*
X10323750Y-1469872D01*
X10267994Y-1518089D01*
X10200242Y-1542744D01*
X10129165Y-1541223D01*
X10063427Y-1510908D01*
X10045520Y-1495287D01*
X10009147Y-1438179D01*
X9982947Y-1355847D01*
X9967626Y-1258091D01*
X9963884Y-1154713D01*
X9972425Y-1055517D01*
X9993952Y-970304D01*
X10005939Y-943133D01*
X10056359Y-878389D01*
X10120345Y-842511D01*
X10190036Y-835083D01*
X10257569Y-855691D01*
X10315082Y-903916D01*
X10348251Y-961241D01*
X10364507Y-1025320D01*
X10374404Y-1112422D01*
X10377636Y-1209792D01*
X10572928Y-1209792D01*
X10573084Y-1106364D01*
X10556137Y-988513D01*
X10520324Y-890768D01*
X10463943Y-806769D01*
X10449838Y-790830D01*
X10372386Y-724925D01*
X10283218Y-686418D01*
X10173920Y-671977D01*
X10148824Y-671684D01*
X10034901Y-686707D01*
G36*
X19182273Y1981412D02*
G01*
X19049738Y1964766D01*
X18959286Y1943480D01*
X18754190Y1862900D01*
X18572019Y1754988D01*
X18414296Y1621313D01*
X18282544Y1463447D01*
X18178287Y1282962D01*
X18103049Y1081428D01*
X18095092Y1052286D01*
X18074754Y938679D01*
X18065386Y805057D01*
X18066966Y665990D01*
X18079473Y536045D01*
X18095949Y453572D01*
X18151108Y294574D01*
X18230137Y134632D01*
X18324860Y-10172D01*
X18344331Y-35111D01*
X18434109Y-153563D01*
X18501023Y-259539D01*
X18550810Y-362895D01*
X18577391Y-435428D01*
X18619341Y-618651D01*
X18627165Y-801407D01*
X18602884Y-980040D01*
X18548519Y-1150896D01*
X18466088Y-1310320D01*
X18357613Y-1454655D01*
X18225113Y-1580248D01*
X18070609Y-1683442D01*
X17896120Y-1760583D01*
X17834428Y-1779719D01*
X17778820Y-1790071D01*
X17700654Y-1798112D01*
X17613645Y-1802581D01*
X17580428Y-1803082D01*
X17386440Y-1787303D01*
X17205797Y-1738181D01*
X17037048Y-1655132D01*
X16878743Y-1537567D01*
X16842922Y-1504888D01*
X16787536Y-1454377D01*
X16749078Y-1426540D01*
X16719276Y-1417940D01*
X16689858Y-1425142D01*
X16672093Y-1433924D01*
X16639184Y-1468509D01*
X16636047Y-1517659D01*
X16661656Y-1576757D01*
X16714984Y-1641182D01*
X16719050Y-1645124D01*
X16879138Y-1774303D01*
X17057650Y-1874910D01*
X17249484Y-1945349D01*
X17449538Y-1984023D01*
X17652707Y-1989338D01*
X17775690Y-1975567D01*
X17919841Y-1941576D01*
X18067924Y-1889455D01*
X18197286Y-1827677D01*
X18270917Y-1777621D01*
X18356502Y-1706071D01*
X18445555Y-1621510D01*
X18529588Y-1532424D01*
X18600112Y-1447297D01*
X18646283Y-1378857D01*
X18734559Y-1187026D01*
X18788691Y-987650D01*
X18809018Y-784478D01*
X18795881Y-581258D01*
X18749618Y-381737D01*
X18670569Y-189664D01*
X18559074Y-8787D01*
X18517218Y45357D01*
X18399653Y211442D01*
X18316715Y380001D01*
X18266791Y555392D01*
X18248271Y741976D01*
X18248117Y773539D01*
X18266794Y960328D01*
X18318290Y1139209D01*
X18399995Y1305294D01*
X18509296Y1453694D01*
X18643582Y1579520D01*
X18700449Y1620286D01*
X18797257Y1680933D01*
X18881598Y1723937D01*
X18968334Y1755523D01*
X19072326Y1781920D01*
X19100800Y1788028D01*
X19275216Y1806720D01*
X19454248Y1792965D01*
X19630997Y1748727D01*
X19798564Y1675966D01*
X19950049Y1576648D01*
X20003078Y1531325D01*
X20067624Y1473863D01*
X20113533Y1439302D01*
X20147212Y1424291D01*
X20175073Y1425478D01*
X20191771Y1432628D01*
X20230273Y1471151D01*
X20240960Y1522929D01*
X20230555Y1557914D01*
X20185132Y1617423D01*
X20112175Y1683538D01*
X20018739Y1751901D01*
X19911881Y1818156D01*
X19798655Y1877947D01*
X19686118Y1926916D01*
X19581326Y1960707D01*
X19576143Y1961986D01*
X19459782Y1980451D01*
X19323724Y1986783D01*
X19182273Y1981412D01*
G37*
X19182273Y1981412D02*
X19049738Y1964766D01*
X18959286Y1943480D01*
X18754190Y1862900D01*
X18572019Y1754988D01*
X18414296Y1621313D01*
X18282544Y1463447D01*
X18178287Y1282962D01*
X18103049Y1081428D01*
X18095092Y1052286D01*
X18074754Y938679D01*
X18065386Y805057D01*
X18066966Y665990D01*
X18079473Y536045D01*
X18095949Y453572D01*
X18151108Y294574D01*
X18230137Y134632D01*
X18324860Y-10172D01*
X18344331Y-35111D01*
X18434109Y-153563D01*
X18501023Y-259539D01*
X18550810Y-362895D01*
X18577391Y-435428D01*
X18619341Y-618651D01*
X18627165Y-801407D01*
X18602884Y-980040D01*
X18548519Y-1150896D01*
X18466088Y-1310320D01*
X18357613Y-1454655D01*
X18225113Y-1580248D01*
X18070609Y-1683442D01*
X17896120Y-1760583D01*
X17834428Y-1779719D01*
X17778820Y-1790071D01*
X17700654Y-1798112D01*
X17613645Y-1802581D01*
X17580428Y-1803082D01*
X17386440Y-1787303D01*
X17205797Y-1738181D01*
X17037048Y-1655132D01*
X16878743Y-1537567D01*
X16842922Y-1504888D01*
X16787536Y-1454377D01*
X16749078Y-1426540D01*
X16719276Y-1417940D01*
X16689858Y-1425142D01*
X16672093Y-1433924D01*
X16639184Y-1468509D01*
X16636047Y-1517659D01*
X16661656Y-1576757D01*
X16714984Y-1641182D01*
X16719050Y-1645124D01*
X16879138Y-1774303D01*
X17057650Y-1874910D01*
X17249484Y-1945349D01*
X17449538Y-1984023D01*
X17652707Y-1989338D01*
X17775690Y-1975567D01*
X17919841Y-1941576D01*
X18067924Y-1889455D01*
X18197286Y-1827677D01*
X18270917Y-1777621D01*
X18356502Y-1706071D01*
X18445555Y-1621510D01*
X18529588Y-1532424D01*
X18600112Y-1447297D01*
X18646283Y-1378857D01*
X18734559Y-1187026D01*
X18788691Y-987650D01*
X18809018Y-784478D01*
X18795881Y-581258D01*
X18749618Y-381737D01*
X18670569Y-189664D01*
X18559074Y-8787D01*
X18517218Y45357D01*
X18399653Y211442D01*
X18316715Y380001D01*
X18266791Y555392D01*
X18248271Y741976D01*
X18248117Y773539D01*
X18266794Y960328D01*
X18318290Y1139209D01*
X18399995Y1305294D01*
X18509296Y1453694D01*
X18643582Y1579520D01*
X18700449Y1620286D01*
X18797257Y1680933D01*
X18881598Y1723937D01*
X18968334Y1755523D01*
X19072326Y1781920D01*
X19100800Y1788028D01*
X19275216Y1806720D01*
X19454248Y1792965D01*
X19630997Y1748727D01*
X19798564Y1675966D01*
X19950049Y1576648D01*
X20003078Y1531325D01*
X20067624Y1473863D01*
X20113533Y1439302D01*
X20147212Y1424291D01*
X20175073Y1425478D01*
X20191771Y1432628D01*
X20230273Y1471151D01*
X20240960Y1522929D01*
X20230555Y1557914D01*
X20185132Y1617423D01*
X20112175Y1683538D01*
X20018739Y1751901D01*
X19911881Y1818156D01*
X19798655Y1877947D01*
X19686118Y1926916D01*
X19581326Y1960707D01*
X19576143Y1961986D01*
X19459782Y1980451D01*
X19323724Y1986783D01*
X19182273Y1981412D01*
%TD*%
%LPC*%
D14*
%TO.C,J5*%
X1195000Y8200000D03*
X5005000Y8200000D03*
%TD*%
D15*
%TO.C,J2*%
X19348000Y11182000D03*
X12148000Y11182000D03*
D16*
X18173000Y8382000D03*
X13323000Y8382000D03*
D15*
X12148000Y11182000D03*
%TD*%
D17*
%TO.C,J9*%
X40355000Y-7620000D03*
X37815000Y-5080000D03*
X37815000Y-7620000D03*
G36*
G01*
X36125000Y-8520000D02*
X34425000Y-8520000D01*
G75*
G02*
X34375000Y-8470000I0J50000D01*
G01*
X34375000Y-6770000D01*
G75*
G02*
X34425000Y-6720000I50000J0D01*
G01*
X36125000Y-6720000D01*
G75*
G02*
X36175000Y-6770000I0J-50000D01*
G01*
X36175000Y-8470000D01*
G75*
G02*
X36125000Y-8520000I-50000J0D01*
G01*
G37*
%TD*%
%TO.C,J8*%
X13280000Y-7620000D03*
X10740000Y-5080000D03*
X10740000Y-7620000D03*
G36*
G01*
X9050000Y-8520000D02*
X7350000Y-8520000D01*
G75*
G02*
X7300000Y-8470000I0J50000D01*
G01*
X7300000Y-6770000D01*
G75*
G02*
X7350000Y-6720000I50000J0D01*
G01*
X9050000Y-6720000D01*
G75*
G02*
X9100000Y-6770000I0J-50000D01*
G01*
X9100000Y-8470000D01*
G75*
G02*
X9050000Y-8520000I-50000J0D01*
G01*
G37*
%TD*%
%TO.C,Right1*%
X45720000Y-7620000D03*
X48260000Y-7620000D03*
X45720000Y-5080000D03*
X48260000Y-5080000D03*
X45720000Y-2540000D03*
X48260000Y-2540000D03*
X45720000Y0D03*
G36*
G01*
X49160000Y850000D02*
X49160000Y-850000D01*
G75*
G02*
X49110000Y-900000I-50000J0D01*
G01*
X47410000Y-900000D01*
G75*
G02*
X47360000Y-850000I0J50000D01*
G01*
X47360000Y850000D01*
G75*
G02*
X47410000Y900000I50000J0D01*
G01*
X49110000Y900000D01*
G75*
G02*
X49160000Y850000I0J-50000D01*
G01*
G37*
%TD*%
%TO.C,Left1*%
X0Y-7620000D03*
X2540000Y-7620000D03*
X0Y-5080000D03*
X2540000Y-5080000D03*
X0Y-2540000D03*
X2540000Y-2540000D03*
X0Y0D03*
G36*
G01*
X3440000Y850000D02*
X3440000Y-850000D01*
G75*
G02*
X3390000Y-900000I-50000J0D01*
G01*
X1690000Y-900000D01*
G75*
G02*
X1640000Y-850000I0J50000D01*
G01*
X1640000Y850000D01*
G75*
G02*
X1690000Y900000I50000J0D01*
G01*
X3390000Y900000D01*
G75*
G02*
X3440000Y850000I0J-50000D01*
G01*
G37*
%TD*%
M02*
