<?xml version="1.0" standalone="no"?>
 <!DOCTYPE svg PUBLIC "-//W3C//DTD SVG 1.1//EN" 
 "http://www.w3.org/Graphics/SVG/1.1/DTD/svg11.dtd"> 
<svg
  xmlns:svg="http://www.w3.org/2000/svg"
  xmlns="http://www.w3.org/2000/svg"
  xmlns:xlink="http://www.w3.org/1999/xlink"
  version="1.1"
  width="29.700220cm" height="21.000720cm" viewBox="0 0 116930 82680">
<title>SVG Picture created as MicroBBPS-B_SilkS.svg date 2021/02/24 21:51:50 </title>
  <desc>Picture generated by PCBNEW </desc>
<g style="fill:#000000; fill-opacity:1;stroke:#000000; stroke-opacity:1;
stroke-linecap:round; stroke-linejoin:round;"
 transform="translate(0 0) scale(1 1)">
</g>
<g style="fill:#000000; fill-opacity:0.0; 
stroke:#000000; stroke-width:-0.000393701; stroke-opacity:1; 
stroke-linecap:round; stroke-linejoin:round;">
</g>
<g style="fill:#000000; fill-opacity:0.0; 
stroke:#000000; stroke-width:19.685; stroke-opacity:1; 
stroke-linecap:round; stroke-linejoin:round;">
<path d="M7874 -1574
L14173 -1574
" />
</g>
<g style="fill:#000000; fill-opacity:0.0; 
stroke:#000000; stroke-width:39.3701; stroke-opacity:1; 
stroke-linecap:round; stroke-linejoin:round;">
<text x="18759.8" y="-35775.6"
transform="scale(-1 1) translate(-37519.685039 0)"
textLength="4060.51" font-size="524.934" lengthAdjust="spacingAndGlyphs"
text-anchor="middle" opacity="0">Order Number</text>
<path d="M20653 -36188
L20578 -36188
L20540 -36169
L20503 -36131
L20484 -36056
L20484 -35925
L20503 -35850
L20540 -35813
L20578 -35794
L20653 -35794
L20690 -35813
L20728 -35850
L20747 -35925
L20747 -36056
L20728 -36131
L20690 -36169
L20653 -36188
" />
<path d="M20315 -35794
L20315 -36056
" />
<path d="M20315 -35981
L20297 -36019
L20278 -36038
L20240 -36056
L20203 -36056
" />
<path d="M19903 -35794
L19903 -36188
" />
<path d="M19903 -35813
L19940 -35794
L20015 -35794
L20053 -35813
L20072 -35831
L20090 -35869
L20090 -35981
L20072 -36019
L20053 -36038
L20015 -36056
L19940 -36056
L19903 -36038
" />
<path d="M19565 -35813
L19603 -35794
L19678 -35794
L19715 -35813
L19734 -35850
L19734 -36000
L19715 -36038
L19678 -36056
L19603 -36056
L19565 -36038
L19547 -36000
L19547 -35963
L19734 -35925
" />
<path d="M19378 -35794
L19378 -36056
" />
<path d="M19378 -35981
L19359 -36019
L19341 -36038
L19303 -36056
L19266 -36056
" />
<path d="M18834 -35794
L18834 -36188
L18609 -35794
L18609 -36188
" />
<path d="M18253 -36056
L18253 -35794
" />
<path d="M18422 -36056
L18422 -35850
L18403 -35813
L18366 -35794
L18309 -35794
L18272 -35813
L18253 -35831
" />
<path d="M18066 -35794
L18066 -36056
" />
<path d="M18066 -36019
L18047 -36038
L18009 -36056
L17953 -36056
L17916 -36038
L17897 -36000
L17897 -35794
" />
<path d="M17897 -36000
L17878 -36038
L17841 -36056
L17784 -36056
L17747 -36038
L17728 -36000
L17728 -35794
" />
<path d="M17541 -35794
L17541 -36188
" />
<path d="M17541 -36038
L17503 -36056
L17428 -36056
L17391 -36038
L17372 -36019
L17353 -35981
L17353 -35869
L17372 -35831
L17391 -35813
L17428 -35794
L17503 -35794
L17541 -35813
" />
<path d="M17035 -35813
L17072 -35794
L17147 -35794
L17185 -35813
L17203 -35850
L17203 -36000
L17185 -36038
L17147 -36056
L17072 -36056
L17035 -36038
L17016 -36000
L17016 -35963
L17203 -35925
" />
<path d="M16847 -35794
L16847 -36056
" />
<path d="M16847 -35981
L16828 -36019
L16810 -36038
L16772 -36056
L16735 -36056
" />
</g>
<g style="fill:#000000; fill-opacity:0.0; 
stroke:#000000; stroke-width:59.0551; stroke-opacity:1; 
stroke-linecap:round; stroke-linejoin:round;">
<text x="18563" y="-34889.8"
transform="scale(-1 1) translate(-37125.984252 0)"
textLength="3998.31" font-size="524.934" lengthAdjust="spacingAndGlyphs"
text-anchor="middle" opacity="0">JLCJLCJLCJLC</text>
<path d="M20381 -35302
L20381 -35020
L20400 -34964
L20437 -34927
L20494 -34908
L20531 -34908
" />
<path d="M20006 -34908
L20194 -34908
L20194 -35302
" />
<path d="M19650 -34946
L19669 -34927
L19725 -34908
L19762 -34908
L19819 -34927
L19856 -34964
L19875 -35002
L19894 -35077
L19894 -35133
L19875 -35208
L19856 -35245
L19819 -35283
L19762 -35302
L19725 -35302
L19669 -35283
L19650 -35264
" />
<path d="M19369 -35302
L19369 -35020
L19387 -34964
L19425 -34927
L19481 -34908
L19519 -34908
" />
<path d="M18994 -34908
L19181 -34908
L19181 -35302
" />
<path d="M18637 -34946
L18656 -34927
L18712 -34908
L18750 -34908
L18806 -34927
L18844 -34964
L18862 -35002
L18881 -35077
L18881 -35133
L18862 -35208
L18844 -35245
L18806 -35283
L18750 -35302
L18712 -35302
L18656 -35283
L18637 -35264
" />
<path d="M18356 -35302
L18356 -35020
L18375 -34964
L18413 -34927
L18469 -34908
L18506 -34908
" />
<path d="M17981 -34908
L18169 -34908
L18169 -35302
" />
<path d="M17625 -34946
L17644 -34927
L17700 -34908
L17738 -34908
L17794 -34927
L17831 -34964
L17850 -35002
L17869 -35077
L17869 -35133
L17850 -35208
L17831 -35245
L17794 -35283
L17738 -35302
L17700 -35302
L17644 -35283
L17625 -35264
" />
<path d="M17344 -35302
L17344 -35020
L17363 -34964
L17400 -34927
L17456 -34908
L17494 -34908
" />
<path d="M16969 -34908
L17156 -34908
L17156 -35302
" />
<path d="M16613 -34946
L16631 -34927
L16688 -34908
L16725 -34908
L16781 -34927
L16819 -34964
L16838 -35002
L16856 -35077
L16856 -35133
L16838 -35208
L16819 -35245
L16781 -35283
L16725 -35302
L16688 -35302
L16631 -35283
L16613 -35264
" />
</g>
<g style="fill:#000000; fill-opacity:0.0; 
stroke:#000000; stroke-width:19.685; stroke-opacity:1; 
stroke-linecap:round; stroke-linejoin:round;">
<path d="M21259 -38188
L21259 -36220
" />
<path d="M20078 -39370
L21259 -38188
" />
<path d="M4724 -39370
L20078 -39370
" />
<path d="M787 -39370
L1574 -39370
" />
<path d="M0 -38582
L787 -39370
" />
<path d="M0 -37795
L0 -38582
" />
</g>
<g style="fill:#000000; fill-opacity:0.0; 
stroke:#000000; stroke-width:47.2441; stroke-opacity:1; 
stroke-linecap:round; stroke-linejoin:round;">
<path d="M20728 -34692
L20728 -35677
" />
</g>
<g style="fill:#000000; fill-opacity:0.0; 
stroke:#000000; stroke-width:19.685; stroke-opacity:1; 
stroke-linecap:round; stroke-linejoin:round;">
<path d="M15748 0
L19685 0
" />
<path d="M14173 -1574
L15748 0
" />
<path d="M6299 0
L7874 -1574
" />
<path d="M1181 0
L6299 0
" />
<path d="M21259 -1574
L19685 0
" />
<path d="M21259 -36220
L21259 -1574
" />
<path d="M1574 -39370
L4724 -39370
" />
<path d="M0 -1181
L0 -37795
" />
<path d="M1181 0
L0 -1181
" />
</g>
<g style="fill:#000000; fill-opacity:0.0; 
stroke:#000000; stroke-width:47.2441; stroke-opacity:1; 
stroke-linecap:round; stroke-linejoin:round;">
<path d="M2653 -30433
L606 -30433
" />
<path d="M2653 -33456
L2653 -30433
" />
<path d="M606 -34480
L606 -30433
" />
<path d="M2653 -33456
L1629 -33456
" />
<path d="M1629 -33456
L1629 -34480
" />
<path d="M1629 -34480
L606 -34480
" />
<path d="M2653 -33956
L2653 -34480
" />
<path d="M2653 -34480
L2129 -34480
" />
<path d="M20653 -30433
L18606 -30433
" />
<path d="M20653 -33456
L20653 -30433
" />
<path d="M18606 -34480
L18606 -30433
" />
<path d="M20653 -33456
L19629 -33456
" />
<path d="M19629 -33456
L19629 -34480
" />
<path d="M19629 -34480
L18606 -34480
" />
<path d="M20653 -33956
L20653 -34480
" />
<path d="M20653 -34480
L20129 -34480
" />
<g >
</g>
<g >
</g>
<g >
</g>
<g >
</g>
<g >
</g>
<g >
</g>
<g >
</g>
<g >
</g>
<g >
</g>
<g >
</g>
<g >
</g>
<g >
</g>
<g >
</g>
<g >
</g>
<g >
</g>
<g >
</g>
<g >
</g>
<g >
</g>
<g >
</g>
<g >
</g>
<g >
</g>
<g >
</g>
<g >
</g>
<g >
</g>
<g >
</g>
<g >
</g>
<g >
</g>
</g> 
</svg>
