<?xml version="1.0" standalone="no"?>
 <!DOCTYPE svg PUBLIC "-//W3C//DTD SVG 1.1//EN" 
 "http://www.w3.org/Graphics/SVG/1.1/DTD/svg11.dtd"> 
<svg
  xmlns:svg="http://www.w3.org/2000/svg"
  xmlns="http://www.w3.org/2000/svg"
  xmlns:xlink="http://www.w3.org/1999/xlink"
  version="1.1"
  width="29.700220cm" height="21.000720cm" viewBox="0 0 116930 82680">
<title>SVG Picture created as MicroBBPS-F_Mask.svg date 2021/03/20 13:56:42 </title>
  <desc>Picture generated by PCBNEW </desc>
<g style="fill:#000000; fill-opacity:1;stroke:#000000; stroke-opacity:1;
stroke-linecap:round; stroke-linejoin:round;"
 transform="translate(0 0) scale(1 1)">
</g>
<g style="fill:#000000; fill-opacity:0.0; 
stroke:#000000; stroke-width:-0.000393701; stroke-opacity:1; 
stroke-linecap:round; stroke-linejoin:round;">
</g>
<g style="fill:#000000; fill-opacity:0.0; 
stroke:#000000; stroke-width:78.7402; stroke-opacity:1; 
stroke-linecap:round; stroke-linejoin:round;">
<path d="M393 0
L0 0
" />
<path d="M0 0
L0 393
" />
</g>
<g style="fill:#000000; fill-opacity:0.0; 
stroke:#000000; stroke-width:19.685; stroke-opacity:1; 
stroke-linecap:round; stroke-linejoin:round;">
<path d="M20866 9448
L21259 9055
" />
<path d="M18503 9448
L20866 9448
" />
<path d="M18110 9055
L18503 9448
" />
<path d="M3149 9055
L18110 9055
" />
<path d="M2755 9448
L3149 9055
" />
<path d="M393 9448
L2755 9448
" />
<path d="M0 9055
L393 9448
" />
<path d="M4724 787
L3937 0
" />
<path d="M0 787
L787 0
" />
<path d="M0 9055
L0 787
" />
<path d="M21259 1574
L21259 9055
" />
<path d="M20472 787
L21259 1574
" />
<path d="M4724 787
L20472 787
" />
<path d="M787 0
L3937 0
" />
</g>
<g style="fill:#000000; fill-opacity:0.0; 
stroke:#000000; stroke-width:39.3701; stroke-opacity:1; 
stroke-linecap:round; stroke-linejoin:round;">
</g>
<g style="fill:#000000; fill-opacity:1.0; 
stroke:#000000; stroke-width:39.3701; stroke-opacity:1; 
stroke-linecap:round; stroke-linejoin:round;">
<path style="fill:#000000; fill-opacity:1.0; 
stroke:#000000; stroke-width:39.3701; stroke-opacity:1; 
stroke-linecap:round; stroke-linejoin:round;fill-rule:evenodd;"
d="M 83569.3,44222
83419.3,44372
83269.3,44222
83419.3,44072
Z" /> 
<path style="fill:#000000; fill-opacity:1.0; 
stroke:#000000; stroke-width:39.3701; stroke-opacity:1; 
stroke-linecap:round; stroke-linejoin:round;fill-rule:evenodd;"
d="M 83319.3,44472
83169.3,44622
83019.3,44472
83169.3,44322
Z" /> 
<path style="fill:#000000; fill-opacity:1.0; 
stroke:#000000; stroke-width:39.3701; stroke-opacity:1; 
stroke-linecap:round; stroke-linejoin:round;fill-rule:evenodd;"
d="M 83569.3,44722
83419.3,44872
83269.3,44722
83419.3,44572
Z" /> 
<path style="fill:#000000; fill-opacity:1.0; 
stroke:#000000; stroke-width:39.3701; stroke-opacity:1; 
stroke-linecap:round; stroke-linejoin:round;fill-rule:evenodd;"
d="M 83819.3,44472
83669.3,44622
83519.3,44472
83669.3,44322
Z" /> 
<path style="fill:#000000; fill-opacity:1.0; 
stroke:#000000; stroke-width:39.3701; stroke-opacity:1; 
stroke-linecap:round; stroke-linejoin:round;fill-rule:evenodd;"
d="M 83175.6,42972
83025.6,43122
82875.6,42972
83025.6,42822
Z" /> 
<path style="fill:#000000; fill-opacity:1.0; 
stroke:#000000; stroke-width:39.3701; stroke-opacity:1; 
stroke-linecap:round; stroke-linejoin:round;fill-rule:evenodd;"
d="M 83425.6,42722
83275.6,42872
83125.6,42722
83275.6,42572
Z" /> 
<path style="fill:#000000; fill-opacity:1.0; 
stroke:#000000; stroke-width:39.3701; stroke-opacity:1; 
stroke-linecap:round; stroke-linejoin:round;fill-rule:evenodd;"
d="M 82925.6,42722
82775.6,42872
82625.6,42722
82775.6,42572
Z" /> 
<path style="fill:#000000; fill-opacity:1.0; 
stroke:#000000; stroke-width:39.3701; stroke-opacity:1; 
stroke-linecap:round; stroke-linejoin:round;fill-rule:evenodd;"
d="M 83175.6,42472
83025.6,42622
82875.6,42472
83025.6,42322
Z" /> 
</g>
<g style="fill:#000000; fill-opacity:1.0; 
stroke:#000000; stroke-width:47.2441; stroke-opacity:1; 
stroke-linecap:round; stroke-linejoin:round;">
</g>
<g style="fill:#000000; fill-opacity:0.0; 
stroke:#000000; stroke-width:47.2441; stroke-opacity:1; 
stroke-linecap:round; stroke-linejoin:round;">
<path d="M7047 2145
L6496 2145
" />
</g>
<g style="fill:#000000; fill-opacity:1.0; 
stroke:#000000; stroke-width:39.3701; stroke-opacity:1; 
stroke-linecap:round; stroke-linejoin:round;">
<path style="fill:#000000; fill-opacity:1.0; 
stroke:#000000; stroke-width:39.3701; stroke-opacity:1; 
stroke-linecap:round; stroke-linejoin:round;fill-rule:evenodd;"
d="M 6496.06,1476.38
7047.24,1476.38
7047.24,2145.67
6496.06,2145.67
" /> 
</g>
<g style="fill:#000000; fill-opacity:1.0; 
stroke:#000000; stroke-width:47.2441; stroke-opacity:1; 
stroke-linecap:round; stroke-linejoin:round;">
</g>
<g style="fill:#000000; fill-opacity:0.0; 
stroke:#000000; stroke-width:47.2441; stroke-opacity:1; 
stroke-linecap:round; stroke-linejoin:round;">
<path d="M6496 2145
L6496 1476
" />
<path d="M7047 1476
L6496 1476
" />
</g>
<g style="fill:#000000; fill-opacity:1.0; 
stroke:#000000; stroke-width:39.3701; stroke-opacity:1; 
stroke-linecap:round; stroke-linejoin:round;">
<path style="fill:#000000; fill-opacity:1.0; 
stroke:#000000; stroke-width:39.3701; stroke-opacity:1; 
stroke-linecap:round; stroke-linejoin:round;fill-rule:evenodd;"
d="M 10433.1,2145.67
9881.89,2145.67
9881.89,1476.38
10433.1,1476.38
" /> 
</g>
<g style="fill:#000000; fill-opacity:1.0; 
stroke:#000000; stroke-width:47.2441; stroke-opacity:1; 
stroke-linecap:round; stroke-linejoin:round;">
</g>
<g style="fill:#000000; fill-opacity:0.0; 
stroke:#000000; stroke-width:47.2441; stroke-opacity:1; 
stroke-linecap:round; stroke-linejoin:round;">
<path d="M10433 1476
L10433 2145
" />
<path d="M9881 2145
L10433 2145
" />
<path d="M9881 1476
L10433 1476
" />
<g >
</g>
<g style="fill:#000000; fill-opacity:0.0; 
stroke:#000000; stroke-width:0; stroke-opacity:1; 
stroke-linecap:round; stroke-linejoin:round;">
</g>
<g style="fill:#000000; fill-opacity:1.0; 
stroke:#000000; stroke-width:0; stroke-opacity:1; 
stroke-linecap:round; stroke-linejoin:round;">
<path style="fill:#000000; fill-opacity:1.0; 
stroke:#000000; stroke-width:0; stroke-opacity:1; 
stroke-linecap:round; stroke-linejoin:round;fill-rule:evenodd;"
d="M 19466.5,7519.78
19468.4,7520.06
19470.3,7520.53
19472.1,7521.18
19473.8,7522.01
19475.5,7523
19477.1,7524.15
19478.5,7525.45
19479.8,7526.88
19480.9,7528.43
19481.9,7530.09
19482.8,7531.84
19483.4,7533.66
19483.9,7535.53
19484.2,7537.44
19484.3,7539.37
19484.3,8208.66
19484.2,8210.59
19483.9,8212.5
19483.4,8214.38
19482.8,8216.19
19481.9,8217.94
19480.9,8219.6
19479.8,8221.15
19478.5,8222.58
19477.1,8223.88
19475.5,8225.03
19473.8,8226.02
19472.1,8226.85
19470.3,8227.5
19468.4,8227.97
19466.5,8228.25
19464.6,8228.35
18795.3,8228.35
18793.3,8228.25
18791.4,8227.97
18789.6,8227.5
18787.7,8226.85
18786,8226.02
18784.3,8225.03
18782.8,8223.88
18781.4,8222.58
18780.1,8221.15
18778.9,8219.6
18777.9,8217.94
18777.1,8216.19
18776.4,8214.38
18776,8212.5
18775.7,8210.59
18775.6,8208.66
18775.6,7539.37
18775.7,7537.44
18776,7535.53
18776.4,7533.66
18777.1,7531.84
18777.9,7530.09
18778.9,7528.43
18780.1,7526.88
18781.4,7525.45
18782.8,7524.15
18784.3,7523
18786,7522.01
18787.7,7521.18
18789.6,7520.53
18791.4,7520.06
18793.3,7519.78
18795.3,7519.69
19464.6,7519.69
Z" /> 
<circle cx="20129.9" cy="7874.02" r="354.331" /> 
<circle cx="19129.9" cy="6874.02" r="354.331" /> 
<circle cx="20129.9" cy="6874.02" r="354.331" /> 
<circle cx="19129.9" cy="5874.02" r="354.331" /> 
<circle cx="20129.9" cy="5874.02" r="354.331" /> 
</g>
<g >
</g>
<g style="fill:#000000; fill-opacity:1.0; 
stroke:#000000; stroke-width:0; stroke-opacity:1; 
stroke-linecap:round; stroke-linejoin:round;">
<path style="fill:#000000; fill-opacity:1.0; 
stroke:#000000; stroke-width:0; stroke-opacity:1; 
stroke-linecap:round; stroke-linejoin:round;fill-rule:evenodd;"
d="M 1466.5,7519.78
1468.41,7520.06
1470.28,7520.53
1472.1,7521.18
1473.85,7522.01
1475.5,7523
1477.06,7524.15
1478.49,7525.45
1479.78,7526.88
1480.93,7528.43
1481.93,7530.09
1482.75,7531.84
1483.4,7533.66
1483.87,7535.53
1484.16,7537.44
1484.25,7539.37
1484.25,8208.66
1484.16,8210.59
1483.87,8212.5
1483.4,8214.38
1482.75,8216.19
1481.93,8217.94
1480.93,8219.6
1479.78,8221.15
1478.49,8222.58
1477.06,8223.88
1475.5,8225.03
1473.85,8226.02
1472.1,8226.85
1470.28,8227.5
1468.41,8227.97
1466.5,8228.25
1464.57,8228.35
795.276,8228.35
793.346,8228.25
791.435,8227.97
789.561,8227.5
787.743,8226.85
785.996,8226.02
784.339,8225.03
782.787,8223.88
781.356,8222.58
780.059,8221.15
778.908,8219.6
777.915,8217.94
777.089,8216.19
776.438,8214.38
775.969,8212.5
775.685,8210.59
775.591,8208.66
775.591,7539.37
775.685,7537.44
775.969,7535.53
776.438,7533.66
777.089,7531.84
777.915,7530.09
778.908,7528.43
780.059,7526.88
781.356,7525.45
782.787,7524.15
784.339,7523
785.996,7522.01
787.743,7521.18
789.561,7520.53
791.435,7520.06
793.346,7519.78
795.276,7519.69
1464.57,7519.69
Z" /> 
<circle cx="2129.92" cy="7874.02" r="354.331" /> 
<circle cx="1129.92" cy="6874.02" r="354.331" /> 
<circle cx="2129.92" cy="6874.02" r="354.331" /> 
<circle cx="1129.92" cy="5874.02" r="354.331" /> 
<circle cx="2129.92" cy="5874.02" r="354.331" /> 
</g>
<g >
</g>
<g style="fill:#000000; fill-opacity:1.0; 
stroke:#000000; stroke-width:0; stroke-opacity:1; 
stroke-linecap:round; stroke-linejoin:round;">
<path style="fill:#000000; fill-opacity:1.0; 
stroke:#000000; stroke-width:0; stroke-opacity:1; 
stroke-linecap:round; stroke-linejoin:round;fill-rule:evenodd;"
d="M 9805.08,5039.46
9806.99,5039.75
9808.86,5040.22
9810.68,5040.87
9812.43,5041.69
9814.09,5042.69
9815.64,5043.84
9817.07,5045.14
9818.37,5046.57
9819.52,5048.12
9820.51,5049.78
9821.34,5051.52
9821.99,5053.34
9822.46,5055.21
9822.74,5057.13
9822.83,5059.06
9822.83,5846.46
9822.74,5848.39
9822.46,5850.3
9821.99,5852.17
9821.34,5853.99
9820.51,5855.74
9819.52,5857.39
9818.37,5858.94
9817.07,5860.38
9815.64,5861.67
9814.09,5862.82
9812.43,5863.82
9810.68,5864.64
9808.86,5865.29
9806.99,5865.76
9805.08,5866.05
9803.15,5866.14
8307.09,5866.14
8305.16,5866.05
8303.25,5865.76
8301.37,5865.29
8299.55,5864.64
8297.81,5863.82
8296.15,5862.82
8294.6,5861.67
8293.17,5860.38
8291.87,5858.94
8290.72,5857.39
8289.73,5855.74
8288.9,5853.99
8288.25,5852.17
8287.78,5850.3
8287.5,5848.39
8287.4,5846.46
8287.4,5059.06
8287.5,5057.13
8287.78,5055.21
8288.25,5053.34
8288.9,5051.52
8289.73,5049.78
8290.72,5048.12
8291.87,5046.57
8293.17,5045.14
8294.6,5043.84
8296.15,5042.69
8297.81,5041.69
8299.55,5040.87
8301.37,5040.22
8303.25,5039.75
8305.16,5039.46
8307.09,5039.37
9803.15,5039.37
Z" /> 
<path style="fill:#000000; fill-opacity:1.0; 
stroke:#000000; stroke-width:0; stroke-opacity:1; 
stroke-linecap:round; stroke-linejoin:round;fill-rule:evenodd;"
d="M 9352.32,7519.78
9354.23,7520.06
9356.11,7520.53
9357.93,7521.18
9359.67,7522.01
9361.33,7523
9362.88,7524.15
9364.31,7525.45
9365.61,7526.88
9366.76,7528.43
9367.75,7530.09
9368.58,7531.84
9369.23,7533.66
9369.7,7535.53
9369.98,7537.44
9370.08,7539.37
9370.08,8326.77
9369.98,8328.7
9369.7,8330.61
9369.23,8332.49
9368.58,8334.3
9367.75,8336.05
9366.76,8337.71
9365.61,8339.26
9364.31,8340.69
9362.88,8341.99
9361.33,8343.14
9359.67,8344.13
9357.93,8344.96
9356.11,8345.61
9354.23,8346.08
9352.32,8346.36
9350.39,8346.46
8759.84,8346.46
8757.91,8346.36
8756,8346.08
8754.13,8345.61
8752.31,8344.96
8750.56,8344.13
8748.91,8343.14
8747.35,8341.99
8745.92,8340.69
8744.63,8339.26
8743.48,8337.71
8742.48,8336.05
8741.66,8334.3
8741.01,8332.49
8740.54,8330.61
8740.25,8328.7
8740.16,8326.77
8740.16,7539.37
8740.25,7537.44
8740.54,7535.53
8741.01,7533.66
8741.66,7531.84
8742.48,7530.09
8743.48,7528.43
8744.63,7526.88
8745.92,7525.45
8747.35,7524.15
8748.91,7523
8750.56,7522.01
8752.31,7521.18
8754.13,7520.53
8756,7520.06
8757.91,7519.78
8759.84,7519.69
9350.39,7519.69
Z" /> 
<path style="fill:#000000; fill-opacity:1.0; 
stroke:#000000; stroke-width:0; stroke-opacity:1; 
stroke-linecap:round; stroke-linejoin:round;fill-rule:evenodd;"
d="M 10257.8,7519.78
10259.7,7520.06
10261.6,7520.53
10263.4,7521.18
10265.2,7522.01
10266.8,7523
10268.4,7524.15
10269.8,7525.45
10271.1,7526.88
10272.3,7528.43
10273.3,7530.09
10274.1,7531.84
10274.7,7533.66
10275.2,7535.53
10275.5,7537.44
10275.6,7539.37
10275.6,8326.77
10275.5,8328.7
10275.2,8330.61
10274.7,8332.49
10274.1,8334.3
10273.3,8336.05
10272.3,8337.71
10271.1,8339.26
10269.8,8340.69
10268.4,8341.99
10266.8,8343.14
10265.2,8344.13
10263.4,8344.96
10261.6,8345.61
10259.7,8346.08
10257.8,8346.36
10255.9,8346.46
9665.35,8346.46
9663.42,8346.36
9661.51,8346.08
9659.64,8345.61
9657.82,8344.96
9656.07,8344.13
9654.42,8343.14
9652.87,8341.99
9651.44,8340.69
9650.14,8339.26
9648.99,8337.71
9647.99,8336.05
9647.17,8334.3
9646.52,8332.49
9646.05,8330.61
9645.76,8328.7
9645.67,8326.77
9645.67,7539.37
9645.76,7537.44
9646.05,7535.53
9646.52,7533.66
9647.17,7531.84
9647.99,7530.09
9648.99,7528.43
9650.14,7526.88
9651.44,7525.45
9652.87,7524.15
9654.42,7523
9656.07,7522.01
9657.82,7521.18
9659.64,7520.53
9661.51,7520.06
9663.42,7519.78
9665.35,7519.69
10255.9,7519.69
Z" /> 
<path style="fill:#000000; fill-opacity:1.0; 
stroke:#000000; stroke-width:0; stroke-opacity:1; 
stroke-linecap:round; stroke-linejoin:round;fill-rule:evenodd;"
d="M 8446.81,7519.78
8448.72,7520.06
8450.6,7520.53
8452.41,7521.18
8454.16,7522.01
8455.82,7523
8457.37,7524.15
8458.8,7525.45
8460.1,7526.88
8461.25,7528.43
8462.24,7530.09
8463.07,7531.84
8463.72,7533.66
8464.19,7535.53
8464.47,7537.44
8464.57,7539.37
8464.57,8326.77
8464.47,8328.7
8464.19,8330.61
8463.72,8332.49
8463.07,8334.3
8462.24,8336.05
8461.25,8337.71
8460.1,8339.26
8458.8,8340.69
8457.37,8341.99
8455.82,8343.14
8454.16,8344.13
8452.41,8344.96
8450.6,8345.61
8448.72,8346.08
8446.81,8346.36
8444.88,8346.46
7854.33,8346.46
7852.4,8346.36
7850.49,8346.08
7848.62,8345.61
7846.8,8344.96
7845.05,8344.13
7843.39,8343.14
7841.84,8341.99
7840.41,8340.69
7839.11,8339.26
7837.96,8337.71
7836.97,8336.05
7836.14,8334.3
7835.49,8332.49
7835.02,8330.61
7834.74,8328.7
7834.65,8326.77
7834.65,7539.37
7834.74,7537.44
7835.02,7535.53
7835.49,7533.66
7836.14,7531.84
7836.97,7530.09
7837.96,7528.43
7839.11,7526.88
7840.41,7525.45
7841.84,7524.15
7843.39,7523
7845.05,7522.01
7846.8,7521.18
7848.62,7520.53
7850.49,7520.06
7852.4,7519.78
7854.33,7519.69
8444.88,7519.69
Z" /> 
</g>
<g >
</g>
<g style="fill:#000000; fill-opacity:1.0; 
stroke:#000000; stroke-width:0; stroke-opacity:1; 
stroke-linecap:round; stroke-linejoin:round;">
<path style="fill:#000000; fill-opacity:1.0; 
stroke:#000000; stroke-width:0; stroke-opacity:1; 
stroke-linecap:round; stroke-linejoin:round;fill-rule:evenodd;"
d="M 12954.7,5039.46
12956.6,5039.75
12958.5,5040.22
12960.3,5040.87
12962,5041.69
12963.7,5042.69
12965.2,5043.84
12966.7,5045.14
12968,5046.57
12969.1,5048.12
12970.1,5049.78
12970.9,5051.52
12971.6,5053.34
12972.1,5055.21
12972.3,5057.13
12972.4,5059.06
12972.4,5846.46
12972.3,5848.39
12972.1,5850.3
12971.6,5852.17
12970.9,5853.99
12970.1,5855.74
12969.1,5857.39
12968,5858.94
12966.7,5860.38
12965.2,5861.67
12963.7,5862.82
12962,5863.82
12960.3,5864.64
12958.5,5865.29
12956.6,5865.76
12954.7,5866.05
12952.8,5866.14
11456.7,5866.14
11454.8,5866.05
11452.9,5865.76
11451,5865.29
11449.2,5864.64
11447.4,5863.82
11445.8,5862.82
11444.2,5861.67
11442.8,5860.38
11441.5,5858.94
11440.3,5857.39
11439.3,5855.74
11438.5,5853.99
11437.9,5852.17
11437.4,5850.3
11437.1,5848.39
11437,5846.46
11437,5059.06
11437.1,5057.13
11437.4,5055.21
11437.9,5053.34
11438.5,5051.52
11439.3,5049.78
11440.3,5048.12
11441.5,5046.57
11442.8,5045.14
11444.2,5043.84
11445.8,5042.69
11447.4,5041.69
11449.2,5040.87
11451,5040.22
11452.9,5039.75
11454.8,5039.46
11456.7,5039.37
12952.8,5039.37
Z" /> 
<path style="fill:#000000; fill-opacity:1.0; 
stroke:#000000; stroke-width:0; stroke-opacity:1; 
stroke-linecap:round; stroke-linejoin:round;fill-rule:evenodd;"
d="M 12501.9,7519.78
12503.8,7520.06
12505.7,7520.53
12507.5,7521.18
12509.3,7522.01
12510.9,7523
12512.5,7524.15
12513.9,7525.45
12515.2,7526.88
12516.4,7528.43
12517.4,7530.09
12518.2,7531.84
12518.8,7533.66
12519.3,7535.53
12519.6,7537.44
12519.7,7539.37
12519.7,8326.77
12519.6,8328.7
12519.3,8330.61
12518.8,8332.49
12518.2,8334.3
12517.4,8336.05
12516.4,8337.71
12515.2,8339.26
12513.9,8340.69
12512.5,8341.99
12510.9,8343.14
12509.3,8344.13
12507.5,8344.96
12505.7,8345.61
12503.8,8346.08
12501.9,8346.36
12500,8346.46
11909.4,8346.46
11907.5,8346.36
11905.6,8346.08
11903.7,8345.61
11901.9,8344.96
11900.2,8344.13
11898.5,8343.14
11897,8341.99
11895.5,8340.69
11894.2,8339.26
11893.1,8337.71
11892.1,8336.05
11891.3,8334.3
11890.6,8332.49
11890.1,8330.61
11889.9,8328.7
11889.8,8326.77
11889.8,7539.37
11889.9,7537.44
11890.1,7535.53
11890.6,7533.66
11891.3,7531.84
11892.1,7530.09
11893.1,7528.43
11894.2,7526.88
11895.5,7525.45
11897,7524.15
11898.5,7523
11900.2,7522.01
11901.9,7521.18
11903.7,7520.53
11905.6,7520.06
11907.5,7519.78
11909.4,7519.69
12500,7519.69
Z" /> 
<path style="fill:#000000; fill-opacity:1.0; 
stroke:#000000; stroke-width:0; stroke-opacity:1; 
stroke-linecap:round; stroke-linejoin:round;fill-rule:evenodd;"
d="M 13407.4,7519.78
13409.4,7520.06
13411.2,7520.53
13413,7521.18
13414.8,7522.01
13416.4,7523
13418,7524.15
13419.4,7525.45
13420.7,7526.88
13421.9,7528.43
13422.9,7530.09
13423.7,7531.84
13424.3,7533.66
13424.8,7535.53
13425.1,7537.44
13425.2,7539.37
13425.2,8326.77
13425.1,8328.7
13424.8,8330.61
13424.3,8332.49
13423.7,8334.3
13422.9,8336.05
13421.9,8337.71
13420.7,8339.26
13419.4,8340.69
13418,8341.99
13416.4,8343.14
13414.8,8344.13
13413,8344.96
13411.2,8345.61
13409.4,8346.08
13407.4,8346.36
13405.5,8346.46
12815,8346.46
12813,8346.36
12811.1,8346.08
12809.2,8345.61
12807.4,8344.96
12805.7,8344.13
12804,8343.14
12802.5,8341.99
12801,8340.69
12799.7,8339.26
12798.6,8337.71
12797.6,8336.05
12796.8,8334.3
12796.1,8332.49
12795.7,8330.61
12795.4,8328.7
12795.3,8326.77
12795.3,7539.37
12795.4,7537.44
12795.7,7535.53
12796.1,7533.66
12796.8,7531.84
12797.6,7530.09
12798.6,7528.43
12799.7,7526.88
12801,7525.45
12802.5,7524.15
12804,7523
12805.7,7522.01
12807.4,7521.18
12809.2,7520.53
12811.1,7520.06
12813,7519.78
12815,7519.69
13405.5,7519.69
Z" /> 
<path style="fill:#000000; fill-opacity:1.0; 
stroke:#000000; stroke-width:0; stroke-opacity:1; 
stroke-linecap:round; stroke-linejoin:round;fill-rule:evenodd;"
d="M 11596.4,7519.78
11598.3,7520.06
11600.2,7520.53
11602,7521.18
11603.8,7522.01
11605.4,7523
11607,7524.15
11608.4,7525.45
11609.7,7526.88
11610.9,7528.43
11611.8,7530.09
11612.7,7531.84
11613.3,7533.66
11613.8,7535.53
11614.1,7537.44
11614.2,7539.37
11614.2,8326.77
11614.1,8328.7
11613.8,8330.61
11613.3,8332.49
11612.7,8334.3
11611.8,8336.05
11610.9,8337.71
11609.7,8339.26
11608.4,8340.69
11607,8341.99
11605.4,8343.14
11603.8,8344.13
11602,8344.96
11600.2,8345.61
11598.3,8346.08
11596.4,8346.36
11594.5,8346.46
11003.9,8346.46
11002,8346.36
11000.1,8346.08
10998.2,8345.61
10996.4,8344.96
10994.7,8344.13
10993,8343.14
10991.4,8341.99
10990,8340.69
10988.7,8339.26
10987.6,8337.71
10986.6,8336.05
10985.8,8334.3
10985.1,8332.49
10984.6,8330.61
10984.3,8328.7
10984.3,8326.77
10984.3,7539.37
10984.3,7537.44
10984.6,7535.53
10985.1,7533.66
10985.8,7531.84
10986.6,7530.09
10987.6,7528.43
10988.7,7526.88
10990,7525.45
10991.4,7524.15
10993,7523
10994.7,7522.01
10996.4,7521.18
10998.2,7520.53
11000.1,7520.06
11002,7519.78
11003.9,7519.69
11594.5,7519.69
Z" /> 
</g>
<g >
</g>
<g style="fill:#000000; fill-opacity:1.0; 
stroke:#000000; stroke-width:0; stroke-opacity:1; 
stroke-linecap:round; stroke-linejoin:round;">
<path style="fill:#000000; fill-opacity:1.0; 
stroke:#000000; stroke-width:0; stroke-opacity:1; 
stroke-linecap:round; stroke-linejoin:round;fill-rule:evenodd;"
d="M 5809.91,4163.9
5820.19,4165.42
5830.28,4167.95
5840.08,4171.45
5849.48,4175.9
5858.4,4181.25
5866.76,4187.45
5874.47,4194.43
5881.45,4202.14
5887.65,4210.49
5893,4219.42
5897.44,4228.82
5900.95,4238.61
5903.48,4248.7
5905,4258.99
5905.51,4269.38
5905.51,4785.74
5905,4796.13
5903.48,4806.41
5900.95,4816.51
5897.44,4826.3
5893,4835.7
5887.65,4844.62
5881.45,4852.98
5874.47,4860.69
5866.76,4867.67
5858.4,4873.87
5849.48,4879.22
5840.08,4883.66
5830.28,4887.17
5820.19,4889.7
5809.91,4891.22
5799.52,4891.73
5460.33,4891.73
5449.94,4891.22
5439.65,4889.7
5429.56,4887.17
5419.76,4883.66
5410.36,4879.22
5401.44,4873.87
5393.08,4867.67
5385.38,4860.69
5378.39,4852.98
5372.19,4844.62
5366.85,4835.7
5362.4,4826.3
5358.89,4816.51
5356.37,4806.41
5354.84,4796.13
5354.33,4785.74
5354.33,4269.38
5354.84,4258.99
5356.37,4248.7
5358.89,4238.61
5362.4,4228.82
5366.85,4219.42
5372.19,4210.49
5378.39,4202.14
5385.38,4194.43
5393.08,4187.45
5401.44,4181.25
5410.36,4175.9
5419.76,4171.45
5429.56,4167.95
5439.65,4165.42
5449.94,4163.9
5460.33,4163.39
5799.52,4163.39
Z" /> 
<path style="fill:#000000; fill-opacity:1.0; 
stroke:#000000; stroke-width:0; stroke-opacity:1; 
stroke-linecap:round; stroke-linejoin:round;fill-rule:evenodd;"
d="M 4589.43,4163.9
4599.72,4165.42
4609.81,4167.95
4619.61,4171.45
4629.01,4175.9
4637.93,4181.25
4646.29,4187.45
4653.99,4194.43
4660.98,4202.14
4667.18,4210.49
4672.52,4219.42
4676.97,4228.82
4680.48,4238.61
4683,4248.7
4684.53,4258.99
4685.04,4269.38
4685.04,4785.74
4684.53,4796.13
4683,4806.41
4680.48,4816.51
4676.97,4826.3
4672.52,4835.7
4667.18,4844.62
4660.98,4852.98
4653.99,4860.69
4646.29,4867.67
4637.93,4873.87
4629.01,4879.22
4619.61,4883.66
4609.81,4887.17
4599.72,4889.7
4589.43,4891.22
4579.04,4891.73
4239.85,4891.73
4229.46,4891.22
4219.18,4889.7
4209.09,4887.17
4199.29,4883.66
4189.89,4879.22
4180.97,4873.87
4172.61,4867.67
4164.9,4860.69
4157.92,4852.98
4151.72,4844.62
4146.37,4835.7
4141.93,4826.3
4138.42,4816.51
4135.89,4806.41
4134.37,4796.13
4133.86,4785.74
4133.86,4269.38
4134.37,4258.99
4135.89,4248.7
4138.42,4238.61
4141.93,4228.82
4146.37,4219.42
4151.72,4210.49
4157.92,4202.14
4164.9,4194.43
4172.61,4187.45
4180.97,4181.25
4189.89,4175.9
4199.29,4171.45
4209.09,4167.95
4219.18,4165.42
4229.46,4163.9
4239.85,4163.39
4579.04,4163.39
Z" /> 
</g>
<g >
</g>
<g style="fill:#000000; fill-opacity:1.0; 
stroke:#000000; stroke-width:0; stroke-opacity:1; 
stroke-linecap:round; stroke-linejoin:round;">
<path style="fill:#000000; fill-opacity:1.0; 
stroke:#000000; stroke-width:0; stroke-opacity:1; 
stroke-linecap:round; stroke-linejoin:round;fill-rule:evenodd;"
d="M 15809.9,4163.9
15820.2,4165.42
15830.3,4167.95
15840.1,4171.45
15849.5,4175.9
15858.4,4181.25
15866.8,4187.45
15874.5,4194.43
15881.5,4202.14
15887.6,4210.49
15893,4219.42
15897.4,4228.82
15900.9,4238.61
15903.5,4248.7
15905,4258.99
15905.5,4269.38
15905.5,4785.74
15905,4796.13
15903.5,4806.41
15900.9,4816.51
15897.4,4826.3
15893,4835.7
15887.6,4844.62
15881.5,4852.98
15874.5,4860.69
15866.8,4867.67
15858.4,4873.87
15849.5,4879.22
15840.1,4883.66
15830.3,4887.17
15820.2,4889.7
15809.9,4891.22
15799.5,4891.73
15460.3,4891.73
15449.9,4891.22
15439.6,4889.7
15429.6,4887.17
15419.8,4883.66
15410.4,4879.22
15401.4,4873.87
15393.1,4867.67
15385.4,4860.69
15378.4,4852.98
15372.2,4844.62
15366.8,4835.7
15362.4,4826.3
15358.9,4816.51
15356.4,4806.41
15354.8,4796.13
15354.3,4785.74
15354.3,4269.38
15354.8,4258.99
15356.4,4248.7
15358.9,4238.61
15362.4,4228.82
15366.8,4219.42
15372.2,4210.49
15378.4,4202.14
15385.4,4194.43
15393.1,4187.45
15401.4,4181.25
15410.4,4175.9
15419.8,4171.45
15429.6,4167.95
15439.6,4165.42
15449.9,4163.9
15460.3,4163.39
15799.5,4163.39
Z" /> 
<path style="fill:#000000; fill-opacity:1.0; 
stroke:#000000; stroke-width:0; stroke-opacity:1; 
stroke-linecap:round; stroke-linejoin:round;fill-rule:evenodd;"
d="M 17030.4,4163.9
17040.7,4165.42
17050.8,4167.95
17060.6,4171.45
17070,4175.9
17078.9,4181.25
17087.2,4187.45
17094.9,4194.43
17101.9,4202.14
17108.1,4210.49
17113.5,4219.42
17117.9,4228.82
17121.4,4238.61
17123.9,4248.7
17125.5,4258.99
17126,4269.38
17126,4785.74
17125.5,4796.13
17123.9,4806.41
17121.4,4816.51
17117.9,4826.3
17113.5,4835.7
17108.1,4844.62
17101.9,4852.98
17094.9,4860.69
17087.2,4867.67
17078.9,4873.87
17070,4879.22
17060.6,4883.66
17050.8,4887.17
17040.7,4889.7
17030.4,4891.22
17020,4891.73
16680.8,4891.73
16670.4,4891.22
16660.1,4889.7
16650,4887.17
16640.2,4883.66
16630.8,4879.22
16621.9,4873.87
16613.6,4867.67
16605.8,4860.69
16598.9,4852.98
16592.7,4844.62
16587.3,4835.7
16582.9,4826.3
16579.4,4816.51
16576.8,4806.41
16575.3,4796.13
16574.8,4785.74
16574.8,4269.38
16575.3,4258.99
16576.8,4248.7
16579.4,4238.61
16582.9,4228.82
16587.3,4219.42
16592.7,4210.49
16598.9,4202.14
16605.8,4194.43
16613.6,4187.45
16621.9,4181.25
16630.8,4175.9
16640.2,4171.45
16650,4167.95
16660.1,4165.42
16670.4,4163.9
16680.8,4163.39
17020,4163.39
Z" /> 
</g>
<g >
</g>
<g style="fill:#000000; fill-opacity:1.0; 
stroke:#000000; stroke-width:0; stroke-opacity:1; 
stroke-linecap:round; stroke-linejoin:round;">
<path style="fill:#000000; fill-opacity:1.0; 
stroke:#000000; stroke-width:0; stroke-opacity:1; 
stroke-linecap:round; stroke-linejoin:round;fill-rule:evenodd;"
d="M 4667.28,5354.43
4669.19,5354.71
4671.07,5355.18
4672.89,5355.83
4674.63,5356.66
4676.29,5357.65
4677.84,5358.8
4679.27,5360.1
4680.57,5361.53
4681.72,5363.08
4682.71,5364.74
4683.54,5366.48
4684.19,5368.3
4684.66,5370.18
4684.94,5372.09
4685.04,5374.02
4685.04,6043.31
4684.94,6045.24
4684.66,6047.15
4684.19,6049.02
4683.54,6050.84
4682.71,6052.59
4681.72,6054.24
4680.57,6055.8
4679.27,6057.23
4677.84,6058.52
4676.29,6059.67
4674.63,6060.67
4672.89,6061.49
4671.07,6062.14
4669.19,6062.61
4667.28,6062.9
4665.35,6062.99
3996.06,6062.99
3994.13,6062.9
3992.22,6062.61
3990.35,6062.14
3988.53,6061.49
3986.78,6060.67
3985.13,6059.67
3983.57,6058.52
3982.14,6057.23
3980.85,6055.8
3979.7,6054.24
3978.7,6052.59
3977.88,6050.84
3977.23,6049.02
3976.76,6047.15
3976.47,6045.24
3976.38,6043.31
3976.38,5374.02
3976.47,5372.09
3976.76,5370.18
3977.23,5368.3
3977.88,5366.48
3978.7,5364.74
3979.7,5363.08
3980.85,5361.53
3982.14,5360.1
3983.57,5358.8
3985.13,5357.65
3986.78,5356.66
3988.53,5355.83
3990.35,5355.18
3992.22,5354.71
3994.13,5354.43
3996.06,5354.33
4665.35,5354.33
Z" /> 
<circle cx="4330.71" cy="6708.66" r="354.331" /> 
<circle cx="5330.71" cy="6708.66" r="354.331" /> 
<circle cx="4330.71" cy="7708.66" r="354.331" /> 
</g>
<g >
</g>
<g style="fill:#000000; fill-opacity:1.0; 
stroke:#000000; stroke-width:0; stroke-opacity:1; 
stroke-linecap:round; stroke-linejoin:round;">
<path style="fill:#000000; fill-opacity:1.0; 
stroke:#000000; stroke-width:0; stroke-opacity:1; 
stroke-linecap:round; stroke-linejoin:round;fill-rule:evenodd;"
d="M 17265.7,7322.93
17267.6,7323.21
17269.5,7323.68
17271.3,7324.33
17273.1,7325.16
17274.7,7326.15
17276.3,7327.3
17277.7,7328.6
17279,7330.03
17280.1,7331.58
17281.1,7333.24
17282,7334.99
17282.6,7336.81
17283.1,7338.68
17283.4,7340.59
17283.5,7342.52
17283.5,8011.81
17283.4,8013.74
17283.1,8015.65
17282.6,8017.53
17282,8019.34
17281.1,8021.09
17280.1,8022.75
17279,8024.3
17277.7,8025.73
17276.3,8027.03
17274.7,8028.18
17273.1,8029.17
17271.3,8030
17269.5,8030.65
17267.6,8031.12
17265.7,8031.4
17263.8,8031.5
16594.5,8031.5
16592.6,8031.4
16590.6,8031.12
16588.8,8030.65
16587,8030
16585.2,8029.17
16583.6,8028.18
16582,8027.03
16580.6,8025.73
16579.3,8024.3
16578.1,8022.75
16577.1,8021.09
16576.3,8019.34
16575.7,8017.53
16575.2,8015.65
16574.9,8013.74
16574.8,8011.81
16574.8,7342.52
16574.9,7340.59
16575.2,7338.68
16575.7,7336.81
16576.3,7334.99
16577.1,7333.24
16578.1,7331.58
16579.3,7330.03
16580.6,7328.6
16582,7327.3
16583.6,7326.15
16585.2,7325.16
16587,7324.33
16588.8,7323.68
16590.6,7323.21
16592.6,7322.93
16594.5,7322.83
17263.8,7322.83
Z" /> 
<circle cx="16929.1" cy="6677.17" r="354.331" /> 
<circle cx="15929.1" cy="6677.17" r="354.331" /> 
<circle cx="16929.1" cy="5677.17" r="354.331" /> 
</g>
<g >
</g>
<g style="fill:#000000; fill-opacity:1.0; 
stroke:#000000; stroke-width:0; stroke-opacity:1; 
stroke-linecap:round; stroke-linejoin:round;">
<circle cx="3112.2" cy="3149.61" r="551.181" /> 
</g>
<g style="fill:#000000; fill-opacity:1.0; 
stroke:#000000; stroke-width:39.3701; stroke-opacity:1; 
stroke-linecap:round; stroke-linejoin:round;">
</g>
<g style="fill:#000000; fill-opacity:1.0; 
stroke:#000000; stroke-width:0; stroke-opacity:1; 
stroke-linecap:round; stroke-linejoin:round;">
<circle cx="1612.2" cy="3149.61" r="551.181" /> 
</g>
<g style="fill:#000000; fill-opacity:1.0; 
stroke:#000000; stroke-width:39.3701; stroke-opacity:1; 
stroke-linecap:round; stroke-linejoin:round;">
</g>
<g >
</g>
<g style="fill:#000000; fill-opacity:1.0; 
stroke:#000000; stroke-width:39.3701; stroke-opacity:1; 
stroke-linecap:round; stroke-linejoin:round;">
</g>
<g style="fill:#000000; fill-opacity:1.0; 
stroke:#000000; stroke-width:472.441; stroke-opacity:1; 
stroke-linecap:round; stroke-linejoin:round;">
</g>
<g style="fill:#000000; fill-opacity:0.0; 
stroke:#000000; stroke-width:472.441; stroke-opacity:1; 
stroke-linecap:round; stroke-linejoin:round;">
<path d="M7047 1673
L7047 1948
" />
</g>
<g style="fill:#000000; fill-opacity:0.0; 
stroke:#000000; stroke-width:0; stroke-opacity:1; 
stroke-linecap:round; stroke-linejoin:round;">
</g>
<g style="fill:#000000; fill-opacity:1.0; 
stroke:#000000; stroke-width:0; stroke-opacity:1; 
stroke-linecap:round; stroke-linejoin:round;">
<path style="fill:#000000; fill-opacity:1.0; 
stroke:#000000; stroke-width:0; stroke-opacity:1; 
stroke-linecap:round; stroke-linejoin:round;fill-rule:evenodd;"
d="M 8888.37,1398.63
8908.43,1401.61
8928.11,1406.54
8947.21,1413.37
8965.54,1422.04
8982.94,1432.47
8999.23,1444.56
9014.26,1458.18
9027.89,1473.21
9039.97,1489.5
9050.4,1506.9
9059.07,1525.23
9065.9,1544.33
9070.83,1564.01
9073.81,1584.07
9074.8,1604.33
9074.8,2017.72
9073.81,2037.98
9070.83,2058.04
9065.9,2077.72
9059.07,2096.81
9050.4,2115.15
9039.97,2132.55
9027.89,2148.84
9014.26,2163.87
8999.23,2177.49
8982.94,2189.58
8965.54,2200
8947.21,2208.68
8928.11,2215.51
8908.43,2220.44
8888.37,2223.41
8868.11,2224.41
8061.02,2224.41
8040.76,2223.41
8020.7,2220.44
8001.02,2215.51
7981.93,2208.68
7963.59,2200
7946.19,2189.58
7929.9,2177.49
7914.87,2163.87
7901.25,2148.84
7889.16,2132.55
7878.74,2115.15
7870.06,2096.81
7863.23,2077.72
7858.3,2058.04
7855.33,2037.98
7854.33,2017.72
7854.33,1604.33
7855.33,1584.07
7858.3,1564.01
7863.23,1544.33
7870.06,1525.23
7878.74,1506.9
7889.16,1489.5
7901.25,1473.21
7914.87,1458.18
7929.9,1444.56
7946.19,1432.47
7963.59,1422.04
7981.93,1413.37
8001.02,1406.54
8020.7,1401.61
8040.76,1398.63
8061.02,1397.64
8868.11,1397.64
Z" /> 
<path style="fill:#000000; fill-opacity:1.0; 
stroke:#000000; stroke-width:0; stroke-opacity:1; 
stroke-linecap:round; stroke-linejoin:round;fill-rule:evenodd;"
d="M 8013.74,2647.73
8015.65,2648.02
8017.53,2648.49
8019.34,2649.14
8021.09,2649.96
8022.75,2650.96
8024.3,2652.11
8025.73,2653.4
8027.03,2654.83
8028.18,2656.39
8029.17,2658.04
8030,2659.79
8030.65,2661.61
8031.12,2663.48
8031.4,2665.39
8031.5,2667.32
8031.5,3159.45
8031.4,3161.38
8031.12,3163.29
8030.65,3165.16
8030,3166.98
8029.17,3168.73
8028.18,3170.39
8027.03,3171.94
8025.73,3173.37
8024.3,3174.67
8022.75,3175.82
8021.09,3176.81
8019.34,3177.64
8017.53,3178.29
8015.65,3178.76
8013.74,3179.04
8011.81,3179.13
7854.33,3179.13
7852.4,3179.04
7850.49,3178.76
7848.62,3178.29
7846.8,3177.64
7845.05,3176.81
7843.39,3175.82
7841.84,3174.67
7840.41,3173.37
7839.11,3171.94
7837.96,3170.39
7836.97,3168.73
7836.14,3166.98
7835.49,3165.16
7835.02,3163.29
7834.74,3161.38
7834.65,3159.45
7834.65,2667.32
7834.74,2665.39
7835.02,2663.48
7835.49,2661.61
7836.14,2659.79
7836.97,2658.04
7837.96,2656.39
7839.11,2654.83
7840.41,2653.4
7841.84,2652.11
7843.39,2650.96
7845.05,2649.96
7846.8,2649.14
7848.62,2648.49
7850.49,2648.02
7852.4,2647.73
7854.33,2647.64
8011.81,2647.64
Z" /> 
<path style="fill:#000000; fill-opacity:1.0; 
stroke:#000000; stroke-width:0; stroke-opacity:1; 
stroke-linecap:round; stroke-linejoin:round;fill-rule:evenodd;"
d="M 8289.33,2647.73
8291.24,2648.02
8293.12,2648.49
8294.93,2649.14
8296.68,2649.96
8298.34,2650.96
8299.89,2652.11
8301.32,2653.4
8302.62,2654.83
8303.77,2656.39
8304.76,2658.04
8305.59,2659.79
8306.24,2661.61
8306.71,2663.48
8306.99,2665.39
8307.09,2667.32
8307.09,3159.45
8306.99,3161.38
8306.71,3163.29
8306.24,3165.16
8305.59,3166.98
8304.76,3168.73
8303.77,3170.39
8302.62,3171.94
8301.32,3173.37
8299.89,3174.67
8298.34,3175.82
8296.68,3176.81
8294.93,3177.64
8293.12,3178.29
8291.24,3178.76
8289.33,3179.04
8287.4,3179.13
8129.92,3179.13
8127.99,3179.04
8126.08,3178.76
8124.21,3178.29
8122.39,3177.64
8120.64,3176.81
8118.98,3175.82
8117.43,3174.67
8116,3173.37
8114.7,3171.94
8113.55,3170.39
8112.56,3168.73
8111.73,3166.98
8111.08,3165.16
8110.61,3163.29
8110.33,3161.38
8110.24,3159.45
8110.24,2667.32
8110.33,2665.39
8110.61,2663.48
8111.08,2661.61
8111.73,2659.79
8112.56,2658.04
8113.55,2656.39
8114.7,2654.83
8116,2653.4
8117.43,2652.11
8118.98,2650.96
8120.64,2649.96
8122.39,2649.14
8124.21,2648.49
8126.08,2648.02
8127.99,2647.73
8129.92,2647.64
8287.4,2647.64
Z" /> 
<path style="fill:#000000; fill-opacity:1.0; 
stroke:#000000; stroke-width:0; stroke-opacity:1; 
stroke-linecap:round; stroke-linejoin:round;fill-rule:evenodd;"
d="M 8545.24,2647.73
8547.15,2648.02
8549.02,2648.49
8550.84,2649.14
8552.59,2649.96
8554.24,2650.96
8555.8,2652.11
8557.23,2653.4
8558.52,2654.83
8559.67,2656.39
8560.67,2658.04
8561.49,2659.79
8562.14,2661.61
8562.61,2663.48
8562.9,2665.39
8562.99,2667.32
8562.99,3159.45
8562.9,3161.38
8562.61,3163.29
8562.14,3165.16
8561.49,3166.98
8560.67,3168.73
8559.67,3170.39
8558.52,3171.94
8557.23,3173.37
8555.8,3174.67
8554.24,3175.82
8552.59,3176.81
8550.84,3177.64
8549.02,3178.29
8547.15,3178.76
8545.24,3179.04
8543.31,3179.13
8385.83,3179.13
8383.9,3179.04
8381.99,3178.76
8380.11,3178.29
8378.29,3177.64
8376.55,3176.81
8374.89,3175.82
8373.34,3174.67
8371.91,3173.37
8370.61,3171.94
8369.46,3170.39
8368.47,3168.73
8367.64,3166.98
8366.99,3165.16
8366.52,3163.29
8366.24,3161.38
8366.14,3159.45
8366.14,2667.32
8366.24,2665.39
8366.52,2663.48
8366.99,2661.61
8367.64,2659.79
8368.47,2658.04
8369.46,2656.39
8370.61,2654.83
8371.91,2653.4
8373.34,2652.11
8374.89,2650.96
8376.55,2649.96
8378.29,2649.14
8380.11,2648.49
8381.99,2648.02
8383.9,2647.73
8385.83,2647.64
8543.31,2647.64
Z" /> 
<path style="fill:#000000; fill-opacity:1.0; 
stroke:#000000; stroke-width:0; stroke-opacity:1; 
stroke-linecap:round; stroke-linejoin:round;fill-rule:evenodd;"
d="M 8801.14,2647.73
8803.05,2648.02
8804.93,2648.49
8806.75,2649.14
8808.49,2649.96
8810.15,2650.96
8811.7,2652.11
8813.13,2653.4
8814.43,2654.83
8815.58,2656.39
8816.57,2658.04
8817.4,2659.79
8818.05,2661.61
8818.52,2663.48
8818.8,2665.39
8818.9,2667.32
8818.9,3159.45
8818.8,3161.38
8818.52,3163.29
8818.05,3165.16
8817.4,3166.98
8816.57,3168.73
8815.58,3170.39
8814.43,3171.94
8813.13,3173.37
8811.7,3174.67
8810.15,3175.82
8808.49,3176.81
8806.75,3177.64
8804.93,3178.29
8803.05,3178.76
8801.14,3179.04
8799.21,3179.13
8641.73,3179.13
8639.8,3179.04
8637.89,3178.76
8636.02,3178.29
8634.2,3177.64
8632.45,3176.81
8630.8,3175.82
8629.24,3174.67
8627.81,3173.37
8626.52,3171.94
8625.36,3170.39
8624.37,3168.73
8623.55,3166.98
8622.89,3165.16
8622.43,3163.29
8622.14,3161.38
8622.05,3159.45
8622.05,2667.32
8622.14,2665.39
8622.43,2663.48
8622.89,2661.61
8623.55,2659.79
8624.37,2658.04
8625.36,2656.39
8626.52,2654.83
8627.81,2653.4
8629.24,2652.11
8630.8,2650.96
8632.45,2649.96
8634.2,2649.14
8636.02,2648.49
8637.89,2648.02
8639.8,2647.73
8641.73,2647.64
8799.21,2647.64
Z" /> 
<path style="fill:#000000; fill-opacity:1.0; 
stroke:#000000; stroke-width:0; stroke-opacity:1; 
stroke-linecap:round; stroke-linejoin:round;fill-rule:evenodd;"
d="M 9057.05,2647.73
9058.96,2648.02
9060.83,2648.49
9062.65,2649.14
9064.4,2649.96
9066.05,2650.96
9067.61,2652.11
9069.04,2653.4
9070.34,2654.83
9071.49,2656.39
9072.48,2658.04
9073.3,2659.79
9073.96,2661.61
9074.42,2663.48
9074.71,2665.39
9074.8,2667.32
9074.8,3159.45
9074.71,3161.38
9074.42,3163.29
9073.96,3165.16
9073.3,3166.98
9072.48,3168.73
9071.49,3170.39
9070.34,3171.94
9069.04,3173.37
9067.61,3174.67
9066.05,3175.82
9064.4,3176.81
9062.65,3177.64
9060.83,3178.29
9058.96,3178.76
9057.05,3179.04
9055.12,3179.13
8897.64,3179.13
8895.71,3179.04
8893.8,3178.76
8891.92,3178.29
8890.1,3177.64
8888.36,3176.81
8886.7,3175.82
8885.15,3174.67
8883.72,3173.37
8882.42,3171.94
8881.27,3170.39
8880.28,3168.73
8879.45,3166.98
8878.8,3165.16
8878.33,3163.29
8878.05,3161.38
8877.95,3159.45
8877.95,2667.32
8878.05,2665.39
8878.33,2663.48
8878.8,2661.61
8879.45,2659.79
8880.28,2658.04
8881.27,2656.39
8882.42,2654.83
8883.72,2653.4
8885.15,2652.11
8886.7,2650.96
8888.36,2649.96
8890.1,2649.14
8891.92,2648.49
8893.8,2648.02
8895.71,2647.73
8897.64,2647.64
9055.12,2647.64
Z" /> 
<circle cx="7509.84" cy="2913.39" r="273.622" /> 
</g>
<g style="fill:#000000; fill-opacity:1.0; 
stroke:#000000; stroke-width:39.3701; stroke-opacity:1; 
stroke-linecap:round; stroke-linejoin:round;">
</g>
<g style="fill:#000000; fill-opacity:1.0; 
stroke:#000000; stroke-width:0; stroke-opacity:1; 
stroke-linecap:round; stroke-linejoin:round;">
<circle cx="9419.29" cy="2913.39" r="273.622" /> 
</g>
<g style="fill:#000000; fill-opacity:1.0; 
stroke:#000000; stroke-width:39.3701; stroke-opacity:1; 
stroke-linecap:round; stroke-linejoin:round;">
</g>
<g style="fill:#000000; fill-opacity:1.0; 
stroke:#000000; stroke-width:472.441; stroke-opacity:1; 
stroke-linecap:round; stroke-linejoin:round;">
</g>
<g style="fill:#000000; fill-opacity:0.0; 
stroke:#000000; stroke-width:472.441; stroke-opacity:1; 
stroke-linecap:round; stroke-linejoin:round;">
<path d="M7047 1673
L7047 1948
" />
<path d="M9881 1948
L9881 1673
" />
</g>
<g >
</g>
<g style="fill:#000000; fill-opacity:0.0; 
stroke:#000000; stroke-width:472.441; stroke-opacity:1; 
stroke-linecap:round; stroke-linejoin:round;">
</g>
<g style="fill:#000000; fill-opacity:0.0; 
stroke:#000000; stroke-width:0; stroke-opacity:1; 
stroke-linecap:round; stroke-linejoin:round;">
</g>
<g style="fill:#000000; fill-opacity:1.0; 
stroke:#000000; stroke-width:0; stroke-opacity:1; 
stroke-linecap:round; stroke-linejoin:round;">
<path style="fill:#000000; fill-opacity:1.0; 
stroke:#000000; stroke-width:0; stroke-opacity:1; 
stroke-linecap:round; stroke-linejoin:round;fill-rule:evenodd;"
d="M 14964,4163.89
14974.3,4165.41
14984.3,4167.92
14994,4171.4
15003.4,4175.82
15012.2,4181.14
15020.5,4187.29
15028.2,4194.24
15035.1,4201.9
15041.3,4210.2
15046.6,4219.06
15051,4228.41
15054.5,4238.14
15057,4248.17
15058.5,4258.39
15059.1,4268.72
15059.1,4786.4
15058.5,4796.72
15057,4806.95
15054.5,4816.98
15051,4826.71
15046.6,4836.05
15041.3,4844.92
15035.1,4853.22
15028.2,4860.88
15020.5,4867.82
15012.2,4873.98
15003.4,4879.29
14994,4883.71
14984.3,4887.2
14974.3,4889.71
14964,4891.23
14953.7,4891.73
14564,4891.73
14553.7,4891.23
14543.4,4889.71
14533.4,4887.2
14523.7,4883.71
14514.3,4879.29
14505.5,4873.98
14497.2,4867.82
14489.5,4860.88
14482.6,4853.22
14476.4,4844.92
14471.1,4836.05
14466.7,4826.71
14463.2,4816.98
14460.7,4806.95
14459.2,4796.72
14458.7,4786.4
14458.7,4268.72
14459.2,4258.39
14460.7,4248.17
14463.2,4238.14
14466.7,4228.41
14471.1,4219.06
14476.4,4210.2
14482.6,4201.9
14489.5,4194.24
14497.2,4187.29
14505.5,4181.14
14514.3,4175.82
14523.7,4171.4
14533.4,4167.92
14543.4,4165.41
14553.7,4163.89
14564,4163.39
14953.7,4163.39
Z" /> 
<path style="fill:#000000; fill-opacity:1.0; 
stroke:#000000; stroke-width:0; stroke-opacity:1; 
stroke-linecap:round; stroke-linejoin:round;fill-rule:evenodd;"
d="M 13792.8,4163.89
13803,4165.41
13813,4167.92
13822.8,4171.4
13832.1,4175.82
13841,4181.14
13849.3,4187.29
13856.9,4194.24
13863.9,4201.9
13870,4210.2
13875.4,4219.06
13879.8,4228.41
13883.3,4238.14
13885.8,4248.17
13887.3,4258.39
13887.8,4268.72
13887.8,4786.4
13887.3,4796.72
13885.8,4806.95
13883.3,4816.98
13879.8,4826.71
13875.4,4836.05
13870,4844.92
13863.9,4853.22
13856.9,4860.88
13849.3,4867.82
13841,4873.98
13832.1,4879.29
13822.8,4883.71
13813,4887.2
13803,4889.71
13792.8,4891.23
13782.5,4891.73
13392.7,4891.73
13382.4,4891.23
13372.2,4889.71
13362.2,4887.2
13352.4,4883.71
13343.1,4879.29
13334.2,4873.98
13325.9,4867.82
13318.3,4860.88
13311.3,4853.22
13305.2,4844.92
13299.8,4836.05
13295.4,4826.71
13291.9,4816.98
13289.4,4806.95
13287.9,4796.72
13287.4,4786.4
13287.4,4268.72
13287.9,4258.39
13289.4,4248.17
13291.9,4238.14
13295.4,4228.41
13299.8,4219.06
13305.2,4210.2
13311.3,4201.9
13318.3,4194.24
13325.9,4187.29
13334.2,4181.14
13343.1,4175.82
13352.4,4171.4
13362.2,4167.92
13372.2,4165.41
13382.4,4163.89
13392.7,4163.39
13782.5,4163.39
Z" /> 
</g>
<g >
</g>
<g style="fill:#000000; fill-opacity:1.0; 
stroke:#000000; stroke-width:0; stroke-opacity:1; 
stroke-linecap:round; stroke-linejoin:round;">
<path style="fill:#000000; fill-opacity:1.0; 
stroke:#000000; stroke-width:0; stroke-opacity:1; 
stroke-linecap:round; stroke-linejoin:round;fill-rule:evenodd;"
d="M 5474.37,1358.36
5476.28,1358.65
5478.16,1359.12
5479.97,1359.77
5481.72,1360.59
5483.38,1361.59
5484.93,1362.74
5486.36,1364.03
5487.66,1365.46
5488.81,1367.02
5489.8,1368.67
5490.63,1370.42
5491.28,1372.24
5491.75,1374.11
5492.03,1376.02
5492.13,1377.95
5492.13,2362.2
5492.03,2364.13
5491.75,2366.05
5491.28,2367.92
5490.63,2369.74
5489.8,2371.48
5488.81,2373.14
5487.66,2374.69
5486.36,2376.12
5484.93,2377.42
5483.38,2378.57
5481.72,2379.57
5479.97,2380.39
5478.16,2381.04
5476.28,2381.51
5474.37,2381.79
5472.44,2381.89
4763.78,2381.89
4761.85,2381.79
4759.94,2381.51
4758.07,2381.04
4756.25,2380.39
4754.5,2379.57
4752.84,2378.57
4751.29,2377.42
4749.86,2376.12
4748.56,2374.69
4747.41,2373.14
4746.42,2371.48
4745.59,2369.74
4744.94,2367.92
4744.47,2366.05
4744.19,2364.13
4744.09,2362.2
4744.09,1377.95
4744.19,1376.02
4744.47,1374.11
4744.94,1372.24
4745.59,1370.42
4746.42,1368.67
4747.41,1367.02
4748.56,1365.46
4749.86,1364.03
4751.29,1362.74
4752.84,1361.59
4754.5,1360.59
4756.25,1359.77
4758.07,1359.12
4759.94,1358.65
4761.85,1358.36
4763.78,1358.27
5472.44,1358.27
Z" /> 
<path style="fill:#000000; fill-opacity:1.0; 
stroke:#000000; stroke-width:0; stroke-opacity:1; 
stroke-linecap:round; stroke-linejoin:round;fill-rule:evenodd;"
d="M 5474.37,2933.17
5476.28,2933.45
5478.16,2933.92
5479.97,2934.57
5481.72,2935.4
5483.38,2936.39
5484.93,2937.54
5486.36,2938.84
5487.66,2940.27
5488.81,2941.82
5489.8,2943.48
5490.63,2945.22
5491.28,2947.04
5491.75,2948.92
5492.03,2950.83
5492.13,2952.76
5492.13,3937.01
5492.03,3938.94
5491.75,3940.85
5491.28,3942.72
5490.63,3944.54
5489.8,3946.29
5488.81,3947.94
5487.66,3949.5
5486.36,3950.93
5484.93,3952.22
5483.38,3953.38
5481.72,3954.37
5479.97,3955.19
5478.16,3955.85
5476.28,3956.31
5474.37,3956.6
5472.44,3956.69
4763.78,3956.69
4761.85,3956.6
4759.94,3956.31
4758.07,3955.85
4756.25,3955.19
4754.5,3954.37
4752.84,3953.38
4751.29,3952.22
4749.86,3950.93
4748.56,3949.5
4747.41,3947.94
4746.42,3946.29
4745.59,3944.54
4744.94,3942.72
4744.47,3940.85
4744.19,3938.94
4744.09,3937.01
4744.09,2952.76
4744.19,2950.83
4744.47,2948.92
4744.94,2947.04
4745.59,2945.22
4746.42,2943.48
4747.41,2941.82
4748.56,2940.27
4749.86,2938.84
4751.29,2937.54
4752.84,2936.39
4754.5,2935.4
4756.25,2934.57
4758.07,2933.92
4759.94,2933.45
4761.85,2933.17
4763.78,2933.07
5472.44,2933.07
Z" /> 
</g>
<g >
</g>
<g style="fill:#000000; fill-opacity:1.0; 
stroke:#000000; stroke-width:0; stroke-opacity:1; 
stroke-linecap:round; stroke-linejoin:round;">
<path style="fill:#000000; fill-opacity:1.0; 
stroke:#000000; stroke-width:0; stroke-opacity:1; 
stroke-linecap:round; stroke-linejoin:round;fill-rule:evenodd;"
d="M 6706.17,4163.89
6716.4,4165.41
6726.43,4167.92
6736.16,4171.4
6745.5,4175.82
6754.37,4181.14
6762.67,4187.29
6770.33,4194.24
6777.27,4201.9
6783.43,4210.2
6788.74,4219.06
6793.16,4228.41
6796.65,4238.14
6799.16,4248.17
6800.67,4258.39
6801.18,4268.72
6801.18,4786.4
6800.67,4796.72
6799.16,4806.95
6796.65,4816.98
6793.16,4826.71
6788.74,4836.05
6783.43,4844.92
6777.27,4853.22
6770.33,4860.88
6762.67,4867.82
6754.37,4873.98
6745.5,4879.29
6736.16,4883.71
6726.43,4887.2
6716.4,4889.71
6706.17,4891.23
6695.85,4891.73
6306.12,4891.73
6295.79,4891.23
6285.57,4889.71
6275.54,4887.2
6265.81,4883.71
6256.47,4879.29
6247.6,4873.98
6239.3,4867.82
6231.64,4860.88
6224.7,4853.22
6218.54,4844.92
6213.22,4836.05
6208.81,4826.71
6205.32,4816.98
6202.81,4806.95
6201.29,4796.72
6200.79,4786.4
6200.79,4268.72
6201.29,4258.39
6202.81,4248.17
6205.32,4238.14
6208.81,4228.41
6213.22,4219.06
6218.54,4210.2
6224.7,4201.9
6231.64,4194.24
6239.3,4187.29
6247.6,4181.14
6256.47,4175.82
6265.81,4171.4
6275.54,4167.92
6285.57,4165.41
6295.79,4163.89
6306.12,4163.39
6695.85,4163.39
Z" /> 
<path style="fill:#000000; fill-opacity:1.0; 
stroke:#000000; stroke-width:0; stroke-opacity:1; 
stroke-linecap:round; stroke-linejoin:round;fill-rule:evenodd;"
d="M 7877.43,4163.89
7887.66,4165.41
7897.69,4167.92
7907.42,4171.4
7916.76,4175.82
7925.63,4181.14
7933.93,4187.29
7941.59,4194.24
7948.53,4201.9
7954.69,4210.2
7960,4219.06
7964.42,4228.41
7967.91,4238.14
7970.42,4248.17
7971.93,4258.39
7972.44,4268.72
7972.44,4786.4
7971.93,4796.72
7970.42,4806.95
7967.91,4816.98
7964.42,4826.71
7960,4836.05
7954.69,4844.92
7948.53,4853.22
7941.59,4860.88
7933.93,4867.82
7925.63,4873.98
7916.76,4879.29
7907.42,4883.71
7897.69,4887.2
7887.66,4889.71
7877.43,4891.23
7867.11,4891.73
7477.38,4891.73
7467.05,4891.23
7456.83,4889.71
7446.8,4887.2
7437.07,4883.71
7427.73,4879.29
7418.86,4873.98
7410.56,4867.82
7402.9,4860.88
7395.96,4853.22
7389.8,4844.92
7384.48,4836.05
7380.06,4826.71
7376.58,4816.98
7374.07,4806.95
7372.55,4796.72
7372.05,4786.4
7372.05,4268.72
7372.55,4258.39
7374.07,4248.17
7376.58,4238.14
7380.06,4228.41
7384.48,4219.06
7389.8,4210.2
7395.96,4201.9
7402.9,4194.24
7410.56,4187.29
7418.86,4181.14
7427.73,4175.82
7437.07,4171.4
7446.8,4167.92
7456.83,4165.41
7467.05,4163.89
7477.38,4163.39
7867.11,4163.39
Z" /> 
</g>
<g >
</g>
<g style="fill:#000000; fill-opacity:1.0; 
stroke:#000000; stroke-width:0; stroke-opacity:1; 
stroke-linecap:round; stroke-linejoin:round;">
<path style="fill:#000000; fill-opacity:1.0; 
stroke:#000000; stroke-width:0; stroke-opacity:1; 
stroke-linecap:round; stroke-linejoin:round;fill-rule:evenodd;"
d="M 12346.6,2638.3
12356.8,2639.8
12366.7,2642.3
12376.4,2645.76
12385.7,2650.14
12394.5,2655.42
12402.7,2661.53
12410.3,2668.43
12417.2,2676.03
12423.3,2684.27
12428.6,2693.07
12433,2702.35
12436.4,2712.01
12438.9,2721.97
12440.4,2732.12
12440.9,2742.37
12440.9,3596.21
12440.4,3606.46
12438.9,3616.61
12436.4,3626.57
12433,3636.23
12428.6,3645.51
12423.3,3654.31
12417.2,3662.55
12410.3,3670.16
12402.7,3677.05
12394.5,3683.16
12385.7,3688.44
12376.4,3692.83
12366.7,3696.28
12356.8,3698.78
12346.6,3700.28
12336.4,3700.79
11876.2,3700.79
11866,3700.28
11855.8,3698.78
11845.9,3696.28
11836.2,3692.83
11826.9,3688.44
11818.1,3683.16
11809.9,3677.05
11802.3,3670.16
11795.4,3662.55
11789.3,3654.31
11784,3645.51
11779.6,3636.23
11776.2,3626.57
11773.7,3616.61
11772.2,3606.46
11771.7,3596.21
11771.7,2742.37
11772.2,2732.12
11773.7,2721.97
11776.2,2712.01
11779.6,2702.35
11784,2693.07
11789.3,2684.27
11795.4,2676.03
11802.3,2668.43
11809.9,2661.53
11818.1,2655.42
11826.9,2650.14
11836.2,2645.76
11845.9,2642.3
11855.8,2639.8
11866,2638.3
11876.2,2637.8
12336.4,2637.8
Z" /> 
<path style="fill:#000000; fill-opacity:1.0; 
stroke:#000000; stroke-width:0; stroke-opacity:1; 
stroke-linecap:round; stroke-linejoin:round;fill-rule:evenodd;"
d="M 12346.6,1220.98
12356.8,1222.48
12366.7,1224.98
12376.4,1228.43
12385.7,1232.82
12394.5,1238.1
12402.7,1244.21
12410.3,1251.1
12417.2,1258.71
12423.3,1266.95
12428.6,1275.75
12433,1285.03
12436.4,1294.69
12438.9,1304.65
12440.4,1314.8
12440.9,1325.05
12440.9,2178.89
12440.4,2189.14
12438.9,2199.29
12436.4,2209.24
12433,2218.91
12428.6,2228.19
12423.3,2236.99
12417.2,2245.23
12410.3,2252.83
12402.7,2259.73
12394.5,2265.84
12385.7,2271.12
12376.4,2275.5
12366.7,2278.96
12356.8,2281.46
12346.6,2282.96
12336.4,2283.46
11876.2,2283.46
11866,2282.96
11855.8,2281.46
11845.9,2278.96
11836.2,2275.5
11826.9,2271.12
11818.1,2265.84
11809.9,2259.73
11802.3,2252.83
11795.4,2245.23
11789.3,2236.99
11784,2228.19
11779.6,2218.91
11776.2,2209.24
11773.7,2199.29
11772.2,2189.14
11771.7,2178.89
11771.7,1325.05
11772.2,1314.8
11773.7,1304.65
11776.2,1294.69
11779.6,1285.03
11784,1275.75
11789.3,1266.95
11795.4,1258.71
11802.3,1251.1
11809.9,1244.21
11818.1,1238.1
11826.9,1232.82
11836.2,1228.43
11845.9,1224.98
11855.8,1222.48
11866,1220.98
11876.2,1220.47
12336.4,1220.47
Z" /> 
</g>
<g >
</g>
<g style="fill:#000000; fill-opacity:1.0; 
stroke:#000000; stroke-width:0; stroke-opacity:1; 
stroke-linecap:round; stroke-linejoin:round;">
<path style="fill:#000000; fill-opacity:1.0; 
stroke:#000000; stroke-width:0; stroke-opacity:1; 
stroke-linecap:round; stroke-linejoin:round;fill-rule:evenodd;"
d="M 14905.7,2638.3
14915.8,2639.8
14925.8,2642.3
14935.4,2645.76
14944.7,2650.14
14953.5,2655.42
14961.8,2661.53
14969.4,2668.43
14976.3,2676.03
14982.4,2684.27
14987.7,2693.07
14992,2702.35
14995.5,2712.01
14998,2721.97
14999.5,2732.12
15000,2742.37
15000,3596.21
14999.5,3606.46
14998,3616.61
14995.5,3626.57
14992,3636.23
14987.7,3645.51
14982.4,3654.31
14976.3,3662.55
14969.4,3670.16
14961.8,3677.05
14953.5,3683.16
14944.7,3688.44
14935.4,3692.83
14925.8,3696.28
14915.8,3698.78
14905.7,3700.28
14895.4,3700.79
14435.3,3700.79
14425,3700.28
14414.9,3698.78
14404.9,3696.28
14395.3,3692.83
14386,3688.44
14377.2,3683.16
14368.9,3677.05
14361.3,3670.16
14354.4,3662.55
14348.3,3654.31
14343.1,3645.51
14338.7,3636.23
14335.2,3626.57
14332.7,3616.61
14331.2,3606.46
14330.7,3596.21
14330.7,2742.37
14331.2,2732.12
14332.7,2721.97
14335.2,2712.01
14338.7,2702.35
14343.1,2693.07
14348.3,2684.27
14354.4,2676.03
14361.3,2668.43
14368.9,2661.53
14377.2,2655.42
14386,2650.14
14395.3,2645.76
14404.9,2642.3
14414.9,2639.8
14425,2638.3
14435.3,2637.8
14895.4,2637.8
Z" /> 
<path style="fill:#000000; fill-opacity:1.0; 
stroke:#000000; stroke-width:0; stroke-opacity:1; 
stroke-linecap:round; stroke-linejoin:round;fill-rule:evenodd;"
d="M 14905.7,1220.98
14915.8,1222.48
14925.8,1224.98
14935.4,1228.43
14944.7,1232.82
14953.5,1238.1
14961.8,1244.21
14969.4,1251.1
14976.3,1258.71
14982.4,1266.95
14987.7,1275.75
14992,1285.03
14995.5,1294.69
14998,1304.65
14999.5,1314.8
15000,1325.05
15000,2178.89
14999.5,2189.14
14998,2199.29
14995.5,2209.24
14992,2218.91
14987.7,2228.19
14982.4,2236.99
14976.3,2245.23
14969.4,2252.83
14961.8,2259.73
14953.5,2265.84
14944.7,2271.12
14935.4,2275.5
14925.8,2278.96
14915.8,2281.46
14905.7,2282.96
14895.4,2283.46
14435.3,2283.46
14425,2282.96
14414.9,2281.46
14404.9,2278.96
14395.3,2275.5
14386,2271.12
14377.2,2265.84
14368.9,2259.73
14361.3,2252.83
14354.4,2245.23
14348.3,2236.99
14343.1,2228.19
14338.7,2218.91
14335.2,2209.24
14332.7,2199.29
14331.2,2189.14
14330.7,2178.89
14330.7,1325.05
14331.2,1314.8
14332.7,1304.65
14335.2,1294.69
14338.7,1285.03
14343.1,1275.75
14348.3,1266.95
14354.4,1258.71
14361.3,1251.1
14368.9,1244.21
14377.2,1238.1
14386,1232.82
14395.3,1228.43
14404.9,1224.98
14414.9,1222.48
14425,1220.98
14435.3,1220.47
14895.4,1220.47
Z" /> 
</g>
<g >
</g>
<g style="fill:#000000; fill-opacity:1.0; 
stroke:#000000; stroke-width:0; stroke-opacity:1; 
stroke-linecap:round; stroke-linejoin:round;">
<path style="fill:#000000; fill-opacity:1.0; 
stroke:#000000; stroke-width:0; stroke-opacity:1; 
stroke-linecap:round; stroke-linejoin:round;fill-rule:evenodd;"
d="M 17464.7,2638.3
17474.9,2639.8
17484.8,2642.3
17494.5,2645.76
17503.8,2650.14
17512.6,2655.42
17520.8,2661.53
17528.4,2668.43
17535.3,2676.03
17541.4,2684.27
17546.7,2693.07
17551.1,2702.35
17554.6,2712.01
17557,2721.97
17558.6,2732.12
17559.1,2742.37
17559.1,3596.21
17558.6,3606.46
17557,3616.61
17554.6,3626.57
17551.1,3636.23
17546.7,3645.51
17541.4,3654.31
17535.3,3662.55
17528.4,3670.16
17520.8,3677.05
17512.6,3683.16
17503.8,3688.44
17494.5,3692.83
17484.8,3696.28
17474.9,3698.78
17464.7,3700.28
17454.5,3700.79
16994.3,3700.79
16984.1,3700.28
16973.9,3698.78
16964,3696.28
16954.3,3692.83
16945,3688.44
16936.2,3683.16
16928,3677.05
16920.4,3670.16
16913.5,3662.55
16907.4,3654.31
16902.1,3645.51
16897.7,3636.23
16894.3,3626.57
16891.8,3616.61
16890.3,3606.46
16889.8,3596.21
16889.8,2742.37
16890.3,2732.12
16891.8,2721.97
16894.3,2712.01
16897.7,2702.35
16902.1,2693.07
16907.4,2684.27
16913.5,2676.03
16920.4,2668.43
16928,2661.53
16936.2,2655.42
16945,2650.14
16954.3,2645.76
16964,2642.3
16973.9,2639.8
16984.1,2638.3
16994.3,2637.8
17454.5,2637.8
Z" /> 
<path style="fill:#000000; fill-opacity:1.0; 
stroke:#000000; stroke-width:0; stroke-opacity:1; 
stroke-linecap:round; stroke-linejoin:round;fill-rule:evenodd;"
d="M 17464.7,1220.98
17474.9,1222.48
17484.8,1224.98
17494.5,1228.43
17503.8,1232.82
17512.6,1238.1
17520.8,1244.21
17528.4,1251.1
17535.3,1258.71
17541.4,1266.95
17546.7,1275.75
17551.1,1285.03
17554.6,1294.69
17557,1304.65
17558.6,1314.8
17559.1,1325.05
17559.1,2178.89
17558.6,2189.14
17557,2199.29
17554.6,2209.24
17551.1,2218.91
17546.7,2228.19
17541.4,2236.99
17535.3,2245.23
17528.4,2252.83
17520.8,2259.73
17512.6,2265.84
17503.8,2271.12
17494.5,2275.5
17484.8,2278.96
17474.9,2281.46
17464.7,2282.96
17454.5,2283.46
16994.3,2283.46
16984.1,2282.96
16973.9,2281.46
16964,2278.96
16954.3,2275.5
16945,2271.12
16936.2,2265.84
16928,2259.73
16920.4,2252.83
16913.5,2245.23
16907.4,2236.99
16902.1,2228.19
16897.7,2218.91
16894.3,2209.24
16891.8,2199.29
16890.3,2189.14
16889.8,2178.89
16889.8,1325.05
16890.3,1314.8
16891.8,1304.65
16894.3,1294.69
16897.7,1285.03
16902.1,1275.75
16907.4,1266.95
16913.5,1258.71
16920.4,1251.1
16928,1244.21
16936.2,1238.1
16945,1232.82
16954.3,1228.43
16964,1224.98
16973.9,1222.48
16984.1,1220.98
16994.3,1220.47
17454.5,1220.47
Z" /> 
</g>
<g >
</g>
<g style="fill:#000000; fill-opacity:1.0; 
stroke:#000000; stroke-width:0; stroke-opacity:1; 
stroke-linecap:round; stroke-linejoin:round;">
<path style="fill:#000000; fill-opacity:1.0; 
stroke:#000000; stroke-width:0; stroke-opacity:1; 
stroke-linecap:round; stroke-linejoin:round;fill-rule:evenodd;"
d="M 20023.8,2638.3
20033.9,2639.8
20043.9,2642.3
20053.6,2645.76
20062.8,2650.14
20071.6,2655.42
20079.9,2661.53
20087.5,2668.43
20094.4,2676.03
20100.5,2684.27
20105.8,2693.07
20110.2,2702.35
20113.6,2712.01
20116.1,2721.97
20117.6,2732.12
20118.1,2742.37
20118.1,3596.21
20117.6,3606.46
20116.1,3616.61
20113.6,3626.57
20110.2,3636.23
20105.8,3645.51
20100.5,3654.31
20094.4,3662.55
20087.5,3670.16
20079.9,3677.05
20071.6,3683.16
20062.8,3688.44
20053.6,3692.83
20043.9,3696.28
20033.9,3698.78
20023.8,3700.28
20013.5,3700.79
19553.4,3700.79
19543.1,3700.28
19533,3698.78
19523,3696.28
19513.4,3692.83
19504.1,3688.44
19495.3,3683.16
19487.1,3677.05
19479.4,3670.16
19472.6,3662.55
19466.4,3654.31
19461.2,3645.51
19456.8,3636.23
19453.3,3626.57
19450.8,3616.61
19449.3,3606.46
19448.8,3596.21
19448.8,2742.37
19449.3,2732.12
19450.8,2721.97
19453.3,2712.01
19456.8,2702.35
19461.2,2693.07
19466.4,2684.27
19472.6,2676.03
19479.4,2668.43
19487.1,2661.53
19495.3,2655.42
19504.1,2650.14
19513.4,2645.76
19523,2642.3
19533,2639.8
19543.1,2638.3
19553.4,2637.8
20013.5,2637.8
Z" /> 
<path style="fill:#000000; fill-opacity:1.0; 
stroke:#000000; stroke-width:0; stroke-opacity:1; 
stroke-linecap:round; stroke-linejoin:round;fill-rule:evenodd;"
d="M 20023.8,1220.98
20033.9,1222.48
20043.9,1224.98
20053.6,1228.43
20062.8,1232.82
20071.6,1238.1
20079.9,1244.21
20087.5,1251.1
20094.4,1258.71
20100.5,1266.95
20105.8,1275.75
20110.2,1285.03
20113.6,1294.69
20116.1,1304.65
20117.6,1314.8
20118.1,1325.05
20118.1,2178.89
20117.6,2189.14
20116.1,2199.29
20113.6,2209.24
20110.2,2218.91
20105.8,2228.19
20100.5,2236.99
20094.4,2245.23
20087.5,2252.83
20079.9,2259.73
20071.6,2265.84
20062.8,2271.12
20053.6,2275.5
20043.9,2278.96
20033.9,2281.46
20023.8,2282.96
20013.5,2283.46
19553.4,2283.46
19543.1,2282.96
19533,2281.46
19523,2278.96
19513.4,2275.5
19504.1,2271.12
19495.3,2265.84
19487.1,2259.73
19479.4,2252.83
19472.6,2245.23
19466.4,2236.99
19461.2,2228.19
19456.8,2218.91
19453.3,2209.24
19450.8,2199.29
19449.3,2189.14
19448.8,2178.89
19448.8,1325.05
19449.3,1314.8
19450.8,1304.65
19453.3,1294.69
19456.8,1285.03
19461.2,1275.75
19466.4,1266.95
19472.6,1258.71
19479.4,1251.1
19487.1,1244.21
19495.3,1238.1
19504.1,1232.82
19513.4,1228.43
19523,1224.98
19533,1222.48
19543.1,1220.98
19553.4,1220.47
20013.5,1220.47
Z" /> 
</g>
<g >
</g>
<g style="fill:#000000; fill-opacity:1.0; 
stroke:#000000; stroke-width:0; stroke-opacity:1; 
stroke-linecap:round; stroke-linejoin:round;">
<path style="fill:#000000; fill-opacity:1.0; 
stroke:#000000; stroke-width:0; stroke-opacity:1; 
stroke-linecap:round; stroke-linejoin:round;fill-rule:evenodd;"
d="M 7886.81,5039.88
7897.08,5041.4
7907.16,5043.93
7916.94,5047.43
7926.33,5051.87
7935.24,5057.21
7943.58,5063.4
7951.28,5070.37
7958.26,5078.07
7964.44,5086.41
7969.78,5095.32
7974.23,5104.71
7977.73,5114.5
7980.25,5124.57
7981.77,5134.85
7982.28,5145.22
7982.28,5681.55
7981.77,5691.92
7980.25,5702.2
7977.73,5712.28
7974.23,5722.06
7969.78,5731.45
7964.44,5740.36
7958.26,5748.7
7951.28,5756.4
7943.58,5763.37
7935.24,5769.56
7926.33,5774.9
7916.94,5779.34
7907.16,5782.84
7897.08,5785.37
7886.81,5786.89
7876.43,5787.4
7527.11,5787.4
7516.74,5786.89
7506.46,5785.37
7496.39,5782.84
7486.6,5779.34
7477.21,5774.9
7468.3,5769.56
7459.96,5763.37
7452.26,5756.4
7445.29,5748.7
7439.1,5740.36
7433.76,5731.45
7429.32,5722.06
7425.82,5712.28
7423.29,5702.2
7421.77,5691.92
7421.26,5681.55
7421.26,5145.22
7421.77,5134.85
7423.29,5124.57
7425.82,5114.5
7429.32,5104.71
7433.76,5095.32
7439.1,5086.41
7445.29,5078.07
7452.26,5070.37
7459.96,5063.4
7468.3,5057.21
7477.21,5051.87
7486.6,5047.43
7496.39,5043.93
7506.46,5041.4
7516.74,5039.88
7527.11,5039.37
7876.43,5039.37
Z" /> 
<path style="fill:#000000; fill-opacity:1.0; 
stroke:#000000; stroke-width:0; stroke-opacity:1; 
stroke-linecap:round; stroke-linejoin:round;fill-rule:evenodd;"
d="M 6656.49,5039.88
6666.77,5041.4
6676.84,5043.93
6686.62,5047.43
6696.01,5051.87
6704.92,5057.21
6713.27,5063.4
6720.96,5070.37
6727.94,5078.07
6734.13,5086.41
6739.47,5095.32
6743.91,5104.71
6747.41,5114.5
6749.93,5124.57
6751.46,5134.85
6751.97,5145.22
6751.97,5681.55
6751.46,5691.92
6749.93,5702.2
6747.41,5712.28
6743.91,5722.06
6739.47,5731.45
6734.13,5740.36
6727.94,5748.7
6720.96,5756.4
6713.27,5763.37
6704.92,5769.56
6696.01,5774.9
6686.62,5779.34
6676.84,5782.84
6666.77,5785.37
6656.49,5786.89
6646.12,5787.4
6296.8,5787.4
6286.42,5786.89
6276.15,5785.37
6266.07,5782.84
6256.29,5779.34
6246.9,5774.9
6237.99,5769.56
6229.65,5763.37
6221.95,5756.4
6214.97,5748.7
6208.78,5740.36
6203.44,5731.45
6199,5722.06
6195.5,5712.28
6192.98,5702.2
6191.45,5691.92
6190.94,5681.55
6190.94,5145.22
6191.45,5134.85
6192.98,5124.57
6195.5,5114.5
6199,5104.71
6203.44,5095.32
6208.78,5086.41
6214.97,5078.07
6221.95,5070.37
6229.65,5063.4
6237.99,5057.21
6246.9,5051.87
6256.29,5047.43
6266.07,5043.93
6276.15,5041.4
6286.42,5039.88
6296.8,5039.37
6646.12,5039.37
Z" /> 
</g>
<g >
</g>
<g style="fill:#000000; fill-opacity:1.0; 
stroke:#000000; stroke-width:0; stroke-opacity:1; 
stroke-linecap:round; stroke-linejoin:round;">
<path style="fill:#000000; fill-opacity:1.0; 
stroke:#000000; stroke-width:0; stroke-opacity:1; 
stroke-linecap:round; stroke-linejoin:round;fill-rule:evenodd;"
d="M 15564,7598.94
15574.2,7600.46
15584.3,7602.98
15594.1,7606.48
15603.5,7610.92
15612.4,7616.26
15620.7,7622.45
15628.4,7629.43
15635.4,7637.13
15641.6,7645.47
15646.9,7654.38
15651.4,7663.77
15654.9,7673.55
15657.4,7683.63
15658.9,7693.9
15659.4,7704.28
15659.4,8240.6
15658.9,8250.98
15657.4,8261.25
15654.9,8271.33
15651.4,8281.11
15646.9,8290.5
15641.6,8299.41
15635.4,8307.76
15628.4,8315.45
15620.7,8322.43
15612.4,8328.62
15603.5,8333.96
15594.1,8338.4
15584.3,8341.9
15574.2,8344.42
15564,8345.95
15553.6,8346.46
15204.3,8346.46
15193.9,8345.95
15183.6,8344.42
15173.6,8341.9
15163.8,8338.4
15154.4,8333.96
15145.5,8328.62
15137.1,8322.43
15129.4,8315.45
15122.5,8307.76
15116.3,8299.41
15110.9,8290.5
15106.5,8281.11
15103,8271.33
15100.5,8261.25
15098.9,8250.98
15098.4,8240.6
15098.4,7704.28
15098.9,7693.9
15100.5,7683.63
15103,7673.55
15106.5,7663.77
15110.9,7654.38
15116.3,7645.47
15122.5,7637.13
15129.4,7629.43
15137.1,7622.45
15145.5,7616.26
15154.4,7610.92
15163.8,7606.48
15173.6,7602.98
15183.6,7600.46
15193.9,7598.94
15204.3,7598.43
15553.6,7598.43
Z" /> 
<path style="fill:#000000; fill-opacity:1.0; 
stroke:#000000; stroke-width:0; stroke-opacity:1; 
stroke-linecap:round; stroke-linejoin:round;fill-rule:evenodd;"
d="M 14333.7,7598.94
14343.9,7600.46
14354,7602.98
14363.8,7606.48
14373.2,7610.92
14382.1,7616.26
14390.4,7622.45
14398.1,7629.43
14405.1,7637.13
14411.3,7645.47
14416.6,7654.38
14421.1,7663.77
14424.6,7673.55
14427.1,7683.63
14428.6,7693.9
14429.1,7704.28
14429.1,8240.6
14428.6,8250.98
14427.1,8261.25
14424.6,8271.33
14421.1,8281.11
14416.6,8290.5
14411.3,8299.41
14405.1,8307.76
14398.1,8315.45
14390.4,8322.43
14382.1,8328.62
14373.2,8333.96
14363.8,8338.4
14354,8341.9
14343.9,8344.42
14333.7,8345.95
14323.3,8346.46
13974,8346.46
13963.6,8345.95
13953.3,8344.42
13943.2,8341.9
13933.5,8338.4
13924.1,8333.96
13915.2,8328.62
13906.8,8322.43
13899.1,8315.45
13892.1,8307.76
13885.9,8299.41
13880.6,8290.5
13876.2,8281.11
13872.7,8271.33
13870.1,8261.25
13868.6,8250.98
13868.1,8240.6
13868.1,7704.28
13868.6,7693.9
13870.1,7683.63
13872.7,7673.55
13876.2,7663.77
13880.6,7654.38
13885.9,7645.47
13892.1,7637.13
13899.1,7629.43
13906.8,7622.45
13915.2,7616.26
13924.1,7610.92
13933.5,7606.48
13943.2,7602.98
13953.3,7600.46
13963.6,7598.94
13974,7598.43
14323.3,7598.43
Z" /> 
</g>
<g >
</g>
<g style="fill:#000000; fill-opacity:1.0; 
stroke:#000000; stroke-width:0; stroke-opacity:1; 
stroke-linecap:round; stroke-linejoin:round;">
<path style="fill:#000000; fill-opacity:1.0; 
stroke:#000000; stroke-width:0; stroke-opacity:1; 
stroke-linecap:round; stroke-linejoin:round;fill-rule:evenodd;"
d="M 13743.1,5039.88
13753.4,5041.4
13763.5,5043.93
13773.2,5047.43
13782.6,5051.87
13791.5,5057.21
13799.9,5063.4
13807.6,5070.37
13814.6,5078.07
13820.7,5086.41
13826.1,5095.32
13830.5,5104.71
13834,5114.5
13836.5,5124.57
13838.1,5134.85
13838.6,5145.22
13838.6,5681.55
13838.1,5691.92
13836.5,5702.2
13834,5712.28
13830.5,5722.06
13826.1,5731.45
13820.7,5740.36
13814.6,5748.7
13807.6,5756.4
13799.9,5763.37
13791.5,5769.56
13782.6,5774.9
13773.2,5779.34
13763.5,5782.84
13753.4,5785.37
13743.1,5786.89
13732.7,5787.4
13383.4,5787.4
13373,5786.89
13362.8,5785.37
13352.7,5782.84
13342.9,5779.34
13333.5,5774.9
13324.6,5769.56
13316.3,5763.37
13308.6,5756.4
13301.6,5748.7
13295.4,5740.36
13290.1,5731.45
13285.6,5722.06
13282.1,5712.28
13279.6,5702.2
13278.1,5691.92
13277.6,5681.55
13277.6,5145.22
13278.1,5134.85
13279.6,5124.57
13282.1,5114.5
13285.6,5104.71
13290.1,5095.32
13295.4,5086.41
13301.6,5078.07
13308.6,5070.37
13316.3,5063.4
13324.6,5057.21
13333.5,5051.87
13342.9,5047.43
13352.7,5043.93
13362.8,5041.4
13373,5039.88
13383.4,5039.37
13732.7,5039.37
Z" /> 
<path style="fill:#000000; fill-opacity:1.0; 
stroke:#000000; stroke-width:0; stroke-opacity:1; 
stroke-linecap:round; stroke-linejoin:round;fill-rule:evenodd;"
d="M 14973.4,5039.88
14983.7,5041.4
14993.8,5043.93
15003.6,5047.43
15012.9,5051.87
15021.9,5057.21
15030.2,5063.4
15037.9,5070.37
15044.9,5078.07
15051.1,5086.41
15056.4,5095.32
15060.8,5104.71
15064.3,5114.5
15066.9,5124.57
15068.4,5134.85
15068.9,5145.22
15068.9,5681.55
15068.4,5691.92
15066.9,5702.2
15064.3,5712.28
15060.8,5722.06
15056.4,5731.45
15051.1,5740.36
15044.9,5748.7
15037.9,5756.4
15030.2,5763.37
15021.9,5769.56
15012.9,5774.9
15003.6,5779.34
14993.8,5782.84
14983.7,5785.37
14973.4,5786.89
14963,5787.4
14613.7,5787.4
14603.4,5786.89
14593.1,5785.37
14583,5782.84
14573.2,5779.34
14563.8,5774.9
14554.9,5769.56
14546.6,5763.37
14538.9,5756.4
14531.9,5748.7
14525.7,5740.36
14520.4,5731.45
14515.9,5722.06
14512.4,5712.28
14509.9,5702.2
14508.4,5691.92
14507.9,5681.55
14507.9,5145.22
14508.4,5134.85
14509.9,5124.57
14512.4,5114.5
14515.9,5104.71
14520.4,5095.32
14525.7,5086.41
14531.9,5078.07
14538.9,5070.37
14546.6,5063.4
14554.9,5057.21
14563.8,5051.87
14573.2,5047.43
14583,5043.93
14593.1,5041.4
14603.4,5039.88
14613.7,5039.37
14963,5039.37
Z" /> 
</g>
<g >
</g>
<g style="fill:#000000; fill-opacity:1.0; 
stroke:#000000; stroke-width:0; stroke-opacity:1; 
stroke-linecap:round; stroke-linejoin:round;">
<path style="fill:#000000; fill-opacity:1.0; 
stroke:#000000; stroke-width:0; stroke-opacity:1; 
stroke-linecap:round; stroke-linejoin:round;fill-rule:evenodd;"
d="M 6065.94,7598.94
6076.22,7600.46
6086.29,7602.98
6096.07,7606.48
6105.46,7610.92
6114.37,7616.26
6122.72,7622.45
6130.41,7629.43
6137.39,7637.13
6143.58,7645.47
6148.92,7654.38
6153.36,7663.77
6156.86,7673.55
6159.38,7683.63
6160.91,7693.9
6161.42,7704.28
6161.42,8240.6
6160.91,8250.98
6159.38,8261.25
6156.86,8271.33
6153.36,8281.11
6148.92,8290.5
6143.58,8299.41
6137.39,8307.76
6130.41,8315.45
6122.72,8322.43
6114.37,8328.62
6105.46,8333.96
6096.07,8338.4
6086.29,8341.9
6076.22,8344.42
6065.94,8345.95
6055.56,8346.46
5706.25,8346.46
5695.87,8345.95
5685.6,8344.42
5675.52,8341.9
5665.74,8338.4
5656.35,8333.96
5647.44,8328.62
5639.09,8322.43
5631.4,8315.45
5624.42,8307.76
5618.23,8299.41
5612.89,8290.5
5608.45,8281.11
5604.95,8271.33
5602.43,8261.25
5600.9,8250.98
5600.39,8240.6
5600.39,7704.28
5600.9,7693.9
5602.43,7683.63
5604.95,7673.55
5608.45,7663.77
5612.89,7654.38
5618.23,7645.47
5624.42,7637.13
5631.4,7629.43
5639.09,7622.45
5647.44,7616.26
5656.35,7610.92
5665.74,7606.48
5675.52,7602.98
5685.6,7600.46
5695.87,7598.94
5706.25,7598.43
6055.56,7598.43
Z" /> 
<path style="fill:#000000; fill-opacity:1.0; 
stroke:#000000; stroke-width:0; stroke-opacity:1; 
stroke-linecap:round; stroke-linejoin:round;fill-rule:evenodd;"
d="M 7296.25,7598.94
7306.53,7600.46
7316.61,7602.98
7326.39,7606.48
7335.78,7610.92
7344.69,7616.26
7353.03,7622.45
7360.73,7629.43
7367.7,7637.13
7373.89,7645.47
7379.23,7654.38
7383.67,7663.77
7387.17,7673.55
7389.7,7683.63
7391.22,7693.9
7391.73,7704.28
7391.73,8240.6
7391.22,8250.98
7389.7,8261.25
7387.17,8271.33
7383.67,8281.11
7379.23,8290.5
7373.89,8299.41
7367.7,8307.76
7360.73,8315.45
7353.03,8322.43
7344.69,8328.62
7335.78,8333.96
7326.39,8338.4
7316.61,8341.9
7306.53,8344.42
7296.25,8345.95
7285.88,8346.46
6936.56,8346.46
6926.19,8345.95
6915.91,8344.42
6905.83,8341.9
6896.05,8338.4
6886.66,8333.96
6877.75,8328.62
6869.41,8322.43
6861.71,8315.45
6854.74,8307.76
6848.55,8299.41
6843.21,8290.5
6838.77,8281.11
6835.27,8271.33
6832.74,8261.25
6831.22,8250.98
6830.71,8240.6
6830.71,7704.28
6831.22,7693.9
6832.74,7683.63
6835.27,7673.55
6838.77,7663.77
6843.21,7654.38
6848.55,7645.47
6854.74,7637.13
6861.71,7629.43
6869.41,7622.45
6877.75,7616.26
6886.66,7610.92
6896.05,7606.48
6905.83,7602.98
6915.91,7600.46
6926.19,7598.94
6936.56,7598.43
7285.88,7598.43
Z" /> 
</g>
<g >
</g>
<g >
</g>
<g >
</g>
</g> 
</svg>
