<?xml version="1.0" standalone="no"?>
 <!DOCTYPE svg PUBLIC "-//W3C//DTD SVG 1.1//EN" 
 "http://www.w3.org/Graphics/SVG/1.1/DTD/svg11.dtd"> 
<svg
  xmlns:svg="http://www.w3.org/2000/svg"
  xmlns="http://www.w3.org/2000/svg"
  xmlns:xlink="http://www.w3.org/1999/xlink"
  version="1.1"
  width="29.700220cm" height="21.000720cm" viewBox="0 0 116930 82680">
<title>SVG Picture created as MicroBBPS-B_Mask.svg date 2021/02/24 21:51:50 </title>
  <desc>Picture generated by PCBNEW </desc>
<g style="fill:#000000; fill-opacity:1;stroke:#000000; stroke-opacity:1;
stroke-linecap:round; stroke-linejoin:round;"
 transform="translate(0 0) scale(1 1)">
</g>
<g style="fill:#000000; fill-opacity:0.0; 
stroke:#000000; stroke-width:-0.000393701; stroke-opacity:1; 
stroke-linecap:round; stroke-linejoin:round;">
</g>
<g style="fill:#000000; fill-opacity:0.0; 
stroke:#000000; stroke-width:19.685; stroke-opacity:1; 
stroke-linecap:round; stroke-linejoin:round;">
<path d="M7874 -1574
L14173 -1574
" />
<path d="M21259 -38188
L21259 -36220
" />
<path d="M20078 -39370
L21259 -38188
" />
<path d="M4724 -39370
L20078 -39370
" />
<path d="M787 -39370
L1574 -39370
" />
<path d="M0 -38582
L787 -39370
" />
<path d="M0 -37795
L0 -38582
" />
<path d="M15748 0
L19685 0
" />
<path d="M14173 -1574
L15748 0
" />
<path d="M6299 0
L7874 -1574
" />
<path d="M1181 0
L6299 0
" />
<path d="M21259 -1574
L19685 0
" />
<path d="M21259 -36220
L21259 -1574
" />
<path d="M1574 -39370
L4724 -39370
" />
<path d="M0 -1181
L0 -37795
" />
<path d="M1181 0
L0 -1181
" />
<g >
</g>
<g style="fill:#000000; fill-opacity:1.0; 
stroke:#000000; stroke-width:0; stroke-opacity:1; 
stroke-linecap:round; stroke-linejoin:round;">
<circle cx="20129.9" cy="-3854.33" r="354.331" /> 
<circle cx="19129.9" cy="-3854.33" r="354.331" /> 
<circle cx="1129.92" cy="-3854.33" r="354.331" /> 
<circle cx="2129.92" cy="-3854.33" r="354.331" /> 
<circle cx="13129.9" cy="-3854.33" r="354.331" /> 
<circle cx="12129.9" cy="-3854.33" r="354.331" /> 
<circle cx="16129.9" cy="-3854.33" r="354.331" /> 
<circle cx="14129.9" cy="-3854.33" r="354.331" /> 
<circle cx="15129.9" cy="-3854.33" r="354.331" /> 
<circle cx="9129.92" cy="-3854.33" r="354.331" /> 
<circle cx="8129.92" cy="-3854.33" r="354.331" /> 
<circle cx="7129.92" cy="-3854.33" r="354.331" /> 
<circle cx="6129.92" cy="-3854.33" r="354.331" /> 
<circle cx="5129.92" cy="-3854.33" r="354.331" /> 
<circle cx="13129.9" cy="-4854.33" r="354.331" /> 
<circle cx="19129.9" cy="-4854.33" r="354.331" /> 
<circle cx="15129.9" cy="-4854.33" r="354.331" /> 
<circle cx="14129.9" cy="-4854.33" r="354.331" /> 
<circle cx="12129.9" cy="-4854.33" r="354.331" /> 
<circle cx="16129.9" cy="-4854.33" r="354.331" /> 
<circle cx="2129.92" cy="-4854.33" r="354.331" /> 
<circle cx="1129.92" cy="-4854.33" r="354.331" /> 
<circle cx="20129.9" cy="-4854.33" r="354.331" /> 
<circle cx="9129.92" cy="-4854.33" r="354.331" /> 
<circle cx="5129.92" cy="-4854.33" r="354.331" /> 
<circle cx="6129.92" cy="-4854.33" r="354.331" /> 
<circle cx="8129.92" cy="-4854.33" r="354.331" /> 
<circle cx="7129.92" cy="-4854.33" r="354.331" /> 
<circle cx="13129.9" cy="-5854.33" r="354.331" /> 
<circle cx="19129.9" cy="-5854.33" r="354.331" /> 
<circle cx="15129.9" cy="-5854.33" r="354.331" /> 
<circle cx="14129.9" cy="-5854.33" r="354.331" /> 
<circle cx="12129.9" cy="-5854.33" r="354.331" /> 
<circle cx="16129.9" cy="-5854.33" r="354.331" /> 
<circle cx="2129.92" cy="-5854.33" r="354.331" /> 
<circle cx="1129.92" cy="-5854.33" r="354.331" /> 
<circle cx="20129.9" cy="-5854.33" r="354.331" /> 
<circle cx="9129.92" cy="-5854.33" r="354.331" /> 
<circle cx="5129.92" cy="-5854.33" r="354.331" /> 
<circle cx="6129.92" cy="-5854.33" r="354.331" /> 
<circle cx="8129.92" cy="-5854.33" r="354.331" /> 
<circle cx="7129.92" cy="-5854.33" r="354.331" /> 
<circle cx="13129.9" cy="-6854.33" r="354.331" /> 
<circle cx="19129.9" cy="-6854.33" r="354.331" /> 
<circle cx="15129.9" cy="-6854.33" r="354.331" /> 
<circle cx="14129.9" cy="-6854.33" r="354.331" /> 
<circle cx="12129.9" cy="-6854.33" r="354.331" /> 
<circle cx="16129.9" cy="-6854.33" r="354.331" /> 
<circle cx="2129.92" cy="-6854.33" r="354.331" /> 
<circle cx="1129.92" cy="-6854.33" r="354.331" /> 
<circle cx="20129.9" cy="-6854.33" r="354.331" /> 
<circle cx="9129.92" cy="-6854.33" r="354.331" /> 
<circle cx="5129.92" cy="-6854.33" r="354.331" /> 
<circle cx="6129.92" cy="-6854.33" r="354.331" /> 
<circle cx="8129.92" cy="-6854.33" r="354.331" /> 
<circle cx="7129.92" cy="-6854.33" r="354.331" /> 
<circle cx="13129.9" cy="-7854.33" r="354.331" /> 
<circle cx="19129.9" cy="-7854.33" r="354.331" /> 
<circle cx="15129.9" cy="-7854.33" r="354.331" /> 
<circle cx="14129.9" cy="-7854.33" r="354.331" /> 
<circle cx="12129.9" cy="-7854.33" r="354.331" /> 
<circle cx="16129.9" cy="-7854.33" r="354.331" /> 
<circle cx="2129.92" cy="-7854.33" r="354.331" /> 
<circle cx="1129.92" cy="-7854.33" r="354.331" /> 
<circle cx="20129.9" cy="-7854.33" r="354.331" /> 
<circle cx="9129.92" cy="-7854.33" r="354.331" /> 
<circle cx="5129.92" cy="-7854.33" r="354.331" /> 
<circle cx="6129.92" cy="-7854.33" r="354.331" /> 
<circle cx="8129.92" cy="-7854.33" r="354.331" /> 
<circle cx="7129.92" cy="-7854.33" r="354.331" /> 
<circle cx="13129.9" cy="-8854.33" r="354.331" /> 
<circle cx="19129.9" cy="-8854.33" r="354.331" /> 
<circle cx="15129.9" cy="-8854.33" r="354.331" /> 
<circle cx="14129.9" cy="-8854.33" r="354.331" /> 
<circle cx="12129.9" cy="-8854.33" r="354.331" /> 
<circle cx="16129.9" cy="-8854.33" r="354.331" /> 
<circle cx="2129.92" cy="-8854.33" r="354.331" /> 
<circle cx="1129.92" cy="-8854.33" r="354.331" /> 
<circle cx="20129.9" cy="-8854.33" r="354.331" /> 
<circle cx="9129.92" cy="-8854.33" r="354.331" /> 
<circle cx="5129.92" cy="-8854.33" r="354.331" /> 
<circle cx="6129.92" cy="-8854.33" r="354.331" /> 
<circle cx="8129.92" cy="-8854.33" r="354.331" /> 
<circle cx="7129.92" cy="-8854.33" r="354.331" /> 
<circle cx="13129.9" cy="-9854.33" r="354.331" /> 
<circle cx="19129.9" cy="-9854.33" r="354.331" /> 
<circle cx="15129.9" cy="-9854.33" r="354.331" /> 
<circle cx="14129.9" cy="-9854.33" r="354.331" /> 
<circle cx="12129.9" cy="-9854.33" r="354.331" /> 
<circle cx="16129.9" cy="-9854.33" r="354.331" /> 
<circle cx="2129.92" cy="-9854.33" r="354.331" /> 
<circle cx="1129.92" cy="-9854.33" r="354.331" /> 
<circle cx="20129.9" cy="-9854.33" r="354.331" /> 
<circle cx="9129.92" cy="-9854.33" r="354.331" /> 
<circle cx="5129.92" cy="-9854.33" r="354.331" /> 
<circle cx="6129.92" cy="-9854.33" r="354.331" /> 
<circle cx="8129.92" cy="-9854.33" r="354.331" /> 
<circle cx="7129.92" cy="-9854.33" r="354.331" /> 
<circle cx="13129.9" cy="-10854.3" r="354.331" /> 
<circle cx="19129.9" cy="-10854.3" r="354.331" /> 
<circle cx="15129.9" cy="-10854.3" r="354.331" /> 
<circle cx="14129.9" cy="-10854.3" r="354.331" /> 
<circle cx="12129.9" cy="-10854.3" r="354.331" /> 
<circle cx="16129.9" cy="-10854.3" r="354.331" /> 
<circle cx="2129.92" cy="-10854.3" r="354.331" /> 
<circle cx="1129.92" cy="-10854.3" r="354.331" /> 
<circle cx="20129.9" cy="-10854.3" r="354.331" /> 
<circle cx="9129.92" cy="-10854.3" r="354.331" /> 
<circle cx="5129.92" cy="-10854.3" r="354.331" /> 
<circle cx="6129.92" cy="-10854.3" r="354.331" /> 
<circle cx="8129.92" cy="-10854.3" r="354.331" /> 
<circle cx="7129.92" cy="-10854.3" r="354.331" /> 
<circle cx="13129.9" cy="-11854.3" r="354.331" /> 
<circle cx="19129.9" cy="-11854.3" r="354.331" /> 
<circle cx="15129.9" cy="-11854.3" r="354.331" /> 
<circle cx="14129.9" cy="-11854.3" r="354.331" /> 
<circle cx="12129.9" cy="-11854.3" r="354.331" /> 
<circle cx="16129.9" cy="-11854.3" r="354.331" /> 
<circle cx="2129.92" cy="-11854.3" r="354.331" /> 
<circle cx="1129.92" cy="-11854.3" r="354.331" /> 
<circle cx="20129.9" cy="-11854.3" r="354.331" /> 
<circle cx="9129.92" cy="-11854.3" r="354.331" /> 
<circle cx="5129.92" cy="-11854.3" r="354.331" /> 
<circle cx="6129.92" cy="-11854.3" r="354.331" /> 
<circle cx="8129.92" cy="-11854.3" r="354.331" /> 
<circle cx="7129.92" cy="-11854.3" r="354.331" /> 
<circle cx="13129.9" cy="-12854.3" r="354.331" /> 
<circle cx="19129.9" cy="-12854.3" r="354.331" /> 
<circle cx="15129.9" cy="-12854.3" r="354.331" /> 
<circle cx="14129.9" cy="-12854.3" r="354.331" /> 
<circle cx="12129.9" cy="-12854.3" r="354.331" /> 
<circle cx="16129.9" cy="-12854.3" r="354.331" /> 
<circle cx="2129.92" cy="-12854.3" r="354.331" /> 
<circle cx="1129.92" cy="-12854.3" r="354.331" /> 
<circle cx="20129.9" cy="-12854.3" r="354.331" /> 
<circle cx="9129.92" cy="-12854.3" r="354.331" /> 
<circle cx="5129.92" cy="-12854.3" r="354.331" /> 
<circle cx="6129.92" cy="-12854.3" r="354.331" /> 
<circle cx="8129.92" cy="-12854.3" r="354.331" /> 
<circle cx="7129.92" cy="-12854.3" r="354.331" /> 
<circle cx="13129.9" cy="-13854.3" r="354.331" /> 
<circle cx="19129.9" cy="-13854.3" r="354.331" /> 
<circle cx="15129.9" cy="-13854.3" r="354.331" /> 
<circle cx="14129.9" cy="-13854.3" r="354.331" /> 
<circle cx="12129.9" cy="-13854.3" r="354.331" /> 
<circle cx="16129.9" cy="-13854.3" r="354.331" /> 
<circle cx="2129.92" cy="-13854.3" r="354.331" /> 
<circle cx="1129.92" cy="-13854.3" r="354.331" /> 
<circle cx="20129.9" cy="-13854.3" r="354.331" /> 
<circle cx="9129.92" cy="-13854.3" r="354.331" /> 
<circle cx="5129.92" cy="-13854.3" r="354.331" /> 
<circle cx="6129.92" cy="-13854.3" r="354.331" /> 
<circle cx="8129.92" cy="-13854.3" r="354.331" /> 
<circle cx="7129.92" cy="-13854.3" r="354.331" /> 
<circle cx="13129.9" cy="-14854.3" r="354.331" /> 
<circle cx="19129.9" cy="-14854.3" r="354.331" /> 
<circle cx="15129.9" cy="-14854.3" r="354.331" /> 
<circle cx="14129.9" cy="-14854.3" r="354.331" /> 
<circle cx="12129.9" cy="-14854.3" r="354.331" /> 
<circle cx="16129.9" cy="-14854.3" r="354.331" /> 
<circle cx="2129.92" cy="-14854.3" r="354.331" /> 
<circle cx="1129.92" cy="-14854.3" r="354.331" /> 
<circle cx="20129.9" cy="-14854.3" r="354.331" /> 
<circle cx="9129.92" cy="-14854.3" r="354.331" /> 
<circle cx="5129.92" cy="-14854.3" r="354.331" /> 
<circle cx="6129.92" cy="-14854.3" r="354.331" /> 
<circle cx="8129.92" cy="-14854.3" r="354.331" /> 
<circle cx="7129.92" cy="-14854.3" r="354.331" /> 
<circle cx="13129.9" cy="-15854.3" r="354.331" /> 
<circle cx="19129.9" cy="-15854.3" r="354.331" /> 
<circle cx="15129.9" cy="-15854.3" r="354.331" /> 
<circle cx="14129.9" cy="-15854.3" r="354.331" /> 
<circle cx="12129.9" cy="-15854.3" r="354.331" /> 
<circle cx="16129.9" cy="-15854.3" r="354.331" /> 
<circle cx="2129.92" cy="-15854.3" r="354.331" /> 
<circle cx="1129.92" cy="-15854.3" r="354.331" /> 
<circle cx="20129.9" cy="-15854.3" r="354.331" /> 
<circle cx="9129.92" cy="-15854.3" r="354.331" /> 
<circle cx="5129.92" cy="-15854.3" r="354.331" /> 
<circle cx="6129.92" cy="-15854.3" r="354.331" /> 
<circle cx="8129.92" cy="-15854.3" r="354.331" /> 
<circle cx="7129.92" cy="-15854.3" r="354.331" /> 
<circle cx="13129.9" cy="-16854.3" r="354.331" /> 
<circle cx="19129.9" cy="-16854.3" r="354.331" /> 
<circle cx="15129.9" cy="-16854.3" r="354.331" /> 
<circle cx="14129.9" cy="-16854.3" r="354.331" /> 
<circle cx="12129.9" cy="-16854.3" r="354.331" /> 
<circle cx="16129.9" cy="-16854.3" r="354.331" /> 
<circle cx="2129.92" cy="-16854.3" r="354.331" /> 
<circle cx="1129.92" cy="-16854.3" r="354.331" /> 
<circle cx="20129.9" cy="-16854.3" r="354.331" /> 
<circle cx="9129.92" cy="-16854.3" r="354.331" /> 
<circle cx="5129.92" cy="-16854.3" r="354.331" /> 
<circle cx="6129.92" cy="-16854.3" r="354.331" /> 
<circle cx="8129.92" cy="-16854.3" r="354.331" /> 
<circle cx="7129.92" cy="-16854.3" r="354.331" /> 
<circle cx="13129.9" cy="-17854.3" r="354.331" /> 
<circle cx="19129.9" cy="-17854.3" r="354.331" /> 
<circle cx="15129.9" cy="-17854.3" r="354.331" /> 
<circle cx="14129.9" cy="-17854.3" r="354.331" /> 
<circle cx="12129.9" cy="-17854.3" r="354.331" /> 
<circle cx="16129.9" cy="-17854.3" r="354.331" /> 
<circle cx="2129.92" cy="-17854.3" r="354.331" /> 
<circle cx="1129.92" cy="-17854.3" r="354.331" /> 
<circle cx="20129.9" cy="-17854.3" r="354.331" /> 
<circle cx="9129.92" cy="-17854.3" r="354.331" /> 
<circle cx="5129.92" cy="-17854.3" r="354.331" /> 
<circle cx="6129.92" cy="-17854.3" r="354.331" /> 
<circle cx="8129.92" cy="-17854.3" r="354.331" /> 
<circle cx="7129.92" cy="-17854.3" r="354.331" /> 
<circle cx="13129.9" cy="-18854.3" r="354.331" /> 
<circle cx="19129.9" cy="-18854.3" r="354.331" /> 
<circle cx="15129.9" cy="-18854.3" r="354.331" /> 
<circle cx="14129.9" cy="-18854.3" r="354.331" /> 
<circle cx="12129.9" cy="-18854.3" r="354.331" /> 
<circle cx="16129.9" cy="-18854.3" r="354.331" /> 
<circle cx="2129.92" cy="-18854.3" r="354.331" /> 
<circle cx="1129.92" cy="-18854.3" r="354.331" /> 
<circle cx="20129.9" cy="-18854.3" r="354.331" /> 
<circle cx="9129.92" cy="-18854.3" r="354.331" /> 
<circle cx="5129.92" cy="-18854.3" r="354.331" /> 
<circle cx="6129.92" cy="-18854.3" r="354.331" /> 
<circle cx="8129.92" cy="-18854.3" r="354.331" /> 
<circle cx="7129.92" cy="-18854.3" r="354.331" /> 
<circle cx="13129.9" cy="-19854.3" r="354.331" /> 
<circle cx="19129.9" cy="-19854.3" r="354.331" /> 
<circle cx="15129.9" cy="-19854.3" r="354.331" /> 
<circle cx="14129.9" cy="-19854.3" r="354.331" /> 
<circle cx="12129.9" cy="-19854.3" r="354.331" /> 
<circle cx="16129.9" cy="-19854.3" r="354.331" /> 
<circle cx="2129.92" cy="-19854.3" r="354.331" /> 
<circle cx="1129.92" cy="-19854.3" r="354.331" /> 
<circle cx="20129.9" cy="-19854.3" r="354.331" /> 
<circle cx="9129.92" cy="-19854.3" r="354.331" /> 
<circle cx="5129.92" cy="-19854.3" r="354.331" /> 
<circle cx="6129.92" cy="-19854.3" r="354.331" /> 
<circle cx="8129.92" cy="-19854.3" r="354.331" /> 
<circle cx="7129.92" cy="-19854.3" r="354.331" /> 
<circle cx="13129.9" cy="-20854.3" r="354.331" /> 
<circle cx="19129.9" cy="-20854.3" r="354.331" /> 
<circle cx="15129.9" cy="-20854.3" r="354.331" /> 
<circle cx="14129.9" cy="-20854.3" r="354.331" /> 
<circle cx="12129.9" cy="-20854.3" r="354.331" /> 
<circle cx="16129.9" cy="-20854.3" r="354.331" /> 
<circle cx="2129.92" cy="-20854.3" r="354.331" /> 
<circle cx="1129.92" cy="-20854.3" r="354.331" /> 
<circle cx="20129.9" cy="-20854.3" r="354.331" /> 
<circle cx="9129.92" cy="-20854.3" r="354.331" /> 
<circle cx="5129.92" cy="-20854.3" r="354.331" /> 
<circle cx="6129.92" cy="-20854.3" r="354.331" /> 
<circle cx="8129.92" cy="-20854.3" r="354.331" /> 
<circle cx="7129.92" cy="-20854.3" r="354.331" /> 
<circle cx="13129.9" cy="-21854.3" r="354.331" /> 
<circle cx="19129.9" cy="-21854.3" r="354.331" /> 
<circle cx="15129.9" cy="-21854.3" r="354.331" /> 
<circle cx="14129.9" cy="-21854.3" r="354.331" /> 
<circle cx="12129.9" cy="-21854.3" r="354.331" /> 
<circle cx="16129.9" cy="-21854.3" r="354.331" /> 
<circle cx="2129.92" cy="-21854.3" r="354.331" /> 
<circle cx="1129.92" cy="-21854.3" r="354.331" /> 
<circle cx="20129.9" cy="-21854.3" r="354.331" /> 
<circle cx="9129.92" cy="-21854.3" r="354.331" /> 
<circle cx="5129.92" cy="-21854.3" r="354.331" /> 
<circle cx="6129.92" cy="-21854.3" r="354.331" /> 
<circle cx="8129.92" cy="-21854.3" r="354.331" /> 
<circle cx="7129.92" cy="-21854.3" r="354.331" /> 
<circle cx="13129.9" cy="-22854.3" r="354.331" /> 
<circle cx="19129.9" cy="-22854.3" r="354.331" /> 
<circle cx="15129.9" cy="-22854.3" r="354.331" /> 
<circle cx="14129.9" cy="-22854.3" r="354.331" /> 
<circle cx="12129.9" cy="-22854.3" r="354.331" /> 
<circle cx="16129.9" cy="-22854.3" r="354.331" /> 
<circle cx="2129.92" cy="-22854.3" r="354.331" /> 
<circle cx="1129.92" cy="-22854.3" r="354.331" /> 
<circle cx="20129.9" cy="-22854.3" r="354.331" /> 
<circle cx="9129.92" cy="-22854.3" r="354.331" /> 
<circle cx="5129.92" cy="-22854.3" r="354.331" /> 
<circle cx="6129.92" cy="-22854.3" r="354.331" /> 
<circle cx="8129.92" cy="-22854.3" r="354.331" /> 
<circle cx="7129.92" cy="-22854.3" r="354.331" /> 
<circle cx="13129.9" cy="-23854.3" r="354.331" /> 
<circle cx="19129.9" cy="-23854.3" r="354.331" /> 
<circle cx="15129.9" cy="-23854.3" r="354.331" /> 
<circle cx="14129.9" cy="-23854.3" r="354.331" /> 
<circle cx="12129.9" cy="-23854.3" r="354.331" /> 
<circle cx="16129.9" cy="-23854.3" r="354.331" /> 
<circle cx="2129.92" cy="-23854.3" r="354.331" /> 
<circle cx="1129.92" cy="-23854.3" r="354.331" /> 
<circle cx="20129.9" cy="-23854.3" r="354.331" /> 
<circle cx="9129.92" cy="-23854.3" r="354.331" /> 
<circle cx="5129.92" cy="-23854.3" r="354.331" /> 
<circle cx="6129.92" cy="-23854.3" r="354.331" /> 
<circle cx="8129.92" cy="-23854.3" r="354.331" /> 
<circle cx="7129.92" cy="-23854.3" r="354.331" /> 
<circle cx="13129.9" cy="-24854.3" r="354.331" /> 
<circle cx="19129.9" cy="-24854.3" r="354.331" /> 
<circle cx="15129.9" cy="-24854.3" r="354.331" /> 
<circle cx="14129.9" cy="-24854.3" r="354.331" /> 
<circle cx="12129.9" cy="-24854.3" r="354.331" /> 
<circle cx="16129.9" cy="-24854.3" r="354.331" /> 
<circle cx="2129.92" cy="-24854.3" r="354.331" /> 
<circle cx="1129.92" cy="-24854.3" r="354.331" /> 
<circle cx="20129.9" cy="-24854.3" r="354.331" /> 
<circle cx="9129.92" cy="-24854.3" r="354.331" /> 
<circle cx="5129.92" cy="-24854.3" r="354.331" /> 
<circle cx="6129.92" cy="-24854.3" r="354.331" /> 
<circle cx="8129.92" cy="-24854.3" r="354.331" /> 
<circle cx="7129.92" cy="-24854.3" r="354.331" /> 
<circle cx="13129.9" cy="-25854.3" r="354.331" /> 
<circle cx="19129.9" cy="-25854.3" r="354.331" /> 
<circle cx="15129.9" cy="-25854.3" r="354.331" /> 
<circle cx="14129.9" cy="-25854.3" r="354.331" /> 
<circle cx="12129.9" cy="-25854.3" r="354.331" /> 
<circle cx="16129.9" cy="-25854.3" r="354.331" /> 
<circle cx="2129.92" cy="-25854.3" r="354.331" /> 
<circle cx="1129.92" cy="-25854.3" r="354.331" /> 
<circle cx="20129.9" cy="-25854.3" r="354.331" /> 
<circle cx="9129.92" cy="-25854.3" r="354.331" /> 
<circle cx="5129.92" cy="-25854.3" r="354.331" /> 
<circle cx="6129.92" cy="-25854.3" r="354.331" /> 
<circle cx="8129.92" cy="-25854.3" r="354.331" /> 
<circle cx="7129.92" cy="-25854.3" r="354.331" /> 
<circle cx="13129.9" cy="-26854.3" r="354.331" /> 
<circle cx="19129.9" cy="-26854.3" r="354.331" /> 
<circle cx="15129.9" cy="-26854.3" r="354.331" /> 
<circle cx="14129.9" cy="-26854.3" r="354.331" /> 
<circle cx="12129.9" cy="-26854.3" r="354.331" /> 
<circle cx="16129.9" cy="-26854.3" r="354.331" /> 
<circle cx="2129.92" cy="-26854.3" r="354.331" /> 
<circle cx="1129.92" cy="-26854.3" r="354.331" /> 
<circle cx="20129.9" cy="-26854.3" r="354.331" /> 
<circle cx="9129.92" cy="-26854.3" r="354.331" /> 
<circle cx="5129.92" cy="-26854.3" r="354.331" /> 
<circle cx="6129.92" cy="-26854.3" r="354.331" /> 
<circle cx="8129.92" cy="-26854.3" r="354.331" /> 
<circle cx="7129.92" cy="-26854.3" r="354.331" /> 
</g>
<g >
</g>
<g >
</g>
<g >
</g>
<g >
</g>
<g style="fill:#000000; fill-opacity:1.0; 
stroke:#000000; stroke-width:0; stroke-opacity:1; 
stroke-linecap:round; stroke-linejoin:round;">
<circle cx="1600.39" cy="-37185" r="551.181" /> 
</g>
<g style="fill:#000000; fill-opacity:1.0; 
stroke:#000000; stroke-width:39.3701; stroke-opacity:1; 
stroke-linecap:round; stroke-linejoin:round;">
</g>
<g style="fill:#000000; fill-opacity:1.0; 
stroke:#000000; stroke-width:0; stroke-opacity:1; 
stroke-linecap:round; stroke-linejoin:round;">
<circle cx="3100.39" cy="-37185" r="551.181" /> 
</g>
<g style="fill:#000000; fill-opacity:1.0; 
stroke:#000000; stroke-width:39.3701; stroke-opacity:1; 
stroke-linecap:round; stroke-linejoin:round;">
</g>
<g >
</g>
<g >
</g>
<g >
</g>
<g >
</g>
<g >
</g>
<g >
</g>
<g style="fill:#000000; fill-opacity:1.0; 
stroke:#000000; stroke-width:39.3701; stroke-opacity:1; 
stroke-linecap:round; stroke-linejoin:round;">
</g>
<g style="fill:#000000; fill-opacity:1.0; 
stroke:#000000; stroke-width:0; stroke-opacity:1; 
stroke-linecap:round; stroke-linejoin:round;">
<circle cx="6358.27" cy="-30956.7" r="354.331" /> 
<circle cx="5358.27" cy="-31956.7" r="354.331" /> 
<circle cx="5358.27" cy="-30956.7" r="354.331" /> 
<path style="fill:#000000; fill-opacity:1.0; 
stroke:#000000; stroke-width:0; stroke-opacity:1; 
stroke-linecap:round; stroke-linejoin:round;fill-rule:evenodd;"
d="M 4694.84,-31310.9
4696.75,-31310.6
4698.63,-31310.2
4700.45,-31309.5
4702.19,-31308.7
4703.85,-31307.7
4705.4,-31306.6
4706.83,-31305.3
4708.13,-31303.8
4709.28,-31302.3
4710.27,-31300.6
4711.1,-31298.9
4711.75,-31297.1
4712.22,-31295.2
4712.5,-31293.3
4712.6,-31291.3
4712.6,-30622
4712.5,-30620.1
4712.22,-30618.2
4711.75,-30616.3
4711.1,-30614.5
4710.27,-30612.8
4709.28,-30611.1
4708.13,-30609.6
4706.83,-30608.1
4705.4,-30606.8
4703.85,-30605.7
4702.19,-30604.7
4700.45,-30603.9
4698.63,-30603.2
4696.75,-30602.7
4694.84,-30602.5
4692.91,-30602.4
4023.62,-30602.4
4021.69,-30602.5
4019.78,-30602.7
4017.91,-30603.2
4016.09,-30603.9
4014.34,-30604.7
4012.69,-30605.7
4011.13,-30606.8
4009.7,-30608.1
4008.41,-30609.6
4007.25,-30611.1
4006.26,-30612.8
4005.44,-30614.5
4004.78,-30616.3
4004.32,-30618.2
4004.03,-30620.1
4003.94,-30622
4003.94,-31291.3
4004.03,-31293.3
4004.32,-31295.2
4004.78,-31297.1
4005.44,-31298.9
4006.26,-31300.6
4007.25,-31302.3
4008.41,-31303.8
4009.7,-31305.3
4011.13,-31306.6
4012.69,-31307.7
4014.34,-31308.7
4016.09,-31309.5
4017.91,-31310.2
4019.78,-31310.6
4021.69,-31310.9
4023.62,-31311
4692.91,-31311
Z" /> 
</g>
<g >
</g>
<g style="fill:#000000; fill-opacity:1.0; 
stroke:#000000; stroke-width:0; stroke-opacity:1; 
stroke-linecap:round; stroke-linejoin:round;">
<circle cx="1129.92" cy="-30956.7" r="354.331" /> 
<circle cx="2129.92" cy="-30956.7" r="354.331" /> 
<circle cx="1129.92" cy="-31956.7" r="354.331" /> 
<circle cx="2129.92" cy="-31956.7" r="354.331" /> 
<circle cx="1129.92" cy="-32956.7" r="354.331" /> 
<circle cx="2129.92" cy="-32956.7" r="354.331" /> 
<circle cx="1129.92" cy="-33956.7" r="354.331" /> 
<path style="fill:#000000; fill-opacity:1.0; 
stroke:#000000; stroke-width:0; stroke-opacity:1; 
stroke-linecap:round; stroke-linejoin:round;fill-rule:evenodd;"
d="M 2466.5,-34310.9
2468.41,-34310.6
2470.28,-34310.2
2472.1,-34309.5
2473.85,-34308.7
2475.5,-34307.7
2477.06,-34306.6
2478.49,-34305.3
2479.78,-34303.8
2480.93,-34302.3
2481.93,-34300.6
2482.75,-34298.9
2483.4,-34297.1
2483.87,-34295.2
2484.16,-34293.3
2484.25,-34291.3
2484.25,-33622
2484.16,-33620.1
2483.87,-33618.2
2483.4,-33616.3
2482.75,-33614.5
2481.93,-33612.8
2480.93,-33611.1
2479.78,-33609.6
2478.49,-33608.1
2477.06,-33606.8
2475.5,-33605.7
2473.85,-33604.7
2472.1,-33603.9
2470.28,-33603.2
2468.41,-33602.7
2466.5,-33602.5
2464.57,-33602.4
1795.28,-33602.4
1793.35,-33602.5
1791.44,-33602.7
1789.56,-33603.2
1787.74,-33603.9
1786,-33604.7
1784.34,-33605.7
1782.79,-33606.8
1781.36,-33608.1
1780.06,-33609.6
1778.91,-33611.1
1777.91,-33612.8
1777.09,-33614.5
1776.44,-33616.3
1775.97,-33618.2
1775.69,-33620.1
1775.59,-33622
1775.59,-34291.3
1775.69,-34293.3
1775.97,-34295.2
1776.44,-34297.1
1777.09,-34298.9
1777.91,-34300.6
1778.91,-34302.3
1780.06,-34303.8
1781.36,-34305.3
1782.79,-34306.6
1784.34,-34307.7
1786,-34308.7
1787.74,-34309.5
1789.56,-34310.2
1791.44,-34310.6
1793.35,-34310.9
1795.28,-34311
2464.57,-34311
Z" /> 
</g>
<g >
</g>
<g >
</g>
<g >
</g>
<g style="fill:#000000; fill-opacity:1.0; 
stroke:#000000; stroke-width:0; stroke-opacity:1; 
stroke-linecap:round; stroke-linejoin:round;">
</g>
<g style="fill:#000000; fill-opacity:1.0; 
stroke:#000000; stroke-width:472.441; stroke-opacity:1; 
stroke-linecap:round; stroke-linejoin:round;">
</g>
<g style="fill:#000000; fill-opacity:0.0; 
stroke:#000000; stroke-width:472.441; stroke-opacity:1; 
stroke-linecap:round; stroke-linejoin:round;">
<path d="M8747 -38221
L8747 -38496
" />
<path d="M5912 -38496
L5912 -38221
" />
</g>
<g style="fill:#000000; fill-opacity:1.0; 
stroke:#000000; stroke-width:0; stroke-opacity:1; 
stroke-linecap:round; stroke-linejoin:round;">
<circle cx="8284.65" cy="-37256.7" r="273.622" /> 
</g>
<g style="fill:#000000; fill-opacity:1.0; 
stroke:#000000; stroke-width:39.3701; stroke-opacity:1; 
stroke-linecap:round; stroke-linejoin:round;">
</g>
<g style="fill:#000000; fill-opacity:1.0; 
stroke:#000000; stroke-width:0; stroke-opacity:1; 
stroke-linecap:round; stroke-linejoin:round;">
<circle cx="6375.2" cy="-37256.7" r="273.622" /> 
</g>
<g style="fill:#000000; fill-opacity:1.0; 
stroke:#000000; stroke-width:39.3701; stroke-opacity:1; 
stroke-linecap:round; stroke-linejoin:round;">
</g>
<g style="fill:#000000; fill-opacity:1.0; 
stroke:#000000; stroke-width:472.441; stroke-opacity:1; 
stroke-linecap:round; stroke-linejoin:round;">
</g>
<g style="fill:#000000; fill-opacity:0.0; 
stroke:#000000; stroke-width:472.441; stroke-opacity:1; 
stroke-linecap:round; stroke-linejoin:round;">
<path d="M5912 -38496
L5912 -38221
" />
</g>
<g >
</g>
<g >
</g>
<g >
</g>
<g >
</g>
<g >
</g>
<g style="fill:#000000; fill-opacity:0.0; 
stroke:#000000; stroke-width:472.441; stroke-opacity:1; 
stroke-linecap:round; stroke-linejoin:round;">
</g>
<g style="fill:#000000; fill-opacity:1.0; 
stroke:#000000; stroke-width:0; stroke-opacity:1; 
stroke-linecap:round; stroke-linejoin:round;">
<circle cx="17017.7" cy="-30956.7" r="354.331" /> 
<circle cx="16017.7" cy="-31956.7" r="354.331" /> 
<circle cx="16017.7" cy="-30956.7" r="354.331" /> 
<path style="fill:#000000; fill-opacity:1.0; 
stroke:#000000; stroke-width:0; stroke-opacity:1; 
stroke-linecap:round; stroke-linejoin:round;fill-rule:evenodd;"
d="M 15354.3,-31310.9
15356.2,-31310.6
15358.1,-31310.2
15359.9,-31309.5
15361.6,-31308.7
15363.3,-31307.7
15364.9,-31306.6
15366.3,-31305.3
15367.6,-31303.8
15368.7,-31302.3
15369.7,-31300.6
15370.5,-31298.9
15371.2,-31297.1
15371.7,-31295.2
15372,-31293.3
15372,-31291.3
15372,-30622
15372,-30620.1
15371.7,-30618.2
15371.2,-30616.3
15370.5,-30614.5
15369.7,-30612.8
15368.7,-30611.1
15367.6,-30609.6
15366.3,-30608.1
15364.9,-30606.8
15363.3,-30605.7
15361.6,-30604.7
15359.9,-30603.9
15358.1,-30603.2
15356.2,-30602.7
15354.3,-30602.5
15352.4,-30602.4
14683.1,-30602.4
14681.1,-30602.5
14679.2,-30602.7
14677.4,-30603.2
14675.5,-30603.9
14673.8,-30604.7
14672.1,-30605.7
14670.6,-30606.8
14669.2,-30608.1
14667.9,-30609.6
14666.7,-30611.1
14665.7,-30612.8
14664.9,-30614.5
14664.2,-30616.3
14663.8,-30618.2
14663.5,-30620.1
14663.4,-30622
14663.4,-31291.3
14663.5,-31293.3
14663.8,-31295.2
14664.2,-31297.1
14664.9,-31298.9
14665.7,-31300.6
14666.7,-31302.3
14667.9,-31303.8
14669.2,-31305.3
14670.6,-31306.6
14672.1,-31307.7
14673.8,-31308.7
14675.5,-31309.5
14677.4,-31310.2
14679.2,-31310.6
14681.1,-31310.9
14683.1,-31311
15352.4,-31311
Z" /> 
</g>
<g >
</g>
<g style="fill:#000000; fill-opacity:1.0; 
stroke:#000000; stroke-width:0; stroke-opacity:1; 
stroke-linecap:round; stroke-linejoin:round;">
<circle cx="19129.9" cy="-30956.7" r="354.331" /> 
<circle cx="20129.9" cy="-30956.7" r="354.331" /> 
<circle cx="19129.9" cy="-31956.7" r="354.331" /> 
<circle cx="20129.9" cy="-31956.7" r="354.331" /> 
<circle cx="19129.9" cy="-32956.7" r="354.331" /> 
<circle cx="20129.9" cy="-32956.7" r="354.331" /> 
<circle cx="19129.9" cy="-33956.7" r="354.331" /> 
<path style="fill:#000000; fill-opacity:1.0; 
stroke:#000000; stroke-width:0; stroke-opacity:1; 
stroke-linecap:round; stroke-linejoin:round;fill-rule:evenodd;"
d="M 20466.5,-34310.9
20468.4,-34310.6
20470.3,-34310.2
20472.1,-34309.5
20473.8,-34308.7
20475.5,-34307.7
20477.1,-34306.6
20478.5,-34305.3
20479.8,-34303.8
20480.9,-34302.3
20481.9,-34300.6
20482.8,-34298.9
20483.4,-34297.1
20483.9,-34295.2
20484.2,-34293.3
20484.3,-34291.3
20484.3,-33622
20484.2,-33620.1
20483.9,-33618.2
20483.4,-33616.3
20482.8,-33614.5
20481.9,-33612.8
20480.9,-33611.1
20479.8,-33609.6
20478.5,-33608.1
20477.1,-33606.8
20475.5,-33605.7
20473.8,-33604.7
20472.1,-33603.9
20470.3,-33603.2
20468.4,-33602.7
20466.5,-33602.5
20464.6,-33602.4
19795.3,-33602.4
19793.3,-33602.5
19791.4,-33602.7
19789.6,-33603.2
19787.7,-33603.9
19786,-33604.7
19784.3,-33605.7
19782.8,-33606.8
19781.4,-33608.1
19780.1,-33609.6
19778.9,-33611.1
19777.9,-33612.8
19777.1,-33614.5
19776.4,-33616.3
19776,-33618.2
19775.7,-33620.1
19775.6,-33622
19775.6,-34291.3
19775.7,-34293.3
19776,-34295.2
19776.4,-34297.1
19777.1,-34298.9
19777.9,-34300.6
19778.9,-34302.3
19780.1,-34303.8
19781.4,-34305.3
19782.8,-34306.6
19784.3,-34307.7
19786,-34308.7
19787.7,-34309.5
19789.6,-34310.2
19791.4,-34310.6
19793.3,-34310.9
19795.3,-34311
20464.6,-34311
Z" /> 
</g>
<g >
</g>
<g >
</g>
<g >
</g>
<g >
</g>
<g style="fill:#000000; fill-opacity:1.0; 
stroke:#000000; stroke-width:0; stroke-opacity:1; 
stroke-linecap:round; stroke-linejoin:round;">
<circle cx="3149.61" cy="-1574.8" r="649.606" /> 
</g>
<g style="fill:#000000; fill-opacity:1.0; 
stroke:#000000; stroke-width:39.3701; stroke-opacity:1; 
stroke-linecap:round; stroke-linejoin:round;">
</g>
<g >
</g>
<g style="fill:#000000; fill-opacity:1.0; 
stroke:#000000; stroke-width:39.3701; stroke-opacity:1; 
stroke-linecap:round; stroke-linejoin:round;">
</g>
<g style="fill:#000000; fill-opacity:1.0; 
stroke:#000000; stroke-width:0; stroke-opacity:1; 
stroke-linecap:round; stroke-linejoin:round;">
<circle cx="18110.2" cy="-1574.8" r="649.606" /> 
</g>
<g style="fill:#000000; fill-opacity:1.0; 
stroke:#000000; stroke-width:39.3701; stroke-opacity:1; 
stroke-linecap:round; stroke-linejoin:round;">
</g>
<g >
</g>
<g >
</g>
<g >
</g>
</g> 
</svg>
