<?xml version="1.0" standalone="no"?>
 <!DOCTYPE svg PUBLIC "-//W3C//DTD SVG 1.1//EN" 
 "http://www.w3.org/Graphics/SVG/1.1/DTD/svg11.dtd"> 
<svg
  xmlns:svg="http://www.w3.org/2000/svg"
  xmlns="http://www.w3.org/2000/svg"
  xmlns:xlink="http://www.w3.org/1999/xlink"
  version="1.1"
  width="29.700220cm" height="21.000720cm" viewBox="0 0 116930 82680">
<title>SVG Picture created as MicroBBPS-F_SilkS.svg date 2021/03/20 13:56:42 </title>
  <desc>Picture generated by PCBNEW </desc>
<g style="fill:#000000; fill-opacity:1;stroke:#000000; stroke-opacity:1;
stroke-linecap:round; stroke-linejoin:round;"
 transform="translate(0 0) scale(1 1)">
</g>
<g style="fill:#000000; fill-opacity:0.0; 
stroke:#000000; stroke-width:-0.000393701; stroke-opacity:1; 
stroke-linecap:round; stroke-linejoin:round;">
</g>
<g style="fill:#000000; fill-opacity:0.0; 
stroke:#000000; stroke-width:78.7402; stroke-opacity:1; 
stroke-linecap:round; stroke-linejoin:round;">
<path d="M0 0
L393 0
" />
<path d="M0 0
L0 393
" />
<path d="M393 0
L0 0
" />
<path d="M0 0
L0 393
" />
</g>
<g style="fill:#000000; fill-opacity:0.0; 
stroke:#000000; stroke-width:19.685; stroke-opacity:1; 
stroke-linecap:round; stroke-linejoin:round;">
<path d="M20866 9448
L21259 9055
" />
<path d="M18503 9448
L20866 9448
" />
<path d="M18110 9055
L18503 9448
" />
<path d="M3149 9055
L18110 9055
" />
<path d="M2755 9448
L3149 9055
" />
<path d="M393 9448
L2755 9448
" />
<path d="M0 9055
L393 9448
" />
<path d="M4724 787
L3937 0
" />
</g>
<g style="fill:#000000; fill-opacity:0.0; 
stroke:#000000; stroke-width:59.0551; stroke-opacity:1; 
stroke-linecap:round; stroke-linejoin:round;">
<text x="12204.7" y="6889.76"
textLength="1089.15" font-size="524.934" lengthAdjust="spacingAndGlyphs"
text-anchor="middle" opacity="0">5 V</text>
<path d="M11979 6477
L11792 6477
L11773 6664
L11792 6646
L11829 6627
L11923 6627
L11961 6646
L11979 6664
L11998 6702
L11998 6796
L11979 6833
L11961 6852
L11923 6871
L11829 6871
L11792 6852
L11773 6833
" />
<path d="M12410 6477
L12542 6871
L12673 6477
" />
<text x="9055.12" y="6889.76"
textLength="1651.57" font-size="524.934" lengthAdjust="spacingAndGlyphs"
text-anchor="middle" opacity="0">3.3 V</text>
<path d="M8323 6477
L8567 6477
L8436 6627
L8492 6627
L8530 6646
L8548 6664
L8567 6702
L8567 6796
L8548 6833
L8530 6852
L8492 6871
L8380 6871
L8342 6852
L8323 6833
" />
<path d="M8736 6833
L8755 6852
L8736 6871
L8717 6852
L8736 6833
L8736 6871
" />
<path d="M8886 6477
L9130 6477
L8998 6627
L9055 6627
L9092 6646
L9111 6664
L9130 6702
L9130 6796
L9111 6833
L9092 6852
L9055 6871
L8942 6871
L8905 6852
L8886 6833
" />
<path d="M9542 6477
L9673 6871
L9805 6477
" />
</g>
<g style="fill:#000000; fill-opacity:0.0; 
stroke:#000000; stroke-width:19.685; stroke-opacity:1; 
stroke-linecap:round; stroke-linejoin:round;">
<path d="M0 787
L787 0
" />
<path d="M0 9055
L0 787
" />
<path d="M21259 1574
L21259 9055
" />
<path d="M20472 787
L21259 1574
" />
<path d="M4724 787
L20472 787
" />
<path d="M787 0
L3937 0
" />
</g>
<g style="fill:#000000; fill-opacity:0.0; 
stroke:#000000; stroke-width:47.2441; stroke-opacity:1; 
stroke-linecap:round; stroke-linejoin:round;">
<path d="M10397 5940
L9901 5940
" />
<path d="M7712 5940
L8208 5940
" />
<path d="M10397 7421
L10397 5940
" />
<path d="M7712 8307
L7712 5940
" />
<path d="M13547 5940
L13051 5940
" />
<path d="M10862 5940
L11358 5940
" />
<path d="M13547 7421
L13547 5940
" />
<path d="M10862 8307
L10862 5940
" />
<path d="M5305 4885
L4733 4885
" />
<path d="M5305 4169
L4733 4169
" />
<path d="M15953 4169
L16526 4169
" />
<path d="M15953 4885
L16526 4885
" />
<path d="M4842 6692
L4724 7086
" />
<path d="M4724 6299
L4842 6692
" />
<path d="M4724 6299
L3740 6102
" />
<path d="M4724 7086
L3740 7283
" />
<path d="M5118 7480
L4724 7086
" />
<path d="M5118 5905
L4724 6299
" />
<path d="M3740 8070
L3740 6692
" />
<path d="M3937 8267
L3740 8070
" />
<path d="M4724 8267
L3937 8267
" />
<path d="M4921 8070
L4724 8267
" />
<path d="M4921 7677
L4921 8070
" />
<path d="M5314 7283
L4921 7677
" />
<path d="M5708 7283
L5314 7283
" />
<path d="M5905 7086
L5708 7283
" />
<path d="M5905 6692
L5905 7086
" />
<path d="M3740 5314
L3740 6692
" />
<path d="M3937 5118
L3740 5314
" />
<path d="M4724 5118
L3937 5118
" />
<path d="M4921 5314
L4724 5118
" />
<path d="M4921 5708
L4921 5314
" />
<path d="M5118 5905
L4921 5708
" />
<path d="M5314 6102
L5118 5905
" />
<path d="M5511 6102
L5314 6102
" />
<path d="M5905 6299
L5905 6692
" />
<path d="M5708 6102
L5905 6299
" />
<path d="M5511 6102
L5708 6102
" />
<path d="M16417 6692
L16535 6299
" />
<path d="M16535 7086
L16417 6692
" />
<path d="M16535 7086
L17519 7283
" />
<path d="M16535 6299
L17519 6102
" />
<path d="M16141 5905
L16535 6299
" />
<path d="M16141 7480
L16535 7086
" />
<path d="M17519 5314
L17519 6692
" />
<path d="M17322 5118
L17519 5314
" />
<path d="M16535 5118
L17322 5118
" />
<path d="M16338 5314
L16535 5118
" />
<path d="M16338 5708
L16338 5314
" />
<path d="M15944 6102
L16338 5708
" />
<path d="M15551 6102
L15944 6102
" />
<path d="M15354 6299
L15551 6102
" />
<path d="M15354 6692
L15354 6299
" />
<path d="M17519 8070
L17519 6692
" />
<path d="M17322 8267
L17519 8070
" />
<path d="M16535 8267
L17322 8267
" />
<path d="M16338 8070
L16535 8267
" />
<path d="M16338 7677
L16338 8070
" />
<path d="M16141 7480
L16338 7677
" />
<path d="M15944 7283
L16141 7480
" />
<path d="M15748 7283
L15944 7283
" />
<path d="M15354 7086
L15354 6692
" />
<path d="M15551 7283
L15354 7086
" />
<path d="M15748 7283
L15551 7283
" />
<path d="M2362 1732
L787 1732
" />
<path d="M2362 1732
L3937 1732
" />
<path d="M787 1732
L787 4606
" />
<path d="M3937 1732
L3937 4606
" />
<path d="M3937 4606
L787 4606
" />
<path d="M9645 1240
L10531 1240
" />
<path d="M10531 1240
L10728 1437
" />
<path d="M10728 1437
L10728 2421
" />
<path d="M10433 2913
L9842 2913
" />
<path d="M10728 2421
L10433 2913
" />
<path d="M9547 2421
L8464 2421
" />
<path d="M9448 944
L9645 1240
" />
<path d="M8464 944
L9448 944
" />
<path d="M9842 2913
L9547 2421
" />
<path d="M8464 944
L7480 944
" />
<path d="M7480 944
L7283 1240
" />
<path d="M7283 1240
L6397 1240
" />
<path d="M6397 1240
L6200 1437
" />
<path d="M6200 1437
L6200 2421
" />
<path d="M6200 2421
L6496 2913
" />
<path d="M6496 2913
L7086 2913
" />
<path d="M7086 2913
L7381 2421
" />
<path d="M7381 2421
L8464 2421
" />
<path d="M6791 2913
L7480 3897
" />
<path d="M7480 3897
L9448 3897
" />
<path d="M9448 3897
L10137 2913
" />
<path d="M7480 3897
L7874 3700
" />
<path d="M7874 3700
L8464 3700
" />
<path d="M8464 3700
L9055 3700
" />
<path d="M9055 3700
L9448 3897
" />
<path d="M9055 3700
L9251 3307
" />
<path d="M7874 3700
L7677 3307
" />
<path d="M13543 4974
L15141 4974
" />
<path d="M15141 4974
L15141 4080
" />
<path d="M15141 4080
L13543 4080
" />
<path d="M4468 3996
L4468 1870
" />
<path d="M5767 3996
L5767 1870
" />
<path d="M4468 3996
L5767 3996
" />
<path d="M7716 4080
L6118 4080
" />
<path d="M6118 4080
L6118 4974
" />
<path d="M6118 4974
L7716 4974
" />
<path d="M12996 1570
L12523 1570
" />
<path d="M11216 1570
L11688 1570
" />
<path d="M11216 2931
L11216 1570
" />
<path d="M12996 2931
L12996 1570
" />
<path d="M12576 3350
L12523 3350
" />
<path d="M11635 3350
L11688 3350
" />
<path d="M11635 3350
L11216 2931
" />
<path d="M12576 3350
L12996 2931
" />
<path d="M11492 3641
L11492 3444
" />
<path d="M11393 3543
L11590 3543
" />
<path d="M15555 1570
L15082 1570
" />
<path d="M13775 1570
L14248 1570
" />
<path d="M13775 2931
L13775 1570
" />
<path d="M15555 2931
L15555 1570
" />
<path d="M15136 3350
L15082 3350
" />
<path d="M14194 3350
L14248 3350
" />
<path d="M14194 3350
L13775 2931
" />
<path d="M15136 3350
L15555 2931
" />
<path d="M14051 3641
L14051 3444
" />
<path d="M13952 3543
L14149 3543
" />
<path d="M18114 1570
L17641 1570
" />
<path d="M16334 1570
L16807 1570
" />
<path d="M16334 2931
L16334 1570
" />
<path d="M18114 2931
L18114 1570
" />
<path d="M17695 3350
L17641 3350
" />
<path d="M16753 3350
L16807 3350
" />
<path d="M16753 3350
L16334 2931
" />
<path d="M17695 3350
L18114 2931
" />
<path d="M16610 3641
L16610 3444
" />
<path d="M16511 3543
L16708 3543
" />
<path d="M20673 1570
L20200 1570
" />
<path d="M18893 1570
L19366 1570
" />
<path d="M18893 2931
L18893 1570
" />
<path d="M20673 2931
L20673 1570
" />
<path d="M20254 3350
L20200 3350
" />
<path d="M19312 3350
L19366 3350
" />
<path d="M19312 3350
L18893 2931
" />
<path d="M20254 3350
L20673 2931
" />
<path d="M19169 3641
L19169 3444
" />
<path d="M19070 3543
L19267 3543
" />
<path d="M7366 5771
L6806 5771
" />
<path d="M7366 5055
L6806 5055
" />
<path d="M14483 8330
L15043 8330
" />
<path d="M14483 7614
L15043 7614
" />
<path d="M13893 5055
L14453 5055
" />
<path d="M13893 5771
L14453 5771
" />
<path d="M6776 7614
L6216 7614
" />
<path d="M6776 8330
L6216 8330
" />
<g >
</g>
<g >
</g>
<g >
</g>
<g >
</g>
<g >
</g>
<g >
</g>
<g >
</g>
<g >
</g>
<g >
</g>
<g >
</g>
<g >
</g>
<g >
</g>
<g >
</g>
<g >
</g>
<g >
</g>
<g >
</g>
<g >
</g>
<g >
</g>
<g >
</g>
<g >
</g>
<g >
</g>
</g>
<g style="fill:#000000; fill-opacity:0.0; 
stroke:#000000; stroke-width:47.2441; stroke-opacity:1; 
stroke-linecap:round; stroke-linejoin:round;">
</g>
<g style="fill:#000000; fill-opacity:0.0; 
stroke:#000000; stroke-width:59.0551; stroke-opacity:1; 
stroke-linecap:round; stroke-linejoin:round;">
<text x="5019.69" y="4675.2"
textLength="653.262" font-size="393.701" lengthAdjust="spacingAndGlyphs"
text-anchor="middle" opacity="0">R2</text>
<path d="M4970 4661
L4872 4520
" />
<path d="M4801 4661
L4801 4365
L4914 4365
L4942 4379
L4956 4393
L4970 4422
L4970 4464
L4956 4492
L4942 4506
L4914 4520
L4801 4520
" />
<path d="M5082 4393
L5097 4379
L5125 4365
L5195 4365
L5223 4379
L5237 4393
L5251 4422
L5251 4450
L5237 4492
L5068 4661
L5251 4661
" />
<text x="16240.2" y="4675.2"
textLength="653.262" font-size="393.701" lengthAdjust="spacingAndGlyphs"
text-anchor="middle" opacity="0">R1</text>
<path d="M16190 4661
L16092 4520
" />
<path d="M16022 4661
L16022 4365
L16134 4365
L16162 4379
L16176 4393
L16190 4422
L16190 4464
L16176 4492
L16162 4506
L16134 4520
L16022 4520
" />
<path d="M16472 4661
L16303 4661
" />
<path d="M16387 4661
L16387 4365
L16359 4408
L16331 4436
L16303 4450
" />
<text x="3444.88" y="4429.13"
textLength="751.687" font-size="524.934" lengthAdjust="spacingAndGlyphs"
text-anchor="middle" opacity="0">J5</text>
<path d="M3313 4016
L3313 4297
L3294 4354
L3257 4391
L3201 4410
L3163 4410
" />
<path d="M3688 4016
L3501 4016
L3482 4204
L3501 4185
L3538 4166
L3632 4166
L3669 4185
L3688 4204
L3707 4241
L3707 4335
L3688 4372
L3669 4391
L3632 4410
L3538 4410
L3501 4391
L3482 4372
" />
<text x="10236.2" y="3740.16"
textLength="751.687" font-size="524.934" lengthAdjust="spacingAndGlyphs"
text-anchor="middle" opacity="0">J2</text>
<path d="M10104 3327
L10104 3608
L10086 3665
L10048 3702
L9992 3721
L9955 3721
" />
<path d="M10273 3365
L10292 3346
L10329 3327
L10423 3327
L10461 3346
L10479 3365
L10498 3402
L10498 3440
L10479 3496
L10254 3721
L10498 3721
" />
<text x="14173.2" y="4675.2"
textLength="653.262" font-size="393.701" lengthAdjust="spacingAndGlyphs"
text-anchor="middle" opacity="0">D3</text>
<path d="M13955 4661
L13955 4365
L14025 4365
L14067 4379
L14095 4408
L14109 4436
L14124 4492
L14124 4534
L14109 4590
L14095 4618
L14067 4647
L14025 4661
L13955 4661
" />
<path d="M14222 4365
L14405 4365
L14306 4478
L14348 4478
L14377 4492
L14391 4506
L14405 4534
L14405 4604
L14391 4633
L14377 4647
L14348 4661
L14264 4661
L14236 4647
L14222 4633
" />
<text x="6299.21" y="3740.16"
textLength="845.426" font-size="524.934" lengthAdjust="spacingAndGlyphs"
text-anchor="middle" opacity="0">D2</text>
<path d="M6008 3721
L6008 3327
L6102 3327
L6158 3346
L6196 3383
L6214 3421
L6233 3496
L6233 3552
L6214 3627
L6196 3665
L6158 3702
L6102 3721
L6008 3721
" />
<path d="M6383 3365
L6402 3346
L6439 3327
L6533 3327
L6571 3346
L6589 3365
L6608 3402
L6608 3440
L6589 3496
L6364 3721
L6608 3721
" />
<text x="7086.61" y="4675.2"
textLength="653.262" font-size="393.701" lengthAdjust="spacingAndGlyphs"
text-anchor="middle" opacity="0">D1</text>
<path d="M6868 4661
L6868 4365
L6938 4365
L6981 4379
L7009 4408
L7023 4436
L7037 4492
L7037 4534
L7023 4590
L7009 4618
L6981 4647
L6938 4661
L6868 4661
" />
<path d="M7318 4661
L7149 4661
" />
<path d="M7234 4661
L7234 4365
L7206 4408
L7178 4436
L7149 4450
" />
<text x="11220.5" y="1377.95"
textLength="845.426" font-size="524.934" lengthAdjust="spacingAndGlyphs"
text-anchor="middle" opacity="0">C8</text>
<path d="M11154 1321
L11136 1340
L11079 1359
L11042 1359
L10986 1340
L10948 1302
L10929 1265
L10911 1190
L10911 1134
L10929 1059
L10948 1021
L10986 984
L11042 965
L11079 965
L11136 984
L11154 1002
" />
<path d="M11379 1134
L11342 1115
L11323 1096
L11304 1059
L11304 1040
L11323 1002
L11342 984
L11379 965
L11454 965
L11492 984
L11511 1002
L11529 1040
L11529 1059
L11511 1096
L11492 1115
L11454 1134
L11379 1134
L11342 1152
L11323 1171
L11304 1209
L11304 1284
L11323 1321
L11342 1340
L11379 1359
L11454 1359
L11492 1340
L11511 1321
L11529 1284
L11529 1209
L11511 1171
L11492 1152
L11454 1134
" />
<text x="13779.5" y="1377.95"
textLength="845.426" font-size="524.934" lengthAdjust="spacingAndGlyphs"
text-anchor="middle" opacity="0">C7</text>
<path d="M13713 1321
L13695 1340
L13638 1359
L13601 1359
L13545 1340
L13507 1302
L13488 1265
L13470 1190
L13470 1134
L13488 1059
L13507 1021
L13545 984
L13601 965
L13638 965
L13695 984
L13713 1002
" />
<path d="M13845 965
L14107 965
L13938 1359
" />
<text x="16338.6" y="1377.95"
textLength="845.426" font-size="524.934" lengthAdjust="spacingAndGlyphs"
text-anchor="middle" opacity="0">C6</text>
<path d="M16272 1321
L16254 1340
L16197 1359
L16160 1359
L16104 1340
L16066 1302
L16047 1265
L16029 1190
L16029 1134
L16047 1059
L16066 1021
L16104 984
L16160 965
L16197 965
L16254 984
L16272 1002
" />
<path d="M16610 965
L16535 965
L16497 984
L16479 1002
L16441 1059
L16422 1134
L16422 1284
L16441 1321
L16460 1340
L16497 1359
L16572 1359
L16610 1340
L16629 1321
L16647 1284
L16647 1190
L16629 1152
L16610 1134
L16572 1115
L16497 1115
L16460 1134
L16441 1152
L16422 1190
" />
<text x="18897.6" y="1377.95"
textLength="845.426" font-size="524.934" lengthAdjust="spacingAndGlyphs"
text-anchor="middle" opacity="0">C5</text>
<path d="M18832 1321
L18813 1340
L18757 1359
L18719 1359
L18663 1340
L18625 1302
L18607 1265
L18588 1190
L18588 1134
L18607 1059
L18625 1021
L18663 984
L18719 965
L18757 965
L18813 984
L18832 1002
" />
<path d="M19188 965
L19000 965
L18982 1152
L19000 1134
L19038 1115
L19131 1115
L19169 1134
L19188 1152
L19206 1190
L19206 1284
L19188 1321
L19169 1340
L19131 1359
L19038 1359
L19000 1340
L18982 1321
" />
<text x="7086.61" y="5561.02"
textLength="653.262" font-size="393.701" lengthAdjust="spacingAndGlyphs"
text-anchor="middle" opacity="0">C4</text>
<path d="M7037 5518
L7023 5532
L6981 5546
L6953 5546
L6910 5532
L6882 5504
L6868 5476
L6854 5420
L6854 5378
L6868 5321
L6882 5293
L6910 5265
L6953 5251
L6981 5251
L7023 5265
L7037 5279
" />
<path d="M7290 5350
L7290 5546
" />
<path d="M7220 5237
L7149 5448
L7332 5448
" />
<text x="14763.8" y="8120.08"
textLength="653.262" font-size="393.701" lengthAdjust="spacingAndGlyphs"
text-anchor="middle" opacity="0">C3</text>
<path d="M14714 8077
L14700 8091
L14658 8106
L14630 8106
L14588 8091
L14559 8063
L14545 8035
L14531 7979
L14531 7937
L14545 7881
L14559 7852
L14588 7824
L14630 7810
L14658 7810
L14700 7824
L14714 7838
" />
<path d="M14812 7810
L14995 7810
L14897 7923
L14939 7923
L14967 7937
L14981 7951
L14995 7979
L14995 8049
L14981 8077
L14967 8091
L14939 8106
L14855 8106
L14827 8091
L14812 8077
" />
<text x="14173.2" y="5561.02"
textLength="653.262" font-size="393.701" lengthAdjust="spacingAndGlyphs"
text-anchor="middle" opacity="0">C2</text>
<path d="M14124 5518
L14109 5532
L14067 5546
L14039 5546
L13997 5532
L13969 5504
L13955 5476
L13941 5420
L13941 5378
L13955 5321
L13969 5293
L13997 5265
L14039 5251
L14067 5251
L14109 5265
L14124 5279
" />
<path d="M14236 5279
L14250 5265
L14278 5251
L14348 5251
L14377 5265
L14391 5279
L14405 5307
L14405 5336
L14391 5378
L14222 5546
L14405 5546
" />
<text x="6496.06" y="8120.08"
textLength="653.262" font-size="393.701" lengthAdjust="spacingAndGlyphs"
text-anchor="middle" opacity="0">C1</text>
<path d="M6446 8077
L6432 8091
L6390 8106
L6362 8106
L6320 8091
L6292 8063
L6278 8035
L6264 7979
L6264 7937
L6278 7881
L6292 7852
L6320 7824
L6362 7810
L6390 7810
L6432 7824
L6446 7838
" />
<path d="M6728 8106
L6559 8106
" />
<path d="M6643 8106
L6643 7810
L6615 7852
L6587 7881
L6559 7895
" />
<g >
</g>
</g> 
</svg>
