<?xml version="1.0" standalone="no"?>
 <!DOCTYPE svg PUBLIC "-//W3C//DTD SVG 1.1//EN" 
 "http://www.w3.org/Graphics/SVG/1.1/DTD/svg11.dtd"> 
<svg
  xmlns:svg="http://www.w3.org/2000/svg"
  xmlns="http://www.w3.org/2000/svg"
  xmlns:xlink="http://www.w3.org/1999/xlink"
  version="1.1"
  width="29.700220cm" height="21.000720cm" viewBox="0 0 116930 82680">
<title>SVG Picture created as MicroBBPS-Edge_Cuts.svg date 2021/02/24 21:51:50 </title>
  <desc>Picture generated by PCBNEW </desc>
<g style="fill:#000000; fill-opacity:1;stroke:#000000; stroke-opacity:1;
stroke-linecap:round; stroke-linejoin:round;"
 transform="translate(0 0) scale(1 1)">
</g>
<g style="fill:#000000; fill-opacity:0.0; 
stroke:#000000; stroke-width:-0.000393701; stroke-opacity:1; 
stroke-linecap:round; stroke-linejoin:round;">
</g>
<g style="fill:#000000; fill-opacity:0.0; 
stroke:#000000; stroke-width:19.685; stroke-opacity:1; 
stroke-linecap:round; stroke-linejoin:round;">
<path d="M7874 -1574
L14173 -1574
" />
<path d="M21259 -38188
L21259 -36220
" />
<path d="M20078 -39370
L21259 -38188
" />
<path d="M4724 -39370
L20078 -39370
" />
<path d="M787 -39370
L1574 -39370
" />
<path d="M0 -38582
L787 -39370
" />
<path d="M0 -37795
L0 -38582
" />
<path d="M15748 0
L19685 0
" />
<path d="M14173 -1574
L15748 0
" />
<path d="M6299 0
L7874 -1574
" />
<path d="M1181 0
L6299 0
" />
<path d="M21259 -1574
L19685 0
" />
<path d="M21259 -36220
L21259 -1574
" />
<path d="M1574 -39370
L4724 -39370
" />
<path d="M0 -1181
L0 -37795
" />
<path d="M1181 0
L0 -1181
" />
<g >
</g>
<g >
</g>
<g >
</g>
<g >
</g>
<g >
</g>
<g >
</g>
<g >
</g>
<g >
</g>
<g >
</g>
<g >
</g>
<g >
</g>
<g >
</g>
<g >
</g>
<g >
</g>
<g >
</g>
<g >
</g>
<g >
</g>
<g >
</g>
<g >
</g>
<g >
</g>
<g >
</g>
<g >
</g>
<g >
</g>
<g >
</g>
<g >
</g>
<g >
</g>
<g >
</g>
</g> 
</svg>
