<?xml version="1.0" standalone="no"?>
 <!DOCTYPE svg PUBLIC "-//W3C//DTD SVG 1.1//EN" 
 "http://www.w3.org/Graphics/SVG/1.1/DTD/svg11.dtd"> 
<svg
  xmlns:svg="http://www.w3.org/2000/svg"
  xmlns="http://www.w3.org/2000/svg"
  xmlns:xlink="http://www.w3.org/1999/xlink"
  version="1.1"
  width="29.700220cm" height="21.000720cm" viewBox="0 0 116930 82680">
<title>SVG Picture created as MicroBBPS-F_Cu.svg date 2021/03/20 14:33:15 </title>
  <desc>Picture generated by PCBNEW </desc>
<g style="fill:#000000; fill-opacity:1;stroke:#000000; stroke-opacity:1;
stroke-linecap:round; stroke-linejoin:round;"
 transform="translate(0 0) scale(1 1)">
</g>
<g style="fill:#000000; fill-opacity:0.0; 
stroke:#000000; stroke-width:-0.000393701; stroke-opacity:1; 
stroke-linecap:round; stroke-linejoin:round;">
</g>
<g style="fill:#000000; fill-opacity:0.0; 
stroke:#000000; stroke-width:78.7402; stroke-opacity:1; 
stroke-linecap:round; stroke-linejoin:round;">
<path d="M393 0
L0 0
" />
<path d="M0 0
L0 393
" />
</g>
<g style="fill:#000000; fill-opacity:0.0; 
stroke:#000000; stroke-width:19.685; stroke-opacity:1; 
stroke-linecap:round; stroke-linejoin:round;">
<path d="M20866 9448
L21259 9055
" />
<path d="M18503 9448
L20866 9448
" />
<path d="M18110 9055
L18503 9448
" />
<path d="M3149 9055
L18110 9055
" />
<path d="M2755 9448
L3149 9055
" />
<path d="M393 9448
L2755 9448
" />
<path d="M0 9055
L393 9448
" />
<path d="M4724 787
L3937 0
" />
<path d="M0 787
L787 0
" />
<path d="M0 9055
L0 787
" />
<path d="M21259 1574
L21259 9055
" />
<path d="M20472 787
L21259 1574
" />
<path d="M4724 787
L20472 787
" />
<path d="M787 0
L3937 0
" />
<g >
</g>
<g style="fill:#000000; fill-opacity:0.0; 
stroke:#000000; stroke-width:0; stroke-opacity:1; 
stroke-linecap:round; stroke-linejoin:round;">
</g>
<g style="fill:#000000; fill-opacity:1.0; 
stroke:#000000; stroke-width:0; stroke-opacity:1; 
stroke-linecap:round; stroke-linejoin:round;">
<path style="fill:#000000; fill-opacity:1.0; 
stroke:#000000; stroke-width:0; stroke-opacity:1; 
stroke-linecap:round; stroke-linejoin:round;fill-rule:evenodd;"
d="M 18795.3,8208.66
18795.3,7539.37
19464.6,7539.37
19464.6,8208.66
Z" /> 
<circle cx="20129.9" cy="7874.02" r="334.646" /> 
<circle cx="19129.9" cy="6874.02" r="334.646" /> 
<circle cx="20129.9" cy="6874.02" r="334.646" /> 
<circle cx="19129.9" cy="5874.02" r="334.646" /> 
<circle cx="20129.9" cy="5874.02" r="334.646" /> 
</g>
<g >
</g>
<g style="fill:#000000; fill-opacity:1.0; 
stroke:#000000; stroke-width:0; stroke-opacity:1; 
stroke-linecap:round; stroke-linejoin:round;">
<path style="fill:#000000; fill-opacity:1.0; 
stroke:#000000; stroke-width:0; stroke-opacity:1; 
stroke-linecap:round; stroke-linejoin:round;fill-rule:evenodd;"
d="M 795.276,8208.66
795.276,7539.37
1464.57,7539.37
1464.57,8208.66
Z" /> 
<circle cx="2129.92" cy="7874.02" r="334.646" /> 
<circle cx="1129.92" cy="6874.02" r="334.646" /> 
<circle cx="2129.92" cy="6874.02" r="334.646" /> 
<circle cx="1129.92" cy="5874.02" r="334.646" /> 
<circle cx="2129.92" cy="5874.02" r="334.646" /> 
</g>
<g >
</g>
<g style="fill:#000000; fill-opacity:1.0; 
stroke:#000000; stroke-width:0; stroke-opacity:1; 
stroke-linecap:round; stroke-linejoin:round;">
<path style="fill:#000000; fill-opacity:1.0; 
stroke:#000000; stroke-width:0; stroke-opacity:1; 
stroke-linecap:round; stroke-linejoin:round;fill-rule:evenodd;"
d="M 9803.15,5846.46
8307.09,5846.46
8307.09,5059.06
9803.15,5059.06
Z" /> 
<path style="fill:#000000; fill-opacity:1.0; 
stroke:#000000; stroke-width:0; stroke-opacity:1; 
stroke-linecap:round; stroke-linejoin:round;fill-rule:evenodd;"
d="M 9350.39,8326.77
8759.84,8326.77
8759.84,7539.37
9350.39,7539.37
Z" /> 
<path style="fill:#000000; fill-opacity:1.0; 
stroke:#000000; stroke-width:0; stroke-opacity:1; 
stroke-linecap:round; stroke-linejoin:round;fill-rule:evenodd;"
d="M 10255.9,8326.77
9665.35,8326.77
9665.35,7539.37
10255.9,7539.37
Z" /> 
<path style="fill:#000000; fill-opacity:1.0; 
stroke:#000000; stroke-width:0; stroke-opacity:1; 
stroke-linecap:round; stroke-linejoin:round;fill-rule:evenodd;"
d="M 8444.88,8326.77
7854.33,8326.77
7854.33,7539.37
8444.88,7539.37
Z" /> 
</g>
<g >
</g>
<g style="fill:#000000; fill-opacity:1.0; 
stroke:#000000; stroke-width:0; stroke-opacity:1; 
stroke-linecap:round; stroke-linejoin:round;">
<path style="fill:#000000; fill-opacity:1.0; 
stroke:#000000; stroke-width:0; stroke-opacity:1; 
stroke-linecap:round; stroke-linejoin:round;fill-rule:evenodd;"
d="M 12952.8,5846.46
11456.7,5846.46
11456.7,5059.06
12952.8,5059.06
Z" /> 
<path style="fill:#000000; fill-opacity:1.0; 
stroke:#000000; stroke-width:0; stroke-opacity:1; 
stroke-linecap:round; stroke-linejoin:round;fill-rule:evenodd;"
d="M 12500,8326.77
11909.4,8326.77
11909.4,7539.37
12500,7539.37
Z" /> 
<path style="fill:#000000; fill-opacity:1.0; 
stroke:#000000; stroke-width:0; stroke-opacity:1; 
stroke-linecap:round; stroke-linejoin:round;fill-rule:evenodd;"
d="M 13405.5,8326.77
12815,8326.77
12815,7539.37
13405.5,7539.37
Z" /> 
<path style="fill:#000000; fill-opacity:1.0; 
stroke:#000000; stroke-width:0; stroke-opacity:1; 
stroke-linecap:round; stroke-linejoin:round;fill-rule:evenodd;"
d="M 11594.5,8326.77
11003.9,8326.77
11003.9,7539.37
11594.5,7539.37
Z" /> 
</g>
<g >
</g>
<g style="fill:#000000; fill-opacity:1.0; 
stroke:#000000; stroke-width:0; stroke-opacity:1; 
stroke-linecap:round; stroke-linejoin:round;">
<path style="fill:#000000; fill-opacity:1.0; 
stroke:#000000; stroke-width:0; stroke-opacity:1; 
stroke-linecap:round; stroke-linejoin:round;fill-rule:evenodd;"
d="M 5797.05,4183.54
5806.6,4184.96
5815.97,4187.31
5825.07,4190.56
5833.8,4194.69
5842.08,4199.66
5849.84,4205.41
5857,4211.9
5863.49,4219.06
5869.24,4226.81
5874.2,4235.1
5878.33,4243.83
5881.59,4252.92
5883.94,4262.29
5885.35,4271.85
5885.83,4281.5
5885.83,4773.62
5885.35,4783.27
5883.94,4792.82
5881.59,4802.19
5878.33,4811.29
5874.2,4820.02
5869.24,4828.3
5863.49,4836.06
5857,4843.22
5849.84,4849.71
5842.08,4855.46
5833.8,4860.43
5825.07,4864.56
5815.97,4867.81
5806.6,4870.16
5797.05,4871.57
5787.4,4872.05
5472.44,4872.05
5462.79,4871.57
5453.24,4870.16
5443.87,4867.81
5434.78,4864.56
5426.04,4860.43
5417.76,4855.46
5410,4849.71
5402.84,4843.22
5396.36,4836.06
5390.6,4828.3
5385.64,4820.02
5381.51,4811.29
5378.25,4802.19
5375.91,4792.82
5374.49,4783.27
5374.02,4773.62
5374.02,4281.5
5374.49,4271.85
5375.91,4262.29
5378.25,4252.92
5381.51,4243.83
5385.64,4235.1
5390.6,4226.81
5396.36,4219.06
5402.84,4211.9
5410,4205.41
5417.76,4199.66
5426.04,4194.69
5434.78,4190.56
5443.87,4187.31
5453.24,4184.96
5462.79,4183.54
5472.44,4183.07
5787.4,4183.07
Z" /> 
<path style="fill:#000000; fill-opacity:1.0; 
stroke:#000000; stroke-width:0; stroke-opacity:1; 
stroke-linecap:round; stroke-linejoin:round;fill-rule:evenodd;"
d="M 4576.58,4183.54
4586.13,4184.96
4595.5,4187.31
4604.59,4190.56
4613.33,4194.69
4621.61,4199.66
4629.37,4205.41
4636.53,4211.9
4643.01,4219.06
4648.77,4226.81
4653.73,4235.1
4657.86,4243.83
4661.12,4252.92
4663.46,4262.29
4664.88,4271.85
4665.35,4281.5
4665.35,4773.62
4664.88,4783.27
4663.46,4792.82
4661.12,4802.19
4657.86,4811.29
4653.73,4820.02
4648.77,4828.3
4643.01,4836.06
4636.53,4843.22
4629.37,4849.71
4621.61,4855.46
4613.33,4860.43
4604.59,4864.56
4595.5,4867.81
4586.13,4870.16
4576.58,4871.57
4566.93,4872.05
4251.97,4872.05
4242.32,4871.57
4232.77,4870.16
4223.4,4867.81
4214.3,4864.56
4205.57,4860.43
4197.29,4855.46
4189.53,4849.71
4182.37,4843.22
4175.88,4836.06
4170.13,4828.3
4165.17,4820.02
4161.04,4811.29
4157.78,4802.19
4155.43,4792.82
4154.02,4783.27
4153.54,4773.62
4153.54,4281.5
4154.02,4271.85
4155.43,4262.29
4157.78,4252.92
4161.04,4243.83
4165.17,4235.1
4170.13,4226.81
4175.88,4219.06
4182.37,4211.9
4189.53,4205.41
4197.29,4199.66
4205.57,4194.69
4214.3,4190.56
4223.4,4187.31
4232.77,4184.96
4242.32,4183.54
4251.97,4183.07
4566.93,4183.07
Z" /> 
</g>
<g >
</g>
<g style="fill:#000000; fill-opacity:1.0; 
stroke:#000000; stroke-width:0; stroke-opacity:1; 
stroke-linecap:round; stroke-linejoin:round;">
<path style="fill:#000000; fill-opacity:1.0; 
stroke:#000000; stroke-width:0; stroke-opacity:1; 
stroke-linecap:round; stroke-linejoin:round;fill-rule:evenodd;"
d="M 15797,4183.54
15806.6,4184.96
15816,4187.31
15825.1,4190.56
15833.8,4194.69
15842.1,4199.66
15849.8,4205.41
15857,4211.9
15863.5,4219.06
15869.2,4226.81
15874.2,4235.1
15878.3,4243.83
15881.6,4252.92
15883.9,4262.29
15885.4,4271.85
15885.8,4281.5
15885.8,4773.62
15885.4,4783.27
15883.9,4792.82
15881.6,4802.19
15878.3,4811.29
15874.2,4820.02
15869.2,4828.3
15863.5,4836.06
15857,4843.22
15849.8,4849.71
15842.1,4855.46
15833.8,4860.43
15825.1,4864.56
15816,4867.81
15806.6,4870.16
15797,4871.57
15787.4,4872.05
15472.4,4872.05
15462.8,4871.57
15453.2,4870.16
15443.9,4867.81
15434.8,4864.56
15426,4860.43
15417.8,4855.46
15410,4849.71
15402.8,4843.22
15396.4,4836.06
15390.6,4828.3
15385.6,4820.02
15381.5,4811.29
15378.3,4802.19
15375.9,4792.82
15374.5,4783.27
15374,4773.62
15374,4281.5
15374.5,4271.85
15375.9,4262.29
15378.3,4252.92
15381.5,4243.83
15385.6,4235.1
15390.6,4226.81
15396.4,4219.06
15402.8,4211.9
15410,4205.41
15417.8,4199.66
15426,4194.69
15434.8,4190.56
15443.9,4187.31
15453.2,4184.96
15462.8,4183.54
15472.4,4183.07
15787.4,4183.07
Z" /> 
<path style="fill:#000000; fill-opacity:1.0; 
stroke:#000000; stroke-width:0; stroke-opacity:1; 
stroke-linecap:round; stroke-linejoin:round;fill-rule:evenodd;"
d="M 17017.5,4183.54
17027.1,4184.96
17036.4,4187.31
17045.5,4190.56
17054.3,4194.69
17062.6,4199.66
17070.3,4205.41
17077.5,4211.9
17084,4219.06
17089.7,4226.81
17094.7,4235.1
17098.8,4243.83
17102.1,4252.92
17104.4,4262.29
17105.8,4271.85
17106.3,4281.5
17106.3,4773.62
17105.8,4783.27
17104.4,4792.82
17102.1,4802.19
17098.8,4811.29
17094.7,4820.02
17089.7,4828.3
17084,4836.06
17077.5,4843.22
17070.3,4849.71
17062.6,4855.46
17054.3,4860.43
17045.5,4864.56
17036.4,4867.81
17027.1,4870.16
17017.5,4871.57
17007.9,4872.05
16692.9,4872.05
16683.3,4871.57
16673.7,4870.16
16664.3,4867.81
16655.2,4864.56
16646.5,4860.43
16638.2,4855.46
16630.5,4849.71
16623.3,4843.22
16616.8,4836.06
16611.1,4828.3
16606.1,4820.02
16602,4811.29
16598.7,4802.19
16596.4,4792.82
16595,4783.27
16594.5,4773.62
16594.5,4281.5
16595,4271.85
16596.4,4262.29
16598.7,4252.92
16602,4243.83
16606.1,4235.1
16611.1,4226.81
16616.8,4219.06
16623.3,4211.9
16630.5,4205.41
16638.2,4199.66
16646.5,4194.69
16655.2,4190.56
16664.3,4187.31
16673.7,4184.96
16683.3,4183.54
16692.9,4183.07
17007.9,4183.07
Z" /> 
</g>
<g >
</g>
<g style="fill:#000000; fill-opacity:1.0; 
stroke:#000000; stroke-width:0; stroke-opacity:1; 
stroke-linecap:round; stroke-linejoin:round;">
<path style="fill:#000000; fill-opacity:1.0; 
stroke:#000000; stroke-width:0; stroke-opacity:1; 
stroke-linecap:round; stroke-linejoin:round;fill-rule:evenodd;"
d="M 3996.06,6043.31
3996.06,5374.02
4665.35,5374.02
4665.35,6043.31
Z" /> 
<circle cx="4330.71" cy="6708.66" r="334.646" /> 
<circle cx="5330.71" cy="6708.66" r="334.646" /> 
<circle cx="4330.71" cy="7708.66" r="334.646" /> 
</g>
<g >
</g>
<g style="fill:#000000; fill-opacity:1.0; 
stroke:#000000; stroke-width:0; stroke-opacity:1; 
stroke-linecap:round; stroke-linejoin:round;">
<path style="fill:#000000; fill-opacity:1.0; 
stroke:#000000; stroke-width:0; stroke-opacity:1; 
stroke-linecap:round; stroke-linejoin:round;fill-rule:evenodd;"
d="M 17263.8,7342.52
17263.8,8011.81
16594.5,8011.81
16594.5,7342.52
Z" /> 
<circle cx="16929.1" cy="6677.17" r="334.646" /> 
<circle cx="15929.1" cy="6677.17" r="334.646" /> 
<circle cx="16929.1" cy="5677.17" r="334.646" /> 
</g>
<g >
</g>
<g style="fill:#000000; fill-opacity:1.0; 
stroke:#000000; stroke-width:0; stroke-opacity:1; 
stroke-linecap:round; stroke-linejoin:round;">
<circle cx="3112.2" cy="3149.61" r="531.496" /> 
</g>
<g style="fill:#000000; fill-opacity:1.0; 
stroke:#000000; stroke-width:39.3701; stroke-opacity:1; 
stroke-linecap:round; stroke-linejoin:round;">
</g>
<g style="fill:#000000; fill-opacity:1.0; 
stroke:#000000; stroke-width:0; stroke-opacity:1; 
stroke-linecap:round; stroke-linejoin:round;">
<circle cx="1612.2" cy="3149.61" r="531.496" /> 
</g>
<g style="fill:#000000; fill-opacity:1.0; 
stroke:#000000; stroke-width:39.3701; stroke-opacity:1; 
stroke-linecap:round; stroke-linejoin:round;">
</g>
<g >
</g>
<g style="fill:#000000; fill-opacity:1.0; 
stroke:#000000; stroke-width:39.3701; stroke-opacity:1; 
stroke-linecap:round; stroke-linejoin:round;">
</g>
<g style="fill:#000000; fill-opacity:1.0; 
stroke:#000000; stroke-width:433.071; stroke-opacity:1; 
stroke-linecap:round; stroke-linejoin:round;">
</g>
<g style="fill:#000000; fill-opacity:0.0; 
stroke:#000000; stroke-width:433.071; stroke-opacity:1; 
stroke-linecap:round; stroke-linejoin:round;">
<path d="M7047 1673
L7047 1948
" />
</g>
<g style="fill:#000000; fill-opacity:0.0; 
stroke:#000000; stroke-width:0; stroke-opacity:1; 
stroke-linecap:round; stroke-linejoin:round;">
</g>
<g style="fill:#000000; fill-opacity:1.0; 
stroke:#000000; stroke-width:0; stroke-opacity:1; 
stroke-linecap:round; stroke-linejoin:round;">
<path style="fill:#000000; fill-opacity:1.0; 
stroke:#000000; stroke-width:0; stroke-opacity:1; 
stroke-linecap:round; stroke-linejoin:round;fill-rule:evenodd;"
d="M 8877.56,1418.27
8896.67,1421.11
8915.41,1425.8
8933.6,1432.31
8951.06,1440.57
8967.63,1450.5
8983.15,1462.01
8997.46,1474.98
9010.44,1489.29
9021.94,1504.81
9031.87,1521.38
9040.13,1538.84
9046.64,1557.03
9051.34,1575.77
9054.17,1594.88
9055.12,1614.17
9055.12,2007.87
9054.17,2027.17
9051.34,2046.28
9046.64,2065.02
9040.13,2083.21
9031.87,2100.67
9021.94,2117.24
9010.44,2132.75
8997.46,2147.07
8983.15,2160.04
8967.63,2171.55
8951.06,2181.48
8933.6,2189.74
8915.41,2196.25
8896.67,2200.94
8877.56,2203.78
8858.27,2204.72
8070.87,2204.72
8051.57,2203.78
8032.46,2200.94
8013.72,2196.25
7995.53,2189.74
7978.07,2181.48
7961.5,2171.55
7945.99,2160.04
7931.67,2147.07
7918.7,2132.75
7907.19,2117.24
7897.26,2100.67
7889,2083.21
7882.49,2065.02
7877.8,2046.28
7874.96,2027.17
7874.02,2007.87
7874.02,1614.17
7874.96,1594.88
7877.8,1575.77
7882.49,1557.03
7889,1538.84
7897.26,1521.38
7907.19,1504.81
7918.7,1489.29
7931.67,1474.98
7945.99,1462.01
7961.5,1450.5
7978.07,1440.57
7995.53,1432.31
8013.72,1425.8
8032.46,1421.11
8051.57,1418.27
8070.87,1417.32
8858.27,1417.32
Z" /> 
<path style="fill:#000000; fill-opacity:1.0; 
stroke:#000000; stroke-width:0; stroke-opacity:1; 
stroke-linecap:round; stroke-linejoin:round;fill-rule:evenodd;"
d="M 7854.33,3159.45
7854.33,2667.32
8011.81,2667.32
8011.81,3159.45
Z" /> 
<path style="fill:#000000; fill-opacity:1.0; 
stroke:#000000; stroke-width:0; stroke-opacity:1; 
stroke-linecap:round; stroke-linejoin:round;fill-rule:evenodd;"
d="M 8129.92,3159.45
8129.92,2667.32
8287.4,2667.32
8287.4,3159.45
Z" /> 
<path style="fill:#000000; fill-opacity:1.0; 
stroke:#000000; stroke-width:0; stroke-opacity:1; 
stroke-linecap:round; stroke-linejoin:round;fill-rule:evenodd;"
d="M 8385.83,3159.45
8385.83,2667.32
8543.31,2667.32
8543.31,3159.45
Z" /> 
<path style="fill:#000000; fill-opacity:1.0; 
stroke:#000000; stroke-width:0; stroke-opacity:1; 
stroke-linecap:round; stroke-linejoin:round;fill-rule:evenodd;"
d="M 8641.73,3159.45
8641.73,2667.32
8799.21,2667.32
8799.21,3159.45
Z" /> 
<path style="fill:#000000; fill-opacity:1.0; 
stroke:#000000; stroke-width:0; stroke-opacity:1; 
stroke-linecap:round; stroke-linejoin:round;fill-rule:evenodd;"
d="M 8897.64,3159.45
8897.64,2667.32
9055.12,2667.32
9055.12,3159.45
Z" /> 
<circle cx="7509.84" cy="2913.39" r="253.937" /> 
</g>
<g style="fill:#000000; fill-opacity:1.0; 
stroke:#000000; stroke-width:39.3701; stroke-opacity:1; 
stroke-linecap:round; stroke-linejoin:round;">
</g>
<g style="fill:#000000; fill-opacity:1.0; 
stroke:#000000; stroke-width:0; stroke-opacity:1; 
stroke-linecap:round; stroke-linejoin:round;">
<circle cx="9419.29" cy="2913.39" r="253.937" /> 
</g>
<g style="fill:#000000; fill-opacity:1.0; 
stroke:#000000; stroke-width:39.3701; stroke-opacity:1; 
stroke-linecap:round; stroke-linejoin:round;">
</g>
<g style="fill:#000000; fill-opacity:1.0; 
stroke:#000000; stroke-width:433.071; stroke-opacity:1; 
stroke-linecap:round; stroke-linejoin:round;">
</g>
<g style="fill:#000000; fill-opacity:0.0; 
stroke:#000000; stroke-width:433.071; stroke-opacity:1; 
stroke-linecap:round; stroke-linejoin:round;">
<path d="M7047 1673
L7047 1948
" />
<path d="M9881 1948
L9881 1673
" />
</g>
<g >
</g>
<g style="fill:#000000; fill-opacity:0.0; 
stroke:#000000; stroke-width:433.071; stroke-opacity:1; 
stroke-linecap:round; stroke-linejoin:round;">
</g>
<g style="fill:#000000; fill-opacity:0.0; 
stroke:#000000; stroke-width:0; stroke-opacity:1; 
stroke-linecap:round; stroke-linejoin:round;">
</g>
<g style="fill:#000000; fill-opacity:1.0; 
stroke:#000000; stroke-width:0; stroke-opacity:1; 
stroke-linecap:round; stroke-linejoin:round;">
<path style="fill:#000000; fill-opacity:1.0; 
stroke:#000000; stroke-width:0; stroke-opacity:1; 
stroke-linecap:round; stroke-linejoin:round;fill-rule:evenodd;"
d="M 14950.6,4183.54
14960.1,4184.96
14969.5,4187.31
14978.6,4190.56
14987.3,4194.69
14995.6,4199.66
15003.4,4205.41
15010.5,4211.9
15017,4219.06
15022.8,4226.81
15027.7,4235.1
15031.9,4243.83
15035.1,4252.92
15037.5,4262.29
15038.9,4271.85
15039.4,4281.5
15039.4,4773.62
15038.9,4783.27
15037.5,4792.82
15035.1,4802.19
15031.9,4811.29
15027.7,4820.02
15022.8,4828.3
15017,4836.06
15010.5,4843.22
15003.4,4849.71
14995.6,4855.46
14987.3,4860.43
14978.6,4864.56
14969.5,4867.81
14960.1,4870.16
14950.6,4871.57
14940.9,4872.05
14576.8,4872.05
14567.1,4871.57
14557.6,4870.16
14548.2,4867.81
14539.1,4864.56
14530.4,4860.43
14522.1,4855.46
14514.3,4849.71
14507.2,4843.22
14500.7,4836.06
14494.9,4828.3
14490,4820.02
14485.8,4811.29
14482.6,4802.19
14480.2,4792.82
14478.8,4783.27
14478.3,4773.62
14478.3,4281.5
14478.8,4271.85
14480.2,4262.29
14482.6,4252.92
14485.8,4243.83
14490,4235.1
14494.9,4226.81
14500.7,4219.06
14507.2,4211.9
14514.3,4205.41
14522.1,4199.66
14530.4,4194.69
14539.1,4190.56
14548.2,4187.31
14557.6,4184.96
14567.1,4183.54
14576.8,4183.07
14940.9,4183.07
Z" /> 
<path style="fill:#000000; fill-opacity:1.0; 
stroke:#000000; stroke-width:0; stroke-opacity:1; 
stroke-linecap:round; stroke-linejoin:round;fill-rule:evenodd;"
d="M 13779.3,4183.54
13788.9,4184.96
13798.3,4187.31
13807.4,4190.56
13816.1,4194.69
13824.4,4199.66
13832.1,4205.41
13839.3,4211.9
13845.8,4219.06
13851.5,4226.81
13856.5,4235.1
13860.6,4243.83
13863.9,4252.92
13866.2,4262.29
13867.6,4271.85
13868.1,4281.5
13868.1,4773.62
13867.6,4783.27
13866.2,4792.82
13863.9,4802.19
13860.6,4811.29
13856.5,4820.02
13851.5,4828.3
13845.8,4836.06
13839.3,4843.22
13832.1,4849.71
13824.4,4855.46
13816.1,4860.43
13807.4,4864.56
13798.3,4867.81
13788.9,4870.16
13779.3,4871.57
13769.7,4872.05
13405.5,4872.05
13395.9,4871.57
13386.3,4870.16
13376.9,4867.81
13367.8,4864.56
13359.1,4860.43
13350.8,4855.46
13343.1,4849.71
13335.9,4843.22
13329.4,4836.06
13323.7,4828.3
13318.7,4820.02
13314.6,4811.29
13311.3,4802.19
13309,4792.82
13307.6,4783.27
13307.1,4773.62
13307.1,4281.5
13307.6,4271.85
13309,4262.29
13311.3,4252.92
13314.6,4243.83
13318.7,4235.1
13323.7,4226.81
13329.4,4219.06
13335.9,4211.9
13343.1,4205.41
13350.8,4199.66
13359.1,4194.69
13367.8,4190.56
13376.9,4187.31
13386.3,4184.96
13395.9,4183.54
13405.5,4183.07
13769.7,4183.07
Z" /> 
</g>
<g >
</g>
<g style="fill:#000000; fill-opacity:1.0; 
stroke:#000000; stroke-width:0; stroke-opacity:1; 
stroke-linecap:round; stroke-linejoin:round;">
<path style="fill:#000000; fill-opacity:1.0; 
stroke:#000000; stroke-width:0; stroke-opacity:1; 
stroke-linecap:round; stroke-linejoin:round;fill-rule:evenodd;"
d="M 5472.44,2362.2
4763.78,2362.2
4763.78,1377.95
5472.44,1377.95
Z" /> 
<path style="fill:#000000; fill-opacity:1.0; 
stroke:#000000; stroke-width:0; stroke-opacity:1; 
stroke-linecap:round; stroke-linejoin:round;fill-rule:evenodd;"
d="M 5472.44,3937.01
4763.78,3937.01
4763.78,2952.76
5472.44,2952.76
Z" /> 
</g>
<g >
</g>
<g style="fill:#000000; fill-opacity:1.0; 
stroke:#000000; stroke-width:0; stroke-opacity:1; 
stroke-linecap:round; stroke-linejoin:round;">
<path style="fill:#000000; fill-opacity:1.0; 
stroke:#000000; stroke-width:0; stroke-opacity:1; 
stroke-linecap:round; stroke-linejoin:round;fill-rule:evenodd;"
d="M 6692.72,4183.54
6702.27,4184.96
6711.64,4187.31
6720.74,4190.56
6729.47,4194.69
6737.75,4199.66
6745.51,4205.41
6752.67,4211.9
6759.15,4219.06
6764.91,4226.81
6769.87,4235.1
6774,4243.83
6777.26,4252.92
6779.6,4262.29
6781.02,4271.85
6781.5,4281.5
6781.5,4773.62
6781.02,4783.27
6779.6,4792.82
6777.26,4802.19
6774,4811.29
6769.87,4820.02
6764.91,4828.3
6759.15,4836.06
6752.67,4843.22
6745.51,4849.71
6737.75,4855.46
6729.47,4860.43
6720.74,4864.56
6711.64,4867.81
6702.27,4870.16
6692.72,4871.57
6683.07,4872.05
6318.9,4872.05
6309.25,4871.57
6299.7,4870.16
6290.33,4867.81
6281.23,4864.56
6272.5,4860.43
6264.22,4855.46
6256.46,4849.71
6249.3,4843.22
6242.81,4836.06
6237.06,4828.3
6232.09,4820.02
6227.96,4811.29
6224.71,4802.19
6222.36,4792.82
6220.95,4783.27
6220.47,4773.62
6220.47,4281.5
6220.95,4271.85
6222.36,4262.29
6224.71,4252.92
6227.96,4243.83
6232.09,4235.1
6237.06,4226.81
6242.81,4219.06
6249.3,4211.9
6256.46,4205.41
6264.22,4199.66
6272.5,4194.69
6281.23,4190.56
6290.33,4187.31
6299.7,4184.96
6309.25,4183.54
6318.9,4183.07
6683.07,4183.07
Z" /> 
<path style="fill:#000000; fill-opacity:1.0; 
stroke:#000000; stroke-width:0; stroke-opacity:1; 
stroke-linecap:round; stroke-linejoin:round;fill-rule:evenodd;"
d="M 7863.98,4183.54
7873.53,4184.96
7882.9,4187.31
7892,4190.56
7900.73,4194.69
7909.01,4199.66
7916.77,4205.41
7923.93,4211.9
7930.41,4219.06
7936.17,4226.81
7941.13,4235.1
7945.26,4243.83
7948.52,4252.92
7950.86,4262.29
7952.28,4271.85
7952.76,4281.5
7952.76,4773.62
7952.28,4783.27
7950.86,4792.82
7948.52,4802.19
7945.26,4811.29
7941.13,4820.02
7936.17,4828.3
7930.41,4836.06
7923.93,4843.22
7916.77,4849.71
7909.01,4855.46
7900.73,4860.43
7892,4864.56
7882.9,4867.81
7873.53,4870.16
7863.98,4871.57
7854.33,4872.05
7490.16,4872.05
7480.51,4871.57
7470.96,4870.16
7461.59,4867.81
7452.49,4864.56
7443.76,4860.43
7435.48,4855.46
7427.72,4849.71
7420.56,4843.22
7414.07,4836.06
7408.32,4828.3
7403.35,4820.02
7399.22,4811.29
7395.97,4802.19
7393.62,4792.82
7392.21,4783.27
7391.73,4773.62
7391.73,4281.5
7392.21,4271.85
7393.62,4262.29
7395.97,4252.92
7399.22,4243.83
7403.35,4235.1
7408.32,4226.81
7414.07,4219.06
7420.56,4211.9
7427.72,4205.41
7435.48,4199.66
7443.76,4194.69
7452.49,4190.56
7461.59,4187.31
7470.96,4184.96
7480.51,4183.54
7490.16,4183.07
7854.33,4183.07
Z" /> 
</g>
<g >
</g>
<g style="fill:#000000; fill-opacity:1.0; 
stroke:#000000; stroke-width:0; stroke-opacity:1; 
stroke-linecap:round; stroke-linejoin:round;">
<path style="fill:#000000; fill-opacity:1.0; 
stroke:#000000; stroke-width:0; stroke-opacity:1; 
stroke-linecap:round; stroke-linejoin:round;fill-rule:evenodd;"
d="M 12332.5,2657.95
12342,2659.37
12351.4,2661.72
12360.5,2664.97
12369.2,2669.1
12377.5,2674.07
12385.3,2679.82
12392.4,2686.31
12398.9,2693.47
12404.7,2701.22
12409.6,2709.51
12413.8,2718.24
12417,2727.33
12419.4,2736.7
12420.8,2746.26
12421.3,2755.91
12421.3,3582.68
12420.8,3592.32
12419.4,3601.88
12417,3611.25
12413.8,3620.34
12409.6,3629.07
12404.7,3637.36
12398.9,3645.12
12392.4,3652.27
12385.3,3658.76
12377.5,3664.51
12369.2,3669.48
12360.5,3673.61
12351.4,3676.86
12342,3679.21
12332.5,3680.63
12322.8,3681.1
11889.8,3681.1
11880.1,3680.63
11870.6,3679.21
11861.2,3676.86
11852.1,3673.61
11843.4,3669.48
11835.1,3664.51
11827.3,3658.76
11820.2,3652.27
11813.7,3645.12
11807.9,3637.36
11803,3629.07
11798.8,3620.34
11795.6,3611.25
11793.2,3601.88
11791.8,3592.32
11791.3,3582.68
11791.3,2755.91
11791.8,2746.26
11793.2,2736.7
11795.6,2727.33
11798.8,2718.24
11803,2709.51
11807.9,2701.22
11813.7,2693.47
11820.2,2686.31
11827.3,2679.82
11835.1,2674.07
11843.4,2669.1
11852.1,2664.97
11861.2,2661.72
11870.6,2659.37
11880.1,2657.95
11889.8,2657.48
12322.8,2657.48
Z" /> 
<path style="fill:#000000; fill-opacity:1.0; 
stroke:#000000; stroke-width:0; stroke-opacity:1; 
stroke-linecap:round; stroke-linejoin:round;fill-rule:evenodd;"
d="M 12332.5,1240.63
12342,1242.05
12351.4,1244.4
12360.5,1247.65
12369.2,1251.78
12377.5,1256.75
12385.3,1262.5
12392.4,1268.99
12398.9,1276.14
12404.7,1283.9
12409.6,1292.19
12413.8,1300.92
12417,1310.01
12419.4,1319.38
12420.8,1328.94
12421.3,1338.58
12421.3,2165.35
12420.8,2175
12419.4,2184.56
12417,2193.93
12413.8,2203.02
12409.6,2211.75
12404.7,2220.04
12398.9,2227.79
12392.4,2234.95
12385.3,2241.44
12377.5,2247.19
12369.2,2252.16
12360.5,2256.29
12351.4,2259.54
12342,2261.89
12332.5,2263.31
12322.8,2263.78
11889.8,2263.78
11880.1,2263.31
11870.6,2261.89
11861.2,2259.54
11852.1,2256.29
11843.4,2252.16
11835.1,2247.19
11827.3,2241.44
11820.2,2234.95
11813.7,2227.79
11807.9,2220.04
11803,2211.75
11798.8,2203.02
11795.6,2193.93
11793.2,2184.56
11791.8,2175
11791.3,2165.35
11791.3,1338.58
11791.8,1328.94
11793.2,1319.38
11795.6,1310.01
11798.8,1300.92
11803,1292.19
11807.9,1283.9
11813.7,1276.14
11820.2,1268.99
11827.3,1262.5
11835.1,1256.75
11843.4,1251.78
11852.1,1247.65
11861.2,1244.4
11870.6,1242.05
11880.1,1240.63
11889.8,1240.16
12322.8,1240.16
Z" /> 
</g>
<g >
</g>
<g style="fill:#000000; fill-opacity:1.0; 
stroke:#000000; stroke-width:0; stroke-opacity:1; 
stroke-linecap:round; stroke-linejoin:round;">
<path style="fill:#000000; fill-opacity:1.0; 
stroke:#000000; stroke-width:0; stroke-opacity:1; 
stroke-linecap:round; stroke-linejoin:round;fill-rule:evenodd;"
d="M 14891.5,2657.95
14901.1,2659.37
14910.5,2661.72
14919.6,2664.97
14928.3,2669.1
14936.6,2674.07
14944.3,2679.82
14951.5,2686.31
14958,2693.47
14963.7,2701.22
14968.7,2709.51
14972.8,2718.24
14976.1,2727.33
14978.4,2736.7
14979.8,2746.26
14980.3,2755.91
14980.3,3582.68
14979.8,3592.32
14978.4,3601.88
14976.1,3611.25
14972.8,3620.34
14968.7,3629.07
14963.7,3637.36
14958,3645.12
14951.5,3652.27
14944.3,3658.76
14936.6,3664.51
14928.3,3669.48
14919.6,3673.61
14910.5,3676.86
14901.1,3679.21
14891.5,3680.63
14881.9,3681.1
14448.8,3681.1
14439.2,3680.63
14429.6,3679.21
14420.2,3676.86
14411.2,3673.61
14402.4,3669.48
14394.1,3664.51
14386.4,3658.76
14379.2,3652.27
14372.7,3645.12
14367,3637.36
14362,3629.07
14357.9,3620.34
14354.6,3611.25
14352.3,3601.88
14350.9,3592.32
14350.4,3582.68
14350.4,2755.91
14350.9,2746.26
14352.3,2736.7
14354.6,2727.33
14357.9,2718.24
14362,2709.51
14367,2701.22
14372.7,2693.47
14379.2,2686.31
14386.4,2679.82
14394.1,2674.07
14402.4,2669.1
14411.2,2664.97
14420.2,2661.72
14429.6,2659.37
14439.2,2657.95
14448.8,2657.48
14881.9,2657.48
Z" /> 
<path style="fill:#000000; fill-opacity:1.0; 
stroke:#000000; stroke-width:0; stroke-opacity:1; 
stroke-linecap:round; stroke-linejoin:round;fill-rule:evenodd;"
d="M 14891.5,1240.63
14901.1,1242.05
14910.5,1244.4
14919.6,1247.65
14928.3,1251.78
14936.6,1256.75
14944.3,1262.5
14951.5,1268.99
14958,1276.14
14963.7,1283.9
14968.7,1292.19
14972.8,1300.92
14976.1,1310.01
14978.4,1319.38
14979.8,1328.94
14980.3,1338.58
14980.3,2165.35
14979.8,2175
14978.4,2184.56
14976.1,2193.93
14972.8,2203.02
14968.7,2211.75
14963.7,2220.04
14958,2227.79
14951.5,2234.95
14944.3,2241.44
14936.6,2247.19
14928.3,2252.16
14919.6,2256.29
14910.5,2259.54
14901.1,2261.89
14891.5,2263.31
14881.9,2263.78
14448.8,2263.78
14439.2,2263.31
14429.6,2261.89
14420.2,2259.54
14411.2,2256.29
14402.4,2252.16
14394.1,2247.19
14386.4,2241.44
14379.2,2234.95
14372.7,2227.79
14367,2220.04
14362,2211.75
14357.9,2203.02
14354.6,2193.93
14352.3,2184.56
14350.9,2175
14350.4,2165.35
14350.4,1338.58
14350.9,1328.94
14352.3,1319.38
14354.6,1310.01
14357.9,1300.92
14362,1292.19
14367,1283.9
14372.7,1276.14
14379.2,1268.99
14386.4,1262.5
14394.1,1256.75
14402.4,1251.78
14411.2,1247.65
14420.2,1244.4
14429.6,1242.05
14439.2,1240.63
14448.8,1240.16
14881.9,1240.16
Z" /> 
</g>
<g >
</g>
<g style="fill:#000000; fill-opacity:1.0; 
stroke:#000000; stroke-width:0; stroke-opacity:1; 
stroke-linecap:round; stroke-linejoin:round;">
<path style="fill:#000000; fill-opacity:1.0; 
stroke:#000000; stroke-width:0; stroke-opacity:1; 
stroke-linecap:round; stroke-linejoin:round;fill-rule:evenodd;"
d="M 17450.6,2657.95
17460.1,2659.37
17469.5,2661.72
17478.6,2664.97
17487.3,2669.1
17495.6,2674.07
17503.4,2679.82
17510.5,2686.31
17517,2693.47
17522.8,2701.22
17527.7,2709.51
17531.9,2718.24
17535.1,2727.33
17537.5,2736.7
17538.9,2746.26
17539.4,2755.91
17539.4,3582.68
17538.9,3592.32
17537.5,3601.88
17535.1,3611.25
17531.9,3620.34
17527.7,3629.07
17522.8,3637.36
17517,3645.12
17510.5,3652.27
17503.4,3658.76
17495.6,3664.51
17487.3,3669.48
17478.6,3673.61
17469.5,3676.86
17460.1,3679.21
17450.6,3680.63
17440.9,3681.1
17007.9,3681.1
16998.2,3680.63
16988.7,3679.21
16979.3,3676.86
16970.2,3673.61
16961.5,3669.48
16953.2,3664.51
16945.4,3658.76
16938.3,3652.27
16931.8,3645.12
16926,3637.36
16921.1,3629.07
16916.9,3620.34
16913.7,3611.25
16911.3,3601.88
16909.9,3592.32
16909.4,3582.68
16909.4,2755.91
16909.9,2746.26
16911.3,2736.7
16913.7,2727.33
16916.9,2718.24
16921.1,2709.51
16926,2701.22
16931.8,2693.47
16938.3,2686.31
16945.4,2679.82
16953.2,2674.07
16961.5,2669.1
16970.2,2664.97
16979.3,2661.72
16988.7,2659.37
16998.2,2657.95
17007.9,2657.48
17440.9,2657.48
Z" /> 
<path style="fill:#000000; fill-opacity:1.0; 
stroke:#000000; stroke-width:0; stroke-opacity:1; 
stroke-linecap:round; stroke-linejoin:round;fill-rule:evenodd;"
d="M 17450.6,1240.63
17460.1,1242.05
17469.5,1244.4
17478.6,1247.65
17487.3,1251.78
17495.6,1256.75
17503.4,1262.5
17510.5,1268.99
17517,1276.14
17522.8,1283.9
17527.7,1292.19
17531.9,1300.92
17535.1,1310.01
17537.5,1319.38
17538.9,1328.94
17539.4,1338.58
17539.4,2165.35
17538.9,2175
17537.5,2184.56
17535.1,2193.93
17531.9,2203.02
17527.7,2211.75
17522.8,2220.04
17517,2227.79
17510.5,2234.95
17503.4,2241.44
17495.6,2247.19
17487.3,2252.16
17478.6,2256.29
17469.5,2259.54
17460.1,2261.89
17450.6,2263.31
17440.9,2263.78
17007.9,2263.78
16998.2,2263.31
16988.7,2261.89
16979.3,2259.54
16970.2,2256.29
16961.5,2252.16
16953.2,2247.19
16945.4,2241.44
16938.3,2234.95
16931.8,2227.79
16926,2220.04
16921.1,2211.75
16916.9,2203.02
16913.7,2193.93
16911.3,2184.56
16909.9,2175
16909.4,2165.35
16909.4,1338.58
16909.9,1328.94
16911.3,1319.38
16913.7,1310.01
16916.9,1300.92
16921.1,1292.19
16926,1283.9
16931.8,1276.14
16938.3,1268.99
16945.4,1262.5
16953.2,1256.75
16961.5,1251.78
16970.2,1247.65
16979.3,1244.4
16988.7,1242.05
16998.2,1240.63
17007.9,1240.16
17440.9,1240.16
Z" /> 
</g>
<g >
</g>
<g style="fill:#000000; fill-opacity:1.0; 
stroke:#000000; stroke-width:0; stroke-opacity:1; 
stroke-linecap:round; stroke-linejoin:round;">
<path style="fill:#000000; fill-opacity:1.0; 
stroke:#000000; stroke-width:0; stroke-opacity:1; 
stroke-linecap:round; stroke-linejoin:round;fill-rule:evenodd;"
d="M 20009.6,2657.95
20019.2,2659.37
20028.6,2661.72
20037.7,2664.97
20046.4,2669.1
20054.7,2674.07
20062.4,2679.82
20069.6,2686.31
20076.1,2693.47
20081.8,2701.22
20086.8,2709.51
20090.9,2718.24
20094.2,2727.33
20096.5,2736.7
20098,2746.26
20098.4,2755.91
20098.4,3582.68
20098,3592.32
20096.5,3601.88
20094.2,3611.25
20090.9,3620.34
20086.8,3629.07
20081.8,3637.36
20076.1,3645.12
20069.6,3652.27
20062.4,3658.76
20054.7,3664.51
20046.4,3669.48
20037.7,3673.61
20028.6,3676.86
20019.2,3679.21
20009.6,3680.63
20000,3681.1
19566.9,3681.1
19557.3,3680.63
19547.7,3679.21
19538.4,3676.86
19529.3,3673.61
19520.5,3669.48
19512.2,3664.51
19504.5,3658.76
19497.3,3652.27
19490.8,3645.12
19485.1,3637.36
19480.1,3629.07
19476,3620.34
19472.7,3611.25
19470.4,3601.88
19469,3592.32
19468.5,3582.68
19468.5,2755.91
19469,2746.26
19470.4,2736.7
19472.7,2727.33
19476,2718.24
19480.1,2709.51
19485.1,2701.22
19490.8,2693.47
19497.3,2686.31
19504.5,2679.82
19512.2,2674.07
19520.5,2669.1
19529.3,2664.97
19538.4,2661.72
19547.7,2659.37
19557.3,2657.95
19566.9,2657.48
20000,2657.48
Z" /> 
<path style="fill:#000000; fill-opacity:1.0; 
stroke:#000000; stroke-width:0; stroke-opacity:1; 
stroke-linecap:round; stroke-linejoin:round;fill-rule:evenodd;"
d="M 20009.6,1240.63
20019.2,1242.05
20028.6,1244.4
20037.7,1247.65
20046.4,1251.78
20054.7,1256.75
20062.4,1262.5
20069.6,1268.99
20076.1,1276.14
20081.8,1283.9
20086.8,1292.19
20090.9,1300.92
20094.2,1310.01
20096.5,1319.38
20098,1328.94
20098.4,1338.58
20098.4,2165.35
20098,2175
20096.5,2184.56
20094.2,2193.93
20090.9,2203.02
20086.8,2211.75
20081.8,2220.04
20076.1,2227.79
20069.6,2234.95
20062.4,2241.44
20054.7,2247.19
20046.4,2252.16
20037.7,2256.29
20028.6,2259.54
20019.2,2261.89
20009.6,2263.31
20000,2263.78
19566.9,2263.78
19557.3,2263.31
19547.7,2261.89
19538.4,2259.54
19529.3,2256.29
19520.5,2252.16
19512.2,2247.19
19504.5,2241.44
19497.3,2234.95
19490.8,2227.79
19485.1,2220.04
19480.1,2211.75
19476,2203.02
19472.7,2193.93
19470.4,2184.56
19469,2175
19468.5,2165.35
19468.5,1338.58
19469,1328.94
19470.4,1319.38
19472.7,1310.01
19476,1300.92
19480.1,1292.19
19485.1,1283.9
19490.8,1276.14
19497.3,1268.99
19504.5,1262.5
19512.2,1256.75
19520.5,1251.78
19529.3,1247.65
19538.4,1244.4
19547.7,1242.05
19557.3,1240.63
19566.9,1240.16
20000,1240.16
Z" /> 
</g>
<g >
</g>
<g style="fill:#000000; fill-opacity:1.0; 
stroke:#000000; stroke-width:0; stroke-opacity:1; 
stroke-linecap:round; stroke-linejoin:round;">
<path style="fill:#000000; fill-opacity:1.0; 
stroke:#000000; stroke-width:0; stroke-opacity:1; 
stroke-linecap:round; stroke-linejoin:round;fill-rule:evenodd;"
d="M 7873.82,5059.53
7883.38,5060.95
7892.74,5063.29
7901.84,5066.55
7910.57,5070.68
7918.86,5075.64
7926.61,5081.4
7933.77,5087.88
7940.26,5095.04
7946.01,5102.8
7950.98,5111.08
7955.11,5119.81
7958.36,5128.91
7960.71,5138.28
7962.12,5147.83
7962.6,5157.48
7962.6,5669.29
7962.12,5678.94
7960.71,5688.49
7958.36,5697.86
7955.11,5706.96
7950.98,5715.69
7946.01,5723.97
7940.26,5731.73
7933.77,5738.89
7926.61,5745.38
7918.86,5751.13
7910.57,5756.09
7901.84,5760.22
7892.74,5763.48
7883.38,5765.83
7873.82,5767.24
7864.17,5767.72
7539.37,5767.72
7529.72,5767.24
7520.17,5765.83
7510.8,5763.48
7501.7,5760.22
7492.97,5756.09
7484.69,5751.13
7476.93,5745.38
7469.77,5738.89
7463.29,5731.73
7457.53,5723.97
7452.57,5715.69
7448.44,5706.96
7445.18,5697.86
7442.84,5688.49
7441.42,5678.94
7440.94,5669.29
7440.94,5157.48
7441.42,5147.83
7442.84,5138.28
7445.18,5128.91
7448.44,5119.81
7452.57,5111.08
7457.53,5102.8
7463.29,5095.04
7469.77,5087.88
7476.93,5081.4
7484.69,5075.64
7492.97,5070.68
7501.7,5066.55
7510.8,5063.29
7520.17,5060.95
7529.72,5059.53
7539.37,5059.06
7864.17,5059.06
Z" /> 
<path style="fill:#000000; fill-opacity:1.0; 
stroke:#000000; stroke-width:0; stroke-opacity:1; 
stroke-linecap:round; stroke-linejoin:round;fill-rule:evenodd;"
d="M 6643.51,5059.53
6653.06,5060.95
6662.43,5063.29
6671.52,5066.55
6680.26,5070.68
6688.54,5075.64
6696.3,5081.4
6703.46,5087.88
6709.94,5095.04
6715.7,5102.8
6720.66,5111.08
6724.79,5119.81
6728.05,5128.91
6730.39,5138.28
6731.81,5147.83
6732.28,5157.48
6732.28,5669.29
6731.81,5678.94
6730.39,5688.49
6728.05,5697.86
6724.79,5706.96
6720.66,5715.69
6715.7,5723.97
6709.94,5731.73
6703.46,5738.89
6696.3,5745.38
6688.54,5751.13
6680.26,5756.09
6671.52,5760.22
6662.43,5763.48
6653.06,5765.83
6643.51,5767.24
6633.86,5767.72
6309.05,5767.72
6299.41,5767.24
6289.85,5765.83
6280.48,5763.48
6271.39,5760.22
6262.66,5756.09
6254.37,5751.13
6246.61,5745.38
6239.46,5738.89
6232.97,5731.73
6227.22,5723.97
6222.25,5715.69
6218.12,5706.96
6214.87,5697.86
6212.52,5688.49
6211.1,5678.94
6210.63,5669.29
6210.63,5157.48
6211.1,5147.83
6212.52,5138.28
6214.87,5128.91
6218.12,5119.81
6222.25,5111.08
6227.22,5102.8
6232.97,5095.04
6239.46,5087.88
6246.61,5081.4
6254.37,5075.64
6262.66,5070.68
6271.39,5066.55
6280.48,5063.29
6289.85,5060.95
6299.41,5059.53
6309.05,5059.06
6633.86,5059.06
Z" /> 
</g>
<g >
</g>
<g style="fill:#000000; fill-opacity:1.0; 
stroke:#000000; stroke-width:0; stroke-opacity:1; 
stroke-linecap:round; stroke-linejoin:round;">
<path style="fill:#000000; fill-opacity:1.0; 
stroke:#000000; stroke-width:0; stroke-opacity:1; 
stroke-linecap:round; stroke-linejoin:round;fill-rule:evenodd;"
d="M 15551,7618.58
15560.5,7620
15569.9,7622.35
15579,7625.6
15587.7,7629.73
15596,7634.7
15603.8,7640.45
15610.9,7646.94
15617.4,7654.09
15623.2,7661.85
15628.1,7670.14
15632.3,7678.87
15635.5,7687.96
15637.9,7697.33
15639.3,7706.89
15639.8,7716.54
15639.8,8228.35
15639.3,8237.99
15637.9,8247.55
15635.5,8256.92
15632.3,8266.01
15628.1,8274.74
15623.2,8283.03
15617.4,8290.79
15610.9,8297.94
15603.8,8304.43
15596,8310.18
15587.7,8315.15
15579,8319.28
15569.9,8322.53
15560.5,8324.88
15551,8326.3
15541.3,8326.77
15216.5,8326.77
15206.9,8326.3
15197.3,8324.88
15188,8322.53
15178.9,8319.28
15170.1,8315.15
15161.9,8310.18
15154.1,8304.43
15146.9,8297.94
15140.5,8290.79
15134.7,8283.03
15129.7,8274.74
15125.6,8266.01
15122.3,8256.92
15120,8247.55
15118.6,8237.99
15118.1,8228.35
15118.1,7716.54
15118.6,7706.89
15120,7697.33
15122.3,7687.96
15125.6,7678.87
15129.7,7670.14
15134.7,7661.85
15140.5,7654.09
15146.9,7646.94
15154.1,7640.45
15161.9,7634.7
15170.1,7629.73
15178.9,7625.6
15188,7622.35
15197.3,7620
15206.9,7618.58
15216.5,7618.11
15541.3,7618.11
Z" /> 
<path style="fill:#000000; fill-opacity:1.0; 
stroke:#000000; stroke-width:0; stroke-opacity:1; 
stroke-linecap:round; stroke-linejoin:round;fill-rule:evenodd;"
d="M 14320.7,7618.58
14330.2,7620
14339.6,7622.35
14348.7,7625.6
14357.4,7629.73
14365.7,7634.7
14373.5,7640.45
14380.6,7646.94
14387.1,7654.09
14392.9,7661.85
14397.8,7670.14
14402,7678.87
14405.2,7687.96
14407.6,7697.33
14409,7706.89
14409.4,7716.54
14409.4,8228.35
14409,8237.99
14407.6,8247.55
14405.2,8256.92
14402,8266.01
14397.8,8274.74
14392.9,8283.03
14387.1,8290.79
14380.6,8297.94
14373.5,8304.43
14365.7,8310.18
14357.4,8315.15
14348.7,8319.28
14339.6,8322.53
14330.2,8324.88
14320.7,8326.3
14311,8326.77
13986.2,8326.77
13976.6,8326.3
13967,8324.88
13957.6,8322.53
13948.6,8319.28
13939.8,8315.15
13931.5,8310.18
13923.8,8304.43
13916.6,8297.94
13910.1,8290.79
13904.4,8283.03
13899.4,8274.74
13895.3,8266.01
13892,8256.92
13889.7,8247.55
13888.3,8237.99
13887.8,8228.35
13887.8,7716.54
13888.3,7706.89
13889.7,7697.33
13892,7687.96
13895.3,7678.87
13899.4,7670.14
13904.4,7661.85
13910.1,7654.09
13916.6,7646.94
13923.8,7640.45
13931.5,7634.7
13939.8,7629.73
13948.6,7625.6
13957.6,7622.35
13967,7620
13976.6,7618.58
13986.2,7618.11
14311,7618.11
Z" /> 
</g>
<g >
</g>
<g style="fill:#000000; fill-opacity:1.0; 
stroke:#000000; stroke-width:0; stroke-opacity:1; 
stroke-linecap:round; stroke-linejoin:round;">
<path style="fill:#000000; fill-opacity:1.0; 
stroke:#000000; stroke-width:0; stroke-opacity:1; 
stroke-linecap:round; stroke-linejoin:round;fill-rule:evenodd;"
d="M 13730.1,5059.53
13739.7,5060.95
13749,5063.29
13758.1,5066.55
13766.9,5070.68
13775.2,5075.64
13782.9,5081.4
13790.1,5087.88
13796.6,5095.04
13802.3,5102.8
13807.3,5111.08
13811.4,5119.81
13814.7,5128.91
13817,5138.28
13818.4,5147.83
13818.9,5157.48
13818.9,5669.29
13818.4,5678.94
13817,5688.49
13814.7,5697.86
13811.4,5706.96
13807.3,5715.69
13802.3,5723.97
13796.6,5731.73
13790.1,5738.89
13782.9,5745.38
13775.2,5751.13
13766.9,5756.09
13758.1,5760.22
13749,5763.48
13739.7,5765.83
13730.1,5767.24
13720.5,5767.72
13395.7,5767.72
13386,5767.24
13376.5,5765.83
13367.1,5763.48
13358,5760.22
13349.3,5756.09
13341,5751.13
13333.2,5745.38
13326.1,5738.89
13319.6,5731.73
13313.8,5723.97
13308.9,5715.69
13304.7,5706.96
13301.5,5697.86
13299.1,5688.49
13297.7,5678.94
13297.2,5669.29
13297.2,5157.48
13297.7,5147.83
13299.1,5138.28
13301.5,5128.91
13304.7,5119.81
13308.9,5111.08
13313.8,5102.8
13319.6,5095.04
13326.1,5087.88
13333.2,5081.4
13341,5075.64
13349.3,5070.68
13358,5066.55
13367.1,5063.29
13376.5,5060.95
13386,5059.53
13395.7,5059.06
13720.5,5059.06
Z" /> 
<path style="fill:#000000; fill-opacity:1.0; 
stroke:#000000; stroke-width:0; stroke-opacity:1; 
stroke-linecap:round; stroke-linejoin:round;fill-rule:evenodd;"
d="M 14960.4,5059.53
14970,5060.95
14979.4,5063.29
14988.5,5066.55
14997.2,5070.68
15005.5,5075.64
15013.2,5081.4
15020.4,5087.88
15026.9,5095.04
15032.6,5102.8
15037.6,5111.08
15041.7,5119.81
15045,5128.91
15047.3,5138.28
15048.7,5147.83
15049.2,5157.48
15049.2,5669.29
15048.7,5678.94
15047.3,5688.49
15045,5697.86
15041.7,5706.96
15037.6,5715.69
15032.6,5723.97
15026.9,5731.73
15020.4,5738.89
15013.2,5745.38
15005.5,5751.13
14997.2,5756.09
14988.5,5760.22
14979.4,5763.48
14970,5765.83
14960.4,5767.24
14950.8,5767.72
14626,5767.72
14616.3,5767.24
14606.8,5765.83
14597.4,5763.48
14588.3,5760.22
14579.6,5756.09
14571.3,5751.13
14563.5,5745.38
14556.4,5738.89
14549.9,5731.73
14544.1,5723.97
14539.2,5715.69
14535.1,5706.96
14531.8,5697.86
14529.5,5688.49
14528,5678.94
14527.6,5669.29
14527.6,5157.48
14528,5147.83
14529.5,5138.28
14531.8,5128.91
14535.1,5119.81
14539.2,5111.08
14544.1,5102.8
14549.9,5095.04
14556.4,5087.88
14563.5,5081.4
14571.3,5075.64
14579.6,5070.68
14588.3,5066.55
14597.4,5063.29
14606.8,5060.95
14616.3,5059.53
14626,5059.06
14950.8,5059.06
Z" /> 
</g>
<g >
</g>
<g style="fill:#000000; fill-opacity:1.0; 
stroke:#000000; stroke-width:0; stroke-opacity:1; 
stroke-linecap:round; stroke-linejoin:round;">
<path style="fill:#000000; fill-opacity:1.0; 
stroke:#000000; stroke-width:0; stroke-opacity:1; 
stroke-linecap:round; stroke-linejoin:round;fill-rule:evenodd;"
d="M 6052.95,7618.58
6062.51,7620
6071.88,7622.35
6080.97,7625.6
6089.7,7629.73
6097.99,7634.7
6105.75,7640.45
6112.9,7646.94
6119.39,7654.09
6125.14,7661.85
6130.11,7670.14
6134.24,7678.87
6137.49,7687.96
6139.84,7697.33
6141.26,7706.89
6141.73,7716.54
6141.73,8228.35
6141.26,8237.99
6139.84,8247.55
6137.49,8256.92
6134.24,8266.01
6130.11,8274.74
6125.14,8283.03
6119.39,8290.79
6112.9,8297.94
6105.75,8304.43
6097.99,8310.18
6089.7,8315.15
6080.97,8319.28
6071.88,8322.53
6062.51,8324.88
6052.95,8326.3
6043.31,8326.77
5718.5,8326.77
5708.86,8326.3
5699.3,8324.88
5689.93,8322.53
5680.84,8319.28
5672.11,8315.15
5663.82,8310.18
5656.06,8304.43
5648.91,8297.94
5642.42,8290.79
5636.67,8283.03
5631.7,8274.74
5627.57,8266.01
5624.32,8256.92
5621.97,8247.55
5620.55,8237.99
5620.08,8228.35
5620.08,7716.54
5620.55,7706.89
5621.97,7697.33
5624.32,7687.96
5627.57,7678.87
5631.7,7670.14
5636.67,7661.85
5642.42,7654.09
5648.91,7646.94
5656.06,7640.45
5663.82,7634.7
5672.11,7629.73
5680.84,7625.6
5689.93,7622.35
5699.3,7620
5708.86,7618.58
5718.5,7618.11
6043.31,7618.11
Z" /> 
<path style="fill:#000000; fill-opacity:1.0; 
stroke:#000000; stroke-width:0; stroke-opacity:1; 
stroke-linecap:round; stroke-linejoin:round;fill-rule:evenodd;"
d="M 7283.27,7618.58
7292.82,7620
7302.19,7622.35
7311.29,7625.6
7320.02,7629.73
7328.3,7634.7
7336.06,7640.45
7343.22,7646.94
7349.71,7654.09
7355.46,7661.85
7360.43,7670.14
7364.56,7678.87
7367.81,7687.96
7370.16,7697.33
7371.57,7706.89
7372.05,7716.54
7372.05,8228.35
7371.57,8237.99
7370.16,8247.55
7367.81,8256.92
7364.56,8266.01
7360.43,8274.74
7355.46,8283.03
7349.71,8290.79
7343.22,8297.94
7336.06,8304.43
7328.3,8310.18
7320.02,8315.15
7311.29,8319.28
7302.19,8322.53
7292.82,8324.88
7283.27,8326.3
7273.62,8326.77
6948.82,8326.77
6939.17,8326.3
6929.62,8324.88
6920.25,8322.53
6911.15,8319.28
6902.42,8315.15
6894.14,8310.18
6886.38,8304.43
6879.22,8297.94
6872.74,8290.79
6866.98,8283.03
6862.02,8274.74
6857.89,8266.01
6854.63,8256.92
6852.29,8247.55
6850.87,8237.99
6850.39,8228.35
6850.39,7716.54
6850.87,7706.89
6852.29,7697.33
6854.63,7687.96
6857.89,7678.87
6862.02,7670.14
6866.98,7661.85
6872.74,7654.09
6879.22,7646.94
6886.38,7640.45
6894.14,7634.7
6902.42,7629.73
6911.15,7625.6
6920.25,7622.35
6929.62,7620
6939.17,7618.58
6948.82,7618.11
7273.62,7618.11
Z" /> 
</g>
<g >
</g>
<g style="fill:#000000; fill-opacity:1.0; 
stroke:#000000; stroke-width:0; stroke-opacity:1; 
stroke-linecap:round; stroke-linejoin:round;">
<circle cx="6102.36" cy="7283.46" r="157.48" /> 
</g>
<g style="fill:#000000; fill-opacity:1.0; 
stroke:#000000; stroke-width:39.3701; stroke-opacity:1; 
stroke-linecap:round; stroke-linejoin:round;">
</g>
<g style="fill:#000000; fill-opacity:1.0; 
stroke:#000000; stroke-width:0; stroke-opacity:1; 
stroke-linecap:round; stroke-linejoin:round;">
<circle cx="10629.9" cy="6889.76" r="157.48" /> 
</g>
<g style="fill:#000000; fill-opacity:1.0; 
stroke:#000000; stroke-width:39.3701; stroke-opacity:1; 
stroke-linecap:round; stroke-linejoin:round;">
</g>
<g style="fill:#000000; fill-opacity:1.0; 
stroke:#000000; stroke-width:0; stroke-opacity:1; 
stroke-linecap:round; stroke-linejoin:round;">
<circle cx="14763.8" cy="7283.46" r="157.48" /> 
</g>
<g style="fill:#000000; fill-opacity:1.0; 
stroke:#000000; stroke-width:39.3701; stroke-opacity:1; 
stroke-linecap:round; stroke-linejoin:round;">
</g>
<g style="fill:#000000; fill-opacity:1.0; 
stroke:#000000; stroke-width:0; stroke-opacity:1; 
stroke-linecap:round; stroke-linejoin:round;">
<circle cx="15354.3" cy="5314.96" r="157.48" /> 
</g>
<g style="fill:#000000; fill-opacity:1.0; 
stroke:#000000; stroke-width:39.3701; stroke-opacity:1; 
stroke-linecap:round; stroke-linejoin:round;">
</g>
<g style="fill:#000000; fill-opacity:1.0; 
stroke:#000000; stroke-width:0; stroke-opacity:1; 
stroke-linecap:round; stroke-linejoin:round;">
<circle cx="6299.21" cy="3740.16" r="157.48" /> 
</g>
<g style="fill:#000000; fill-opacity:1.0; 
stroke:#000000; stroke-width:39.3701; stroke-opacity:1; 
stroke-linecap:round; stroke-linejoin:round;">
</g>
<g style="fill:#000000; fill-opacity:1.0; 
stroke:#000000; stroke-width:0; stroke-opacity:1; 
stroke-linecap:round; stroke-linejoin:round;">
<circle cx="13401.6" cy="6677.17" r="157.48" /> 
</g>
<g style="fill:#000000; fill-opacity:1.0; 
stroke:#000000; stroke-width:39.3701; stroke-opacity:1; 
stroke-linecap:round; stroke-linejoin:round;">
</g>
<g style="fill:#000000; fill-opacity:1.0; 
stroke:#000000; stroke-width:0; stroke-opacity:1; 
stroke-linecap:round; stroke-linejoin:round;">
<circle cx="9562.99" cy="6708.66" r="157.48" /> 
</g>
<g style="fill:#000000; fill-opacity:1.0; 
stroke:#000000; stroke-width:39.3701; stroke-opacity:1; 
stroke-linecap:round; stroke-linejoin:round;">
</g>
<g style="fill:#000000; fill-opacity:1.0; 
stroke:#000000; stroke-width:0; stroke-opacity:1; 
stroke-linecap:round; stroke-linejoin:round;">
<circle cx="9055.12" cy="3543.31" r="157.48" /> 
</g>
<g style="fill:#000000; fill-opacity:1.0; 
stroke:#000000; stroke-width:39.3701; stroke-opacity:1; 
stroke-linecap:round; stroke-linejoin:round;">
</g>
<g style="fill:#000000; fill-opacity:1.0; 
stroke:#000000; stroke-width:0; stroke-opacity:1; 
stroke-linecap:round; stroke-linejoin:round;">
<circle cx="12204.7" cy="6889.76" r="157.48" /> 
</g>
<g style="fill:#000000; fill-opacity:1.0; 
stroke:#000000; stroke-width:39.3701; stroke-opacity:1; 
stroke-linecap:round; stroke-linejoin:round;">
</g>
<g style="fill:#000000; fill-opacity:1.0; 
stroke:#000000; stroke-width:0; stroke-opacity:1; 
stroke-linecap:round; stroke-linejoin:round;">
<circle cx="9055.12" cy="7092.52" r="157.48" /> 
</g>
<g style="fill:#000000; fill-opacity:1.0; 
stroke:#000000; stroke-width:39.3701; stroke-opacity:1; 
stroke-linecap:round; stroke-linejoin:round;">
</g>
<g >
</g>
<g style="fill:#000000; fill-opacity:1.0; 
stroke:#000000; stroke-width:39.3701; stroke-opacity:1; 
stroke-linecap:round; stroke-linejoin:round;">
</g>
<g style="fill:#000000; fill-opacity:1.0; 
stroke:#000000; stroke-width:78.7402; stroke-opacity:1; 
stroke-linecap:round; stroke-linejoin:round;">
</g>
<g style="fill:#000000; fill-opacity:0.0; 
stroke:#000000; stroke-width:78.7402; stroke-opacity:1; 
stroke-linecap:round; stroke-linejoin:round;">
<path d="M0 0
L0 393
" />
<path d="M0 393
L393 0
" />
<path d="M393 0
L0 0
" />
</g>
<g style="fill:#000000; fill-opacity:0.0; 
stroke:#000000; stroke-width:295.276; stroke-opacity:1; 
stroke-linecap:round; stroke-linejoin:round;">
<path d="M9960 7106
L9960 7933
" />
<path d="M9562 6708
L9960 7106
" />
<path d="M7111 6717
L7102 6708
" />
<path d="M7102 6708
L9562 6708
" />
<path d="M7111 7972
L7111 6717
" />
<path d="M5330 6708
L7102 6708
" />
<path d="M13110 6968
L13110 7933
" />
<path d="M13401 6677
L13110 6968
" />
<path d="M14148 6735
L14090 6677
" />
<path d="M14148 7972
L14148 6735
" />
<path d="M14090 6677
L13401 6677
" />
<path d="M15929 6677
L14090 6677
" />
<path d="M5118 3444
L6003 3444
" />
<path d="M6003 3444
L6299 3740
" />
<path d="M16929 5677
L17551 5677
" />
<path d="M18523 4704
L18523 3169
" />
<path d="M17551 5677
L18523 4704
" />
</g>
<g style="fill:#000000; fill-opacity:0.0; 
stroke:#000000; stroke-width:393.701; stroke-opacity:1; 
stroke-linecap:round; stroke-linejoin:round;">
<path d="M18523 3169
L19783 3169
" />
<path d="M17224 3169
L18523 3169
" />
</g>
<g style="fill:#000000; fill-opacity:0.0; 
stroke:#000000; stroke-width:98.4252; stroke-opacity:1; 
stroke-linecap:round; stroke-linejoin:round;">
<path d="M8976 2913
L8976 2976
" />
</g>
<g style="fill:#000000; fill-opacity:0.0; 
stroke:#000000; stroke-width:196.85; stroke-opacity:1; 
stroke-linecap:round; stroke-linejoin:round;">
<path d="M12204 7933
L12204 6889
" />
<path d="M12204 6889
L12204 5452
" />
<path d="M11220 6889
L12204 6889
" />
<path d="M10629 6299
L11220 6889
" />
<path d="M6102 6299
L10629 6299
" />
<path d="M5511 5708
L6102 6299
" />
<path d="M4330 5708
L5511 5708
" />
</g>
<g style="fill:#000000; fill-opacity:0.0; 
stroke:#000000; stroke-width:137.795; stroke-opacity:1; 
stroke-linecap:round; stroke-linejoin:round;">
<path d="M8976 3346
L9055 3543
" />
<path d="M8976 2913
L8976 3346
" />
</g>
<g style="fill:#000000; fill-opacity:0.0; 
stroke:#000000; stroke-width:393.701; stroke-opacity:1; 
stroke-linecap:round; stroke-linejoin:round;">
<path d="M12106 3169
L14665 3169
" />
</g>
<g style="fill:#000000; fill-opacity:0.0; 
stroke:#000000; stroke-width:295.276; stroke-opacity:1; 
stroke-linecap:round; stroke-linejoin:round;">
<path d="M10708 3169
L12106 3169
" />
<path d="M9793 4084
L10708 3169
" />
<path d="M9055 7933
L9055 7092
" />
<path d="M5629 4527
L6500 4527
" />
</g>
<g style="fill:#000000; fill-opacity:0.0; 
stroke:#000000; stroke-width:393.701; stroke-opacity:1; 
stroke-linecap:round; stroke-linejoin:round;">
<path d="M3444 1870
L5118 1870
" />
<path d="M3112 2202
L3444 1870
" />
<path d="M3112 3149
L3112 2202
" />
</g>
<g style="fill:#000000; fill-opacity:0.0; 
stroke:#000000; stroke-width:295.276; stroke-opacity:1; 
stroke-linecap:round; stroke-linejoin:round;">
<path d="M14758 4527
L15629 4527
" />
</g>
<g >
</g>
<g style="fill:#000000; fill-opacity:0.0; 
stroke:#000000; stroke-width:295.276; stroke-opacity:1; 
stroke-linecap:round; stroke-linejoin:round;">
<g >
</g>
<g style="fill:#000000; fill-opacity:1.0; 
stroke:#000000; stroke-width:100; stroke-opacity:1; 
stroke-linecap:round; stroke-linejoin:round;">
<path style="fill:#000000; fill-opacity:1.0; 
stroke:#000000; stroke-width:100; stroke-opacity:1; 
stroke-linecap:round; stroke-linejoin:round;fill-rule:evenodd;"
d="M 4607,893.816
4611.96,899.855
4636.06,919.633
4663.55,934.33
4693.38,943.379
4716.64,945.669
4716.64,945.669
4724.41,946.435
4732.18,945.669
20406.9,945.669
21101.6,1640.36
21101.6,8989.56
20800.6,9290.55
18569.5,9290.55
18227.6,8948.7
18222.7,8942.66
18198.6,8922.89
18171.1,8908.19
18141.3,8899.14
18118,8896.85
18118,8896.85
18110.2,8896.09
18102.5,8896.85
3157.38,8896.85
3149.61,8896.09
3141.83,8896.85
3141.83,8896.85
3118.58,8899.14
3088.75,8908.19
3061.25,8922.89
3037.15,8942.66
3032.2,8948.7
2690.35,9290.55
459.257,9290.55
158.268,8989.56
158.268,5413.39
442.126,5413.39
442.126,8366.14
444.978,8395.1
453.424,8422.94
467.14,8448.6
485.599,8471.09
584.024,8569.52
606.516,8587.98
632.176,8601.69
660.02,8610.14
688.976,8612.99
2559.06,8612.99
2588.01,8610.14
2615.86,8601.69
2641.52,8587.98
2664.01,8569.52
2762.43,8471.09
2780.89,8448.6
2794.61,8422.94
2803.05,8395.1
2805.91,8366.14
2805.91,8326.77
5368.87,8326.77
5373.7,8375.78
5387.99,8422.91
5411.21,8466.34
5442.45,8504.4
5480.51,8535.64
5523.94,8558.86
5571.07,8573.15
5620.08,8577.98
5768.41,8576.77
5830.91,8514.27
5830.91,8022.44
5930.91,8022.44
5930.91,8514.27
5993.41,8576.77
6141.73,8577.98
6190.74,8573.15
6237.87,8558.86
6281.3,8535.64
6319.36,8504.4
6350.61,8466.34
6373.82,8422.91
6388.11,8375.78
6392.94,8326.77
6391.73,8084.94
6329.23,8022.44
5930.91,8022.44
5830.91,8022.44
5432.58,8022.44
5370.08,8084.94
5368.87,8326.77
2805.91,8326.77
2805.91,7738.64
3112.66,7431.89
3740.16,7431.89
3769.27,7429.01
3966.68,7389.52
3955.48,7400.72
3902.62,7479.84
3866.2,7567.75
3847.64,7661.08
3847.64,7756.24
3866.2,7849.57
3902.62,7937.48
3955.48,8016.6
4022.77,8083.89
4101.89,8136.75
4189.8,8173.17
4283.13,8191.73
4378.29,8191.73
4471.62,8173.17
4559.53,8136.75
4638.65,8083.89
4705.93,8016.6
4758.8,7937.48
4795.22,7849.57
4813.78,7756.24
4813.78,7661.08
4805.23,7618.11
5368.87,7618.11
5370.08,7859.94
5432.58,7922.44
5830.91,7922.44
5830.91,7430.61
5930.91,7430.61
5930.91,7922.44
6329.23,7922.44
6391.73,7859.94
6392.94,7618.11
6388.11,7569.1
6373.82,7521.98
6350.61,7478.55
6319.36,7440.48
6281.3,7409.24
6237.87,7386.02
6190.74,7371.73
6141.73,7366.9
5993.41,7368.11
5930.91,7430.61
5830.91,7430.61
5768.41,7368.11
5620.08,7366.9
5571.07,7371.73
5523.94,7386.02
5480.51,7409.24
5442.45,7440.48
5411.21,7478.55
5387.99,7521.98
5373.7,7569.1
5368.87,7618.11
4805.23,7618.11
4795.22,7567.75
4758.8,7479.84
4705.93,7400.72
4638.65,7333.44
4559.53,7280.57
4543.87,7274.09
4753.52,7232.16
4774.48,7226.34
4800.77,7213.89
4824.14,7196.54
4843.67,7174.98
4858.61,7150.01
4868.4,7122.61
4911.4,6950.63
4955.48,7016.6
5022.77,7083.89
5101.89,7136.75
5189.8,7173.17
5283.13,7191.73
5378.29,7191.73
5471.62,7173.17
5559.53,7136.75
5638.65,7083.89
5705.93,7016.6
5713.87,7004.72
6815.16,7004.72
6815.16,7508.62
6811.28,7510.69
6773.76,7541.48
6742.97,7578.99
6720.1,7621.79
6706.01,7668.24
6701.25,7716.54
6701.25,8228.35
6706.01,8276.64
6720.1,8323.09
6742.97,8365.89
6773.76,8403.4
6811.28,8434.19
6854.08,8457.07
6900.52,8471.16
6948.82,8475.91
7273.62,8475.91
7321.92,8471.16
7368.36,8457.07
7411.16,8434.19
7448.68,8403.4
7479.47,8365.89
7500.38,8326.77
7603.12,8326.77
7607.95,8375.78
7622.24,8422.91
7645.46,8466.34
7676.7,8504.4
7714.77,8535.64
7758.2,8558.86
7805.32,8573.15
7854.33,8577.98
8037.11,8576.77
8099.61,8514.27
8099.61,7983.07
7666.83,7983.07
7604.33,8045.57
7603.12,8326.77
7500.38,8326.77
7502.35,8323.09
7516.43,8276.64
7521.19,8228.35
7521.19,7716.54
7516.43,7668.24
7502.35,7621.79
7479.47,7578.99
7448.68,7541.48
7446.11,7539.37
7603.12,7539.37
7604.33,7820.57
7666.83,7883.07
8099.61,7883.07
8099.61,7351.87
8037.11,7289.37
7854.33,7288.16
7805.32,7292.99
7758.2,7307.28
7714.77,7330.5
7676.7,7361.74
7645.46,7399.81
7622.24,7443.24
7607.95,7490.36
7603.12,7539.37
7446.11,7539.37
7411.16,7510.69
7407.28,7508.62
7407.28,7004.72
8760.68,7004.72
8749.21,7062.39
8749.21,7122.65
8759.06,7172.13
8759.06,7390.3
8730.75,7393.09
8702.77,7401.58
8676.98,7415.36
8666.62,7423.87
8653.75,7399.81
8622.51,7361.74
8584.45,7330.5
8541.02,7307.28
8493.89,7292.99
8444.88,7288.16
8262.11,7289.37
8199.61,7351.87
8199.61,7883.07
8207.48,7883.07
8207.48,7983.07
8199.61,7983.07
8199.61,8514.27
8262.11,8576.77
8444.88,8577.98
8493.89,8573.15
8541.02,8558.86
8584.45,8535.64
8622.51,8504.4
8653.75,8466.34
8666.62,8442.27
8676.98,8450.78
8702.77,8464.56
8730.75,8473.05
8759.84,8475.91
9350.39,8475.91
9379.49,8473.05
9407.47,8464.56
9433.25,8450.78
9455.85,8432.23
9474.4,8409.63
9488.18,8383.85
9496.67,8355.87
9499.54,8326.77
9499.54,7539.37
9496.67,7510.27
9488.18,7482.3
9474.4,7456.51
9455.85,7433.91
9433.25,7415.36
9407.47,7401.58
9379.49,7393.09
9351.18,7390.3
9351.18,7172.13
9361.02,7122.65
9361.02,7062.39
9349.55,7004.72
9440.36,7004.72
9664.57,7228.93
9664.57,7390.3
9636.26,7393.09
9608.28,7401.58
9582.49,7415.36
9559.89,7433.91
9541.35,7456.51
9527.56,7482.3
9519.08,7510.27
9516.21,7539.37
9516.21,8326.77
9519.08,8355.87
9527.56,8383.85
9541.35,8409.63
9559.89,8432.23
9582.49,8450.78
9608.28,8464.56
9636.26,8473.05
9665.35,8475.91
10255.9,8475.91
10285,8473.05
10313,8464.56
10338.8,8450.78
10361.4,8432.23
10379.9,8409.63
10393.7,8383.85
10402.2,8355.87
10405,8326.77
10752.7,8326.77
10757.6,8375.78
10771.8,8422.91
10795.1,8466.34
10826.3,8504.4
10864.4,8535.64
10907.8,8558.86
10954.9,8573.15
11003.9,8577.98
11186.7,8576.77
11249.2,8514.27
11249.2,7983.07
10816.4,7983.07
10753.9,8045.57
10752.7,8326.77
10405,8326.77
10405,7539.37
10752.7,7539.37
10753.9,7820.57
10816.4,7883.07
11249.2,7883.07
11249.2,7351.87
11186.7,7289.37
11003.9,7288.16
10954.9,7292.99
10907.8,7307.28
10864.4,7330.5
10826.3,7361.74
10795.1,7399.81
10771.8,7443.24
10757.6,7490.36
10752.7,7539.37
10405,7539.37
10402.2,7510.27
10393.7,7482.3
10379.9,7456.51
10361.4,7433.91
10338.8,7415.36
10313,7401.58
10285,7393.09
10256.7,7390.3
10256.7,7120.84
10258.1,7106.3
10256.7,7091.76
10252.4,7048.26
10235.5,6992.45
10208,6941.02
10171,6895.94
10159.7,6886.67
9828.64,6555.61
9822.26,6546.06
10527.7,6546.06
11037.3,7055.74
11045.1,7065.16
11082.7,7096.01
11125.5,7118.93
11172.1,7133.04
11208.3,7136.61
11208.3,7136.61
11220.5,7137.81
11232.6,7136.61
11957.9,7136.61
11957.9,7390.23
11909.4,7390.23
11880.4,7393.09
11852.4,7401.58
11826.6,7415.36
11816.2,7423.87
11803.4,7399.81
11772.1,7361.74
11734.1,7330.5
11690.6,7307.28
11643.5,7292.99
11594.5,7288.16
11411.7,7289.37
11349.2,7351.87
11349.2,7883.07
11357.1,7883.07
11357.1,7983.07
11349.2,7983.07
11349.2,8514.27
11411.7,8576.77
11594.5,8577.98
11643.5,8573.15
11690.6,8558.86
11734.1,8535.64
11772.1,8504.4
11803.4,8466.34
11816.2,8442.27
11826.6,8450.78
11852.4,8464.56
11880.4,8473.05
11909.4,8475.91
12500,8475.91
12529.1,8473.05
12557.1,8464.56
12582.9,8450.78
12605.5,8432.23
12624,8409.63
12637.8,8383.85
12646.3,8355.87
12649.1,8326.77
12649.1,7539.37
12665.8,7539.37
12665.8,8326.77
12668.7,8355.87
12677.2,8383.85
12691,8409.63
12709.5,8432.23
12732.1,8450.78
12757.9,8464.56
12785.9,8473.05
12815,8475.91
13405.5,8475.91
13434.6,8473.05
13462.6,8464.56
13488.4,8450.78
13511,8432.23
13529.5,8409.63
13543.3,8383.85
13551.8,8355.87
13554.7,8326.77
13554.7,7539.37
13551.8,7510.27
13543.3,7482.3
13529.5,7456.51
13511,7433.91
13488.4,7415.36
13462.6,7401.58
13434.6,7393.09
13406.3,7390.3
13406.3,7091.14
13524.2,6973.23
13852.6,6973.23
13852.6,7508.62
13848.7,7510.69
13811.2,7541.48
13780.4,7578.99
13757.5,7621.79
13743.4,7668.24
13738.7,7716.54
13738.7,8228.35
13743.4,8276.64
13757.5,8323.09
13780.4,8365.89
13811.2,8403.4
13848.7,8434.19
13891.5,8457.07
13937.9,8471.16
13986.2,8475.91
14311,8475.91
14359.3,8471.16
14405.8,8457.07
14448.6,8434.19
14486.1,8403.4
14516.9,8365.89
14537.8,8326.77
14866.9,8326.77
14871.7,8375.78
14886,8422.91
14909.2,8466.34
14940.5,8504.4
14978.5,8535.64
15022,8558.86
15069.1,8573.15
15118.1,8577.98
15266.4,8576.77
15328.9,8514.27
15328.9,8022.44
15428.9,8022.44
15428.9,8514.27
15491.4,8576.77
15639.8,8577.98
15688.8,8573.15
15735.9,8558.86
15779.3,8535.64
15817.4,8504.4
15848.6,8466.34
15871.9,8422.91
15886.1,8375.78
15891,8326.77
15889.8,8084.94
15827.3,8022.44
15428.9,8022.44
15328.9,8022.44
14930.6,8022.44
14868.1,8084.94
14866.9,8326.77
14537.8,8326.77
14539.7,8323.09
14553.8,8276.64
14558.6,8228.35
14558.6,7716.54
14553.8,7668.24
14539.7,7621.79
14537.8,7618.11
14866.9,7618.11
14868.1,7859.94
14930.6,7922.44
15328.9,7922.44
15328.9,7430.61
15428.9,7430.61
15428.9,7922.44
15827.3,7922.44
15889.8,7859.94
15891,7618.11
15886.1,7569.1
15871.9,7521.98
15848.6,7478.55
15817.4,7440.48
15779.3,7409.24
15735.9,7386.02
15688.8,7371.73
15639.8,7366.9
15491.4,7368.11
15428.9,7430.61
15328.9,7430.61
15266.4,7368.11
15118.1,7366.9
15069.1,7371.73
15022,7386.02
14978.5,7409.24
14940.5,7440.48
14909.2,7478.55
14886,7521.98
14871.7,7569.1
14866.9,7618.11
14537.8,7618.11
14516.9,7578.99
14486.1,7541.48
14448.6,7510.69
14444.7,7508.62
14444.7,6973.23
15546,6973.23
15553.9,6985.11
15621.2,7052.39
15700.3,7105.26
15788.2,7141.67
15881.6,7160.24
15976.7,7160.24
16070,7141.67
16158,7105.26
16237.1,7052.39
16304.4,6985.11
16342.7,6927.71
16391.4,7122.61
16398.2,7143.27
16411.9,7168.95
16430.4,7191.46
16452.8,7209.94
16478.5,7223.68
16498.1,7229.64
16489,7237.06
16470.5,7259.66
16456.7,7285.44
16448.2,7313.42
16445.3,7342.52
16445.3,8011.81
16448.2,8040.91
16456.7,8068.89
16470.5,8094.67
16489,8117.27
16511.6,8135.82
16537.4,8149.6
16565.4,8158.09
16594.5,8160.95
17263.8,8160.95
17292.9,8158.09
17320.9,8149.6
17346.6,8135.82
17369.2,8117.27
17387.8,8094.67
17401.6,8068.89
17410.1,8040.91
17412.9,8011.81
17412.9,7413.48
17490.6,7429.01
17519.7,7431.89
18147.2,7431.89
18453.9,7738.64
18453.9,8366.14
18456.8,8395.1
18465.2,8422.94
18479,8448.6
18497.4,8471.09
18595.8,8569.52
18618.3,8587.98
18644,8601.69
18671.8,8610.14
18700.8,8612.99
20570.9,8612.99
20599.8,8610.14
20627.7,8601.69
20653.3,8587.98
20675.8,8569.52
20774.2,8471.09
20792.7,8448.6
20806.4,8422.94
20814.9,8395.1
20817.7,8366.14
20817.7,5413.39
20814.9,5384.43
20806.4,5356.59
20792.7,5330.93
20774.2,5308.43
20675.8,5210.01
20653.3,5191.55
20627.7,5177.83
20599.8,5169.39
20570.9,5166.54
18700.8,5166.54
18671.8,5169.39
18644,5177.83
18618.3,5191.55
18595.8,5210.01
18497.4,5308.43
18479,5330.93
18465.2,5356.59
18456.8,5384.43
18453.9,5413.39
18453.9,5548.76
18048.8,5953.94
17658.7,5953.94
17665,5952.01
17716.5,5924.52
17761.5,5887.53
17770.8,5876.23
18722.7,4924.36
18734,4915.09
18743.3,4903.79
18771,4870
18798.5,4818.57
18798.5,4818.57
18815.4,4762.76
18819.7,4719.27
18819.7,4719.26
18821.1,4704.72
18819.7,4690.19
18819.7,3514.57
19319.4,3514.57
19319.4,3582.68
19324.1,3630.98
19338.2,3677.42
19361.1,3720.22
19391.9,3757.73
19429.4,3788.52
19472.2,3811.4
19518.6,3825.49
19566.9,3830.25
20000,3830.25
20048.3,3825.49
20094.7,3811.4
20137.5,3788.52
20175.1,3757.73
20205.8,3720.22
20228.7,3677.42
20242.8,3630.98
20247.6,3582.68
20247.6,2755.91
20242.8,2707.61
20228.7,2661.16
20205.8,2618.36
20175.1,2580.85
20137.5,2550.06
20094.7,2527.18
20053.7,2514.72
20098.4,2514.99
20147.4,2510.16
20194.6,2495.87
20238,2472.65
20276.1,2441.41
20307.3,2403.34
20330.5,2359.91
20344.8,2312.79
20349.6,2263.78
20348.4,1864.47
20285.9,1801.97
19833.5,1801.97
19833.5,1809.84
19733.5,1809.84
19733.5,1801.97
19281,1801.97
19218.5,1864.47
19217.3,2263.78
19222.1,2312.79
19236.4,2359.91
19259.6,2403.34
19290.9,2441.41
19328.9,2472.65
19372.4,2495.87
19419.5,2510.16
19468.5,2514.99
19513.3,2514.72
19472.2,2527.18
19429.4,2550.06
19391.9,2580.85
19361.1,2618.36
19338.2,2661.16
19324.1,2707.61
19319.4,2755.91
19319.4,2824.02
17688.5,2824.02
17688.5,2755.91
17683.8,2707.61
17669.7,2661.16
17646.8,2618.36
17616,2580.85
17578.5,2550.06
17535.7,2527.18
17494.6,2514.72
17539.4,2514.99
17588.4,2510.16
17635.5,2495.87
17678.9,2472.65
17717,2441.41
17748.2,2403.34
17771.5,2359.91
17785.8,2312.79
17790.6,2263.78
17789.4,1864.47
17726.9,1801.97
17274.4,1801.97
17274.4,1809.84
17174.4,1809.84
17174.4,1801.97
16721.9,1801.97
16659.4,1864.47
16658.2,2263.78
16663.1,2312.79
16677.4,2359.91
16700.6,2403.34
16731.8,2441.41
16769.9,2472.65
16813.3,2495.87
16860.4,2510.16
16909.4,2514.99
16954.2,2514.72
16913.1,2527.18
16870.3,2550.06
16832.8,2580.85
16802,2618.36
16779.2,2661.16
16765.1,2707.61
16760.3,2755.91
16760.3,3582.68
16765.1,3630.98
16779.2,3677.42
16802,3720.22
16832.8,3757.73
16870.3,3788.52
16913.1,3811.4
16959.6,3825.49
17007.9,3830.25
17440.9,3830.25
17489.2,3825.49
17535.7,3811.4
17578.5,3788.52
17616,3757.73
17646.8,3720.22
17669.7,3677.42
17683.8,3630.98
17688.5,3582.68
17688.5,3514.57
18227.6,3514.57
18227.6,4582.09
17428.5,5381.1
17312.3,5381.1
17304.4,5369.23
17237.1,5301.94
17158,5249.07
17070,5212.66
16976.7,5194.09
16881.6,5194.09
16788.2,5212.66
16700.3,5249.07
16621.2,5301.94
16553.9,5369.23
16501,5448.35
16464.6,5536.26
16446.1,5629.59
16446.1,5724.74
16464.6,5818.07
16501,5905.99
16553.9,5985.11
16621.2,6052.39
16700.3,6105.26
16716,6111.74
16506.3,6153.67
16485.4,6159.49
16459.1,6171.94
16435.7,6189.28
16416.2,6210.85
16401.2,6235.81
16391.4,6263.21
16348.4,6435.2
16304.4,6369.23
16237.1,6301.94
16158,6249.07
16070,6212.66
15976.7,6194.09
15881.6,6194.09
15788.2,6212.66
15700.3,6249.07
15621.2,6301.94
15553.9,6369.23
15546,6381.1
14105.1,6381.1
14090.6,6379.67
14076,6381.1
13481.2,6381.1
13431.7,6371.26
13371.4,6371.26
13312.3,6383.02
13256.7,6406.08
13206.6,6439.55
13164,6482.16
13135.9,6524.11
12911.2,6748.87
12899.9,6758.14
12885.6,6775.56
12862.9,6803.22
12842.5,6841.37
12835.4,6854.66
12818.5,6910.47
12814.4,6952.01
12812.7,6968.5
12814.2,6983.05
12814.2,7390.3
12785.9,7393.09
12757.9,7401.58
12732.1,7415.36
12709.5,7433.91
12691,7456.51
12677.2,7482.3
12668.7,7510.27
12665.8,7539.37
12649.1,7539.37
12646.3,7510.27
12637.8,7482.3
12624,7456.51
12605.5,7433.91
12582.9,7415.36
12557.1,7401.58
12529.1,7393.09
12500,7390.23
12451.6,7390.23
12451.6,7070.94
12475.8,7034.66
12498.9,6978.99
12510.6,6919.89
12510.6,6859.63
12498.9,6800.53
12475.8,6744.86
12451.6,6708.59
12451.6,6250.79
13779.5,6250.79
13808.5,6247.94
13836.3,6239.49
13862,6225.77
13884.5,6207.31
14081.3,6010.46
14099.8,5987.97
14113.5,5962.31
14122,5934.47
14124.8,5905.51
14124.8,5767.72
14276.3,5767.72
14281.2,5816.73
14295.5,5863.85
14318.7,5907.28
14349.9,5945.35
14388,5976.59
14431.4,5999.8
14478.6,6014.1
14527.6,6018.93
14675.9,6017.72
14738.4,5955.22
14738.4,5463.39
14838.4,5463.39
14838.4,5955.22
14900.9,6017.72
15049.2,6018.93
15098.2,6014.1
15145.3,5999.8
15188.8,5976.59
15226.8,5945.35
15258.1,5907.28
15281.3,5863.85
15295.6,5816.73
15300.4,5767.72
15299.2,5525.89
15236.7,5463.39
14838.4,5463.39
14738.4,5463.39
14340.1,5463.39
14277.6,5525.89
14276.3,5767.72
14124.8,5767.72
14124.8,5059.06
14276.3,5059.06
14277.6,5300.89
14340.1,5363.39
14738.4,5363.39
14738.4,5355.51
14838.4,5355.51
14838.4,5363.39
15236.7,5363.39
15299.2,5300.89
15300.4,5059.06
15295.6,5010.05
15281.3,4962.92
15258.1,4919.49
15226.8,4881.42
15188.8,4850.18
15177.1,4843.93
15183.2,4823.62
15230.1,4823.62
15243.7,4868.36
15266.6,4911.16
15297.4,4948.68
15334.9,4979.47
15377.7,5002.35
15424.1,5016.43
15472.4,5021.19
15787.4,5021.19
15835.7,5016.43
15882.1,5002.35
15924.9,4979.47
15962.5,4948.68
15993.2,4911.16
16014.2,4872.05
16343.3,4872.05
16348.1,4921.06
16362.4,4968.18
16385.6,5011.61
16416.9,5049.68
16454.9,5080.92
16498.4,5104.13
16545.5,5118.43
16594.5,5123.26
16737.9,5122.05
16800.4,5059.55
16800.4,4577.56
16900.4,4577.56
16900.4,5059.55
16962.9,5122.05
17106.3,5123.26
17155.3,5118.43
17202.4,5104.13
17245.9,5080.92
17283.9,5049.68
17315.2,5011.61
17338.4,4968.18
17352.7,4921.06
17357.5,4872.05
17356.3,4640.06
17293.8,4577.56
16900.4,4577.56
16800.4,4577.56
16407,4577.56
16344.5,4640.06
16343.3,4872.05
16014.2,4872.05
16016.1,4868.36
16030.2,4821.92
16035,4773.62
16035,4281.5
16030.2,4233.2
16016.1,4186.76
16014.2,4183.07
16343.3,4183.07
16344.5,4415.06
16407,4477.56
16800.4,4477.56
16800.4,3995.57
16900.4,3995.57
16900.4,4477.56
17293.8,4477.56
17356.3,4415.06
17357.5,4183.07
17352.7,4134.06
17338.4,4086.94
17315.2,4043.51
17283.9,4005.44
17245.9,3974.2
17202.4,3950.98
17155.3,3936.69
17106.3,3931.86
16962.9,3933.07
16900.4,3995.57
16800.4,3995.57
16737.9,3933.07
16594.5,3931.86
16545.5,3936.69
16498.4,3950.98
16454.9,3974.2
16416.9,4005.44
16385.6,4043.51
16362.4,4086.94
16348.1,4134.06
16343.3,4183.07
16014.2,4183.07
15993.2,4143.95
15962.5,4106.44
15924.9,4075.65
15882.1,4052.77
15835.7,4038.68
15787.4,4033.93
15472.4,4033.93
15424.1,4038.68
15377.7,4052.77
15334.9,4075.65
15297.4,4106.44
15266.6,4143.95
15243.7,4186.76
15230.1,4231.5
15183.2,4231.5
15169.7,4186.76
15146.8,4143.95
15116,4106.44
15078.5,4075.65
15035.7,4052.77
14989.2,4038.68
14940.9,4033.93
14576.8,4033.93
14528.5,4038.68
14482,4052.77
14439.2,4075.65
14401.7,4106.44
14370.9,4143.95
14348,4186.76
14334,4233.2
14329.2,4281.5
14329.2,4773.62
14334,4821.92
14348,4868.36
14353.5,4878.51
14349.9,4881.42
14318.7,4919.49
14295.5,4962.92
14281.2,5010.05
14276.3,5059.06
14124.8,5059.06
14124.8,4035.43
14122,4006.48
14113.5,3978.63
14099.8,3952.97
14081.3,3930.48
13884.5,3733.63
13862,3715.17
13836.3,3701.46
13808.5,3693.01
13779.5,3690.16
12544.7,3690.16
12551.6,3677.42
12565.6,3630.98
12570.4,3582.68
12570.4,3514.57
14201.3,3514.57
14201.3,3582.68
14206,3630.98
14220.1,3677.42
14243,3720.22
14273.8,3757.73
14311.3,3788.52
14354.1,3811.4
14400.5,3825.49
14448.8,3830.25
14881.9,3830.25
14930.2,3825.49
14976.6,3811.4
15019.4,3788.52
15056.9,3757.73
15087.7,3720.22
15110.6,3677.42
15124.7,3630.98
15129.5,3582.68
15129.5,2755.91
15124.7,2707.61
15110.6,2661.16
15087.7,2618.36
15056.9,2580.85
15019.4,2550.06
14976.6,2527.18
14935.6,2514.72
14980.3,2514.99
15029.3,2510.16
15076.4,2495.87
15119.9,2472.65
15157.9,2441.41
15189.2,2403.34
15212.4,2359.91
15226.7,2312.79
15231.5,2263.78
15230.3,1864.47
15167.8,1801.97
14715.4,1801.97
14715.4,1809.84
14615.4,1809.84
14615.4,1801.97
14162.9,1801.97
14100.4,1864.47
14099.2,2263.78
14104,2312.79
14118.3,2359.91
14141.5,2403.34
14172.8,2441.41
14210.8,2472.65
14254.3,2495.87
14301.4,2510.16
14350.4,2514.99
14395.2,2514.72
14354.1,2527.18
14311.3,2550.06
14273.8,2580.85
14243,2618.36
14220.1,2661.16
14206,2707.61
14201.3,2755.91
14201.3,2824.02
12570.4,2824.02
12570.4,2755.91
12565.6,2707.61
12551.6,2661.16
12528.7,2618.36
12497.9,2580.85
12460.4,2550.06
12417.6,2527.18
12376.5,2514.72
12421.3,2514.99
12470.3,2510.16
12517.4,2495.87
12560.8,2472.65
12598.9,2441.41
12630.1,2403.34
12653.3,2359.91
12667.6,2312.79
12672.5,2263.78
12671.3,1864.47
12608.8,1801.97
12156.3,1801.97
12156.3,1809.84
12056.3,1809.84
12056.3,1801.97
11603.8,1801.97
11541.3,1864.47
11540.1,2263.78
11545,2312.79
11559.3,2359.91
11582.5,2403.34
11613.7,2441.41
11651.8,2472.65
11695.2,2495.87
11742.3,2510.16
11791.3,2514.99
11836.1,2514.72
11795,2527.18
11752.2,2550.06
11714.7,2580.85
11683.9,2618.36
11661,2661.16
11647,2707.61
11642.2,2755.91
11642.2,2873.23
10723.2,2873.23
10708.7,2871.8
10694.1,2873.23
10694.1,2873.23
10650.6,2877.51
10594.8,2894.44
10543.4,2921.93
10498.3,2958.93
10489,2970.23
9769.1,3690.16
9324.91,3690.16
9326.21,3688.21
9349.27,3632.54
9361.02,3573.44
9361.02,3513.18
9349.27,3454.08
9331.21,3410.47
9350.28,3415.04
9449.47,3418.86
9547.5,3403.26
9640.61,3368.84
9675.03,3350.44
9695.81,3260.61
9419.29,2984.1
9413.72,2989.66
9343.01,2918.95
9348.58,2913.39
9490,2913.39
9766.52,3189.9
9856.34,3169.12
9897.84,3078.94
9920.94,2982.4
9924.77,2883.21
9909.17,2785.17
9874.74,2692.07
9856.34,2657.65
9766.52,2636.87
9490,2913.39
9348.58,2913.39
9343.01,2907.82
9413.72,2837.11
9419.29,2842.68
9695.81,2566.16
9675.03,2476.33
9584.85,2434.84
9490.27,2412.2
10728.3,2412.2
10738.1,2411.24
10747.5,2408.4
10756.1,2403.78
10763.7,2397.56
10769.9,2389.98
10774.5,2381.34
10777.4,2371.96
10778.3,2362.2
10778.3,1240.16
11540.1,1240.16
11541.3,1639.47
11603.8,1701.97
12056.3,1701.97
12056.3,1052.66
12156.3,1052.66
12156.3,1701.97
12608.8,1701.97
12671.3,1639.47
12672.5,1240.16
14099.2,1240.16
14100.4,1639.47
14162.9,1701.97
14615.4,1701.97
14615.4,1052.66
14715.4,1052.66
14715.4,1701.97
15167.8,1701.97
15230.3,1639.47
15231.5,1240.16
16658.2,1240.16
16659.4,1639.47
16721.9,1701.97
17174.4,1701.97
17174.4,1052.66
17274.4,1052.66
17274.4,1701.97
17726.9,1701.97
17789.4,1639.47
17790.6,1240.16
19217.3,1240.16
19218.5,1639.47
19281,1701.97
19733.5,1701.97
19733.5,1052.66
19833.5,1052.66
19833.5,1701.97
20285.9,1701.97
20348.4,1639.47
20349.6,1240.16
20344.8,1191.15
20330.5,1144.02
20307.3,1100.59
20276.1,1062.53
20238,1031.28
20194.6,1008.07
20147.4,993.775
20098.4,988.948
19896,990.157
19833.5,1052.66
19733.5,1052.66
19671,990.157
19468.5,988.948
19419.5,993.775
19372.4,1008.07
19328.9,1031.28
19290.9,1062.53
19259.6,1100.59
19236.4,1144.02
19222.1,1191.15
19217.3,1240.16
17790.6,1240.16
17785.8,1191.15
17771.5,1144.02
17748.2,1100.59
17717,1062.53
17678.9,1031.28
17635.5,1008.07
17588.4,993.775
17539.4,988.948
17336.9,990.157
17274.4,1052.66
17174.4,1052.66
17111.9,990.157
16909.4,988.948
16860.4,993.775
16813.3,1008.07
16769.9,1031.28
16731.8,1062.53
16700.6,1100.59
16677.4,1144.02
16663.1,1191.15
16658.2,1240.16
15231.5,1240.16
15226.7,1191.15
15212.4,1144.02
15189.2,1100.59
15157.9,1062.53
15119.9,1031.28
15076.4,1008.07
15029.3,993.775
14980.3,988.948
14777.9,990.157
14715.4,1052.66
14615.4,1052.66
14552.9,990.157
14350.4,988.948
14301.4,993.775
14254.3,1008.07
14210.8,1031.28
14172.8,1062.53
14141.5,1100.59
14118.3,1144.02
14104,1191.15
14099.2,1240.16
12672.5,1240.16
12667.6,1191.15
12653.3,1144.02
12630.1,1100.59
12598.9,1062.53
12560.8,1031.28
12517.4,1008.07
12470.3,993.775
12421.3,988.948
12218.8,990.157
12156.3,1052.66
12056.3,1052.66
11993.8,990.157
11791.3,988.948
11742.3,993.775
11695.2,1008.07
11651.8,1031.28
11613.7,1062.53
11582.5,1100.59
11559.3,1144.02
11545,1191.15
11540.1,1240.16
10778.3,1240.16
10778.3,1082.68
10777.4,1072.92
10774.5,1063.54
10769.9,1054.9
10763.7,1047.32
10756.1,1041.1
10747.5,1036.48
10738.1,1033.64
10728.3,1032.68
6200.79,1032.68
6191.03,1033.64
6181.65,1036.48
6173.01,1041.1
6165.43,1047.32
6159.21,1054.9
6154.59,1063.54
6151.75,1072.92
6150.79,1082.68
6150.79,2362.2
6151.75,2371.96
6154.59,2381.34
6159.21,2389.98
6165.43,2397.56
6173.01,2403.78
6181.65,2408.4
6191.03,2411.24
6200.79,2412.2
7452.68,2412.2
7381.63,2423.51
7288.52,2457.94
7254.11,2476.33
7233.33,2566.16
7509.84,2842.68
7515.41,2837.11
7586.12,2907.82
7580.55,2913.39
7586.12,2918.95
7515.41,2989.66
7509.84,2984.1
7233.33,3260.61
7254.11,3350.44
7344.29,3391.93
7440.83,3415.04
7540.02,3418.86
7638.05,3403.26
7722.34,3372.1
7754.3,3389.88
7801.18,3404.97
7841.83,3409.45
7904.33,3346.95
7904.33,3178.97
7946.9,3169.12
7961.81,3136.71
7961.81,3346.95
8024.31,3409.45
8064.96,3404.97
8111.84,3389.88
8154.87,3365.94
8192.41,3334.06
8212.61,3308.59
8287.4,3308.59
8316.5,3305.73
8336.61,3299.62
8356.73,3305.73
8385.83,3308.59
8543.31,3308.59
8572.4,3305.73
8592.52,3299.62
8612.64,3305.73
8641.73,3308.59
8759.06,3308.59
8759.06,3334.45
8758.02,3343.79
8759.06,3355.8
8759.06,3357.13
8759.97,3366.42
8761.7,3386.44
8762.07,3387.73
8762.2,3389.06
8768.02,3408.25
8770.64,3417.26
8771.13,3418.5
8773.06,3424.87
8760.97,3454.08
8749.21,3513.18
8749.21,3573.44
8760.97,3632.54
8784.03,3688.21
8785.33,3690.16
7480.31,3690.16
7451.36,3693.01
7423.51,3701.46
7397.85,3715.17
7375.36,3733.63
7178.51,3930.48
7160.05,3952.97
7146.34,3978.63
7137.89,4006.48
7135.04,4035.43
7135.04,5905.51
7137.89,5934.47
7146.34,5962.31
7160.05,5987.97
7178.51,6010.46
7220.41,6052.36
6204.61,6052.36
6166.86,6014.62
6210.63,6018.93
6358.96,6017.72
6421.46,5955.22
6421.46,5463.39
6521.46,5463.39
6521.46,5955.22
6583.96,6017.72
6732.28,6018.93
6781.29,6014.1
6828.42,5999.8
6871.85,5976.59
6909.92,5945.35
6941.16,5907.28
6964.37,5863.85
6978.67,5816.73
6983.49,5767.72
6982.28,5525.89
6919.78,5463.39
6521.46,5463.39
6421.46,5463.39
6023.13,5463.39
5960.63,5525.89
5959.42,5767.72
5963.73,5811.48
5694.94,5542.69
5687.21,5533.27
5649.62,5502.42
5606.73,5479.5
5560.2,5465.38
5523.93,5461.81
5511.81,5460.62
5499.69,5461.81
4814.5,5461.81
4814.5,5374.02
4811.63,5344.92
4803.14,5316.94
4789.36,5291.16
4770.81,5268.56
4748.21,5250.01
4722.43,5236.23
4694.45,5227.74
4665.35,5224.87
3996.06,5224.87
3966.97,5227.74
3938.99,5236.23
3913.2,5250.01
3890.6,5268.56
3872.05,5291.16
3858.27,5316.94
3849.79,5344.92
3846.92,5374.02
3846.92,5972.35
3769.27,5956.82
3740.16,5953.94
3211.09,5953.94
2805.91,5548.76
2805.91,5413.39
2803.05,5384.43
2794.61,5356.59
2780.89,5330.93
2762.43,5308.43
2664.01,5210.01
2641.52,5191.55
2615.86,5177.83
2588.01,5169.39
2559.06,5166.54
688.976,5166.54
660.02,5169.39
632.176,5177.83
606.516,5191.55
584.024,5210.01
485.599,5308.43
467.14,5330.93
453.424,5356.59
444.978,5384.43
442.126,5413.39
158.268,5413.39
158.268,4872.05
3902.33,4872.05
3907.16,4921.06
3921.46,4968.18
3944.67,5011.61
3975.91,5049.68
4013.98,5080.92
4057.41,5104.13
4104.53,5118.43
4153.54,5123.26
4296.95,5122.05
4359.45,5059.55
4359.45,4577.56
4459.45,4577.56
4459.45,5059.55
4521.95,5122.05
4665.35,5123.26
4714.36,5118.43
4761.49,5104.13
4804.92,5080.92
4842.99,5049.68
4874.23,5011.61
4897.44,4968.18
4911.74,4921.06
4916.56,4872.05
4915.35,4640.06
4852.85,4577.56
4459.45,4577.56
4359.45,4577.56
3966.04,4577.56
3903.54,4640.06
3902.33,4872.05
158.268,4872.05
158.268,4183.07
3902.33,4183.07
3903.54,4415.06
3966.04,4477.56
4359.45,4477.56
4359.45,3995.57
4459.45,3995.57
4459.45,4477.56
4852.85,4477.56
4915.35,4415.06
4916.56,4183.07
4911.74,4134.06
4897.44,4086.94
4897.02,4086.15
5322.1,4086.15
5297.38,4106.44
5266.6,4143.95
5243.72,4186.76
5229.63,4233.2
5224.87,4281.5
5224.87,4773.62
5229.63,4821.92
5243.72,4868.36
5266.6,4911.16
5297.38,4948.68
5334.9,4979.47
5377.7,5002.35
5424.14,5016.43
5472.44,5021.19
5787.4,5021.19
5835.7,5016.43
5882.14,5002.35
5924.94,4979.47
5962.46,4948.68
5993.25,4911.16
6016.13,4868.36
6029.7,4823.62
6076.6,4823.62
6082.76,4843.93
6071.07,4850.18
6033,4881.42
6001.76,4919.49
5978.54,4962.92
5964.25,5010.05
5959.42,5059.06
5960.63,5300.89
6023.13,5363.39
6421.46,5363.39
6421.46,5355.51
6521.46,5355.51
6521.46,5363.39
6919.78,5363.39
6982.28,5300.89
6983.49,5059.06
6978.67,5010.05
6964.37,4962.92
6941.16,4919.49
6909.92,4881.42
6906.37,4878.51
6911.79,4868.36
6925.88,4821.92
6930.64,4773.62
6930.64,4281.5
6925.88,4233.2
6911.79,4186.76
6888.92,4143.95
6858.13,4106.44
6820.61,4075.65
6777.81,4052.77
6731.37,4038.68
6683.07,4033.93
6389.36,4033.93
6444.11,4011.25
6494.22,3977.77
6536.83,3935.16
6570.3,3885.06
6593.36,3829.39
6605.12,3770.29
6605.12,3710.03
6593.36,3650.93
6570.3,3595.26
6536.83,3545.15
6494.22,3502.54
6452.27,3474.51
6223.57,3245.82
6214.3,3234.52
6169.22,3197.52
6117.78,3170.03
6061.98,3153.1
6018.48,3148.82
6018.48,3148.82
6003.94,3147.39
5989.4,3148.82
5621.58,3148.82
5621.58,2952.76
5620.68,2943.56
7004.37,2943.56
7019.97,3041.6
7054.39,3134.7
7072.79,3169.12
7162.62,3189.9
7439.13,2913.39
7162.62,2636.87
7072.79,2657.65
7031.3,2747.83
7008.19,2844.37
7004.37,2943.56
5620.68,2943.56
5618.72,2923.66
5610.23,2895.68
5596.45,2869.9
5577.9,2847.3
5555.3,2828.75
5529.52,2814.97
5501.54,2806.48
5472.44,2803.61
4763.78,2803.61
4734.68,2806.48
4706.7,2814.97
4680.92,2828.75
4658.32,2847.3
4639.77,2869.9
4625.99,2895.68
4617.5,2923.66
4614.64,2952.76
4614.64,3932.29
4521.95,3933.07
4459.45,3995.57
4359.45,3995.57
4296.95,3933.07
4153.54,3931.86
4104.53,3936.69
4057.41,3950.98
4013.98,3974.2
3975.91,4005.44
3944.67,4043.51
3921.46,4086.94
3907.16,4134.06
3902.33,4183.07
158.268,4183.07
158.268,3694.82
1137.7,3694.82
1192.02,3813.01
1329.51,3882.24
1477.88,3923.31
1631.4,3934.65
1784.18,3915.82
1930.36,3867.55
2032.39,3813.01
2086.71,3694.82
1612.2,3220.32
1137.7,3694.82
158.268,3694.82
158.268,3168.8
827.162,3168.8
845.991,3321.59
894.265,3467.76
948.802,3569.79
1066.99,3624.11
1541.49,3149.61
1682.92,3149.61
2157.42,3624.11
2275.61,3569.79
2344.84,3432.3
2385.91,3283.94
2397.25,3130.41
2391.36,3082.64
2432.28,3082.64
2432.28,3216.57
2458.41,3347.93
2509.67,3471.67
2584.08,3583.03
2678.78,3677.74
2790.14,3752.14
2913.88,3803.4
3045.24,3829.53
3179.17,3829.53
3310.53,3803.4
3434.27,3752.14
3545.63,3677.74
3640.33,3583.03
3714.74,3471.67
3766,3347.93
3792.13,3216.57
3792.13,3082.64
3766,2951.28
3714.74,2827.54
3640.33,2716.18
3545.63,2621.48
3457.48,2562.58
3457.48,2345.77
3587.9,2215.35
4614.64,2215.35
4614.64,2362.2
4617.5,2391.3
4625.99,2419.28
4639.77,2445.06
4658.32,2467.66
4680.92,2486.21
4706.7,2500
4734.68,2508.48
4763.78,2511.35
5472.44,2511.35
5501.54,2508.48
5529.52,2500
5555.3,2486.21
5577.9,2467.66
5596.45,2445.06
5610.23,2419.28
5618.72,2391.3
5621.58,2362.2
5621.58,1377.95
5618.72,1348.86
5610.23,1320.88
5596.45,1295.09
5577.9,1272.49
5555.3,1253.94
5529.52,1240.16
5501.54,1231.68
5472.44,1228.81
4763.78,1228.81
4734.68,1231.68
4706.7,1240.16
4680.92,1253.94
4658.32,1272.49
4639.77,1295.09
4625.99,1320.88
4617.5,1348.86
4614.64,1377.95
4614.64,1524.8
3461.84,1524.8
3444.88,1523.13
3427.93,1524.8
3427.92,1524.8
3377.2,1529.8
3312.11,1549.54
3252.13,1581.6
3199.55,1624.75
3188.74,1637.93
2880.05,1946.62
2866.88,1957.43
2856.07,1970.6
2856.07,1970.6
2823.73,2010
2791.67,2069.99
2771.93,2135.07
2765.26,2202.76
2766.93,2219.72
2766.93,2562.58
2678.78,2621.48
2584.08,2716.18
2509.67,2827.54
2458.41,2951.28
2432.28,3082.64
2391.36,3082.64
2378.42,2977.63
2330.14,2831.45
2275.61,2729.42
2157.42,2675.11
1682.92,3149.61
1541.49,3149.61
1066.99,2675.11
948.802,2729.42
879.574,2866.92
838.501,3015.28
827.162,3168.8
158.268,3168.8
158.268,2604.39
1137.7,2604.39
1612.2,3078.9
2086.71,2604.39
2032.39,2486.2
1894.89,2416.98
1746.53,2375.9
1593.01,2364.56
1440.23,2383.39
1294.05,2431.67
1192.02,2486.2
1137.7,2604.39
158.268,2604.39
158.268,852.958
852.958,158.268
3871.45,158.268
Z" /> 
</g>
</g>
<g style="fill:#000000; fill-opacity:1.0; 
stroke:#000000; stroke-width:100; stroke-opacity:1; 
stroke-linecap:round; stroke-linejoin:round;">
<g >
<path style="fill:#000000; fill-opacity:1.0; 
stroke:#000000; stroke-width:100; stroke-opacity:1; 
stroke-linecap:round; stroke-linejoin:round;fill-rule:evenodd;"
d="M 9989.37,4056.14
9989.37,5884.8
9821.81,6052.36
7501.03,6052.36
7333.46,5884.8
7333.46,4056.14
7501.03,3888.58
9821.81,3888.58
Z" /> 
</g>
</g>
<g style="fill:#000000; fill-opacity:1.0; 
stroke:#000000; stroke-width:100; stroke-opacity:1; 
stroke-linecap:round; stroke-linejoin:round;">
<g >
<path style="fill:#000000; fill-opacity:1.0; 
stroke:#000000; stroke-width:100; stroke-opacity:1; 
stroke-linecap:round; stroke-linejoin:round;fill-rule:evenodd;"
d="M 13926.4,4056.14
13926.4,5884.8
13758.8,6052.36
11438,6052.36
11270.5,5884.8
11270.5,4056.14
11438,3888.58
13758.8,3888.58
Z" /> 
</g>
</g>
<g style="fill:#000000; fill-opacity:1.0; 
stroke:#000000; stroke-width:100; stroke-opacity:1; 
stroke-linecap:round; stroke-linejoin:round;">
<g >
<path style="fill:#000000; fill-opacity:1.0; 
stroke:#000000; stroke-width:100; stroke-opacity:1; 
stroke-linecap:round; stroke-linejoin:round;fill-rule:evenodd;"
d="M 10678.3,2312.2
6250.79,2312.2
6250.79,1132.68
10678.3,1132.68
Z" /> 
</g>
</g>
<g style="fill:#000000; fill-opacity:1.0; 
stroke:#000000; stroke-width:100; stroke-opacity:1; 
stroke-linecap:round; stroke-linejoin:round;">
<g >
<path style="fill:#000000; fill-opacity:1.0; 
stroke:#000000; stroke-width:100; stroke-opacity:1; 
stroke-linecap:round; stroke-linejoin:round;fill-rule:evenodd;"
d="M 20619.3,5434.1
20619.3,8345.43
20550.2,8414.57
18721.5,8414.57
18652.4,8345.43
18652.4,8248.85
18657.5,8265.74
18671.3,8291.52
18689.8,8314.12
18712.4,8332.67
18738.2,8346.45
18766.2,8354.94
18795.3,8357.8
19464.6,8357.8
19493.7,8354.94
19521.6,8346.45
19547.4,8332.67
19570,8314.12
19588.6,8291.52
19602.4,8265.74
19610.8,8237.76
19613.7,8208.66
19613.7,7539.37
19610.8,7510.27
19602.4,7482.3
19588.6,7456.51
19570,7433.91
19547.4,7415.36
19521.6,7401.58
19493.7,7393.09
19464.6,7390.23
18795.3,7390.23
18766.2,7393.09
18738.2,7401.58
18712.4,7415.36
18689.8,7433.91
18671.3,7456.51
18657.5,7482.3
18649,7510.27
18646.1,7539.37
18646.1,7653.5
18643.9,7649.39
18637.7,7641.81
18244,7248.11
18236.4,7241.89
18227.8,7237.27
18218.4,7234.43
18208.7,7233.46
17524.6,7233.46
16576.3,7043.79
16521.9,6826.44
18646.9,6826.44
18646.9,6921.59
18665.4,7014.92
18701.8,7102.84
18754.7,7181.96
18822,7249.24
18901.1,7302.11
18989,7338.52
19082.3,7357.09
19177.5,7357.09
19270.8,7338.52
19358.7,7302.11
19437.9,7249.24
19505.1,7181.96
19558,7102.84
19594.4,7014.92
19613,6921.59
19613,6826.44
19594.4,6733.11
19558,6645.2
19505.1,6566.08
19437.9,6498.79
19358.7,6445.92
19270.8,6409.51
19177.5,6390.94
19082.3,6390.94
18989,6409.51
18901.1,6445.92
18822,6498.79
18754.7,6566.08
18701.8,6645.2
18665.4,6733.11
18646.9,6826.44
16521.9,6826.44
16488.5,6692.91
16576.3,6342.04
17524.6,6152.36
18110.2,6152.36
18120,6151.4
18129.4,6148.56
18138,6143.94
18145.6,6137.72
18456.9,5826.44
18646.9,5826.44
18646.9,5921.59
18665.4,6014.92
18701.8,6102.84
18754.7,6181.96
18822,6249.24
18901.1,6302.11
18989,6338.52
19082.3,6357.09
19177.5,6357.09
19270.8,6338.52
19358.7,6302.11
19437.9,6249.24
19505.1,6181.96
19558,6102.84
19594.4,6014.92
19613,5921.59
19613,5826.44
19594.4,5733.11
19558,5645.2
19505.1,5566.08
19437.9,5498.79
19358.7,5445.92
19270.8,5409.51
19177.5,5390.94
19082.3,5390.94
18989,5409.51
18901.1,5445.92
18822,5498.79
18754.7,5566.08
18701.8,5645.2
18665.4,5733.11
18646.9,5826.44
18456.9,5826.44
18637.7,5645.59
18643.9,5638.01
18648.6,5629.37
18651.4,5619.99
18652.4,5610.24
18652.4,5434.1
18721.5,5364.96
20550.2,5364.96
Z" /> 
</g>
</g>
<g style="fill:#000000; fill-opacity:1.0; 
stroke:#000000; stroke-width:100; stroke-opacity:1; 
stroke-linecap:round; stroke-linejoin:round;">
<g >
<path style="fill:#000000; fill-opacity:1.0; 
stroke:#000000; stroke-width:100; stroke-opacity:1; 
stroke-linecap:round; stroke-linejoin:round;fill-rule:evenodd;"
d="M 2607.48,5434.1
2607.48,5610.24
2608.44,5619.99
2611.29,5629.37
2615.91,5638.01
2622.12,5645.59
3114.25,6137.72
3121.83,6143.94
3130.47,6148.56
3139.85,6151.4
3149.61,6152.36
3735.21,6152.36
4683.58,6342.04
4771.3,6692.91
4683.58,7043.79
3735.21,7233.46
3051.18,7233.46
3041.43,7234.43
3032.05,7237.27
3023.4,7241.89
3015.83,7248.11
2622.12,7641.81
2615.91,7649.39
2611.29,7658.03
2608.44,7667.41
2607.48,7677.17
2607.48,8345.43
2538.34,8414.57
709.687,8414.57
640.551,8345.43
640.551,7539.37
646.132,7539.37
646.132,8208.66
648.998,8237.76
657.485,8265.74
671.267,8291.52
689.815,8314.12
712.416,8332.67
738.201,8346.45
766.179,8354.94
795.276,8357.8
1464.57,8357.8
1493.66,8354.94
1521.64,8346.45
1547.43,8332.67
1570.03,8314.12
1588.58,8291.52
1602.36,8265.74
1610.84,8237.76
1613.71,8208.66
1613.71,7539.37
1610.84,7510.27
1602.36,7482.3
1588.58,7456.51
1570.03,7433.91
1547.43,7415.36
1521.64,7401.58
1493.66,7393.09
1464.57,7390.23
795.276,7390.23
766.179,7393.09
738.201,7401.58
712.416,7415.36
689.815,7433.91
671.267,7456.51
657.485,7482.3
648.998,7510.27
646.132,7539.37
640.551,7539.37
640.551,6826.44
646.85,6826.44
646.85,6921.59
665.415,7014.92
701.83,7102.84
754.696,7181.96
821.981,7249.24
901.102,7302.11
989.015,7338.52
1082.34,7357.09
1177.5,7357.09
1270.83,7338.52
1358.74,7302.11
1437.86,7249.24
1505.15,7181.96
1558.01,7102.84
1594.43,7014.92
1612.99,6921.59
1612.99,6826.44
1594.43,6733.11
1558.01,6645.2
1505.15,6566.08
1437.86,6498.79
1358.74,6445.92
1270.83,6409.51
1177.5,6390.94
1082.34,6390.94
989.015,6409.51
901.102,6445.92
821.981,6498.79
754.696,6566.08
701.83,6645.2
665.415,6733.11
646.85,6826.44
640.551,6826.44
640.551,5826.44
646.85,5826.44
646.85,5921.59
665.415,6014.92
701.83,6102.84
754.696,6181.96
821.981,6249.24
901.102,6302.11
989.015,6338.52
1082.34,6357.09
1177.5,6357.09
1270.83,6338.52
1358.74,6302.11
1437.86,6249.24
1505.15,6181.96
1558.01,6102.84
1594.43,6014.92
1612.99,5921.59
1612.99,5826.44
1594.43,5733.11
1558.01,5645.2
1505.15,5566.08
1437.86,5498.79
1358.74,5445.92
1270.83,5409.51
1177.5,5390.94
1082.34,5390.94
989.015,5409.51
901.102,5445.92
821.981,5498.79
754.696,5566.08
701.83,5645.2
665.415,5733.11
646.85,5826.44
640.551,5826.44
640.551,5434.1
709.687,5364.96
2538.34,5364.96
Z" /> 
</g>
</g>
</g> 
</svg>
