<?xml version="1.0" standalone="no"?>
 <!DOCTYPE svg PUBLIC "-//W3C//DTD SVG 1.1//EN" 
 "http://www.w3.org/Graphics/SVG/1.1/DTD/svg11.dtd"> 
<svg
  xmlns:svg="http://www.w3.org/2000/svg"
  xmlns="http://www.w3.org/2000/svg"
  xmlns:xlink="http://www.w3.org/1999/xlink"
  version="1.1"
  width="29.700220cm" height="21.000720cm" viewBox="0 0 116930 82680">
<title>SVG Picture created as MicroBBPS-F_Mask.svg date 2021/02/24 21:51:50 </title>
  <desc>Picture generated by PCBNEW </desc>
<g style="fill:#000000; fill-opacity:1;stroke:#000000; stroke-opacity:1;
stroke-linecap:round; stroke-linejoin:round;"
 transform="translate(0 0) scale(1 1)">
</g>
<g style="fill:#000000; fill-opacity:0.0; 
stroke:#000000; stroke-width:-0.000393701; stroke-opacity:1; 
stroke-linecap:round; stroke-linejoin:round;">
</g>
<g style="fill:#000000; fill-opacity:0.0; 
stroke:#000000; stroke-width:19.685; stroke-opacity:1; 
stroke-linecap:round; stroke-linejoin:round;">
<path d="M7874 -1574
L14173 -1574
" />
<path d="M21259 -38188
L21259 -36220
" />
<path d="M20078 -39370
L21259 -38188
" />
<path d="M4724 -39370
L20078 -39370
" />
<path d="M787 -39370
L1574 -39370
" />
<path d="M0 -38582
L787 -39370
" />
<path d="M0 -37795
L0 -38582
" />
</g>
<g style="fill:#000000; fill-opacity:0.0; 
stroke:#000000; stroke-width:39.3701; stroke-opacity:1; 
stroke-linecap:round; stroke-linejoin:round;">
</g>
<g style="fill:#000000; fill-opacity:1.0; 
stroke:#000000; stroke-width:39.3701; stroke-opacity:1; 
stroke-linecap:round; stroke-linejoin:round;">
<path style="fill:#000000; fill-opacity:1.0; 
stroke:#000000; stroke-width:39.3701; stroke-opacity:1; 
stroke-linecap:round; stroke-linejoin:round;fill-rule:evenodd;"
d="M 2793.7,-45624
2643.7,-45474
2493.7,-45624
2643.7,-45774
Z" /> 
<path style="fill:#000000; fill-opacity:1.0; 
stroke:#000000; stroke-width:39.3701; stroke-opacity:1; 
stroke-linecap:round; stroke-linejoin:round;fill-rule:evenodd;"
d="M 2793.7,-46124
2643.7,-45974
2493.7,-46124
2643.7,-46274
Z" /> 
<path style="fill:#000000; fill-opacity:1.0; 
stroke:#000000; stroke-width:39.3701; stroke-opacity:1; 
stroke-linecap:round; stroke-linejoin:round;fill-rule:evenodd;"
d="M 2543.7,-45874
2393.7,-45724
2243.7,-45874
2393.7,-46024
Z" /> 
<path style="fill:#000000; fill-opacity:1.0; 
stroke:#000000; stroke-width:39.3701; stroke-opacity:1; 
stroke-linecap:round; stroke-linejoin:round;fill-rule:evenodd;"
d="M 3043.7,-45874
2893.7,-45724
2743.7,-45874
2893.7,-46024
Z" /> 
<path style="fill:#000000; fill-opacity:1.0; 
stroke:#000000; stroke-width:39.3701; stroke-opacity:1; 
stroke-linecap:round; stroke-linejoin:round;fill-rule:evenodd;"
d="M 2793.7,-43874
2643.7,-43724
2493.7,-43874
2643.7,-44024
Z" /> 
<path style="fill:#000000; fill-opacity:1.0; 
stroke:#000000; stroke-width:39.3701; stroke-opacity:1; 
stroke-linecap:round; stroke-linejoin:round;fill-rule:evenodd;"
d="M 2793.7,-44374
2643.7,-44224
2493.7,-44374
2643.7,-44524
Z" /> 
<path style="fill:#000000; fill-opacity:1.0; 
stroke:#000000; stroke-width:39.3701; stroke-opacity:1; 
stroke-linecap:round; stroke-linejoin:round;fill-rule:evenodd;"
d="M 3043.7,-44124
2893.7,-43974
2743.7,-44124
2893.7,-44274
Z" /> 
<path style="fill:#000000; fill-opacity:1.0; 
stroke:#000000; stroke-width:39.3701; stroke-opacity:1; 
stroke-linecap:round; stroke-linejoin:round;fill-rule:evenodd;"
d="M 2543.7,-44124
2393.7,-43974
2243.7,-44124
2393.7,-44274
Z" /> 
</g>
<g style="fill:#000000; fill-opacity:1.0; 
stroke:#000000; stroke-width:19.685; stroke-opacity:1; 
stroke-linecap:round; stroke-linejoin:round;">
</g>
<g style="fill:#000000; fill-opacity:0.0; 
stroke:#000000; stroke-width:19.685; stroke-opacity:1; 
stroke-linecap:round; stroke-linejoin:round;">
<path d="M15748 0
L19685 0
" />
<path d="M14173 -1574
L15748 0
" />
<path d="M6299 0
L7874 -1574
" />
<path d="M1181 0
L6299 0
" />
<path d="M21259 -1574
L19685 0
" />
<path d="M21259 -36220
L21259 -1574
" />
<path d="M1574 -39370
L4724 -39370
" />
<path d="M0 -1181
L0 -37795
" />
<path d="M1181 0
L0 -1181
" />
</g>
<g style="fill:#000000; fill-opacity:0.0; 
stroke:#000000; stroke-width:39.3701; stroke-opacity:1; 
stroke-linecap:round; stroke-linejoin:round;">
</g>
<g style="fill:#000000; fill-opacity:1.0; 
stroke:#000000; stroke-width:39.3701; stroke-opacity:1; 
stroke-linecap:round; stroke-linejoin:round;">
<path style="fill:#000000; fill-opacity:1.0; 
stroke:#000000; stroke-width:39.3701; stroke-opacity:1; 
stroke-linecap:round; stroke-linejoin:round;fill-rule:evenodd;"
d="M 83569.3,44222
83419.3,44372
83269.3,44222
83419.3,44072
Z" /> 
<path style="fill:#000000; fill-opacity:1.0; 
stroke:#000000; stroke-width:39.3701; stroke-opacity:1; 
stroke-linecap:round; stroke-linejoin:round;fill-rule:evenodd;"
d="M 83319.3,44472
83169.3,44622
83019.3,44472
83169.3,44322
Z" /> 
<path style="fill:#000000; fill-opacity:1.0; 
stroke:#000000; stroke-width:39.3701; stroke-opacity:1; 
stroke-linecap:round; stroke-linejoin:round;fill-rule:evenodd;"
d="M 83569.3,44722
83419.3,44872
83269.3,44722
83419.3,44572
Z" /> 
<path style="fill:#000000; fill-opacity:1.0; 
stroke:#000000; stroke-width:39.3701; stroke-opacity:1; 
stroke-linecap:round; stroke-linejoin:round;fill-rule:evenodd;"
d="M 83819.3,44472
83669.3,44622
83519.3,44472
83669.3,44322
Z" /> 
<path style="fill:#000000; fill-opacity:1.0; 
stroke:#000000; stroke-width:39.3701; stroke-opacity:1; 
stroke-linecap:round; stroke-linejoin:round;fill-rule:evenodd;"
d="M 83175.6,42972
83025.6,43122
82875.6,42972
83025.6,42822
Z" /> 
<path style="fill:#000000; fill-opacity:1.0; 
stroke:#000000; stroke-width:39.3701; stroke-opacity:1; 
stroke-linecap:round; stroke-linejoin:round;fill-rule:evenodd;"
d="M 83425.6,42722
83275.6,42872
83125.6,42722
83275.6,42572
Z" /> 
<path style="fill:#000000; fill-opacity:1.0; 
stroke:#000000; stroke-width:39.3701; stroke-opacity:1; 
stroke-linecap:round; stroke-linejoin:round;fill-rule:evenodd;"
d="M 82925.6,42722
82775.6,42872
82625.6,42722
82775.6,42572
Z" /> 
<path style="fill:#000000; fill-opacity:1.0; 
stroke:#000000; stroke-width:39.3701; stroke-opacity:1; 
stroke-linecap:round; stroke-linejoin:round;fill-rule:evenodd;"
d="M 83175.6,42472
83025.6,42622
82875.6,42472
83025.6,42322
Z" /> 
</g>
<g style="fill:#000000; fill-opacity:1.0; 
stroke:#000000; stroke-width:47.2441; stroke-opacity:1; 
stroke-linecap:round; stroke-linejoin:round;">
</g>
<g style="fill:#000000; fill-opacity:0.0; 
stroke:#000000; stroke-width:47.2441; stroke-opacity:1; 
stroke-linecap:round; stroke-linejoin:round;">
<path d="M5912 -38024
L5361 -38024
" />
</g>
<g style="fill:#000000; fill-opacity:1.0; 
stroke:#000000; stroke-width:39.3701; stroke-opacity:1; 
stroke-linecap:round; stroke-linejoin:round;">
<path style="fill:#000000; fill-opacity:1.0; 
stroke:#000000; stroke-width:39.3701; stroke-opacity:1; 
stroke-linecap:round; stroke-linejoin:round;fill-rule:evenodd;"
d="M 5361.42,-38693.7
5912.6,-38693.7
5912.6,-38024.4
5361.42,-38024.4
" /> 
</g>
<g style="fill:#000000; fill-opacity:1.0; 
stroke:#000000; stroke-width:47.2441; stroke-opacity:1; 
stroke-linecap:round; stroke-linejoin:round;">
</g>
<g style="fill:#000000; fill-opacity:0.0; 
stroke:#000000; stroke-width:47.2441; stroke-opacity:1; 
stroke-linecap:round; stroke-linejoin:round;">
<path d="M5361 -38024
L5361 -38693
" />
<path d="M5912 -38693
L5361 -38693
" />
</g>
<g style="fill:#000000; fill-opacity:1.0; 
stroke:#000000; stroke-width:39.3701; stroke-opacity:1; 
stroke-linecap:round; stroke-linejoin:round;">
<path style="fill:#000000; fill-opacity:1.0; 
stroke:#000000; stroke-width:39.3701; stroke-opacity:1; 
stroke-linecap:round; stroke-linejoin:round;fill-rule:evenodd;"
d="M 9298.43,-38024.4
8747.24,-38024.4
8747.24,-38693.7
9298.43,-38693.7
" /> 
</g>
<g style="fill:#000000; fill-opacity:1.0; 
stroke:#000000; stroke-width:47.2441; stroke-opacity:1; 
stroke-linecap:round; stroke-linejoin:round;">
</g>
<g style="fill:#000000; fill-opacity:0.0; 
stroke:#000000; stroke-width:47.2441; stroke-opacity:1; 
stroke-linecap:round; stroke-linejoin:round;">
<path d="M9298 -38693
L9298 -38024
" />
<path d="M8747 -38024
L9298 -38024
" />
<path d="M8747 -38693
L9298 -38693
" />
<g >
</g>
<g style="fill:#000000; fill-opacity:1.0; 
stroke:#000000; stroke-width:0; stroke-opacity:1; 
stroke-linecap:round; stroke-linejoin:round;">
<circle cx="20129.9" cy="-3854.33" r="354.331" /> 
<circle cx="19129.9" cy="-3854.33" r="354.331" /> 
<circle cx="1129.92" cy="-3854.33" r="354.331" /> 
<circle cx="2129.92" cy="-3854.33" r="354.331" /> 
<circle cx="13129.9" cy="-3854.33" r="354.331" /> 
<circle cx="12129.9" cy="-3854.33" r="354.331" /> 
<circle cx="16129.9" cy="-3854.33" r="354.331" /> 
<circle cx="14129.9" cy="-3854.33" r="354.331" /> 
<circle cx="15129.9" cy="-3854.33" r="354.331" /> 
<circle cx="9129.92" cy="-3854.33" r="354.331" /> 
<circle cx="8129.92" cy="-3854.33" r="354.331" /> 
<circle cx="7129.92" cy="-3854.33" r="354.331" /> 
<circle cx="6129.92" cy="-3854.33" r="354.331" /> 
<circle cx="5129.92" cy="-3854.33" r="354.331" /> 
<circle cx="13129.9" cy="-4854.33" r="354.331" /> 
<circle cx="19129.9" cy="-4854.33" r="354.331" /> 
<circle cx="15129.9" cy="-4854.33" r="354.331" /> 
<circle cx="14129.9" cy="-4854.33" r="354.331" /> 
<circle cx="12129.9" cy="-4854.33" r="354.331" /> 
<circle cx="16129.9" cy="-4854.33" r="354.331" /> 
<circle cx="2129.92" cy="-4854.33" r="354.331" /> 
<circle cx="1129.92" cy="-4854.33" r="354.331" /> 
<circle cx="20129.9" cy="-4854.33" r="354.331" /> 
<circle cx="9129.92" cy="-4854.33" r="354.331" /> 
<circle cx="5129.92" cy="-4854.33" r="354.331" /> 
<circle cx="6129.92" cy="-4854.33" r="354.331" /> 
<circle cx="8129.92" cy="-4854.33" r="354.331" /> 
<circle cx="7129.92" cy="-4854.33" r="354.331" /> 
<circle cx="13129.9" cy="-5854.33" r="354.331" /> 
<circle cx="19129.9" cy="-5854.33" r="354.331" /> 
<circle cx="15129.9" cy="-5854.33" r="354.331" /> 
<circle cx="14129.9" cy="-5854.33" r="354.331" /> 
<circle cx="12129.9" cy="-5854.33" r="354.331" /> 
<circle cx="16129.9" cy="-5854.33" r="354.331" /> 
<circle cx="2129.92" cy="-5854.33" r="354.331" /> 
<circle cx="1129.92" cy="-5854.33" r="354.331" /> 
<circle cx="20129.9" cy="-5854.33" r="354.331" /> 
<circle cx="9129.92" cy="-5854.33" r="354.331" /> 
<circle cx="5129.92" cy="-5854.33" r="354.331" /> 
<circle cx="6129.92" cy="-5854.33" r="354.331" /> 
<circle cx="8129.92" cy="-5854.33" r="354.331" /> 
<circle cx="7129.92" cy="-5854.33" r="354.331" /> 
<circle cx="13129.9" cy="-6854.33" r="354.331" /> 
<circle cx="19129.9" cy="-6854.33" r="354.331" /> 
<circle cx="15129.9" cy="-6854.33" r="354.331" /> 
<circle cx="14129.9" cy="-6854.33" r="354.331" /> 
<circle cx="12129.9" cy="-6854.33" r="354.331" /> 
<circle cx="16129.9" cy="-6854.33" r="354.331" /> 
<circle cx="2129.92" cy="-6854.33" r="354.331" /> 
<circle cx="1129.92" cy="-6854.33" r="354.331" /> 
<circle cx="20129.9" cy="-6854.33" r="354.331" /> 
<circle cx="9129.92" cy="-6854.33" r="354.331" /> 
<circle cx="5129.92" cy="-6854.33" r="354.331" /> 
<circle cx="6129.92" cy="-6854.33" r="354.331" /> 
<circle cx="8129.92" cy="-6854.33" r="354.331" /> 
<circle cx="7129.92" cy="-6854.33" r="354.331" /> 
<circle cx="13129.9" cy="-7854.33" r="354.331" /> 
<circle cx="19129.9" cy="-7854.33" r="354.331" /> 
<circle cx="15129.9" cy="-7854.33" r="354.331" /> 
<circle cx="14129.9" cy="-7854.33" r="354.331" /> 
<circle cx="12129.9" cy="-7854.33" r="354.331" /> 
<circle cx="16129.9" cy="-7854.33" r="354.331" /> 
<circle cx="2129.92" cy="-7854.33" r="354.331" /> 
<circle cx="1129.92" cy="-7854.33" r="354.331" /> 
<circle cx="20129.9" cy="-7854.33" r="354.331" /> 
<circle cx="9129.92" cy="-7854.33" r="354.331" /> 
<circle cx="5129.92" cy="-7854.33" r="354.331" /> 
<circle cx="6129.92" cy="-7854.33" r="354.331" /> 
<circle cx="8129.92" cy="-7854.33" r="354.331" /> 
<circle cx="7129.92" cy="-7854.33" r="354.331" /> 
<circle cx="13129.9" cy="-8854.33" r="354.331" /> 
<circle cx="19129.9" cy="-8854.33" r="354.331" /> 
<circle cx="15129.9" cy="-8854.33" r="354.331" /> 
<circle cx="14129.9" cy="-8854.33" r="354.331" /> 
<circle cx="12129.9" cy="-8854.33" r="354.331" /> 
<circle cx="16129.9" cy="-8854.33" r="354.331" /> 
<circle cx="2129.92" cy="-8854.33" r="354.331" /> 
<circle cx="1129.92" cy="-8854.33" r="354.331" /> 
<circle cx="20129.9" cy="-8854.33" r="354.331" /> 
<circle cx="9129.92" cy="-8854.33" r="354.331" /> 
<circle cx="5129.92" cy="-8854.33" r="354.331" /> 
<circle cx="6129.92" cy="-8854.33" r="354.331" /> 
<circle cx="8129.92" cy="-8854.33" r="354.331" /> 
<circle cx="7129.92" cy="-8854.33" r="354.331" /> 
<circle cx="13129.9" cy="-9854.33" r="354.331" /> 
<circle cx="19129.9" cy="-9854.33" r="354.331" /> 
<circle cx="15129.9" cy="-9854.33" r="354.331" /> 
<circle cx="14129.9" cy="-9854.33" r="354.331" /> 
<circle cx="12129.9" cy="-9854.33" r="354.331" /> 
<circle cx="16129.9" cy="-9854.33" r="354.331" /> 
<circle cx="2129.92" cy="-9854.33" r="354.331" /> 
<circle cx="1129.92" cy="-9854.33" r="354.331" /> 
<circle cx="20129.9" cy="-9854.33" r="354.331" /> 
<circle cx="9129.92" cy="-9854.33" r="354.331" /> 
<circle cx="5129.92" cy="-9854.33" r="354.331" /> 
<circle cx="6129.92" cy="-9854.33" r="354.331" /> 
<circle cx="8129.92" cy="-9854.33" r="354.331" /> 
<circle cx="7129.92" cy="-9854.33" r="354.331" /> 
<circle cx="13129.9" cy="-10854.3" r="354.331" /> 
<circle cx="19129.9" cy="-10854.3" r="354.331" /> 
<circle cx="15129.9" cy="-10854.3" r="354.331" /> 
<circle cx="14129.9" cy="-10854.3" r="354.331" /> 
<circle cx="12129.9" cy="-10854.3" r="354.331" /> 
<circle cx="16129.9" cy="-10854.3" r="354.331" /> 
<circle cx="2129.92" cy="-10854.3" r="354.331" /> 
<circle cx="1129.92" cy="-10854.3" r="354.331" /> 
<circle cx="20129.9" cy="-10854.3" r="354.331" /> 
<circle cx="9129.92" cy="-10854.3" r="354.331" /> 
<circle cx="5129.92" cy="-10854.3" r="354.331" /> 
<circle cx="6129.92" cy="-10854.3" r="354.331" /> 
<circle cx="8129.92" cy="-10854.3" r="354.331" /> 
<circle cx="7129.92" cy="-10854.3" r="354.331" /> 
<circle cx="13129.9" cy="-11854.3" r="354.331" /> 
<circle cx="19129.9" cy="-11854.3" r="354.331" /> 
<circle cx="15129.9" cy="-11854.3" r="354.331" /> 
<circle cx="14129.9" cy="-11854.3" r="354.331" /> 
<circle cx="12129.9" cy="-11854.3" r="354.331" /> 
<circle cx="16129.9" cy="-11854.3" r="354.331" /> 
<circle cx="2129.92" cy="-11854.3" r="354.331" /> 
<circle cx="1129.92" cy="-11854.3" r="354.331" /> 
<circle cx="20129.9" cy="-11854.3" r="354.331" /> 
<circle cx="9129.92" cy="-11854.3" r="354.331" /> 
<circle cx="5129.92" cy="-11854.3" r="354.331" /> 
<circle cx="6129.92" cy="-11854.3" r="354.331" /> 
<circle cx="8129.92" cy="-11854.3" r="354.331" /> 
<circle cx="7129.92" cy="-11854.3" r="354.331" /> 
<circle cx="13129.9" cy="-12854.3" r="354.331" /> 
<circle cx="19129.9" cy="-12854.3" r="354.331" /> 
<circle cx="15129.9" cy="-12854.3" r="354.331" /> 
<circle cx="14129.9" cy="-12854.3" r="354.331" /> 
<circle cx="12129.9" cy="-12854.3" r="354.331" /> 
<circle cx="16129.9" cy="-12854.3" r="354.331" /> 
<circle cx="2129.92" cy="-12854.3" r="354.331" /> 
<circle cx="1129.92" cy="-12854.3" r="354.331" /> 
<circle cx="20129.9" cy="-12854.3" r="354.331" /> 
<circle cx="9129.92" cy="-12854.3" r="354.331" /> 
<circle cx="5129.92" cy="-12854.3" r="354.331" /> 
<circle cx="6129.92" cy="-12854.3" r="354.331" /> 
<circle cx="8129.92" cy="-12854.3" r="354.331" /> 
<circle cx="7129.92" cy="-12854.3" r="354.331" /> 
<circle cx="13129.9" cy="-13854.3" r="354.331" /> 
<circle cx="19129.9" cy="-13854.3" r="354.331" /> 
<circle cx="15129.9" cy="-13854.3" r="354.331" /> 
<circle cx="14129.9" cy="-13854.3" r="354.331" /> 
<circle cx="12129.9" cy="-13854.3" r="354.331" /> 
<circle cx="16129.9" cy="-13854.3" r="354.331" /> 
<circle cx="2129.92" cy="-13854.3" r="354.331" /> 
<circle cx="1129.92" cy="-13854.3" r="354.331" /> 
<circle cx="20129.9" cy="-13854.3" r="354.331" /> 
<circle cx="9129.92" cy="-13854.3" r="354.331" /> 
<circle cx="5129.92" cy="-13854.3" r="354.331" /> 
<circle cx="6129.92" cy="-13854.3" r="354.331" /> 
<circle cx="8129.92" cy="-13854.3" r="354.331" /> 
<circle cx="7129.92" cy="-13854.3" r="354.331" /> 
<circle cx="13129.9" cy="-14854.3" r="354.331" /> 
<circle cx="19129.9" cy="-14854.3" r="354.331" /> 
<circle cx="15129.9" cy="-14854.3" r="354.331" /> 
<circle cx="14129.9" cy="-14854.3" r="354.331" /> 
<circle cx="12129.9" cy="-14854.3" r="354.331" /> 
<circle cx="16129.9" cy="-14854.3" r="354.331" /> 
<circle cx="2129.92" cy="-14854.3" r="354.331" /> 
<circle cx="1129.92" cy="-14854.3" r="354.331" /> 
<circle cx="20129.9" cy="-14854.3" r="354.331" /> 
<circle cx="9129.92" cy="-14854.3" r="354.331" /> 
<circle cx="5129.92" cy="-14854.3" r="354.331" /> 
<circle cx="6129.92" cy="-14854.3" r="354.331" /> 
<circle cx="8129.92" cy="-14854.3" r="354.331" /> 
<circle cx="7129.92" cy="-14854.3" r="354.331" /> 
<circle cx="13129.9" cy="-15854.3" r="354.331" /> 
<circle cx="19129.9" cy="-15854.3" r="354.331" /> 
<circle cx="15129.9" cy="-15854.3" r="354.331" /> 
<circle cx="14129.9" cy="-15854.3" r="354.331" /> 
<circle cx="12129.9" cy="-15854.3" r="354.331" /> 
<circle cx="16129.9" cy="-15854.3" r="354.331" /> 
<circle cx="2129.92" cy="-15854.3" r="354.331" /> 
<circle cx="1129.92" cy="-15854.3" r="354.331" /> 
<circle cx="20129.9" cy="-15854.3" r="354.331" /> 
<circle cx="9129.92" cy="-15854.3" r="354.331" /> 
<circle cx="5129.92" cy="-15854.3" r="354.331" /> 
<circle cx="6129.92" cy="-15854.3" r="354.331" /> 
<circle cx="8129.92" cy="-15854.3" r="354.331" /> 
<circle cx="7129.92" cy="-15854.3" r="354.331" /> 
<circle cx="13129.9" cy="-16854.3" r="354.331" /> 
<circle cx="19129.9" cy="-16854.3" r="354.331" /> 
<circle cx="15129.9" cy="-16854.3" r="354.331" /> 
<circle cx="14129.9" cy="-16854.3" r="354.331" /> 
<circle cx="12129.9" cy="-16854.3" r="354.331" /> 
<circle cx="16129.9" cy="-16854.3" r="354.331" /> 
<circle cx="2129.92" cy="-16854.3" r="354.331" /> 
<circle cx="1129.92" cy="-16854.3" r="354.331" /> 
<circle cx="20129.9" cy="-16854.3" r="354.331" /> 
<circle cx="9129.92" cy="-16854.3" r="354.331" /> 
<circle cx="5129.92" cy="-16854.3" r="354.331" /> 
<circle cx="6129.92" cy="-16854.3" r="354.331" /> 
<circle cx="8129.92" cy="-16854.3" r="354.331" /> 
<circle cx="7129.92" cy="-16854.3" r="354.331" /> 
<circle cx="13129.9" cy="-17854.3" r="354.331" /> 
<circle cx="19129.9" cy="-17854.3" r="354.331" /> 
<circle cx="15129.9" cy="-17854.3" r="354.331" /> 
<circle cx="14129.9" cy="-17854.3" r="354.331" /> 
<circle cx="12129.9" cy="-17854.3" r="354.331" /> 
<circle cx="16129.9" cy="-17854.3" r="354.331" /> 
<circle cx="2129.92" cy="-17854.3" r="354.331" /> 
<circle cx="1129.92" cy="-17854.3" r="354.331" /> 
<circle cx="20129.9" cy="-17854.3" r="354.331" /> 
<circle cx="9129.92" cy="-17854.3" r="354.331" /> 
<circle cx="5129.92" cy="-17854.3" r="354.331" /> 
<circle cx="6129.92" cy="-17854.3" r="354.331" /> 
<circle cx="8129.92" cy="-17854.3" r="354.331" /> 
<circle cx="7129.92" cy="-17854.3" r="354.331" /> 
<circle cx="13129.9" cy="-18854.3" r="354.331" /> 
<circle cx="19129.9" cy="-18854.3" r="354.331" /> 
<circle cx="15129.9" cy="-18854.3" r="354.331" /> 
<circle cx="14129.9" cy="-18854.3" r="354.331" /> 
<circle cx="12129.9" cy="-18854.3" r="354.331" /> 
<circle cx="16129.9" cy="-18854.3" r="354.331" /> 
<circle cx="2129.92" cy="-18854.3" r="354.331" /> 
<circle cx="1129.92" cy="-18854.3" r="354.331" /> 
<circle cx="20129.9" cy="-18854.3" r="354.331" /> 
<circle cx="9129.92" cy="-18854.3" r="354.331" /> 
<circle cx="5129.92" cy="-18854.3" r="354.331" /> 
<circle cx="6129.92" cy="-18854.3" r="354.331" /> 
<circle cx="8129.92" cy="-18854.3" r="354.331" /> 
<circle cx="7129.92" cy="-18854.3" r="354.331" /> 
<circle cx="13129.9" cy="-19854.3" r="354.331" /> 
<circle cx="19129.9" cy="-19854.3" r="354.331" /> 
<circle cx="15129.9" cy="-19854.3" r="354.331" /> 
<circle cx="14129.9" cy="-19854.3" r="354.331" /> 
<circle cx="12129.9" cy="-19854.3" r="354.331" /> 
<circle cx="16129.9" cy="-19854.3" r="354.331" /> 
<circle cx="2129.92" cy="-19854.3" r="354.331" /> 
<circle cx="1129.92" cy="-19854.3" r="354.331" /> 
<circle cx="20129.9" cy="-19854.3" r="354.331" /> 
<circle cx="9129.92" cy="-19854.3" r="354.331" /> 
<circle cx="5129.92" cy="-19854.3" r="354.331" /> 
<circle cx="6129.92" cy="-19854.3" r="354.331" /> 
<circle cx="8129.92" cy="-19854.3" r="354.331" /> 
<circle cx="7129.92" cy="-19854.3" r="354.331" /> 
<circle cx="13129.9" cy="-20854.3" r="354.331" /> 
<circle cx="19129.9" cy="-20854.3" r="354.331" /> 
<circle cx="15129.9" cy="-20854.3" r="354.331" /> 
<circle cx="14129.9" cy="-20854.3" r="354.331" /> 
<circle cx="12129.9" cy="-20854.3" r="354.331" /> 
<circle cx="16129.9" cy="-20854.3" r="354.331" /> 
<circle cx="2129.92" cy="-20854.3" r="354.331" /> 
<circle cx="1129.92" cy="-20854.3" r="354.331" /> 
<circle cx="20129.9" cy="-20854.3" r="354.331" /> 
<circle cx="9129.92" cy="-20854.3" r="354.331" /> 
<circle cx="5129.92" cy="-20854.3" r="354.331" /> 
<circle cx="6129.92" cy="-20854.3" r="354.331" /> 
<circle cx="8129.92" cy="-20854.3" r="354.331" /> 
<circle cx="7129.92" cy="-20854.3" r="354.331" /> 
<circle cx="13129.9" cy="-21854.3" r="354.331" /> 
<circle cx="19129.9" cy="-21854.3" r="354.331" /> 
<circle cx="15129.9" cy="-21854.3" r="354.331" /> 
<circle cx="14129.9" cy="-21854.3" r="354.331" /> 
<circle cx="12129.9" cy="-21854.3" r="354.331" /> 
<circle cx="16129.9" cy="-21854.3" r="354.331" /> 
<circle cx="2129.92" cy="-21854.3" r="354.331" /> 
<circle cx="1129.92" cy="-21854.3" r="354.331" /> 
<circle cx="20129.9" cy="-21854.3" r="354.331" /> 
<circle cx="9129.92" cy="-21854.3" r="354.331" /> 
<circle cx="5129.92" cy="-21854.3" r="354.331" /> 
<circle cx="6129.92" cy="-21854.3" r="354.331" /> 
<circle cx="8129.92" cy="-21854.3" r="354.331" /> 
<circle cx="7129.92" cy="-21854.3" r="354.331" /> 
<circle cx="13129.9" cy="-22854.3" r="354.331" /> 
<circle cx="19129.9" cy="-22854.3" r="354.331" /> 
<circle cx="15129.9" cy="-22854.3" r="354.331" /> 
<circle cx="14129.9" cy="-22854.3" r="354.331" /> 
<circle cx="12129.9" cy="-22854.3" r="354.331" /> 
<circle cx="16129.9" cy="-22854.3" r="354.331" /> 
<circle cx="2129.92" cy="-22854.3" r="354.331" /> 
<circle cx="1129.92" cy="-22854.3" r="354.331" /> 
<circle cx="20129.9" cy="-22854.3" r="354.331" /> 
<circle cx="9129.92" cy="-22854.3" r="354.331" /> 
<circle cx="5129.92" cy="-22854.3" r="354.331" /> 
<circle cx="6129.92" cy="-22854.3" r="354.331" /> 
<circle cx="8129.92" cy="-22854.3" r="354.331" /> 
<circle cx="7129.92" cy="-22854.3" r="354.331" /> 
<circle cx="13129.9" cy="-23854.3" r="354.331" /> 
<circle cx="19129.9" cy="-23854.3" r="354.331" /> 
<circle cx="15129.9" cy="-23854.3" r="354.331" /> 
<circle cx="14129.9" cy="-23854.3" r="354.331" /> 
<circle cx="12129.9" cy="-23854.3" r="354.331" /> 
<circle cx="16129.9" cy="-23854.3" r="354.331" /> 
<circle cx="2129.92" cy="-23854.3" r="354.331" /> 
<circle cx="1129.92" cy="-23854.3" r="354.331" /> 
<circle cx="20129.9" cy="-23854.3" r="354.331" /> 
<circle cx="9129.92" cy="-23854.3" r="354.331" /> 
<circle cx="5129.92" cy="-23854.3" r="354.331" /> 
<circle cx="6129.92" cy="-23854.3" r="354.331" /> 
<circle cx="8129.92" cy="-23854.3" r="354.331" /> 
<circle cx="7129.92" cy="-23854.3" r="354.331" /> 
<circle cx="13129.9" cy="-24854.3" r="354.331" /> 
<circle cx="19129.9" cy="-24854.3" r="354.331" /> 
<circle cx="15129.9" cy="-24854.3" r="354.331" /> 
<circle cx="14129.9" cy="-24854.3" r="354.331" /> 
<circle cx="12129.9" cy="-24854.3" r="354.331" /> 
<circle cx="16129.9" cy="-24854.3" r="354.331" /> 
<circle cx="2129.92" cy="-24854.3" r="354.331" /> 
<circle cx="1129.92" cy="-24854.3" r="354.331" /> 
<circle cx="20129.9" cy="-24854.3" r="354.331" /> 
<circle cx="9129.92" cy="-24854.3" r="354.331" /> 
<circle cx="5129.92" cy="-24854.3" r="354.331" /> 
<circle cx="6129.92" cy="-24854.3" r="354.331" /> 
<circle cx="8129.92" cy="-24854.3" r="354.331" /> 
<circle cx="7129.92" cy="-24854.3" r="354.331" /> 
<circle cx="13129.9" cy="-25854.3" r="354.331" /> 
<circle cx="19129.9" cy="-25854.3" r="354.331" /> 
<circle cx="15129.9" cy="-25854.3" r="354.331" /> 
<circle cx="14129.9" cy="-25854.3" r="354.331" /> 
<circle cx="12129.9" cy="-25854.3" r="354.331" /> 
<circle cx="16129.9" cy="-25854.3" r="354.331" /> 
<circle cx="2129.92" cy="-25854.3" r="354.331" /> 
<circle cx="1129.92" cy="-25854.3" r="354.331" /> 
<circle cx="20129.9" cy="-25854.3" r="354.331" /> 
<circle cx="9129.92" cy="-25854.3" r="354.331" /> 
<circle cx="5129.92" cy="-25854.3" r="354.331" /> 
<circle cx="6129.92" cy="-25854.3" r="354.331" /> 
<circle cx="8129.92" cy="-25854.3" r="354.331" /> 
<circle cx="7129.92" cy="-25854.3" r="354.331" /> 
<circle cx="13129.9" cy="-26854.3" r="354.331" /> 
<circle cx="19129.9" cy="-26854.3" r="354.331" /> 
<circle cx="15129.9" cy="-26854.3" r="354.331" /> 
<circle cx="14129.9" cy="-26854.3" r="354.331" /> 
<circle cx="12129.9" cy="-26854.3" r="354.331" /> 
<circle cx="16129.9" cy="-26854.3" r="354.331" /> 
<circle cx="2129.92" cy="-26854.3" r="354.331" /> 
<circle cx="1129.92" cy="-26854.3" r="354.331" /> 
<circle cx="20129.9" cy="-26854.3" r="354.331" /> 
<circle cx="9129.92" cy="-26854.3" r="354.331" /> 
<circle cx="5129.92" cy="-26854.3" r="354.331" /> 
<circle cx="6129.92" cy="-26854.3" r="354.331" /> 
<circle cx="8129.92" cy="-26854.3" r="354.331" /> 
<circle cx="7129.92" cy="-26854.3" r="354.331" /> 
</g>
<g >
</g>
<g style="fill:#000000; fill-opacity:1.0; 
stroke:#000000; stroke-width:0; stroke-opacity:1; 
stroke-linecap:round; stroke-linejoin:round;">
<path style="fill:#000000; fill-opacity:1.0; 
stroke:#000000; stroke-width:0; stroke-opacity:1; 
stroke-linecap:round; stroke-linejoin:round;fill-rule:evenodd;"
d="M 9379.88,-34507.8
9381.79,-34507.5
9383.67,-34507
9385.49,-34506.4
9387.23,-34505.5
9388.89,-34504.6
9390.44,-34503.4
9391.87,-34502.1
9393.17,-34500.7
9394.32,-34499.1
9395.31,-34497.5
9396.14,-34495.7
9396.79,-34493.9
9397.26,-34492
9397.54,-34490.1
9397.64,-34488.2
9397.64,-34094.5
9397.54,-34092.6
9397.26,-34090.6
9396.79,-34088.8
9396.14,-34087
9395.31,-34085.2
9394.32,-34083.6
9393.17,-34082
9391.87,-34080.6
9390.44,-34079.3
9388.89,-34078.1
9387.23,-34077.1
9385.49,-34076.3
9383.67,-34075.7
9381.79,-34075.2
9379.88,-34074.9
9377.95,-34074.8
8433.07,-34074.8
8431.14,-34074.9
8429.23,-34075.2
8427.36,-34075.7
8425.54,-34076.3
8423.79,-34077.1
8422.13,-34078.1
8420.58,-34079.3
8419.15,-34080.6
8417.85,-34082
8416.7,-34083.6
8415.71,-34085.2
8414.88,-34087
8414.23,-34088.8
8413.76,-34090.6
8413.48,-34092.6
8413.39,-34094.5
8413.39,-34488.2
8413.48,-34490.1
8413.76,-34492
8414.23,-34493.9
8414.88,-34495.7
8415.71,-34497.5
8416.7,-34499.1
8417.85,-34500.7
8419.15,-34502.1
8420.58,-34503.4
8422.13,-34504.6
8423.79,-34505.5
8425.54,-34506.4
8427.36,-34507
8429.23,-34507.5
8431.14,-34507.8
8433.07,-34507.9
9377.95,-34507.9
Z" /> 
<path style="fill:#000000; fill-opacity:1.0; 
stroke:#000000; stroke-width:0; stroke-opacity:1; 
stroke-linecap:round; stroke-linejoin:round;fill-rule:evenodd;"
d="M 9379.88,-33838.5
9381.79,-33838.2
9383.67,-33837.7
9385.49,-33837.1
9387.23,-33836.3
9388.89,-33835.3
9390.44,-33834.1
9391.87,-33832.8
9393.17,-33831.4
9394.32,-33829.8
9395.31,-33828.2
9396.14,-33826.4
9396.79,-33824.6
9397.26,-33822.7
9397.54,-33820.8
9397.64,-33818.9
9397.64,-33425.2
9397.54,-33423.3
9397.26,-33421.4
9396.79,-33419.5
9396.14,-33417.7
9395.31,-33415.9
9394.32,-33414.3
9393.17,-33412.7
9391.87,-33411.3
9390.44,-33410
9388.89,-33408.8
9387.23,-33407.8
9385.49,-33407
9383.67,-33406.4
9381.79,-33405.9
9379.88,-33405.6
9377.95,-33405.5
8433.07,-33405.5
8431.14,-33405.6
8429.23,-33405.9
8427.36,-33406.4
8425.54,-33407
8423.79,-33407.8
8422.13,-33408.8
8420.58,-33410
8419.15,-33411.3
8417.85,-33412.7
8416.7,-33414.3
8415.71,-33415.9
8414.88,-33417.7
8414.23,-33419.5
8413.76,-33421.4
8413.48,-33423.3
8413.39,-33425.2
8413.39,-33818.9
8413.48,-33820.8
8413.76,-33822.7
8414.23,-33824.6
8414.88,-33826.4
8415.71,-33828.2
8416.7,-33829.8
8417.85,-33831.4
8419.15,-33832.8
8420.58,-33834.1
8422.13,-33835.3
8423.79,-33836.3
8425.54,-33837.1
8427.36,-33837.7
8429.23,-33838.2
8431.14,-33838.5
8433.07,-33838.6
9377.95,-33838.6
Z" /> 
</g>
<g >
</g>
<g style="fill:#000000; fill-opacity:1.0; 
stroke:#000000; stroke-width:0; stroke-opacity:1; 
stroke-linecap:round; stroke-linejoin:round;">
<path style="fill:#000000; fill-opacity:1.0; 
stroke:#000000; stroke-width:0; stroke-opacity:1; 
stroke-linecap:round; stroke-linejoin:round;fill-rule:evenodd;"
d="M 14620.2,-38696.3
14630.4,-38694.8
14640.3,-38692.3
14650,-38688.9
14659.3,-38684.5
14668.1,-38679.2
14676.3,-38673.1
14683.9,-38666.2
14690.8,-38658.6
14696.9,-38650.4
14702.2,-38641.6
14706.6,-38632.3
14710.1,-38622.6
14712.6,-38612.7
14714.1,-38602.5
14714.6,-38592.3
14714.6,-37738.4
14714.1,-37728.2
14712.6,-37718
14710.1,-37708.1
14706.6,-37698.4
14702.2,-37689.1
14696.9,-37680.3
14690.8,-37672.1
14683.9,-37664.5
14676.3,-37657.6
14668.1,-37651.5
14659.3,-37646.2
14650,-37641.8
14640.3,-37638.4
14630.4,-37635.9
14620.2,-37634.4
14610,-37633.9
14149.9,-37633.9
14139.6,-37634.4
14129.5,-37635.9
14119.5,-37638.4
14109.8,-37641.8
14100.6,-37646.2
14091.8,-37651.5
14083.5,-37657.6
14075.9,-37664.5
14069,-37672.1
14062.9,-37680.3
14057.6,-37689.1
14053.2,-37698.4
14049.8,-37708.1
14047.3,-37718
14045.8,-37728.2
14045.3,-37738.4
14045.3,-38592.3
14045.8,-38602.5
14047.3,-38612.7
14049.8,-38622.6
14053.2,-38632.3
14057.6,-38641.6
14062.9,-38650.4
14069,-38658.6
14075.9,-38666.2
14083.5,-38673.1
14091.8,-38679.2
14100.6,-38684.5
14109.8,-38688.9
14119.5,-38692.3
14129.5,-38694.8
14139.6,-38696.3
14149.9,-38696.9
14610,-38696.9
Z" /> 
<path style="fill:#000000; fill-opacity:1.0; 
stroke:#000000; stroke-width:0; stroke-opacity:1; 
stroke-linecap:round; stroke-linejoin:round;fill-rule:evenodd;"
d="M 14620.2,-37279
14630.4,-37277.5
14640.3,-37275
14650,-37271.6
14659.3,-37267.2
14668.1,-37261.9
14676.3,-37255.8
14683.9,-37248.9
14690.8,-37241.3
14696.9,-37233.1
14702.2,-37224.2
14706.6,-37215
14710.1,-37205.3
14712.6,-37195.4
14714.1,-37185.2
14714.6,-37175
14714.6,-36321.1
14714.1,-36310.9
14712.6,-36300.7
14710.1,-36290.8
14706.6,-36281.1
14702.2,-36271.8
14696.9,-36263
14690.8,-36254.8
14683.9,-36247.2
14676.3,-36240.3
14668.1,-36234.2
14659.3,-36228.9
14650,-36224.5
14640.3,-36221
14630.4,-36218.5
14620.2,-36217
14610,-36216.5
14149.9,-36216.5
14139.6,-36217
14129.5,-36218.5
14119.5,-36221
14109.8,-36224.5
14100.6,-36228.9
14091.8,-36234.2
14083.5,-36240.3
14075.9,-36247.2
14069,-36254.8
14062.9,-36263
14057.6,-36271.8
14053.2,-36281.1
14049.8,-36290.8
14047.3,-36300.7
14045.8,-36310.9
14045.3,-36321.1
14045.3,-37175
14045.8,-37185.2
14047.3,-37195.4
14049.8,-37205.3
14053.2,-37215
14057.6,-37224.2
14062.9,-37233.1
14069,-37241.3
14075.9,-37248.9
14083.5,-37255.8
14091.8,-37261.9
14100.6,-37267.2
14109.8,-37271.6
14119.5,-37275
14129.5,-37277.5
14139.6,-37279
14149.9,-37279.5
14610,-37279.5
Z" /> 
</g>
<g >
</g>
<g style="fill:#000000; fill-opacity:1.0; 
stroke:#000000; stroke-width:0; stroke-opacity:1; 
stroke-linecap:round; stroke-linejoin:round;">
<path style="fill:#000000; fill-opacity:1.0; 
stroke:#000000; stroke-width:0; stroke-opacity:1; 
stroke-linecap:round; stroke-linejoin:round;fill-rule:evenodd;"
d="M 12370.2,-38696.3
12380.4,-38694.8
12390.3,-38692.3
12400,-38688.9
12409.3,-38684.5
12418.1,-38679.2
12426.3,-38673.1
12433.9,-38666.2
12440.8,-38658.6
12446.9,-38650.4
12452.2,-38641.6
12456.6,-38632.3
12460.1,-38622.6
12462.6,-38612.7
12464.1,-38602.5
12464.6,-38592.3
12464.6,-37738.4
12464.1,-37728.2
12462.6,-37718
12460.1,-37708.1
12456.6,-37698.4
12452.2,-37689.1
12446.9,-37680.3
12440.8,-37672.1
12433.9,-37664.5
12426.3,-37657.6
12418.1,-37651.5
12409.3,-37646.2
12400,-37641.8
12390.3,-37638.4
12380.4,-37635.9
12370.2,-37634.4
12360,-37633.9
11899.9,-37633.9
11889.6,-37634.4
11879.5,-37635.9
11869.5,-37638.4
11859.8,-37641.8
11850.6,-37646.2
11841.8,-37651.5
11833.5,-37657.6
11825.9,-37664.5
11819,-37672.1
11812.9,-37680.3
11807.6,-37689.1
11803.2,-37698.4
11799.8,-37708.1
11797.3,-37718
11795.8,-37728.2
11795.3,-37738.4
11795.3,-38592.3
11795.8,-38602.5
11797.3,-38612.7
11799.8,-38622.6
11803.2,-38632.3
11807.6,-38641.6
11812.9,-38650.4
11819,-38658.6
11825.9,-38666.2
11833.5,-38673.1
11841.8,-38679.2
11850.6,-38684.5
11859.8,-38688.9
11869.5,-38692.3
11879.5,-38694.8
11889.6,-38696.3
11899.9,-38696.9
12360,-38696.9
Z" /> 
<path style="fill:#000000; fill-opacity:1.0; 
stroke:#000000; stroke-width:0; stroke-opacity:1; 
stroke-linecap:round; stroke-linejoin:round;fill-rule:evenodd;"
d="M 12370.2,-37279
12380.4,-37277.5
12390.3,-37275
12400,-37271.6
12409.3,-37267.2
12418.1,-37261.9
12426.3,-37255.8
12433.9,-37248.9
12440.8,-37241.3
12446.9,-37233.1
12452.2,-37224.2
12456.6,-37215
12460.1,-37205.3
12462.6,-37195.4
12464.1,-37185.2
12464.6,-37175
12464.6,-36321.1
12464.1,-36310.9
12462.6,-36300.7
12460.1,-36290.8
12456.6,-36281.1
12452.2,-36271.8
12446.9,-36263
12440.8,-36254.8
12433.9,-36247.2
12426.3,-36240.3
12418.1,-36234.2
12409.3,-36228.9
12400,-36224.5
12390.3,-36221
12380.4,-36218.5
12370.2,-36217
12360,-36216.5
11899.9,-36216.5
11889.6,-36217
11879.5,-36218.5
11869.5,-36221
11859.8,-36224.5
11850.6,-36228.9
11841.8,-36234.2
11833.5,-36240.3
11825.9,-36247.2
11819,-36254.8
11812.9,-36263
11807.6,-36271.8
11803.2,-36281.1
11799.8,-36290.8
11797.3,-36300.7
11795.8,-36310.9
11795.3,-36321.1
11795.3,-37175
11795.8,-37185.2
11797.3,-37195.4
11799.8,-37205.3
11803.2,-37215
11807.6,-37224.2
11812.9,-37233.1
11819,-37241.3
11825.9,-37248.9
11833.5,-37255.8
11841.8,-37261.9
11850.6,-37267.2
11859.8,-37271.6
11869.5,-37275
11879.5,-37277.5
11889.6,-37279
11899.9,-37279.5
12360,-37279.5
Z" /> 
</g>
<g >
</g>
<g style="fill:#000000; fill-opacity:1.0; 
stroke:#000000; stroke-width:0; stroke-opacity:1; 
stroke-linecap:round; stroke-linejoin:round;">
<circle cx="1600.39" cy="-37185" r="551.181" /> 
</g>
<g style="fill:#000000; fill-opacity:1.0; 
stroke:#000000; stroke-width:39.3701; stroke-opacity:1; 
stroke-linecap:round; stroke-linejoin:round;">
</g>
<g style="fill:#000000; fill-opacity:1.0; 
stroke:#000000; stroke-width:0; stroke-opacity:1; 
stroke-linecap:round; stroke-linejoin:round;">
<circle cx="3100.39" cy="-37185" r="551.181" /> 
</g>
<g style="fill:#000000; fill-opacity:1.0; 
stroke:#000000; stroke-width:39.3701; stroke-opacity:1; 
stroke-linecap:round; stroke-linejoin:round;">
</g>
<g >
</g>
<g style="fill:#000000; fill-opacity:1.0; 
stroke:#000000; stroke-width:39.3701; stroke-opacity:1; 
stroke-linecap:round; stroke-linejoin:round;">
</g>
<g style="fill:#000000; fill-opacity:1.0; 
stroke:#000000; stroke-width:0; stroke-opacity:1; 
stroke-linecap:round; stroke-linejoin:round;">
<path style="fill:#000000; fill-opacity:1.0; 
stroke:#000000; stroke-width:0; stroke-opacity:1; 
stroke-linecap:round; stroke-linejoin:round;fill-rule:evenodd;"
d="M 19120.2,-38696.3
19130.4,-38694.8
19140.3,-38692.3
19150,-38688.9
19159.3,-38684.5
19168.1,-38679.2
19176.3,-38673.1
19183.9,-38666.2
19190.8,-38658.6
19196.9,-38650.4
19202.2,-38641.6
19206.6,-38632.3
19210.1,-38622.6
19212.6,-38612.7
19214.1,-38602.5
19214.6,-38592.3
19214.6,-37738.4
19214.1,-37728.2
19212.6,-37718
19210.1,-37708.1
19206.6,-37698.4
19202.2,-37689.1
19196.9,-37680.3
19190.8,-37672.1
19183.9,-37664.5
19176.3,-37657.6
19168.1,-37651.5
19159.3,-37646.2
19150,-37641.8
19140.3,-37638.4
19130.4,-37635.9
19120.2,-37634.4
19110,-37633.9
18649.9,-37633.9
18639.6,-37634.4
18629.5,-37635.9
18619.5,-37638.4
18609.8,-37641.8
18600.6,-37646.2
18591.8,-37651.5
18583.5,-37657.6
18575.9,-37664.5
18569,-37672.1
18562.9,-37680.3
18557.6,-37689.1
18553.2,-37698.4
18549.8,-37708.1
18547.3,-37718
18545.8,-37728.2
18545.3,-37738.4
18545.3,-38592.3
18545.8,-38602.5
18547.3,-38612.7
18549.8,-38622.6
18553.2,-38632.3
18557.6,-38641.6
18562.9,-38650.4
18569,-38658.6
18575.9,-38666.2
18583.5,-38673.1
18591.8,-38679.2
18600.6,-38684.5
18609.8,-38688.9
18619.5,-38692.3
18629.5,-38694.8
18639.6,-38696.3
18649.9,-38696.9
19110,-38696.9
Z" /> 
<path style="fill:#000000; fill-opacity:1.0; 
stroke:#000000; stroke-width:0; stroke-opacity:1; 
stroke-linecap:round; stroke-linejoin:round;fill-rule:evenodd;"
d="M 19120.2,-37279
19130.4,-37277.5
19140.3,-37275
19150,-37271.6
19159.3,-37267.2
19168.1,-37261.9
19176.3,-37255.8
19183.9,-37248.9
19190.8,-37241.3
19196.9,-37233.1
19202.2,-37224.2
19206.6,-37215
19210.1,-37205.3
19212.6,-37195.4
19214.1,-37185.2
19214.6,-37175
19214.6,-36321.1
19214.1,-36310.9
19212.6,-36300.7
19210.1,-36290.8
19206.6,-36281.1
19202.2,-36271.8
19196.9,-36263
19190.8,-36254.8
19183.9,-36247.2
19176.3,-36240.3
19168.1,-36234.2
19159.3,-36228.9
19150,-36224.5
19140.3,-36221
19130.4,-36218.5
19120.2,-36217
19110,-36216.5
18649.9,-36216.5
18639.6,-36217
18629.5,-36218.5
18619.5,-36221
18609.8,-36224.5
18600.6,-36228.9
18591.8,-36234.2
18583.5,-36240.3
18575.9,-36247.2
18569,-36254.8
18562.9,-36263
18557.6,-36271.8
18553.2,-36281.1
18549.8,-36290.8
18547.3,-36300.7
18545.8,-36310.9
18545.3,-36321.1
18545.3,-37175
18545.8,-37185.2
18547.3,-37195.4
18549.8,-37205.3
18553.2,-37215
18557.6,-37224.2
18562.9,-37233.1
18569,-37241.3
18575.9,-37248.9
18583.5,-37255.8
18591.8,-37261.9
18600.6,-37267.2
18609.8,-37271.6
18619.5,-37275
18629.5,-37277.5
18639.6,-37279
18649.9,-37279.5
19110,-37279.5
Z" /> 
</g>
<g >
</g>
<g style="fill:#000000; fill-opacity:1.0; 
stroke:#000000; stroke-width:0; stroke-opacity:1; 
stroke-linecap:round; stroke-linejoin:round;">
<path style="fill:#000000; fill-opacity:1.0; 
stroke:#000000; stroke-width:0; stroke-opacity:1; 
stroke-linecap:round; stroke-linejoin:round;fill-rule:evenodd;"
d="M 12824.8,-34507.8
12826.7,-34507.5
12828.5,-34507
12830.4,-34506.4
12832.1,-34505.5
12833.8,-34504.6
12835.3,-34503.4
12836.8,-34502.1
12838.1,-34500.7
12839.2,-34499.1
12840.2,-34497.5
12841,-34495.7
12841.7,-34493.9
12842.1,-34492
12842.4,-34490.1
12842.5,-34488.2
12842.5,-34094.5
12842.4,-34092.6
12842.1,-34090.6
12841.7,-34088.8
12841,-34087
12840.2,-34085.2
12839.2,-34083.6
12838.1,-34082
12836.8,-34080.6
12835.3,-34079.3
12833.8,-34078.1
12832.1,-34077.1
12830.4,-34076.3
12828.5,-34075.7
12826.7,-34075.2
12824.8,-34074.9
12822.8,-34074.8
11878,-34074.8
11876,-34074.9
11874.1,-34075.2
11872.2,-34075.7
11870.4,-34076.3
11868.7,-34077.1
11867,-34078.1
11865.5,-34079.3
11864,-34080.6
11862.7,-34082
11861.6,-34083.6
11860.6,-34085.2
11859.8,-34087
11859.1,-34088.8
11858.6,-34090.6
11858.4,-34092.6
11858.3,-34094.5
11858.3,-34488.2
11858.4,-34490.1
11858.6,-34492
11859.1,-34493.9
11859.8,-34495.7
11860.6,-34497.5
11861.6,-34499.1
11862.7,-34500.7
11864,-34502.1
11865.5,-34503.4
11867,-34504.6
11868.7,-34505.5
11870.4,-34506.4
11872.2,-34507
11874.1,-34507.5
11876,-34507.8
11878,-34507.9
12822.8,-34507.9
Z" /> 
<path style="fill:#000000; fill-opacity:1.0; 
stroke:#000000; stroke-width:0; stroke-opacity:1; 
stroke-linecap:round; stroke-linejoin:round;fill-rule:evenodd;"
d="M 12824.8,-33838.5
12826.7,-33838.2
12828.5,-33837.7
12830.4,-33837.1
12832.1,-33836.3
12833.8,-33835.3
12835.3,-33834.1
12836.8,-33832.8
12838.1,-33831.4
12839.2,-33829.8
12840.2,-33828.2
12841,-33826.4
12841.7,-33824.6
12842.1,-33822.7
12842.4,-33820.8
12842.5,-33818.9
12842.5,-33425.2
12842.4,-33423.3
12842.1,-33421.4
12841.7,-33419.5
12841,-33417.7
12840.2,-33415.9
12839.2,-33414.3
12838.1,-33412.7
12836.8,-33411.3
12835.3,-33410
12833.8,-33408.8
12832.1,-33407.8
12830.4,-33407
12828.5,-33406.4
12826.7,-33405.9
12824.8,-33405.6
12822.8,-33405.5
11878,-33405.5
11876,-33405.6
11874.1,-33405.9
11872.2,-33406.4
11870.4,-33407
11868.7,-33407.8
11867,-33408.8
11865.5,-33410
11864,-33411.3
11862.7,-33412.7
11861.6,-33414.3
11860.6,-33415.9
11859.8,-33417.7
11859.1,-33419.5
11858.6,-33421.4
11858.4,-33423.3
11858.3,-33425.2
11858.3,-33818.9
11858.4,-33820.8
11858.6,-33822.7
11859.1,-33824.6
11859.8,-33826.4
11860.6,-33828.2
11861.6,-33829.8
11862.7,-33831.4
11864,-33832.8
11865.5,-33834.1
11867,-33835.3
11868.7,-33836.3
11870.4,-33837.1
11872.2,-33837.7
11874.1,-33838.2
11876,-33838.5
11878,-33838.6
12822.8,-33838.6
Z" /> 
</g>
<g >
</g>
<g style="fill:#000000; fill-opacity:1.0; 
stroke:#000000; stroke-width:0; stroke-opacity:1; 
stroke-linecap:round; stroke-linejoin:round;">
<path style="fill:#000000; fill-opacity:1.0; 
stroke:#000000; stroke-width:0; stroke-opacity:1; 
stroke-linecap:round; stroke-linejoin:round;fill-rule:evenodd;"
d="M 16870.2,-38696.3
16880.4,-38694.8
16890.3,-38692.3
16900,-38688.9
16909.3,-38684.5
16918.1,-38679.2
16926.3,-38673.1
16933.9,-38666.2
16940.8,-38658.6
16946.9,-38650.4
16952.2,-38641.6
16956.6,-38632.3
16960.1,-38622.6
16962.6,-38612.7
16964.1,-38602.5
16964.6,-38592.3
16964.6,-37738.4
16964.1,-37728.2
16962.6,-37718
16960.1,-37708.1
16956.6,-37698.4
16952.2,-37689.1
16946.9,-37680.3
16940.8,-37672.1
16933.9,-37664.5
16926.3,-37657.6
16918.1,-37651.5
16909.3,-37646.2
16900,-37641.8
16890.3,-37638.4
16880.4,-37635.9
16870.2,-37634.4
16860,-37633.9
16399.9,-37633.9
16389.6,-37634.4
16379.5,-37635.9
16369.5,-37638.4
16359.8,-37641.8
16350.6,-37646.2
16341.8,-37651.5
16333.5,-37657.6
16325.9,-37664.5
16319,-37672.1
16312.9,-37680.3
16307.6,-37689.1
16303.2,-37698.4
16299.8,-37708.1
16297.3,-37718
16295.8,-37728.2
16295.3,-37738.4
16295.3,-38592.3
16295.8,-38602.5
16297.3,-38612.7
16299.8,-38622.6
16303.2,-38632.3
16307.6,-38641.6
16312.9,-38650.4
16319,-38658.6
16325.9,-38666.2
16333.5,-38673.1
16341.8,-38679.2
16350.6,-38684.5
16359.8,-38688.9
16369.5,-38692.3
16379.5,-38694.8
16389.6,-38696.3
16399.9,-38696.9
16860,-38696.9
Z" /> 
<path style="fill:#000000; fill-opacity:1.0; 
stroke:#000000; stroke-width:0; stroke-opacity:1; 
stroke-linecap:round; stroke-linejoin:round;fill-rule:evenodd;"
d="M 16870.2,-37279
16880.4,-37277.5
16890.3,-37275
16900,-37271.6
16909.3,-37267.2
16918.1,-37261.9
16926.3,-37255.8
16933.9,-37248.9
16940.8,-37241.3
16946.9,-37233.1
16952.2,-37224.2
16956.6,-37215
16960.1,-37205.3
16962.6,-37195.4
16964.1,-37185.2
16964.6,-37175
16964.6,-36321.1
16964.1,-36310.9
16962.6,-36300.7
16960.1,-36290.8
16956.6,-36281.1
16952.2,-36271.8
16946.9,-36263
16940.8,-36254.8
16933.9,-36247.2
16926.3,-36240.3
16918.1,-36234.2
16909.3,-36228.9
16900,-36224.5
16890.3,-36221
16880.4,-36218.5
16870.2,-36217
16860,-36216.5
16399.9,-36216.5
16389.6,-36217
16379.5,-36218.5
16369.5,-36221
16359.8,-36224.5
16350.6,-36228.9
16341.8,-36234.2
16333.5,-36240.3
16325.9,-36247.2
16319,-36254.8
16312.9,-36263
16307.6,-36271.8
16303.2,-36281.1
16299.8,-36290.8
16297.3,-36300.7
16295.8,-36310.9
16295.3,-36321.1
16295.3,-37175
16295.8,-37185.2
16297.3,-37195.4
16299.8,-37205.3
16303.2,-37215
16307.6,-37224.2
16312.9,-37233.1
16319,-37241.3
16325.9,-37248.9
16333.5,-37255.8
16341.8,-37261.9
16350.6,-37267.2
16359.8,-37271.6
16369.5,-37275
16379.5,-37277.5
16389.6,-37279
16399.9,-37279.5
16860,-37279.5
Z" /> 
</g>
<g >
</g>
<g style="fill:#000000; fill-opacity:1.0; 
stroke:#000000; stroke-width:0; stroke-opacity:1; 
stroke-linecap:round; stroke-linejoin:round;">
<path style="fill:#000000; fill-opacity:1.0; 
stroke:#000000; stroke-width:0; stroke-opacity:1; 
stroke-linecap:round; stroke-linejoin:round;fill-rule:evenodd;"
d="M 6916.33,-33621.5
6926.61,-33620
6936.69,-33617.5
6946.47,-33614
6955.86,-33609.5
6964.77,-33604.2
6973.11,-33598
6980.81,-33591
6987.78,-33583.3
6993.97,-33575
6999.31,-33566.1
7003.75,-33556.7
7007.25,-33546.9
7009.78,-33536.8
7011.3,-33526.6
7011.81,-33516.2
7011.81,-33166.9
7011.3,-33156.5
7009.78,-33146.2
7007.25,-33136.1
7003.75,-33126.4
6999.31,-33117
6993.97,-33108.1
6987.78,-33099.7
6980.81,-33092
6973.11,-33085.1
6964.77,-33078.9
6955.86,-33073.5
6946.47,-33069.1
6936.69,-33065.6
6926.61,-33063.1
6916.33,-33061.5
6905.96,-33061
6369.63,-33061
6359.26,-33061.5
6348.98,-33063.1
6338.9,-33065.6
6329.12,-33069.1
6319.73,-33073.5
6310.82,-33078.9
6302.48,-33085.1
6294.78,-33092
6287.81,-33099.7
6281.62,-33108.1
6276.28,-33117
6271.84,-33126.4
6268.34,-33136.1
6265.81,-33146.2
6264.29,-33156.5
6263.78,-33166.9
6263.78,-33516.2
6264.29,-33526.6
6265.81,-33536.8
6268.34,-33546.9
6271.84,-33556.7
6276.28,-33566.1
6281.62,-33575
6287.81,-33583.3
6294.78,-33591
6302.48,-33598
6310.82,-33604.2
6319.73,-33609.5
6329.12,-33614
6338.9,-33617.5
6348.98,-33620
6359.26,-33621.5
6369.63,-33622
6905.96,-33622
Z" /> 
<path style="fill:#000000; fill-opacity:1.0; 
stroke:#000000; stroke-width:0; stroke-opacity:1; 
stroke-linecap:round; stroke-linejoin:round;fill-rule:evenodd;"
d="M 6916.33,-34851.9
6926.61,-34850.3
6936.69,-34847.8
6946.47,-34844.3
6955.86,-34839.9
6964.77,-34834.5
6973.11,-34828.3
6980.81,-34821.4
6987.78,-34813.7
6993.97,-34805.3
6999.31,-34796.4
7003.75,-34787
7007.25,-34777.2
7009.78,-34767.2
7011.3,-34756.9
7011.81,-34746.5
7011.81,-34397.2
7011.3,-34386.8
7009.78,-34376.5
7007.25,-34366.5
7003.75,-34356.7
6999.31,-34347.3
6993.97,-34338.4
6987.78,-34330
6980.81,-34322.3
6973.11,-34315.4
6964.77,-34309.2
6955.86,-34303.8
6946.47,-34299.4
6936.69,-34295.9
6926.61,-34293.4
6916.33,-34291.8
6905.96,-34291.3
6369.63,-34291.3
6359.26,-34291.8
6348.98,-34293.4
6338.9,-34295.9
6329.12,-34299.4
6319.73,-34303.8
6310.82,-34309.2
6302.48,-34315.4
6294.78,-34322.3
6287.81,-34330
6281.62,-34338.4
6276.28,-34347.3
6271.84,-34356.7
6268.34,-34366.5
6265.81,-34376.5
6264.29,-34386.8
6263.78,-34397.2
6263.78,-34746.5
6264.29,-34756.9
6265.81,-34767.2
6268.34,-34777.2
6271.84,-34787
6276.28,-34796.4
6281.62,-34805.3
6287.81,-34813.7
6294.78,-34821.4
6302.48,-34828.3
6310.82,-34834.5
6319.73,-34839.9
6329.12,-34844.3
6338.9,-34847.8
6348.98,-34850.3
6359.26,-34851.9
6369.63,-34852.4
6905.96,-34852.4
Z" /> 
</g>
<g >
</g>
<g style="fill:#000000; fill-opacity:1.0; 
stroke:#000000; stroke-width:0; stroke-opacity:1; 
stroke-linecap:round; stroke-linejoin:round;">
<path style="fill:#000000; fill-opacity:1.0; 
stroke:#000000; stroke-width:0; stroke-opacity:1; 
stroke-linecap:round; stroke-linejoin:round;fill-rule:evenodd;"
d="M 13890.3,-33670.7
13900.7,-33669.2
13910.8,-33666.7
13920.6,-33663.2
13930,-33658.7
13939,-33653.3
13947.4,-33647.1
13955.1,-33640.1
13962.1,-33632.4
13968.3,-33624
13973.7,-33615.1
13978.1,-33605.6
13981.6,-33595.8
13984.2,-33585.7
13985.7,-33575.4
13986.2,-33565
13986.2,-33246.1
13985.7,-33235.6
13984.2,-33225.3
13981.6,-33215.2
13978.1,-33205.4
13973.7,-33196
13968.3,-33187
13962.1,-33178.6
13955.1,-33170.9
13947.4,-33163.9
13939,-33157.7
13930,-33152.3
13920.6,-33147.9
13910.8,-33144.3
13900.7,-33141.8
13890.3,-33140.3
13879.9,-33139.8
13364.2,-33139.8
13353.8,-33140.3
13343.4,-33141.8
13333.3,-33144.3
13323.5,-33147.9
13314.1,-33152.3
13305.1,-33157.7
13296.7,-33163.9
13289,-33170.9
13282,-33178.6
13275.8,-33187
13270.4,-33196
13266,-33205.4
13262.5,-33215.2
13259.9,-33225.3
13258.4,-33235.6
13257.9,-33246.1
13257.9,-33565
13258.4,-33575.4
13259.9,-33585.7
13262.5,-33595.8
13266,-33605.6
13270.4,-33615.1
13275.8,-33624
13282,-33632.4
13289,-33640.1
13296.7,-33647.1
13305.1,-33653.3
13314.1,-33658.7
13323.5,-33663.2
13333.3,-33666.7
13343.4,-33669.2
13353.8,-33670.7
13364.2,-33671.3
13879.9,-33671.3
Z" /> 
<path style="fill:#000000; fill-opacity:1.0; 
stroke:#000000; stroke-width:0; stroke-opacity:1; 
stroke-linecap:round; stroke-linejoin:round;fill-rule:evenodd;"
d="M 13890.3,-34773.1
13900.7,-34771.6
13910.8,-34769
13920.6,-34765.5
13930,-34761.1
13939,-34755.7
13947.4,-34749.5
13955.1,-34742.5
13962.1,-34734.8
13968.3,-34726.4
13973.7,-34717.4
13978.1,-34708
13981.6,-34698.2
13984.2,-34688.1
13985.7,-34677.7
13986.2,-34667.3
13986.2,-34348.4
13985.7,-34338
13984.2,-34327.7
13981.6,-34317.6
13978.1,-34307.7
13973.7,-34298.3
13968.3,-34289.4
13962.1,-34281
13955.1,-34273.3
13947.4,-34266.3
13939,-34260
13930,-34254.7
13920.6,-34250.2
13910.8,-34246.7
13900.7,-34244.2
13890.3,-34242.6
13879.9,-34242.1
13364.2,-34242.1
13353.8,-34242.6
13343.4,-34244.2
13333.3,-34246.7
13323.5,-34250.2
13314.1,-34254.7
13305.1,-34260
13296.7,-34266.3
13289,-34273.3
13282,-34281
13275.8,-34289.4
13270.4,-34298.3
13266,-34307.7
13262.5,-34317.6
13259.9,-34327.7
13258.4,-34338
13257.9,-34348.4
13257.9,-34667.3
13258.4,-34677.7
13259.9,-34688.1
13262.5,-34698.2
13266,-34708
13270.4,-34717.4
13275.8,-34726.4
13282,-34734.8
13289,-34742.5
13296.7,-34749.5
13305.1,-34755.7
13314.1,-34761.1
13323.5,-34765.5
13333.3,-34769
13343.4,-34771.6
13353.8,-34773.1
13364.2,-34773.6
13879.9,-34773.6
Z" /> 
</g>
<g >
</g>
<g style="fill:#000000; fill-opacity:1.0; 
stroke:#000000; stroke-width:0; stroke-opacity:1; 
stroke-linecap:round; stroke-linejoin:round;">
<circle cx="6358.27" cy="-30956.7" r="354.331" /> 
<circle cx="5358.27" cy="-31956.7" r="354.331" /> 
<circle cx="5358.27" cy="-30956.7" r="354.331" /> 
<path style="fill:#000000; fill-opacity:1.0; 
stroke:#000000; stroke-width:0; stroke-opacity:1; 
stroke-linecap:round; stroke-linejoin:round;fill-rule:evenodd;"
d="M 4694.84,-31310.9
4696.75,-31310.6
4698.63,-31310.2
4700.45,-31309.5
4702.19,-31308.7
4703.85,-31307.7
4705.4,-31306.6
4706.83,-31305.3
4708.13,-31303.8
4709.28,-31302.3
4710.27,-31300.6
4711.1,-31298.9
4711.75,-31297.1
4712.22,-31295.2
4712.5,-31293.3
4712.6,-31291.3
4712.6,-30622
4712.5,-30620.1
4712.22,-30618.2
4711.75,-30616.3
4711.1,-30614.5
4710.27,-30612.8
4709.28,-30611.1
4708.13,-30609.6
4706.83,-30608.1
4705.4,-30606.8
4703.85,-30605.7
4702.19,-30604.7
4700.45,-30603.9
4698.63,-30603.2
4696.75,-30602.7
4694.84,-30602.5
4692.91,-30602.4
4023.62,-30602.4
4021.69,-30602.5
4019.78,-30602.7
4017.91,-30603.2
4016.09,-30603.9
4014.34,-30604.7
4012.69,-30605.7
4011.13,-30606.8
4009.7,-30608.1
4008.41,-30609.6
4007.25,-30611.1
4006.26,-30612.8
4005.44,-30614.5
4004.78,-30616.3
4004.32,-30618.2
4004.03,-30620.1
4003.94,-30622
4003.94,-31291.3
4004.03,-31293.3
4004.32,-31295.2
4004.78,-31297.1
4005.44,-31298.9
4006.26,-31300.6
4007.25,-31302.3
4008.41,-31303.8
4009.7,-31305.3
4011.13,-31306.6
4012.69,-31307.7
4014.34,-31308.7
4016.09,-31309.5
4017.91,-31310.2
4019.78,-31310.6
4021.69,-31310.9
4023.62,-31311
4692.91,-31311
Z" /> 
</g>
<g >
</g>
<g style="fill:#000000; fill-opacity:1.0; 
stroke:#000000; stroke-width:0; stroke-opacity:1; 
stroke-linecap:round; stroke-linejoin:round;">
<circle cx="1129.92" cy="-30956.7" r="354.331" /> 
<circle cx="2129.92" cy="-30956.7" r="354.331" /> 
<circle cx="1129.92" cy="-31956.7" r="354.331" /> 
<circle cx="2129.92" cy="-31956.7" r="354.331" /> 
<circle cx="1129.92" cy="-32956.7" r="354.331" /> 
<circle cx="2129.92" cy="-32956.7" r="354.331" /> 
<circle cx="1129.92" cy="-33956.7" r="354.331" /> 
<path style="fill:#000000; fill-opacity:1.0; 
stroke:#000000; stroke-width:0; stroke-opacity:1; 
stroke-linecap:round; stroke-linejoin:round;fill-rule:evenodd;"
d="M 2466.5,-34310.9
2468.41,-34310.6
2470.28,-34310.2
2472.1,-34309.5
2473.85,-34308.7
2475.5,-34307.7
2477.06,-34306.6
2478.49,-34305.3
2479.78,-34303.8
2480.93,-34302.3
2481.93,-34300.6
2482.75,-34298.9
2483.4,-34297.1
2483.87,-34295.2
2484.16,-34293.3
2484.25,-34291.3
2484.25,-33622
2484.16,-33620.1
2483.87,-33618.2
2483.4,-33616.3
2482.75,-33614.5
2481.93,-33612.8
2480.93,-33611.1
2479.78,-33609.6
2478.49,-33608.1
2477.06,-33606.8
2475.5,-33605.7
2473.85,-33604.7
2472.1,-33603.9
2470.28,-33603.2
2468.41,-33602.7
2466.5,-33602.5
2464.57,-33602.4
1795.28,-33602.4
1793.35,-33602.5
1791.44,-33602.7
1789.56,-33603.2
1787.74,-33603.9
1786,-33604.7
1784.34,-33605.7
1782.79,-33606.8
1781.36,-33608.1
1780.06,-33609.6
1778.91,-33611.1
1777.91,-33612.8
1777.09,-33614.5
1776.44,-33616.3
1775.97,-33618.2
1775.69,-33620.1
1775.59,-33622
1775.59,-34291.3
1775.69,-34293.3
1775.97,-34295.2
1776.44,-34297.1
1777.09,-34298.9
1777.91,-34300.6
1778.91,-34302.3
1780.06,-34303.8
1781.36,-34305.3
1782.79,-34306.6
1784.34,-34307.7
1786,-34308.7
1787.74,-34309.5
1789.56,-34310.2
1791.44,-34310.6
1793.35,-34310.9
1795.28,-34311
2464.57,-34311
Z" /> 
</g>
<g >
</g>
<g style="fill:#000000; fill-opacity:1.0; 
stroke:#000000; stroke-width:0; stroke-opacity:1; 
stroke-linecap:round; stroke-linejoin:round;">
<path style="fill:#000000; fill-opacity:1.0; 
stroke:#000000; stroke-width:0; stroke-opacity:1; 
stroke-linecap:round; stroke-linejoin:round;fill-rule:evenodd;"
d="M 10398.5,-34842
10408.8,-34840.5
10418.9,-34838
10428.7,-34834.5
10438.1,-34830
10447,-34824.7
10455.3,-34818.5
10463,-34811.5
10470,-34803.8
10476.2,-34795.4
10481.6,-34786.5
10486,-34777.1
10489.5,-34767.3
10492.1,-34757.2
10493.6,-34746.9
10494.1,-34736.5
10494.1,-34397.3
10493.6,-34386.9
10492.1,-34376.7
10489.5,-34366.6
10486,-34356.8
10481.6,-34347.4
10476.2,-34338.4
10470,-34330.1
10463,-34322.4
10455.3,-34315.4
10447,-34309.2
10438.1,-34303.9
10428.7,-34299.4
10418.9,-34295.9
10408.8,-34293.4
10398.5,-34291.8
10388.1,-34291.3
9871.74,-34291.3
9861.35,-34291.8
9851.06,-34293.4
9840.97,-34295.9
9831.18,-34299.4
9821.78,-34303.9
9812.86,-34309.2
9804.5,-34315.4
9796.79,-34322.4
9789.81,-34330.1
9783.61,-34338.4
9778.26,-34347.4
9773.82,-34356.8
9770.31,-34366.6
9767.78,-34376.7
9766.26,-34386.9
9765.75,-34397.3
9765.75,-34736.5
9766.26,-34746.9
9767.78,-34757.2
9770.31,-34767.3
9773.82,-34777.1
9778.26,-34786.5
9783.61,-34795.4
9789.81,-34803.8
9796.79,-34811.5
9804.5,-34818.5
9812.86,-34824.7
9821.78,-34830
9831.18,-34834.5
9840.97,-34838
9851.06,-34840.5
9861.35,-34842
9871.74,-34842.5
10388.1,-34842.5
Z" /> 
<path style="fill:#000000; fill-opacity:1.0; 
stroke:#000000; stroke-width:0; stroke-opacity:1; 
stroke-linecap:round; stroke-linejoin:round;fill-rule:evenodd;"
d="M 10398.5,-33621.5
10408.8,-33620
10418.9,-33617.5
10428.7,-33614
10438.1,-33609.5
10447,-33604.2
10455.3,-33598
10463,-33591
10470,-33583.3
10476.2,-33574.9
10481.6,-33566
10486,-33556.6
10489.5,-33546.8
10492.1,-33536.7
10493.6,-33526.4
10494.1,-33516.1
10494.1,-33176.9
10493.6,-33166.5
10492.1,-33156.2
10489.5,-33146.1
10486,-33136.3
10481.6,-33126.9
10476.2,-33118
10470,-33109.6
10463,-33101.9
10455.3,-33094.9
10447,-33088.7
10438.1,-33083.4
10428.7,-33078.9
10418.9,-33075.4
10408.8,-33072.9
10398.5,-33071.4
10388.1,-33070.9
9871.74,-33070.9
9861.35,-33071.4
9851.06,-33072.9
9840.97,-33075.4
9831.18,-33078.9
9821.78,-33083.4
9812.86,-33088.7
9804.5,-33094.9
9796.79,-33101.9
9789.81,-33109.6
9783.61,-33118
9778.26,-33126.9
9773.82,-33136.3
9770.31,-33146.1
9767.78,-33156.2
9766.26,-33166.5
9765.75,-33176.9
9765.75,-33516.1
9766.26,-33526.4
9767.78,-33536.7
9770.31,-33546.8
9773.82,-33556.6
9778.26,-33566
9783.61,-33574.9
9789.81,-33583.3
9796.79,-33591
9804.5,-33598
9812.86,-33604.2
9821.78,-33609.5
9831.18,-33614
9840.97,-33617.5
9851.06,-33620
9861.35,-33621.5
9871.74,-33622
10388.1,-33622
Z" /> 
</g>
<g >
</g>
<g style="fill:#000000; fill-opacity:1.0; 
stroke:#000000; stroke-width:0; stroke-opacity:1; 
stroke-linecap:round; stroke-linejoin:round;">
<path style="fill:#000000; fill-opacity:1.0; 
stroke:#000000; stroke-width:0; stroke-opacity:1; 
stroke-linecap:round; stroke-linejoin:round;fill-rule:evenodd;"
d="M 5949.8,-29830.2
5960.07,-29828.7
5970.15,-29826.2
5979.93,-29822.7
5989.32,-29818.2
5998.23,-29812.9
6006.58,-29806.7
6014.27,-29799.7
6021.25,-29792
6027.44,-29783.7
6032.78,-29774.8
6037.22,-29765.4
6040.72,-29755.6
6043.24,-29745.5
6044.77,-29735.2
6045.28,-29724.9
6045.28,-29188.5
6044.77,-29178.2
6043.24,-29167.9
6040.72,-29157.8
6037.22,-29148
6032.78,-29138.6
6027.44,-29129.7
6021.25,-29121.4
6014.27,-29113.7
6006.58,-29106.7
5998.23,-29100.5
5989.32,-29095.2
5979.93,-29090.7
5970.15,-29087.2
5960.07,-29084.7
5949.8,-29083.2
5939.42,-29082.7
5590.1,-29082.7
5579.73,-29083.2
5569.45,-29084.7
5559.38,-29087.2
5549.6,-29090.7
5540.21,-29095.2
5531.3,-29100.5
5522.95,-29106.7
5515.26,-29113.7
5508.28,-29121.4
5502.09,-29129.7
5496.75,-29138.6
5492.31,-29148
5488.81,-29157.8
5486.29,-29167.9
5484.76,-29178.2
5484.25,-29188.5
5484.25,-29724.9
5484.76,-29735.2
5486.29,-29745.5
5488.81,-29755.6
5492.31,-29765.4
5496.75,-29774.8
5502.09,-29783.7
5508.28,-29792
5515.26,-29799.7
5522.95,-29806.7
5531.3,-29812.9
5540.21,-29818.2
5549.6,-29822.7
5559.38,-29826.2
5569.45,-29828.7
5579.73,-29830.2
5590.1,-29830.7
5939.42,-29830.7
Z" /> 
<path style="fill:#000000; fill-opacity:1.0; 
stroke:#000000; stroke-width:0; stroke-opacity:1; 
stroke-linecap:round; stroke-linejoin:round;fill-rule:evenodd;"
d="M 7180.11,-29830.2
7190.39,-29828.7
7200.47,-29826.2
7210.25,-29822.7
7219.64,-29818.2
7228.55,-29812.9
7236.89,-29806.7
7244.59,-29799.7
7251.56,-29792
7257.75,-29783.7
7263.09,-29774.8
7267.53,-29765.4
7271.03,-29755.6
7273.56,-29745.5
7275.08,-29735.2
7275.59,-29724.9
7275.59,-29188.5
7275.08,-29178.2
7273.56,-29167.9
7271.03,-29157.8
7267.53,-29148
7263.09,-29138.6
7257.75,-29129.7
7251.56,-29121.4
7244.59,-29113.7
7236.89,-29106.7
7228.55,-29100.5
7219.64,-29095.2
7210.25,-29090.7
7200.47,-29087.2
7190.39,-29084.7
7180.11,-29083.2
7169.74,-29082.7
6820.42,-29082.7
6810.04,-29083.2
6799.77,-29084.7
6789.69,-29087.2
6779.91,-29090.7
6770.52,-29095.2
6761.61,-29100.5
6753.27,-29106.7
6745.57,-29113.7
6738.59,-29121.4
6732.41,-29129.7
6727.07,-29138.6
6722.62,-29148
6719.12,-29157.8
6716.6,-29167.9
6715.08,-29178.2
6714.57,-29188.5
6714.57,-29724.9
6715.08,-29735.2
6716.6,-29745.5
6719.12,-29755.6
6722.62,-29765.4
6727.07,-29774.8
6732.41,-29783.7
6738.59,-29792
6745.57,-29799.7
6753.27,-29806.7
6761.61,-29812.9
6770.52,-29818.2
6779.91,-29822.7
6789.69,-29826.2
6799.77,-29828.7
6810.04,-29830.2
6820.42,-29830.7
7169.74,-29830.7
Z" /> 
</g>
<g >
</g>
<g style="fill:#000000; fill-opacity:1.0; 
stroke:#000000; stroke-width:0; stroke-opacity:1; 
stroke-linecap:round; stroke-linejoin:round;">
</g>
<g style="fill:#000000; fill-opacity:1.0; 
stroke:#000000; stroke-width:472.441; stroke-opacity:1; 
stroke-linecap:round; stroke-linejoin:round;">
</g>
<g style="fill:#000000; fill-opacity:0.0; 
stroke:#000000; stroke-width:472.441; stroke-opacity:1; 
stroke-linecap:round; stroke-linejoin:round;">
<path d="M8747 -38221
L8747 -38496
" />
<path d="M5912 -38496
L5912 -38221
" />
</g>
<g style="fill:#000000; fill-opacity:1.0; 
stroke:#000000; stroke-width:0; stroke-opacity:1; 
stroke-linecap:round; stroke-linejoin:round;">
<circle cx="8284.65" cy="-37256.7" r="273.622" /> 
</g>
<g style="fill:#000000; fill-opacity:1.0; 
stroke:#000000; stroke-width:39.3701; stroke-opacity:1; 
stroke-linecap:round; stroke-linejoin:round;">
</g>
<g style="fill:#000000; fill-opacity:1.0; 
stroke:#000000; stroke-width:0; stroke-opacity:1; 
stroke-linecap:round; stroke-linejoin:round;">
<circle cx="6375.2" cy="-37256.7" r="273.622" /> 
</g>
<g style="fill:#000000; fill-opacity:1.0; 
stroke:#000000; stroke-width:39.3701; stroke-opacity:1; 
stroke-linecap:round; stroke-linejoin:round;">
</g>
<g style="fill:#000000; fill-opacity:1.0; 
stroke:#000000; stroke-width:0; stroke-opacity:1; 
stroke-linecap:round; stroke-linejoin:round;">
<path style="fill:#000000; fill-opacity:1.0; 
stroke:#000000; stroke-width:0; stroke-opacity:1; 
stroke-linecap:round; stroke-linejoin:round;fill-rule:evenodd;"
d="M 7922.4,-37522.3
7924.31,-37522.1
7926.19,-37521.6
7928.01,-37520.9
7929.75,-37520.1
7931.41,-37519.1
7932.96,-37518
7934.39,-37516.7
7935.69,-37515.2
7936.84,-37513.7
7937.83,-37512
7938.66,-37510.3
7939.31,-37508.5
7939.78,-37506.6
7940.06,-37504.7
7940.16,-37502.8
7940.16,-37010.6
7940.06,-37008.7
7939.78,-37006.8
7939.31,-37004.9
7938.66,-37003.1
7937.83,-37001.4
7936.84,-36999.7
7935.69,-36998.1
7934.39,-36996.7
7932.96,-36995.4
7931.41,-36994.3
7929.75,-36993.3
7928.01,-36992.4
7926.19,-36991.8
7924.31,-36991.3
7922.4,-36991
7920.47,-36990.9
7762.99,-36990.9
7761.06,-36991
7759.15,-36991.3
7757.28,-36991.8
7755.46,-36992.4
7753.71,-36993.3
7752.06,-36994.3
7750.5,-36995.4
7749.07,-36996.7
7747.78,-36998.1
7746.62,-36999.7
7745.63,-37001.4
7744.81,-37003.1
7744.15,-37004.9
7743.69,-37006.8
7743.4,-37008.7
7743.31,-37010.6
7743.31,-37502.8
7743.4,-37504.7
7743.69,-37506.6
7744.15,-37508.5
7744.81,-37510.3
7745.63,-37512
7746.62,-37513.7
7747.78,-37515.2
7749.07,-37516.7
7750.5,-37518
7752.06,-37519.1
7753.71,-37520.1
7755.46,-37520.9
7757.28,-37521.6
7759.15,-37522.1
7761.06,-37522.3
7762.99,-37522.4
7920.47,-37522.4
Z" /> 
<path style="fill:#000000; fill-opacity:1.0; 
stroke:#000000; stroke-width:0; stroke-opacity:1; 
stroke-linecap:round; stroke-linejoin:round;fill-rule:evenodd;"
d="M 7666.5,-37522.3
7668.41,-37522.1
7670.28,-37521.6
7672.1,-37520.9
7673.85,-37520.1
7675.5,-37519.1
7677.06,-37518
7678.49,-37516.7
7679.78,-37515.2
7680.93,-37513.7
7681.93,-37512
7682.75,-37510.3
7683.4,-37508.5
7683.87,-37506.6
7684.16,-37504.7
7684.25,-37502.8
7684.25,-37010.6
7684.16,-37008.7
7683.87,-37006.8
7683.4,-37004.9
7682.75,-37003.1
7681.93,-37001.4
7680.93,-36999.7
7679.78,-36998.1
7678.49,-36996.7
7677.06,-36995.4
7675.5,-36994.3
7673.85,-36993.3
7672.1,-36992.4
7670.28,-36991.8
7668.41,-36991.3
7666.5,-36991
7664.57,-36990.9
7507.09,-36990.9
7505.16,-36991
7503.25,-36991.3
7501.37,-36991.8
7499.55,-36992.4
7497.81,-36993.3
7496.15,-36994.3
7494.6,-36995.4
7493.17,-36996.7
7491.87,-36998.1
7490.72,-36999.7
7489.73,-37001.4
7488.9,-37003.1
7488.25,-37004.9
7487.78,-37006.8
7487.5,-37008.7
7487.4,-37010.6
7487.4,-37502.8
7487.5,-37504.7
7487.78,-37506.6
7488.25,-37508.5
7488.9,-37510.3
7489.73,-37512
7490.72,-37513.7
7491.87,-37515.2
7493.17,-37516.7
7494.6,-37518
7496.15,-37519.1
7497.81,-37520.1
7499.55,-37520.9
7501.37,-37521.6
7503.25,-37522.1
7505.16,-37522.3
7507.09,-37522.4
7664.57,-37522.4
Z" /> 
<path style="fill:#000000; fill-opacity:1.0; 
stroke:#000000; stroke-width:0; stroke-opacity:1; 
stroke-linecap:round; stroke-linejoin:round;fill-rule:evenodd;"
d="M 7410.59,-37522.3
7412.5,-37522.1
7414.38,-37521.6
7416.19,-37520.9
7417.94,-37520.1
7419.6,-37519.1
7421.15,-37518
7422.58,-37516.7
7423.88,-37515.2
7425.03,-37513.7
7426.02,-37512
7426.85,-37510.3
7427.5,-37508.5
7427.97,-37506.6
7428.25,-37504.7
7428.35,-37502.8
7428.35,-37010.6
7428.25,-37008.7
7427.97,-37006.8
7427.5,-37004.9
7426.85,-37003.1
7426.02,-37001.4
7425.03,-36999.7
7423.88,-36998.1
7422.58,-36996.7
7421.15,-36995.4
7419.6,-36994.3
7417.94,-36993.3
7416.19,-36992.4
7414.38,-36991.8
7412.5,-36991.3
7410.59,-36991
7408.66,-36990.9
7251.18,-36990.9
7249.25,-36991
7247.34,-36991.3
7245.47,-36991.8
7243.65,-36992.4
7241.9,-36993.3
7240.24,-36994.3
7238.69,-36995.4
7237.26,-36996.7
7235.96,-36998.1
7234.81,-36999.7
7233.82,-37001.4
7232.99,-37003.1
7232.34,-37004.9
7231.87,-37006.8
7231.59,-37008.7
7231.5,-37010.6
7231.5,-37502.8
7231.59,-37504.7
7231.87,-37506.6
7232.34,-37508.5
7232.99,-37510.3
7233.82,-37512
7234.81,-37513.7
7235.96,-37515.2
7237.26,-37516.7
7238.69,-37518
7240.24,-37519.1
7241.9,-37520.1
7243.65,-37520.9
7245.47,-37521.6
7247.34,-37522.1
7249.25,-37522.3
7251.18,-37522.4
7408.66,-37522.4
Z" /> 
<path style="fill:#000000; fill-opacity:1.0; 
stroke:#000000; stroke-width:0; stroke-opacity:1; 
stroke-linecap:round; stroke-linejoin:round;fill-rule:evenodd;"
d="M 7154.69,-37522.3
7156.6,-37522.1
7158.47,-37521.6
7160.29,-37520.9
7162.04,-37520.1
7163.69,-37519.1
7165.24,-37518
7166.68,-37516.7
7167.97,-37515.2
7169.12,-37513.7
7170.12,-37512
7170.94,-37510.3
7171.59,-37508.5
7172.06,-37506.6
7172.35,-37504.7
7172.44,-37502.8
7172.44,-37010.6
7172.35,-37008.7
7172.06,-37006.8
7171.59,-37004.9
7170.94,-37003.1
7170.12,-37001.4
7169.12,-36999.7
7167.97,-36998.1
7166.68,-36996.7
7165.24,-36995.4
7163.69,-36994.3
7162.04,-36993.3
7160.29,-36992.4
7158.47,-36991.8
7156.6,-36991.3
7154.69,-36991
7152.76,-36990.9
6995.28,-36990.9
6993.35,-36991
6991.44,-36991.3
6989.56,-36991.8
6987.74,-36992.4
6986,-36993.3
6984.34,-36994.3
6982.79,-36995.4
6981.36,-36996.7
6980.06,-36998.1
6978.91,-36999.7
6977.91,-37001.4
6977.09,-37003.1
6976.44,-37004.9
6975.97,-37006.8
6975.69,-37008.7
6975.59,-37010.6
6975.59,-37502.8
6975.69,-37504.7
6975.97,-37506.6
6976.44,-37508.5
6977.09,-37510.3
6977.91,-37512
6978.91,-37513.7
6980.06,-37515.2
6981.36,-37516.7
6982.79,-37518
6984.34,-37519.1
6986,-37520.1
6987.74,-37520.9
6989.56,-37521.6
6991.44,-37522.1
6993.35,-37522.3
6995.28,-37522.4
7152.76,-37522.4
Z" /> 
<path style="fill:#000000; fill-opacity:1.0; 
stroke:#000000; stroke-width:0; stroke-opacity:1; 
stroke-linecap:round; stroke-linejoin:round;fill-rule:evenodd;"
d="M 6879.09,-37522.3
6881.01,-37522.1
6882.88,-37521.6
6884.7,-37520.9
6886.44,-37520.1
6888.1,-37519.1
6889.65,-37518
6891.08,-37516.7
6892.38,-37515.2
6893.53,-37513.7
6894.53,-37512
6895.35,-37510.3
6896,-37508.5
6896.47,-37506.6
6896.76,-37504.7
6896.85,-37502.8
6896.85,-37010.6
6896.76,-37008.7
6896.47,-37006.8
6896,-37004.9
6895.35,-37003.1
6894.53,-37001.4
6893.53,-36999.7
6892.38,-36998.1
6891.08,-36996.7
6889.65,-36995.4
6888.1,-36994.3
6886.44,-36993.3
6884.7,-36992.4
6882.88,-36991.8
6881.01,-36991.3
6879.09,-36991
6877.17,-36990.9
6719.69,-36990.9
6717.76,-36991
6715.84,-36991.3
6713.97,-36991.8
6712.15,-36992.4
6710.41,-36993.3
6708.75,-36994.3
6707.2,-36995.4
6705.77,-36996.7
6704.47,-36998.1
6703.32,-36999.7
6702.32,-37001.4
6701.5,-37003.1
6700.85,-37004.9
6700.38,-37006.8
6700.09,-37008.7
6700,-37010.6
6700,-37502.8
6700.09,-37504.7
6700.38,-37506.6
6700.85,-37508.5
6701.5,-37510.3
6702.32,-37512
6703.32,-37513.7
6704.47,-37515.2
6705.77,-37516.7
6707.2,-37518
6708.75,-37519.1
6710.41,-37520.1
6712.15,-37520.9
6713.97,-37521.6
6715.84,-37522.1
6717.76,-37522.3
6719.69,-37522.4
6877.17,-37522.4
Z" /> 
<path style="fill:#000000; fill-opacity:1.0; 
stroke:#000000; stroke-width:0; stroke-opacity:1; 
stroke-linecap:round; stroke-linejoin:round;fill-rule:evenodd;"
d="M 7753.72,-38771.4
7773.79,-38768.5
7793.46,-38763.5
7812.56,-38756.7
7830.9,-38748
7848.3,-38737.6
7864.59,-38725.5
7879.62,-38711.9
7893.24,-38696.9
7905.32,-38680.6
7915.75,-38663.2
7924.42,-38644.8
7931.26,-38625.7
7936.19,-38606.1
7939.16,-38586
7940.16,-38565.7
7940.16,-38152.4
7939.16,-38132.1
7936.19,-38112
7931.26,-38092.4
7924.42,-38073.3
7915.75,-38054.9
7905.32,-38037.5
7893.24,-38021.2
7879.62,-38006.2
7864.59,-37992.6
7848.3,-37980.5
7830.9,-37970.1
7812.56,-37961.4
7793.46,-37954.6
7773.79,-37949.6
7753.72,-37946.7
7733.46,-37945.7
6926.38,-37945.7
6906.12,-37946.7
6886.05,-37949.6
6866.38,-37954.6
6847.28,-37961.4
6828.94,-37970.1
6811.55,-37980.5
6795.25,-37992.6
6780.22,-38006.2
6766.6,-38021.2
6754.52,-38037.5
6744.09,-38054.9
6735.42,-38073.3
6728.59,-38092.4
6723.66,-38112
6720.68,-38132.1
6719.69,-38152.4
6719.69,-38565.7
6720.68,-38586
6723.66,-38606.1
6728.59,-38625.7
6735.42,-38644.8
6744.09,-38663.2
6754.52,-38680.6
6766.6,-38696.9
6780.22,-38711.9
6795.25,-38725.5
6811.55,-38737.6
6828.94,-38748
6847.28,-38756.7
6866.38,-38763.5
6886.05,-38768.5
6906.12,-38771.4
6926.38,-38772.4
7733.46,-38772.4
Z" /> 
</g>
<g style="fill:#000000; fill-opacity:1.0; 
stroke:#000000; stroke-width:472.441; stroke-opacity:1; 
stroke-linecap:round; stroke-linejoin:round;">
</g>
<g style="fill:#000000; fill-opacity:0.0; 
stroke:#000000; stroke-width:472.441; stroke-opacity:1; 
stroke-linecap:round; stroke-linejoin:round;">
<path d="M5912 -38496
L5912 -38221
" />
</g>
<g >
</g>
<g style="fill:#000000; fill-opacity:0.0; 
stroke:#000000; stroke-width:472.441; stroke-opacity:1; 
stroke-linecap:round; stroke-linejoin:round;">
</g>
<g style="fill:#000000; fill-opacity:0.0; 
stroke:#000000; stroke-width:0; stroke-opacity:1; 
stroke-linecap:round; stroke-linejoin:round;">
</g>
<g style="fill:#000000; fill-opacity:1.0; 
stroke:#000000; stroke-width:0; stroke-opacity:1; 
stroke-linecap:round; stroke-linejoin:round;">
<path style="fill:#000000; fill-opacity:1.0; 
stroke:#000000; stroke-width:0; stroke-opacity:1; 
stroke-linecap:round; stroke-linejoin:round;fill-rule:evenodd;"
d="M 11398.5,-34842
11408.8,-34840.5
11418.9,-34838
11428.7,-34834.5
11438.1,-34830
11447,-34824.7
11455.3,-34818.5
11463,-34811.5
11470,-34803.8
11476.2,-34795.4
11481.6,-34786.5
11486,-34777.1
11489.5,-34767.3
11492.1,-34757.2
11493.6,-34746.9
11494.1,-34736.5
11494.1,-34397.3
11493.6,-34386.9
11492.1,-34376.7
11489.5,-34366.6
11486,-34356.8
11481.6,-34347.4
11476.2,-34338.4
11470,-34330.1
11463,-34322.4
11455.3,-34315.4
11447,-34309.2
11438.1,-34303.9
11428.7,-34299.4
11418.9,-34295.9
11408.8,-34293.4
11398.5,-34291.8
11388.1,-34291.3
10871.7,-34291.3
10861.4,-34291.8
10851.1,-34293.4
10841,-34295.9
10831.2,-34299.4
10821.8,-34303.9
10812.9,-34309.2
10804.5,-34315.4
10796.8,-34322.4
10789.8,-34330.1
10783.6,-34338.4
10778.3,-34347.4
10773.8,-34356.8
10770.3,-34366.6
10767.8,-34376.7
10766.3,-34386.9
10765.7,-34397.3
10765.7,-34736.5
10766.3,-34746.9
10767.8,-34757.2
10770.3,-34767.3
10773.8,-34777.1
10778.3,-34786.5
10783.6,-34795.4
10789.8,-34803.8
10796.8,-34811.5
10804.5,-34818.5
10812.9,-34824.7
10821.8,-34830
10831.2,-34834.5
10841,-34838
10851.1,-34840.5
10861.4,-34842
10871.7,-34842.5
11388.1,-34842.5
Z" /> 
<path style="fill:#000000; fill-opacity:1.0; 
stroke:#000000; stroke-width:0; stroke-opacity:1; 
stroke-linecap:round; stroke-linejoin:round;fill-rule:evenodd;"
d="M 11398.5,-33621.5
11408.8,-33620
11418.9,-33617.5
11428.7,-33614
11438.1,-33609.5
11447,-33604.2
11455.3,-33598
11463,-33591
11470,-33583.3
11476.2,-33574.9
11481.6,-33566
11486,-33556.6
11489.5,-33546.8
11492.1,-33536.7
11493.6,-33526.4
11494.1,-33516.1
11494.1,-33176.9
11493.6,-33166.5
11492.1,-33156.2
11489.5,-33146.1
11486,-33136.3
11481.6,-33126.9
11476.2,-33118
11470,-33109.6
11463,-33101.9
11455.3,-33094.9
11447,-33088.7
11438.1,-33083.4
11428.7,-33078.9
11418.9,-33075.4
11408.8,-33072.9
11398.5,-33071.4
11388.1,-33070.9
10871.7,-33070.9
10861.4,-33071.4
10851.1,-33072.9
10841,-33075.4
10831.2,-33078.9
10821.8,-33083.4
10812.9,-33088.7
10804.5,-33094.9
10796.8,-33101.9
10789.8,-33109.6
10783.6,-33118
10778.3,-33126.9
10773.8,-33136.3
10770.3,-33146.1
10767.8,-33156.2
10766.3,-33166.5
10765.7,-33176.9
10765.7,-33516.1
10766.3,-33526.4
10767.8,-33536.7
10770.3,-33546.8
10773.8,-33556.6
10778.3,-33566
10783.6,-33574.9
10789.8,-33583.3
10796.8,-33591
10804.5,-33598
10812.9,-33604.2
10821.8,-33609.5
10831.2,-33614
10841,-33617.5
10851.1,-33620
10861.4,-33621.5
10871.7,-33622
11388.1,-33622
Z" /> 
</g>
<g >
</g>
<g style="fill:#000000; fill-opacity:1.0; 
stroke:#000000; stroke-width:0; stroke-opacity:1; 
stroke-linecap:round; stroke-linejoin:round;">
<path style="fill:#000000; fill-opacity:1.0; 
stroke:#000000; stroke-width:0; stroke-opacity:1; 
stroke-linecap:round; stroke-linejoin:round;fill-rule:evenodd;"
d="M 5436.18,-36805.8
5438.09,-36805.5
5439.97,-36805.1
5441.79,-36804.4
5443.53,-36803.6
5445.19,-36802.6
5446.74,-36801.4
5448.17,-36800.1
5449.47,-36798.7
5450.62,-36797.2
5451.61,-36795.5
5452.44,-36793.8
5453.09,-36791.9
5453.56,-36790.1
5453.84,-36788.2
5453.94,-36786.2
5453.94,-35802
5453.84,-35800
5453.56,-35798.1
5453.09,-35796.3
5452.44,-35794.4
5451.61,-35792.7
5450.62,-35791
5449.47,-35789.5
5448.17,-35788
5446.74,-35786.8
5445.19,-35785.6
5443.53,-35784.6
5441.79,-35783.8
5439.97,-35783.1
5438.09,-35782.7
5436.18,-35782.4
5434.25,-35782.3
4725.59,-35782.3
4723.66,-35782.4
4721.75,-35782.7
4719.88,-35783.1
4718.06,-35783.8
4716.31,-35784.6
4714.65,-35785.6
4713.1,-35786.8
4711.67,-35788
4710.37,-35789.5
4709.22,-35791
4708.23,-35792.7
4707.4,-35794.4
4706.75,-35796.3
4706.28,-35798.1
4706,-35800
4705.91,-35802
4705.91,-36786.2
4706,-36788.2
4706.28,-36790.1
4706.75,-36791.9
4707.4,-36793.8
4708.23,-36795.5
4709.22,-36797.2
4710.37,-36798.7
4711.67,-36800.1
4713.1,-36801.4
4714.65,-36802.6
4716.31,-36803.6
4718.06,-36804.4
4719.88,-36805.1
4721.75,-36805.5
4723.66,-36805.8
4725.59,-36805.9
5434.25,-36805.9
Z" /> 
<path style="fill:#000000; fill-opacity:1.0; 
stroke:#000000; stroke-width:0; stroke-opacity:1; 
stroke-linecap:round; stroke-linejoin:round;fill-rule:evenodd;"
d="M 5436.18,-35231
5438.09,-35230.7
5439.97,-35230.3
5441.79,-35229.6
5443.53,-35228.8
5445.19,-35227.8
5446.74,-35226.6
5448.17,-35225.3
5449.47,-35223.9
5450.62,-35222.4
5451.61,-35220.7
5452.44,-35219
5453.09,-35217.1
5453.56,-35215.3
5453.84,-35213.3
5453.94,-35211.4
5453.94,-34227.2
5453.84,-34225.2
5453.56,-34223.3
5453.09,-34221.5
5452.44,-34219.6
5451.61,-34217.9
5450.62,-34216.2
5449.47,-34214.7
5448.17,-34213.2
5446.74,-34211.9
5445.19,-34210.8
5443.53,-34209.8
5441.79,-34209
5439.97,-34208.3
5438.09,-34207.9
5436.18,-34207.6
5434.25,-34207.5
4725.59,-34207.5
4723.66,-34207.6
4721.75,-34207.9
4719.88,-34208.3
4718.06,-34209
4716.31,-34209.8
4714.65,-34210.8
4713.1,-34211.9
4711.67,-34213.2
4710.37,-34214.7
4709.22,-34216.2
4708.23,-34217.9
4707.4,-34219.6
4706.75,-34221.5
4706.28,-34223.3
4706,-34225.2
4705.91,-34227.2
4705.91,-35211.4
4706,-35213.3
4706.28,-35215.3
4706.75,-35217.1
4707.4,-35219
4708.23,-35220.7
4709.22,-35222.4
4710.37,-35223.9
4711.67,-35225.3
4713.1,-35226.6
4714.65,-35227.8
4716.31,-35228.8
4718.06,-35229.6
4719.88,-35230.3
4721.75,-35230.7
4723.66,-35231
4725.59,-35231.1
5434.25,-35231.1
Z" /> 
</g>
<g >
</g>
<g style="fill:#000000; fill-opacity:1.0; 
stroke:#000000; stroke-width:0; stroke-opacity:1; 
stroke-linecap:round; stroke-linejoin:round;">
<path style="fill:#000000; fill-opacity:1.0; 
stroke:#000000; stroke-width:0; stroke-opacity:1; 
stroke-linecap:round; stroke-linejoin:round;fill-rule:evenodd;"
d="M 15680.1,-29830.2
15690.4,-29828.7
15700.5,-29826.2
15710.2,-29822.7
15719.6,-29818.2
15728.5,-29812.9
15736.9,-29806.7
15744.6,-29799.7
15751.6,-29792
15757.8,-29783.7
15763.1,-29774.8
15767.5,-29765.4
15771,-29755.6
15773.6,-29745.5
15775.1,-29735.2
15775.6,-29724.9
15775.6,-29188.5
15775.1,-29178.2
15773.6,-29167.9
15771,-29157.8
15767.5,-29148
15763.1,-29138.6
15757.8,-29129.7
15751.6,-29121.4
15744.6,-29113.7
15736.9,-29106.7
15728.5,-29100.5
15719.6,-29095.2
15710.2,-29090.7
15700.5,-29087.2
15690.4,-29084.7
15680.1,-29083.2
15669.7,-29082.7
15320.4,-29082.7
15310,-29083.2
15299.8,-29084.7
15289.7,-29087.2
15279.9,-29090.7
15270.5,-29095.2
15261.6,-29100.5
15253.3,-29106.7
15245.6,-29113.7
15238.6,-29121.4
15232.4,-29129.7
15227.1,-29138.6
15222.6,-29148
15219.1,-29157.8
15216.6,-29167.9
15215.1,-29178.2
15214.6,-29188.5
15214.6,-29724.9
15215.1,-29735.2
15216.6,-29745.5
15219.1,-29755.6
15222.6,-29765.4
15227.1,-29774.8
15232.4,-29783.7
15238.6,-29792
15245.6,-29799.7
15253.3,-29806.7
15261.6,-29812.9
15270.5,-29818.2
15279.9,-29822.7
15289.7,-29826.2
15299.8,-29828.7
15310,-29830.2
15320.4,-29830.7
15669.7,-29830.7
Z" /> 
<path style="fill:#000000; fill-opacity:1.0; 
stroke:#000000; stroke-width:0; stroke-opacity:1; 
stroke-linecap:round; stroke-linejoin:round;fill-rule:evenodd;"
d="M 14449.8,-29830.2
14460.1,-29828.7
14470.2,-29826.2
14479.9,-29822.7
14489.3,-29818.2
14498.2,-29812.9
14506.6,-29806.7
14514.3,-29799.7
14521.2,-29792
14527.4,-29783.7
14532.8,-29774.8
14537.2,-29765.4
14540.7,-29755.6
14543.2,-29745.5
14544.8,-29735.2
14545.3,-29724.9
14545.3,-29188.5
14544.8,-29178.2
14543.2,-29167.9
14540.7,-29157.8
14537.2,-29148
14532.8,-29138.6
14527.4,-29129.7
14521.2,-29121.4
14514.3,-29113.7
14506.6,-29106.7
14498.2,-29100.5
14489.3,-29095.2
14479.9,-29090.7
14470.2,-29087.2
14460.1,-29084.7
14449.8,-29083.2
14439.4,-29082.7
14090.1,-29082.7
14079.7,-29083.2
14069.5,-29084.7
14059.4,-29087.2
14049.6,-29090.7
14040.2,-29095.2
14031.3,-29100.5
14023,-29106.7
14015.3,-29113.7
14008.3,-29121.4
14002.1,-29129.7
13996.8,-29138.6
13992.3,-29148
13988.8,-29157.8
13986.3,-29167.9
13984.8,-29178.2
13984.3,-29188.5
13984.3,-29724.9
13984.8,-29735.2
13986.3,-29745.5
13988.8,-29755.6
13992.3,-29765.4
13996.8,-29774.8
14002.1,-29783.7
14008.3,-29792
14015.3,-29799.7
14023,-29806.7
14031.3,-29812.9
14040.2,-29818.2
14049.6,-29822.7
14059.4,-29826.2
14069.5,-29828.7
14079.7,-29830.2
14090.1,-29830.7
14439.4,-29830.7
Z" /> 
</g>
<g >
</g>
<g style="fill:#000000; fill-opacity:1.0; 
stroke:#000000; stroke-width:0; stroke-opacity:1; 
stroke-linecap:round; stroke-linejoin:round;">
<path style="fill:#000000; fill-opacity:1.0; 
stroke:#000000; stroke-width:0; stroke-opacity:1; 
stroke-linecap:round; stroke-linejoin:round;fill-rule:evenodd;"
d="M 7906.09,-33670.7
7916.41,-33669.2
7926.53,-33666.7
7936.35,-33663.2
7945.78,-33658.7
7954.73,-33653.3
7963.1,-33647.1
7970.83,-33640.1
7977.84,-33632.4
7984.05,-33624
7989.42,-33615.1
7993.88,-33605.6
7997.39,-33595.8
7999.93,-33585.7
8001.46,-33575.4
8001.97,-33565
8001.97,-33246.1
8001.46,-33235.6
7999.93,-33225.3
7997.39,-33215.2
7993.88,-33205.4
7989.42,-33196
7984.05,-33187
7977.84,-33178.6
7970.83,-33170.9
7963.1,-33163.9
7954.73,-33157.7
7945.78,-33152.3
7936.35,-33147.9
7926.53,-33144.3
7916.41,-33141.8
7906.09,-33140.3
7895.67,-33139.8
7379.92,-33139.8
7369.5,-33140.3
7359.18,-33141.8
7349.06,-33144.3
7339.24,-33147.9
7329.81,-33152.3
7320.86,-33157.7
7312.49,-33163.9
7304.76,-33170.9
7297.75,-33178.6
7291.54,-33187
7286.17,-33196
7281.71,-33205.4
7278.2,-33215.2
7275.66,-33225.3
7274.13,-33235.6
7273.62,-33246.1
7273.62,-33565
7274.13,-33575.4
7275.66,-33585.7
7278.2,-33595.8
7281.71,-33605.6
7286.17,-33615.1
7291.54,-33624
7297.75,-33632.4
7304.76,-33640.1
7312.49,-33647.1
7320.86,-33653.3
7329.81,-33658.7
7339.24,-33663.2
7349.06,-33666.7
7359.18,-33669.2
7369.5,-33670.7
7379.92,-33671.3
7895.67,-33671.3
Z" /> 
<path style="fill:#000000; fill-opacity:1.0; 
stroke:#000000; stroke-width:0; stroke-opacity:1; 
stroke-linecap:round; stroke-linejoin:round;fill-rule:evenodd;"
d="M 7906.09,-34773.1
7916.41,-34771.6
7926.53,-34769
7936.35,-34765.5
7945.78,-34761.1
7954.73,-34755.7
7963.1,-34749.5
7970.83,-34742.5
7977.84,-34734.8
7984.05,-34726.4
7989.42,-34717.4
7993.88,-34708
7997.39,-34698.2
7999.93,-34688.1
8001.46,-34677.7
8001.97,-34667.3
8001.97,-34348.4
8001.46,-34338
7999.93,-34327.7
7997.39,-34317.6
7993.88,-34307.7
7989.42,-34298.3
7984.05,-34289.4
7977.84,-34281
7970.83,-34273.3
7963.1,-34266.3
7954.73,-34260
7945.78,-34254.7
7936.35,-34250.2
7926.53,-34246.7
7916.41,-34244.2
7906.09,-34242.6
7895.67,-34242.1
7379.92,-34242.1
7369.5,-34242.6
7359.18,-34244.2
7349.06,-34246.7
7339.24,-34250.2
7329.81,-34254.7
7320.86,-34260
7312.49,-34266.3
7304.76,-34273.3
7297.75,-34281
7291.54,-34289.4
7286.17,-34298.3
7281.71,-34307.7
7278.2,-34317.6
7275.66,-34327.7
7274.13,-34338
7273.62,-34348.4
7273.62,-34667.3
7274.13,-34677.7
7275.66,-34688.1
7278.2,-34698.2
7281.71,-34708
7286.17,-34717.4
7291.54,-34726.4
7297.75,-34734.8
7304.76,-34742.5
7312.49,-34749.5
7320.86,-34755.7
7329.81,-34761.1
7339.24,-34765.5
7349.06,-34769
7359.18,-34771.6
7369.5,-34773.1
7379.92,-34773.6
7895.67,-34773.6
Z" /> 
</g>
<g >
</g>
<g style="fill:#000000; fill-opacity:1.0; 
stroke:#000000; stroke-width:0; stroke-opacity:1; 
stroke-linecap:round; stroke-linejoin:round;">
<circle cx="17017.7" cy="-30956.7" r="354.331" /> 
<circle cx="16017.7" cy="-31956.7" r="354.331" /> 
<circle cx="16017.7" cy="-30956.7" r="354.331" /> 
<path style="fill:#000000; fill-opacity:1.0; 
stroke:#000000; stroke-width:0; stroke-opacity:1; 
stroke-linecap:round; stroke-linejoin:round;fill-rule:evenodd;"
d="M 15354.3,-31310.9
15356.2,-31310.6
15358.1,-31310.2
15359.9,-31309.5
15361.6,-31308.7
15363.3,-31307.7
15364.9,-31306.6
15366.3,-31305.3
15367.6,-31303.8
15368.7,-31302.3
15369.7,-31300.6
15370.5,-31298.9
15371.2,-31297.1
15371.7,-31295.2
15372,-31293.3
15372,-31291.3
15372,-30622
15372,-30620.1
15371.7,-30618.2
15371.2,-30616.3
15370.5,-30614.5
15369.7,-30612.8
15368.7,-30611.1
15367.6,-30609.6
15366.3,-30608.1
15364.9,-30606.8
15363.3,-30605.7
15361.6,-30604.7
15359.9,-30603.9
15358.1,-30603.2
15356.2,-30602.7
15354.3,-30602.5
15352.4,-30602.4
14683.1,-30602.4
14681.1,-30602.5
14679.2,-30602.7
14677.4,-30603.2
14675.5,-30603.9
14673.8,-30604.7
14672.1,-30605.7
14670.6,-30606.8
14669.2,-30608.1
14667.9,-30609.6
14666.7,-30611.1
14665.7,-30612.8
14664.9,-30614.5
14664.2,-30616.3
14663.8,-30618.2
14663.5,-30620.1
14663.4,-30622
14663.4,-31291.3
14663.5,-31293.3
14663.8,-31295.2
14664.2,-31297.1
14664.9,-31298.9
14665.7,-31300.6
14666.7,-31302.3
14667.9,-31303.8
14669.2,-31305.3
14670.6,-31306.6
14672.1,-31307.7
14673.8,-31308.7
14675.5,-31309.5
14677.4,-31310.2
14679.2,-31310.6
14681.1,-31310.9
14683.1,-31311
15352.4,-31311
Z" /> 
</g>
<g >
</g>
<g style="fill:#000000; fill-opacity:1.0; 
stroke:#000000; stroke-width:0; stroke-opacity:1; 
stroke-linecap:round; stroke-linejoin:round;">
<circle cx="19129.9" cy="-30956.7" r="354.331" /> 
<circle cx="20129.9" cy="-30956.7" r="354.331" /> 
<circle cx="19129.9" cy="-31956.7" r="354.331" /> 
<circle cx="20129.9" cy="-31956.7" r="354.331" /> 
<circle cx="19129.9" cy="-32956.7" r="354.331" /> 
<circle cx="20129.9" cy="-32956.7" r="354.331" /> 
<circle cx="19129.9" cy="-33956.7" r="354.331" /> 
<path style="fill:#000000; fill-opacity:1.0; 
stroke:#000000; stroke-width:0; stroke-opacity:1; 
stroke-linecap:round; stroke-linejoin:round;fill-rule:evenodd;"
d="M 20466.5,-34310.9
20468.4,-34310.6
20470.3,-34310.2
20472.1,-34309.5
20473.8,-34308.7
20475.5,-34307.7
20477.1,-34306.6
20478.5,-34305.3
20479.8,-34303.8
20480.9,-34302.3
20481.9,-34300.6
20482.8,-34298.9
20483.4,-34297.1
20483.9,-34295.2
20484.2,-34293.3
20484.3,-34291.3
20484.3,-33622
20484.2,-33620.1
20483.9,-33618.2
20483.4,-33616.3
20482.8,-33614.5
20481.9,-33612.8
20480.9,-33611.1
20479.8,-33609.6
20478.5,-33608.1
20477.1,-33606.8
20475.5,-33605.7
20473.8,-33604.7
20472.1,-33603.9
20470.3,-33603.2
20468.4,-33602.7
20466.5,-33602.5
20464.6,-33602.4
19795.3,-33602.4
19793.3,-33602.5
19791.4,-33602.7
19789.6,-33603.2
19787.7,-33603.9
19786,-33604.7
19784.3,-33605.7
19782.8,-33606.8
19781.4,-33608.1
19780.1,-33609.6
19778.9,-33611.1
19777.9,-33612.8
19777.1,-33614.5
19776.4,-33616.3
19776,-33618.2
19775.7,-33620.1
19775.6,-33622
19775.6,-34291.3
19775.7,-34293.3
19776,-34295.2
19776.4,-34297.1
19777.1,-34298.9
19777.9,-34300.6
19778.9,-34302.3
19780.1,-34303.8
19781.4,-34305.3
19782.8,-34306.6
19784.3,-34307.7
19786,-34308.7
19787.7,-34309.5
19789.6,-34310.2
19791.4,-34310.6
19793.3,-34310.9
19795.3,-34311
20464.6,-34311
Z" /> 
</g>
<g >
</g>
<g style="fill:#000000; fill-opacity:1.0; 
stroke:#000000; stroke-width:0; stroke-opacity:1; 
stroke-linecap:round; stroke-linejoin:round;">
<path style="fill:#000000; fill-opacity:1.0; 
stroke:#000000; stroke-width:0; stroke-opacity:1; 
stroke-linecap:round; stroke-linejoin:round;fill-rule:evenodd;"
d="M 14900.6,-33621.5
14910.9,-33620
14920.9,-33617.5
14930.7,-33614
14940.1,-33609.5
14949,-33604.2
14957.4,-33598
14965.1,-33591
14972,-33583.3
14978.2,-33575
14983.6,-33566.1
14988,-33556.7
14991.5,-33546.9
14994,-33536.8
14995.6,-33526.6
14996.1,-33516.2
14996.1,-33166.9
14995.6,-33156.5
14994,-33146.2
14991.5,-33136.1
14988,-33126.4
14983.6,-33117
14978.2,-33108.1
14972,-33099.7
14965.1,-33092
14957.4,-33085.1
14949,-33078.9
14940.1,-33073.5
14930.7,-33069.1
14920.9,-33065.6
14910.9,-33063.1
14900.6,-33061.5
14890.2,-33061
14353.9,-33061
14343.5,-33061.5
14333.2,-33063.1
14323.2,-33065.6
14313.4,-33069.1
14304,-33073.5
14295.1,-33078.9
14286.7,-33085.1
14279,-33092
14272.1,-33099.7
14265.9,-33108.1
14260.5,-33117
14256.1,-33126.4
14252.6,-33136.1
14250.1,-33146.2
14248.5,-33156.5
14248,-33166.9
14248,-33516.2
14248.5,-33526.6
14250.1,-33536.8
14252.6,-33546.9
14256.1,-33556.7
14260.5,-33566.1
14265.9,-33575
14272.1,-33583.3
14279,-33591
14286.7,-33598
14295.1,-33604.2
14304,-33609.5
14313.4,-33614
14323.2,-33617.5
14333.2,-33620
14343.5,-33621.5
14353.9,-33622
14890.2,-33622
Z" /> 
<path style="fill:#000000; fill-opacity:1.0; 
stroke:#000000; stroke-width:0; stroke-opacity:1; 
stroke-linecap:round; stroke-linejoin:round;fill-rule:evenodd;"
d="M 14900.6,-34851.9
14910.9,-34850.3
14920.9,-34847.8
14930.7,-34844.3
14940.1,-34839.9
14949,-34834.5
14957.4,-34828.3
14965.1,-34821.4
14972,-34813.7
14978.2,-34805.3
14983.6,-34796.4
14988,-34787
14991.5,-34777.2
14994,-34767.2
14995.6,-34756.9
14996.1,-34746.5
14996.1,-34397.2
14995.6,-34386.8
14994,-34376.5
14991.5,-34366.5
14988,-34356.7
14983.6,-34347.3
14978.2,-34338.4
14972,-34330
14965.1,-34322.3
14957.4,-34315.4
14949,-34309.2
14940.1,-34303.8
14930.7,-34299.4
14920.9,-34295.9
14910.9,-34293.4
14900.6,-34291.8
14890.2,-34291.3
14353.9,-34291.3
14343.5,-34291.8
14333.2,-34293.4
14323.2,-34295.9
14313.4,-34299.4
14304,-34303.8
14295.1,-34309.2
14286.7,-34315.4
14279,-34322.3
14272.1,-34330
14265.9,-34338.4
14260.5,-34347.3
14256.1,-34356.7
14252.6,-34366.5
14250.1,-34376.5
14248.5,-34386.8
14248,-34397.2
14248,-34746.5
14248.5,-34756.9
14250.1,-34767.2
14252.6,-34777.2
14256.1,-34787
14260.5,-34796.4
14265.9,-34805.3
14272.1,-34813.7
14279,-34821.4
14286.7,-34828.3
14295.1,-34834.5
14304,-34839.9
14313.4,-34844.3
14323.2,-34847.8
14333.2,-34850.3
14343.5,-34851.9
14353.9,-34852.4
14890.2,-34852.4
Z" /> 
</g>
<g >
</g>
<g style="fill:#000000; fill-opacity:1.0; 
stroke:#000000; stroke-width:0; stroke-opacity:1; 
stroke-linecap:round; stroke-linejoin:round;">
<path style="fill:#000000; fill-opacity:1.0; 
stroke:#000000; stroke-width:0; stroke-opacity:1; 
stroke-linecap:round; stroke-linejoin:round;fill-rule:evenodd;"
d="M 11521.6,-30129.8
11523.5,-30129.5
11525.4,-30129.1
11527.2,-30128.4
11529,-30127.6
11530.6,-30126.6
11532.2,-30125.5
11533.6,-30124.2
11534.9,-30122.7
11536.1,-30121.2
11537,-30119.5
11537.9,-30117.8
11538.5,-30116
11539,-30114.1
11539.3,-30112.2
11539.4,-30110.2
11539.4,-29322.8
11539.3,-29320.9
11539,-29319
11538.5,-29317.1
11537.9,-29315.3
11537,-29313.6
11536.1,-29311.9
11534.9,-29310.3
11533.6,-29308.9
11532.2,-29307.6
11530.6,-29306.5
11529,-29305.5
11527.2,-29304.6
11525.4,-29304
11523.5,-29303.5
11521.6,-29303.2
11519.7,-29303.1
10929.1,-29303.1
10927.2,-29303.2
10925.3,-29303.5
10923.4,-29304
10921.6,-29304.6
10919.9,-29305.5
10918.2,-29306.5
10916.6,-29307.6
10915.2,-29308.9
10913.9,-29310.3
10912.8,-29311.9
10911.8,-29313.6
10910.9,-29315.3
10910.3,-29317.1
10909.8,-29319
10909.5,-29320.9
10909.4,-29322.8
10909.4,-30110.2
10909.5,-30112.2
10909.8,-30114.1
10910.3,-30116
10910.9,-30117.8
10911.8,-30119.5
10912.8,-30121.2
10913.9,-30122.7
10915.2,-30124.2
10916.6,-30125.5
10918.2,-30126.6
10919.9,-30127.6
10921.6,-30128.4
10923.4,-30129.1
10925.3,-30129.5
10927.2,-30129.8
10929.1,-30129.9
11519.7,-30129.9
Z" /> 
<path style="fill:#000000; fill-opacity:1.0; 
stroke:#000000; stroke-width:0; stroke-opacity:1; 
stroke-linecap:round; stroke-linejoin:round;fill-rule:evenodd;"
d="M 13332.6,-30129.8
13334.5,-30129.5
13336.4,-30129.1
13338.2,-30128.4
13340,-30127.6
13341.6,-30126.6
13343.2,-30125.5
13344.6,-30124.2
13345.9,-30122.7
13347.1,-30121.2
13348.1,-30119.5
13348.9,-30117.8
13349.5,-30116
13350,-30114.1
13350.3,-30112.2
13350.4,-30110.2
13350.4,-29322.8
13350.3,-29320.9
13350,-29319
13349.5,-29317.1
13348.9,-29315.3
13348.1,-29313.6
13347.1,-29311.9
13345.9,-29310.3
13344.6,-29308.9
13343.2,-29307.6
13341.6,-29306.5
13340,-29305.5
13338.2,-29304.6
13336.4,-29304
13334.5,-29303.5
13332.6,-29303.2
13330.7,-29303.1
12740.2,-29303.1
12738.2,-29303.2
12736.3,-29303.5
12734.4,-29304
12732.6,-29304.6
12730.9,-29305.5
12729.2,-29306.5
12727.7,-29307.6
12726.2,-29308.9
12724.9,-29310.3
12723.8,-29311.9
12722.8,-29313.6
12722,-29315.3
12721.3,-29317.1
12720.9,-29319
12720.6,-29320.9
12720.5,-29322.8
12720.5,-30110.2
12720.6,-30112.2
12720.9,-30114.1
12721.3,-30116
12722,-30117.8
12722.8,-30119.5
12723.8,-30121.2
12724.9,-30122.7
12726.2,-30124.2
12727.7,-30125.5
12729.2,-30126.6
12730.9,-30127.6
12732.6,-30128.4
12734.4,-30129.1
12736.3,-30129.5
12738.2,-30129.8
12740.2,-30129.9
13330.7,-30129.9
Z" /> 
<path style="fill:#000000; fill-opacity:1.0; 
stroke:#000000; stroke-width:0; stroke-opacity:1; 
stroke-linecap:round; stroke-linejoin:round;fill-rule:evenodd;"
d="M 12427.1,-30129.8
12429,-30129.5
12430.9,-30129.1
12432.7,-30128.4
12434.5,-30127.6
12436.1,-30126.6
12437.7,-30125.5
12439.1,-30124.2
12440.4,-30122.7
12441.6,-30121.2
12442.6,-30119.5
12443.4,-30117.8
12444,-30116
12444.5,-30114.1
12444.8,-30112.2
12444.9,-30110.2
12444.9,-29322.8
12444.8,-29320.9
12444.5,-29319
12444,-29317.1
12443.4,-29315.3
12442.6,-29313.6
12441.6,-29311.9
12440.4,-29310.3
12439.1,-29308.9
12437.7,-29307.6
12436.1,-29306.5
12434.5,-29305.5
12432.7,-29304.6
12430.9,-29304
12429,-29303.5
12427.1,-29303.2
12425.2,-29303.1
11834.6,-29303.1
11832.7,-29303.2
11830.8,-29303.5
11828.9,-29304
11827.1,-29304.6
11825.4,-29305.5
11823.7,-29306.5
11822.2,-29307.6
11820.7,-29308.9
11819.4,-29310.3
11818.3,-29311.9
11817.3,-29313.6
11816.5,-29315.3
11815.8,-29317.1
11815.3,-29319
11815.1,-29320.9
11815,-29322.8
11815,-30110.2
11815.1,-30112.2
11815.3,-30114.1
11815.8,-30116
11816.5,-30117.8
11817.3,-30119.5
11818.3,-30121.2
11819.4,-30122.7
11820.7,-30124.2
11822.2,-30125.5
11823.7,-30126.6
11825.4,-30127.6
11827.1,-30128.4
11828.9,-30129.1
11830.8,-30129.5
11832.7,-30129.8
11834.6,-30129.9
12425.2,-30129.9
Z" /> 
<path style="fill:#000000; fill-opacity:1.0; 
stroke:#000000; stroke-width:0; stroke-opacity:1; 
stroke-linecap:round; stroke-linejoin:round;fill-rule:evenodd;"
d="M 12879.9,-32610.1
12881.8,-32609.9
12883.7,-32609.4
12885.5,-32608.7
12887.2,-32607.9
12888.9,-32606.9
12890.4,-32605.8
12891.9,-32604.5
12893.2,-32603
12894.3,-32601.5
12895.3,-32599.8
12896.1,-32598.1
12896.8,-32596.3
12897.3,-32594.4
12897.5,-32592.5
12897.6,-32590.6
12897.6,-31803.1
12897.5,-31801.2
12897.3,-31799.3
12896.8,-31797.4
12896.1,-31795.6
12895.3,-31793.9
12894.3,-31792.2
12893.2,-31790.7
12891.9,-31789.2
12890.4,-31787.9
12888.9,-31786.8
12887.2,-31785.8
12885.5,-31785
12883.7,-31784.3
12881.8,-31783.8
12879.9,-31783.6
12878,-31783.5
11381.9,-31783.5
11380,-31783.6
11378,-31783.8
11376.2,-31784.3
11374.4,-31785
11372.6,-31785.8
11371,-31786.8
11369.4,-31787.9
11368,-31789.2
11366.7,-31790.7
11365.5,-31792.2
11364.5,-31793.9
11363.7,-31795.6
11363.1,-31797.4
11362.6,-31799.3
11362.3,-31801.2
11362.2,-31803.1
11362.2,-32590.6
11362.3,-32592.5
11362.6,-32594.4
11363.1,-32596.3
11363.7,-32598.1
11364.5,-32599.8
11365.5,-32601.5
11366.7,-32603
11368,-32604.5
11369.4,-32605.8
11371,-32606.9
11372.6,-32607.9
11374.4,-32608.7
11376.2,-32609.4
11378,-32609.9
11380,-32610.1
11381.9,-32610.2
12878,-32610.2
Z" /> 
</g>
<g >
</g>
<g style="fill:#000000; fill-opacity:1.0; 
stroke:#000000; stroke-width:0; stroke-opacity:1; 
stroke-linecap:round; stroke-linejoin:round;">
<path style="fill:#000000; fill-opacity:1.0; 
stroke:#000000; stroke-width:0; stroke-opacity:1; 
stroke-linecap:round; stroke-linejoin:round;fill-rule:evenodd;"
d="M 8521.61,-30129.8
8523.53,-30129.5
8525.4,-30129.1
8527.22,-30128.4
8528.96,-30127.6
8530.62,-30126.6
8532.17,-30125.5
8533.6,-30124.2
8534.9,-30122.7
8536.05,-30121.2
8537.05,-30119.5
8537.87,-30117.8
8538.52,-30116
8538.99,-30114.1
8539.28,-30112.2
8539.37,-30110.2
8539.37,-29322.8
8539.28,-29320.9
8538.99,-29319
8538.52,-29317.1
8537.87,-29315.3
8537.05,-29313.6
8536.05,-29311.9
8534.9,-29310.3
8533.6,-29308.9
8532.17,-29307.6
8530.62,-29306.5
8528.96,-29305.5
8527.22,-29304.6
8525.4,-29304
8523.53,-29303.5
8521.61,-29303.2
8519.69,-29303.1
7929.13,-29303.1
7927.2,-29303.2
7925.29,-29303.5
7923.42,-29304
7921.6,-29304.6
7919.85,-29305.5
7918.2,-29306.5
7916.65,-29307.6
7915.21,-29308.9
7913.92,-29310.3
7912.77,-29311.9
7911.77,-29313.6
7910.95,-29315.3
7910.3,-29317.1
7909.83,-29319
7909.54,-29320.9
7909.45,-29322.8
7909.45,-30110.2
7909.54,-30112.2
7909.83,-30114.1
7910.3,-30116
7910.95,-30117.8
7911.77,-30119.5
7912.77,-30121.2
7913.92,-30122.7
7915.21,-30124.2
7916.65,-30125.5
7918.2,-30126.6
7919.85,-30127.6
7921.6,-30128.4
7923.42,-30129.1
7925.29,-30129.5
7927.2,-30129.8
7929.13,-30129.9
8519.69,-30129.9
Z" /> 
<path style="fill:#000000; fill-opacity:1.0; 
stroke:#000000; stroke-width:0; stroke-opacity:1; 
stroke-linecap:round; stroke-linejoin:round;fill-rule:evenodd;"
d="M 10332.6,-30129.8
10334.5,-30129.5
10336.4,-30129.1
10338.2,-30128.4
10340,-30127.6
10341.6,-30126.6
10343.2,-30125.5
10344.6,-30124.2
10345.9,-30122.7
10347.1,-30121.2
10348.1,-30119.5
10348.9,-30117.8
10349.5,-30116
10350,-30114.1
10350.3,-30112.2
10350.4,-30110.2
10350.4,-29322.8
10350.3,-29320.9
10350,-29319
10349.5,-29317.1
10348.9,-29315.3
10348.1,-29313.6
10347.1,-29311.9
10345.9,-29310.3
10344.6,-29308.9
10343.2,-29307.6
10341.6,-29306.5
10340,-29305.5
10338.2,-29304.6
10336.4,-29304
10334.5,-29303.5
10332.6,-29303.2
10330.7,-29303.1
9740.16,-29303.1
9738.23,-29303.2
9736.32,-29303.5
9734.44,-29304
9732.62,-29304.6
9730.88,-29305.5
9729.22,-29306.5
9727.67,-29307.6
9726.24,-29308.9
9724.94,-29310.3
9723.79,-29311.9
9722.8,-29313.6
9721.97,-29315.3
9721.32,-29317.1
9720.85,-29319
9720.57,-29320.9
9720.47,-29322.8
9720.47,-30110.2
9720.57,-30112.2
9720.85,-30114.1
9721.32,-30116
9721.97,-30117.8
9722.8,-30119.5
9723.79,-30121.2
9724.94,-30122.7
9726.24,-30124.2
9727.67,-30125.5
9729.22,-30126.6
9730.88,-30127.6
9732.62,-30128.4
9734.44,-30129.1
9736.32,-30129.5
9738.23,-30129.8
9740.16,-30129.9
10330.7,-30129.9
Z" /> 
<path style="fill:#000000; fill-opacity:1.0; 
stroke:#000000; stroke-width:0; stroke-opacity:1; 
stroke-linecap:round; stroke-linejoin:round;fill-rule:evenodd;"
d="M 9427.13,-30129.8
9429.04,-30129.5
9430.91,-30129.1
9432.73,-30128.4
9434.48,-30127.6
9436.13,-30126.6
9437.69,-30125.5
9439.12,-30124.2
9440.41,-30122.7
9441.56,-30121.2
9442.56,-30119.5
9443.38,-30117.8
9444.03,-30116
9444.5,-30114.1
9444.79,-30112.2
9444.88,-30110.2
9444.88,-29322.8
9444.79,-29320.9
9444.5,-29319
9444.03,-29317.1
9443.38,-29315.3
9442.56,-29313.6
9441.56,-29311.9
9440.41,-29310.3
9439.12,-29308.9
9437.69,-29307.6
9436.13,-29306.5
9434.48,-29305.5
9432.73,-29304.6
9430.91,-29304
9429.04,-29303.5
9427.13,-29303.2
9425.2,-29303.1
8834.65,-29303.1
8832.72,-29303.2
8830.81,-29303.5
8828.93,-29304
8827.11,-29304.6
8825.37,-29305.5
8823.71,-29306.5
8822.16,-29307.6
8820.73,-29308.9
8819.43,-29310.3
8818.28,-29311.9
8817.29,-29313.6
8816.46,-29315.3
8815.81,-29317.1
8815.34,-29319
8815.06,-29320.9
8814.96,-29322.8
8814.96,-30110.2
8815.06,-30112.2
8815.34,-30114.1
8815.81,-30116
8816.46,-30117.8
8817.29,-30119.5
8818.28,-30121.2
8819.43,-30122.7
8820.73,-30124.2
8822.16,-30125.5
8823.71,-30126.6
8825.37,-30127.6
8827.11,-30128.4
8828.93,-30129.1
8830.81,-30129.5
8832.72,-30129.8
8834.65,-30129.9
9425.2,-30129.9
Z" /> 
<path style="fill:#000000; fill-opacity:1.0; 
stroke:#000000; stroke-width:0; stroke-opacity:1; 
stroke-linecap:round; stroke-linejoin:round;fill-rule:evenodd;"
d="M 9879.88,-32610.1
9881.79,-32609.9
9883.67,-32609.4
9885.49,-32608.7
9887.23,-32607.9
9888.89,-32606.9
9890.44,-32605.8
9891.87,-32604.5
9893.17,-32603
9894.32,-32601.5
9895.31,-32599.8
9896.14,-32598.1
9896.79,-32596.3
9897.26,-32594.4
9897.54,-32592.5
9897.64,-32590.6
9897.64,-31803.1
9897.54,-31801.2
9897.26,-31799.3
9896.79,-31797.4
9896.14,-31795.6
9895.31,-31793.9
9894.32,-31792.2
9893.17,-31790.7
9891.87,-31789.2
9890.44,-31787.9
9888.89,-31786.8
9887.23,-31785.8
9885.49,-31785
9883.67,-31784.3
9881.79,-31783.8
9879.88,-31783.6
9877.95,-31783.5
8381.89,-31783.5
8379.96,-31783.6
8378.05,-31783.8
8376.18,-31784.3
8374.36,-31785
8372.61,-31785.8
8370.95,-31786.8
8369.4,-31787.9
8367.97,-31789.2
8366.67,-31790.7
8365.52,-31792.2
8364.53,-31793.9
8363.7,-31795.6
8363.05,-31797.4
8362.58,-31799.3
8362.3,-31801.2
8362.2,-31803.1
8362.2,-32590.6
8362.3,-32592.5
8362.58,-32594.4
8363.05,-32596.3
8363.7,-32598.1
8364.53,-32599.8
8365.52,-32601.5
8366.67,-32603
8367.97,-32604.5
8369.4,-32605.8
8370.95,-32606.9
8372.61,-32607.9
8374.36,-32608.7
8376.18,-32609.4
8378.05,-32609.9
8379.96,-32610.1
8381.89,-32610.2
9877.95,-32610.2
Z" /> 
</g>
<g >
</g>
<g style="fill:#000000; fill-opacity:1.0; 
stroke:#000000; stroke-width:0; stroke-opacity:1; 
stroke-linecap:round; stroke-linejoin:round;">
<circle cx="3149.61" cy="-1574.8" r="649.606" /> 
</g>
<g style="fill:#000000; fill-opacity:1.0; 
stroke:#000000; stroke-width:39.3701; stroke-opacity:1; 
stroke-linecap:round; stroke-linejoin:round;">
</g>
<g >
</g>
<g style="fill:#000000; fill-opacity:1.0; 
stroke:#000000; stroke-width:39.3701; stroke-opacity:1; 
stroke-linecap:round; stroke-linejoin:round;">
</g>
<g style="fill:#000000; fill-opacity:1.0; 
stroke:#000000; stroke-width:0; stroke-opacity:1; 
stroke-linecap:round; stroke-linejoin:round;">
<circle cx="18110.2" cy="-1574.8" r="649.606" /> 
</g>
<g style="fill:#000000; fill-opacity:1.0; 
stroke:#000000; stroke-width:39.3701; stroke-opacity:1; 
stroke-linecap:round; stroke-linejoin:round;">
</g>
<g >
</g>
<g >
</g>
<g >
</g>
</g> 
</svg>
