<?xml version="1.0" standalone="no"?>
 <!DOCTYPE svg PUBLIC "-//W3C//DTD SVG 1.1//EN" 
 "http://www.w3.org/Graphics/SVG/1.1/DTD/svg11.dtd"> 
<svg
  xmlns:svg="http://www.w3.org/2000/svg"
  xmlns="http://www.w3.org/2000/svg"
  xmlns:xlink="http://www.w3.org/1999/xlink"
  version="1.1"
  width="29.700220cm" height="21.000720cm" viewBox="0 0 116930 82680">
<title>SVG Picture created as MicroBBPS-B_Cu.svg date 2021/03/20 13:56:42 </title>
  <desc>Picture generated by PCBNEW </desc>
<g style="fill:#000000; fill-opacity:1;stroke:#000000; stroke-opacity:1;
stroke-linecap:round; stroke-linejoin:round;"
 transform="translate(0 0) scale(1 1)">
</g>
<g style="fill:#000000; fill-opacity:0.0; 
stroke:#000000; stroke-width:-0.000393701; stroke-opacity:1; 
stroke-linecap:round; stroke-linejoin:round;">
</g>
<g style="fill:#000000; fill-opacity:0.0; 
stroke:#000000; stroke-width:78.7402; stroke-opacity:1; 
stroke-linecap:round; stroke-linejoin:round;">
<path d="M393 0
L0 0
" />
<path d="M0 0
L0 393
" />
</g>
<g style="fill:#000000; fill-opacity:0.0; 
stroke:#000000; stroke-width:19.685; stroke-opacity:1; 
stroke-linecap:round; stroke-linejoin:round;">
<path d="M20866 9448
L21259 9055
" />
<path d="M18503 9448
L20866 9448
" />
<path d="M18110 9055
L18503 9448
" />
<path d="M3149 9055
L18110 9055
" />
<path d="M2755 9448
L3149 9055
" />
<path d="M393 9448
L2755 9448
" />
<path d="M0 9055
L393 9448
" />
<path d="M4724 787
L3937 0
" />
<path d="M0 787
L787 0
" />
<path d="M0 9055
L0 787
" />
<path d="M21259 1574
L21259 9055
" />
<path d="M20472 787
L21259 1574
" />
<path d="M4724 787
L20472 787
" />
<path d="M787 0
L3937 0
" />
<g >
</g>
<g style="fill:#000000; fill-opacity:0.0; 
stroke:#000000; stroke-width:0; stroke-opacity:1; 
stroke-linecap:round; stroke-linejoin:round;">
</g>
<g style="fill:#000000; fill-opacity:1.0; 
stroke:#000000; stroke-width:0; stroke-opacity:1; 
stroke-linecap:round; stroke-linejoin:round;">
<path style="fill:#000000; fill-opacity:1.0; 
stroke:#000000; stroke-width:0; stroke-opacity:1; 
stroke-linecap:round; stroke-linejoin:round;fill-rule:evenodd;"
d="M 18795.3,8208.66
18795.3,7539.37
19464.6,7539.37
19464.6,8208.66
Z" /> 
<circle cx="20129.9" cy="7874.02" r="334.646" /> 
<circle cx="19129.9" cy="6874.02" r="334.646" /> 
<circle cx="20129.9" cy="6874.02" r="334.646" /> 
<circle cx="19129.9" cy="5874.02" r="334.646" /> 
<circle cx="20129.9" cy="5874.02" r="334.646" /> 
</g>
<g >
</g>
<g style="fill:#000000; fill-opacity:1.0; 
stroke:#000000; stroke-width:0; stroke-opacity:1; 
stroke-linecap:round; stroke-linejoin:round;">
<path style="fill:#000000; fill-opacity:1.0; 
stroke:#000000; stroke-width:0; stroke-opacity:1; 
stroke-linecap:round; stroke-linejoin:round;fill-rule:evenodd;"
d="M 795.276,8208.66
795.276,7539.37
1464.57,7539.37
1464.57,8208.66
Z" /> 
<circle cx="2129.92" cy="7874.02" r="334.646" /> 
<circle cx="1129.92" cy="6874.02" r="334.646" /> 
<circle cx="2129.92" cy="6874.02" r="334.646" /> 
<circle cx="1129.92" cy="5874.02" r="334.646" /> 
<circle cx="2129.92" cy="5874.02" r="334.646" /> 
</g>
<g >
</g>
<g >
</g>
<g >
</g>
<g >
</g>
<g >
</g>
<g style="fill:#000000; fill-opacity:1.0; 
stroke:#000000; stroke-width:0; stroke-opacity:1; 
stroke-linecap:round; stroke-linejoin:round;">
<path style="fill:#000000; fill-opacity:1.0; 
stroke:#000000; stroke-width:0; stroke-opacity:1; 
stroke-linecap:round; stroke-linejoin:round;fill-rule:evenodd;"
d="M 3996.06,6043.31
3996.06,5374.02
4665.35,5374.02
4665.35,6043.31
Z" /> 
<circle cx="4330.71" cy="6708.66" r="334.646" /> 
<circle cx="5330.71" cy="6708.66" r="334.646" /> 
<circle cx="4330.71" cy="7708.66" r="334.646" /> 
</g>
<g >
</g>
<g style="fill:#000000; fill-opacity:1.0; 
stroke:#000000; stroke-width:0; stroke-opacity:1; 
stroke-linecap:round; stroke-linejoin:round;">
<path style="fill:#000000; fill-opacity:1.0; 
stroke:#000000; stroke-width:0; stroke-opacity:1; 
stroke-linecap:round; stroke-linejoin:round;fill-rule:evenodd;"
d="M 17263.8,7342.52
17263.8,8011.81
16594.5,8011.81
16594.5,7342.52
Z" /> 
<circle cx="16929.1" cy="6677.17" r="334.646" /> 
<circle cx="15929.1" cy="6677.17" r="334.646" /> 
<circle cx="16929.1" cy="5677.17" r="334.646" /> 
</g>
<g >
</g>
<g style="fill:#000000; fill-opacity:1.0; 
stroke:#000000; stroke-width:0; stroke-opacity:1; 
stroke-linecap:round; stroke-linejoin:round;">
<circle cx="3112.2" cy="3149.61" r="531.496" /> 
</g>
<g style="fill:#000000; fill-opacity:1.0; 
stroke:#000000; stroke-width:39.3701; stroke-opacity:1; 
stroke-linecap:round; stroke-linejoin:round;">
</g>
<g style="fill:#000000; fill-opacity:1.0; 
stroke:#000000; stroke-width:0; stroke-opacity:1; 
stroke-linecap:round; stroke-linejoin:round;">
<circle cx="1612.2" cy="3149.61" r="531.496" /> 
</g>
<g style="fill:#000000; fill-opacity:1.0; 
stroke:#000000; stroke-width:39.3701; stroke-opacity:1; 
stroke-linecap:round; stroke-linejoin:round;">
</g>
<g >
</g>
<g style="fill:#000000; fill-opacity:1.0; 
stroke:#000000; stroke-width:39.3701; stroke-opacity:1; 
stroke-linecap:round; stroke-linejoin:round;">
</g>
<g style="fill:#000000; fill-opacity:1.0; 
stroke:#000000; stroke-width:433.071; stroke-opacity:1; 
stroke-linecap:round; stroke-linejoin:round;">
</g>
<g style="fill:#000000; fill-opacity:0.0; 
stroke:#000000; stroke-width:433.071; stroke-opacity:1; 
stroke-linecap:round; stroke-linejoin:round;">
<path d="M7047 1673
L7047 1948
" />
</g>
<g style="fill:#000000; fill-opacity:1.0; 
stroke:#000000; stroke-width:0; stroke-opacity:1; 
stroke-linecap:round; stroke-linejoin:round;">
<circle cx="7509.84" cy="2913.39" r="253.937" /> 
</g>
<g style="fill:#000000; fill-opacity:1.0; 
stroke:#000000; stroke-width:39.3701; stroke-opacity:1; 
stroke-linecap:round; stroke-linejoin:round;">
</g>
<g style="fill:#000000; fill-opacity:1.0; 
stroke:#000000; stroke-width:0; stroke-opacity:1; 
stroke-linecap:round; stroke-linejoin:round;">
<circle cx="9419.29" cy="2913.39" r="253.937" /> 
</g>
<g style="fill:#000000; fill-opacity:1.0; 
stroke:#000000; stroke-width:39.3701; stroke-opacity:1; 
stroke-linecap:round; stroke-linejoin:round;">
</g>
<g style="fill:#000000; fill-opacity:1.0; 
stroke:#000000; stroke-width:433.071; stroke-opacity:1; 
stroke-linecap:round; stroke-linejoin:round;">
</g>
<g style="fill:#000000; fill-opacity:0.0; 
stroke:#000000; stroke-width:433.071; stroke-opacity:1; 
stroke-linecap:round; stroke-linejoin:round;">
<path d="M7047 1673
L7047 1948
" />
<path d="M9881 1948
L9881 1673
" />
</g>
<g >
</g>
<g >
</g>
<g >
</g>
<g >
</g>
<g >
</g>
<g >
</g>
<g >
</g>
<g >
</g>
<g >
</g>
<g >
</g>
<g >
</g>
<g >
</g>
<g style="fill:#000000; fill-opacity:0.0; 
stroke:#000000; stroke-width:433.071; stroke-opacity:1; 
stroke-linecap:round; stroke-linejoin:round;">
</g>
<g style="fill:#000000; fill-opacity:1.0; 
stroke:#000000; stroke-width:0; stroke-opacity:1; 
stroke-linecap:round; stroke-linejoin:round;">
<circle cx="6102.36" cy="7283.46" r="157.48" /> 
</g>
<g style="fill:#000000; fill-opacity:1.0; 
stroke:#000000; stroke-width:39.3701; stroke-opacity:1; 
stroke-linecap:round; stroke-linejoin:round;">
</g>
<g style="fill:#000000; fill-opacity:1.0; 
stroke:#000000; stroke-width:0; stroke-opacity:1; 
stroke-linecap:round; stroke-linejoin:round;">
<circle cx="10629.9" cy="6889.76" r="157.48" /> 
</g>
<g style="fill:#000000; fill-opacity:1.0; 
stroke:#000000; stroke-width:39.3701; stroke-opacity:1; 
stroke-linecap:round; stroke-linejoin:round;">
</g>
<g style="fill:#000000; fill-opacity:1.0; 
stroke:#000000; stroke-width:0; stroke-opacity:1; 
stroke-linecap:round; stroke-linejoin:round;">
<circle cx="14763.8" cy="7283.46" r="157.48" /> 
</g>
<g style="fill:#000000; fill-opacity:1.0; 
stroke:#000000; stroke-width:39.3701; stroke-opacity:1; 
stroke-linecap:round; stroke-linejoin:round;">
</g>
<g style="fill:#000000; fill-opacity:1.0; 
stroke:#000000; stroke-width:0; stroke-opacity:1; 
stroke-linecap:round; stroke-linejoin:round;">
<circle cx="15354.3" cy="5314.96" r="157.48" /> 
</g>
<g style="fill:#000000; fill-opacity:1.0; 
stroke:#000000; stroke-width:39.3701; stroke-opacity:1; 
stroke-linecap:round; stroke-linejoin:round;">
</g>
<g style="fill:#000000; fill-opacity:1.0; 
stroke:#000000; stroke-width:0; stroke-opacity:1; 
stroke-linecap:round; stroke-linejoin:round;">
<circle cx="6299.21" cy="3740.16" r="157.48" /> 
</g>
<g style="fill:#000000; fill-opacity:1.0; 
stroke:#000000; stroke-width:39.3701; stroke-opacity:1; 
stroke-linecap:round; stroke-linejoin:round;">
</g>
<g style="fill:#000000; fill-opacity:1.0; 
stroke:#000000; stroke-width:0; stroke-opacity:1; 
stroke-linecap:round; stroke-linejoin:round;">
<circle cx="13401.6" cy="6677.17" r="157.48" /> 
</g>
<g style="fill:#000000; fill-opacity:1.0; 
stroke:#000000; stroke-width:39.3701; stroke-opacity:1; 
stroke-linecap:round; stroke-linejoin:round;">
</g>
<g style="fill:#000000; fill-opacity:1.0; 
stroke:#000000; stroke-width:0; stroke-opacity:1; 
stroke-linecap:round; stroke-linejoin:round;">
<circle cx="9562.99" cy="6708.66" r="157.48" /> 
</g>
<g style="fill:#000000; fill-opacity:1.0; 
stroke:#000000; stroke-width:39.3701; stroke-opacity:1; 
stroke-linecap:round; stroke-linejoin:round;">
</g>
<g style="fill:#000000; fill-opacity:1.0; 
stroke:#000000; stroke-width:0; stroke-opacity:1; 
stroke-linecap:round; stroke-linejoin:round;">
<circle cx="9055.12" cy="3543.31" r="157.48" /> 
</g>
<g style="fill:#000000; fill-opacity:1.0; 
stroke:#000000; stroke-width:39.3701; stroke-opacity:1; 
stroke-linecap:round; stroke-linejoin:round;">
</g>
<g style="fill:#000000; fill-opacity:1.0; 
stroke:#000000; stroke-width:0; stroke-opacity:1; 
stroke-linecap:round; stroke-linejoin:round;">
<circle cx="12204.7" cy="6889.76" r="157.48" /> 
</g>
<g style="fill:#000000; fill-opacity:1.0; 
stroke:#000000; stroke-width:39.3701; stroke-opacity:1; 
stroke-linecap:round; stroke-linejoin:round;">
</g>
<g style="fill:#000000; fill-opacity:1.0; 
stroke:#000000; stroke-width:0; stroke-opacity:1; 
stroke-linecap:round; stroke-linejoin:round;">
<circle cx="9055.12" cy="7092.52" r="157.48" /> 
</g>
<g style="fill:#000000; fill-opacity:1.0; 
stroke:#000000; stroke-width:39.3701; stroke-opacity:1; 
stroke-linecap:round; stroke-linejoin:round;">
</g>
<g >
</g>
<g style="fill:#000000; fill-opacity:1.0; 
stroke:#000000; stroke-width:39.3701; stroke-opacity:1; 
stroke-linecap:round; stroke-linejoin:round;">
</g>
<g style="fill:#000000; fill-opacity:1.0; 
stroke:#000000; stroke-width:78.7402; stroke-opacity:1; 
stroke-linecap:round; stroke-linejoin:round;">
</g>
<g style="fill:#000000; fill-opacity:0.0; 
stroke:#000000; stroke-width:78.7402; stroke-opacity:1; 
stroke-linecap:round; stroke-linejoin:round;">
<path d="M0 0
L0 393
" />
<path d="M0 393
L393 0
" />
<path d="M393 0
L0 0
" />
</g>
<g style="fill:#000000; fill-opacity:0.0; 
stroke:#000000; stroke-width:295.276; stroke-opacity:1; 
stroke-linecap:round; stroke-linejoin:round;">
<path d="M6299 3740
L6299 5807
" />
<path d="M5397 6708
L5330 6708
" />
<path d="M6299 5807
L5397 6708
" />
<path d="M13401 6677
L12795 7283
" />
<path d="M10137 7283
L9562 6708
" />
<path d="M12795 7283
L10137 7283
" />
</g>
<g style="fill:#000000; fill-opacity:0.0; 
stroke:#000000; stroke-width:196.85; stroke-opacity:1; 
stroke-linecap:round; stroke-linejoin:round;">
<path d="M9055 3543
L11188 5677
" />
<path d="M11188 5677
L12236 5677
" />
<path d="M12236 5677
L16929 5677
" />
<path d="M12204 5708
L12204 6889
" />
<path d="M12236 5677
L12204 5708
" />
</g>
<g style="fill:#000000; fill-opacity:0.0; 
stroke:#000000; stroke-width:295.276; stroke-opacity:1; 
stroke-linecap:round; stroke-linejoin:round;">
<path d="M16897 7708
L16929 7677
" />
<path d="M8988 7708
L16897 7708
" />
<path d="M4330 7708
L8988 7708
" />
<path d="M9055 7641
L8988 7708
" />
<path d="M9055 7092
L9055 7641
" />
</g>
<g >
</g>
<g style="fill:#000000; fill-opacity:0.0; 
stroke:#000000; stroke-width:295.276; stroke-opacity:1; 
stroke-linecap:round; stroke-linejoin:round;">
<g >
</g>
<g style="fill:#000000; fill-opacity:1.0; 
stroke:#000000; stroke-width:100; stroke-opacity:1; 
stroke-linecap:round; stroke-linejoin:round;">
<path style="fill:#000000; fill-opacity:1.0; 
stroke:#000000; stroke-width:100; stroke-opacity:1; 
stroke-linecap:round; stroke-linejoin:round;fill-rule:evenodd;"
d="M 4607,893.816
4611.96,899.855
4636.06,919.633
4663.55,934.33
4693.38,943.379
4716.64,945.669
4716.64,945.669
4724.41,946.435
4732.18,945.669
20406.9,945.669
21101.6,1640.36
21101.6,8989.56
20800.6,9290.55
18569.5,9290.55
18227.6,8948.7
18222.7,8942.66
18198.6,8922.89
18171.1,8908.19
18141.3,8899.14
18118,8896.85
18118,8896.85
18110.2,8896.09
18102.5,8896.85
3157.38,8896.85
3149.61,8896.09
3141.83,8896.85
3141.83,8896.85
3118.58,8899.14
3088.75,8908.19
3061.25,8922.89
3037.15,8942.66
3032.2,8948.7
2690.35,9290.55
459.257,9290.55
158.268,8989.56
158.268,8208.66
544.066,8208.66
548.893,8257.67
563.188,8304.8
586.403,8348.23
617.644,8386.29
655.711,8417.53
699.142,8440.75
746.267,8455.04
795.276,8459.87
1017.42,8458.66
1079.92,8396.16
1079.92,7924.02
607.776,7924.02
545.276,7986.52
544.066,8208.66
158.268,8208.66
158.268,7539.37
544.066,7539.37
545.276,7761.52
607.776,7824.02
1079.92,7824.02
1079.92,6924.02
610.175,6924.02
562.411,7014.52
579.99,7072.48
629.275,7175.95
697.8,7267.82
730.892,7297.65
699.142,7307.28
655.711,7330.5
617.644,7361.74
586.403,7399.81
563.188,7443.24
548.893,7490.36
544.066,7539.37
158.268,7539.37
158.268,6014.52
562.411,6014.52
579.99,6072.48
629.275,6175.95
697.8,6267.82
782.931,6344.56
832.384,6374.02
782.931,6403.47
697.8,6480.21
629.275,6572.08
579.99,6675.55
562.411,6733.51
610.175,6824.02
1079.92,6824.02
1079.92,5924.02
610.175,5924.02
562.411,6014.52
158.268,6014.52
158.268,5733.51
562.411,5733.51
610.175,5824.02
1079.92,5824.02
1079.92,5354.01
1179.92,5354.01
1179.92,5824.02
1187.8,5824.02
1187.8,5924.02
1179.92,5924.02
1179.92,6824.02
1187.8,6824.02
1187.8,6924.02
1179.92,6924.02
1179.92,7824.02
1187.8,7824.02
1187.8,7924.02
1179.92,7924.02
1179.92,8396.16
1242.42,8458.66
1464.57,8459.87
1513.58,8455.04
1560.7,8440.75
1604.13,8417.53
1642.2,8386.29
1673.44,8348.23
1696.65,8304.8
1710.95,8257.67
1715.78,8208.66
1715.31,8123.01
1754.7,8181.96
1821.98,8249.24
1901.1,8302.11
1989.01,8338.52
2082.34,8357.09
2177.5,8357.09
2270.83,8338.52
2358.74,8302.11
2437.86,8249.24
2478.44,8208.66
18544.1,8208.66
18548.9,8257.67
18563.2,8304.8
18586.4,8348.23
18617.6,8386.29
18655.7,8417.53
18699.1,8440.75
18746.3,8455.04
18795.3,8459.87
19017.4,8458.66
19079.9,8396.16
19079.9,7924.02
18607.8,7924.02
18545.3,7986.52
18544.1,8208.66
2478.44,8208.66
2505.15,8181.96
2558.01,8102.84
2594.43,8014.92
2612.99,7921.59
2612.99,7826.44
2594.43,7733.11
2564.59,7661.08
3847.64,7661.08
3847.64,7756.24
3866.2,7849.57
3902.62,7937.48
3955.48,8016.6
4022.77,8083.89
4101.89,8136.75
4189.8,8173.17
4283.13,8191.73
4378.29,8191.73
4471.62,8173.17
4559.53,8136.75
4638.65,8083.89
4705.93,8016.6
4713.87,8004.72
8973.65,8004.72
8988.19,8006.16
9002.73,8004.72
16445.3,8004.72
16445.3,8011.81
16448.2,8040.91
16456.7,8068.89
16470.5,8094.67
16489,8117.27
16511.6,8135.82
16537.4,8149.6
16565.4,8158.09
16594.5,8160.95
17263.8,8160.95
17292.9,8158.09
17320.9,8149.6
17346.6,8135.82
17369.2,8117.27
17387.8,8094.67
17401.6,8068.89
17410.1,8040.91
17412.9,8011.81
17412.9,7539.37
18544.1,7539.37
18545.3,7761.52
18607.8,7824.02
19079.9,7824.02
19079.9,6924.02
18610.2,6924.02
18562.4,7014.52
18580,7072.48
18629.3,7175.95
18697.8,7267.82
18730.9,7297.65
18699.1,7307.28
18655.7,7330.5
18617.6,7361.74
18586.4,7399.81
18563.2,7443.24
18548.9,7490.36
18544.1,7539.37
17412.9,7539.37
17412.9,7342.52
17410.1,7313.42
17401.6,7285.44
17387.8,7259.66
17369.2,7237.06
17346.6,7218.51
17320.9,7204.73
17292.9,7196.24
17263.8,7193.38
16594.5,7193.38
16565.4,7196.24
16537.4,7204.73
16511.6,7218.51
16489,7237.06
16470.5,7259.66
16456.7,7285.44
16448.2,7313.42
16445.3,7342.52
16445.3,7412.6
13084.8,7412.6
13554.6,6942.81
13596.6,6914.78
13639.2,6872.17
13672.7,6822.07
13695.7,6766.39
13707.5,6707.29
13707.5,6647.04
13704,6629.59
15446.1,6629.59
15446.1,6724.74
15464.6,6818.07
15501,6905.99
15553.9,6985.11
15621.2,7052.39
15700.3,7105.26
15788.2,7141.67
15881.6,7160.24
15976.7,7160.24
16070,7141.67
16158,7105.26
16237.1,7052.39
16304.4,6985.11
16357.2,6905.99
16393.6,6818.07
16412.2,6724.74
16412.2,6629.59
16446.1,6629.59
16446.1,6724.74
16464.6,6818.07
16501,6905.99
16553.9,6985.11
16621.2,7052.39
16700.3,7105.26
16788.2,7141.67
16881.6,7160.24
16976.7,7160.24
17070,7141.67
17158,7105.26
17237.1,7052.39
17304.4,6985.11
17357.2,6905.99
17393.6,6818.07
17412.2,6724.74
17412.2,6629.59
17393.6,6536.26
17357.2,6448.35
17304.4,6369.23
17237.1,6301.94
17158,6249.07
17070,6212.66
16976.7,6194.09
16881.6,6194.09
16788.2,6212.66
16700.3,6249.07
16621.2,6301.94
16553.9,6369.23
16501,6448.35
16464.6,6536.26
16446.1,6629.59
16412.2,6629.59
16393.6,6536.26
16357.2,6448.35
16304.4,6369.23
16237.1,6301.94
16158,6249.07
16070,6212.66
15976.7,6194.09
15881.6,6194.09
15788.2,6212.66
15700.3,6249.07
15621.2,6301.94
15553.9,6369.23
15501,6448.35
15464.6,6536.26
15446.1,6629.59
13704,6629.59
13695.7,6587.94
13672.7,6532.26
13639.2,6482.16
13596.6,6439.55
13546.5,6406.08
13490.8,6383.02
13431.7,6371.26
13371.4,6371.26
13312.3,6383.02
13256.7,6406.08
13206.6,6439.55
13164,6482.16
13135.9,6524.11
12672.6,6987.4
12495.4,6987.4
12498.9,6978.99
12510.6,6919.89
12510.6,6859.63
12498.9,6800.53
12475.8,6744.86
12451.6,6708.59
12451.6,5924.02
16513.1,5924.02
16553.9,5985.11
16621.2,6052.39
16700.3,6105.26
16788.2,6141.67
16881.6,6160.24
16976.7,6160.24
17070,6141.67
17158,6105.26
17237.1,6052.39
17274.9,6014.52
18562.4,6014.52
18580,6072.48
18629.3,6175.95
18697.8,6267.82
18782.9,6344.56
18832.4,6374.02
18782.9,6403.47
18697.8,6480.21
18629.3,6572.08
18580,6675.55
18562.4,6733.51
18610.2,6824.02
19079.9,6824.02
19079.9,5924.02
18610.2,5924.02
18562.4,6014.52
17274.9,6014.52
17304.4,5985.11
17357.2,5905.99
17393.6,5818.07
17410.5,5733.51
18562.4,5733.51
18610.2,5824.02
19079.9,5824.02
19079.9,5354.01
19179.9,5354.01
19179.9,5824.02
19187.8,5824.02
19187.8,5924.02
19179.9,5924.02
19179.9,6824.02
19187.8,6824.02
19187.8,6924.02
19179.9,6924.02
19179.9,7824.02
19187.8,7824.02
19187.8,7924.02
19179.9,7924.02
19179.9,8396.16
19242.4,8458.66
19464.6,8459.87
19513.6,8455.04
19560.7,8440.75
19604.1,8417.53
19642.2,8386.29
19673.4,8348.23
19696.7,8304.8
19710.9,8257.67
19715.8,8208.66
19715.3,8123.01
19754.7,8181.96
19822,8249.24
19901.1,8302.11
19989,8338.52
20082.3,8357.09
20177.5,8357.09
20270.8,8338.52
20358.7,8302.11
20437.9,8249.24
20505.1,8181.96
20558,8102.84
20594.4,8014.92
20613,7921.59
20613,7826.44
20594.4,7733.11
20558,7645.2
20505.1,7566.08
20437.9,7498.79
20358.7,7445.92
20270.8,7409.51
20177.5,7390.94
20082.3,7390.94
19989,7409.51
19901.1,7445.92
19822,7498.79
19754.7,7566.08
19715.3,7625.02
19715.8,7539.37
19710.9,7490.36
19696.7,7443.24
19673.4,7399.81
19642.2,7361.74
19604.1,7330.5
19560.7,7307.28
19529,7297.65
19562,7267.82
19630.6,7175.95
19679.9,7072.48
19683.8,7059.37
19701.8,7102.84
19754.7,7181.96
19822,7249.24
19901.1,7302.11
19989,7338.52
20082.3,7357.09
20177.5,7357.09
20270.8,7338.52
20358.7,7302.11
20437.9,7249.24
20505.1,7181.96
20558,7102.84
20594.4,7014.92
20613,6921.59
20613,6826.44
20594.4,6733.11
20558,6645.2
20505.1,6566.08
20437.9,6498.79
20358.7,6445.92
20270.8,6409.51
20177.5,6390.94
20082.3,6390.94
19989,6409.51
19901.1,6445.92
19822,6498.79
19754.7,6566.08
19701.8,6645.2
19683.8,6688.66
19679.9,6675.55
19630.6,6572.08
19562,6480.21
19476.9,6403.47
19427.5,6374.02
19476.9,6344.56
19562,6267.82
19630.6,6175.95
19679.9,6072.48
19683.8,6059.37
19701.8,6102.84
19754.7,6181.96
19822,6249.24
19901.1,6302.11
19989,6338.52
20082.3,6357.09
20177.5,6357.09
20270.8,6338.52
20358.7,6302.11
20437.9,6249.24
20505.1,6181.96
20558,6102.84
20594.4,6014.92
20613,5921.59
20613,5826.44
20594.4,5733.11
20558,5645.2
20505.1,5566.08
20437.9,5498.79
20358.7,5445.92
20270.8,5409.51
20177.5,5390.94
20082.3,5390.94
19989,5409.51
19901.1,5445.92
19822,5498.79
19754.7,5566.08
19701.8,5645.2
19683.8,5688.66
19679.9,5675.55
19630.6,5572.08
19562,5480.21
19476.9,5403.47
19378.4,5344.82
19270.4,5306.5
19179.9,5354.01
19079.9,5354.01
18989.4,5306.5
18881.4,5344.82
18782.9,5403.47
18697.8,5480.21
18629.3,5572.08
18580,5675.55
18562.4,5733.51
17410.5,5733.51
17412.2,5724.74
17412.2,5629.59
17393.6,5536.26
17357.2,5448.35
17304.4,5369.23
17237.1,5301.94
17158,5249.07
17070,5212.66
16976.7,5194.09
16881.6,5194.09
16788.2,5212.66
16700.3,5249.07
16621.2,5301.94
16553.9,5369.23
16513.1,5430.31
12248.3,5430.31
12236.2,5429.12
12224.1,5430.31
11291.2,5430.31
9357.78,3496.87
9349.27,3454.08
9331.21,3410.47
9350.28,3415.04
9449.47,3418.86
9547.5,3403.26
9640.61,3368.84
9675.03,3350.44
9695.81,3260.61
9419.29,2984.1
9413.72,2989.66
9343.01,2918.95
9348.58,2913.39
9490,2913.39
9766.52,3189.9
9856.34,3169.12
9897.84,3078.94
9920.94,2982.4
9924.77,2883.21
9909.17,2785.17
9874.74,2692.07
9856.34,2657.65
9766.52,2636.87
9490,2913.39
9348.58,2913.39
9072.07,2636.87
8982.24,2657.65
8940.74,2747.83
8917.64,2844.37
8913.82,2943.56
8929.42,3041.6
8963.84,3134.7
8982.24,3169.12
9072.07,3189.9
9026.04,3235.92
9027.53,3237.4
9024.99,3237.4
8965.89,3249.16
8910.22,3272.22
8860.11,3305.69
8817.51,3348.3
8784.03,3398.41
8760.97,3454.08
8749.21,3513.18
8749.21,3573.44
8760.97,3632.54
8784.03,3688.21
8817.51,3738.31
8860.11,3780.92
8910.22,3814.4
8965.89,3837.46
9008.68,3845.97
11005.9,5843.14
11013.6,5852.56
11051.2,5883.41
11094.1,5906.33
11140.6,5920.44
11189,5925.21
11201.1,5924.02
11957.9,5924.02
11957.9,6708.59
11933.6,6744.86
11910.6,6800.53
11898.8,6859.63
11898.8,6919.89
11910.6,6978.99
11914.1,6987.4
10260.4,6987.4
9828.64,6555.61
9800.6,6513.66
9758,6471.05
9707.89,6437.57
9652.22,6414.51
9593.12,6402.76
9532.86,6402.76
9473.76,6414.51
9418.09,6437.57
9367.99,6471.05
9325.38,6513.66
9291.9,6563.76
9268.84,6619.43
9257.09,6678.53
9257.09,6738.79
9268.84,6797.89
9291.9,6853.56
9325.38,6903.66
9367.99,6946.27
9409.94,6974.3
9848.23,7412.6
9351.18,7412.6
9351.18,7172.13
9361.02,7122.65
9361.02,7062.39
9349.27,7003.29
9326.21,6947.62
9292.73,6897.52
9250.12,6854.91
9200.02,6821.43
9144.35,6798.37
9085.25,6786.61
9024.99,6786.61
8965.89,6798.37
8910.22,6821.43
8860.11,6854.91
8817.51,6897.52
8784.03,6947.62
8760.97,7003.29
8749.21,7062.39
8749.21,7122.65
8759.06,7172.13
8759.06,7412.6
4713.87,7412.6
4705.93,7400.72
4638.65,7333.44
4559.53,7280.57
4471.62,7244.15
4378.29,7225.59
4283.13,7225.59
4189.8,7244.15
4101.89,7280.57
4022.77,7333.44
3955.48,7400.72
3902.62,7479.84
3866.2,7567.75
3847.64,7661.08
2564.59,7661.08
2558.01,7645.2
2505.15,7566.08
2437.86,7498.79
2358.74,7445.92
2270.83,7409.51
2177.5,7390.94
2082.34,7390.94
1989.01,7409.51
1901.1,7445.92
1821.98,7498.79
1754.7,7566.08
1715.31,7625.02
1715.78,7539.37
1710.95,7490.36
1696.65,7443.24
1673.44,7399.81
1642.2,7361.74
1604.13,7330.5
1560.7,7307.28
1528.95,7297.65
1562.04,7267.82
1630.57,7175.95
1679.85,7072.48
1683.83,7059.37
1701.83,7102.84
1754.7,7181.96
1821.98,7249.24
1901.1,7302.11
1989.01,7338.52
2082.34,7357.09
2177.5,7357.09
2270.83,7338.52
2358.74,7302.11
2437.86,7249.24
2505.15,7181.96
2558.01,7102.84
2594.43,7014.92
2612.99,6921.59
2612.99,6826.44
2594.43,6733.11
2564.59,6661.08
3847.64,6661.08
3847.64,6756.24
3866.2,6849.57
3902.62,6937.48
3955.48,7016.6
4022.77,7083.89
4101.89,7136.75
4189.8,7173.17
4283.13,7191.73
4378.29,7191.73
4471.62,7173.17
4559.53,7136.75
4638.65,7083.89
4705.93,7016.6
4758.8,6937.48
4795.22,6849.57
4813.78,6756.24
4813.78,6661.08
4847.64,6661.08
4847.64,6756.24
4866.2,6849.57
4902.62,6937.48
4955.48,7016.6
5022.77,7083.89
5101.89,7136.75
5189.8,7173.17
5283.13,7191.73
5378.29,7191.73
5471.62,7173.17
5559.53,7136.75
5638.65,7083.89
5705.93,7016.6
5758.8,6937.48
5795.22,6849.57
5813.78,6756.24
5813.78,6711.22
6498.28,6026.72
6509.57,6017.45
6518.84,6006.15
6546.57,5972.37
6557.49,5951.94
6574.06,5920.93
6590.99,5865.13
6595.28,5821.63
6595.28,5821.63
6596.71,5807.09
6595.28,5792.55
6595.28,3819.77
6605.12,3770.29
6605.12,3710.03
6593.36,3650.93
6570.3,3595.26
6536.83,3545.15
6494.22,3502.54
6444.11,3469.07
6388.44,3446.01
6329.34,3434.25
6269.08,3434.25
6209.98,3446.01
6154.31,3469.07
6104.21,3502.54
6061.6,3545.15
6028.12,3595.26
6005.06,3650.93
5993.31,3710.03
5993.31,3770.29
6003.15,3819.77
6003.15,5684.45
5448.12,6239.48
5378.29,6225.59
5283.13,6225.59
5189.8,6244.15
5101.89,6280.57
5022.77,6333.44
4955.48,6400.72
4902.62,6479.84
4866.2,6567.75
4847.64,6661.08
4813.78,6661.08
4795.22,6567.75
4758.8,6479.84
4705.93,6400.72
4638.65,6333.44
4559.53,6280.57
4471.62,6244.15
4378.29,6225.59
4283.13,6225.59
4189.8,6244.15
4101.89,6280.57
4022.77,6333.44
3955.48,6400.72
3902.62,6479.84
3866.2,6567.75
3847.64,6661.08
2564.59,6661.08
2558.01,6645.2
2505.15,6566.08
2437.86,6498.79
2358.74,6445.92
2270.83,6409.51
2177.5,6390.94
2082.34,6390.94
1989.01,6409.51
1901.1,6445.92
1821.98,6498.79
1754.7,6566.08
1701.83,6645.2
1683.83,6688.66
1679.85,6675.55
1630.57,6572.08
1562.04,6480.21
1476.91,6403.47
1427.46,6374.02
1476.91,6344.56
1562.04,6267.82
1630.57,6175.95
1679.85,6072.48
1683.83,6059.37
1701.83,6102.84
1754.7,6181.96
1821.98,6249.24
1901.1,6302.11
1989.01,6338.52
2082.34,6357.09
2177.5,6357.09
2270.83,6338.52
2358.74,6302.11
2437.86,6249.24
2505.15,6181.96
2558.01,6102.84
2594.43,6014.92
2612.99,5921.59
2612.99,5826.44
2594.43,5733.11
2558.01,5645.2
2505.15,5566.08
2437.86,5498.79
2358.74,5445.92
2270.83,5409.51
2177.5,5390.94
2082.34,5390.94
1989.01,5409.51
1901.1,5445.92
1821.98,5498.79
1754.7,5566.08
1701.83,5645.2
1683.83,5688.66
1679.85,5675.55
1630.57,5572.08
1562.04,5480.21
1476.91,5403.47
1427.46,5374.02
3846.92,5374.02
3846.92,6043.31
3849.79,6072.4
3858.27,6100.38
3872.05,6126.17
3890.6,6148.77
3913.2,6167.32
3938.99,6181.1
3966.97,6189.58
3996.06,6192.45
4665.35,6192.45
4694.45,6189.58
4722.43,6181.1
4748.21,6167.32
4770.81,6148.77
4789.36,6126.17
4803.14,6100.38
4811.63,6072.4
4814.5,6043.31
4814.5,5374.02
4811.63,5344.92
4803.14,5316.94
4789.36,5291.16
4770.81,5268.56
4748.21,5250.01
4722.43,5236.23
4694.45,5227.74
4665.35,5224.87
3996.06,5224.87
3966.97,5227.74
3938.99,5236.23
3913.2,5250.01
3890.6,5268.56
3872.05,5291.16
3858.27,5316.94
3849.79,5344.92
3846.92,5374.02
1427.46,5374.02
1378.45,5344.82
1270.43,5306.5
1179.92,5354.01
1079.92,5354.01
989.413,5306.5
881.397,5344.82
782.931,5403.47
697.8,5480.21
629.275,5572.08
579.99,5675.55
562.411,5733.51
158.268,5733.51
158.268,3694.82
1137.7,3694.82
1192.02,3813.01
1329.51,3882.24
1477.88,3923.31
1631.4,3934.65
1784.18,3915.82
1930.36,3867.55
2032.39,3813.01
2086.71,3694.82
1612.2,3220.32
1137.7,3694.82
158.268,3694.82
158.268,3168.8
827.162,3168.8
845.991,3321.59
894.265,3467.76
948.802,3569.79
1066.99,3624.11
1541.49,3149.61
1682.92,3149.61
2157.42,3624.11
2275.61,3569.79
2344.84,3432.3
2385.91,3283.94
2397.25,3130.41
2391.36,3082.64
2432.28,3082.64
2432.28,3216.57
2458.41,3347.93
2509.67,3471.67
2584.08,3583.03
2678.78,3677.74
2790.14,3752.14
2913.88,3803.4
3045.24,3829.53
3179.17,3829.53
3310.53,3803.4
3434.27,3752.14
3545.63,3677.74
3640.33,3583.03
3714.74,3471.67
3766,3347.93
3783.37,3260.61
7233.33,3260.61
7254.11,3350.44
7344.29,3391.93
7440.83,3415.04
7540.02,3418.86
7638.05,3403.26
7731.16,3368.84
7765.58,3350.44
7786.36,3260.61
7509.84,2984.1
7233.33,3260.61
3783.37,3260.61
3792.13,3216.57
3792.13,3082.64
3766,2951.28
3762.8,2943.56
7004.37,2943.56
7019.97,3041.6
7054.39,3134.7
7072.79,3169.12
7162.62,3189.9
7439.13,2913.39
7580.55,2913.39
7857.07,3189.9
7946.9,3169.12
7988.39,3078.94
8011.49,2982.4
8015.32,2883.21
7999.72,2785.17
7965.29,2692.07
7946.9,2657.65
7857.07,2636.87
7580.55,2913.39
7439.13,2913.39
7162.62,2636.87
7072.79,2657.65
7031.3,2747.83
7008.19,2844.37
7004.37,2943.56
3762.8,2943.56
3714.74,2827.54
3640.33,2716.18
3545.63,2621.48
3462.84,2566.16
7233.33,2566.16
7509.84,2842.68
7786.36,2566.16
9142.78,2566.16
9419.29,2842.68
9695.81,2566.16
9675.03,2476.33
9584.85,2434.84
9488.31,2411.74
9389.11,2407.91
9291.08,2423.51
9197.97,2457.94
9163.56,2476.33
9142.78,2566.16
7786.36,2566.16
7765.58,2476.33
7675.4,2434.84
7578.86,2411.74
7479.66,2407.91
7381.63,2423.51
7288.52,2457.94
7254.11,2476.33
7233.33,2566.16
3462.84,2566.16
3434.27,2547.07
3310.53,2495.81
3179.17,2469.69
3045.24,2469.69
2913.88,2495.81
2790.14,2547.07
2678.78,2621.48
2584.08,2716.18
2509.67,2827.54
2458.41,2951.28
2432.28,3082.64
2391.36,3082.64
2378.42,2977.63
2330.14,2831.45
2275.61,2729.42
2157.42,2675.11
1682.92,3149.61
1541.49,3149.61
1066.99,2675.11
948.802,2729.42
879.574,2866.92
838.501,3015.28
827.162,3168.8
158.268,3168.8
158.268,2604.39
1137.7,2604.39
1612.2,3078.9
2086.71,2604.39
2032.39,2486.2
1894.89,2416.98
1746.53,2375.9
1593.01,2364.56
1440.23,2383.39
1294.05,2431.67
1192.02,2486.2
1137.7,2604.39
158.268,2604.39
158.268,1861.02
6580.71,1861.02
6580.71,1998.82
6599.43,2088.87
6635.36,2173.55
6687.11,2249.59
6752.71,2314.06
6829.62,2364.51
6914.9,2398.98
6925.3,2399.14
6997.24,2349.75
6997.24,1861.02
7097.24,1861.02
7097.24,2349.75
7169.19,2399.14
7179.59,2398.98
7264.86,2364.51
7341.78,2314.06
7407.38,2249.59
7459.13,2173.55
7495.06,2088.87
7513.78,1998.82
7513.78,1861.02
9415.35,1861.02
9415.35,1998.82
9434.07,2088.87
9470,2173.55
9521.76,2249.59
9587.35,2314.06
9664.27,2364.51
9749.55,2398.98
9759.94,2399.14
9831.89,2349.75
9831.89,1861.02
9931.89,1861.02
9931.89,2349.75
10003.8,2399.14
10014.2,2398.98
10099.5,2364.51
10176.4,2314.06
10242,2249.59
10293.8,2173.55
10329.7,2088.87
10348.4,1998.82
10348.4,1861.02
9931.89,1861.02
9831.89,1861.02
9415.35,1861.02
7513.78,1861.02
7097.24,1861.02
6997.24,1861.02
6580.71,1861.02
158.268,1861.02
158.268,1623.23
6580.71,1623.23
6580.71,1761.02
6997.24,1761.02
6997.24,1272.3
7097.24,1272.3
7097.24,1761.02
7513.78,1761.02
7513.78,1623.23
9415.35,1623.23
9415.35,1761.02
9831.89,1761.02
9831.89,1272.3
9931.89,1272.3
9931.89,1761.02
10348.4,1761.02
10348.4,1623.23
10329.7,1533.17
10293.8,1448.5
10242,1372.46
10176.4,1307.98
10099.5,1257.54
10014.2,1223.07
10003.8,1222.91
9931.89,1272.3
9831.89,1272.3
9759.94,1222.91
9749.55,1223.07
9664.27,1257.54
9587.35,1307.98
9521.76,1372.46
9470,1448.5
9434.07,1533.17
9415.35,1623.23
7513.78,1623.23
7495.06,1533.17
7459.13,1448.5
7407.38,1372.46
7341.78,1307.98
7264.86,1257.54
7179.59,1223.07
7169.19,1222.91
7097.24,1272.3
6997.24,1272.3
6925.3,1222.91
6914.9,1223.07
6829.62,1257.54
6752.71,1307.98
6687.11,1372.46
6635.36,1448.5
6599.43,1533.17
6580.71,1623.23
158.268,1623.23
158.268,852.958
852.958,158.268
3871.45,158.268
Z" /> 
</g>
</g>
</g> 
</svg>
