<?xml version="1.0" standalone="no"?>
 <!DOCTYPE svg PUBLIC "-//W3C//DTD SVG 1.1//EN" 
 "http://www.w3.org/Graphics/SVG/1.1/DTD/svg11.dtd"> 
<svg
  xmlns:svg="http://www.w3.org/2000/svg"
  xmlns="http://www.w3.org/2000/svg"
  xmlns:xlink="http://www.w3.org/1999/xlink"
  version="1.1"
  width="29.700220cm" height="21.000720cm" viewBox="0 0 116930 82680">
<title>SVG Picture created as MicroBBPS-F_Cu.svg date 2021/02/24 21:51:50 </title>
  <desc>Picture generated by PCBNEW </desc>
<g style="fill:#000000; fill-opacity:1;stroke:#000000; stroke-opacity:1;
stroke-linecap:round; stroke-linejoin:round;"
 transform="translate(0 0) scale(1 1)">
</g>
<g style="fill:#000000; fill-opacity:0.0; 
stroke:#000000; stroke-width:-0.000393701; stroke-opacity:1; 
stroke-linecap:round; stroke-linejoin:round;">
</g>
<g style="fill:#000000; fill-opacity:0.0; 
stroke:#000000; stroke-width:19.685; stroke-opacity:1; 
stroke-linecap:round; stroke-linejoin:round;">
<path d="M7874 -1574
L14173 -1574
" />
<path d="M21259 -38188
L21259 -36220
" />
<path d="M20078 -39370
L21259 -38188
" />
<path d="M4724 -39370
L20078 -39370
" />
<path d="M787 -39370
L1574 -39370
" />
<path d="M0 -38582
L787 -39370
" />
<path d="M0 -37795
L0 -38582
" />
<path d="M15748 0
L19685 0
" />
<path d="M14173 -1574
L15748 0
" />
<path d="M6299 0
L7874 -1574
" />
<path d="M1181 0
L6299 0
" />
<path d="M21259 -1574
L19685 0
" />
<path d="M21259 -36220
L21259 -1574
" />
<path d="M1574 -39370
L4724 -39370
" />
<path d="M0 -1181
L0 -37795
" />
<path d="M1181 0
L0 -1181
" />
</g>
<g style="fill:#000000; fill-opacity:0.0; 
stroke:#000000; stroke-width:393.701; stroke-opacity:1; 
stroke-linecap:round; stroke-linejoin:round;">
<path d="M16129 -26854
L12129 -26854
" />
<path d="M5129 -26854
L9129 -26854
" />
<path d="M16129 -25854
L12129 -25854
" />
<path d="M5129 -25854
L9129 -25854
" />
<path d="M16129 -24854
L12129 -24854
" />
<path d="M5129 -24854
L9129 -24854
" />
<path d="M16129 -23854
L12129 -23854
" />
<path d="M5129 -23854
L9129 -23854
" />
<path d="M16129 -22854
L12129 -22854
" />
<path d="M5129 -22854
L9129 -22854
" />
<path d="M16129 -21854
L12129 -21854
" />
<path d="M5129 -21854
L9129 -21854
" />
<path d="M16129 -20854
L12129 -20854
" />
<path d="M5129 -20854
L9129 -20854
" />
<path d="M16129 -19854
L12129 -19854
" />
<path d="M5129 -19854
L9129 -19854
" />
<path d="M16129 -18854
L12129 -18854
" />
<path d="M5129 -18854
L9129 -18854
" />
<path d="M16129 -17854
L12129 -17854
" />
<path d="M5129 -17854
L9129 -17854
" />
<path d="M16129 -16854
L12129 -16854
" />
<path d="M5129 -16854
L9129 -16854
" />
<path d="M16129 -15854
L12129 -15854
" />
<path d="M5129 -15854
L9129 -15854
" />
<path d="M16129 -14854
L12129 -14854
" />
<path d="M5129 -14854
L9129 -14854
" />
<path d="M16129 -13854
L12129 -13854
" />
<path d="M5129 -13854
L9129 -13854
" />
<path d="M16129 -12854
L12129 -12854
" />
<path d="M5129 -12854
L9129 -12854
" />
<path d="M16129 -11854
L12129 -11854
" />
<path d="M5129 -11854
L9129 -11854
" />
<path d="M16129 -10854
L12129 -10854
" />
<path d="M5129 -10854
L9129 -10854
" />
<path d="M16129 -9854
L12129 -9854
" />
<path d="M5129 -9854
L9129 -9854
" />
<path d="M16129 -8854
L12129 -8854
" />
<path d="M5129 -8854
L9129 -8854
" />
<path d="M16129 -7854
L12129 -7854
" />
<path d="M5129 -7854
L9129 -7854
" />
<path d="M16129 -6854
L12129 -6854
" />
<path d="M5129 -6854
L9129 -6854
" />
<path d="M16129 -5854
L12129 -5854
" />
<path d="M5129 -5854
L9129 -5854
" />
<path d="M16129 -4854
L12129 -4854
" />
<path d="M5129 -4854
L9129 -4854
" />
<path d="M16129 -3854
L12129 -3854
" />
<path d="M5129 -3854
L9129 -3854
" />
<g >
</g>
<g style="fill:#000000; fill-opacity:1.0; 
stroke:#000000; stroke-width:0; stroke-opacity:1; 
stroke-linecap:round; stroke-linejoin:round;">
<circle cx="20129.9" cy="-3854.33" r="334.646" /> 
<circle cx="19129.9" cy="-3854.33" r="334.646" /> 
<circle cx="1129.92" cy="-3854.33" r="334.646" /> 
<circle cx="2129.92" cy="-3854.33" r="334.646" /> 
<circle cx="13129.9" cy="-3854.33" r="334.646" /> 
<circle cx="12129.9" cy="-3854.33" r="334.646" /> 
<circle cx="16129.9" cy="-3854.33" r="334.646" /> 
<circle cx="14129.9" cy="-3854.33" r="334.646" /> 
<circle cx="15129.9" cy="-3854.33" r="334.646" /> 
<circle cx="9129.92" cy="-3854.33" r="334.646" /> 
<circle cx="8129.92" cy="-3854.33" r="334.646" /> 
<circle cx="7129.92" cy="-3854.33" r="334.646" /> 
<circle cx="6129.92" cy="-3854.33" r="334.646" /> 
<circle cx="5129.92" cy="-3854.33" r="334.646" /> 
<circle cx="13129.9" cy="-4854.33" r="334.646" /> 
<circle cx="19129.9" cy="-4854.33" r="334.646" /> 
<circle cx="15129.9" cy="-4854.33" r="334.646" /> 
<circle cx="14129.9" cy="-4854.33" r="334.646" /> 
<circle cx="12129.9" cy="-4854.33" r="334.646" /> 
<circle cx="16129.9" cy="-4854.33" r="334.646" /> 
<circle cx="2129.92" cy="-4854.33" r="334.646" /> 
<circle cx="1129.92" cy="-4854.33" r="334.646" /> 
<circle cx="20129.9" cy="-4854.33" r="334.646" /> 
<circle cx="9129.92" cy="-4854.33" r="334.646" /> 
<circle cx="5129.92" cy="-4854.33" r="334.646" /> 
<circle cx="6129.92" cy="-4854.33" r="334.646" /> 
<circle cx="8129.92" cy="-4854.33" r="334.646" /> 
<circle cx="7129.92" cy="-4854.33" r="334.646" /> 
<circle cx="13129.9" cy="-5854.33" r="334.646" /> 
<circle cx="19129.9" cy="-5854.33" r="334.646" /> 
<circle cx="15129.9" cy="-5854.33" r="334.646" /> 
<circle cx="14129.9" cy="-5854.33" r="334.646" /> 
<circle cx="12129.9" cy="-5854.33" r="334.646" /> 
<circle cx="16129.9" cy="-5854.33" r="334.646" /> 
<circle cx="2129.92" cy="-5854.33" r="334.646" /> 
<circle cx="1129.92" cy="-5854.33" r="334.646" /> 
<circle cx="20129.9" cy="-5854.33" r="334.646" /> 
<circle cx="9129.92" cy="-5854.33" r="334.646" /> 
<circle cx="5129.92" cy="-5854.33" r="334.646" /> 
<circle cx="6129.92" cy="-5854.33" r="334.646" /> 
<circle cx="8129.92" cy="-5854.33" r="334.646" /> 
<circle cx="7129.92" cy="-5854.33" r="334.646" /> 
<circle cx="13129.9" cy="-6854.33" r="334.646" /> 
<circle cx="19129.9" cy="-6854.33" r="334.646" /> 
<circle cx="15129.9" cy="-6854.33" r="334.646" /> 
<circle cx="14129.9" cy="-6854.33" r="334.646" /> 
<circle cx="12129.9" cy="-6854.33" r="334.646" /> 
<circle cx="16129.9" cy="-6854.33" r="334.646" /> 
<circle cx="2129.92" cy="-6854.33" r="334.646" /> 
<circle cx="1129.92" cy="-6854.33" r="334.646" /> 
<circle cx="20129.9" cy="-6854.33" r="334.646" /> 
<circle cx="9129.92" cy="-6854.33" r="334.646" /> 
<circle cx="5129.92" cy="-6854.33" r="334.646" /> 
<circle cx="6129.92" cy="-6854.33" r="334.646" /> 
<circle cx="8129.92" cy="-6854.33" r="334.646" /> 
<circle cx="7129.92" cy="-6854.33" r="334.646" /> 
<circle cx="13129.9" cy="-7854.33" r="334.646" /> 
<circle cx="19129.9" cy="-7854.33" r="334.646" /> 
<circle cx="15129.9" cy="-7854.33" r="334.646" /> 
<circle cx="14129.9" cy="-7854.33" r="334.646" /> 
<circle cx="12129.9" cy="-7854.33" r="334.646" /> 
<circle cx="16129.9" cy="-7854.33" r="334.646" /> 
<circle cx="2129.92" cy="-7854.33" r="334.646" /> 
<circle cx="1129.92" cy="-7854.33" r="334.646" /> 
<circle cx="20129.9" cy="-7854.33" r="334.646" /> 
<circle cx="9129.92" cy="-7854.33" r="334.646" /> 
<circle cx="5129.92" cy="-7854.33" r="334.646" /> 
<circle cx="6129.92" cy="-7854.33" r="334.646" /> 
<circle cx="8129.92" cy="-7854.33" r="334.646" /> 
<circle cx="7129.92" cy="-7854.33" r="334.646" /> 
<circle cx="13129.9" cy="-8854.33" r="334.646" /> 
<circle cx="19129.9" cy="-8854.33" r="334.646" /> 
<circle cx="15129.9" cy="-8854.33" r="334.646" /> 
<circle cx="14129.9" cy="-8854.33" r="334.646" /> 
<circle cx="12129.9" cy="-8854.33" r="334.646" /> 
<circle cx="16129.9" cy="-8854.33" r="334.646" /> 
<circle cx="2129.92" cy="-8854.33" r="334.646" /> 
<circle cx="1129.92" cy="-8854.33" r="334.646" /> 
<circle cx="20129.9" cy="-8854.33" r="334.646" /> 
<circle cx="9129.92" cy="-8854.33" r="334.646" /> 
<circle cx="5129.92" cy="-8854.33" r="334.646" /> 
<circle cx="6129.92" cy="-8854.33" r="334.646" /> 
<circle cx="8129.92" cy="-8854.33" r="334.646" /> 
<circle cx="7129.92" cy="-8854.33" r="334.646" /> 
<circle cx="13129.9" cy="-9854.33" r="334.646" /> 
<circle cx="19129.9" cy="-9854.33" r="334.646" /> 
<circle cx="15129.9" cy="-9854.33" r="334.646" /> 
<circle cx="14129.9" cy="-9854.33" r="334.646" /> 
<circle cx="12129.9" cy="-9854.33" r="334.646" /> 
<circle cx="16129.9" cy="-9854.33" r="334.646" /> 
<circle cx="2129.92" cy="-9854.33" r="334.646" /> 
<circle cx="1129.92" cy="-9854.33" r="334.646" /> 
<circle cx="20129.9" cy="-9854.33" r="334.646" /> 
<circle cx="9129.92" cy="-9854.33" r="334.646" /> 
<circle cx="5129.92" cy="-9854.33" r="334.646" /> 
<circle cx="6129.92" cy="-9854.33" r="334.646" /> 
<circle cx="8129.92" cy="-9854.33" r="334.646" /> 
<circle cx="7129.92" cy="-9854.33" r="334.646" /> 
<circle cx="13129.9" cy="-10854.3" r="334.646" /> 
<circle cx="19129.9" cy="-10854.3" r="334.646" /> 
<circle cx="15129.9" cy="-10854.3" r="334.646" /> 
<circle cx="14129.9" cy="-10854.3" r="334.646" /> 
<circle cx="12129.9" cy="-10854.3" r="334.646" /> 
<circle cx="16129.9" cy="-10854.3" r="334.646" /> 
<circle cx="2129.92" cy="-10854.3" r="334.646" /> 
<circle cx="1129.92" cy="-10854.3" r="334.646" /> 
<circle cx="20129.9" cy="-10854.3" r="334.646" /> 
<circle cx="9129.92" cy="-10854.3" r="334.646" /> 
<circle cx="5129.92" cy="-10854.3" r="334.646" /> 
<circle cx="6129.92" cy="-10854.3" r="334.646" /> 
<circle cx="8129.92" cy="-10854.3" r="334.646" /> 
<circle cx="7129.92" cy="-10854.3" r="334.646" /> 
<circle cx="13129.9" cy="-11854.3" r="334.646" /> 
<circle cx="19129.9" cy="-11854.3" r="334.646" /> 
<circle cx="15129.9" cy="-11854.3" r="334.646" /> 
<circle cx="14129.9" cy="-11854.3" r="334.646" /> 
<circle cx="12129.9" cy="-11854.3" r="334.646" /> 
<circle cx="16129.9" cy="-11854.3" r="334.646" /> 
<circle cx="2129.92" cy="-11854.3" r="334.646" /> 
<circle cx="1129.92" cy="-11854.3" r="334.646" /> 
<circle cx="20129.9" cy="-11854.3" r="334.646" /> 
<circle cx="9129.92" cy="-11854.3" r="334.646" /> 
<circle cx="5129.92" cy="-11854.3" r="334.646" /> 
<circle cx="6129.92" cy="-11854.3" r="334.646" /> 
<circle cx="8129.92" cy="-11854.3" r="334.646" /> 
<circle cx="7129.92" cy="-11854.3" r="334.646" /> 
<circle cx="13129.9" cy="-12854.3" r="334.646" /> 
<circle cx="19129.9" cy="-12854.3" r="334.646" /> 
<circle cx="15129.9" cy="-12854.3" r="334.646" /> 
<circle cx="14129.9" cy="-12854.3" r="334.646" /> 
<circle cx="12129.9" cy="-12854.3" r="334.646" /> 
<circle cx="16129.9" cy="-12854.3" r="334.646" /> 
<circle cx="2129.92" cy="-12854.3" r="334.646" /> 
<circle cx="1129.92" cy="-12854.3" r="334.646" /> 
<circle cx="20129.9" cy="-12854.3" r="334.646" /> 
<circle cx="9129.92" cy="-12854.3" r="334.646" /> 
<circle cx="5129.92" cy="-12854.3" r="334.646" /> 
<circle cx="6129.92" cy="-12854.3" r="334.646" /> 
<circle cx="8129.92" cy="-12854.3" r="334.646" /> 
<circle cx="7129.92" cy="-12854.3" r="334.646" /> 
<circle cx="13129.9" cy="-13854.3" r="334.646" /> 
<circle cx="19129.9" cy="-13854.3" r="334.646" /> 
<circle cx="15129.9" cy="-13854.3" r="334.646" /> 
<circle cx="14129.9" cy="-13854.3" r="334.646" /> 
<circle cx="12129.9" cy="-13854.3" r="334.646" /> 
<circle cx="16129.9" cy="-13854.3" r="334.646" /> 
<circle cx="2129.92" cy="-13854.3" r="334.646" /> 
<circle cx="1129.92" cy="-13854.3" r="334.646" /> 
<circle cx="20129.9" cy="-13854.3" r="334.646" /> 
<circle cx="9129.92" cy="-13854.3" r="334.646" /> 
<circle cx="5129.92" cy="-13854.3" r="334.646" /> 
<circle cx="6129.92" cy="-13854.3" r="334.646" /> 
<circle cx="8129.92" cy="-13854.3" r="334.646" /> 
<circle cx="7129.92" cy="-13854.3" r="334.646" /> 
<circle cx="13129.9" cy="-14854.3" r="334.646" /> 
<circle cx="19129.9" cy="-14854.3" r="334.646" /> 
<circle cx="15129.9" cy="-14854.3" r="334.646" /> 
<circle cx="14129.9" cy="-14854.3" r="334.646" /> 
<circle cx="12129.9" cy="-14854.3" r="334.646" /> 
<circle cx="16129.9" cy="-14854.3" r="334.646" /> 
<circle cx="2129.92" cy="-14854.3" r="334.646" /> 
<circle cx="1129.92" cy="-14854.3" r="334.646" /> 
<circle cx="20129.9" cy="-14854.3" r="334.646" /> 
<circle cx="9129.92" cy="-14854.3" r="334.646" /> 
<circle cx="5129.92" cy="-14854.3" r="334.646" /> 
<circle cx="6129.92" cy="-14854.3" r="334.646" /> 
<circle cx="8129.92" cy="-14854.3" r="334.646" /> 
<circle cx="7129.92" cy="-14854.3" r="334.646" /> 
<circle cx="13129.9" cy="-15854.3" r="334.646" /> 
<circle cx="19129.9" cy="-15854.3" r="334.646" /> 
<circle cx="15129.9" cy="-15854.3" r="334.646" /> 
<circle cx="14129.9" cy="-15854.3" r="334.646" /> 
<circle cx="12129.9" cy="-15854.3" r="334.646" /> 
<circle cx="16129.9" cy="-15854.3" r="334.646" /> 
<circle cx="2129.92" cy="-15854.3" r="334.646" /> 
<circle cx="1129.92" cy="-15854.3" r="334.646" /> 
<circle cx="20129.9" cy="-15854.3" r="334.646" /> 
<circle cx="9129.92" cy="-15854.3" r="334.646" /> 
<circle cx="5129.92" cy="-15854.3" r="334.646" /> 
<circle cx="6129.92" cy="-15854.3" r="334.646" /> 
<circle cx="8129.92" cy="-15854.3" r="334.646" /> 
<circle cx="7129.92" cy="-15854.3" r="334.646" /> 
<circle cx="13129.9" cy="-16854.3" r="334.646" /> 
<circle cx="19129.9" cy="-16854.3" r="334.646" /> 
<circle cx="15129.9" cy="-16854.3" r="334.646" /> 
<circle cx="14129.9" cy="-16854.3" r="334.646" /> 
<circle cx="12129.9" cy="-16854.3" r="334.646" /> 
<circle cx="16129.9" cy="-16854.3" r="334.646" /> 
<circle cx="2129.92" cy="-16854.3" r="334.646" /> 
<circle cx="1129.92" cy="-16854.3" r="334.646" /> 
<circle cx="20129.9" cy="-16854.3" r="334.646" /> 
<circle cx="9129.92" cy="-16854.3" r="334.646" /> 
<circle cx="5129.92" cy="-16854.3" r="334.646" /> 
<circle cx="6129.92" cy="-16854.3" r="334.646" /> 
<circle cx="8129.92" cy="-16854.3" r="334.646" /> 
<circle cx="7129.92" cy="-16854.3" r="334.646" /> 
<circle cx="13129.9" cy="-17854.3" r="334.646" /> 
<circle cx="19129.9" cy="-17854.3" r="334.646" /> 
<circle cx="15129.9" cy="-17854.3" r="334.646" /> 
<circle cx="14129.9" cy="-17854.3" r="334.646" /> 
<circle cx="12129.9" cy="-17854.3" r="334.646" /> 
<circle cx="16129.9" cy="-17854.3" r="334.646" /> 
<circle cx="2129.92" cy="-17854.3" r="334.646" /> 
<circle cx="1129.92" cy="-17854.3" r="334.646" /> 
<circle cx="20129.9" cy="-17854.3" r="334.646" /> 
<circle cx="9129.92" cy="-17854.3" r="334.646" /> 
<circle cx="5129.92" cy="-17854.3" r="334.646" /> 
<circle cx="6129.92" cy="-17854.3" r="334.646" /> 
<circle cx="8129.92" cy="-17854.3" r="334.646" /> 
<circle cx="7129.92" cy="-17854.3" r="334.646" /> 
<circle cx="13129.9" cy="-18854.3" r="334.646" /> 
<circle cx="19129.9" cy="-18854.3" r="334.646" /> 
<circle cx="15129.9" cy="-18854.3" r="334.646" /> 
<circle cx="14129.9" cy="-18854.3" r="334.646" /> 
<circle cx="12129.9" cy="-18854.3" r="334.646" /> 
<circle cx="16129.9" cy="-18854.3" r="334.646" /> 
<circle cx="2129.92" cy="-18854.3" r="334.646" /> 
<circle cx="1129.92" cy="-18854.3" r="334.646" /> 
<circle cx="20129.9" cy="-18854.3" r="334.646" /> 
<circle cx="9129.92" cy="-18854.3" r="334.646" /> 
<circle cx="5129.92" cy="-18854.3" r="334.646" /> 
<circle cx="6129.92" cy="-18854.3" r="334.646" /> 
<circle cx="8129.92" cy="-18854.3" r="334.646" /> 
<circle cx="7129.92" cy="-18854.3" r="334.646" /> 
<circle cx="13129.9" cy="-19854.3" r="334.646" /> 
<circle cx="19129.9" cy="-19854.3" r="334.646" /> 
<circle cx="15129.9" cy="-19854.3" r="334.646" /> 
<circle cx="14129.9" cy="-19854.3" r="334.646" /> 
<circle cx="12129.9" cy="-19854.3" r="334.646" /> 
<circle cx="16129.9" cy="-19854.3" r="334.646" /> 
<circle cx="2129.92" cy="-19854.3" r="334.646" /> 
<circle cx="1129.92" cy="-19854.3" r="334.646" /> 
<circle cx="20129.9" cy="-19854.3" r="334.646" /> 
<circle cx="9129.92" cy="-19854.3" r="334.646" /> 
<circle cx="5129.92" cy="-19854.3" r="334.646" /> 
<circle cx="6129.92" cy="-19854.3" r="334.646" /> 
<circle cx="8129.92" cy="-19854.3" r="334.646" /> 
<circle cx="7129.92" cy="-19854.3" r="334.646" /> 
<circle cx="13129.9" cy="-20854.3" r="334.646" /> 
<circle cx="19129.9" cy="-20854.3" r="334.646" /> 
<circle cx="15129.9" cy="-20854.3" r="334.646" /> 
<circle cx="14129.9" cy="-20854.3" r="334.646" /> 
<circle cx="12129.9" cy="-20854.3" r="334.646" /> 
<circle cx="16129.9" cy="-20854.3" r="334.646" /> 
<circle cx="2129.92" cy="-20854.3" r="334.646" /> 
<circle cx="1129.92" cy="-20854.3" r="334.646" /> 
<circle cx="20129.9" cy="-20854.3" r="334.646" /> 
<circle cx="9129.92" cy="-20854.3" r="334.646" /> 
<circle cx="5129.92" cy="-20854.3" r="334.646" /> 
<circle cx="6129.92" cy="-20854.3" r="334.646" /> 
<circle cx="8129.92" cy="-20854.3" r="334.646" /> 
<circle cx="7129.92" cy="-20854.3" r="334.646" /> 
<circle cx="13129.9" cy="-21854.3" r="334.646" /> 
<circle cx="19129.9" cy="-21854.3" r="334.646" /> 
<circle cx="15129.9" cy="-21854.3" r="334.646" /> 
<circle cx="14129.9" cy="-21854.3" r="334.646" /> 
<circle cx="12129.9" cy="-21854.3" r="334.646" /> 
<circle cx="16129.9" cy="-21854.3" r="334.646" /> 
<circle cx="2129.92" cy="-21854.3" r="334.646" /> 
<circle cx="1129.92" cy="-21854.3" r="334.646" /> 
<circle cx="20129.9" cy="-21854.3" r="334.646" /> 
<circle cx="9129.92" cy="-21854.3" r="334.646" /> 
<circle cx="5129.92" cy="-21854.3" r="334.646" /> 
<circle cx="6129.92" cy="-21854.3" r="334.646" /> 
<circle cx="8129.92" cy="-21854.3" r="334.646" /> 
<circle cx="7129.92" cy="-21854.3" r="334.646" /> 
<circle cx="13129.9" cy="-22854.3" r="334.646" /> 
<circle cx="19129.9" cy="-22854.3" r="334.646" /> 
<circle cx="15129.9" cy="-22854.3" r="334.646" /> 
<circle cx="14129.9" cy="-22854.3" r="334.646" /> 
<circle cx="12129.9" cy="-22854.3" r="334.646" /> 
<circle cx="16129.9" cy="-22854.3" r="334.646" /> 
<circle cx="2129.92" cy="-22854.3" r="334.646" /> 
<circle cx="1129.92" cy="-22854.3" r="334.646" /> 
<circle cx="20129.9" cy="-22854.3" r="334.646" /> 
<circle cx="9129.92" cy="-22854.3" r="334.646" /> 
<circle cx="5129.92" cy="-22854.3" r="334.646" /> 
<circle cx="6129.92" cy="-22854.3" r="334.646" /> 
<circle cx="8129.92" cy="-22854.3" r="334.646" /> 
<circle cx="7129.92" cy="-22854.3" r="334.646" /> 
<circle cx="13129.9" cy="-23854.3" r="334.646" /> 
<circle cx="19129.9" cy="-23854.3" r="334.646" /> 
<circle cx="15129.9" cy="-23854.3" r="334.646" /> 
<circle cx="14129.9" cy="-23854.3" r="334.646" /> 
<circle cx="12129.9" cy="-23854.3" r="334.646" /> 
<circle cx="16129.9" cy="-23854.3" r="334.646" /> 
<circle cx="2129.92" cy="-23854.3" r="334.646" /> 
<circle cx="1129.92" cy="-23854.3" r="334.646" /> 
<circle cx="20129.9" cy="-23854.3" r="334.646" /> 
<circle cx="9129.92" cy="-23854.3" r="334.646" /> 
<circle cx="5129.92" cy="-23854.3" r="334.646" /> 
<circle cx="6129.92" cy="-23854.3" r="334.646" /> 
<circle cx="8129.92" cy="-23854.3" r="334.646" /> 
<circle cx="7129.92" cy="-23854.3" r="334.646" /> 
<circle cx="13129.9" cy="-24854.3" r="334.646" /> 
<circle cx="19129.9" cy="-24854.3" r="334.646" /> 
<circle cx="15129.9" cy="-24854.3" r="334.646" /> 
<circle cx="14129.9" cy="-24854.3" r="334.646" /> 
<circle cx="12129.9" cy="-24854.3" r="334.646" /> 
<circle cx="16129.9" cy="-24854.3" r="334.646" /> 
<circle cx="2129.92" cy="-24854.3" r="334.646" /> 
<circle cx="1129.92" cy="-24854.3" r="334.646" /> 
<circle cx="20129.9" cy="-24854.3" r="334.646" /> 
<circle cx="9129.92" cy="-24854.3" r="334.646" /> 
<circle cx="5129.92" cy="-24854.3" r="334.646" /> 
<circle cx="6129.92" cy="-24854.3" r="334.646" /> 
<circle cx="8129.92" cy="-24854.3" r="334.646" /> 
<circle cx="7129.92" cy="-24854.3" r="334.646" /> 
<circle cx="13129.9" cy="-25854.3" r="334.646" /> 
<circle cx="19129.9" cy="-25854.3" r="334.646" /> 
<circle cx="15129.9" cy="-25854.3" r="334.646" /> 
<circle cx="14129.9" cy="-25854.3" r="334.646" /> 
<circle cx="12129.9" cy="-25854.3" r="334.646" /> 
<circle cx="16129.9" cy="-25854.3" r="334.646" /> 
<circle cx="2129.92" cy="-25854.3" r="334.646" /> 
<circle cx="1129.92" cy="-25854.3" r="334.646" /> 
<circle cx="20129.9" cy="-25854.3" r="334.646" /> 
<circle cx="9129.92" cy="-25854.3" r="334.646" /> 
<circle cx="5129.92" cy="-25854.3" r="334.646" /> 
<circle cx="6129.92" cy="-25854.3" r="334.646" /> 
<circle cx="8129.92" cy="-25854.3" r="334.646" /> 
<circle cx="7129.92" cy="-25854.3" r="334.646" /> 
<circle cx="13129.9" cy="-26854.3" r="334.646" /> 
<circle cx="19129.9" cy="-26854.3" r="334.646" /> 
<circle cx="15129.9" cy="-26854.3" r="334.646" /> 
<circle cx="14129.9" cy="-26854.3" r="334.646" /> 
<circle cx="12129.9" cy="-26854.3" r="334.646" /> 
<circle cx="16129.9" cy="-26854.3" r="334.646" /> 
<circle cx="2129.92" cy="-26854.3" r="334.646" /> 
<circle cx="1129.92" cy="-26854.3" r="334.646" /> 
<circle cx="20129.9" cy="-26854.3" r="334.646" /> 
<circle cx="9129.92" cy="-26854.3" r="334.646" /> 
<circle cx="5129.92" cy="-26854.3" r="334.646" /> 
<circle cx="6129.92" cy="-26854.3" r="334.646" /> 
<circle cx="8129.92" cy="-26854.3" r="334.646" /> 
<circle cx="7129.92" cy="-26854.3" r="334.646" /> 
</g>
<g >
</g>
<g style="fill:#000000; fill-opacity:1.0; 
stroke:#000000; stroke-width:0; stroke-opacity:1; 
stroke-linecap:round; stroke-linejoin:round;">
<path style="fill:#000000; fill-opacity:1.0; 
stroke:#000000; stroke-width:0; stroke-opacity:1; 
stroke-linecap:round; stroke-linejoin:round;fill-rule:evenodd;"
d="M 8433.07,-34488.2
9377.95,-34488.2
9377.95,-34094.5
8433.07,-34094.5
Z" /> 
<path style="fill:#000000; fill-opacity:1.0; 
stroke:#000000; stroke-width:0; stroke-opacity:1; 
stroke-linecap:round; stroke-linejoin:round;fill-rule:evenodd;"
d="M 9377.95,-33425.2
8433.07,-33425.2
8433.07,-33818.9
9377.95,-33818.9
Z" /> 
</g>
<g >
</g>
<g style="fill:#000000; fill-opacity:1.0; 
stroke:#000000; stroke-width:0; stroke-opacity:1; 
stroke-linecap:round; stroke-linejoin:round;">
<path style="fill:#000000; fill-opacity:1.0; 
stroke:#000000; stroke-width:0; stroke-opacity:1; 
stroke-linecap:round; stroke-linejoin:round;fill-rule:evenodd;"
d="M 14606.1,-38676.7
14615.7,-38675.3
14625,-38672.9
14634.1,-38669.7
14642.9,-38665.5
14651.1,-38660.6
14658.9,-38654.8
14666.1,-38648.3
14672.5,-38641.2
14678.3,-38633.4
14683.3,-38625.1
14687.4,-38616.4
14690.6,-38607.3
14693,-38597.9
14694.4,-38588.4
14694.9,-38578.7
14694.9,-37752
14694.4,-37742.3
14693,-37732.8
14690.6,-37723.4
14687.4,-37714.3
14683.3,-37705.6
14678.3,-37697.3
14672.5,-37689.5
14666.1,-37682.4
14658.9,-37675.9
14651.1,-37670.1
14642.9,-37665.2
14634.1,-37661
14625,-37657.8
14615.7,-37655.4
14606.1,-37654
14596.5,-37653.5
14163.4,-37653.5
14153.7,-37654
14144.2,-37655.4
14134.8,-37657.8
14125.7,-37661
14117,-37665.2
14108.7,-37670.1
14100.9,-37675.9
14093.8,-37682.4
14087.3,-37689.5
14081.5,-37697.3
14076.6,-37705.6
14072.5,-37714.3
14069.2,-37723.4
14066.9,-37732.8
14065.4,-37742.3
14065,-37752
14065,-38578.7
14065.4,-38588.4
14066.9,-38597.9
14069.2,-38607.3
14072.5,-38616.4
14076.6,-38625.1
14081.5,-38633.4
14087.3,-38641.2
14093.8,-38648.3
14100.9,-38654.8
14108.7,-38660.6
14117,-38665.5
14125.7,-38669.7
14134.8,-38672.9
14144.2,-38675.3
14153.7,-38676.7
14163.4,-38677.2
14596.5,-38677.2
Z" /> 
<path style="fill:#000000; fill-opacity:1.0; 
stroke:#000000; stroke-width:0; stroke-opacity:1; 
stroke-linecap:round; stroke-linejoin:round;fill-rule:evenodd;"
d="M 14606.1,-37259.4
14615.7,-37258
14625,-37255.6
14634.1,-37252.4
14642.9,-37248.2
14651.1,-37243.3
14658.9,-37237.5
14666.1,-37231
14672.5,-37223.9
14678.3,-37216.1
14683.3,-37207.8
14687.4,-37199.1
14690.6,-37190
14693,-37180.6
14694.4,-37171.1
14694.9,-37161.4
14694.9,-36334.6
14694.4,-36325
14693,-36315.4
14690.6,-36306.1
14687.4,-36297
14683.3,-36288.2
14678.3,-36280
14672.5,-36272.2
14666.1,-36265
14658.9,-36258.6
14651.1,-36252.8
14642.9,-36247.8
14634.1,-36243.7
14625,-36240.5
14615.7,-36238.1
14606.1,-36236.7
14596.5,-36236.2
14163.4,-36236.2
14153.7,-36236.7
14144.2,-36238.1
14134.8,-36240.5
14125.7,-36243.7
14117,-36247.8
14108.7,-36252.8
14100.9,-36258.6
14093.8,-36265
14087.3,-36272.2
14081.5,-36280
14076.6,-36288.2
14072.5,-36297
14069.2,-36306.1
14066.9,-36315.4
14065.4,-36325
14065,-36334.6
14065,-37161.4
14065.4,-37171.1
14066.9,-37180.6
14069.2,-37190
14072.5,-37199.1
14076.6,-37207.8
14081.5,-37216.1
14087.3,-37223.9
14093.8,-37231
14100.9,-37237.5
14108.7,-37243.3
14117,-37248.2
14125.7,-37252.4
14134.8,-37255.6
14144.2,-37258
14153.7,-37259.4
14163.4,-37259.8
14596.5,-37259.8
Z" /> 
</g>
<g >
</g>
<g style="fill:#000000; fill-opacity:1.0; 
stroke:#000000; stroke-width:0; stroke-opacity:1; 
stroke-linecap:round; stroke-linejoin:round;">
<path style="fill:#000000; fill-opacity:1.0; 
stroke:#000000; stroke-width:0; stroke-opacity:1; 
stroke-linecap:round; stroke-linejoin:round;fill-rule:evenodd;"
d="M 12356.1,-38676.7
12365.7,-38675.3
12375,-38672.9
12384.1,-38669.7
12392.9,-38665.5
12401.1,-38660.6
12408.9,-38654.8
12416.1,-38648.3
12422.5,-38641.2
12428.3,-38633.4
12433.3,-38625.1
12437.4,-38616.4
12440.6,-38607.3
12443,-38597.9
12444.4,-38588.4
12444.9,-38578.7
12444.9,-37752
12444.4,-37742.3
12443,-37732.8
12440.6,-37723.4
12437.4,-37714.3
12433.3,-37705.6
12428.3,-37697.3
12422.5,-37689.5
12416.1,-37682.4
12408.9,-37675.9
12401.1,-37670.1
12392.9,-37665.2
12384.1,-37661
12375,-37657.8
12365.7,-37655.4
12356.1,-37654
12346.5,-37653.5
11913.4,-37653.5
11903.7,-37654
11894.2,-37655.4
11884.8,-37657.8
11875.7,-37661
11867,-37665.2
11858.7,-37670.1
11850.9,-37675.9
11843.8,-37682.4
11837.3,-37689.5
11831.5,-37697.3
11826.6,-37705.6
11822.5,-37714.3
11819.2,-37723.4
11816.9,-37732.8
11815.4,-37742.3
11815,-37752
11815,-38578.7
11815.4,-38588.4
11816.9,-38597.9
11819.2,-38607.3
11822.5,-38616.4
11826.6,-38625.1
11831.5,-38633.4
11837.3,-38641.2
11843.8,-38648.3
11850.9,-38654.8
11858.7,-38660.6
11867,-38665.5
11875.7,-38669.7
11884.8,-38672.9
11894.2,-38675.3
11903.7,-38676.7
11913.4,-38677.2
12346.5,-38677.2
Z" /> 
<path style="fill:#000000; fill-opacity:1.0; 
stroke:#000000; stroke-width:0; stroke-opacity:1; 
stroke-linecap:round; stroke-linejoin:round;fill-rule:evenodd;"
d="M 12356.1,-37259.4
12365.7,-37258
12375,-37255.6
12384.1,-37252.4
12392.9,-37248.2
12401.1,-37243.3
12408.9,-37237.5
12416.1,-37231
12422.5,-37223.9
12428.3,-37216.1
12433.3,-37207.8
12437.4,-37199.1
12440.6,-37190
12443,-37180.6
12444.4,-37171.1
12444.9,-37161.4
12444.9,-36334.6
12444.4,-36325
12443,-36315.4
12440.6,-36306.1
12437.4,-36297
12433.3,-36288.2
12428.3,-36280
12422.5,-36272.2
12416.1,-36265
12408.9,-36258.6
12401.1,-36252.8
12392.9,-36247.8
12384.1,-36243.7
12375,-36240.5
12365.7,-36238.1
12356.1,-36236.7
12346.5,-36236.2
11913.4,-36236.2
11903.7,-36236.7
11894.2,-36238.1
11884.8,-36240.5
11875.7,-36243.7
11867,-36247.8
11858.7,-36252.8
11850.9,-36258.6
11843.8,-36265
11837.3,-36272.2
11831.5,-36280
11826.6,-36288.2
11822.5,-36297
11819.2,-36306.1
11816.9,-36315.4
11815.4,-36325
11815,-36334.6
11815,-37161.4
11815.4,-37171.1
11816.9,-37180.6
11819.2,-37190
11822.5,-37199.1
11826.6,-37207.8
11831.5,-37216.1
11837.3,-37223.9
11843.8,-37231
11850.9,-37237.5
11858.7,-37243.3
11867,-37248.2
11875.7,-37252.4
11884.8,-37255.6
11894.2,-37258
11903.7,-37259.4
11913.4,-37259.8
12346.5,-37259.8
Z" /> 
</g>
<g >
</g>
<g style="fill:#000000; fill-opacity:1.0; 
stroke:#000000; stroke-width:0; stroke-opacity:1; 
stroke-linecap:round; stroke-linejoin:round;">
<circle cx="1600.39" cy="-37185" r="531.496" /> 
</g>
<g style="fill:#000000; fill-opacity:1.0; 
stroke:#000000; stroke-width:39.3701; stroke-opacity:1; 
stroke-linecap:round; stroke-linejoin:round;">
</g>
<g style="fill:#000000; fill-opacity:1.0; 
stroke:#000000; stroke-width:0; stroke-opacity:1; 
stroke-linecap:round; stroke-linejoin:round;">
<circle cx="3100.39" cy="-37185" r="531.496" /> 
</g>
<g style="fill:#000000; fill-opacity:1.0; 
stroke:#000000; stroke-width:39.3701; stroke-opacity:1; 
stroke-linecap:round; stroke-linejoin:round;">
</g>
<g >
</g>
<g style="fill:#000000; fill-opacity:1.0; 
stroke:#000000; stroke-width:39.3701; stroke-opacity:1; 
stroke-linecap:round; stroke-linejoin:round;">
</g>
<g style="fill:#000000; fill-opacity:1.0; 
stroke:#000000; stroke-width:0; stroke-opacity:1; 
stroke-linecap:round; stroke-linejoin:round;">
<path style="fill:#000000; fill-opacity:1.0; 
stroke:#000000; stroke-width:0; stroke-opacity:1; 
stroke-linecap:round; stroke-linejoin:round;fill-rule:evenodd;"
d="M 19106.1,-38676.7
19115.7,-38675.3
19125,-38672.9
19134.1,-38669.7
19142.9,-38665.5
19151.1,-38660.6
19158.9,-38654.8
19166.1,-38648.3
19172.5,-38641.2
19178.3,-38633.4
19183.3,-38625.1
19187.4,-38616.4
19190.6,-38607.3
19193,-38597.9
19194.4,-38588.4
19194.9,-38578.7
19194.9,-37752
19194.4,-37742.3
19193,-37732.8
19190.6,-37723.4
19187.4,-37714.3
19183.3,-37705.6
19178.3,-37697.3
19172.5,-37689.5
19166.1,-37682.4
19158.9,-37675.9
19151.1,-37670.1
19142.9,-37665.2
19134.1,-37661
19125,-37657.8
19115.7,-37655.4
19106.1,-37654
19096.5,-37653.5
18663.4,-37653.5
18653.7,-37654
18644.2,-37655.4
18634.8,-37657.8
18625.7,-37661
18617,-37665.2
18608.7,-37670.1
18600.9,-37675.9
18593.8,-37682.4
18587.3,-37689.5
18581.5,-37697.3
18576.6,-37705.6
18572.5,-37714.3
18569.2,-37723.4
18566.9,-37732.8
18565.4,-37742.3
18565,-37752
18565,-38578.7
18565.4,-38588.4
18566.9,-38597.9
18569.2,-38607.3
18572.5,-38616.4
18576.6,-38625.1
18581.5,-38633.4
18587.3,-38641.2
18593.8,-38648.3
18600.9,-38654.8
18608.7,-38660.6
18617,-38665.5
18625.7,-38669.7
18634.8,-38672.9
18644.2,-38675.3
18653.7,-38676.7
18663.4,-38677.2
19096.5,-38677.2
Z" /> 
<path style="fill:#000000; fill-opacity:1.0; 
stroke:#000000; stroke-width:0; stroke-opacity:1; 
stroke-linecap:round; stroke-linejoin:round;fill-rule:evenodd;"
d="M 19106.1,-37259.4
19115.7,-37258
19125,-37255.6
19134.1,-37252.4
19142.9,-37248.2
19151.1,-37243.3
19158.9,-37237.5
19166.1,-37231
19172.5,-37223.9
19178.3,-37216.1
19183.3,-37207.8
19187.4,-37199.1
19190.6,-37190
19193,-37180.6
19194.4,-37171.1
19194.9,-37161.4
19194.9,-36334.6
19194.4,-36325
19193,-36315.4
19190.6,-36306.1
19187.4,-36297
19183.3,-36288.2
19178.3,-36280
19172.5,-36272.2
19166.1,-36265
19158.9,-36258.6
19151.1,-36252.8
19142.9,-36247.8
19134.1,-36243.7
19125,-36240.5
19115.7,-36238.1
19106.1,-36236.7
19096.5,-36236.2
18663.4,-36236.2
18653.7,-36236.7
18644.2,-36238.1
18634.8,-36240.5
18625.7,-36243.7
18617,-36247.8
18608.7,-36252.8
18600.9,-36258.6
18593.8,-36265
18587.3,-36272.2
18581.5,-36280
18576.6,-36288.2
18572.5,-36297
18569.2,-36306.1
18566.9,-36315.4
18565.4,-36325
18565,-36334.6
18565,-37161.4
18565.4,-37171.1
18566.9,-37180.6
18569.2,-37190
18572.5,-37199.1
18576.6,-37207.8
18581.5,-37216.1
18587.3,-37223.9
18593.8,-37231
18600.9,-37237.5
18608.7,-37243.3
18617,-37248.2
18625.7,-37252.4
18634.8,-37255.6
18644.2,-37258
18653.7,-37259.4
18663.4,-37259.8
19096.5,-37259.8
Z" /> 
</g>
<g >
</g>
<g style="fill:#000000; fill-opacity:1.0; 
stroke:#000000; stroke-width:0; stroke-opacity:1; 
stroke-linecap:round; stroke-linejoin:round;">
<path style="fill:#000000; fill-opacity:1.0; 
stroke:#000000; stroke-width:0; stroke-opacity:1; 
stroke-linecap:round; stroke-linejoin:round;fill-rule:evenodd;"
d="M 11878,-34488.2
12822.8,-34488.2
12822.8,-34094.5
11878,-34094.5
Z" /> 
<path style="fill:#000000; fill-opacity:1.0; 
stroke:#000000; stroke-width:0; stroke-opacity:1; 
stroke-linecap:round; stroke-linejoin:round;fill-rule:evenodd;"
d="M 12822.8,-33425.2
11878,-33425.2
11878,-33818.9
12822.8,-33818.9
Z" /> 
</g>
<g >
</g>
<g style="fill:#000000; fill-opacity:1.0; 
stroke:#000000; stroke-width:0; stroke-opacity:1; 
stroke-linecap:round; stroke-linejoin:round;">
<path style="fill:#000000; fill-opacity:1.0; 
stroke:#000000; stroke-width:0; stroke-opacity:1; 
stroke-linecap:round; stroke-linejoin:round;fill-rule:evenodd;"
d="M 16856.1,-38676.7
16865.7,-38675.3
16875,-38672.9
16884.1,-38669.7
16892.9,-38665.5
16901.1,-38660.6
16908.9,-38654.8
16916.1,-38648.3
16922.5,-38641.2
16928.3,-38633.4
16933.3,-38625.1
16937.4,-38616.4
16940.6,-38607.3
16943,-38597.9
16944.4,-38588.4
16944.9,-38578.7
16944.9,-37752
16944.4,-37742.3
16943,-37732.8
16940.6,-37723.4
16937.4,-37714.3
16933.3,-37705.6
16928.3,-37697.3
16922.5,-37689.5
16916.1,-37682.4
16908.9,-37675.9
16901.1,-37670.1
16892.9,-37665.2
16884.1,-37661
16875,-37657.8
16865.7,-37655.4
16856.1,-37654
16846.5,-37653.5
16413.4,-37653.5
16403.7,-37654
16394.2,-37655.4
16384.8,-37657.8
16375.7,-37661
16367,-37665.2
16358.7,-37670.1
16350.9,-37675.9
16343.8,-37682.4
16337.3,-37689.5
16331.5,-37697.3
16326.6,-37705.6
16322.5,-37714.3
16319.2,-37723.4
16316.9,-37732.8
16315.4,-37742.3
16315,-37752
16315,-38578.7
16315.4,-38588.4
16316.9,-38597.9
16319.2,-38607.3
16322.5,-38616.4
16326.6,-38625.1
16331.5,-38633.4
16337.3,-38641.2
16343.8,-38648.3
16350.9,-38654.8
16358.7,-38660.6
16367,-38665.5
16375.7,-38669.7
16384.8,-38672.9
16394.2,-38675.3
16403.7,-38676.7
16413.4,-38677.2
16846.5,-38677.2
Z" /> 
<path style="fill:#000000; fill-opacity:1.0; 
stroke:#000000; stroke-width:0; stroke-opacity:1; 
stroke-linecap:round; stroke-linejoin:round;fill-rule:evenodd;"
d="M 16856.1,-37259.4
16865.7,-37258
16875,-37255.6
16884.1,-37252.4
16892.9,-37248.2
16901.1,-37243.3
16908.9,-37237.5
16916.1,-37231
16922.5,-37223.9
16928.3,-37216.1
16933.3,-37207.8
16937.4,-37199.1
16940.6,-37190
16943,-37180.6
16944.4,-37171.1
16944.9,-37161.4
16944.9,-36334.6
16944.4,-36325
16943,-36315.4
16940.6,-36306.1
16937.4,-36297
16933.3,-36288.2
16928.3,-36280
16922.5,-36272.2
16916.1,-36265
16908.9,-36258.6
16901.1,-36252.8
16892.9,-36247.8
16884.1,-36243.7
16875,-36240.5
16865.7,-36238.1
16856.1,-36236.7
16846.5,-36236.2
16413.4,-36236.2
16403.7,-36236.7
16394.2,-36238.1
16384.8,-36240.5
16375.7,-36243.7
16367,-36247.8
16358.7,-36252.8
16350.9,-36258.6
16343.8,-36265
16337.3,-36272.2
16331.5,-36280
16326.6,-36288.2
16322.5,-36297
16319.2,-36306.1
16316.9,-36315.4
16315.4,-36325
16315,-36334.6
16315,-37161.4
16315.4,-37171.1
16316.9,-37180.6
16319.2,-37190
16322.5,-37199.1
16326.6,-37207.8
16331.5,-37216.1
16337.3,-37223.9
16343.8,-37231
16350.9,-37237.5
16358.7,-37243.3
16367,-37248.2
16375.7,-37252.4
16384.8,-37255.6
16394.2,-37258
16403.7,-37259.4
16413.4,-37259.8
16846.5,-37259.8
Z" /> 
</g>
<g >
</g>
<g style="fill:#000000; fill-opacity:1.0; 
stroke:#000000; stroke-width:0; stroke-opacity:1; 
stroke-linecap:round; stroke-linejoin:round;">
<path style="fill:#000000; fill-opacity:1.0; 
stroke:#000000; stroke-width:0; stroke-opacity:1; 
stroke-linecap:round; stroke-linejoin:round;fill-rule:evenodd;"
d="M 6903.35,-33601.9
6912.9,-33600.5
6922.27,-33598.1
6931.37,-33594.9
6940.1,-33590.7
6948.38,-33585.8
6956.14,-33580
6963.3,-33573.5
6969.78,-33566.4
6975.54,-33558.6
6980.5,-33550.3
6984.63,-33541.6
6987.89,-33532.5
6990.23,-33523.1
6991.65,-33513.6
6992.13,-33503.9
6992.13,-33179.1
6991.65,-33169.5
6990.23,-33159.9
6987.89,-33150.6
6984.63,-33141.5
6980.5,-33132.7
6975.54,-33124.5
6969.78,-33116.7
6963.3,-33109.5
6956.14,-33103.1
6948.38,-33097.3
6940.1,-33092.3
6931.37,-33088.2
6922.27,-33084.9
6912.9,-33082.6
6903.35,-33081.2
6893.7,-33080.7
6381.89,-33080.7
6372.24,-33081.2
6362.69,-33082.6
6353.32,-33084.9
6344.22,-33088.2
6335.49,-33092.3
6327.21,-33097.3
6319.45,-33103.1
6312.29,-33109.5
6305.81,-33116.7
6300.05,-33124.5
6295.09,-33132.7
6290.96,-33141.5
6287.7,-33150.6
6285.36,-33159.9
6283.94,-33169.5
6283.46,-33179.1
6283.46,-33503.9
6283.94,-33513.6
6285.36,-33523.1
6287.7,-33532.5
6290.96,-33541.6
6295.09,-33550.3
6300.05,-33558.6
6305.81,-33566.4
6312.29,-33573.5
6319.45,-33580
6327.21,-33585.8
6335.49,-33590.7
6344.22,-33594.9
6353.32,-33598.1
6362.69,-33600.5
6372.24,-33601.9
6381.89,-33602.4
6893.7,-33602.4
Z" /> 
<path style="fill:#000000; fill-opacity:1.0; 
stroke:#000000; stroke-width:0; stroke-opacity:1; 
stroke-linecap:round; stroke-linejoin:round;fill-rule:evenodd;"
d="M 6903.35,-34832.2
6912.9,-34830.8
6922.27,-34828.4
6931.37,-34825.2
6940.1,-34821.1
6948.38,-34816.1
6956.14,-34810.3
6963.3,-34803.8
6969.78,-34796.7
6975.54,-34788.9
6980.5,-34780.7
6984.63,-34771.9
6987.89,-34762.8
6990.23,-34753.5
6991.65,-34743.9
6992.13,-34734.3
6992.13,-34409.4
6991.65,-34399.8
6990.23,-34390.2
6987.89,-34380.9
6984.63,-34371.8
6980.5,-34363.1
6975.54,-34354.8
6969.78,-34347
6963.3,-34339.9
6956.14,-34333.4
6948.38,-34327.6
6940.1,-34322.6
6931.37,-34318.5
6922.27,-34315.3
6912.9,-34312.9
6903.35,-34311.5
6893.7,-34311
6381.89,-34311
6372.24,-34311.5
6362.69,-34312.9
6353.32,-34315.3
6344.22,-34318.5
6335.49,-34322.6
6327.21,-34327.6
6319.45,-34333.4
6312.29,-34339.9
6305.81,-34347
6300.05,-34354.8
6295.09,-34363.1
6290.96,-34371.8
6287.7,-34380.9
6285.36,-34390.2
6283.94,-34399.8
6283.46,-34409.4
6283.46,-34734.3
6283.94,-34743.9
6285.36,-34753.5
6287.7,-34762.8
6290.96,-34771.9
6295.09,-34780.7
6300.05,-34788.9
6305.81,-34796.7
6312.29,-34803.8
6319.45,-34810.3
6327.21,-34816.1
6335.49,-34821.1
6344.22,-34825.2
6353.32,-34828.4
6362.69,-34830.8
6372.24,-34832.2
6381.89,-34832.7
6893.7,-34832.7
Z" /> 
</g>
<g >
</g>
<g style="fill:#000000; fill-opacity:1.0; 
stroke:#000000; stroke-width:0; stroke-opacity:1; 
stroke-linecap:round; stroke-linejoin:round;">
<path style="fill:#000000; fill-opacity:1.0; 
stroke:#000000; stroke-width:0; stroke-opacity:1; 
stroke-linecap:round; stroke-linejoin:round;fill-rule:evenodd;"
d="M 13877.8,-33651.1
13887.3,-33649.7
13896.7,-33647.3
13905.8,-33644.1
13914.5,-33640
13922.8,-33635
13930.6,-33629.2
13937.7,-33622.7
13944.2,-33615.6
13949.9,-33607.8
13954.9,-33599.5
13959,-33590.8
13962.3,-33581.7
13964.6,-33572.4
13966.1,-33562.8
13966.5,-33553.1
13966.5,-33257.9
13966.1,-33248.2
13964.6,-33238.7
13962.3,-33229.3
13959,-33220.2
13954.9,-33211.5
13949.9,-33203.2
13944.2,-33195.4
13937.7,-33188.3
13930.6,-33181.8
13922.8,-33176
13914.5,-33171.1
13905.8,-33166.9
13896.7,-33163.7
13887.3,-33161.3
13877.8,-33159.9
13868.1,-33159.4
13376,-33159.4
13366.3,-33159.9
13356.8,-33161.3
13347.4,-33163.7
13338.3,-33166.9
13329.6,-33171.1
13321.3,-33176
13313.5,-33181.8
13306.4,-33188.3
13299.9,-33195.4
13294.1,-33203.2
13289.2,-33211.5
13285.1,-33220.2
13281.8,-33229.3
13279.5,-33238.7
13278,-33248.2
13277.6,-33257.9
13277.6,-33553.1
13278,-33562.8
13279.5,-33572.4
13281.8,-33581.7
13285.1,-33590.8
13289.2,-33599.5
13294.1,-33607.8
13299.9,-33615.6
13306.4,-33622.7
13313.5,-33629.2
13321.3,-33635
13329.6,-33640
13338.3,-33644.1
13347.4,-33647.3
13356.8,-33649.7
13366.3,-33651.1
13376,-33651.6
13868.1,-33651.6
Z" /> 
<path style="fill:#000000; fill-opacity:1.0; 
stroke:#000000; stroke-width:0; stroke-opacity:1; 
stroke-linecap:round; stroke-linejoin:round;fill-rule:evenodd;"
d="M 13877.8,-34753.5
13887.3,-34752
13896.7,-34749.7
13905.8,-34746.4
13914.5,-34742.3
13922.8,-34737.3
13930.6,-34731.6
13937.7,-34725.1
13944.2,-34718
13949.9,-34710.2
13954.9,-34701.9
13959,-34693.2
13962.3,-34684.1
13964.6,-34674.7
13966.1,-34665.2
13966.5,-34655.5
13966.5,-34360.2
13966.1,-34350.6
13964.6,-34341
13962.3,-34331.7
13959,-34322.6
13954.9,-34313.8
13949.9,-34305.6
13944.2,-34297.8
13937.7,-34290.6
13930.6,-34284.2
13922.8,-34278.4
13914.5,-34273.4
13905.8,-34269.3
13896.7,-34266
13887.3,-34263.7
13877.8,-34262.3
13868.1,-34261.8
13376,-34261.8
13366.3,-34262.3
13356.8,-34263.7
13347.4,-34266
13338.3,-34269.3
13329.6,-34273.4
13321.3,-34278.4
13313.5,-34284.2
13306.4,-34290.6
13299.9,-34297.8
13294.1,-34305.6
13289.2,-34313.8
13285.1,-34322.6
13281.8,-34331.7
13279.5,-34341
13278,-34350.6
13277.6,-34360.2
13277.6,-34655.5
13278,-34665.2
13279.5,-34674.7
13281.8,-34684.1
13285.1,-34693.2
13289.2,-34701.9
13294.1,-34710.2
13299.9,-34718
13306.4,-34725.1
13313.5,-34731.6
13321.3,-34737.3
13329.6,-34742.3
13338.3,-34746.4
13347.4,-34749.7
13356.8,-34752
13366.3,-34753.5
13376,-34753.9
13868.1,-34753.9
Z" /> 
</g>
<g >
</g>
<g style="fill:#000000; fill-opacity:1.0; 
stroke:#000000; stroke-width:0; stroke-opacity:1; 
stroke-linecap:round; stroke-linejoin:round;">
<circle cx="6358.27" cy="-30956.7" r="334.646" /> 
<circle cx="5358.27" cy="-31956.7" r="334.646" /> 
<circle cx="5358.27" cy="-30956.7" r="334.646" /> 
<path style="fill:#000000; fill-opacity:1.0; 
stroke:#000000; stroke-width:0; stroke-opacity:1; 
stroke-linecap:round; stroke-linejoin:round;fill-rule:evenodd;"
d="M 4692.91,-30622
4023.62,-30622
4023.62,-31291.3
4692.91,-31291.3
Z" /> 
</g>
<g >
</g>
<g style="fill:#000000; fill-opacity:1.0; 
stroke:#000000; stroke-width:0; stroke-opacity:1; 
stroke-linecap:round; stroke-linejoin:round;">
<circle cx="1129.92" cy="-30956.7" r="334.646" /> 
<circle cx="2129.92" cy="-30956.7" r="334.646" /> 
<circle cx="1129.92" cy="-31956.7" r="334.646" /> 
<circle cx="2129.92" cy="-31956.7" r="334.646" /> 
<circle cx="1129.92" cy="-32956.7" r="334.646" /> 
<circle cx="2129.92" cy="-32956.7" r="334.646" /> 
<circle cx="1129.92" cy="-33956.7" r="334.646" /> 
<path style="fill:#000000; fill-opacity:1.0; 
stroke:#000000; stroke-width:0; stroke-opacity:1; 
stroke-linecap:round; stroke-linejoin:round;fill-rule:evenodd;"
d="M 2464.57,-34291.3
2464.57,-33622
1795.28,-33622
1795.28,-34291.3
Z" /> 
</g>
<g >
</g>
<g style="fill:#000000; fill-opacity:1.0; 
stroke:#000000; stroke-width:0; stroke-opacity:1; 
stroke-linecap:round; stroke-linejoin:round;">
<path style="fill:#000000; fill-opacity:1.0; 
stroke:#000000; stroke-width:0; stroke-opacity:1; 
stroke-linecap:round; stroke-linejoin:round;fill-rule:evenodd;"
d="M 10385.6,-34822.4
10395.2,-34820.9
10404.6,-34818.6
10413.6,-34815.3
10422.4,-34811.2
10430.7,-34806.2
10438.4,-34800.5
10445.6,-34794
10452.1,-34786.8
10457.8,-34779.1
10462.8,-34770.8
10466.9,-34762.1
10470.2,-34753
10472.5,-34743.6
10473.9,-34734.1
10474.4,-34724.4
10474.4,-34409.4
10473.9,-34399.8
10472.5,-34390.2
10470.2,-34380.9
10466.9,-34371.8
10462.8,-34363.1
10457.8,-34354.8
10452.1,-34347
10445.6,-34339.9
10438.4,-34333.4
10430.7,-34327.6
10422.4,-34322.6
10413.6,-34318.5
10404.6,-34315.3
10395.2,-34312.9
10385.6,-34311.5
10376,-34311
9883.86,-34311
9874.21,-34311.5
9864.66,-34312.9
9855.29,-34315.3
9846.19,-34318.5
9837.46,-34322.6
9829.18,-34327.6
9821.42,-34333.4
9814.26,-34339.9
9807.77,-34347
9802.02,-34354.8
9797.06,-34363.1
9792.93,-34371.8
9789.67,-34380.9
9787.32,-34390.2
9785.91,-34399.8
9785.43,-34409.4
9785.43,-34724.4
9785.91,-34734.1
9787.32,-34743.6
9789.67,-34753
9792.93,-34762.1
9797.06,-34770.8
9802.02,-34779.1
9807.77,-34786.8
9814.26,-34794
9821.42,-34800.5
9829.18,-34806.2
9837.46,-34811.2
9846.19,-34815.3
9855.29,-34818.6
9864.66,-34820.9
9874.21,-34822.4
9883.86,-34822.8
10376,-34822.8
Z" /> 
<path style="fill:#000000; fill-opacity:1.0; 
stroke:#000000; stroke-width:0; stroke-opacity:1; 
stroke-linecap:round; stroke-linejoin:round;fill-rule:evenodd;"
d="M 10385.6,-33601.9
10395.2,-33600.5
10404.6,-33598.1
10413.6,-33594.9
10422.4,-33590.7
10430.7,-33585.8
10438.4,-33580
10445.6,-33573.5
10452.1,-33566.4
10457.8,-33558.6
10462.8,-33550.3
10466.9,-33541.6
10470.2,-33532.5
10472.5,-33523.1
10473.9,-33513.6
10474.4,-33503.9
10474.4,-33189
10473.9,-33179.3
10472.5,-33169.8
10470.2,-33160.4
10466.9,-33151.3
10462.8,-33142.6
10457.8,-33134.3
10452.1,-33126.5
10445.6,-33119.4
10438.4,-33112.9
10430.7,-33107.1
10422.4,-33102.2
10413.6,-33098
10404.6,-33094.8
10395.2,-33092.4
10385.6,-33091
10376,-33090.6
9883.86,-33090.6
9874.21,-33091
9864.66,-33092.4
9855.29,-33094.8
9846.19,-33098
9837.46,-33102.2
9829.18,-33107.1
9821.42,-33112.9
9814.26,-33119.4
9807.77,-33126.5
9802.02,-33134.3
9797.06,-33142.6
9792.93,-33151.3
9789.67,-33160.4
9787.32,-33169.8
9785.91,-33179.3
9785.43,-33189
9785.43,-33503.9
9785.91,-33513.6
9787.32,-33523.1
9789.67,-33532.5
9792.93,-33541.6
9797.06,-33550.3
9802.02,-33558.6
9807.77,-33566.4
9814.26,-33573.5
9821.42,-33580
9829.18,-33585.8
9837.46,-33590.7
9846.19,-33594.9
9855.29,-33598.1
9864.66,-33600.5
9874.21,-33601.9
9883.86,-33602.4
10376,-33602.4
Z" /> 
</g>
<g >
</g>
<g style="fill:#000000; fill-opacity:1.0; 
stroke:#000000; stroke-width:0; stroke-opacity:1; 
stroke-linecap:round; stroke-linejoin:round;">
<path style="fill:#000000; fill-opacity:1.0; 
stroke:#000000; stroke-width:0; stroke-opacity:1; 
stroke-linecap:round; stroke-linejoin:round;fill-rule:evenodd;"
d="M 5936.81,-29810.5
5946.37,-29809.1
5955.74,-29806.8
5964.83,-29803.5
5973.56,-29799.4
5981.85,-29794.4
5989.61,-29788.7
5996.76,-29782.2
6003.25,-29775
6009,-29767.3
6013.97,-29759
6018.1,-29750.3
6021.35,-29741.2
6023.7,-29731.8
6025.12,-29722.2
6025.59,-29712.6
6025.59,-29200.8
6025.12,-29191.1
6023.7,-29181.6
6021.35,-29172.2
6018.1,-29163.1
6013.97,-29154.4
6009,-29146.1
6003.25,-29138.3
5996.76,-29131.2
5989.61,-29124.7
5981.85,-29118.9
5973.56,-29114
5964.83,-29109.9
5955.74,-29106.6
5946.37,-29104.3
5936.81,-29102.8
5927.17,-29102.4
5602.36,-29102.4
5592.71,-29102.8
5583.16,-29104.3
5573.79,-29106.6
5564.7,-29109.9
5555.96,-29114
5547.68,-29118.9
5539.92,-29124.7
5532.76,-29131.2
5526.28,-29138.3
5520.52,-29146.1
5515.56,-29154.4
5511.43,-29163.1
5508.18,-29172.2
5505.83,-29181.6
5504.41,-29191.1
5503.94,-29200.8
5503.94,-29712.6
5504.41,-29722.2
5505.83,-29731.8
5508.18,-29741.2
5511.43,-29750.3
5515.56,-29759
5520.52,-29767.3
5526.28,-29775
5532.76,-29782.2
5539.92,-29788.7
5547.68,-29794.4
5555.96,-29799.4
5564.7,-29803.5
5573.79,-29806.8
5583.16,-29809.1
5592.71,-29810.5
5602.36,-29811
5927.17,-29811
Z" /> 
<path style="fill:#000000; fill-opacity:1.0; 
stroke:#000000; stroke-width:0; stroke-opacity:1; 
stroke-linecap:round; stroke-linejoin:round;fill-rule:evenodd;"
d="M 7167.13,-29810.5
7176.68,-29809.1
7186.05,-29806.8
7195.15,-29803.5
7203.88,-29799.4
7212.16,-29794.4
7219.92,-29788.7
7227.08,-29782.2
7233.56,-29775
7239.32,-29767.3
7244.28,-29759
7248.41,-29750.3
7251.67,-29741.2
7254.01,-29731.8
7255.43,-29722.2
7255.91,-29712.6
7255.91,-29200.8
7255.43,-29191.1
7254.01,-29181.6
7251.67,-29172.2
7248.41,-29163.1
7244.28,-29154.4
7239.32,-29146.1
7233.56,-29138.3
7227.08,-29131.2
7219.92,-29124.7
7212.16,-29118.9
7203.88,-29114
7195.15,-29109.9
7186.05,-29106.6
7176.68,-29104.3
7167.13,-29102.8
7157.48,-29102.4
6832.68,-29102.4
6823.03,-29102.8
6813.47,-29104.3
6804.11,-29106.6
6795.01,-29109.9
6786.28,-29114
6777.99,-29118.9
6770.24,-29124.7
6763.08,-29131.2
6756.59,-29138.3
6750.84,-29146.1
6745.87,-29154.4
6741.74,-29163.1
6738.49,-29172.2
6736.14,-29181.6
6734.73,-29191.1
6734.25,-29200.8
6734.25,-29712.6
6734.73,-29722.2
6736.14,-29731.8
6738.49,-29741.2
6741.74,-29750.3
6745.87,-29759
6750.84,-29767.3
6756.59,-29775
6763.08,-29782.2
6770.24,-29788.7
6777.99,-29794.4
6786.28,-29799.4
6795.01,-29803.5
6804.11,-29806.8
6813.47,-29809.1
6823.03,-29810.5
6832.68,-29811
7157.48,-29811
Z" /> 
</g>
<g >
</g>
<g style="fill:#000000; fill-opacity:1.0; 
stroke:#000000; stroke-width:0; stroke-opacity:1; 
stroke-linecap:round; stroke-linejoin:round;">
</g>
<g style="fill:#000000; fill-opacity:1.0; 
stroke:#000000; stroke-width:433.071; stroke-opacity:1; 
stroke-linecap:round; stroke-linejoin:round;">
</g>
<g style="fill:#000000; fill-opacity:0.0; 
stroke:#000000; stroke-width:433.071; stroke-opacity:1; 
stroke-linecap:round; stroke-linejoin:round;">
<path d="M8747 -38221
L8747 -38496
" />
<path d="M5912 -38496
L5912 -38221
" />
</g>
<g style="fill:#000000; fill-opacity:1.0; 
stroke:#000000; stroke-width:0; stroke-opacity:1; 
stroke-linecap:round; stroke-linejoin:round;">
<circle cx="8284.65" cy="-37256.7" r="253.937" /> 
</g>
<g style="fill:#000000; fill-opacity:1.0; 
stroke:#000000; stroke-width:39.3701; stroke-opacity:1; 
stroke-linecap:round; stroke-linejoin:round;">
</g>
<g style="fill:#000000; fill-opacity:1.0; 
stroke:#000000; stroke-width:0; stroke-opacity:1; 
stroke-linecap:round; stroke-linejoin:round;">
<circle cx="6375.2" cy="-37256.7" r="253.937" /> 
</g>
<g style="fill:#000000; fill-opacity:1.0; 
stroke:#000000; stroke-width:39.3701; stroke-opacity:1; 
stroke-linecap:round; stroke-linejoin:round;">
</g>
<g style="fill:#000000; fill-opacity:1.0; 
stroke:#000000; stroke-width:0; stroke-opacity:1; 
stroke-linecap:round; stroke-linejoin:round;">
<path style="fill:#000000; fill-opacity:1.0; 
stroke:#000000; stroke-width:0; stroke-opacity:1; 
stroke-linecap:round; stroke-linejoin:round;fill-rule:evenodd;"
d="M 7762.99,-37010.6
7762.99,-37502.8
7920.47,-37502.8
7920.47,-37010.6
Z" /> 
<path style="fill:#000000; fill-opacity:1.0; 
stroke:#000000; stroke-width:0; stroke-opacity:1; 
stroke-linecap:round; stroke-linejoin:round;fill-rule:evenodd;"
d="M 7507.09,-37010.6
7507.09,-37502.8
7664.57,-37502.8
7664.57,-37010.6
Z" /> 
<path style="fill:#000000; fill-opacity:1.0; 
stroke:#000000; stroke-width:0; stroke-opacity:1; 
stroke-linecap:round; stroke-linejoin:round;fill-rule:evenodd;"
d="M 7251.18,-37010.6
7251.18,-37502.8
7408.66,-37502.8
7408.66,-37010.6
Z" /> 
<path style="fill:#000000; fill-opacity:1.0; 
stroke:#000000; stroke-width:0; stroke-opacity:1; 
stroke-linecap:round; stroke-linejoin:round;fill-rule:evenodd;"
d="M 6995.28,-37010.6
6995.28,-37502.8
7152.76,-37502.8
7152.76,-37010.6
Z" /> 
<path style="fill:#000000; fill-opacity:1.0; 
stroke:#000000; stroke-width:0; stroke-opacity:1; 
stroke-linecap:round; stroke-linejoin:round;fill-rule:evenodd;"
d="M 6719.69,-37010.6
6719.69,-37502.8
6877.17,-37502.8
6877.17,-37010.6
Z" /> 
<path style="fill:#000000; fill-opacity:1.0; 
stroke:#000000; stroke-width:0; stroke-opacity:1; 
stroke-linecap:round; stroke-linejoin:round;fill-rule:evenodd;"
d="M 7742.92,-38751.8
7762.03,-38749
7780.76,-38744.3
7798.95,-38737.8
7816.42,-38729.5
7832.99,-38719.6
7848.5,-38708.1
7862.82,-38695.1
7875.79,-38680.8
7887.3,-38665.3
7897.23,-38648.7
7905.49,-38631.2
7912,-38613
7916.69,-38594.3
7919.52,-38575.2
7920.47,-38555.9
7920.47,-38162.2
7919.52,-38142.9
7916.69,-38123.8
7912,-38105.1
7905.49,-38086.9
7897.23,-38069.4
7887.3,-38052.8
7875.79,-38037.3
7862.82,-38023
7848.5,-38010
7832.99,-37998.5
7816.42,-37988.6
7798.95,-37980.3
7780.76,-37973.8
7762.03,-37969.1
7742.92,-37966.3
7723.62,-37965.4
6936.22,-37965.4
6916.93,-37966.3
6897.82,-37969.1
6879.08,-37973.8
6860.89,-37980.3
6843.43,-37988.6
6826.86,-37998.5
6811.34,-38010
6797.03,-38023
6784.05,-38037.3
6772.55,-38052.8
6762.61,-38069.4
6754.35,-38086.9
6747.85,-38105.1
6743.15,-38123.8
6740.32,-38142.9
6739.37,-38162.2
6739.37,-38555.9
6740.32,-38575.2
6743.15,-38594.3
6747.85,-38613
6754.35,-38631.2
6762.61,-38648.7
6772.55,-38665.3
6784.05,-38680.8
6797.03,-38695.1
6811.34,-38708.1
6826.86,-38719.6
6843.43,-38729.5
6860.89,-38737.8
6879.08,-38744.3
6897.82,-38749
6916.93,-38751.8
6936.22,-38752.8
7723.62,-38752.8
Z" /> 
</g>
<g style="fill:#000000; fill-opacity:1.0; 
stroke:#000000; stroke-width:433.071; stroke-opacity:1; 
stroke-linecap:round; stroke-linejoin:round;">
</g>
<g style="fill:#000000; fill-opacity:0.0; 
stroke:#000000; stroke-width:433.071; stroke-opacity:1; 
stroke-linecap:round; stroke-linejoin:round;">
<path d="M5912 -38496
L5912 -38221
" />
</g>
<g >
</g>
<g style="fill:#000000; fill-opacity:0.0; 
stroke:#000000; stroke-width:433.071; stroke-opacity:1; 
stroke-linecap:round; stroke-linejoin:round;">
</g>
<g style="fill:#000000; fill-opacity:0.0; 
stroke:#000000; stroke-width:0; stroke-opacity:1; 
stroke-linecap:round; stroke-linejoin:round;">
</g>
<g style="fill:#000000; fill-opacity:1.0; 
stroke:#000000; stroke-width:0; stroke-opacity:1; 
stroke-linecap:round; stroke-linejoin:round;">
<path style="fill:#000000; fill-opacity:1.0; 
stroke:#000000; stroke-width:0; stroke-opacity:1; 
stroke-linecap:round; stroke-linejoin:round;fill-rule:evenodd;"
d="M 11385.6,-34822.4
11395.2,-34820.9
11404.6,-34818.6
11413.6,-34815.3
11422.4,-34811.2
11430.7,-34806.2
11438.4,-34800.5
11445.6,-34794
11452.1,-34786.8
11457.8,-34779.1
11462.8,-34770.8
11466.9,-34762.1
11470.2,-34753
11472.5,-34743.6
11473.9,-34734.1
11474.4,-34724.4
11474.4,-34409.4
11473.9,-34399.8
11472.5,-34390.2
11470.2,-34380.9
11466.9,-34371.8
11462.8,-34363.1
11457.8,-34354.8
11452.1,-34347
11445.6,-34339.9
11438.4,-34333.4
11430.7,-34327.6
11422.4,-34322.6
11413.6,-34318.5
11404.6,-34315.3
11395.2,-34312.9
11385.6,-34311.5
11376,-34311
10883.9,-34311
10874.2,-34311.5
10864.7,-34312.9
10855.3,-34315.3
10846.2,-34318.5
10837.5,-34322.6
10829.2,-34327.6
10821.4,-34333.4
10814.3,-34339.9
10807.8,-34347
10802,-34354.8
10797.1,-34363.1
10792.9,-34371.8
10789.7,-34380.9
10787.3,-34390.2
10785.9,-34399.8
10785.4,-34409.4
10785.4,-34724.4
10785.9,-34734.1
10787.3,-34743.6
10789.7,-34753
10792.9,-34762.1
10797.1,-34770.8
10802,-34779.1
10807.8,-34786.8
10814.3,-34794
10821.4,-34800.5
10829.2,-34806.2
10837.5,-34811.2
10846.2,-34815.3
10855.3,-34818.6
10864.7,-34820.9
10874.2,-34822.4
10883.9,-34822.8
11376,-34822.8
Z" /> 
<path style="fill:#000000; fill-opacity:1.0; 
stroke:#000000; stroke-width:0; stroke-opacity:1; 
stroke-linecap:round; stroke-linejoin:round;fill-rule:evenodd;"
d="M 11385.6,-33601.9
11395.2,-33600.5
11404.6,-33598.1
11413.6,-33594.9
11422.4,-33590.7
11430.7,-33585.8
11438.4,-33580
11445.6,-33573.5
11452.1,-33566.4
11457.8,-33558.6
11462.8,-33550.3
11466.9,-33541.6
11470.2,-33532.5
11472.5,-33523.1
11473.9,-33513.6
11474.4,-33503.9
11474.4,-33189
11473.9,-33179.3
11472.5,-33169.8
11470.2,-33160.4
11466.9,-33151.3
11462.8,-33142.6
11457.8,-33134.3
11452.1,-33126.5
11445.6,-33119.4
11438.4,-33112.9
11430.7,-33107.1
11422.4,-33102.2
11413.6,-33098
11404.6,-33094.8
11395.2,-33092.4
11385.6,-33091
11376,-33090.6
10883.9,-33090.6
10874.2,-33091
10864.7,-33092.4
10855.3,-33094.8
10846.2,-33098
10837.5,-33102.2
10829.2,-33107.1
10821.4,-33112.9
10814.3,-33119.4
10807.8,-33126.5
10802,-33134.3
10797.1,-33142.6
10792.9,-33151.3
10789.7,-33160.4
10787.3,-33169.8
10785.9,-33179.3
10785.4,-33189
10785.4,-33503.9
10785.9,-33513.6
10787.3,-33523.1
10789.7,-33532.5
10792.9,-33541.6
10797.1,-33550.3
10802,-33558.6
10807.8,-33566.4
10814.3,-33573.5
10821.4,-33580
10829.2,-33585.8
10837.5,-33590.7
10846.2,-33594.9
10855.3,-33598.1
10864.7,-33600.5
10874.2,-33601.9
10883.9,-33602.4
11376,-33602.4
Z" /> 
</g>
<g >
</g>
<g style="fill:#000000; fill-opacity:1.0; 
stroke:#000000; stroke-width:0; stroke-opacity:1; 
stroke-linecap:round; stroke-linejoin:round;">
<path style="fill:#000000; fill-opacity:1.0; 
stroke:#000000; stroke-width:0; stroke-opacity:1; 
stroke-linecap:round; stroke-linejoin:round;fill-rule:evenodd;"
d="M 5434.25,-35802
4725.59,-35802
4725.59,-36786.2
5434.25,-36786.2
Z" /> 
<path style="fill:#000000; fill-opacity:1.0; 
stroke:#000000; stroke-width:0; stroke-opacity:1; 
stroke-linecap:round; stroke-linejoin:round;fill-rule:evenodd;"
d="M 5434.25,-34227.2
4725.59,-34227.2
4725.59,-35211.4
5434.25,-35211.4
Z" /> 
</g>
<g >
</g>
<g style="fill:#000000; fill-opacity:1.0; 
stroke:#000000; stroke-width:0; stroke-opacity:1; 
stroke-linecap:round; stroke-linejoin:round;">
<path style="fill:#000000; fill-opacity:1.0; 
stroke:#000000; stroke-width:0; stroke-opacity:1; 
stroke-linecap:round; stroke-linejoin:round;fill-rule:evenodd;"
d="M 15667.1,-29810.5
15676.7,-29809.1
15686.1,-29806.8
15695.1,-29803.5
15703.9,-29799.4
15712.2,-29794.4
15719.9,-29788.7
15727.1,-29782.2
15733.6,-29775
15739.3,-29767.3
15744.3,-29759
15748.4,-29750.3
15751.7,-29741.2
15754,-29731.8
15755.4,-29722.2
15755.9,-29712.6
15755.9,-29200.8
15755.4,-29191.1
15754,-29181.6
15751.7,-29172.2
15748.4,-29163.1
15744.3,-29154.4
15739.3,-29146.1
15733.6,-29138.3
15727.1,-29131.2
15719.9,-29124.7
15712.2,-29118.9
15703.9,-29114
15695.1,-29109.9
15686.1,-29106.6
15676.7,-29104.3
15667.1,-29102.8
15657.5,-29102.4
15332.7,-29102.4
15323,-29102.8
15313.5,-29104.3
15304.1,-29106.6
15295,-29109.9
15286.3,-29114
15278,-29118.9
15270.2,-29124.7
15263.1,-29131.2
15256.6,-29138.3
15250.8,-29146.1
15245.9,-29154.4
15241.7,-29163.1
15238.5,-29172.2
15236.1,-29181.6
15234.7,-29191.1
15234.3,-29200.8
15234.3,-29712.6
15234.7,-29722.2
15236.1,-29731.8
15238.5,-29741.2
15241.7,-29750.3
15245.9,-29759
15250.8,-29767.3
15256.6,-29775
15263.1,-29782.2
15270.2,-29788.7
15278,-29794.4
15286.3,-29799.4
15295,-29803.5
15304.1,-29806.8
15313.5,-29809.1
15323,-29810.5
15332.7,-29811
15657.5,-29811
Z" /> 
<path style="fill:#000000; fill-opacity:1.0; 
stroke:#000000; stroke-width:0; stroke-opacity:1; 
stroke-linecap:round; stroke-linejoin:round;fill-rule:evenodd;"
d="M 14436.8,-29810.5
14446.4,-29809.1
14455.7,-29806.8
14464.8,-29803.5
14473.6,-29799.4
14481.8,-29794.4
14489.6,-29788.7
14496.8,-29782.2
14503.2,-29775
14509,-29767.3
14514,-29759
14518.1,-29750.3
14521.4,-29741.2
14523.7,-29731.8
14525.1,-29722.2
14525.6,-29712.6
14525.6,-29200.8
14525.1,-29191.1
14523.7,-29181.6
14521.4,-29172.2
14518.1,-29163.1
14514,-29154.4
14509,-29146.1
14503.2,-29138.3
14496.8,-29131.2
14489.6,-29124.7
14481.8,-29118.9
14473.6,-29114
14464.8,-29109.9
14455.7,-29106.6
14446.4,-29104.3
14436.8,-29102.8
14427.2,-29102.4
14102.4,-29102.4
14092.7,-29102.8
14083.2,-29104.3
14073.8,-29106.6
14064.7,-29109.9
14056,-29114
14047.7,-29118.9
14039.9,-29124.7
14032.8,-29131.2
14026.3,-29138.3
14020.5,-29146.1
14015.6,-29154.4
14011.4,-29163.1
14008.2,-29172.2
14005.8,-29181.6
14004.4,-29191.1
14003.9,-29200.8
14003.9,-29712.6
14004.4,-29722.2
14005.8,-29731.8
14008.2,-29741.2
14011.4,-29750.3
14015.6,-29759
14020.5,-29767.3
14026.3,-29775
14032.8,-29782.2
14039.9,-29788.7
14047.7,-29794.4
14056,-29799.4
14064.7,-29803.5
14073.8,-29806.8
14083.2,-29809.1
14092.7,-29810.5
14102.4,-29811
14427.2,-29811
Z" /> 
</g>
<g >
</g>
<g style="fill:#000000; fill-opacity:1.0; 
stroke:#000000; stroke-width:0; stroke-opacity:1; 
stroke-linecap:round; stroke-linejoin:round;">
<path style="fill:#000000; fill-opacity:1.0; 
stroke:#000000; stroke-width:0; stroke-opacity:1; 
stroke-linecap:round; stroke-linejoin:round;fill-rule:evenodd;"
d="M 7893.51,-33651.1
7903.06,-33649.7
7912.43,-33647.3
7921.52,-33644.1
7930.26,-33640
7938.54,-33635
7946.3,-33629.2
7953.46,-33622.7
7959.94,-33615.6
7965.7,-33607.8
7970.66,-33599.5
7974.79,-33590.8
7978.05,-33581.7
7980.39,-33572.4
7981.81,-33562.8
7982.28,-33553.1
7982.28,-33257.9
7981.81,-33248.2
7980.39,-33238.7
7978.05,-33229.3
7974.79,-33220.2
7970.66,-33211.5
7965.7,-33203.2
7959.94,-33195.4
7953.46,-33188.3
7946.3,-33181.8
7938.54,-33176
7930.26,-33171.1
7921.52,-33166.9
7912.43,-33163.7
7903.06,-33161.3
7893.51,-33159.9
7883.86,-33159.4
7391.73,-33159.4
7382.09,-33159.9
7372.53,-33161.3
7363.16,-33163.7
7354.07,-33166.9
7345.34,-33171.1
7337.05,-33176
7329.29,-33181.8
7322.14,-33188.3
7315.65,-33195.4
7309.89,-33203.2
7304.93,-33211.5
7300.8,-33220.2
7297.55,-33229.3
7295.2,-33238.7
7293.78,-33248.2
7293.31,-33257.9
7293.31,-33553.1
7293.78,-33562.8
7295.2,-33572.4
7297.55,-33581.7
7300.8,-33590.8
7304.93,-33599.5
7309.89,-33607.8
7315.65,-33615.6
7322.14,-33622.7
7329.29,-33629.2
7337.05,-33635
7345.34,-33640
7354.07,-33644.1
7363.16,-33647.3
7372.53,-33649.7
7382.09,-33651.1
7391.73,-33651.6
7883.86,-33651.6
Z" /> 
<path style="fill:#000000; fill-opacity:1.0; 
stroke:#000000; stroke-width:0; stroke-opacity:1; 
stroke-linecap:round; stroke-linejoin:round;fill-rule:evenodd;"
d="M 7893.51,-34753.5
7903.06,-34752
7912.43,-34749.7
7921.52,-34746.4
7930.26,-34742.3
7938.54,-34737.3
7946.3,-34731.6
7953.46,-34725.1
7959.94,-34718
7965.7,-34710.2
7970.66,-34701.9
7974.79,-34693.2
7978.05,-34684.1
7980.39,-34674.7
7981.81,-34665.2
7982.28,-34655.5
7982.28,-34360.2
7981.81,-34350.6
7980.39,-34341
7978.05,-34331.7
7974.79,-34322.6
7970.66,-34313.8
7965.7,-34305.6
7959.94,-34297.8
7953.46,-34290.6
7946.3,-34284.2
7938.54,-34278.4
7930.26,-34273.4
7921.52,-34269.3
7912.43,-34266
7903.06,-34263.7
7893.51,-34262.3
7883.86,-34261.8
7391.73,-34261.8
7382.09,-34262.3
7372.53,-34263.7
7363.16,-34266
7354.07,-34269.3
7345.34,-34273.4
7337.05,-34278.4
7329.29,-34284.2
7322.14,-34290.6
7315.65,-34297.8
7309.89,-34305.6
7304.93,-34313.8
7300.8,-34322.6
7297.55,-34331.7
7295.2,-34341
7293.78,-34350.6
7293.31,-34360.2
7293.31,-34655.5
7293.78,-34665.2
7295.2,-34674.7
7297.55,-34684.1
7300.8,-34693.2
7304.93,-34701.9
7309.89,-34710.2
7315.65,-34718
7322.14,-34725.1
7329.29,-34731.6
7337.05,-34737.3
7345.34,-34742.3
7354.07,-34746.4
7363.16,-34749.7
7372.53,-34752
7382.09,-34753.5
7391.73,-34753.9
7883.86,-34753.9
Z" /> 
</g>
<g >
</g>
<g style="fill:#000000; fill-opacity:1.0; 
stroke:#000000; stroke-width:0; stroke-opacity:1; 
stroke-linecap:round; stroke-linejoin:round;">
<circle cx="17017.7" cy="-30956.7" r="334.646" /> 
<circle cx="16017.7" cy="-31956.7" r="334.646" /> 
<circle cx="16017.7" cy="-30956.7" r="334.646" /> 
<path style="fill:#000000; fill-opacity:1.0; 
stroke:#000000; stroke-width:0; stroke-opacity:1; 
stroke-linecap:round; stroke-linejoin:round;fill-rule:evenodd;"
d="M 15352.4,-30622
14683.1,-30622
14683.1,-31291.3
15352.4,-31291.3
Z" /> 
</g>
<g >
</g>
<g style="fill:#000000; fill-opacity:1.0; 
stroke:#000000; stroke-width:0; stroke-opacity:1; 
stroke-linecap:round; stroke-linejoin:round;">
<circle cx="19129.9" cy="-30956.7" r="334.646" /> 
<circle cx="20129.9" cy="-30956.7" r="334.646" /> 
<circle cx="19129.9" cy="-31956.7" r="334.646" /> 
<circle cx="20129.9" cy="-31956.7" r="334.646" /> 
<circle cx="19129.9" cy="-32956.7" r="334.646" /> 
<circle cx="20129.9" cy="-32956.7" r="334.646" /> 
<circle cx="19129.9" cy="-33956.7" r="334.646" /> 
<path style="fill:#000000; fill-opacity:1.0; 
stroke:#000000; stroke-width:0; stroke-opacity:1; 
stroke-linecap:round; stroke-linejoin:round;fill-rule:evenodd;"
d="M 20464.6,-34291.3
20464.6,-33622
19795.3,-33622
19795.3,-34291.3
Z" /> 
</g>
<g >
</g>
<g style="fill:#000000; fill-opacity:1.0; 
stroke:#000000; stroke-width:0; stroke-opacity:1; 
stroke-linecap:round; stroke-linejoin:round;">
<path style="fill:#000000; fill-opacity:1.0; 
stroke:#000000; stroke-width:0; stroke-opacity:1; 
stroke-linecap:round; stroke-linejoin:round;fill-rule:evenodd;"
d="M 14887.6,-33601.9
14897.2,-33600.5
14906.5,-33598.1
14915.6,-33594.9
14924.4,-33590.7
14932.6,-33585.8
14940.4,-33580
14947.6,-33573.5
14954,-33566.4
14959.8,-33558.6
14964.8,-33550.3
14968.9,-33541.6
14972.1,-33532.5
14974.5,-33523.1
14975.9,-33513.6
14976.4,-33503.9
14976.4,-33179.1
14975.9,-33169.5
14974.5,-33159.9
14972.1,-33150.6
14968.9,-33141.5
14964.8,-33132.7
14959.8,-33124.5
14954,-33116.7
14947.6,-33109.5
14940.4,-33103.1
14932.6,-33097.3
14924.4,-33092.3
14915.6,-33088.2
14906.5,-33084.9
14897.2,-33082.6
14887.6,-33081.2
14878,-33080.7
14366.1,-33080.7
14356.5,-33081.2
14346.9,-33082.6
14337.6,-33084.9
14328.5,-33088.2
14319.7,-33092.3
14311.5,-33097.3
14303.7,-33103.1
14296.5,-33109.5
14290.1,-33116.7
14284.3,-33124.5
14279.3,-33132.7
14275.2,-33141.5
14272,-33150.6
14269.6,-33159.9
14268.2,-33169.5
14267.7,-33179.1
14267.7,-33503.9
14268.2,-33513.6
14269.6,-33523.1
14272,-33532.5
14275.2,-33541.6
14279.3,-33550.3
14284.3,-33558.6
14290.1,-33566.4
14296.5,-33573.5
14303.7,-33580
14311.5,-33585.8
14319.7,-33590.7
14328.5,-33594.9
14337.6,-33598.1
14346.9,-33600.5
14356.5,-33601.9
14366.1,-33602.4
14878,-33602.4
Z" /> 
<path style="fill:#000000; fill-opacity:1.0; 
stroke:#000000; stroke-width:0; stroke-opacity:1; 
stroke-linecap:round; stroke-linejoin:round;fill-rule:evenodd;"
d="M 14887.6,-34832.2
14897.2,-34830.8
14906.5,-34828.4
14915.6,-34825.2
14924.4,-34821.1
14932.6,-34816.1
14940.4,-34810.3
14947.6,-34803.8
14954,-34796.7
14959.8,-34788.9
14964.8,-34780.7
14968.9,-34771.9
14972.1,-34762.8
14974.5,-34753.5
14975.9,-34743.9
14976.4,-34734.3
14976.4,-34409.4
14975.9,-34399.8
14974.5,-34390.2
14972.1,-34380.9
14968.9,-34371.8
14964.8,-34363.1
14959.8,-34354.8
14954,-34347
14947.6,-34339.9
14940.4,-34333.4
14932.6,-34327.6
14924.4,-34322.6
14915.6,-34318.5
14906.5,-34315.3
14897.2,-34312.9
14887.6,-34311.5
14878,-34311
14366.1,-34311
14356.5,-34311.5
14346.9,-34312.9
14337.6,-34315.3
14328.5,-34318.5
14319.7,-34322.6
14311.5,-34327.6
14303.7,-34333.4
14296.5,-34339.9
14290.1,-34347
14284.3,-34354.8
14279.3,-34363.1
14275.2,-34371.8
14272,-34380.9
14269.6,-34390.2
14268.2,-34399.8
14267.7,-34409.4
14267.7,-34734.3
14268.2,-34743.9
14269.6,-34753.5
14272,-34762.8
14275.2,-34771.9
14279.3,-34780.7
14284.3,-34788.9
14290.1,-34796.7
14296.5,-34803.8
14303.7,-34810.3
14311.5,-34816.1
14319.7,-34821.1
14328.5,-34825.2
14337.6,-34828.4
14346.9,-34830.8
14356.5,-34832.2
14366.1,-34832.7
14878,-34832.7
Z" /> 
</g>
<g >
</g>
<g style="fill:#000000; fill-opacity:1.0; 
stroke:#000000; stroke-width:0; stroke-opacity:1; 
stroke-linecap:round; stroke-linejoin:round;">
<path style="fill:#000000; fill-opacity:1.0; 
stroke:#000000; stroke-width:0; stroke-opacity:1; 
stroke-linecap:round; stroke-linejoin:round;fill-rule:evenodd;"
d="M 11519.7,-29322.8
10929.1,-29322.8
10929.1,-30110.2
11519.7,-30110.2
Z" /> 
<path style="fill:#000000; fill-opacity:1.0; 
stroke:#000000; stroke-width:0; stroke-opacity:1; 
stroke-linecap:round; stroke-linejoin:round;fill-rule:evenodd;"
d="M 13330.7,-29322.8
12740.2,-29322.8
12740.2,-30110.2
13330.7,-30110.2
Z" /> 
<path style="fill:#000000; fill-opacity:1.0; 
stroke:#000000; stroke-width:0; stroke-opacity:1; 
stroke-linecap:round; stroke-linejoin:round;fill-rule:evenodd;"
d="M 12425.2,-29322.8
11834.6,-29322.8
11834.6,-30110.2
12425.2,-30110.2
Z" /> 
<path style="fill:#000000; fill-opacity:1.0; 
stroke:#000000; stroke-width:0; stroke-opacity:1; 
stroke-linecap:round; stroke-linejoin:round;fill-rule:evenodd;"
d="M 12878,-31803.1
11381.9,-31803.1
11381.9,-32590.6
12878,-32590.6
Z" /> 
</g>
<g >
</g>
<g style="fill:#000000; fill-opacity:1.0; 
stroke:#000000; stroke-width:0; stroke-opacity:1; 
stroke-linecap:round; stroke-linejoin:round;">
<path style="fill:#000000; fill-opacity:1.0; 
stroke:#000000; stroke-width:0; stroke-opacity:1; 
stroke-linecap:round; stroke-linejoin:round;fill-rule:evenodd;"
d="M 8519.69,-29322.8
7929.13,-29322.8
7929.13,-30110.2
8519.69,-30110.2
Z" /> 
<path style="fill:#000000; fill-opacity:1.0; 
stroke:#000000; stroke-width:0; stroke-opacity:1; 
stroke-linecap:round; stroke-linejoin:round;fill-rule:evenodd;"
d="M 10330.7,-29322.8
9740.16,-29322.8
9740.16,-30110.2
10330.7,-30110.2
Z" /> 
<path style="fill:#000000; fill-opacity:1.0; 
stroke:#000000; stroke-width:0; stroke-opacity:1; 
stroke-linecap:round; stroke-linejoin:round;fill-rule:evenodd;"
d="M 9425.2,-29322.8
8834.65,-29322.8
8834.65,-30110.2
9425.2,-30110.2
Z" /> 
<path style="fill:#000000; fill-opacity:1.0; 
stroke:#000000; stroke-width:0; stroke-opacity:1; 
stroke-linecap:round; stroke-linejoin:round;fill-rule:evenodd;"
d="M 9877.95,-31803.1
8381.89,-31803.1
8381.89,-32590.6
9877.95,-32590.6
Z" /> 
</g>
<g >
</g>
<g >
</g>
<g >
</g>
<g style="fill:#000000; fill-opacity:1.0; 
stroke:#000000; stroke-width:0; stroke-opacity:1; 
stroke-linecap:round; stroke-linejoin:round;">
<circle cx="13829.9" cy="-32456.7" r="157.48" /> 
</g>
<g style="fill:#000000; fill-opacity:1.0; 
stroke:#000000; stroke-width:39.3701; stroke-opacity:1; 
stroke-linecap:round; stroke-linejoin:round;">
</g>
<g style="fill:#000000; fill-opacity:1.0; 
stroke:#000000; stroke-width:0; stroke-opacity:1; 
stroke-linecap:round; stroke-linejoin:round;">
<circle cx="6879.92" cy="-32206.7" r="157.48" /> 
</g>
<g style="fill:#000000; fill-opacity:1.0; 
stroke:#000000; stroke-width:39.3701; stroke-opacity:1; 
stroke-linecap:round; stroke-linejoin:round;">
</g>
<g style="fill:#000000; fill-opacity:1.0; 
stroke:#000000; stroke-width:0; stroke-opacity:1; 
stroke-linecap:round; stroke-linejoin:round;">
<circle cx="8129.92" cy="-30956.7" r="157.48" /> 
</g>
<g style="fill:#000000; fill-opacity:1.0; 
stroke:#000000; stroke-width:39.3701; stroke-opacity:1; 
stroke-linecap:round; stroke-linejoin:round;">
</g>
<g style="fill:#000000; fill-opacity:1.0; 
stroke:#000000; stroke-width:0; stroke-opacity:1; 
stroke-linecap:round; stroke-linejoin:round;">
<circle cx="9129.92" cy="-30956.7" r="157.48" /> 
</g>
<g style="fill:#000000; fill-opacity:1.0; 
stroke:#000000; stroke-width:39.3701; stroke-opacity:1; 
stroke-linecap:round; stroke-linejoin:round;">
</g>
<g style="fill:#000000; fill-opacity:1.0; 
stroke:#000000; stroke-width:0; stroke-opacity:1; 
stroke-linecap:round; stroke-linejoin:round;">
<circle cx="8629.92" cy="-30956.7" r="157.48" /> 
</g>
<g style="fill:#000000; fill-opacity:1.0; 
stroke:#000000; stroke-width:39.3701; stroke-opacity:1; 
stroke-linecap:round; stroke-linejoin:round;">
</g>
<g style="fill:#000000; fill-opacity:1.0; 
stroke:#000000; stroke-width:0; stroke-opacity:1; 
stroke-linecap:round; stroke-linejoin:round;">
<circle cx="8129.92" cy="-30456.7" r="157.48" /> 
</g>
<g style="fill:#000000; fill-opacity:1.0; 
stroke:#000000; stroke-width:39.3701; stroke-opacity:1; 
stroke-linecap:round; stroke-linejoin:round;">
</g>
<g style="fill:#000000; fill-opacity:1.0; 
stroke:#000000; stroke-width:0; stroke-opacity:1; 
stroke-linecap:round; stroke-linejoin:round;">
<circle cx="8629.92" cy="-31456.7" r="157.48" /> 
</g>
<g style="fill:#000000; fill-opacity:1.0; 
stroke:#000000; stroke-width:39.3701; stroke-opacity:1; 
stroke-linecap:round; stroke-linejoin:round;">
</g>
<g style="fill:#000000; fill-opacity:1.0; 
stroke:#000000; stroke-width:0; stroke-opacity:1; 
stroke-linecap:round; stroke-linejoin:round;">
<circle cx="9129.92" cy="-30456.7" r="157.48" /> 
</g>
<g style="fill:#000000; fill-opacity:1.0; 
stroke:#000000; stroke-width:39.3701; stroke-opacity:1; 
stroke-linecap:round; stroke-linejoin:round;">
</g>
<g style="fill:#000000; fill-opacity:1.0; 
stroke:#000000; stroke-width:0; stroke-opacity:1; 
stroke-linecap:round; stroke-linejoin:round;">
<circle cx="10129.9" cy="-31456.7" r="157.48" /> 
</g>
<g style="fill:#000000; fill-opacity:1.0; 
stroke:#000000; stroke-width:39.3701; stroke-opacity:1; 
stroke-linecap:round; stroke-linejoin:round;">
</g>
<g style="fill:#000000; fill-opacity:1.0; 
stroke:#000000; stroke-width:0; stroke-opacity:1; 
stroke-linecap:round; stroke-linejoin:round;">
<circle cx="12629.9" cy="-30956.7" r="157.48" /> 
</g>
<g style="fill:#000000; fill-opacity:1.0; 
stroke:#000000; stroke-width:39.3701; stroke-opacity:1; 
stroke-linecap:round; stroke-linejoin:round;">
</g>
<g style="fill:#000000; fill-opacity:1.0; 
stroke:#000000; stroke-width:0; stroke-opacity:1; 
stroke-linecap:round; stroke-linejoin:round;">
<circle cx="10129.9" cy="-30956.7" r="157.48" /> 
</g>
<g style="fill:#000000; fill-opacity:1.0; 
stroke:#000000; stroke-width:39.3701; stroke-opacity:1; 
stroke-linecap:round; stroke-linejoin:round;">
</g>
<g style="fill:#000000; fill-opacity:1.0; 
stroke:#000000; stroke-width:0; stroke-opacity:1; 
stroke-linecap:round; stroke-linejoin:round;">
<circle cx="8629.92" cy="-30456.7" r="157.48" /> 
</g>
<g style="fill:#000000; fill-opacity:1.0; 
stroke:#000000; stroke-width:39.3701; stroke-opacity:1; 
stroke-linecap:round; stroke-linejoin:round;">
</g>
<g style="fill:#000000; fill-opacity:1.0; 
stroke:#000000; stroke-width:0; stroke-opacity:1; 
stroke-linecap:round; stroke-linejoin:round;">
<circle cx="12129.9" cy="-30456.7" r="157.48" /> 
</g>
<g style="fill:#000000; fill-opacity:1.0; 
stroke:#000000; stroke-width:39.3701; stroke-opacity:1; 
stroke-linecap:round; stroke-linejoin:round;">
</g>
<g style="fill:#000000; fill-opacity:1.0; 
stroke:#000000; stroke-width:0; stroke-opacity:1; 
stroke-linecap:round; stroke-linejoin:round;">
<circle cx="11629.9" cy="-30456.7" r="157.48" /> 
</g>
<g style="fill:#000000; fill-opacity:1.0; 
stroke:#000000; stroke-width:39.3701; stroke-opacity:1; 
stroke-linecap:round; stroke-linejoin:round;">
</g>
<g style="fill:#000000; fill-opacity:1.0; 
stroke:#000000; stroke-width:0; stroke-opacity:1; 
stroke-linecap:round; stroke-linejoin:round;">
<circle cx="12129.9" cy="-30956.7" r="157.48" /> 
</g>
<g style="fill:#000000; fill-opacity:1.0; 
stroke:#000000; stroke-width:39.3701; stroke-opacity:1; 
stroke-linecap:round; stroke-linejoin:round;">
</g>
<g style="fill:#000000; fill-opacity:1.0; 
stroke:#000000; stroke-width:0; stroke-opacity:1; 
stroke-linecap:round; stroke-linejoin:round;">
<circle cx="10129.9" cy="-30456.7" r="157.48" /> 
</g>
<g style="fill:#000000; fill-opacity:1.0; 
stroke:#000000; stroke-width:39.3701; stroke-opacity:1; 
stroke-linecap:round; stroke-linejoin:round;">
</g>
<g style="fill:#000000; fill-opacity:1.0; 
stroke:#000000; stroke-width:0; stroke-opacity:1; 
stroke-linecap:round; stroke-linejoin:round;">
<circle cx="12629.9" cy="-30456.7" r="157.48" /> 
</g>
<g style="fill:#000000; fill-opacity:1.0; 
stroke:#000000; stroke-width:39.3701; stroke-opacity:1; 
stroke-linecap:round; stroke-linejoin:round;">
</g>
<g style="fill:#000000; fill-opacity:1.0; 
stroke:#000000; stroke-width:0; stroke-opacity:1; 
stroke-linecap:round; stroke-linejoin:round;">
<circle cx="11129.9" cy="-31456.7" r="157.48" /> 
</g>
<g style="fill:#000000; fill-opacity:1.0; 
stroke:#000000; stroke-width:39.3701; stroke-opacity:1; 
stroke-linecap:round; stroke-linejoin:round;">
</g>
<g style="fill:#000000; fill-opacity:1.0; 
stroke:#000000; stroke-width:0; stroke-opacity:1; 
stroke-linecap:round; stroke-linejoin:round;">
<circle cx="12129.9" cy="-31456.7" r="157.48" /> 
</g>
<g style="fill:#000000; fill-opacity:1.0; 
stroke:#000000; stroke-width:39.3701; stroke-opacity:1; 
stroke-linecap:round; stroke-linejoin:round;">
</g>
<g style="fill:#000000; fill-opacity:1.0; 
stroke:#000000; stroke-width:0; stroke-opacity:1; 
stroke-linecap:round; stroke-linejoin:round;">
<circle cx="11129.9" cy="-30956.7" r="157.48" /> 
</g>
<g style="fill:#000000; fill-opacity:1.0; 
stroke:#000000; stroke-width:39.3701; stroke-opacity:1; 
stroke-linecap:round; stroke-linejoin:round;">
</g>
<g style="fill:#000000; fill-opacity:1.0; 
stroke:#000000; stroke-width:0; stroke-opacity:1; 
stroke-linecap:round; stroke-linejoin:round;">
<circle cx="13129.9" cy="-30956.7" r="157.48" /> 
</g>
<g style="fill:#000000; fill-opacity:1.0; 
stroke:#000000; stroke-width:39.3701; stroke-opacity:1; 
stroke-linecap:round; stroke-linejoin:round;">
</g>
<g style="fill:#000000; fill-opacity:1.0; 
stroke:#000000; stroke-width:0; stroke-opacity:1; 
stroke-linecap:round; stroke-linejoin:round;">
<circle cx="9629.92" cy="-30456.7" r="157.48" /> 
</g>
<g style="fill:#000000; fill-opacity:1.0; 
stroke:#000000; stroke-width:39.3701; stroke-opacity:1; 
stroke-linecap:round; stroke-linejoin:round;">
</g>
<g style="fill:#000000; fill-opacity:1.0; 
stroke:#000000; stroke-width:0; stroke-opacity:1; 
stroke-linecap:round; stroke-linejoin:round;">
<circle cx="9629.92" cy="-30956.7" r="157.48" /> 
</g>
<g style="fill:#000000; fill-opacity:1.0; 
stroke:#000000; stroke-width:39.3701; stroke-opacity:1; 
stroke-linecap:round; stroke-linejoin:round;">
</g>
<g style="fill:#000000; fill-opacity:1.0; 
stroke:#000000; stroke-width:0; stroke-opacity:1; 
stroke-linecap:round; stroke-linejoin:round;">
<circle cx="9629.92" cy="-31456.7" r="157.48" /> 
</g>
<g style="fill:#000000; fill-opacity:1.0; 
stroke:#000000; stroke-width:39.3701; stroke-opacity:1; 
stroke-linecap:round; stroke-linejoin:round;">
</g>
<g style="fill:#000000; fill-opacity:1.0; 
stroke:#000000; stroke-width:0; stroke-opacity:1; 
stroke-linecap:round; stroke-linejoin:round;">
<circle cx="8129.92" cy="-31456.7" r="157.48" /> 
</g>
<g style="fill:#000000; fill-opacity:1.0; 
stroke:#000000; stroke-width:39.3701; stroke-opacity:1; 
stroke-linecap:round; stroke-linejoin:round;">
</g>
<g style="fill:#000000; fill-opacity:1.0; 
stroke:#000000; stroke-width:0; stroke-opacity:1; 
stroke-linecap:round; stroke-linejoin:round;">
<circle cx="9129.92" cy="-31456.7" r="157.48" /> 
</g>
<g style="fill:#000000; fill-opacity:1.0; 
stroke:#000000; stroke-width:39.3701; stroke-opacity:1; 
stroke-linecap:round; stroke-linejoin:round;">
</g>
<g style="fill:#000000; fill-opacity:1.0; 
stroke:#000000; stroke-width:0; stroke-opacity:1; 
stroke-linecap:round; stroke-linejoin:round;">
<circle cx="12629.9" cy="-31456.7" r="157.48" /> 
</g>
<g style="fill:#000000; fill-opacity:1.0; 
stroke:#000000; stroke-width:39.3701; stroke-opacity:1; 
stroke-linecap:round; stroke-linejoin:round;">
</g>
<g style="fill:#000000; fill-opacity:1.0; 
stroke:#000000; stroke-width:0; stroke-opacity:1; 
stroke-linecap:round; stroke-linejoin:round;">
<circle cx="11129.9" cy="-30456.7" r="157.48" /> 
</g>
<g style="fill:#000000; fill-opacity:1.0; 
stroke:#000000; stroke-width:39.3701; stroke-opacity:1; 
stroke-linecap:round; stroke-linejoin:round;">
</g>
<g style="fill:#000000; fill-opacity:1.0; 
stroke:#000000; stroke-width:0; stroke-opacity:1; 
stroke-linecap:round; stroke-linejoin:round;">
<circle cx="11629.9" cy="-31456.7" r="157.48" /> 
</g>
<g style="fill:#000000; fill-opacity:1.0; 
stroke:#000000; stroke-width:39.3701; stroke-opacity:1; 
stroke-linecap:round; stroke-linejoin:round;">
</g>
<g style="fill:#000000; fill-opacity:1.0; 
stroke:#000000; stroke-width:0; stroke-opacity:1; 
stroke-linecap:round; stroke-linejoin:round;">
<circle cx="13129.9" cy="-30456.7" r="157.48" /> 
</g>
<g style="fill:#000000; fill-opacity:1.0; 
stroke:#000000; stroke-width:39.3701; stroke-opacity:1; 
stroke-linecap:round; stroke-linejoin:round;">
</g>
<g style="fill:#000000; fill-opacity:1.0; 
stroke:#000000; stroke-width:0; stroke-opacity:1; 
stroke-linecap:round; stroke-linejoin:round;">
<circle cx="11629.9" cy="-30956.7" r="157.48" /> 
</g>
<g style="fill:#000000; fill-opacity:1.0; 
stroke:#000000; stroke-width:39.3701; stroke-opacity:1; 
stroke-linecap:round; stroke-linejoin:round;">
</g>
<g style="fill:#000000; fill-opacity:1.0; 
stroke:#000000; stroke-width:0; stroke-opacity:1; 
stroke-linecap:round; stroke-linejoin:round;">
<circle cx="13129.9" cy="-31456.7" r="157.48" /> 
</g>
<g style="fill:#000000; fill-opacity:1.0; 
stroke:#000000; stroke-width:39.3701; stroke-opacity:1; 
stroke-linecap:round; stroke-linejoin:round;">
</g>
<g >
</g>
<g style="fill:#000000; fill-opacity:1.0; 
stroke:#000000; stroke-width:39.3701; stroke-opacity:1; 
stroke-linecap:round; stroke-linejoin:round;">
</g>
<g style="fill:#000000; fill-opacity:1.0; 
stroke:#000000; stroke-width:196.85; stroke-opacity:1; 
stroke-linecap:round; stroke-linejoin:round;">
</g>
<g style="fill:#000000; fill-opacity:0.0; 
stroke:#000000; stroke-width:196.85; stroke-opacity:1; 
stroke-linecap:round; stroke-linejoin:round;">
<path d="M7929 -28956
L7429 -29456
" />
<path d="M12129 -32196
L12129 -32456
" />
<path d="M16629 -35256
L16629 -36748
" />
<path d="M12470 -32196
L12129 -32196
" />
<path d="M18879 -36748
L18879 -35756
" />
<path d="M10129 -33346
L9181 -33346
" />
<path d="M13686 -34571
L13622 -34507
" />
<path d="M18879 -35756
L17017 -33894
" />
<path d="M15945 -34571
L16629 -35256
" />
<path d="M14622 -34571
L13686 -34571
" />
<path d="M17017 -33894
L17017 -30956
" />
<path d="M12566 -34507
L12350 -34291
" />
<path d="M6879 -32206
L6879 -31737
" />
<path d="M9129 -32196
L8789 -32196
" />
<path d="M9181 -33346
L8905 -33622
" />
<path d="M16629 -36748
L18879 -36748
" />
<path d="M12350 -32677
L13334 -32677
" />
<path d="M12129 -32456
L12350 -32677
" />
<path d="M13334 -32677
L13622 -32964
" />
<path d="M13622 -32964
L13622 -33405
" />
<path d="M14622 -34571
L15945 -34571
" />
<path d="M13622 -34507
L12566 -34507
" />
<path d="M7637 -33405
L7637 -31948
" />
<path d="M7637 -31948
L8129 -31456
" />
<path d="M7841 -36568
L8153 -36256
" />
<path d="M5854 -32982
L5854 -34429
" />
<path d="M10035 -29162
L9829 -28956
" />
<path d="M9829 -28956
L7929 -28956
" />
<path d="M12074 -33346
L12350 -33622
" />
<path d="M13829 -29456
L13570 -29716
" />
<path d="M7637 -35070
L8023 -35456
" />
<path d="M13570 -29716
L13035 -29716
" />
<path d="M14264 -30021
L13829 -30456
" />
<path d="M14264 -29456
L13829 -29456
" />
<path d="M6358 -32478
L5854 -32982
" />
<path d="M11129 -33346
L12074 -33346
" />
</g>
<g style="fill:#000000; fill-opacity:0.0; 
stroke:#000000; stroke-width:393.701; stroke-opacity:1; 
stroke-linecap:round; stroke-linejoin:round;">
<path d="M5079 -33506
L5358 -33228
" />
</g>
<g style="fill:#000000; fill-opacity:0.0; 
stroke:#000000; stroke-width:196.85; stroke-opacity:1; 
stroke-linecap:round; stroke-linejoin:round;">
<path d="M10035 -29716
L10035 -29162
" />
<path d="M14264 -29456
L14264 -30021
" />
<path d="M13829 -30456
L13829 -32456
" />
<path d="M10921 -36748
L12129 -36748
" />
<path d="M7841 -37256
L7841 -36568
" />
<path d="M6879 -31737
L6995 -31621
" />
<path d="M6358 -32478
L6358 -30956
" />
<path d="M8023 -35456
L13879 -35456
" />
</g>
<g style="fill:#000000; fill-opacity:0.0; 
stroke:#000000; stroke-width:295.276; stroke-opacity:1; 
stroke-linecap:round; stroke-linejoin:round;">
<path d="M14379 -36748
L12129 -36748
" />
</g>
<g style="fill:#000000; fill-opacity:0.0; 
stroke:#000000; stroke-width:196.85; stroke-opacity:1; 
stroke-linecap:round; stroke-linejoin:round;">
<path d="M7637 -34507
L8688 -34507
" />
<path d="M5997 -34571
L6637 -34571
" />
<path d="M6701 -34507
L6637 -34571
" />
<path d="M6995 -29456
L6995 -31621
" />
<path d="M7429 -29456
L6995 -29456
" />
<path d="M6637 -34571
L7573 -34571
" />
<path d="M8153 -36256
L10429 -36256
" />
<path d="M7573 -34571
L7637 -34507
" />
<path d="M5854 -34429
L5997 -34571
" />
<path d="M13879 -35456
L14379 -35956
" />
<path d="M10429 -36256
L10921 -36748
" />
<path d="M7637 -34507
L7637 -35070
" />
<path d="M8688 -34507
L8905 -34291
" />
</g>
<g style="fill:#000000; fill-opacity:0.0; 
stroke:#000000; stroke-width:393.701; stroke-opacity:1; 
stroke-linecap:round; stroke-linejoin:round;">
<path d="M5079 -34719
L5079 -33506
" />
</g>
<g style="fill:#000000; fill-opacity:0.0; 
stroke:#000000; stroke-width:196.85; stroke-opacity:1; 
stroke-linecap:round; stroke-linejoin:round;">
<path d="M14379 -35956
L14379 -36748
" />
</g>
<g style="fill:#000000; fill-opacity:0.0; 
stroke:#000000; stroke-width:393.701; stroke-opacity:1; 
stroke-linecap:round; stroke-linejoin:round;">
<path d="M5358 -33228
L5358 -31956
" />
</g>
<g >
</g>
<g style="fill:#000000; fill-opacity:0.0; 
stroke:#000000; stroke-width:393.701; stroke-opacity:1; 
stroke-linecap:round; stroke-linejoin:round;">
<g >
</g>
<g style="fill:#000000; fill-opacity:1.0; 
stroke:#000000; stroke-width:98.4252; stroke-opacity:1; 
stroke-linecap:round; stroke-linejoin:round;">
<path style="fill:#000000; fill-opacity:1.0; 
stroke:#000000; stroke-width:98.4252; stroke-opacity:1; 
stroke-linecap:round; stroke-linejoin:round;fill-rule:evenodd;"
d="M 11892.9,-30262.2
11896.5,-30258.6
11863.3,-30258.6
11866.9,-30262.2
11879.9,-30281.6
Z" /> 
<path style="fill:#000000; fill-opacity:1.0; 
stroke:#000000; stroke-width:98.4252; stroke-opacity:1; 
stroke-linecap:round; stroke-linejoin:round;fill-rule:evenodd;"
d="M 12392.9,-30262.2
12396.5,-30258.6
12363.3,-30258.6
12366.9,-30262.2
12379.9,-30281.6
Z" /> 
<path style="fill:#000000; fill-opacity:1.0; 
stroke:#000000; stroke-width:98.4252; stroke-opacity:1; 
stroke-linecap:round; stroke-linejoin:round;fill-rule:evenodd;"
d="M 13480.7,-31836.3
13480.7,-30477.1
13435,-30431.4
13435,-30486.7
13423.3,-30545.7
13400.3,-30601.2
13366.9,-30651.2
13324.4,-30693.7
13305,-30706.7
13324.4,-30719.7
13366.9,-30762.2
13400.3,-30812.2
13423.3,-30867.7
13435,-30926.6
13435,-30986.7
13423.3,-31045.7
13400.3,-31101.2
13366.9,-31151.2
13324.4,-31193.7
13305,-31206.7
13324.4,-31219.7
13366.9,-31262.2
13400.3,-31312.2
13423.3,-31367.7
13435,-31426.6
13435,-31486.7
13423.3,-31545.7
13400.3,-31601.2
13366.9,-31651.2
13324.4,-31693.7
13274.4,-31727.1
13218.9,-31750.1
13160,-31761.8
13099.9,-31761.8
13040.9,-31750.1
13010.2,-31737.4
13015,-31746.4
13023.5,-31774.2
13026.3,-31803.1
13026.3,-32207.5
13109.5,-32207.5
Z" /> 
<path style="fill:#000000; fill-opacity:1.0; 
stroke:#000000; stroke-width:98.4252; stroke-opacity:1; 
stroke-linecap:round; stroke-linejoin:round;fill-rule:evenodd;"
d="M 11233.5,-31803.1
11236.4,-31774.2
11244.8,-31746.4
11249.7,-31737.4
11218.9,-31750.1
11160,-31761.8
11099.9,-31761.8
11040.9,-31750.1
10985.4,-31727.1
10935.4,-31693.7
10892.9,-31651.2
10859.5,-31601.2
10836.5,-31545.7
10824.8,-31486.7
10824.8,-31426.6
10836.5,-31367.7
10859.5,-31312.2
10892.9,-31262.2
10935.4,-31219.7
10954.9,-31206.7
10935.4,-31193.7
10892.9,-31151.2
10859.5,-31101.2
10836.5,-31045.7
10824.8,-30986.7
10824.8,-30926.6
10836.5,-30867.7
10859.5,-30812.2
10892.9,-30762.2
10935.4,-30719.7
10954.9,-30706.7
10935.4,-30693.7
10892.9,-30651.2
10859.5,-30601.2
10836.5,-30545.7
10824.8,-30486.7
10824.8,-30431.4
10779.1,-30477.1
10779.1,-31836.3
11150.3,-32207.5
11233.5,-32207.5
Z" /> 
<path style="fill:#000000; fill-opacity:1.0; 
stroke:#000000; stroke-width:98.4252; stroke-opacity:1; 
stroke-linecap:round; stroke-linejoin:round;fill-rule:evenodd;"
d="M 11392.9,-30762.2
11435.4,-30719.7
11454.9,-30706.7
11435.4,-30693.7
11392.9,-30651.2
11379.9,-30631.7
11366.9,-30651.2
11324.4,-30693.7
11305,-30706.7
11324.4,-30719.7
11366.9,-30762.2
11379.9,-30781.6
Z" /> 
<path style="fill:#000000; fill-opacity:1.0; 
stroke:#000000; stroke-width:98.4252; stroke-opacity:1; 
stroke-linecap:round; stroke-linejoin:round;fill-rule:evenodd;"
d="M 11892.9,-30762.2
11935.4,-30719.7
11954.9,-30706.7
11935.4,-30693.7
11892.9,-30651.2
11879.9,-30631.7
11866.9,-30651.2
11824.4,-30693.7
11805,-30706.7
11824.4,-30719.7
11866.9,-30762.2
11879.9,-30781.6
Z" /> 
<path style="fill:#000000; fill-opacity:1.0; 
stroke:#000000; stroke-width:98.4252; stroke-opacity:1; 
stroke-linecap:round; stroke-linejoin:round;fill-rule:evenodd;"
d="M 12392.9,-30762.2
12435.4,-30719.7
12454.9,-30706.7
12435.4,-30693.7
12392.9,-30651.2
12379.9,-30631.7
12366.9,-30651.2
12324.4,-30693.7
12305,-30706.7
12324.4,-30719.7
12366.9,-30762.2
12379.9,-30781.6
Z" /> 
<path style="fill:#000000; fill-opacity:1.0; 
stroke:#000000; stroke-width:98.4252; stroke-opacity:1; 
stroke-linecap:round; stroke-linejoin:round;fill-rule:evenodd;"
d="M 12892.9,-30762.2
12935.4,-30719.7
12954.9,-30706.7
12935.4,-30693.7
12892.9,-30651.2
12879.9,-30631.7
12866.9,-30651.2
12824.4,-30693.7
12805,-30706.7
12824.4,-30719.7
12866.9,-30762.2
12879.9,-30781.6
Z" /> 
<path style="fill:#000000; fill-opacity:1.0; 
stroke:#000000; stroke-width:98.4252; stroke-opacity:1; 
stroke-linecap:round; stroke-linejoin:round;fill-rule:evenodd;"
d="M 11392.9,-31262.2
11435.4,-31219.7
11454.9,-31206.7
11435.4,-31193.7
11392.9,-31151.2
11379.9,-31131.7
11366.9,-31151.2
11324.4,-31193.7
11305,-31206.7
11324.4,-31219.7
11366.9,-31262.2
11379.9,-31281.6
Z" /> 
<path style="fill:#000000; fill-opacity:1.0; 
stroke:#000000; stroke-width:98.4252; stroke-opacity:1; 
stroke-linecap:round; stroke-linejoin:round;fill-rule:evenodd;"
d="M 11892.9,-31262.2
11935.4,-31219.7
11954.9,-31206.7
11935.4,-31193.7
11892.9,-31151.2
11879.9,-31131.7
11866.9,-31151.2
11824.4,-31193.7
11805,-31206.7
11824.4,-31219.7
11866.9,-31262.2
11879.9,-31281.6
Z" /> 
<path style="fill:#000000; fill-opacity:1.0; 
stroke:#000000; stroke-width:98.4252; stroke-opacity:1; 
stroke-linecap:round; stroke-linejoin:round;fill-rule:evenodd;"
d="M 12392.9,-31262.2
12435.4,-31219.7
12454.9,-31206.7
12435.4,-31193.7
12392.9,-31151.2
12379.9,-31131.7
12366.9,-31151.2
12324.4,-31193.7
12305,-31206.7
12324.4,-31219.7
12366.9,-31262.2
12379.9,-31281.6
Z" /> 
<path style="fill:#000000; fill-opacity:1.0; 
stroke:#000000; stroke-width:98.4252; stroke-opacity:1; 
stroke-linecap:round; stroke-linejoin:round;fill-rule:evenodd;"
d="M 12892.9,-31262.2
12935.4,-31219.7
12954.9,-31206.7
12935.4,-31193.7
12892.9,-31151.2
12879.9,-31131.7
12866.9,-31151.2
12824.4,-31193.7
12805,-31206.7
12824.4,-31219.7
12866.9,-31262.2
12879.9,-31281.6
Z" /> 
<path style="fill:#000000; fill-opacity:1.0; 
stroke:#000000; stroke-width:98.4252; stroke-opacity:1; 
stroke-linecap:round; stroke-linejoin:round;fill-rule:evenodd;"
d="M 12892.9,-31651.2
12879.9,-31631.7
12866.9,-31651.2
12863.3,-31654.8
12878,-31654.8
12898.6,-31656.8
Z" /> 
<path style="fill:#000000; fill-opacity:1.0; 
stroke:#000000; stroke-width:98.4252; stroke-opacity:1; 
stroke-linecap:round; stroke-linejoin:round;fill-rule:evenodd;"
d="M 11381.9,-31654.8
11396.5,-31654.8
11392.9,-31651.2
11379.9,-31631.7
11366.9,-31651.2
11361.3,-31656.8
Z" /> 
<path style="fill:#000000; fill-opacity:1.0; 
stroke:#000000; stroke-width:98.4252; stroke-opacity:1; 
stroke-linecap:round; stroke-linejoin:round;fill-rule:evenodd;"
d="M 11892.9,-31651.2
11879.9,-31631.7
11866.9,-31651.2
11863.3,-31654.8
11896.5,-31654.8
Z" /> 
<path style="fill:#000000; fill-opacity:1.0; 
stroke:#000000; stroke-width:98.4252; stroke-opacity:1; 
stroke-linecap:round; stroke-linejoin:round;fill-rule:evenodd;"
d="M 12392.9,-31651.2
12379.9,-31631.7
12366.9,-31651.2
12363.3,-31654.8
12396.5,-31654.8
Z" /> 
</g>
</g>
<g style="fill:#000000; fill-opacity:1.0; 
stroke:#000000; stroke-width:98.4252; stroke-opacity:1; 
stroke-linecap:round; stroke-linejoin:round;">
<g >
<path style="fill:#000000; fill-opacity:1.0; 
stroke:#000000; stroke-width:98.4252; stroke-opacity:1; 
stroke-linecap:round; stroke-linejoin:round;fill-rule:evenodd;"
d="M 8892.92,-30262.2
8896.52,-30258.6
8863.32,-30258.6
8866.92,-30262.2
8879.92,-30281.6
Z" /> 
<path style="fill:#000000; fill-opacity:1.0; 
stroke:#000000; stroke-width:98.4252; stroke-opacity:1; 
stroke-linecap:round; stroke-linejoin:round;fill-rule:evenodd;"
d="M 9392.92,-30262.2
9396.52,-30258.6
9363.32,-30258.6
9366.92,-30262.2
9379.92,-30281.6
Z" /> 
<path style="fill:#000000; fill-opacity:1.0; 
stroke:#000000; stroke-width:98.4252; stroke-opacity:1; 
stroke-linecap:round; stroke-linejoin:round;fill-rule:evenodd;"
d="M 7827.99,-31410.6
7836.53,-31367.7
7859.53,-31312.2
7892.92,-31262.2
7935.42,-31219.7
7954.87,-31206.7
7935.42,-31193.7
7892.92,-31151.2
7859.53,-31101.2
7836.53,-31045.7
7824.8,-30986.7
7824.8,-30926.6
7836.53,-30867.7
7859.53,-30812.2
7892.92,-30762.2
7935.42,-30719.7
7954.87,-30706.7
7935.42,-30693.7
7892.92,-30651.2
7859.53,-30601.2
7836.53,-30545.7
7824.8,-30486.7
7824.8,-30431.4
7779.13,-30477.1
7779.13,-31459.5
Z" /> 
<path style="fill:#000000; fill-opacity:1.0; 
stroke:#000000; stroke-width:98.4252; stroke-opacity:1; 
stroke-linecap:round; stroke-linejoin:round;fill-rule:evenodd;"
d="M 10480.7,-31836.3
10480.7,-30477.1
10435,-30431.4
10435,-30486.7
10423.3,-30545.7
10400.3,-30601.2
10366.9,-30651.2
10324.4,-30693.7
10305,-30706.7
10324.4,-30719.7
10366.9,-30762.2
10400.3,-30812.2
10423.3,-30867.7
10435,-30926.6
10435,-30986.7
10423.3,-31045.7
10400.3,-31101.2
10366.9,-31151.2
10324.4,-31193.7
10305,-31206.7
10324.4,-31219.7
10366.9,-31262.2
10400.3,-31312.2
10423.3,-31367.7
10435,-31426.6
10435,-31486.7
10423.3,-31545.7
10400.3,-31601.2
10366.9,-31651.2
10324.4,-31693.7
10274.4,-31727.1
10218.9,-31750.1
10160,-31761.8
10099.9,-31761.8
10040.9,-31750.1
10010.2,-31737.4
10015,-31746.4
10023.5,-31774.2
10026.3,-31803.1
10026.3,-32207.5
10109.5,-32207.5
Z" /> 
<path style="fill:#000000; fill-opacity:1.0; 
stroke:#000000; stroke-width:98.4252; stroke-opacity:1; 
stroke-linecap:round; stroke-linejoin:round;fill-rule:evenodd;"
d="M 8392.92,-30762.2
8435.42,-30719.7
8454.87,-30706.7
8435.42,-30693.7
8392.92,-30651.2
8379.92,-30631.7
8366.92,-30651.2
8324.42,-30693.7
8304.97,-30706.7
8324.42,-30719.7
8366.92,-30762.2
8379.92,-30781.6
Z" /> 
<path style="fill:#000000; fill-opacity:1.0; 
stroke:#000000; stroke-width:98.4252; stroke-opacity:1; 
stroke-linecap:round; stroke-linejoin:round;fill-rule:evenodd;"
d="M 8892.92,-30762.2
8935.42,-30719.7
8954.87,-30706.7
8935.42,-30693.7
8892.92,-30651.2
8879.92,-30631.7
8866.92,-30651.2
8824.42,-30693.7
8804.97,-30706.7
8824.42,-30719.7
8866.92,-30762.2
8879.92,-30781.6
Z" /> 
<path style="fill:#000000; fill-opacity:1.0; 
stroke:#000000; stroke-width:98.4252; stroke-opacity:1; 
stroke-linecap:round; stroke-linejoin:round;fill-rule:evenodd;"
d="M 9392.92,-30762.2
9435.42,-30719.7
9454.87,-30706.7
9435.42,-30693.7
9392.92,-30651.2
9379.92,-30631.7
9366.92,-30651.2
9324.42,-30693.7
9304.97,-30706.7
9324.42,-30719.7
9366.92,-30762.2
9379.92,-30781.6
Z" /> 
<path style="fill:#000000; fill-opacity:1.0; 
stroke:#000000; stroke-width:98.4252; stroke-opacity:1; 
stroke-linecap:round; stroke-linejoin:round;fill-rule:evenodd;"
d="M 9892.92,-30762.2
9935.42,-30719.7
9954.87,-30706.7
9935.42,-30693.7
9892.92,-30651.2
9879.92,-30631.7
9866.92,-30651.2
9824.42,-30693.7
9804.97,-30706.7
9824.42,-30719.7
9866.92,-30762.2
9879.92,-30781.6
Z" /> 
<path style="fill:#000000; fill-opacity:1.0; 
stroke:#000000; stroke-width:98.4252; stroke-opacity:1; 
stroke-linecap:round; stroke-linejoin:round;fill-rule:evenodd;"
d="M 9392.92,-31262.2
9435.42,-31219.7
9454.87,-31206.7
9435.42,-31193.7
9392.92,-31151.2
9379.92,-31131.7
9366.92,-31151.2
9324.42,-31193.7
9304.97,-31206.7
9324.42,-31219.7
9366.92,-31262.2
9379.92,-31281.6
Z" /> 
<path style="fill:#000000; fill-opacity:1.0; 
stroke:#000000; stroke-width:98.4252; stroke-opacity:1; 
stroke-linecap:round; stroke-linejoin:round;fill-rule:evenodd;"
d="M 8392.92,-31262.2
8435.42,-31219.7
8454.87,-31206.7
8435.42,-31193.7
8392.92,-31151.2
8379.92,-31131.7
8366.92,-31151.2
8324.42,-31193.7
8304.97,-31206.7
8324.42,-31219.7
8366.92,-31262.2
8379.92,-31281.6
Z" /> 
<path style="fill:#000000; fill-opacity:1.0; 
stroke:#000000; stroke-width:98.4252; stroke-opacity:1; 
stroke-linecap:round; stroke-linejoin:round;fill-rule:evenodd;"
d="M 9892.92,-31262.2
9935.42,-31219.7
9954.87,-31206.7
9935.42,-31193.7
9892.92,-31151.2
9879.92,-31131.7
9866.92,-31151.2
9824.42,-31193.7
9804.97,-31206.7
9824.42,-31219.7
9866.92,-31262.2
9879.92,-31281.6
Z" /> 
<path style="fill:#000000; fill-opacity:1.0; 
stroke:#000000; stroke-width:98.4252; stroke-opacity:1; 
stroke-linecap:round; stroke-linejoin:round;fill-rule:evenodd;"
d="M 8892.92,-31262.2
8935.42,-31219.7
8954.87,-31206.7
8935.42,-31193.7
8892.92,-31151.2
8879.92,-31131.7
8866.92,-31151.2
8824.42,-31193.7
8804.97,-31206.7
8824.42,-31219.7
8866.92,-31262.2
8879.92,-31281.6
Z" /> 
<path style="fill:#000000; fill-opacity:1.0; 
stroke:#000000; stroke-width:98.4252; stroke-opacity:1; 
stroke-linecap:round; stroke-linejoin:round;fill-rule:evenodd;"
d="M 9392.92,-31651.2
9379.92,-31631.7
9366.92,-31651.2
9363.32,-31654.8
9396.52,-31654.8
Z" /> 
<path style="fill:#000000; fill-opacity:1.0; 
stroke:#000000; stroke-width:98.4252; stroke-opacity:1; 
stroke-linecap:round; stroke-linejoin:round;fill-rule:evenodd;"
d="M 9892.92,-31651.2
9879.92,-31631.7
9866.92,-31651.2
9863.32,-31654.8
9877.95,-31654.8
9898.55,-31656.8
Z" /> 
<path style="fill:#000000; fill-opacity:1.0; 
stroke:#000000; stroke-width:98.4252; stroke-opacity:1; 
stroke-linecap:round; stroke-linejoin:round;fill-rule:evenodd;"
d="M 8892.92,-31651.2
8879.92,-31631.7
8866.92,-31651.2
8863.32,-31654.8
8896.52,-31654.8
Z" /> 
<path style="fill:#000000; fill-opacity:1.0; 
stroke:#000000; stroke-width:98.4252; stroke-opacity:1; 
stroke-linecap:round; stroke-linejoin:round;fill-rule:evenodd;"
d="M 8381.89,-31654.8
8396.52,-31654.8
8392.92,-31651.2
8379.92,-31631.7
8366.92,-31651.2
8361.29,-31656.8
Z" /> 
<path style="fill:#000000; fill-opacity:1.0; 
stroke:#000000; stroke-width:98.4252; stroke-opacity:1; 
stroke-linecap:round; stroke-linejoin:round;fill-rule:evenodd;"
d="M 8233.54,-31803.1
8236.39,-31774.2
8244.83,-31746.4
8249.65,-31737.4
8218.92,-31750.1
8175.97,-31758.6
7938.71,-31995.9
8150.31,-32207.5
8233.54,-32207.5
Z" /> 
</g>
</g>
<g style="fill:#000000; fill-opacity:1.0; 
stroke:#000000; stroke-width:98.4252; stroke-opacity:1; 
stroke-linecap:round; stroke-linejoin:round;">
<g >
</g>
<g style="fill:#000000; fill-opacity:1.0; 
stroke:#000000; stroke-width:100; stroke-opacity:1; 
stroke-linecap:round; stroke-linejoin:round;">
<path style="fill:#000000; fill-opacity:1.0; 
stroke:#000000; stroke-width:100; stroke-opacity:1; 
stroke-linecap:round; stroke-linejoin:round;fill-rule:evenodd;"
d="M 3844.57,-37421.3
3852.14,-37415.1
3860.79,-37410.5
3870.17,-37407.7
3879.92,-37406.7
5455.89,-37406.7
5629.92,-37189.2
5629.92,-35827.4
5581.09,-35778.6
5583.4,-35802
5583.4,-36786.2
5580.53,-36815.3
5572.04,-36843.3
5558.26,-36869.1
5539.71,-36891.7
5517.11,-36910.2
5491.33,-36924
5463.35,-36932.5
5434.25,-36935.4
4725.59,-36935.4
4696.49,-36932.5
4668.52,-36924
4642.73,-36910.2
4620.13,-36891.7
4601.58,-36869.1
4587.8,-36843.3
4579.31,-36815.3
4576.45,-36786.2
4576.45,-35802
4579.31,-35772.9
4587.8,-35744.9
4601.58,-35719.1
4611.77,-35706.7
4450.63,-35706.7
3615.28,-36542
3607.7,-36548.3
3599.06,-36552.9
3589.68,-36555.7
3579.92,-36556.7
3360.15,-36556.7
3422.46,-36582.5
3533.82,-36656.9
3628.52,-36751.6
3702.93,-36863
3754.19,-36986.7
3780.31,-37118.1
3780.31,-37252
3754.19,-37383.4
3702.93,-37507.1
3628.52,-37618.5
3533.82,-37713.2
3468.68,-37756.7
3509.21,-37756.7
Z" /> 
<path style="fill:#000000; fill-opacity:1.0; 
stroke:#000000; stroke-width:100; stroke-opacity:1; 
stroke-linecap:round; stroke-linejoin:round;fill-rule:evenodd;"
d="M 2572.26,-36751.6
2666.97,-36656.9
2778.33,-36582.5
2840.64,-36556.7
2700.63,-36556.7
2529.92,-36727.4
2529.92,-36815
Z" /> 
<path style="fill:#000000; fill-opacity:1.0; 
stroke:#000000; stroke-width:100; stroke-opacity:1; 
stroke-linecap:round; stroke-linejoin:round;fill-rule:evenodd;"
d="M 2666.97,-37713.2
2572.26,-37618.5
2529.92,-37555.1
2529.92,-37686
2600.63,-37756.7
2732.11,-37756.7
Z" /> 
</g>
</g>
</g> 
</svg>
