<?xml version="1.0" standalone="no"?>
 <!DOCTYPE svg PUBLIC "-//W3C//DTD SVG 1.1//EN" 
 "http://www.w3.org/Graphics/SVG/1.1/DTD/svg11.dtd"> 
<svg
  xmlns:svg="http://www.w3.org/2000/svg"
  xmlns="http://www.w3.org/2000/svg"
  xmlns:xlink="http://www.w3.org/1999/xlink"
  version="1.1"
  width="29.700220cm" height="21.000720cm" viewBox="0 0 116930 82680">
<title>SVG Picture created as MicroBBPS-B_Mask.svg date 2021/03/20 14:33:15 </title>
  <desc>Picture generated by PCBNEW </desc>
<g style="fill:#000000; fill-opacity:1;stroke:#000000; stroke-opacity:1;
stroke-linecap:round; stroke-linejoin:round;"
 transform="translate(0 0) scale(1 1)">
</g>
<g style="fill:#000000; fill-opacity:0.0; 
stroke:#000000; stroke-width:-0.000393701; stroke-opacity:1; 
stroke-linecap:round; stroke-linejoin:round;">
</g>
<g style="fill:#000000; fill-opacity:0.0; 
stroke:#000000; stroke-width:78.7402; stroke-opacity:1; 
stroke-linecap:round; stroke-linejoin:round;">
<path d="M393 0
L0 0
" />
<path d="M0 0
L0 393
" />
</g>
<g style="fill:#000000; fill-opacity:0.0; 
stroke:#000000; stroke-width:19.685; stroke-opacity:1; 
stroke-linecap:round; stroke-linejoin:round;">
<path d="M20866 9448
L21259 9055
" />
<path d="M18503 9448
L20866 9448
" />
<path d="M18110 9055
L18503 9448
" />
<path d="M3149 9055
L18110 9055
" />
<path d="M2755 9448
L3149 9055
" />
<path d="M393 9448
L2755 9448
" />
<path d="M0 9055
L393 9448
" />
<path d="M4724 787
L3937 0
" />
<path d="M0 787
L787 0
" />
<path d="M0 9055
L0 787
" />
<path d="M21259 1574
L21259 9055
" />
<path d="M20472 787
L21259 1574
" />
<path d="M4724 787
L20472 787
" />
<path d="M787 0
L3937 0
" />
<g >
</g>
<g style="fill:#000000; fill-opacity:0.0; 
stroke:#000000; stroke-width:0; stroke-opacity:1; 
stroke-linecap:round; stroke-linejoin:round;">
</g>
<g style="fill:#000000; fill-opacity:1.0; 
stroke:#000000; stroke-width:0; stroke-opacity:1; 
stroke-linecap:round; stroke-linejoin:round;">
<path style="fill:#000000; fill-opacity:1.0; 
stroke:#000000; stroke-width:0; stroke-opacity:1; 
stroke-linecap:round; stroke-linejoin:round;fill-rule:evenodd;"
d="M 19466.5,7519.78
19468.4,7520.06
19470.3,7520.53
19472.1,7521.18
19473.8,7522.01
19475.5,7523
19477.1,7524.15
19478.5,7525.45
19479.8,7526.88
19480.9,7528.43
19481.9,7530.09
19482.8,7531.84
19483.4,7533.66
19483.9,7535.53
19484.2,7537.44
19484.3,7539.37
19484.3,8208.66
19484.2,8210.59
19483.9,8212.5
19483.4,8214.38
19482.8,8216.19
19481.9,8217.94
19480.9,8219.6
19479.8,8221.15
19478.5,8222.58
19477.1,8223.88
19475.5,8225.03
19473.8,8226.02
19472.1,8226.85
19470.3,8227.5
19468.4,8227.97
19466.5,8228.25
19464.6,8228.35
18795.3,8228.35
18793.3,8228.25
18791.4,8227.97
18789.6,8227.5
18787.7,8226.85
18786,8226.02
18784.3,8225.03
18782.8,8223.88
18781.4,8222.58
18780.1,8221.15
18778.9,8219.6
18777.9,8217.94
18777.1,8216.19
18776.4,8214.38
18776,8212.5
18775.7,8210.59
18775.6,8208.66
18775.6,7539.37
18775.7,7537.44
18776,7535.53
18776.4,7533.66
18777.1,7531.84
18777.9,7530.09
18778.9,7528.43
18780.1,7526.88
18781.4,7525.45
18782.8,7524.15
18784.3,7523
18786,7522.01
18787.7,7521.18
18789.6,7520.53
18791.4,7520.06
18793.3,7519.78
18795.3,7519.69
19464.6,7519.69
Z" /> 
<circle cx="20129.9" cy="7874.02" r="354.331" /> 
<circle cx="19129.9" cy="6874.02" r="354.331" /> 
<circle cx="20129.9" cy="6874.02" r="354.331" /> 
<circle cx="19129.9" cy="5874.02" r="354.331" /> 
<circle cx="20129.9" cy="5874.02" r="354.331" /> 
</g>
<g >
</g>
<g style="fill:#000000; fill-opacity:1.0; 
stroke:#000000; stroke-width:0; stroke-opacity:1; 
stroke-linecap:round; stroke-linejoin:round;">
<path style="fill:#000000; fill-opacity:1.0; 
stroke:#000000; stroke-width:0; stroke-opacity:1; 
stroke-linecap:round; stroke-linejoin:round;fill-rule:evenodd;"
d="M 1466.5,7519.78
1468.41,7520.06
1470.28,7520.53
1472.1,7521.18
1473.85,7522.01
1475.5,7523
1477.06,7524.15
1478.49,7525.45
1479.78,7526.88
1480.93,7528.43
1481.93,7530.09
1482.75,7531.84
1483.4,7533.66
1483.87,7535.53
1484.16,7537.44
1484.25,7539.37
1484.25,8208.66
1484.16,8210.59
1483.87,8212.5
1483.4,8214.38
1482.75,8216.19
1481.93,8217.94
1480.93,8219.6
1479.78,8221.15
1478.49,8222.58
1477.06,8223.88
1475.5,8225.03
1473.85,8226.02
1472.1,8226.85
1470.28,8227.5
1468.41,8227.97
1466.5,8228.25
1464.57,8228.35
795.276,8228.35
793.346,8228.25
791.435,8227.97
789.561,8227.5
787.743,8226.85
785.996,8226.02
784.339,8225.03
782.787,8223.88
781.356,8222.58
780.059,8221.15
778.908,8219.6
777.915,8217.94
777.089,8216.19
776.438,8214.38
775.969,8212.5
775.685,8210.59
775.591,8208.66
775.591,7539.37
775.685,7537.44
775.969,7535.53
776.438,7533.66
777.089,7531.84
777.915,7530.09
778.908,7528.43
780.059,7526.88
781.356,7525.45
782.787,7524.15
784.339,7523
785.996,7522.01
787.743,7521.18
789.561,7520.53
791.435,7520.06
793.346,7519.78
795.276,7519.69
1464.57,7519.69
Z" /> 
<circle cx="2129.92" cy="7874.02" r="354.331" /> 
<circle cx="1129.92" cy="6874.02" r="354.331" /> 
<circle cx="2129.92" cy="6874.02" r="354.331" /> 
<circle cx="1129.92" cy="5874.02" r="354.331" /> 
<circle cx="2129.92" cy="5874.02" r="354.331" /> 
</g>
<g >
</g>
<g >
</g>
<g >
</g>
<g >
</g>
<g >
</g>
<g style="fill:#000000; fill-opacity:1.0; 
stroke:#000000; stroke-width:0; stroke-opacity:1; 
stroke-linecap:round; stroke-linejoin:round;">
<path style="fill:#000000; fill-opacity:1.0; 
stroke:#000000; stroke-width:0; stroke-opacity:1; 
stroke-linecap:round; stroke-linejoin:round;fill-rule:evenodd;"
d="M 4667.28,5354.43
4669.19,5354.71
4671.07,5355.18
4672.89,5355.83
4674.63,5356.66
4676.29,5357.65
4677.84,5358.8
4679.27,5360.1
4680.57,5361.53
4681.72,5363.08
4682.71,5364.74
4683.54,5366.48
4684.19,5368.3
4684.66,5370.18
4684.94,5372.09
4685.04,5374.02
4685.04,6043.31
4684.94,6045.24
4684.66,6047.15
4684.19,6049.02
4683.54,6050.84
4682.71,6052.59
4681.72,6054.24
4680.57,6055.8
4679.27,6057.23
4677.84,6058.52
4676.29,6059.67
4674.63,6060.67
4672.89,6061.49
4671.07,6062.14
4669.19,6062.61
4667.28,6062.9
4665.35,6062.99
3996.06,6062.99
3994.13,6062.9
3992.22,6062.61
3990.35,6062.14
3988.53,6061.49
3986.78,6060.67
3985.13,6059.67
3983.57,6058.52
3982.14,6057.23
3980.85,6055.8
3979.7,6054.24
3978.7,6052.59
3977.88,6050.84
3977.23,6049.02
3976.76,6047.15
3976.47,6045.24
3976.38,6043.31
3976.38,5374.02
3976.47,5372.09
3976.76,5370.18
3977.23,5368.3
3977.88,5366.48
3978.7,5364.74
3979.7,5363.08
3980.85,5361.53
3982.14,5360.1
3983.57,5358.8
3985.13,5357.65
3986.78,5356.66
3988.53,5355.83
3990.35,5355.18
3992.22,5354.71
3994.13,5354.43
3996.06,5354.33
4665.35,5354.33
Z" /> 
<circle cx="4330.71" cy="6708.66" r="354.331" /> 
<circle cx="5330.71" cy="6708.66" r="354.331" /> 
<circle cx="4330.71" cy="7708.66" r="354.331" /> 
</g>
<g >
</g>
<g style="fill:#000000; fill-opacity:1.0; 
stroke:#000000; stroke-width:0; stroke-opacity:1; 
stroke-linecap:round; stroke-linejoin:round;">
<path style="fill:#000000; fill-opacity:1.0; 
stroke:#000000; stroke-width:0; stroke-opacity:1; 
stroke-linecap:round; stroke-linejoin:round;fill-rule:evenodd;"
d="M 17265.7,7322.93
17267.6,7323.21
17269.5,7323.68
17271.3,7324.33
17273.1,7325.16
17274.7,7326.15
17276.3,7327.3
17277.7,7328.6
17279,7330.03
17280.1,7331.58
17281.1,7333.24
17282,7334.99
17282.6,7336.81
17283.1,7338.68
17283.4,7340.59
17283.5,7342.52
17283.5,8011.81
17283.4,8013.74
17283.1,8015.65
17282.6,8017.53
17282,8019.34
17281.1,8021.09
17280.1,8022.75
17279,8024.3
17277.7,8025.73
17276.3,8027.03
17274.7,8028.18
17273.1,8029.17
17271.3,8030
17269.5,8030.65
17267.6,8031.12
17265.7,8031.4
17263.8,8031.5
16594.5,8031.5
16592.6,8031.4
16590.6,8031.12
16588.8,8030.65
16587,8030
16585.2,8029.17
16583.6,8028.18
16582,8027.03
16580.6,8025.73
16579.3,8024.3
16578.1,8022.75
16577.1,8021.09
16576.3,8019.34
16575.7,8017.53
16575.2,8015.65
16574.9,8013.74
16574.8,8011.81
16574.8,7342.52
16574.9,7340.59
16575.2,7338.68
16575.7,7336.81
16576.3,7334.99
16577.1,7333.24
16578.1,7331.58
16579.3,7330.03
16580.6,7328.6
16582,7327.3
16583.6,7326.15
16585.2,7325.16
16587,7324.33
16588.8,7323.68
16590.6,7323.21
16592.6,7322.93
16594.5,7322.83
17263.8,7322.83
Z" /> 
<circle cx="16929.1" cy="6677.17" r="354.331" /> 
<circle cx="15929.1" cy="6677.17" r="354.331" /> 
<circle cx="16929.1" cy="5677.17" r="354.331" /> 
</g>
<g >
</g>
<g style="fill:#000000; fill-opacity:1.0; 
stroke:#000000; stroke-width:0; stroke-opacity:1; 
stroke-linecap:round; stroke-linejoin:round;">
<circle cx="3112.2" cy="3149.61" r="551.181" /> 
</g>
<g style="fill:#000000; fill-opacity:1.0; 
stroke:#000000; stroke-width:39.3701; stroke-opacity:1; 
stroke-linecap:round; stroke-linejoin:round;">
</g>
<g style="fill:#000000; fill-opacity:1.0; 
stroke:#000000; stroke-width:0; stroke-opacity:1; 
stroke-linecap:round; stroke-linejoin:round;">
<circle cx="1612.2" cy="3149.61" r="551.181" /> 
</g>
<g style="fill:#000000; fill-opacity:1.0; 
stroke:#000000; stroke-width:39.3701; stroke-opacity:1; 
stroke-linecap:round; stroke-linejoin:round;">
</g>
<g >
</g>
<g style="fill:#000000; fill-opacity:1.0; 
stroke:#000000; stroke-width:39.3701; stroke-opacity:1; 
stroke-linecap:round; stroke-linejoin:round;">
</g>
<g style="fill:#000000; fill-opacity:1.0; 
stroke:#000000; stroke-width:472.441; stroke-opacity:1; 
stroke-linecap:round; stroke-linejoin:round;">
</g>
<g style="fill:#000000; fill-opacity:0.0; 
stroke:#000000; stroke-width:472.441; stroke-opacity:1; 
stroke-linecap:round; stroke-linejoin:round;">
<path d="M7047 1673
L7047 1948
" />
</g>
<g style="fill:#000000; fill-opacity:1.0; 
stroke:#000000; stroke-width:0; stroke-opacity:1; 
stroke-linecap:round; stroke-linejoin:round;">
<circle cx="7509.84" cy="2913.39" r="273.622" /> 
</g>
<g style="fill:#000000; fill-opacity:1.0; 
stroke:#000000; stroke-width:39.3701; stroke-opacity:1; 
stroke-linecap:round; stroke-linejoin:round;">
</g>
<g style="fill:#000000; fill-opacity:1.0; 
stroke:#000000; stroke-width:0; stroke-opacity:1; 
stroke-linecap:round; stroke-linejoin:round;">
<circle cx="9419.29" cy="2913.39" r="273.622" /> 
</g>
<g style="fill:#000000; fill-opacity:1.0; 
stroke:#000000; stroke-width:39.3701; stroke-opacity:1; 
stroke-linecap:round; stroke-linejoin:round;">
</g>
<g style="fill:#000000; fill-opacity:1.0; 
stroke:#000000; stroke-width:472.441; stroke-opacity:1; 
stroke-linecap:round; stroke-linejoin:round;">
</g>
<g style="fill:#000000; fill-opacity:0.0; 
stroke:#000000; stroke-width:472.441; stroke-opacity:1; 
stroke-linecap:round; stroke-linejoin:round;">
<path d="M7047 1673
L7047 1948
" />
<path d="M9881 1948
L9881 1673
" />
</g>
<g >
</g>
<g >
</g>
<g >
</g>
<g >
</g>
<g >
</g>
<g >
</g>
<g >
</g>
<g >
</g>
<g >
</g>
<g >
</g>
<g >
</g>
<g >
</g>
<g >
</g>
<g >
</g>
</g> 
</svg>
