<?xml version="1.0" standalone="no"?>
 <!DOCTYPE svg PUBLIC "-//W3C//DTD SVG 1.1//EN" 
 "http://www.w3.org/Graphics/SVG/1.1/DTD/svg11.dtd"> 
<svg
  xmlns:svg="http://www.w3.org/2000/svg"
  xmlns="http://www.w3.org/2000/svg"
  xmlns:xlink="http://www.w3.org/1999/xlink"
  version="1.1"
  width="29.700220cm" height="21.000720cm" viewBox="0 0 116930 82680">
<title>SVG Picture created as MicroBBPS-B_Cu.svg date 2021/02/24 21:51:50 </title>
  <desc>Picture generated by PCBNEW </desc>
<g style="fill:#000000; fill-opacity:1;stroke:#000000; stroke-opacity:1;
stroke-linecap:round; stroke-linejoin:round;"
 transform="translate(0 0) scale(1 1)">
</g>
<g style="fill:#000000; fill-opacity:0.0; 
stroke:#000000; stroke-width:-0.000393701; stroke-opacity:1; 
stroke-linecap:round; stroke-linejoin:round;">
</g>
<g style="fill:#000000; fill-opacity:0.0; 
stroke:#000000; stroke-width:19.685; stroke-opacity:1; 
stroke-linecap:round; stroke-linejoin:round;">
<path d="M7874 -1574
L14173 -1574
" />
<path d="M21259 -38188
L21259 -36220
" />
<path d="M20078 -39370
L21259 -38188
" />
<path d="M4724 -39370
L20078 -39370
" />
<path d="M787 -39370
L1574 -39370
" />
<path d="M0 -38582
L787 -39370
" />
<path d="M0 -37795
L0 -38582
" />
<path d="M15748 0
L19685 0
" />
<path d="M14173 -1574
L15748 0
" />
<path d="M6299 0
L7874 -1574
" />
<path d="M1181 0
L6299 0
" />
<path d="M21259 -1574
L19685 0
" />
<path d="M21259 -36220
L21259 -1574
" />
<path d="M1574 -39370
L4724 -39370
" />
<path d="M0 -1181
L0 -37795
" />
<path d="M1181 0
L0 -1181
" />
</g>
<g style="fill:#000000; fill-opacity:0.0; 
stroke:#000000; stroke-width:393.701; stroke-opacity:1; 
stroke-linecap:round; stroke-linejoin:round;">
<path d="M5129 -26854
L9129 -26854
" />
<path d="M16129 -26854
L12129 -26854
" />
<path d="M5129 -25854
L9129 -25854
" />
<path d="M16129 -25854
L12129 -25854
" />
<path d="M5129 -24854
L9129 -24854
" />
<path d="M16129 -24854
L12129 -24854
" />
<path d="M5129 -23854
L9129 -23854
" />
<path d="M16129 -23854
L12129 -23854
" />
<path d="M5129 -22854
L9129 -22854
" />
<path d="M16129 -22854
L12129 -22854
" />
<path d="M5129 -21854
L9129 -21854
" />
<path d="M16129 -21854
L12129 -21854
" />
<path d="M5129 -20854
L9129 -20854
" />
<path d="M16129 -20854
L12129 -20854
" />
<path d="M5129 -19854
L9129 -19854
" />
<path d="M16129 -19854
L12129 -19854
" />
<path d="M5129 -18854
L9129 -18854
" />
<path d="M16129 -18854
L12129 -18854
" />
<path d="M5129 -17854
L9129 -17854
" />
<path d="M16129 -17854
L12129 -17854
" />
<path d="M5129 -16854
L9129 -16854
" />
<path d="M16129 -16854
L12129 -16854
" />
<path d="M5129 -15854
L9129 -15854
" />
<path d="M16129 -15854
L12129 -15854
" />
<path d="M5129 -14854
L9129 -14854
" />
<path d="M16129 -14854
L12129 -14854
" />
<path d="M5129 -13854
L9129 -13854
" />
<path d="M16129 -13854
L12129 -13854
" />
<path d="M5129 -12854
L9129 -12854
" />
<path d="M16129 -12854
L12129 -12854
" />
<path d="M5129 -11854
L9129 -11854
" />
<path d="M16129 -11854
L12129 -11854
" />
<path d="M5129 -10854
L9129 -10854
" />
<path d="M16129 -10854
L12129 -10854
" />
<path d="M5129 -9854
L9129 -9854
" />
<path d="M16129 -9854
L12129 -9854
" />
<path d="M5129 -8854
L9129 -8854
" />
<path d="M16129 -8854
L12129 -8854
" />
<path d="M5129 -7854
L9129 -7854
" />
<path d="M16129 -7854
L12129 -7854
" />
<path d="M5129 -6854
L9129 -6854
" />
<path d="M16129 -6854
L12129 -6854
" />
<path d="M5129 -5854
L9129 -5854
" />
<path d="M16129 -5854
L12129 -5854
" />
<path d="M5129 -4854
L9129 -4854
" />
<path d="M16129 -4854
L12129 -4854
" />
<path d="M5129 -3854
L9129 -3854
" />
<path d="M16129 -3854
L12129 -3854
" />
<g >
</g>
<g style="fill:#000000; fill-opacity:1.0; 
stroke:#000000; stroke-width:0; stroke-opacity:1; 
stroke-linecap:round; stroke-linejoin:round;">
<circle cx="20129.9" cy="-3854.33" r="334.646" /> 
<circle cx="19129.9" cy="-3854.33" r="334.646" /> 
<circle cx="1129.92" cy="-3854.33" r="334.646" /> 
<circle cx="2129.92" cy="-3854.33" r="334.646" /> 
<circle cx="13129.9" cy="-3854.33" r="334.646" /> 
<circle cx="12129.9" cy="-3854.33" r="334.646" /> 
<circle cx="16129.9" cy="-3854.33" r="334.646" /> 
<circle cx="14129.9" cy="-3854.33" r="334.646" /> 
<circle cx="15129.9" cy="-3854.33" r="334.646" /> 
<circle cx="9129.92" cy="-3854.33" r="334.646" /> 
<circle cx="8129.92" cy="-3854.33" r="334.646" /> 
<circle cx="7129.92" cy="-3854.33" r="334.646" /> 
<circle cx="6129.92" cy="-3854.33" r="334.646" /> 
<circle cx="5129.92" cy="-3854.33" r="334.646" /> 
<circle cx="13129.9" cy="-4854.33" r="334.646" /> 
<circle cx="19129.9" cy="-4854.33" r="334.646" /> 
<circle cx="15129.9" cy="-4854.33" r="334.646" /> 
<circle cx="14129.9" cy="-4854.33" r="334.646" /> 
<circle cx="12129.9" cy="-4854.33" r="334.646" /> 
<circle cx="16129.9" cy="-4854.33" r="334.646" /> 
<circle cx="2129.92" cy="-4854.33" r="334.646" /> 
<circle cx="1129.92" cy="-4854.33" r="334.646" /> 
<circle cx="20129.9" cy="-4854.33" r="334.646" /> 
<circle cx="9129.92" cy="-4854.33" r="334.646" /> 
<circle cx="5129.92" cy="-4854.33" r="334.646" /> 
<circle cx="6129.92" cy="-4854.33" r="334.646" /> 
<circle cx="8129.92" cy="-4854.33" r="334.646" /> 
<circle cx="7129.92" cy="-4854.33" r="334.646" /> 
<circle cx="13129.9" cy="-5854.33" r="334.646" /> 
<circle cx="19129.9" cy="-5854.33" r="334.646" /> 
<circle cx="15129.9" cy="-5854.33" r="334.646" /> 
<circle cx="14129.9" cy="-5854.33" r="334.646" /> 
<circle cx="12129.9" cy="-5854.33" r="334.646" /> 
<circle cx="16129.9" cy="-5854.33" r="334.646" /> 
<circle cx="2129.92" cy="-5854.33" r="334.646" /> 
<circle cx="1129.92" cy="-5854.33" r="334.646" /> 
<circle cx="20129.9" cy="-5854.33" r="334.646" /> 
<circle cx="9129.92" cy="-5854.33" r="334.646" /> 
<circle cx="5129.92" cy="-5854.33" r="334.646" /> 
<circle cx="6129.92" cy="-5854.33" r="334.646" /> 
<circle cx="8129.92" cy="-5854.33" r="334.646" /> 
<circle cx="7129.92" cy="-5854.33" r="334.646" /> 
<circle cx="13129.9" cy="-6854.33" r="334.646" /> 
<circle cx="19129.9" cy="-6854.33" r="334.646" /> 
<circle cx="15129.9" cy="-6854.33" r="334.646" /> 
<circle cx="14129.9" cy="-6854.33" r="334.646" /> 
<circle cx="12129.9" cy="-6854.33" r="334.646" /> 
<circle cx="16129.9" cy="-6854.33" r="334.646" /> 
<circle cx="2129.92" cy="-6854.33" r="334.646" /> 
<circle cx="1129.92" cy="-6854.33" r="334.646" /> 
<circle cx="20129.9" cy="-6854.33" r="334.646" /> 
<circle cx="9129.92" cy="-6854.33" r="334.646" /> 
<circle cx="5129.92" cy="-6854.33" r="334.646" /> 
<circle cx="6129.92" cy="-6854.33" r="334.646" /> 
<circle cx="8129.92" cy="-6854.33" r="334.646" /> 
<circle cx="7129.92" cy="-6854.33" r="334.646" /> 
<circle cx="13129.9" cy="-7854.33" r="334.646" /> 
<circle cx="19129.9" cy="-7854.33" r="334.646" /> 
<circle cx="15129.9" cy="-7854.33" r="334.646" /> 
<circle cx="14129.9" cy="-7854.33" r="334.646" /> 
<circle cx="12129.9" cy="-7854.33" r="334.646" /> 
<circle cx="16129.9" cy="-7854.33" r="334.646" /> 
<circle cx="2129.92" cy="-7854.33" r="334.646" /> 
<circle cx="1129.92" cy="-7854.33" r="334.646" /> 
<circle cx="20129.9" cy="-7854.33" r="334.646" /> 
<circle cx="9129.92" cy="-7854.33" r="334.646" /> 
<circle cx="5129.92" cy="-7854.33" r="334.646" /> 
<circle cx="6129.92" cy="-7854.33" r="334.646" /> 
<circle cx="8129.92" cy="-7854.33" r="334.646" /> 
<circle cx="7129.92" cy="-7854.33" r="334.646" /> 
<circle cx="13129.9" cy="-8854.33" r="334.646" /> 
<circle cx="19129.9" cy="-8854.33" r="334.646" /> 
<circle cx="15129.9" cy="-8854.33" r="334.646" /> 
<circle cx="14129.9" cy="-8854.33" r="334.646" /> 
<circle cx="12129.9" cy="-8854.33" r="334.646" /> 
<circle cx="16129.9" cy="-8854.33" r="334.646" /> 
<circle cx="2129.92" cy="-8854.33" r="334.646" /> 
<circle cx="1129.92" cy="-8854.33" r="334.646" /> 
<circle cx="20129.9" cy="-8854.33" r="334.646" /> 
<circle cx="9129.92" cy="-8854.33" r="334.646" /> 
<circle cx="5129.92" cy="-8854.33" r="334.646" /> 
<circle cx="6129.92" cy="-8854.33" r="334.646" /> 
<circle cx="8129.92" cy="-8854.33" r="334.646" /> 
<circle cx="7129.92" cy="-8854.33" r="334.646" /> 
<circle cx="13129.9" cy="-9854.33" r="334.646" /> 
<circle cx="19129.9" cy="-9854.33" r="334.646" /> 
<circle cx="15129.9" cy="-9854.33" r="334.646" /> 
<circle cx="14129.9" cy="-9854.33" r="334.646" /> 
<circle cx="12129.9" cy="-9854.33" r="334.646" /> 
<circle cx="16129.9" cy="-9854.33" r="334.646" /> 
<circle cx="2129.92" cy="-9854.33" r="334.646" /> 
<circle cx="1129.92" cy="-9854.33" r="334.646" /> 
<circle cx="20129.9" cy="-9854.33" r="334.646" /> 
<circle cx="9129.92" cy="-9854.33" r="334.646" /> 
<circle cx="5129.92" cy="-9854.33" r="334.646" /> 
<circle cx="6129.92" cy="-9854.33" r="334.646" /> 
<circle cx="8129.92" cy="-9854.33" r="334.646" /> 
<circle cx="7129.92" cy="-9854.33" r="334.646" /> 
<circle cx="13129.9" cy="-10854.3" r="334.646" /> 
<circle cx="19129.9" cy="-10854.3" r="334.646" /> 
<circle cx="15129.9" cy="-10854.3" r="334.646" /> 
<circle cx="14129.9" cy="-10854.3" r="334.646" /> 
<circle cx="12129.9" cy="-10854.3" r="334.646" /> 
<circle cx="16129.9" cy="-10854.3" r="334.646" /> 
<circle cx="2129.92" cy="-10854.3" r="334.646" /> 
<circle cx="1129.92" cy="-10854.3" r="334.646" /> 
<circle cx="20129.9" cy="-10854.3" r="334.646" /> 
<circle cx="9129.92" cy="-10854.3" r="334.646" /> 
<circle cx="5129.92" cy="-10854.3" r="334.646" /> 
<circle cx="6129.92" cy="-10854.3" r="334.646" /> 
<circle cx="8129.92" cy="-10854.3" r="334.646" /> 
<circle cx="7129.92" cy="-10854.3" r="334.646" /> 
<circle cx="13129.9" cy="-11854.3" r="334.646" /> 
<circle cx="19129.9" cy="-11854.3" r="334.646" /> 
<circle cx="15129.9" cy="-11854.3" r="334.646" /> 
<circle cx="14129.9" cy="-11854.3" r="334.646" /> 
<circle cx="12129.9" cy="-11854.3" r="334.646" /> 
<circle cx="16129.9" cy="-11854.3" r="334.646" /> 
<circle cx="2129.92" cy="-11854.3" r="334.646" /> 
<circle cx="1129.92" cy="-11854.3" r="334.646" /> 
<circle cx="20129.9" cy="-11854.3" r="334.646" /> 
<circle cx="9129.92" cy="-11854.3" r="334.646" /> 
<circle cx="5129.92" cy="-11854.3" r="334.646" /> 
<circle cx="6129.92" cy="-11854.3" r="334.646" /> 
<circle cx="8129.92" cy="-11854.3" r="334.646" /> 
<circle cx="7129.92" cy="-11854.3" r="334.646" /> 
<circle cx="13129.9" cy="-12854.3" r="334.646" /> 
<circle cx="19129.9" cy="-12854.3" r="334.646" /> 
<circle cx="15129.9" cy="-12854.3" r="334.646" /> 
<circle cx="14129.9" cy="-12854.3" r="334.646" /> 
<circle cx="12129.9" cy="-12854.3" r="334.646" /> 
<circle cx="16129.9" cy="-12854.3" r="334.646" /> 
<circle cx="2129.92" cy="-12854.3" r="334.646" /> 
<circle cx="1129.92" cy="-12854.3" r="334.646" /> 
<circle cx="20129.9" cy="-12854.3" r="334.646" /> 
<circle cx="9129.92" cy="-12854.3" r="334.646" /> 
<circle cx="5129.92" cy="-12854.3" r="334.646" /> 
<circle cx="6129.92" cy="-12854.3" r="334.646" /> 
<circle cx="8129.92" cy="-12854.3" r="334.646" /> 
<circle cx="7129.92" cy="-12854.3" r="334.646" /> 
<circle cx="13129.9" cy="-13854.3" r="334.646" /> 
<circle cx="19129.9" cy="-13854.3" r="334.646" /> 
<circle cx="15129.9" cy="-13854.3" r="334.646" /> 
<circle cx="14129.9" cy="-13854.3" r="334.646" /> 
<circle cx="12129.9" cy="-13854.3" r="334.646" /> 
<circle cx="16129.9" cy="-13854.3" r="334.646" /> 
<circle cx="2129.92" cy="-13854.3" r="334.646" /> 
<circle cx="1129.92" cy="-13854.3" r="334.646" /> 
<circle cx="20129.9" cy="-13854.3" r="334.646" /> 
<circle cx="9129.92" cy="-13854.3" r="334.646" /> 
<circle cx="5129.92" cy="-13854.3" r="334.646" /> 
<circle cx="6129.92" cy="-13854.3" r="334.646" /> 
<circle cx="8129.92" cy="-13854.3" r="334.646" /> 
<circle cx="7129.92" cy="-13854.3" r="334.646" /> 
<circle cx="13129.9" cy="-14854.3" r="334.646" /> 
<circle cx="19129.9" cy="-14854.3" r="334.646" /> 
<circle cx="15129.9" cy="-14854.3" r="334.646" /> 
<circle cx="14129.9" cy="-14854.3" r="334.646" /> 
<circle cx="12129.9" cy="-14854.3" r="334.646" /> 
<circle cx="16129.9" cy="-14854.3" r="334.646" /> 
<circle cx="2129.92" cy="-14854.3" r="334.646" /> 
<circle cx="1129.92" cy="-14854.3" r="334.646" /> 
<circle cx="20129.9" cy="-14854.3" r="334.646" /> 
<circle cx="9129.92" cy="-14854.3" r="334.646" /> 
<circle cx="5129.92" cy="-14854.3" r="334.646" /> 
<circle cx="6129.92" cy="-14854.3" r="334.646" /> 
<circle cx="8129.92" cy="-14854.3" r="334.646" /> 
<circle cx="7129.92" cy="-14854.3" r="334.646" /> 
<circle cx="13129.9" cy="-15854.3" r="334.646" /> 
<circle cx="19129.9" cy="-15854.3" r="334.646" /> 
<circle cx="15129.9" cy="-15854.3" r="334.646" /> 
<circle cx="14129.9" cy="-15854.3" r="334.646" /> 
<circle cx="12129.9" cy="-15854.3" r="334.646" /> 
<circle cx="16129.9" cy="-15854.3" r="334.646" /> 
<circle cx="2129.92" cy="-15854.3" r="334.646" /> 
<circle cx="1129.92" cy="-15854.3" r="334.646" /> 
<circle cx="20129.9" cy="-15854.3" r="334.646" /> 
<circle cx="9129.92" cy="-15854.3" r="334.646" /> 
<circle cx="5129.92" cy="-15854.3" r="334.646" /> 
<circle cx="6129.92" cy="-15854.3" r="334.646" /> 
<circle cx="8129.92" cy="-15854.3" r="334.646" /> 
<circle cx="7129.92" cy="-15854.3" r="334.646" /> 
<circle cx="13129.9" cy="-16854.3" r="334.646" /> 
<circle cx="19129.9" cy="-16854.3" r="334.646" /> 
<circle cx="15129.9" cy="-16854.3" r="334.646" /> 
<circle cx="14129.9" cy="-16854.3" r="334.646" /> 
<circle cx="12129.9" cy="-16854.3" r="334.646" /> 
<circle cx="16129.9" cy="-16854.3" r="334.646" /> 
<circle cx="2129.92" cy="-16854.3" r="334.646" /> 
<circle cx="1129.92" cy="-16854.3" r="334.646" /> 
<circle cx="20129.9" cy="-16854.3" r="334.646" /> 
<circle cx="9129.92" cy="-16854.3" r="334.646" /> 
<circle cx="5129.92" cy="-16854.3" r="334.646" /> 
<circle cx="6129.92" cy="-16854.3" r="334.646" /> 
<circle cx="8129.92" cy="-16854.3" r="334.646" /> 
<circle cx="7129.92" cy="-16854.3" r="334.646" /> 
<circle cx="13129.9" cy="-17854.3" r="334.646" /> 
<circle cx="19129.9" cy="-17854.3" r="334.646" /> 
<circle cx="15129.9" cy="-17854.3" r="334.646" /> 
<circle cx="14129.9" cy="-17854.3" r="334.646" /> 
<circle cx="12129.9" cy="-17854.3" r="334.646" /> 
<circle cx="16129.9" cy="-17854.3" r="334.646" /> 
<circle cx="2129.92" cy="-17854.3" r="334.646" /> 
<circle cx="1129.92" cy="-17854.3" r="334.646" /> 
<circle cx="20129.9" cy="-17854.3" r="334.646" /> 
<circle cx="9129.92" cy="-17854.3" r="334.646" /> 
<circle cx="5129.92" cy="-17854.3" r="334.646" /> 
<circle cx="6129.92" cy="-17854.3" r="334.646" /> 
<circle cx="8129.92" cy="-17854.3" r="334.646" /> 
<circle cx="7129.92" cy="-17854.3" r="334.646" /> 
<circle cx="13129.9" cy="-18854.3" r="334.646" /> 
<circle cx="19129.9" cy="-18854.3" r="334.646" /> 
<circle cx="15129.9" cy="-18854.3" r="334.646" /> 
<circle cx="14129.9" cy="-18854.3" r="334.646" /> 
<circle cx="12129.9" cy="-18854.3" r="334.646" /> 
<circle cx="16129.9" cy="-18854.3" r="334.646" /> 
<circle cx="2129.92" cy="-18854.3" r="334.646" /> 
<circle cx="1129.92" cy="-18854.3" r="334.646" /> 
<circle cx="20129.9" cy="-18854.3" r="334.646" /> 
<circle cx="9129.92" cy="-18854.3" r="334.646" /> 
<circle cx="5129.92" cy="-18854.3" r="334.646" /> 
<circle cx="6129.92" cy="-18854.3" r="334.646" /> 
<circle cx="8129.92" cy="-18854.3" r="334.646" /> 
<circle cx="7129.92" cy="-18854.3" r="334.646" /> 
<circle cx="13129.9" cy="-19854.3" r="334.646" /> 
<circle cx="19129.9" cy="-19854.3" r="334.646" /> 
<circle cx="15129.9" cy="-19854.3" r="334.646" /> 
<circle cx="14129.9" cy="-19854.3" r="334.646" /> 
<circle cx="12129.9" cy="-19854.3" r="334.646" /> 
<circle cx="16129.9" cy="-19854.3" r="334.646" /> 
<circle cx="2129.92" cy="-19854.3" r="334.646" /> 
<circle cx="1129.92" cy="-19854.3" r="334.646" /> 
<circle cx="20129.9" cy="-19854.3" r="334.646" /> 
<circle cx="9129.92" cy="-19854.3" r="334.646" /> 
<circle cx="5129.92" cy="-19854.3" r="334.646" /> 
<circle cx="6129.92" cy="-19854.3" r="334.646" /> 
<circle cx="8129.92" cy="-19854.3" r="334.646" /> 
<circle cx="7129.92" cy="-19854.3" r="334.646" /> 
<circle cx="13129.9" cy="-20854.3" r="334.646" /> 
<circle cx="19129.9" cy="-20854.3" r="334.646" /> 
<circle cx="15129.9" cy="-20854.3" r="334.646" /> 
<circle cx="14129.9" cy="-20854.3" r="334.646" /> 
<circle cx="12129.9" cy="-20854.3" r="334.646" /> 
<circle cx="16129.9" cy="-20854.3" r="334.646" /> 
<circle cx="2129.92" cy="-20854.3" r="334.646" /> 
<circle cx="1129.92" cy="-20854.3" r="334.646" /> 
<circle cx="20129.9" cy="-20854.3" r="334.646" /> 
<circle cx="9129.92" cy="-20854.3" r="334.646" /> 
<circle cx="5129.92" cy="-20854.3" r="334.646" /> 
<circle cx="6129.92" cy="-20854.3" r="334.646" /> 
<circle cx="8129.92" cy="-20854.3" r="334.646" /> 
<circle cx="7129.92" cy="-20854.3" r="334.646" /> 
<circle cx="13129.9" cy="-21854.3" r="334.646" /> 
<circle cx="19129.9" cy="-21854.3" r="334.646" /> 
<circle cx="15129.9" cy="-21854.3" r="334.646" /> 
<circle cx="14129.9" cy="-21854.3" r="334.646" /> 
<circle cx="12129.9" cy="-21854.3" r="334.646" /> 
<circle cx="16129.9" cy="-21854.3" r="334.646" /> 
<circle cx="2129.92" cy="-21854.3" r="334.646" /> 
<circle cx="1129.92" cy="-21854.3" r="334.646" /> 
<circle cx="20129.9" cy="-21854.3" r="334.646" /> 
<circle cx="9129.92" cy="-21854.3" r="334.646" /> 
<circle cx="5129.92" cy="-21854.3" r="334.646" /> 
<circle cx="6129.92" cy="-21854.3" r="334.646" /> 
<circle cx="8129.92" cy="-21854.3" r="334.646" /> 
<circle cx="7129.92" cy="-21854.3" r="334.646" /> 
<circle cx="13129.9" cy="-22854.3" r="334.646" /> 
<circle cx="19129.9" cy="-22854.3" r="334.646" /> 
<circle cx="15129.9" cy="-22854.3" r="334.646" /> 
<circle cx="14129.9" cy="-22854.3" r="334.646" /> 
<circle cx="12129.9" cy="-22854.3" r="334.646" /> 
<circle cx="16129.9" cy="-22854.3" r="334.646" /> 
<circle cx="2129.92" cy="-22854.3" r="334.646" /> 
<circle cx="1129.92" cy="-22854.3" r="334.646" /> 
<circle cx="20129.9" cy="-22854.3" r="334.646" /> 
<circle cx="9129.92" cy="-22854.3" r="334.646" /> 
<circle cx="5129.92" cy="-22854.3" r="334.646" /> 
<circle cx="6129.92" cy="-22854.3" r="334.646" /> 
<circle cx="8129.92" cy="-22854.3" r="334.646" /> 
<circle cx="7129.92" cy="-22854.3" r="334.646" /> 
<circle cx="13129.9" cy="-23854.3" r="334.646" /> 
<circle cx="19129.9" cy="-23854.3" r="334.646" /> 
<circle cx="15129.9" cy="-23854.3" r="334.646" /> 
<circle cx="14129.9" cy="-23854.3" r="334.646" /> 
<circle cx="12129.9" cy="-23854.3" r="334.646" /> 
<circle cx="16129.9" cy="-23854.3" r="334.646" /> 
<circle cx="2129.92" cy="-23854.3" r="334.646" /> 
<circle cx="1129.92" cy="-23854.3" r="334.646" /> 
<circle cx="20129.9" cy="-23854.3" r="334.646" /> 
<circle cx="9129.92" cy="-23854.3" r="334.646" /> 
<circle cx="5129.92" cy="-23854.3" r="334.646" /> 
<circle cx="6129.92" cy="-23854.3" r="334.646" /> 
<circle cx="8129.92" cy="-23854.3" r="334.646" /> 
<circle cx="7129.92" cy="-23854.3" r="334.646" /> 
<circle cx="13129.9" cy="-24854.3" r="334.646" /> 
<circle cx="19129.9" cy="-24854.3" r="334.646" /> 
<circle cx="15129.9" cy="-24854.3" r="334.646" /> 
<circle cx="14129.9" cy="-24854.3" r="334.646" /> 
<circle cx="12129.9" cy="-24854.3" r="334.646" /> 
<circle cx="16129.9" cy="-24854.3" r="334.646" /> 
<circle cx="2129.92" cy="-24854.3" r="334.646" /> 
<circle cx="1129.92" cy="-24854.3" r="334.646" /> 
<circle cx="20129.9" cy="-24854.3" r="334.646" /> 
<circle cx="9129.92" cy="-24854.3" r="334.646" /> 
<circle cx="5129.92" cy="-24854.3" r="334.646" /> 
<circle cx="6129.92" cy="-24854.3" r="334.646" /> 
<circle cx="8129.92" cy="-24854.3" r="334.646" /> 
<circle cx="7129.92" cy="-24854.3" r="334.646" /> 
<circle cx="13129.9" cy="-25854.3" r="334.646" /> 
<circle cx="19129.9" cy="-25854.3" r="334.646" /> 
<circle cx="15129.9" cy="-25854.3" r="334.646" /> 
<circle cx="14129.9" cy="-25854.3" r="334.646" /> 
<circle cx="12129.9" cy="-25854.3" r="334.646" /> 
<circle cx="16129.9" cy="-25854.3" r="334.646" /> 
<circle cx="2129.92" cy="-25854.3" r="334.646" /> 
<circle cx="1129.92" cy="-25854.3" r="334.646" /> 
<circle cx="20129.9" cy="-25854.3" r="334.646" /> 
<circle cx="9129.92" cy="-25854.3" r="334.646" /> 
<circle cx="5129.92" cy="-25854.3" r="334.646" /> 
<circle cx="6129.92" cy="-25854.3" r="334.646" /> 
<circle cx="8129.92" cy="-25854.3" r="334.646" /> 
<circle cx="7129.92" cy="-25854.3" r="334.646" /> 
<circle cx="13129.9" cy="-26854.3" r="334.646" /> 
<circle cx="19129.9" cy="-26854.3" r="334.646" /> 
<circle cx="15129.9" cy="-26854.3" r="334.646" /> 
<circle cx="14129.9" cy="-26854.3" r="334.646" /> 
<circle cx="12129.9" cy="-26854.3" r="334.646" /> 
<circle cx="16129.9" cy="-26854.3" r="334.646" /> 
<circle cx="2129.92" cy="-26854.3" r="334.646" /> 
<circle cx="1129.92" cy="-26854.3" r="334.646" /> 
<circle cx="20129.9" cy="-26854.3" r="334.646" /> 
<circle cx="9129.92" cy="-26854.3" r="334.646" /> 
<circle cx="5129.92" cy="-26854.3" r="334.646" /> 
<circle cx="6129.92" cy="-26854.3" r="334.646" /> 
<circle cx="8129.92" cy="-26854.3" r="334.646" /> 
<circle cx="7129.92" cy="-26854.3" r="334.646" /> 
</g>
<g >
</g>
<g >
</g>
<g >
</g>
<g >
</g>
<g style="fill:#000000; fill-opacity:1.0; 
stroke:#000000; stroke-width:0; stroke-opacity:1; 
stroke-linecap:round; stroke-linejoin:round;">
<circle cx="1600.39" cy="-37185" r="531.496" /> 
</g>
<g style="fill:#000000; fill-opacity:1.0; 
stroke:#000000; stroke-width:39.3701; stroke-opacity:1; 
stroke-linecap:round; stroke-linejoin:round;">
</g>
<g style="fill:#000000; fill-opacity:1.0; 
stroke:#000000; stroke-width:0; stroke-opacity:1; 
stroke-linecap:round; stroke-linejoin:round;">
<circle cx="3100.39" cy="-37185" r="531.496" /> 
</g>
<g style="fill:#000000; fill-opacity:1.0; 
stroke:#000000; stroke-width:39.3701; stroke-opacity:1; 
stroke-linecap:round; stroke-linejoin:round;">
</g>
<g >
</g>
<g >
</g>
<g >
</g>
<g >
</g>
<g >
</g>
<g >
</g>
<g style="fill:#000000; fill-opacity:1.0; 
stroke:#000000; stroke-width:39.3701; stroke-opacity:1; 
stroke-linecap:round; stroke-linejoin:round;">
</g>
<g style="fill:#000000; fill-opacity:1.0; 
stroke:#000000; stroke-width:0; stroke-opacity:1; 
stroke-linecap:round; stroke-linejoin:round;">
<circle cx="6358.27" cy="-30956.7" r="334.646" /> 
<circle cx="5358.27" cy="-31956.7" r="334.646" /> 
<circle cx="5358.27" cy="-30956.7" r="334.646" /> 
<path style="fill:#000000; fill-opacity:1.0; 
stroke:#000000; stroke-width:0; stroke-opacity:1; 
stroke-linecap:round; stroke-linejoin:round;fill-rule:evenodd;"
d="M 4692.91,-30622
4023.62,-30622
4023.62,-31291.3
4692.91,-31291.3
Z" /> 
</g>
<g >
</g>
<g style="fill:#000000; fill-opacity:1.0; 
stroke:#000000; stroke-width:0; stroke-opacity:1; 
stroke-linecap:round; stroke-linejoin:round;">
<circle cx="1129.92" cy="-30956.7" r="334.646" /> 
<circle cx="2129.92" cy="-30956.7" r="334.646" /> 
<circle cx="1129.92" cy="-31956.7" r="334.646" /> 
<circle cx="2129.92" cy="-31956.7" r="334.646" /> 
<circle cx="1129.92" cy="-32956.7" r="334.646" /> 
<circle cx="2129.92" cy="-32956.7" r="334.646" /> 
<circle cx="1129.92" cy="-33956.7" r="334.646" /> 
<path style="fill:#000000; fill-opacity:1.0; 
stroke:#000000; stroke-width:0; stroke-opacity:1; 
stroke-linecap:round; stroke-linejoin:round;fill-rule:evenodd;"
d="M 2464.57,-34291.3
2464.57,-33622
1795.28,-33622
1795.28,-34291.3
Z" /> 
</g>
<g >
</g>
<g >
</g>
<g >
</g>
<g style="fill:#000000; fill-opacity:1.0; 
stroke:#000000; stroke-width:0; stroke-opacity:1; 
stroke-linecap:round; stroke-linejoin:round;">
</g>
<g style="fill:#000000; fill-opacity:1.0; 
stroke:#000000; stroke-width:433.071; stroke-opacity:1; 
stroke-linecap:round; stroke-linejoin:round;">
</g>
<g style="fill:#000000; fill-opacity:0.0; 
stroke:#000000; stroke-width:433.071; stroke-opacity:1; 
stroke-linecap:round; stroke-linejoin:round;">
<path d="M8747 -38221
L8747 -38496
" />
<path d="M5912 -38496
L5912 -38221
" />
</g>
<g style="fill:#000000; fill-opacity:1.0; 
stroke:#000000; stroke-width:0; stroke-opacity:1; 
stroke-linecap:round; stroke-linejoin:round;">
<circle cx="8284.65" cy="-37256.7" r="253.937" /> 
</g>
<g style="fill:#000000; fill-opacity:1.0; 
stroke:#000000; stroke-width:39.3701; stroke-opacity:1; 
stroke-linecap:round; stroke-linejoin:round;">
</g>
<g style="fill:#000000; fill-opacity:1.0; 
stroke:#000000; stroke-width:0; stroke-opacity:1; 
stroke-linecap:round; stroke-linejoin:round;">
<circle cx="6375.2" cy="-37256.7" r="253.937" /> 
</g>
<g style="fill:#000000; fill-opacity:1.0; 
stroke:#000000; stroke-width:39.3701; stroke-opacity:1; 
stroke-linecap:round; stroke-linejoin:round;">
</g>
<g style="fill:#000000; fill-opacity:1.0; 
stroke:#000000; stroke-width:433.071; stroke-opacity:1; 
stroke-linecap:round; stroke-linejoin:round;">
</g>
<g style="fill:#000000; fill-opacity:0.0; 
stroke:#000000; stroke-width:433.071; stroke-opacity:1; 
stroke-linecap:round; stroke-linejoin:round;">
<path d="M5912 -38496
L5912 -38221
" />
</g>
<g >
</g>
<g >
</g>
<g >
</g>
<g >
</g>
<g >
</g>
<g style="fill:#000000; fill-opacity:0.0; 
stroke:#000000; stroke-width:433.071; stroke-opacity:1; 
stroke-linecap:round; stroke-linejoin:round;">
</g>
<g style="fill:#000000; fill-opacity:1.0; 
stroke:#000000; stroke-width:0; stroke-opacity:1; 
stroke-linecap:round; stroke-linejoin:round;">
<circle cx="17017.7" cy="-30956.7" r="334.646" /> 
<circle cx="16017.7" cy="-31956.7" r="334.646" /> 
<circle cx="16017.7" cy="-30956.7" r="334.646" /> 
<path style="fill:#000000; fill-opacity:1.0; 
stroke:#000000; stroke-width:0; stroke-opacity:1; 
stroke-linecap:round; stroke-linejoin:round;fill-rule:evenodd;"
d="M 15352.4,-30622
14683.1,-30622
14683.1,-31291.3
15352.4,-31291.3
Z" /> 
</g>
<g >
</g>
<g style="fill:#000000; fill-opacity:1.0; 
stroke:#000000; stroke-width:0; stroke-opacity:1; 
stroke-linecap:round; stroke-linejoin:round;">
<circle cx="19129.9" cy="-30956.7" r="334.646" /> 
<circle cx="20129.9" cy="-30956.7" r="334.646" /> 
<circle cx="19129.9" cy="-31956.7" r="334.646" /> 
<circle cx="20129.9" cy="-31956.7" r="334.646" /> 
<circle cx="19129.9" cy="-32956.7" r="334.646" /> 
<circle cx="20129.9" cy="-32956.7" r="334.646" /> 
<circle cx="19129.9" cy="-33956.7" r="334.646" /> 
<path style="fill:#000000; fill-opacity:1.0; 
stroke:#000000; stroke-width:0; stroke-opacity:1; 
stroke-linecap:round; stroke-linejoin:round;fill-rule:evenodd;"
d="M 20464.6,-34291.3
20464.6,-33622
19795.3,-33622
19795.3,-34291.3
Z" /> 
</g>
<g >
</g>
<g >
</g>
<g >
</g>
<g >
</g>
<g >
</g>
<g >
</g>
<g style="fill:#000000; fill-opacity:1.0; 
stroke:#000000; stroke-width:0; stroke-opacity:1; 
stroke-linecap:round; stroke-linejoin:round;">
<circle cx="13829.9" cy="-32456.7" r="157.48" /> 
</g>
<g style="fill:#000000; fill-opacity:1.0; 
stroke:#000000; stroke-width:39.3701; stroke-opacity:1; 
stroke-linecap:round; stroke-linejoin:round;">
</g>
<g style="fill:#000000; fill-opacity:1.0; 
stroke:#000000; stroke-width:0; stroke-opacity:1; 
stroke-linecap:round; stroke-linejoin:round;">
<circle cx="6879.92" cy="-32206.7" r="157.48" /> 
</g>
<g style="fill:#000000; fill-opacity:1.0; 
stroke:#000000; stroke-width:39.3701; stroke-opacity:1; 
stroke-linecap:round; stroke-linejoin:round;">
</g>
<g style="fill:#000000; fill-opacity:1.0; 
stroke:#000000; stroke-width:0; stroke-opacity:1; 
stroke-linecap:round; stroke-linejoin:round;">
<circle cx="8129.92" cy="-30956.7" r="157.48" /> 
</g>
<g style="fill:#000000; fill-opacity:1.0; 
stroke:#000000; stroke-width:39.3701; stroke-opacity:1; 
stroke-linecap:round; stroke-linejoin:round;">
</g>
<g style="fill:#000000; fill-opacity:1.0; 
stroke:#000000; stroke-width:0; stroke-opacity:1; 
stroke-linecap:round; stroke-linejoin:round;">
<circle cx="9129.92" cy="-30956.7" r="157.48" /> 
</g>
<g style="fill:#000000; fill-opacity:1.0; 
stroke:#000000; stroke-width:39.3701; stroke-opacity:1; 
stroke-linecap:round; stroke-linejoin:round;">
</g>
<g style="fill:#000000; fill-opacity:1.0; 
stroke:#000000; stroke-width:0; stroke-opacity:1; 
stroke-linecap:round; stroke-linejoin:round;">
<circle cx="8629.92" cy="-30956.7" r="157.48" /> 
</g>
<g style="fill:#000000; fill-opacity:1.0; 
stroke:#000000; stroke-width:39.3701; stroke-opacity:1; 
stroke-linecap:round; stroke-linejoin:round;">
</g>
<g style="fill:#000000; fill-opacity:1.0; 
stroke:#000000; stroke-width:0; stroke-opacity:1; 
stroke-linecap:round; stroke-linejoin:round;">
<circle cx="8129.92" cy="-30456.7" r="157.48" /> 
</g>
<g style="fill:#000000; fill-opacity:1.0; 
stroke:#000000; stroke-width:39.3701; stroke-opacity:1; 
stroke-linecap:round; stroke-linejoin:round;">
</g>
<g style="fill:#000000; fill-opacity:1.0; 
stroke:#000000; stroke-width:0; stroke-opacity:1; 
stroke-linecap:round; stroke-linejoin:round;">
<circle cx="8629.92" cy="-31456.7" r="157.48" /> 
</g>
<g style="fill:#000000; fill-opacity:1.0; 
stroke:#000000; stroke-width:39.3701; stroke-opacity:1; 
stroke-linecap:round; stroke-linejoin:round;">
</g>
<g style="fill:#000000; fill-opacity:1.0; 
stroke:#000000; stroke-width:0; stroke-opacity:1; 
stroke-linecap:round; stroke-linejoin:round;">
<circle cx="9129.92" cy="-30456.7" r="157.48" /> 
</g>
<g style="fill:#000000; fill-opacity:1.0; 
stroke:#000000; stroke-width:39.3701; stroke-opacity:1; 
stroke-linecap:round; stroke-linejoin:round;">
</g>
<g style="fill:#000000; fill-opacity:1.0; 
stroke:#000000; stroke-width:0; stroke-opacity:1; 
stroke-linecap:round; stroke-linejoin:round;">
<circle cx="10129.9" cy="-31456.7" r="157.48" /> 
</g>
<g style="fill:#000000; fill-opacity:1.0; 
stroke:#000000; stroke-width:39.3701; stroke-opacity:1; 
stroke-linecap:round; stroke-linejoin:round;">
</g>
<g style="fill:#000000; fill-opacity:1.0; 
stroke:#000000; stroke-width:0; stroke-opacity:1; 
stroke-linecap:round; stroke-linejoin:round;">
<circle cx="12629.9" cy="-30956.7" r="157.48" /> 
</g>
<g style="fill:#000000; fill-opacity:1.0; 
stroke:#000000; stroke-width:39.3701; stroke-opacity:1; 
stroke-linecap:round; stroke-linejoin:round;">
</g>
<g style="fill:#000000; fill-opacity:1.0; 
stroke:#000000; stroke-width:0; stroke-opacity:1; 
stroke-linecap:round; stroke-linejoin:round;">
<circle cx="10129.9" cy="-30956.7" r="157.48" /> 
</g>
<g style="fill:#000000; fill-opacity:1.0; 
stroke:#000000; stroke-width:39.3701; stroke-opacity:1; 
stroke-linecap:round; stroke-linejoin:round;">
</g>
<g style="fill:#000000; fill-opacity:1.0; 
stroke:#000000; stroke-width:0; stroke-opacity:1; 
stroke-linecap:round; stroke-linejoin:round;">
<circle cx="8629.92" cy="-30456.7" r="157.48" /> 
</g>
<g style="fill:#000000; fill-opacity:1.0; 
stroke:#000000; stroke-width:39.3701; stroke-opacity:1; 
stroke-linecap:round; stroke-linejoin:round;">
</g>
<g style="fill:#000000; fill-opacity:1.0; 
stroke:#000000; stroke-width:0; stroke-opacity:1; 
stroke-linecap:round; stroke-linejoin:round;">
<circle cx="12129.9" cy="-30456.7" r="157.48" /> 
</g>
<g style="fill:#000000; fill-opacity:1.0; 
stroke:#000000; stroke-width:39.3701; stroke-opacity:1; 
stroke-linecap:round; stroke-linejoin:round;">
</g>
<g style="fill:#000000; fill-opacity:1.0; 
stroke:#000000; stroke-width:0; stroke-opacity:1; 
stroke-linecap:round; stroke-linejoin:round;">
<circle cx="11629.9" cy="-30456.7" r="157.48" /> 
</g>
<g style="fill:#000000; fill-opacity:1.0; 
stroke:#000000; stroke-width:39.3701; stroke-opacity:1; 
stroke-linecap:round; stroke-linejoin:round;">
</g>
<g style="fill:#000000; fill-opacity:1.0; 
stroke:#000000; stroke-width:0; stroke-opacity:1; 
stroke-linecap:round; stroke-linejoin:round;">
<circle cx="12129.9" cy="-30956.7" r="157.48" /> 
</g>
<g style="fill:#000000; fill-opacity:1.0; 
stroke:#000000; stroke-width:39.3701; stroke-opacity:1; 
stroke-linecap:round; stroke-linejoin:round;">
</g>
<g style="fill:#000000; fill-opacity:1.0; 
stroke:#000000; stroke-width:0; stroke-opacity:1; 
stroke-linecap:round; stroke-linejoin:round;">
<circle cx="10129.9" cy="-30456.7" r="157.48" /> 
</g>
<g style="fill:#000000; fill-opacity:1.0; 
stroke:#000000; stroke-width:39.3701; stroke-opacity:1; 
stroke-linecap:round; stroke-linejoin:round;">
</g>
<g style="fill:#000000; fill-opacity:1.0; 
stroke:#000000; stroke-width:0; stroke-opacity:1; 
stroke-linecap:round; stroke-linejoin:round;">
<circle cx="12629.9" cy="-30456.7" r="157.48" /> 
</g>
<g style="fill:#000000; fill-opacity:1.0; 
stroke:#000000; stroke-width:39.3701; stroke-opacity:1; 
stroke-linecap:round; stroke-linejoin:round;">
</g>
<g style="fill:#000000; fill-opacity:1.0; 
stroke:#000000; stroke-width:0; stroke-opacity:1; 
stroke-linecap:round; stroke-linejoin:round;">
<circle cx="11129.9" cy="-31456.7" r="157.48" /> 
</g>
<g style="fill:#000000; fill-opacity:1.0; 
stroke:#000000; stroke-width:39.3701; stroke-opacity:1; 
stroke-linecap:round; stroke-linejoin:round;">
</g>
<g style="fill:#000000; fill-opacity:1.0; 
stroke:#000000; stroke-width:0; stroke-opacity:1; 
stroke-linecap:round; stroke-linejoin:round;">
<circle cx="12129.9" cy="-31456.7" r="157.48" /> 
</g>
<g style="fill:#000000; fill-opacity:1.0; 
stroke:#000000; stroke-width:39.3701; stroke-opacity:1; 
stroke-linecap:round; stroke-linejoin:round;">
</g>
<g style="fill:#000000; fill-opacity:1.0; 
stroke:#000000; stroke-width:0; stroke-opacity:1; 
stroke-linecap:round; stroke-linejoin:round;">
<circle cx="11129.9" cy="-30956.7" r="157.48" /> 
</g>
<g style="fill:#000000; fill-opacity:1.0; 
stroke:#000000; stroke-width:39.3701; stroke-opacity:1; 
stroke-linecap:round; stroke-linejoin:round;">
</g>
<g style="fill:#000000; fill-opacity:1.0; 
stroke:#000000; stroke-width:0; stroke-opacity:1; 
stroke-linecap:round; stroke-linejoin:round;">
<circle cx="13129.9" cy="-30956.7" r="157.48" /> 
</g>
<g style="fill:#000000; fill-opacity:1.0; 
stroke:#000000; stroke-width:39.3701; stroke-opacity:1; 
stroke-linecap:round; stroke-linejoin:round;">
</g>
<g style="fill:#000000; fill-opacity:1.0; 
stroke:#000000; stroke-width:0; stroke-opacity:1; 
stroke-linecap:round; stroke-linejoin:round;">
<circle cx="9629.92" cy="-30456.7" r="157.48" /> 
</g>
<g style="fill:#000000; fill-opacity:1.0; 
stroke:#000000; stroke-width:39.3701; stroke-opacity:1; 
stroke-linecap:round; stroke-linejoin:round;">
</g>
<g style="fill:#000000; fill-opacity:1.0; 
stroke:#000000; stroke-width:0; stroke-opacity:1; 
stroke-linecap:round; stroke-linejoin:round;">
<circle cx="9629.92" cy="-30956.7" r="157.48" /> 
</g>
<g style="fill:#000000; fill-opacity:1.0; 
stroke:#000000; stroke-width:39.3701; stroke-opacity:1; 
stroke-linecap:round; stroke-linejoin:round;">
</g>
<g style="fill:#000000; fill-opacity:1.0; 
stroke:#000000; stroke-width:0; stroke-opacity:1; 
stroke-linecap:round; stroke-linejoin:round;">
<circle cx="9629.92" cy="-31456.7" r="157.48" /> 
</g>
<g style="fill:#000000; fill-opacity:1.0; 
stroke:#000000; stroke-width:39.3701; stroke-opacity:1; 
stroke-linecap:round; stroke-linejoin:round;">
</g>
<g style="fill:#000000; fill-opacity:1.0; 
stroke:#000000; stroke-width:0; stroke-opacity:1; 
stroke-linecap:round; stroke-linejoin:round;">
<circle cx="8129.92" cy="-31456.7" r="157.48" /> 
</g>
<g style="fill:#000000; fill-opacity:1.0; 
stroke:#000000; stroke-width:39.3701; stroke-opacity:1; 
stroke-linecap:round; stroke-linejoin:round;">
</g>
<g style="fill:#000000; fill-opacity:1.0; 
stroke:#000000; stroke-width:0; stroke-opacity:1; 
stroke-linecap:round; stroke-linejoin:round;">
<circle cx="9129.92" cy="-31456.7" r="157.48" /> 
</g>
<g style="fill:#000000; fill-opacity:1.0; 
stroke:#000000; stroke-width:39.3701; stroke-opacity:1; 
stroke-linecap:round; stroke-linejoin:round;">
</g>
<g style="fill:#000000; fill-opacity:1.0; 
stroke:#000000; stroke-width:0; stroke-opacity:1; 
stroke-linecap:round; stroke-linejoin:round;">
<circle cx="12629.9" cy="-31456.7" r="157.48" /> 
</g>
<g style="fill:#000000; fill-opacity:1.0; 
stroke:#000000; stroke-width:39.3701; stroke-opacity:1; 
stroke-linecap:round; stroke-linejoin:round;">
</g>
<g style="fill:#000000; fill-opacity:1.0; 
stroke:#000000; stroke-width:0; stroke-opacity:1; 
stroke-linecap:round; stroke-linejoin:round;">
<circle cx="11129.9" cy="-30456.7" r="157.48" /> 
</g>
<g style="fill:#000000; fill-opacity:1.0; 
stroke:#000000; stroke-width:39.3701; stroke-opacity:1; 
stroke-linecap:round; stroke-linejoin:round;">
</g>
<g style="fill:#000000; fill-opacity:1.0; 
stroke:#000000; stroke-width:0; stroke-opacity:1; 
stroke-linecap:round; stroke-linejoin:round;">
<circle cx="11629.9" cy="-31456.7" r="157.48" /> 
</g>
<g style="fill:#000000; fill-opacity:1.0; 
stroke:#000000; stroke-width:39.3701; stroke-opacity:1; 
stroke-linecap:round; stroke-linejoin:round;">
</g>
<g style="fill:#000000; fill-opacity:1.0; 
stroke:#000000; stroke-width:0; stroke-opacity:1; 
stroke-linecap:round; stroke-linejoin:round;">
<circle cx="13129.9" cy="-30456.7" r="157.48" /> 
</g>
<g style="fill:#000000; fill-opacity:1.0; 
stroke:#000000; stroke-width:39.3701; stroke-opacity:1; 
stroke-linecap:round; stroke-linejoin:round;">
</g>
<g style="fill:#000000; fill-opacity:1.0; 
stroke:#000000; stroke-width:0; stroke-opacity:1; 
stroke-linecap:round; stroke-linejoin:round;">
<circle cx="11629.9" cy="-30956.7" r="157.48" /> 
</g>
<g style="fill:#000000; fill-opacity:1.0; 
stroke:#000000; stroke-width:39.3701; stroke-opacity:1; 
stroke-linecap:round; stroke-linejoin:round;">
</g>
<g style="fill:#000000; fill-opacity:1.0; 
stroke:#000000; stroke-width:0; stroke-opacity:1; 
stroke-linecap:round; stroke-linejoin:round;">
<circle cx="13129.9" cy="-31456.7" r="157.48" /> 
</g>
<g style="fill:#000000; fill-opacity:1.0; 
stroke:#000000; stroke-width:39.3701; stroke-opacity:1; 
stroke-linecap:round; stroke-linejoin:round;">
</g>
<g >
</g>
<g style="fill:#000000; fill-opacity:1.0; 
stroke:#000000; stroke-width:39.3701; stroke-opacity:1; 
stroke-linecap:round; stroke-linejoin:round;">
</g>
<g style="fill:#000000; fill-opacity:1.0; 
stroke:#000000; stroke-width:393.701; stroke-opacity:1; 
stroke-linecap:round; stroke-linejoin:round;">
</g>
<g style="fill:#000000; fill-opacity:0.0; 
stroke:#000000; stroke-width:393.701; stroke-opacity:1; 
stroke-linecap:round; stroke-linejoin:round;">
<path d="M13829 -32456
L14129 -32456
" />
<path d="M6879 -32206
L7129 -32456
" />
<path d="M4358 -29828
L5029 -29156
" />
<path d="M5029 -29156
L16129 -29156
" />
<path d="M16129 -29156
L17017 -30044
" />
<path d="M17017 -30044
L17017 -30956
" />
<path d="M4358 -30956
L4358 -29828
" />
<path d="M15017 -30956
L15017 -30244
" />
<path d="M14129 -32456
L14629 -31956
" />
<path d="M7129 -32456
L13829 -32456
" />
<path d="M14529 -29756
L6829 -29756
" />
<path d="M14629 -31956
L16017 -31956
" />
<path d="M6358 -30228
L6358 -30956
" />
<path d="M5358 -31956
L6629 -31956
" />
<path d="M6829 -29756
L6358 -30228
" />
<path d="M15017 -30244
L14529 -29756
" />
<path d="M6629 -31956
L6879 -32206
" />
</g>
<g >
</g>
<g style="fill:#000000; fill-opacity:0.0; 
stroke:#000000; stroke-width:393.701; stroke-opacity:1; 
stroke-linecap:round; stroke-linejoin:round;">
<g >
</g>
<g style="fill:#000000; fill-opacity:1.0; 
stroke:#000000; stroke-width:100; stroke-opacity:1; 
stroke-linecap:round; stroke-linejoin:round;">
<path style="fill:#000000; fill-opacity:1.0; 
stroke:#000000; stroke-width:100; stroke-opacity:1; 
stroke-linecap:round; stroke-linejoin:round;fill-rule:evenodd;"
d="M 901.102,-34384.8
821.981,-34331.9
754.696,-34264.6
701.83,-34185.5
665.415,-34097.6
646.85,-34004.3
646.85,-33909.1
665.415,-33815.8
701.83,-33727.9
754.696,-33648.8
821.981,-33581.5
901.102,-33528.6
989.015,-33492.2
1082.34,-33473.6
1177.5,-33473.6
1270.83,-33492.2
1358.74,-33528.6
1437.86,-33581.5
1505.15,-33648.8
1558.01,-33727.9
1594.43,-33815.8
1612.99,-33909.1
1612.99,-34004.3
1594.43,-34097.6
1558.01,-34185.5
1505.15,-34264.6
1437.86,-34331.9
1358.74,-34384.8
1305.85,-34406.7
1701.87,-34406.7
1689.82,-34396.8
1671.27,-34374.2
1657.49,-34348.4
1649,-34320.4
1646.13,-34291.3
1646.13,-33622
1649,-33593
1657.49,-33565
1671.27,-33539.2
1689.82,-33516.6
1712.42,-33498
1738.2,-33484.3
1766.18,-33475.8
1795.28,-33472.9
2464.57,-33472.9
2493.66,-33475.8
2521.64,-33484.3
2547.43,-33498
2570.03,-33516.6
2588.58,-33539.2
2602.36,-33565
2610.84,-33593
2613.71,-33622
2613.71,-34291.3
2612.52,-34303.4
4394.57,-32521.3
4402.14,-32515.1
4410.79,-32510.5
4420.17,-32507.7
4429.92,-32506.7
5709.21,-32506.7
5879.92,-32336
5879.92,-32302
5696.16,-32302
5666.21,-32331.9
5587.09,-32384.8
5499.17,-32421.2
5405.85,-32439.8
5310.69,-32439.8
5217.36,-32421.2
5129.45,-32384.8
5050.33,-32331.9
4983.04,-32264.6
4930.18,-32185.5
4893.76,-32097.6
4875.2,-32004.3
4875.2,-31909.1
4893.76,-31815.8
4930.18,-31727.9
4983.04,-31648.8
5050.33,-31581.5
5129.45,-31528.6
5217.36,-31492.2
5310.69,-31473.6
5405.85,-31473.6
5499.17,-31492.2
5587.09,-31528.6
5666.21,-31581.5
5696.16,-31611.4
6204.49,-31611.4
6294.57,-31521.3
6302.14,-31515.1
6310.79,-31510.5
6320.17,-31507.7
6329.92,-31506.7
6709.21,-31506.7
6879.92,-31336
6879.92,-30577.4
6709.21,-30406.7
6703.54,-30406.7
6703.54,-30618.8
6733.49,-30648.8
6786.36,-30727.9
6822.77,-30815.8
6841.34,-30909.1
6841.34,-31004.3
6822.77,-31097.6
6786.36,-31185.5
6733.49,-31264.6
6666.21,-31331.9
6587.09,-31384.8
6499.17,-31421.2
6405.85,-31439.8
6310.69,-31439.8
6217.36,-31421.2
6129.45,-31384.8
6050.33,-31331.9
5983.04,-31264.6
5930.18,-31185.5
5893.76,-31097.6
5875.2,-31004.3
5875.2,-30909.1
5893.76,-30815.8
5930.18,-30727.9
5983.04,-30648.8
6012.99,-30618.8
6012.99,-30406.7
4703.54,-30406.7
4703.54,-30474
4722.01,-30475.8
4749.99,-30484.3
4775.77,-30498
4798.37,-30516.6
4816.92,-30539.2
4830.7,-30565
4839.19,-30593
4842.06,-30622
4842.06,-31004.3
4875.2,-31004.3
4875.2,-30909.1
4893.76,-30815.8
4930.18,-30727.9
4983.04,-30648.8
5050.33,-30581.5
5129.45,-30528.6
5217.36,-30492.2
5310.69,-30473.6
5405.85,-30473.6
5499.17,-30492.2
5587.09,-30528.6
5666.21,-30581.5
5733.49,-30648.8
5786.36,-30727.9
5822.77,-30815.8
5841.34,-30909.1
5841.34,-31004.3
5822.77,-31097.6
5786.36,-31185.5
5733.49,-31264.6
5666.21,-31331.9
5587.09,-31384.8
5499.17,-31421.2
5405.85,-31439.8
5310.69,-31439.8
5217.36,-31421.2
5129.45,-31384.8
5050.33,-31331.9
4983.04,-31264.6
4930.18,-31185.5
4893.76,-31097.6
4875.2,-31004.3
4842.06,-31004.3
4842.06,-31291.3
4839.19,-31320.4
4830.7,-31348.4
4816.92,-31374.2
4798.37,-31396.8
4775.77,-31415.3
4749.99,-31429.1
4722.01,-31437.6
4692.91,-31440.5
4023.62,-31440.5
3994.53,-31437.6
3966.55,-31429.1
3940.76,-31415.3
3918.16,-31396.8
3899.61,-31374.2
3885.83,-31348.4
3877.34,-31320.4
3874.48,-31291.3
3874.48,-30622
3877.34,-30593
3885.83,-30565
3899.61,-30539.2
3918.16,-30516.6
3940.76,-30498
3966.55,-30484.3
3994.53,-30475.8
4012.99,-30474
4012.99,-30406.7
579.921,-30406.7
579.921,-31004.3
646.85,-31004.3
646.85,-30909.1
665.415,-30815.8
701.83,-30727.9
754.696,-30648.8
821.981,-30581.5
901.102,-30528.6
989.015,-30492.2
1082.34,-30473.6
1177.5,-30473.6
1270.83,-30492.2
1358.74,-30528.6
1437.86,-30581.5
1505.15,-30648.8
1558.01,-30727.9
1594.43,-30815.8
1612.99,-30909.1
1612.99,-31004.3
1646.85,-31004.3
1646.85,-30909.1
1665.41,-30815.8
1701.83,-30727.9
1754.7,-30648.8
1821.98,-30581.5
1901.1,-30528.6
1989.01,-30492.2
2082.34,-30473.6
2177.5,-30473.6
2270.83,-30492.2
2358.74,-30528.6
2437.86,-30581.5
2505.15,-30648.8
2558.01,-30727.9
2594.43,-30815.8
2612.99,-30909.1
2612.99,-31004.3
2594.43,-31097.6
2558.01,-31185.5
2505.15,-31264.6
2437.86,-31331.9
2358.74,-31384.8
2270.83,-31421.2
2177.5,-31439.8
2082.34,-31439.8
1989.01,-31421.2
1901.1,-31384.8
1821.98,-31331.9
1754.7,-31264.6
1701.83,-31185.5
1665.41,-31097.6
1646.85,-31004.3
1612.99,-31004.3
1594.43,-31097.6
1558.01,-31185.5
1505.15,-31264.6
1437.86,-31331.9
1358.74,-31384.8
1270.83,-31421.2
1177.5,-31439.8
1082.34,-31439.8
989.015,-31421.2
901.102,-31384.8
821.981,-31331.9
754.696,-31264.6
701.83,-31185.5
665.415,-31097.6
646.85,-31004.3
579.921,-31004.3
579.921,-32004.3
646.85,-32004.3
646.85,-31909.1
665.415,-31815.8
701.83,-31727.9
754.696,-31648.8
821.981,-31581.5
901.102,-31528.6
989.015,-31492.2
1082.34,-31473.6
1177.5,-31473.6
1270.83,-31492.2
1358.74,-31528.6
1437.86,-31581.5
1505.15,-31648.8
1558.01,-31727.9
1594.43,-31815.8
1612.99,-31909.1
1612.99,-32004.3
1646.85,-32004.3
1646.85,-31909.1
1665.41,-31815.8
1701.83,-31727.9
1754.7,-31648.8
1821.98,-31581.5
1901.1,-31528.6
1989.01,-31492.2
2082.34,-31473.6
2177.5,-31473.6
2270.83,-31492.2
2358.74,-31528.6
2437.86,-31581.5
2505.15,-31648.8
2558.01,-31727.9
2594.43,-31815.8
2612.99,-31909.1
2612.99,-32004.3
2594.43,-32097.6
2558.01,-32185.5
2505.15,-32264.6
2437.86,-32331.9
2358.74,-32384.8
2270.83,-32421.2
2177.5,-32439.8
2082.34,-32439.8
1989.01,-32421.2
1901.1,-32384.8
1821.98,-32331.9
1754.7,-32264.6
1701.83,-32185.5
1665.41,-32097.6
1646.85,-32004.3
1612.99,-32004.3
1594.43,-32097.6
1558.01,-32185.5
1505.15,-32264.6
1437.86,-32331.9
1358.74,-32384.8
1270.83,-32421.2
1177.5,-32439.8
1082.34,-32439.8
989.015,-32421.2
901.102,-32384.8
821.981,-32331.9
754.696,-32264.6
701.83,-32185.5
665.415,-32097.6
646.85,-32004.3
579.921,-32004.3
579.921,-33004.3
646.85,-33004.3
646.85,-32909.1
665.415,-32815.8
701.83,-32727.9
754.696,-32648.8
821.981,-32581.5
901.102,-32528.6
989.015,-32492.2
1082.34,-32473.6
1177.5,-32473.6
1270.83,-32492.2
1358.74,-32528.6
1437.86,-32581.5
1505.15,-32648.8
1558.01,-32727.9
1594.43,-32815.8
1612.99,-32909.1
1612.99,-33004.3
1646.85,-33004.3
1646.85,-32909.1
1665.41,-32815.8
1701.83,-32727.9
1754.7,-32648.8
1821.98,-32581.5
1901.1,-32528.6
1989.01,-32492.2
2082.34,-32473.6
2177.5,-32473.6
2270.83,-32492.2
2358.74,-32528.6
2437.86,-32581.5
2505.15,-32648.8
2558.01,-32727.9
2594.43,-32815.8
2612.99,-32909.1
2612.99,-33004.3
2594.43,-33097.6
2558.01,-33185.5
2505.15,-33264.6
2437.86,-33331.9
2358.74,-33384.8
2270.83,-33421.2
2177.5,-33439.8
2082.34,-33439.8
1989.01,-33421.2
1901.1,-33384.8
1821.98,-33331.9
1754.7,-33264.6
1701.83,-33185.5
1665.41,-33097.6
1646.85,-33004.3
1612.99,-33004.3
1594.43,-33097.6
1558.01,-33185.5
1505.15,-33264.6
1437.86,-33331.9
1358.74,-33384.8
1270.83,-33421.2
1177.5,-33439.8
1082.34,-33439.8
989.015,-33421.2
901.102,-33384.8
821.981,-33331.9
754.696,-33264.6
701.83,-33185.5
665.415,-33097.6
646.85,-33004.3
579.921,-33004.3
579.921,-34406.7
953.993,-34406.7
Z" /> 
</g>
</g>
<g style="fill:#000000; fill-opacity:1.0; 
stroke:#000000; stroke-width:100; stroke-opacity:1; 
stroke-linecap:round; stroke-linejoin:round;">
<g >
<path style="fill:#000000; fill-opacity:1.0; 
stroke:#000000; stroke-width:100; stroke-opacity:1; 
stroke-linecap:round; stroke-linejoin:round;fill-rule:evenodd;"
d="M 18901.1,-34384.8
18822,-34331.9
18754.7,-34264.6
18701.8,-34185.5
18665.4,-34097.6
18646.9,-34004.3
18646.9,-33909.1
18665.4,-33815.8
18701.8,-33727.9
18754.7,-33648.8
18822,-33581.5
18901.1,-33528.6
18989,-33492.2
19082.3,-33473.6
19177.5,-33473.6
19270.8,-33492.2
19358.7,-33528.6
19437.9,-33581.5
19505.1,-33648.8
19558,-33727.9
19594.4,-33815.8
19613,-33909.1
19613,-34004.3
19594.4,-34097.6
19558,-34185.5
19505.1,-34264.6
19437.9,-34331.9
19358.7,-34384.8
19305.8,-34406.7
19701.9,-34406.7
19689.8,-34396.8
19671.3,-34374.2
19657.5,-34348.4
19649,-34320.4
19646.1,-34291.3
19646.1,-33622
19649,-33593
19657.5,-33565
19671.3,-33539.2
19689.8,-33516.6
19712.4,-33498
19738.2,-33484.3
19766.2,-33475.8
19795.3,-33472.9
20464.6,-33472.9
20493.7,-33475.8
20521.6,-33484.3
20547.4,-33498
20570,-33516.6
20579.9,-33528.6
20579.9,-33132.6
20558,-33185.5
20505.1,-33264.6
20437.9,-33331.9
20358.7,-33384.8
20270.8,-33421.2
20177.5,-33439.8
20082.3,-33439.8
19989,-33421.2
19901.1,-33384.8
19822,-33331.9
19754.7,-33264.6
19701.8,-33185.5
19665.4,-33097.6
19646.9,-33004.3
19646.9,-32909.1
19665.4,-32815.8
19701.8,-32727.9
19754.7,-32648.8
19822,-32581.5
19901.1,-32528.6
19989,-32492.2
20082.3,-32473.6
20177.5,-32473.6
20270.8,-32492.2
20358.7,-32528.6
20437.9,-32581.5
20505.1,-32648.8
20558,-32727.9
20579.9,-32780.8
20579.9,-32132.6
20558,-32185.5
20505.1,-32264.6
20437.9,-32331.9
20358.7,-32384.8
20270.8,-32421.2
20177.5,-32439.8
20082.3,-32439.8
19989,-32421.2
19901.1,-32384.8
19822,-32331.9
19754.7,-32264.6
19701.8,-32185.5
19665.4,-32097.6
19646.9,-32004.3
19646.9,-31909.1
19665.4,-31815.8
19701.8,-31727.9
19754.7,-31648.8
19822,-31581.5
19901.1,-31528.6
19989,-31492.2
20082.3,-31473.6
20177.5,-31473.6
20270.8,-31492.2
20358.7,-31528.6
20437.9,-31581.5
20505.1,-31648.8
20558,-31727.9
20579.9,-31780.8
20579.9,-31132.6
20558,-31185.5
20505.1,-31264.6
20437.9,-31331.9
20358.7,-31384.8
20270.8,-31421.2
20177.5,-31439.8
20082.3,-31439.8
19989,-31421.2
19901.1,-31384.8
19822,-31331.9
19754.7,-31264.6
19701.8,-31185.5
19665.4,-31097.6
19646.9,-31004.3
19646.9,-30909.1
19665.4,-30815.8
19701.8,-30727.9
19754.7,-30648.8
19822,-30581.5
19901.1,-30528.6
19989,-30492.2
20082.3,-30473.6
20177.5,-30473.6
20270.8,-30492.2
20358.7,-30528.6
20437.9,-30581.5
20505.1,-30648.8
20558,-30727.9
20579.9,-30780.8
20579.9,-30406.7
17363,-30406.7
17363,-30618.8
17392.9,-30648.8
17445.8,-30727.9
17482.2,-30815.8
17500.8,-30909.1
17500.8,-31004.3
18646.9,-31004.3
18646.9,-30909.1
18665.4,-30815.8
18701.8,-30727.9
18754.7,-30648.8
18822,-30581.5
18901.1,-30528.6
18989,-30492.2
19082.3,-30473.6
19177.5,-30473.6
19270.8,-30492.2
19358.7,-30528.6
19437.9,-30581.5
19505.1,-30648.8
19558,-30727.9
19594.4,-30815.8
19613,-30909.1
19613,-31004.3
19594.4,-31097.6
19558,-31185.5
19505.1,-31264.6
19437.9,-31331.9
19358.7,-31384.8
19270.8,-31421.2
19177.5,-31439.8
19082.3,-31439.8
18989,-31421.2
18901.1,-31384.8
18822,-31331.9
18754.7,-31264.6
18701.8,-31185.5
18665.4,-31097.6
18646.9,-31004.3
17500.8,-31004.3
17482.2,-31097.6
17445.8,-31185.5
17392.9,-31264.6
17325.7,-31331.9
17246.5,-31384.8
17158.6,-31421.2
17065.3,-31439.8
16970.1,-31439.8
16876.8,-31421.2
16788.9,-31384.8
16709.8,-31331.9
16642.5,-31264.6
16589.6,-31185.5
16553.2,-31097.6
16534.6,-31004.3
16534.6,-30909.1
16553.2,-30815.8
16589.6,-30727.9
16642.5,-30648.8
16672.4,-30618.8
16672.4,-30406.7
15363,-30406.7
15363,-30474
15381.5,-30475.8
15409.4,-30484.3
15435.2,-30498
15457.8,-30516.6
15476.4,-30539.2
15490.2,-30565
15498.6,-30593
15501.5,-30622
15501.5,-31004.3
15534.6,-31004.3
15534.6,-30909.1
15553.2,-30815.8
15589.6,-30727.9
15642.5,-30648.8
15709.8,-30581.5
15788.9,-30528.6
15876.8,-30492.2
15970.1,-30473.6
16065.3,-30473.6
16158.6,-30492.2
16246.5,-30528.6
16325.7,-30581.5
16392.9,-30648.8
16445.8,-30727.9
16482.2,-30815.8
16500.8,-30909.1
16500.8,-31004.3
16482.2,-31097.6
16445.8,-31185.5
16392.9,-31264.6
16325.7,-31331.9
16246.5,-31384.8
16158.6,-31421.2
16065.3,-31439.8
15970.1,-31439.8
15876.8,-31421.2
15788.9,-31384.8
15709.8,-31331.9
15642.5,-31264.6
15589.6,-31185.5
15553.2,-31097.6
15534.6,-31004.3
15501.5,-31004.3
15501.5,-31291.3
15498.6,-31320.4
15490.2,-31348.4
15476.4,-31374.2
15457.8,-31396.8
15435.2,-31415.3
15409.4,-31429.1
15381.5,-31437.6
15352.4,-31440.5
14683.1,-31440.5
14654,-31437.6
14626,-31429.1
14600.2,-31415.3
14577.6,-31396.8
14559.1,-31374.2
14545.3,-31348.4
14536.8,-31320.4
14533.9,-31291.3
14533.9,-30622
14536.8,-30593
14545.3,-30565
14559.1,-30539.2
14577.6,-30516.6
14600.2,-30498
14626,-30484.3
14654,-30475.8
14672.4,-30474
14672.4,-30406.7
14550.6,-30406.7
14379.9,-30577.4
14379.9,-31336
14550.6,-31506.7
14929.9,-31506.7
14939.7,-31507.7
14949.1,-31510.5
14957.7,-31515.1
14965.3,-31521.3
15055.4,-31611.4
15679.8,-31611.4
15709.8,-31581.5
15788.9,-31528.6
15876.8,-31492.2
15970.1,-31473.6
16065.3,-31473.6
16158.6,-31492.2
16246.5,-31528.6
16325.7,-31581.5
16392.9,-31648.8
16445.8,-31727.9
16482.2,-31815.8
16500.8,-31909.1
16500.8,-32004.3
18646.9,-32004.3
18646.9,-31909.1
18665.4,-31815.8
18701.8,-31727.9
18754.7,-31648.8
18822,-31581.5
18901.1,-31528.6
18989,-31492.2
19082.3,-31473.6
19177.5,-31473.6
19270.8,-31492.2
19358.7,-31528.6
19437.9,-31581.5
19505.1,-31648.8
19558,-31727.9
19594.4,-31815.8
19613,-31909.1
19613,-32004.3
19594.4,-32097.6
19558,-32185.5
19505.1,-32264.6
19437.9,-32331.9
19358.7,-32384.8
19270.8,-32421.2
19177.5,-32439.8
19082.3,-32439.8
18989,-32421.2
18901.1,-32384.8
18822,-32331.9
18754.7,-32264.6
18701.8,-32185.5
18665.4,-32097.6
18646.9,-32004.3
16500.8,-32004.3
16482.2,-32097.6
16445.8,-32185.5
16392.9,-32264.6
16325.7,-32331.9
16246.5,-32384.8
16158.6,-32421.2
16065.3,-32439.8
15970.1,-32439.8
15876.8,-32421.2
15788.9,-32384.8
15709.8,-32331.9
15679.8,-32302
15379.9,-32302
15379.9,-32336
15550.6,-32506.7
16829.9,-32506.7
16839.7,-32507.7
16849.1,-32510.5
16857.7,-32515.1
16865.3,-32521.3
17348.2,-33004.3
18646.9,-33004.3
18646.9,-32909.1
18665.4,-32815.8
18701.8,-32727.9
18754.7,-32648.8
18822,-32581.5
18901.1,-32528.6
18989,-32492.2
19082.3,-32473.6
19177.5,-32473.6
19270.8,-32492.2
19358.7,-32528.6
19437.9,-32581.5
19505.1,-32648.8
19558,-32727.9
19594.4,-32815.8
19613,-32909.1
19613,-33004.3
19594.4,-33097.6
19558,-33185.5
19505.1,-33264.6
19437.9,-33331.9
19358.7,-33384.8
19270.8,-33421.2
19177.5,-33439.8
19082.3,-33439.8
18989,-33421.2
18901.1,-33384.8
18822,-33331.9
18754.7,-33264.6
18701.8,-33185.5
18665.4,-33097.6
18646.9,-33004.3
17348.2,-33004.3
18750.6,-34406.7
18954,-34406.7
Z" /> 
<path style="fill:#000000; fill-opacity:1.0; 
stroke:#000000; stroke-width:100; stroke-opacity:1; 
stroke-linecap:round; stroke-linejoin:round;fill-rule:evenodd;"
d="M 20579.9,-34384.7
20570,-34396.8
20558,-34406.7
20579.9,-34406.7
Z" /> 
</g>
</g>
<g style="fill:#000000; fill-opacity:1.0; 
stroke:#000000; stroke-width:100; stroke-opacity:1; 
stroke-linecap:round; stroke-linejoin:round;">
<g >
</g>
<g style="fill:#000000; fill-opacity:1.0; 
stroke:#000000; stroke-width:98.4252; stroke-opacity:1; 
stroke-linecap:round; stroke-linejoin:round;">
<path style="fill:#000000; fill-opacity:1.0; 
stroke:#000000; stroke-width:98.4252; stroke-opacity:1; 
stroke-linecap:round; stroke-linejoin:round;fill-rule:evenodd;"
d="M 10824.8,-31426.6
10836.5,-31367.7
10859.5,-31312.2
10892.9,-31262.2
10935.4,-31219.7
10954.9,-31206.7
10935.4,-31193.7
10892.9,-31151.2
10859.5,-31101.2
10836.5,-31045.7
10824.8,-30986.7
10824.8,-30926.6
10836.5,-30867.7
10859.5,-30812.2
10892.9,-30762.2
10935.4,-30719.7
10954.9,-30706.7
10935.4,-30693.7
10892.9,-30651.2
10859.5,-30601.2
10836.5,-30545.7
10824.8,-30486.7
10824.8,-30431.4
10779.1,-30477.1
10779.1,-31436.3
10824.8,-31482
Z" /> 
<path style="fill:#000000; fill-opacity:1.0; 
stroke:#000000; stroke-width:98.4252; stroke-opacity:1; 
stroke-linecap:round; stroke-linejoin:round;fill-rule:evenodd;"
d="M 13480.7,-31436.3
13480.7,-30477.1
13435,-30431.4
13435,-30486.7
13423.3,-30545.7
13400.3,-30601.2
13366.9,-30651.2
13324.4,-30693.7
13305,-30706.7
13324.4,-30719.7
13366.9,-30762.2
13400.3,-30812.2
13423.3,-30867.7
13435,-30926.6
13435,-30986.7
13423.3,-31045.7
13400.3,-31101.2
13366.9,-31151.2
13324.4,-31193.7
13305,-31206.7
13324.4,-31219.7
13366.9,-31262.2
13400.3,-31312.2
13423.3,-31367.7
13435,-31426.6
13435,-31482
Z" /> 
<path style="fill:#000000; fill-opacity:1.0; 
stroke:#000000; stroke-width:98.4252; stroke-opacity:1; 
stroke-linecap:round; stroke-linejoin:round;fill-rule:evenodd;"
d="M 11392.9,-30762.2
11435.4,-30719.7
11454.9,-30706.7
11435.4,-30693.7
11392.9,-30651.2
11379.9,-30631.7
11366.9,-30651.2
11324.4,-30693.7
11305,-30706.7
11324.4,-30719.7
11366.9,-30762.2
11379.9,-30781.6
Z" /> 
<path style="fill:#000000; fill-opacity:1.0; 
stroke:#000000; stroke-width:98.4252; stroke-opacity:1; 
stroke-linecap:round; stroke-linejoin:round;fill-rule:evenodd;"
d="M 11892.9,-30762.2
11935.4,-30719.7
11954.9,-30706.7
11935.4,-30693.7
11892.9,-30651.2
11879.9,-30631.7
11866.9,-30651.2
11824.4,-30693.7
11805,-30706.7
11824.4,-30719.7
11866.9,-30762.2
11879.9,-30781.6
Z" /> 
<path style="fill:#000000; fill-opacity:1.0; 
stroke:#000000; stroke-width:98.4252; stroke-opacity:1; 
stroke-linecap:round; stroke-linejoin:round;fill-rule:evenodd;"
d="M 12392.9,-30762.2
12435.4,-30719.7
12454.9,-30706.7
12435.4,-30693.7
12392.9,-30651.2
12379.9,-30631.7
12366.9,-30651.2
12324.4,-30693.7
12305,-30706.7
12324.4,-30719.7
12366.9,-30762.2
12379.9,-30781.6
Z" /> 
<path style="fill:#000000; fill-opacity:1.0; 
stroke:#000000; stroke-width:98.4252; stroke-opacity:1; 
stroke-linecap:round; stroke-linejoin:round;fill-rule:evenodd;"
d="M 12892.9,-30762.2
12935.4,-30719.7
12954.9,-30706.7
12935.4,-30693.7
12892.9,-30651.2
12879.9,-30631.7
12866.9,-30651.2
12824.4,-30693.7
12805,-30706.7
12824.4,-30719.7
12866.9,-30762.2
12879.9,-30781.6
Z" /> 
<path style="fill:#000000; fill-opacity:1.0; 
stroke:#000000; stroke-width:98.4252; stroke-opacity:1; 
stroke-linecap:round; stroke-linejoin:round;fill-rule:evenodd;"
d="M 12892.9,-31262.2
12935.4,-31219.7
12954.9,-31206.7
12935.4,-31193.7
12892.9,-31151.2
12879.9,-31131.7
12866.9,-31151.2
12824.4,-31193.7
12805,-31206.7
12824.4,-31219.7
12866.9,-31262.2
12879.9,-31281.6
Z" /> 
<path style="fill:#000000; fill-opacity:1.0; 
stroke:#000000; stroke-width:98.4252; stroke-opacity:1; 
stroke-linecap:round; stroke-linejoin:round;fill-rule:evenodd;"
d="M 12392.9,-31262.2
12435.4,-31219.7
12454.9,-31206.7
12435.4,-31193.7
12392.9,-31151.2
12379.9,-31131.7
12366.9,-31151.2
12324.4,-31193.7
12305,-31206.7
12324.4,-31219.7
12366.9,-31262.2
12379.9,-31281.6
Z" /> 
<path style="fill:#000000; fill-opacity:1.0; 
stroke:#000000; stroke-width:98.4252; stroke-opacity:1; 
stroke-linecap:round; stroke-linejoin:round;fill-rule:evenodd;"
d="M 11892.9,-31262.2
11935.4,-31219.7
11954.9,-31206.7
11935.4,-31193.7
11892.9,-31151.2
11879.9,-31131.7
11866.9,-31151.2
11824.4,-31193.7
11805,-31206.7
11824.4,-31219.7
11866.9,-31262.2
11879.9,-31281.6
Z" /> 
<path style="fill:#000000; fill-opacity:1.0; 
stroke:#000000; stroke-width:98.4252; stroke-opacity:1; 
stroke-linecap:round; stroke-linejoin:round;fill-rule:evenodd;"
d="M 11392.9,-31262.2
11435.4,-31219.7
11454.9,-31206.7
11435.4,-31193.7
11392.9,-31151.2
11379.9,-31131.7
11366.9,-31151.2
11324.4,-31193.7
11305,-31206.7
11324.4,-31219.7
11366.9,-31262.2
11379.9,-31281.6
Z" /> 
</g>
</g>
<g style="fill:#000000; fill-opacity:1.0; 
stroke:#000000; stroke-width:98.4252; stroke-opacity:1; 
stroke-linecap:round; stroke-linejoin:round;">
<g >
<path style="fill:#000000; fill-opacity:1.0; 
stroke:#000000; stroke-width:98.4252; stroke-opacity:1; 
stroke-linecap:round; stroke-linejoin:round;fill-rule:evenodd;"
d="M 7824.8,-31426.6
7836.53,-31367.7
7859.53,-31312.2
7892.92,-31262.2
7935.42,-31219.7
7954.87,-31206.7
7935.42,-31193.7
7892.92,-31151.2
7859.53,-31101.2
7836.53,-31045.7
7824.8,-30986.7
7824.8,-30926.6
7836.53,-30867.7
7859.53,-30812.2
7892.92,-30762.2
7935.42,-30719.7
7954.87,-30706.7
7935.42,-30693.7
7892.92,-30651.2
7859.53,-30601.2
7836.53,-30545.7
7824.8,-30486.7
7824.8,-30431.4
7779.13,-30477.1
7779.13,-31436.3
7824.8,-31482
Z" /> 
<path style="fill:#000000; fill-opacity:1.0; 
stroke:#000000; stroke-width:98.4252; stroke-opacity:1; 
stroke-linecap:round; stroke-linejoin:round;fill-rule:evenodd;"
d="M 10480.7,-31436.3
10480.7,-30477.1
10435,-30431.4
10435,-30486.7
10423.3,-30545.7
10400.3,-30601.2
10366.9,-30651.2
10324.4,-30693.7
10305,-30706.7
10324.4,-30719.7
10366.9,-30762.2
10400.3,-30812.2
10423.3,-30867.7
10435,-30926.6
10435,-30986.7
10423.3,-31045.7
10400.3,-31101.2
10366.9,-31151.2
10324.4,-31193.7
10305,-31206.7
10324.4,-31219.7
10366.9,-31262.2
10400.3,-31312.2
10423.3,-31367.7
10435,-31426.6
10435,-31482
Z" /> 
<path style="fill:#000000; fill-opacity:1.0; 
stroke:#000000; stroke-width:98.4252; stroke-opacity:1; 
stroke-linecap:round; stroke-linejoin:round;fill-rule:evenodd;"
d="M 8392.92,-30762.2
8435.42,-30719.7
8454.87,-30706.7
8435.42,-30693.7
8392.92,-30651.2
8379.92,-30631.7
8366.92,-30651.2
8324.42,-30693.7
8304.97,-30706.7
8324.42,-30719.7
8366.92,-30762.2
8379.92,-30781.6
Z" /> 
<path style="fill:#000000; fill-opacity:1.0; 
stroke:#000000; stroke-width:98.4252; stroke-opacity:1; 
stroke-linecap:round; stroke-linejoin:round;fill-rule:evenodd;"
d="M 8892.92,-30762.2
8935.42,-30719.7
8954.87,-30706.7
8935.42,-30693.7
8892.92,-30651.2
8879.92,-30631.7
8866.92,-30651.2
8824.42,-30693.7
8804.97,-30706.7
8824.42,-30719.7
8866.92,-30762.2
8879.92,-30781.6
Z" /> 
<path style="fill:#000000; fill-opacity:1.0; 
stroke:#000000; stroke-width:98.4252; stroke-opacity:1; 
stroke-linecap:round; stroke-linejoin:round;fill-rule:evenodd;"
d="M 9392.92,-30762.2
9435.42,-30719.7
9454.87,-30706.7
9435.42,-30693.7
9392.92,-30651.2
9379.92,-30631.7
9366.92,-30651.2
9324.42,-30693.7
9304.97,-30706.7
9324.42,-30719.7
9366.92,-30762.2
9379.92,-30781.6
Z" /> 
<path style="fill:#000000; fill-opacity:1.0; 
stroke:#000000; stroke-width:98.4252; stroke-opacity:1; 
stroke-linecap:round; stroke-linejoin:round;fill-rule:evenodd;"
d="M 9892.92,-30762.2
9935.42,-30719.7
9954.87,-30706.7
9935.42,-30693.7
9892.92,-30651.2
9879.92,-30631.7
9866.92,-30651.2
9824.42,-30693.7
9804.97,-30706.7
9824.42,-30719.7
9866.92,-30762.2
9879.92,-30781.6
Z" /> 
<path style="fill:#000000; fill-opacity:1.0; 
stroke:#000000; stroke-width:98.4252; stroke-opacity:1; 
stroke-linecap:round; stroke-linejoin:round;fill-rule:evenodd;"
d="M 9892.92,-31262.2
9935.42,-31219.7
9954.87,-31206.7
9935.42,-31193.7
9892.92,-31151.2
9879.92,-31131.7
9866.92,-31151.2
9824.42,-31193.7
9804.97,-31206.7
9824.42,-31219.7
9866.92,-31262.2
9879.92,-31281.6
Z" /> 
<path style="fill:#000000; fill-opacity:1.0; 
stroke:#000000; stroke-width:98.4252; stroke-opacity:1; 
stroke-linecap:round; stroke-linejoin:round;fill-rule:evenodd;"
d="M 9392.92,-31262.2
9435.42,-31219.7
9454.87,-31206.7
9435.42,-31193.7
9392.92,-31151.2
9379.92,-31131.7
9366.92,-31151.2
9324.42,-31193.7
9304.97,-31206.7
9324.42,-31219.7
9366.92,-31262.2
9379.92,-31281.6
Z" /> 
<path style="fill:#000000; fill-opacity:1.0; 
stroke:#000000; stroke-width:98.4252; stroke-opacity:1; 
stroke-linecap:round; stroke-linejoin:round;fill-rule:evenodd;"
d="M 8892.92,-31262.2
8935.42,-31219.7
8954.87,-31206.7
8935.42,-31193.7
8892.92,-31151.2
8879.92,-31131.7
8866.92,-31151.2
8824.42,-31193.7
8804.97,-31206.7
8824.42,-31219.7
8866.92,-31262.2
8879.92,-31281.6
Z" /> 
<path style="fill:#000000; fill-opacity:1.0; 
stroke:#000000; stroke-width:98.4252; stroke-opacity:1; 
stroke-linecap:round; stroke-linejoin:round;fill-rule:evenodd;"
d="M 8392.92,-31262.2
8435.42,-31219.7
8454.87,-31206.7
8435.42,-31193.7
8392.92,-31151.2
8379.92,-31131.7
8366.92,-31151.2
8324.42,-31193.7
8304.97,-31206.7
8324.42,-31219.7
8366.92,-31262.2
8379.92,-31281.6
Z" /> 
</g>
</g>
</g> 
</svg>
