%TF.GenerationSoftware,KiCad,Pcbnew,(5.1.7)-1*%
%TF.CreationDate,2021-03-20T22:36:42+01:00*%
%TF.ProjectId,MicroBBPS,4d696372-6f42-4425-9053-2e6b69636164,rev?*%
%TF.SameCoordinates,Original*%
%TF.FileFunction,Soldermask,Top*%
%TF.FilePolarity,Negative*%
%FSLAX46Y46*%
G04 Gerber Fmt 4.6, Leading zero omitted, Abs format (unit mm)*
G04 Created by KiCad (PCBNEW (5.1.7)-1) date 2021-03-20 22:36:42*
%MOMM*%
%LPD*%
G01*
G04 APERTURE LIST*
%TA.AperFunction,Profile*%
%ADD10C,0.050000*%
%TD*%
%ADD11C,0.120000*%
%ADD12C,0.100000*%
%ADD13O,1.800000X1.800000*%
%ADD14C,3.300000*%
%ADD15C,2.800000*%
%ADD16O,1.200000X1.900000*%
%ADD17C,1.390000*%
G04 APERTURE END LIST*
D10*
X12000000Y-2000000D02*
X10000000Y0D01*
X0Y-2000000D02*
X2000000Y0D01*
X0Y-96000000D02*
X0Y-2000000D01*
X4000000Y-100000000D02*
X0Y-96000000D01*
X14000000Y-100000000D02*
X4000000Y-100000000D01*
X18000000Y-96000000D02*
X14000000Y-100000000D01*
X36000000Y-96000000D02*
X18000000Y-96000000D01*
X40000000Y-100000000D02*
X36000000Y-96000000D01*
X50000000Y-100000000D02*
X40000000Y-100000000D01*
X54000000Y-96000000D02*
X50000000Y-100000000D01*
X54000000Y-4000000D02*
X54000000Y-96000000D01*
X52000000Y-2000000D02*
X54000000Y-4000000D01*
X12000000Y-2000000D02*
X52000000Y-2000000D01*
X2000000Y0D02*
X10000000Y0D01*
D11*
%TO.C,J2*%
X17900000Y-5450000D02*
X16500000Y-5450000D01*
D12*
G36*
X16500000Y-3750000D02*
G01*
X17900000Y-3750000D01*
X17900000Y-5450000D01*
X16500000Y-5450000D01*
X16500000Y-3750000D01*
G37*
X16500000Y-3750000D02*
X17900000Y-3750000D01*
X17900000Y-5450000D01*
X16500000Y-5450000D01*
X16500000Y-3750000D01*
D11*
X16500000Y-5450000D02*
X16500000Y-3750000D01*
X17900000Y-3750000D02*
X16500000Y-3750000D01*
D12*
G36*
X26500000Y-5450000D02*
G01*
X25100000Y-5450000D01*
X25100000Y-3750000D01*
X26500000Y-3750000D01*
X26500000Y-5450000D01*
G37*
X26500000Y-5450000D02*
X25100000Y-5450000D01*
X25100000Y-3750000D01*
X26500000Y-3750000D01*
X26500000Y-5450000D01*
D11*
X26500000Y-3750000D02*
X26500000Y-5450000D01*
X25100000Y-5450000D02*
X26500000Y-5450000D01*
X25100000Y-3750000D02*
X26500000Y-3750000D01*
%TD*%
D13*
%TO.C,J1*%
X33350000Y-88580000D03*
X48590000Y-88580000D03*
X38430000Y-88580000D03*
X35890000Y-88580000D03*
X30810000Y-88580000D03*
X40970000Y-88580000D03*
X5410000Y-88580000D03*
X2870000Y-88580000D03*
X51130000Y-88580000D03*
X23190000Y-88580000D03*
X13030000Y-88580000D03*
X15570000Y-88580000D03*
X20650000Y-88580000D03*
X18110000Y-88580000D03*
X33350000Y-86040000D03*
X48590000Y-86040000D03*
X38430000Y-86040000D03*
X35890000Y-86040000D03*
X30810000Y-86040000D03*
X40970000Y-86040000D03*
X5410000Y-86040000D03*
X2870000Y-86040000D03*
X51130000Y-86040000D03*
X23190000Y-86040000D03*
X13030000Y-86040000D03*
X15570000Y-86040000D03*
X20650000Y-86040000D03*
X18110000Y-86040000D03*
X33350000Y-83500000D03*
X48590000Y-83500000D03*
X38430000Y-83500000D03*
X35890000Y-83500000D03*
X30810000Y-83500000D03*
X40970000Y-83500000D03*
X5410000Y-83500000D03*
X2870000Y-83500000D03*
X51130000Y-83500000D03*
X23190000Y-83500000D03*
X13030000Y-83500000D03*
X15570000Y-83500000D03*
X20650000Y-83500000D03*
X18110000Y-83500000D03*
X33350000Y-80960000D03*
X48590000Y-80960000D03*
X38430000Y-80960000D03*
X35890000Y-80960000D03*
X30810000Y-80960000D03*
X40970000Y-80960000D03*
X5410000Y-80960000D03*
X2870000Y-80960000D03*
X51130000Y-80960000D03*
X23190000Y-80960000D03*
X13030000Y-80960000D03*
X15570000Y-80960000D03*
X20650000Y-80960000D03*
X18110000Y-80960000D03*
X33350000Y-78420000D03*
X48590000Y-78420000D03*
X38430000Y-78420000D03*
X35890000Y-78420000D03*
X30810000Y-78420000D03*
X40970000Y-78420000D03*
X5410000Y-78420000D03*
X2870000Y-78420000D03*
X51130000Y-78420000D03*
X23190000Y-78420000D03*
X13030000Y-78420000D03*
X15570000Y-78420000D03*
X20650000Y-78420000D03*
X18110000Y-78420000D03*
X33350000Y-75880000D03*
X48590000Y-75880000D03*
X38430000Y-75880000D03*
X35890000Y-75880000D03*
X30810000Y-75880000D03*
X40970000Y-75880000D03*
X5410000Y-75880000D03*
X2870000Y-75880000D03*
X51130000Y-75880000D03*
X23190000Y-75880000D03*
X13030000Y-75880000D03*
X15570000Y-75880000D03*
X20650000Y-75880000D03*
X18110000Y-75880000D03*
X33350000Y-73340000D03*
X48590000Y-73340000D03*
X38430000Y-73340000D03*
X35890000Y-73340000D03*
X30810000Y-73340000D03*
X40970000Y-73340000D03*
X5410000Y-73340000D03*
X2870000Y-73340000D03*
X51130000Y-73340000D03*
X23190000Y-73340000D03*
X13030000Y-73340000D03*
X15570000Y-73340000D03*
X20650000Y-73340000D03*
X18110000Y-73340000D03*
X33350000Y-70800000D03*
X48590000Y-70800000D03*
X38430000Y-70800000D03*
X35890000Y-70800000D03*
X30810000Y-70800000D03*
X40970000Y-70800000D03*
X5410000Y-70800000D03*
X2870000Y-70800000D03*
X51130000Y-70800000D03*
X23190000Y-70800000D03*
X13030000Y-70800000D03*
X15570000Y-70800000D03*
X20650000Y-70800000D03*
X18110000Y-70800000D03*
X33350000Y-68260000D03*
X48590000Y-68260000D03*
X38430000Y-68260000D03*
X35890000Y-68260000D03*
X30810000Y-68260000D03*
X40970000Y-68260000D03*
X5410000Y-68260000D03*
X2870000Y-68260000D03*
X51130000Y-68260000D03*
X23190000Y-68260000D03*
X13030000Y-68260000D03*
X15570000Y-68260000D03*
X20650000Y-68260000D03*
X18110000Y-68260000D03*
X33350000Y-65720000D03*
X48590000Y-65720000D03*
X38430000Y-65720000D03*
X35890000Y-65720000D03*
X30810000Y-65720000D03*
X40970000Y-65720000D03*
X5410000Y-65720000D03*
X2870000Y-65720000D03*
X51130000Y-65720000D03*
X23190000Y-65720000D03*
X13030000Y-65720000D03*
X15570000Y-65720000D03*
X20650000Y-65720000D03*
X18110000Y-65720000D03*
X33350000Y-63180000D03*
X48590000Y-63180000D03*
X38430000Y-63180000D03*
X35890000Y-63180000D03*
X30810000Y-63180000D03*
X40970000Y-63180000D03*
X5410000Y-63180000D03*
X2870000Y-63180000D03*
X51130000Y-63180000D03*
X23190000Y-63180000D03*
X13030000Y-63180000D03*
X15570000Y-63180000D03*
X20650000Y-63180000D03*
X18110000Y-63180000D03*
X33350000Y-60640000D03*
X48590000Y-60640000D03*
X38430000Y-60640000D03*
X35890000Y-60640000D03*
X30810000Y-60640000D03*
X40970000Y-60640000D03*
X5410000Y-60640000D03*
X2870000Y-60640000D03*
X51130000Y-60640000D03*
X23190000Y-60640000D03*
X13030000Y-60640000D03*
X15570000Y-60640000D03*
X20650000Y-60640000D03*
X18110000Y-60640000D03*
X33350000Y-58100000D03*
X48590000Y-58100000D03*
X38430000Y-58100000D03*
X35890000Y-58100000D03*
X30810000Y-58100000D03*
X40970000Y-58100000D03*
X5410000Y-58100000D03*
X2870000Y-58100000D03*
X51130000Y-58100000D03*
X23190000Y-58100000D03*
X13030000Y-58100000D03*
X15570000Y-58100000D03*
X20650000Y-58100000D03*
X18110000Y-58100000D03*
X33350000Y-55560000D03*
X48590000Y-55560000D03*
X38430000Y-55560000D03*
X35890000Y-55560000D03*
X30810000Y-55560000D03*
X40970000Y-55560000D03*
X5410000Y-55560000D03*
X2870000Y-55560000D03*
X51130000Y-55560000D03*
X23190000Y-55560000D03*
X13030000Y-55560000D03*
X15570000Y-55560000D03*
X20650000Y-55560000D03*
X18110000Y-55560000D03*
X33350000Y-53020000D03*
X48590000Y-53020000D03*
X38430000Y-53020000D03*
X35890000Y-53020000D03*
X30810000Y-53020000D03*
X40970000Y-53020000D03*
X5410000Y-53020000D03*
X2870000Y-53020000D03*
X51130000Y-53020000D03*
X23190000Y-53020000D03*
X13030000Y-53020000D03*
X15570000Y-53020000D03*
X20650000Y-53020000D03*
X18110000Y-53020000D03*
X33350000Y-50480000D03*
X48590000Y-50480000D03*
X38430000Y-50480000D03*
X35890000Y-50480000D03*
X30810000Y-50480000D03*
X40970000Y-50480000D03*
X5410000Y-50480000D03*
X2870000Y-50480000D03*
X51130000Y-50480000D03*
X23190000Y-50480000D03*
X13030000Y-50480000D03*
X15570000Y-50480000D03*
X20650000Y-50480000D03*
X18110000Y-50480000D03*
X33350000Y-47940000D03*
X48590000Y-47940000D03*
X38430000Y-47940000D03*
X35890000Y-47940000D03*
X30810000Y-47940000D03*
X40970000Y-47940000D03*
X5410000Y-47940000D03*
X2870000Y-47940000D03*
X51130000Y-47940000D03*
X23190000Y-47940000D03*
X13030000Y-47940000D03*
X15570000Y-47940000D03*
X20650000Y-47940000D03*
X18110000Y-47940000D03*
X33350000Y-45400000D03*
X48590000Y-45400000D03*
X38430000Y-45400000D03*
X35890000Y-45400000D03*
X30810000Y-45400000D03*
X40970000Y-45400000D03*
X5410000Y-45400000D03*
X2870000Y-45400000D03*
X51130000Y-45400000D03*
X23190000Y-45400000D03*
X13030000Y-45400000D03*
X15570000Y-45400000D03*
X20650000Y-45400000D03*
X18110000Y-45400000D03*
X33350000Y-42860000D03*
X48590000Y-42860000D03*
X38430000Y-42860000D03*
X35890000Y-42860000D03*
X30810000Y-42860000D03*
X40970000Y-42860000D03*
X5410000Y-42860000D03*
X2870000Y-42860000D03*
X51130000Y-42860000D03*
X23190000Y-42860000D03*
X13030000Y-42860000D03*
X15570000Y-42860000D03*
X20650000Y-42860000D03*
X18110000Y-42860000D03*
X33350000Y-40320000D03*
X48590000Y-40320000D03*
X38430000Y-40320000D03*
X35890000Y-40320000D03*
X30810000Y-40320000D03*
X40970000Y-40320000D03*
X5410000Y-40320000D03*
X2870000Y-40320000D03*
X51130000Y-40320000D03*
X23190000Y-40320000D03*
X13030000Y-40320000D03*
X15570000Y-40320000D03*
X20650000Y-40320000D03*
X18110000Y-40320000D03*
X33350000Y-37780000D03*
X48590000Y-37780000D03*
X38430000Y-37780000D03*
X35890000Y-37780000D03*
X30810000Y-37780000D03*
X40970000Y-37780000D03*
X5410000Y-37780000D03*
X2870000Y-37780000D03*
X51130000Y-37780000D03*
X23190000Y-37780000D03*
X13030000Y-37780000D03*
X15570000Y-37780000D03*
X20650000Y-37780000D03*
X18110000Y-37780000D03*
X33350000Y-25080000D03*
X48590000Y-25080000D03*
X38430000Y-25080000D03*
X35890000Y-25080000D03*
X30810000Y-25080000D03*
X40970000Y-25080000D03*
X5410000Y-25080000D03*
X2870000Y-25080000D03*
X51130000Y-25080000D03*
X23190000Y-25080000D03*
X13030000Y-25080000D03*
X15570000Y-25080000D03*
X20650000Y-25080000D03*
X18110000Y-25080000D03*
X33350000Y-27620000D03*
X48590000Y-27620000D03*
X38430000Y-27620000D03*
X35890000Y-27620000D03*
X30810000Y-27620000D03*
X40970000Y-27620000D03*
X5410000Y-27620000D03*
X2870000Y-27620000D03*
X51130000Y-27620000D03*
X23190000Y-27620000D03*
X13030000Y-27620000D03*
X15570000Y-27620000D03*
X20650000Y-27620000D03*
X18110000Y-27620000D03*
X33350000Y-30160000D03*
X48590000Y-30160000D03*
X38430000Y-30160000D03*
X35890000Y-30160000D03*
X30810000Y-30160000D03*
X40970000Y-30160000D03*
X5410000Y-30160000D03*
X2870000Y-30160000D03*
X51130000Y-30160000D03*
X23190000Y-30160000D03*
X13030000Y-30160000D03*
X15570000Y-30160000D03*
X20650000Y-30160000D03*
X18110000Y-30160000D03*
X33350000Y-32700000D03*
X48590000Y-32700000D03*
X38430000Y-32700000D03*
X35890000Y-32700000D03*
X30810000Y-32700000D03*
X40970000Y-32700000D03*
X5410000Y-32700000D03*
X2870000Y-32700000D03*
X51130000Y-32700000D03*
X23190000Y-32700000D03*
X13030000Y-32700000D03*
X15570000Y-32700000D03*
X20650000Y-32700000D03*
X18110000Y-32700000D03*
X33350000Y-35240000D03*
X48590000Y-35240000D03*
X38430000Y-35240000D03*
X35890000Y-35240000D03*
X30810000Y-35240000D03*
X40970000Y-35240000D03*
X5410000Y-35240000D03*
X2870000Y-35240000D03*
X51130000Y-35240000D03*
X23190000Y-35240000D03*
X13030000Y-35240000D03*
X15570000Y-35240000D03*
X20650000Y-35240000D03*
X18110000Y-35240000D03*
%TD*%
D14*
%TO.C,REF\u002A\u002A*%
X49000000Y-16000000D03*
%TD*%
%TO.C,REF\u002A\u002A*%
X5000000Y-16000000D03*
%TD*%
%TO.C,U3*%
G36*
G01*
X24900000Y-14900000D02*
X21100000Y-14900000D01*
G75*
G02*
X21050000Y-14850000I0J50000D01*
G01*
X21050000Y-12850000D01*
G75*
G02*
X21100000Y-12800000I50000J0D01*
G01*
X24900000Y-12800000D01*
G75*
G02*
X24950000Y-12850000I0J-50000D01*
G01*
X24950000Y-14850000D01*
G75*
G02*
X24900000Y-14900000I-50000J0D01*
G01*
G37*
G36*
G01*
X23750000Y-21200000D02*
X22250000Y-21200000D01*
G75*
G02*
X22200000Y-21150000I0J50000D01*
G01*
X22200000Y-19150000D01*
G75*
G02*
X22250000Y-19100000I50000J0D01*
G01*
X23750000Y-19100000D01*
G75*
G02*
X23800000Y-19150000I0J-50000D01*
G01*
X23800000Y-21150000D01*
G75*
G02*
X23750000Y-21200000I-50000J0D01*
G01*
G37*
G36*
G01*
X26050000Y-21200000D02*
X24550000Y-21200000D01*
G75*
G02*
X24500000Y-21150000I0J50000D01*
G01*
X24500000Y-19150000D01*
G75*
G02*
X24550000Y-19100000I50000J0D01*
G01*
X26050000Y-19100000D01*
G75*
G02*
X26100000Y-19150000I0J-50000D01*
G01*
X26100000Y-21150000D01*
G75*
G02*
X26050000Y-21200000I-50000J0D01*
G01*
G37*
G36*
G01*
X21450000Y-21200000D02*
X19950000Y-21200000D01*
G75*
G02*
X19900000Y-21150000I0J50000D01*
G01*
X19900000Y-19150000D01*
G75*
G02*
X19950000Y-19100000I50000J0D01*
G01*
X21450000Y-19100000D01*
G75*
G02*
X21500000Y-19150000I0J-50000D01*
G01*
X21500000Y-21150000D01*
G75*
G02*
X21450000Y-21200000I-50000J0D01*
G01*
G37*
%TD*%
%TO.C,U1*%
G36*
G01*
X32900000Y-14900000D02*
X29100000Y-14900000D01*
G75*
G02*
X29050000Y-14850000I0J50000D01*
G01*
X29050000Y-12850000D01*
G75*
G02*
X29100000Y-12800000I50000J0D01*
G01*
X32900000Y-12800000D01*
G75*
G02*
X32950000Y-12850000I0J-50000D01*
G01*
X32950000Y-14850000D01*
G75*
G02*
X32900000Y-14900000I-50000J0D01*
G01*
G37*
G36*
G01*
X31750000Y-21200000D02*
X30250000Y-21200000D01*
G75*
G02*
X30200000Y-21150000I0J50000D01*
G01*
X30200000Y-19150000D01*
G75*
G02*
X30250000Y-19100000I50000J0D01*
G01*
X31750000Y-19100000D01*
G75*
G02*
X31800000Y-19150000I0J-50000D01*
G01*
X31800000Y-21150000D01*
G75*
G02*
X31750000Y-21200000I-50000J0D01*
G01*
G37*
G36*
G01*
X34050000Y-21200000D02*
X32550000Y-21200000D01*
G75*
G02*
X32500000Y-21150000I0J50000D01*
G01*
X32500000Y-19150000D01*
G75*
G02*
X32550000Y-19100000I50000J0D01*
G01*
X34050000Y-19100000D01*
G75*
G02*
X34100000Y-19150000I0J-50000D01*
G01*
X34100000Y-21150000D01*
G75*
G02*
X34050000Y-21200000I-50000J0D01*
G01*
G37*
G36*
G01*
X29450000Y-21200000D02*
X27950000Y-21200000D01*
G75*
G02*
X27900000Y-21150000I0J50000D01*
G01*
X27900000Y-19150000D01*
G75*
G02*
X27950000Y-19100000I50000J0D01*
G01*
X29450000Y-19100000D01*
G75*
G02*
X29500000Y-19150000I0J-50000D01*
G01*
X29500000Y-21150000D01*
G75*
G02*
X29450000Y-21200000I-50000J0D01*
G01*
G37*
%TD*%
%TO.C,R2*%
G36*
G01*
X15000000Y-10844230D02*
X15000000Y-12155770D01*
G75*
G02*
X14730770Y-12425000I-269230J0D01*
G01*
X13869230Y-12425000D01*
G75*
G02*
X13600000Y-12155770I0J269230D01*
G01*
X13600000Y-10844230D01*
G75*
G02*
X13869230Y-10575000I269230J0D01*
G01*
X14730770Y-10575000D01*
G75*
G02*
X15000000Y-10844230I0J-269230D01*
G01*
G37*
G36*
G01*
X11900000Y-10844230D02*
X11900000Y-12155770D01*
G75*
G02*
X11630770Y-12425000I-269230J0D01*
G01*
X10769230Y-12425000D01*
G75*
G02*
X10500000Y-12155770I0J269230D01*
G01*
X10500000Y-10844230D01*
G75*
G02*
X10769230Y-10575000I269230J0D01*
G01*
X11630770Y-10575000D01*
G75*
G02*
X11900000Y-10844230I0J-269230D01*
G01*
G37*
%TD*%
%TO.C,R1*%
G36*
G01*
X39000000Y-12155770D02*
X39000000Y-10844230D01*
G75*
G02*
X39269230Y-10575000I269230J0D01*
G01*
X40130770Y-10575000D01*
G75*
G02*
X40400000Y-10844230I0J-269230D01*
G01*
X40400000Y-12155770D01*
G75*
G02*
X40130770Y-12425000I-269230J0D01*
G01*
X39269230Y-12425000D01*
G75*
G02*
X39000000Y-12155770I0J269230D01*
G01*
G37*
G36*
G01*
X42100000Y-12155770D02*
X42100000Y-10844230D01*
G75*
G02*
X42369230Y-10575000I269230J0D01*
G01*
X43230770Y-10575000D01*
G75*
G02*
X43500000Y-10844230I0J-269230D01*
G01*
X43500000Y-12155770D01*
G75*
G02*
X43230770Y-12425000I-269230J0D01*
G01*
X42369230Y-12425000D01*
G75*
G02*
X42100000Y-12155770I0J269230D01*
G01*
G37*
%TD*%
%TO.C,J9*%
G36*
G01*
X10100000Y-15350000D02*
X10100000Y-13650000D01*
G75*
G02*
X10150000Y-13600000I50000J0D01*
G01*
X11850000Y-13600000D01*
G75*
G02*
X11900000Y-13650000I0J-50000D01*
G01*
X11900000Y-15350000D01*
G75*
G02*
X11850000Y-15400000I-50000J0D01*
G01*
X10150000Y-15400000D01*
G75*
G02*
X10100000Y-15350000I0J50000D01*
G01*
G37*
D13*
X11000000Y-17040000D03*
X13540000Y-17040000D03*
X11000000Y-19580000D03*
%TD*%
%TO.C,J8*%
G36*
G01*
X43900000Y-18650000D02*
X43900000Y-20350000D01*
G75*
G02*
X43850000Y-20400000I-50000J0D01*
G01*
X42150000Y-20400000D01*
G75*
G02*
X42100000Y-20350000I0J50000D01*
G01*
X42100000Y-18650000D01*
G75*
G02*
X42150000Y-18600000I50000J0D01*
G01*
X43850000Y-18600000D01*
G75*
G02*
X43900000Y-18650000I0J-50000D01*
G01*
G37*
X43000000Y-16960000D03*
X40460000Y-16960000D03*
X43000000Y-14420000D03*
%TD*%
D15*
%TO.C,J5*%
X7905000Y-8000000D03*
X4095000Y-8000000D03*
%TD*%
D16*
%TO.C,J2*%
X17900000Y-4600000D03*
G36*
G01*
X23050000Y-4075000D02*
X23050000Y-5125000D01*
G75*
G02*
X22525000Y-5650000I-525000J0D01*
G01*
X20475000Y-5650000D01*
G75*
G02*
X19950000Y-5125000I0J525000D01*
G01*
X19950000Y-4075000D01*
G75*
G02*
X20475000Y-3550000I525000J0D01*
G01*
X22525000Y-3550000D01*
G75*
G02*
X23050000Y-4075000I0J-525000D01*
G01*
G37*
G36*
G01*
X19900000Y-8025000D02*
X19900000Y-6775000D01*
G75*
G02*
X19950000Y-6725000I50000J0D01*
G01*
X20350000Y-6725000D01*
G75*
G02*
X20400000Y-6775000I0J-50000D01*
G01*
X20400000Y-8025000D01*
G75*
G02*
X20350000Y-8075000I-50000J0D01*
G01*
X19950000Y-8075000D01*
G75*
G02*
X19900000Y-8025000I0J50000D01*
G01*
G37*
G36*
G01*
X20600000Y-8025000D02*
X20600000Y-6775000D01*
G75*
G02*
X20650000Y-6725000I50000J0D01*
G01*
X21050000Y-6725000D01*
G75*
G02*
X21100000Y-6775000I0J-50000D01*
G01*
X21100000Y-8025000D01*
G75*
G02*
X21050000Y-8075000I-50000J0D01*
G01*
X20650000Y-8075000D01*
G75*
G02*
X20600000Y-8025000I0J50000D01*
G01*
G37*
G36*
G01*
X21250000Y-8025000D02*
X21250000Y-6775000D01*
G75*
G02*
X21300000Y-6725000I50000J0D01*
G01*
X21700000Y-6725000D01*
G75*
G02*
X21750000Y-6775000I0J-50000D01*
G01*
X21750000Y-8025000D01*
G75*
G02*
X21700000Y-8075000I-50000J0D01*
G01*
X21300000Y-8075000D01*
G75*
G02*
X21250000Y-8025000I0J50000D01*
G01*
G37*
G36*
G01*
X21900000Y-8025000D02*
X21900000Y-6775000D01*
G75*
G02*
X21950000Y-6725000I50000J0D01*
G01*
X22350000Y-6725000D01*
G75*
G02*
X22400000Y-6775000I0J-50000D01*
G01*
X22400000Y-8025000D01*
G75*
G02*
X22350000Y-8075000I-50000J0D01*
G01*
X21950000Y-8075000D01*
G75*
G02*
X21900000Y-8025000I0J50000D01*
G01*
G37*
G36*
G01*
X22550000Y-8025000D02*
X22550000Y-6775000D01*
G75*
G02*
X22600000Y-6725000I50000J0D01*
G01*
X23000000Y-6725000D01*
G75*
G02*
X23050000Y-6775000I0J-50000D01*
G01*
X23050000Y-8025000D01*
G75*
G02*
X23000000Y-8075000I-50000J0D01*
G01*
X22600000Y-8075000D01*
G75*
G02*
X22550000Y-8025000I0J50000D01*
G01*
G37*
D17*
X19075000Y-7400000D03*
X23925000Y-7400000D03*
D16*
X17900000Y-4600000D03*
X25100000Y-4600000D03*
%TD*%
%TO.C,D3*%
G36*
G01*
X38250000Y-10842543D02*
X38250000Y-12157457D01*
G75*
G02*
X37982457Y-12425000I-267543J0D01*
G01*
X36992543Y-12425000D01*
G75*
G02*
X36725000Y-12157457I0J267543D01*
G01*
X36725000Y-10842543D01*
G75*
G02*
X36992543Y-10575000I267543J0D01*
G01*
X37982457Y-10575000D01*
G75*
G02*
X38250000Y-10842543I0J-267543D01*
G01*
G37*
G36*
G01*
X35275000Y-10842543D02*
X35275000Y-12157457D01*
G75*
G02*
X35007457Y-12425000I-267543J0D01*
G01*
X34017543Y-12425000D01*
G75*
G02*
X33750000Y-12157457I0J267543D01*
G01*
X33750000Y-10842543D01*
G75*
G02*
X34017543Y-10575000I267543J0D01*
G01*
X35007457Y-10575000D01*
G75*
G02*
X35275000Y-10842543I0J-267543D01*
G01*
G37*
%TD*%
%TO.C,D2*%
G36*
G01*
X14750000Y-6050000D02*
X12950000Y-6050000D01*
G75*
G02*
X12900000Y-6000000I0J50000D01*
G01*
X12900000Y-3500000D01*
G75*
G02*
X12950000Y-3450000I50000J0D01*
G01*
X14750000Y-3450000D01*
G75*
G02*
X14800000Y-3500000I0J-50000D01*
G01*
X14800000Y-6000000D01*
G75*
G02*
X14750000Y-6050000I-50000J0D01*
G01*
G37*
G36*
G01*
X14750000Y-10050000D02*
X12950000Y-10050000D01*
G75*
G02*
X12900000Y-10000000I0J50000D01*
G01*
X12900000Y-7500000D01*
G75*
G02*
X12950000Y-7450000I50000J0D01*
G01*
X14750000Y-7450000D01*
G75*
G02*
X14800000Y-7500000I0J-50000D01*
G01*
X14800000Y-10000000D01*
G75*
G02*
X14750000Y-10050000I-50000J0D01*
G01*
G37*
%TD*%
%TO.C,D1*%
G36*
G01*
X15750000Y-12157457D02*
X15750000Y-10842543D01*
G75*
G02*
X16017543Y-10575000I267543J0D01*
G01*
X17007457Y-10575000D01*
G75*
G02*
X17275000Y-10842543I0J-267543D01*
G01*
X17275000Y-12157457D01*
G75*
G02*
X17007457Y-12425000I-267543J0D01*
G01*
X16017543Y-12425000D01*
G75*
G02*
X15750000Y-12157457I0J267543D01*
G01*
G37*
G36*
G01*
X18725000Y-12157457D02*
X18725000Y-10842543D01*
G75*
G02*
X18992543Y-10575000I267543J0D01*
G01*
X19982457Y-10575000D01*
G75*
G02*
X20250000Y-10842543I0J-267543D01*
G01*
X20250000Y-12157457D01*
G75*
G02*
X19982457Y-12425000I-267543J0D01*
G01*
X18992543Y-12425000D01*
G75*
G02*
X18725000Y-12157457I0J267543D01*
G01*
G37*
%TD*%
%TO.C,C8*%
G36*
G01*
X31334375Y-9400000D02*
X30165625Y-9400000D01*
G75*
G02*
X29900000Y-9134375I0J265625D01*
G01*
X29900000Y-6965625D01*
G75*
G02*
X30165625Y-6700000I265625J0D01*
G01*
X31334375Y-6700000D01*
G75*
G02*
X31600000Y-6965625I0J-265625D01*
G01*
X31600000Y-9134375D01*
G75*
G02*
X31334375Y-9400000I-265625J0D01*
G01*
G37*
G36*
G01*
X31334375Y-5800000D02*
X30165625Y-5800000D01*
G75*
G02*
X29900000Y-5534375I0J265625D01*
G01*
X29900000Y-3365625D01*
G75*
G02*
X30165625Y-3100000I265625J0D01*
G01*
X31334375Y-3100000D01*
G75*
G02*
X31600000Y-3365625I0J-265625D01*
G01*
X31600000Y-5534375D01*
G75*
G02*
X31334375Y-5800000I-265625J0D01*
G01*
G37*
%TD*%
%TO.C,C7*%
G36*
G01*
X37834375Y-9400000D02*
X36665625Y-9400000D01*
G75*
G02*
X36400000Y-9134375I0J265625D01*
G01*
X36400000Y-6965625D01*
G75*
G02*
X36665625Y-6700000I265625J0D01*
G01*
X37834375Y-6700000D01*
G75*
G02*
X38100000Y-6965625I0J-265625D01*
G01*
X38100000Y-9134375D01*
G75*
G02*
X37834375Y-9400000I-265625J0D01*
G01*
G37*
G36*
G01*
X37834375Y-5800000D02*
X36665625Y-5800000D01*
G75*
G02*
X36400000Y-5534375I0J265625D01*
G01*
X36400000Y-3365625D01*
G75*
G02*
X36665625Y-3100000I265625J0D01*
G01*
X37834375Y-3100000D01*
G75*
G02*
X38100000Y-3365625I0J-265625D01*
G01*
X38100000Y-5534375D01*
G75*
G02*
X37834375Y-5800000I-265625J0D01*
G01*
G37*
%TD*%
%TO.C,C6*%
G36*
G01*
X44334375Y-9400000D02*
X43165625Y-9400000D01*
G75*
G02*
X42900000Y-9134375I0J265625D01*
G01*
X42900000Y-6965625D01*
G75*
G02*
X43165625Y-6700000I265625J0D01*
G01*
X44334375Y-6700000D01*
G75*
G02*
X44600000Y-6965625I0J-265625D01*
G01*
X44600000Y-9134375D01*
G75*
G02*
X44334375Y-9400000I-265625J0D01*
G01*
G37*
G36*
G01*
X44334375Y-5800000D02*
X43165625Y-5800000D01*
G75*
G02*
X42900000Y-5534375I0J265625D01*
G01*
X42900000Y-3365625D01*
G75*
G02*
X43165625Y-3100000I265625J0D01*
G01*
X44334375Y-3100000D01*
G75*
G02*
X44600000Y-3365625I0J-265625D01*
G01*
X44600000Y-5534375D01*
G75*
G02*
X44334375Y-5800000I-265625J0D01*
G01*
G37*
%TD*%
%TO.C,C5*%
G36*
G01*
X50834375Y-9400000D02*
X49665625Y-9400000D01*
G75*
G02*
X49400000Y-9134375I0J265625D01*
G01*
X49400000Y-6965625D01*
G75*
G02*
X49665625Y-6700000I265625J0D01*
G01*
X50834375Y-6700000D01*
G75*
G02*
X51100000Y-6965625I0J-265625D01*
G01*
X51100000Y-9134375D01*
G75*
G02*
X50834375Y-9400000I-265625J0D01*
G01*
G37*
G36*
G01*
X50834375Y-5800000D02*
X49665625Y-5800000D01*
G75*
G02*
X49400000Y-5534375I0J265625D01*
G01*
X49400000Y-3365625D01*
G75*
G02*
X49665625Y-3100000I265625J0D01*
G01*
X50834375Y-3100000D01*
G75*
G02*
X51100000Y-3365625I0J-265625D01*
G01*
X51100000Y-5534375D01*
G75*
G02*
X50834375Y-5800000I-265625J0D01*
G01*
G37*
%TD*%
%TO.C,C4*%
G36*
G01*
X20275000Y-13068866D02*
X20275000Y-14431134D01*
G75*
G02*
X20006134Y-14700000I-268866J0D01*
G01*
X19118866Y-14700000D01*
G75*
G02*
X18850000Y-14431134I0J268866D01*
G01*
X18850000Y-13068866D01*
G75*
G02*
X19118866Y-12800000I268866J0D01*
G01*
X20006134Y-12800000D01*
G75*
G02*
X20275000Y-13068866I0J-268866D01*
G01*
G37*
G36*
G01*
X17150000Y-13068866D02*
X17150000Y-14431134D01*
G75*
G02*
X16881134Y-14700000I-268866J0D01*
G01*
X15993866Y-14700000D01*
G75*
G02*
X15725000Y-14431134I0J268866D01*
G01*
X15725000Y-13068866D01*
G75*
G02*
X15993866Y-12800000I268866J0D01*
G01*
X16881134Y-12800000D01*
G75*
G02*
X17150000Y-13068866I0J-268866D01*
G01*
G37*
%TD*%
%TO.C,C3*%
G36*
G01*
X35225000Y-20931134D02*
X35225000Y-19568866D01*
G75*
G02*
X35493866Y-19300000I268866J0D01*
G01*
X36381134Y-19300000D01*
G75*
G02*
X36650000Y-19568866I0J-268866D01*
G01*
X36650000Y-20931134D01*
G75*
G02*
X36381134Y-21200000I-268866J0D01*
G01*
X35493866Y-21200000D01*
G75*
G02*
X35225000Y-20931134I0J268866D01*
G01*
G37*
G36*
G01*
X38350000Y-20931134D02*
X38350000Y-19568866D01*
G75*
G02*
X38618866Y-19300000I268866J0D01*
G01*
X39506134Y-19300000D01*
G75*
G02*
X39775000Y-19568866I0J-268866D01*
G01*
X39775000Y-20931134D01*
G75*
G02*
X39506134Y-21200000I-268866J0D01*
G01*
X38618866Y-21200000D01*
G75*
G02*
X38350000Y-20931134I0J268866D01*
G01*
G37*
%TD*%
%TO.C,C2*%
G36*
G01*
X33725000Y-14431134D02*
X33725000Y-13068866D01*
G75*
G02*
X33993866Y-12800000I268866J0D01*
G01*
X34881134Y-12800000D01*
G75*
G02*
X35150000Y-13068866I0J-268866D01*
G01*
X35150000Y-14431134D01*
G75*
G02*
X34881134Y-14700000I-268866J0D01*
G01*
X33993866Y-14700000D01*
G75*
G02*
X33725000Y-14431134I0J268866D01*
G01*
G37*
G36*
G01*
X36850000Y-14431134D02*
X36850000Y-13068866D01*
G75*
G02*
X37118866Y-12800000I268866J0D01*
G01*
X38006134Y-12800000D01*
G75*
G02*
X38275000Y-13068866I0J-268866D01*
G01*
X38275000Y-14431134D01*
G75*
G02*
X38006134Y-14700000I-268866J0D01*
G01*
X37118866Y-14700000D01*
G75*
G02*
X36850000Y-14431134I0J268866D01*
G01*
G37*
%TD*%
%TO.C,C1*%
G36*
G01*
X18775000Y-19568866D02*
X18775000Y-20931134D01*
G75*
G02*
X18506134Y-21200000I-268866J0D01*
G01*
X17618866Y-21200000D01*
G75*
G02*
X17350000Y-20931134I0J268866D01*
G01*
X17350000Y-19568866D01*
G75*
G02*
X17618866Y-19300000I268866J0D01*
G01*
X18506134Y-19300000D01*
G75*
G02*
X18775000Y-19568866I0J-268866D01*
G01*
G37*
G36*
G01*
X15650000Y-19568866D02*
X15650000Y-20931134D01*
G75*
G02*
X15381134Y-21200000I-268866J0D01*
G01*
X14493866Y-21200000D01*
G75*
G02*
X14225000Y-20931134I0J268866D01*
G01*
X14225000Y-19568866D01*
G75*
G02*
X14493866Y-19300000I268866J0D01*
G01*
X15381134Y-19300000D01*
G75*
G02*
X15650000Y-19568866I0J-268866D01*
G01*
G37*
%TD*%
D14*
%TO.C,REF\u002A\u002A*%
X5000000Y-96000000D03*
%TD*%
%TO.C,REF\u002A\u002A*%
X49000000Y-96000000D03*
%TD*%
M02*
