%TF.GenerationSoftware,KiCad,Pcbnew,(5.1.7)-1*%
%TF.CreationDate,2021-03-20T18:42:02+01:00*%
%TF.ProjectId,MicroBBPS,4d696372-6f42-4425-9053-2e6b69636164,rev?*%
%TF.SameCoordinates,Original*%
%TF.FileFunction,Copper,L1,Top*%
%TF.FilePolarity,Positive*%
%FSLAX46Y46*%
G04 Gerber Fmt 4.6, Leading zero omitted, Abs format (unit mm)*
G04 Created by KiCad (PCBNEW (5.1.7)-1) date 2021-03-20 18:42:02*
%MOMM*%
%LPD*%
G01*
G04 APERTURE LIST*
%TA.AperFunction,Profile*%
%ADD10C,0.050000*%
%TD*%
%TA.AperFunction,ComponentPad*%
%ADD11R,1.700000X1.700000*%
%TD*%
%TA.AperFunction,ComponentPad*%
%ADD12O,1.700000X1.700000*%
%TD*%
%TA.AperFunction,SMDPad,CuDef*%
%ADD13R,3.800000X2.000000*%
%TD*%
%TA.AperFunction,SMDPad,CuDef*%
%ADD14R,1.500000X2.000000*%
%TD*%
%TA.AperFunction,ComponentPad*%
%ADD15C,2.700000*%
%TD*%
%TA.AperFunction,ComponentPad*%
%ADD16O,1.100000X1.800000*%
%TD*%
%TA.AperFunction,SMDPad,CuDef*%
%ADD17R,0.400000X1.250000*%
%TD*%
%TA.AperFunction,ComponentPad*%
%ADD18C,1.290000*%
%TD*%
%TA.AperFunction,SMDPad,CuDef*%
%ADD19R,1.800000X2.500000*%
%TD*%
%TA.AperFunction,ViaPad*%
%ADD20C,0.800000*%
%TD*%
%TA.AperFunction,Conductor*%
%ADD21C,0.200000*%
%TD*%
%TA.AperFunction,Conductor*%
%ADD22C,0.750000*%
%TD*%
%TA.AperFunction,Conductor*%
%ADD23C,1.000000*%
%TD*%
%TA.AperFunction,Conductor*%
%ADD24C,0.250000*%
%TD*%
%TA.AperFunction,Conductor*%
%ADD25C,0.500000*%
%TD*%
%TA.AperFunction,Conductor*%
%ADD26C,0.350000*%
%TD*%
%TA.AperFunction,Conductor*%
%ADD27C,0.254000*%
%TD*%
%TA.AperFunction,Conductor*%
%ADD28C,0.100000*%
%TD*%
G04 APERTURE END LIST*
D10*
X53000000Y-24000000D02*
X54000000Y-23000000D01*
X47000000Y-24000000D02*
X53000000Y-24000000D01*
X46000000Y-23000000D02*
X47000000Y-24000000D01*
X8000000Y-23000000D02*
X46000000Y-23000000D01*
X7000000Y-24000000D02*
X8000000Y-23000000D01*
X1000000Y-24000000D02*
X7000000Y-24000000D01*
X0Y-23000000D02*
X1000000Y-24000000D01*
X12000000Y-2000000D02*
X10000000Y0D01*
X0Y-2000000D02*
X2000000Y0D01*
X0Y-23000000D02*
X0Y-2000000D01*
X54000000Y-4000000D02*
X54000000Y-23000000D01*
X52000000Y-2000000D02*
X54000000Y-4000000D01*
X12000000Y-2000000D02*
X52000000Y-2000000D01*
X2000000Y0D02*
X10000000Y0D01*
D11*
%TO.P,J4,1*%
%TO.N,GND*%
X48590000Y-20000000D03*
D12*
%TO.P,J4,2*%
%TO.N,/VoutRight*%
X51130000Y-20000000D03*
%TO.P,J4,3*%
%TO.N,GND*%
X48590000Y-17460000D03*
%TO.P,J4,4*%
%TO.N,/VoutRight*%
X51130000Y-17460000D03*
%TO.P,J4,5*%
%TO.N,GND*%
X48590000Y-14920000D03*
%TO.P,J4,6*%
%TO.N,/VoutRight*%
X51130000Y-14920000D03*
%TD*%
D11*
%TO.P,J3,1*%
%TO.N,GND*%
X2870000Y-20000000D03*
D12*
%TO.P,J3,2*%
%TO.N,/VoutLeft*%
X5410000Y-20000000D03*
%TO.P,J3,3*%
%TO.N,GND*%
X2870000Y-17460000D03*
%TO.P,J3,4*%
%TO.N,/VoutLeft*%
X5410000Y-17460000D03*
%TO.P,J3,5*%
%TO.N,GND*%
X2870000Y-14920000D03*
%TO.P,J3,6*%
%TO.N,/VoutLeft*%
X5410000Y-14920000D03*
%TD*%
D13*
%TO.P,U3,2*%
%TO.N,+3V3*%
X23000000Y-13850000D03*
D14*
X23000000Y-20150000D03*
%TO.P,U3,3*%
%TO.N,VS*%
X25300000Y-20150000D03*
%TO.P,U3,1*%
%TO.N,GND*%
X20700000Y-20150000D03*
%TD*%
D13*
%TO.P,U1,2*%
%TO.N,+5V*%
X31000000Y-13850000D03*
D14*
X31000000Y-20150000D03*
%TO.P,U1,3*%
%TO.N,VS*%
X33300000Y-20150000D03*
%TO.P,U1,1*%
%TO.N,GND*%
X28700000Y-20150000D03*
%TD*%
%TO.P,R2,1*%
%TO.N,Net-(D1-Pad1)*%
%TA.AperFunction,SMDPad,CuDef*%
G36*
G01*
X14950000Y-10875000D02*
X14950000Y-12125000D01*
G75*
G02*
X14700000Y-12375000I-250000J0D01*
G01*
X13900000Y-12375000D01*
G75*
G02*
X13650000Y-12125000I0J250000D01*
G01*
X13650000Y-10875000D01*
G75*
G02*
X13900000Y-10625000I250000J0D01*
G01*
X14700000Y-10625000D01*
G75*
G02*
X14950000Y-10875000I0J-250000D01*
G01*
G37*
%TD.AperFunction*%
%TO.P,R2,2*%
%TO.N,GND*%
%TA.AperFunction,SMDPad,CuDef*%
G36*
G01*
X11850000Y-10875000D02*
X11850000Y-12125000D01*
G75*
G02*
X11600000Y-12375000I-250000J0D01*
G01*
X10800000Y-12375000D01*
G75*
G02*
X10550000Y-12125000I0J250000D01*
G01*
X10550000Y-10875000D01*
G75*
G02*
X10800000Y-10625000I250000J0D01*
G01*
X11600000Y-10625000D01*
G75*
G02*
X11850000Y-10875000I0J-250000D01*
G01*
G37*
%TD.AperFunction*%
%TD*%
%TO.P,R1,1*%
%TO.N,Net-(D3-Pad1)*%
%TA.AperFunction,SMDPad,CuDef*%
G36*
G01*
X39050000Y-12125000D02*
X39050000Y-10875000D01*
G75*
G02*
X39300000Y-10625000I250000J0D01*
G01*
X40100000Y-10625000D01*
G75*
G02*
X40350000Y-10875000I0J-250000D01*
G01*
X40350000Y-12125000D01*
G75*
G02*
X40100000Y-12375000I-250000J0D01*
G01*
X39300000Y-12375000D01*
G75*
G02*
X39050000Y-12125000I0J250000D01*
G01*
G37*
%TD.AperFunction*%
%TO.P,R1,2*%
%TO.N,GND*%
%TA.AperFunction,SMDPad,CuDef*%
G36*
G01*
X42150000Y-12125000D02*
X42150000Y-10875000D01*
G75*
G02*
X42400000Y-10625000I250000J0D01*
G01*
X43200000Y-10625000D01*
G75*
G02*
X43450000Y-10875000I0J-250000D01*
G01*
X43450000Y-12125000D01*
G75*
G02*
X43200000Y-12375000I-250000J0D01*
G01*
X42400000Y-12375000D01*
G75*
G02*
X42150000Y-12125000I0J250000D01*
G01*
G37*
%TD.AperFunction*%
%TD*%
D11*
%TO.P,J9,1*%
%TO.N,+5V*%
X11000000Y-14500000D03*
D12*
%TO.P,J9,2*%
%TO.N,/VoutLeft*%
X11000000Y-17040000D03*
%TO.P,J9,4*%
%TO.N,VS*%
X13540000Y-17040000D03*
%TO.P,J9,3*%
%TO.N,+3V3*%
X11000000Y-19580000D03*
%TD*%
D11*
%TO.P,J8,1*%
%TO.N,+3V3*%
X43000000Y-19500000D03*
D12*
%TO.P,J8,2*%
%TO.N,/VoutRight*%
X43000000Y-16960000D03*
%TO.P,J8,4*%
%TO.N,VS*%
X40460000Y-16960000D03*
%TO.P,J8,3*%
%TO.N,+5V*%
X43000000Y-14420000D03*
%TD*%
D15*
%TO.P,J5,1*%
%TO.N,Net-(D2-Pad2)*%
X7905000Y-8000000D03*
%TO.P,J5,2*%
%TO.N,GND*%
X4095000Y-8000000D03*
%TD*%
D16*
%TO.P,J2,6*%
%TO.N,GND*%
X17900000Y-4600000D03*
%TA.AperFunction,SMDPad,CuDef*%
G36*
G01*
X23000000Y-4100000D02*
X23000000Y-5100000D01*
G75*
G02*
X22500000Y-5600000I-500000J0D01*
G01*
X20500000Y-5600000D01*
G75*
G02*
X20000000Y-5100000I0J500000D01*
G01*
X20000000Y-4100000D01*
G75*
G02*
X20500000Y-3600000I500000J0D01*
G01*
X22500000Y-3600000D01*
G75*
G02*
X23000000Y-4100000I0J-500000D01*
G01*
G37*
%TD.AperFunction*%
D17*
%TO.P,J2,5*%
X20150000Y-7400000D03*
%TO.P,J2,4*%
%TO.N,Net-(J2-Pad4)*%
X20850000Y-7400000D03*
%TO.P,J2,3*%
%TO.N,/USB_Conn_D+*%
X21500000Y-7400000D03*
%TO.P,J2,2*%
%TO.N,/USB_Conn_D-*%
X22150000Y-7400000D03*
%TO.P,J2,1*%
%TO.N,+5V*%
X22800000Y-7400000D03*
D18*
%TO.P,J2,6*%
%TO.N,GND*%
X19075000Y-7400000D03*
X23925000Y-7400000D03*
D16*
X17900000Y-4600000D03*
X25100000Y-4600000D03*
%TD*%
%TO.P,D3,1*%
%TO.N,Net-(D3-Pad1)*%
%TA.AperFunction,SMDPad,CuDef*%
G36*
G01*
X38200000Y-10875000D02*
X38200000Y-12125000D01*
G75*
G02*
X37950000Y-12375000I-250000J0D01*
G01*
X37025000Y-12375000D01*
G75*
G02*
X36775000Y-12125000I0J250000D01*
G01*
X36775000Y-10875000D01*
G75*
G02*
X37025000Y-10625000I250000J0D01*
G01*
X37950000Y-10625000D01*
G75*
G02*
X38200000Y-10875000I0J-250000D01*
G01*
G37*
%TD.AperFunction*%
%TO.P,D3,2*%
%TO.N,+5V*%
%TA.AperFunction,SMDPad,CuDef*%
G36*
G01*
X35225000Y-10875000D02*
X35225000Y-12125000D01*
G75*
G02*
X34975000Y-12375000I-250000J0D01*
G01*
X34050000Y-12375000D01*
G75*
G02*
X33800000Y-12125000I0J250000D01*
G01*
X33800000Y-10875000D01*
G75*
G02*
X34050000Y-10625000I250000J0D01*
G01*
X34975000Y-10625000D01*
G75*
G02*
X35225000Y-10875000I0J-250000D01*
G01*
G37*
%TD.AperFunction*%
%TD*%
D19*
%TO.P,D2,2*%
%TO.N,Net-(D2-Pad2)*%
X13850000Y-4750000D03*
%TO.P,D2,1*%
%TO.N,VS*%
X13850000Y-8750000D03*
%TD*%
%TO.P,D1,1*%
%TO.N,Net-(D1-Pad1)*%
%TA.AperFunction,SMDPad,CuDef*%
G36*
G01*
X15800000Y-12125000D02*
X15800000Y-10875000D01*
G75*
G02*
X16050000Y-10625000I250000J0D01*
G01*
X16975000Y-10625000D01*
G75*
G02*
X17225000Y-10875000I0J-250000D01*
G01*
X17225000Y-12125000D01*
G75*
G02*
X16975000Y-12375000I-250000J0D01*
G01*
X16050000Y-12375000D01*
G75*
G02*
X15800000Y-12125000I0J250000D01*
G01*
G37*
%TD.AperFunction*%
%TO.P,D1,2*%
%TO.N,+3V3*%
%TA.AperFunction,SMDPad,CuDef*%
G36*
G01*
X18775000Y-12125000D02*
X18775000Y-10875000D01*
G75*
G02*
X19025000Y-10625000I250000J0D01*
G01*
X19950000Y-10625000D01*
G75*
G02*
X20200000Y-10875000I0J-250000D01*
G01*
X20200000Y-12125000D01*
G75*
G02*
X19950000Y-12375000I-250000J0D01*
G01*
X19025000Y-12375000D01*
G75*
G02*
X18775000Y-12125000I0J250000D01*
G01*
G37*
%TD.AperFunction*%
%TD*%
%TO.P,C8,1*%
%TO.N,+3V3*%
%TA.AperFunction,SMDPad,CuDef*%
G36*
G01*
X31300000Y-9350000D02*
X30200000Y-9350000D01*
G75*
G02*
X29950000Y-9100000I0J250000D01*
G01*
X29950000Y-7000000D01*
G75*
G02*
X30200000Y-6750000I250000J0D01*
G01*
X31300000Y-6750000D01*
G75*
G02*
X31550000Y-7000000I0J-250000D01*
G01*
X31550000Y-9100000D01*
G75*
G02*
X31300000Y-9350000I-250000J0D01*
G01*
G37*
%TD.AperFunction*%
%TO.P,C8,2*%
%TO.N,GND*%
%TA.AperFunction,SMDPad,CuDef*%
G36*
G01*
X31300000Y-5750000D02*
X30200000Y-5750000D01*
G75*
G02*
X29950000Y-5500000I0J250000D01*
G01*
X29950000Y-3400000D01*
G75*
G02*
X30200000Y-3150000I250000J0D01*
G01*
X31300000Y-3150000D01*
G75*
G02*
X31550000Y-3400000I0J-250000D01*
G01*
X31550000Y-5500000D01*
G75*
G02*
X31300000Y-5750000I-250000J0D01*
G01*
G37*
%TD.AperFunction*%
%TD*%
%TO.P,C7,1*%
%TO.N,+3V3*%
%TA.AperFunction,SMDPad,CuDef*%
G36*
G01*
X37800000Y-9350000D02*
X36700000Y-9350000D01*
G75*
G02*
X36450000Y-9100000I0J250000D01*
G01*
X36450000Y-7000000D01*
G75*
G02*
X36700000Y-6750000I250000J0D01*
G01*
X37800000Y-6750000D01*
G75*
G02*
X38050000Y-7000000I0J-250000D01*
G01*
X38050000Y-9100000D01*
G75*
G02*
X37800000Y-9350000I-250000J0D01*
G01*
G37*
%TD.AperFunction*%
%TO.P,C7,2*%
%TO.N,GND*%
%TA.AperFunction,SMDPad,CuDef*%
G36*
G01*
X37800000Y-5750000D02*
X36700000Y-5750000D01*
G75*
G02*
X36450000Y-5500000I0J250000D01*
G01*
X36450000Y-3400000D01*
G75*
G02*
X36700000Y-3150000I250000J0D01*
G01*
X37800000Y-3150000D01*
G75*
G02*
X38050000Y-3400000I0J-250000D01*
G01*
X38050000Y-5500000D01*
G75*
G02*
X37800000Y-5750000I-250000J0D01*
G01*
G37*
%TD.AperFunction*%
%TD*%
%TO.P,C6,1*%
%TO.N,+5V*%
%TA.AperFunction,SMDPad,CuDef*%
G36*
G01*
X44300000Y-9350000D02*
X43200000Y-9350000D01*
G75*
G02*
X42950000Y-9100000I0J250000D01*
G01*
X42950000Y-7000000D01*
G75*
G02*
X43200000Y-6750000I250000J0D01*
G01*
X44300000Y-6750000D01*
G75*
G02*
X44550000Y-7000000I0J-250000D01*
G01*
X44550000Y-9100000D01*
G75*
G02*
X44300000Y-9350000I-250000J0D01*
G01*
G37*
%TD.AperFunction*%
%TO.P,C6,2*%
%TO.N,GND*%
%TA.AperFunction,SMDPad,CuDef*%
G36*
G01*
X44300000Y-5750000D02*
X43200000Y-5750000D01*
G75*
G02*
X42950000Y-5500000I0J250000D01*
G01*
X42950000Y-3400000D01*
G75*
G02*
X43200000Y-3150000I250000J0D01*
G01*
X44300000Y-3150000D01*
G75*
G02*
X44550000Y-3400000I0J-250000D01*
G01*
X44550000Y-5500000D01*
G75*
G02*
X44300000Y-5750000I-250000J0D01*
G01*
G37*
%TD.AperFunction*%
%TD*%
%TO.P,C5,1*%
%TO.N,+5V*%
%TA.AperFunction,SMDPad,CuDef*%
G36*
G01*
X50800000Y-9350000D02*
X49700000Y-9350000D01*
G75*
G02*
X49450000Y-9100000I0J250000D01*
G01*
X49450000Y-7000000D01*
G75*
G02*
X49700000Y-6750000I250000J0D01*
G01*
X50800000Y-6750000D01*
G75*
G02*
X51050000Y-7000000I0J-250000D01*
G01*
X51050000Y-9100000D01*
G75*
G02*
X50800000Y-9350000I-250000J0D01*
G01*
G37*
%TD.AperFunction*%
%TO.P,C5,2*%
%TO.N,GND*%
%TA.AperFunction,SMDPad,CuDef*%
G36*
G01*
X50800000Y-5750000D02*
X49700000Y-5750000D01*
G75*
G02*
X49450000Y-5500000I0J250000D01*
G01*
X49450000Y-3400000D01*
G75*
G02*
X49700000Y-3150000I250000J0D01*
G01*
X50800000Y-3150000D01*
G75*
G02*
X51050000Y-3400000I0J-250000D01*
G01*
X51050000Y-5500000D01*
G75*
G02*
X50800000Y-5750000I-250000J0D01*
G01*
G37*
%TD.AperFunction*%
%TD*%
%TO.P,C4,1*%
%TO.N,+3V3*%
%TA.AperFunction,SMDPad,CuDef*%
G36*
G01*
X20225000Y-13099999D02*
X20225000Y-14400001D01*
G75*
G02*
X19975001Y-14650000I-249999J0D01*
G01*
X19149999Y-14650000D01*
G75*
G02*
X18900000Y-14400001I0J249999D01*
G01*
X18900000Y-13099999D01*
G75*
G02*
X19149999Y-12850000I249999J0D01*
G01*
X19975001Y-12850000D01*
G75*
G02*
X20225000Y-13099999I0J-249999D01*
G01*
G37*
%TD.AperFunction*%
%TO.P,C4,2*%
%TO.N,GND*%
%TA.AperFunction,SMDPad,CuDef*%
G36*
G01*
X17100000Y-13099999D02*
X17100000Y-14400001D01*
G75*
G02*
X16850001Y-14650000I-249999J0D01*
G01*
X16024999Y-14650000D01*
G75*
G02*
X15775000Y-14400001I0J249999D01*
G01*
X15775000Y-13099999D01*
G75*
G02*
X16024999Y-12850000I249999J0D01*
G01*
X16850001Y-12850000D01*
G75*
G02*
X17100000Y-13099999I0J-249999D01*
G01*
G37*
%TD.AperFunction*%
%TD*%
%TO.P,C3,2*%
%TO.N,GND*%
%TA.AperFunction,SMDPad,CuDef*%
G36*
G01*
X38400000Y-20900001D02*
X38400000Y-19599999D01*
G75*
G02*
X38649999Y-19350000I249999J0D01*
G01*
X39475001Y-19350000D01*
G75*
G02*
X39725000Y-19599999I0J-249999D01*
G01*
X39725000Y-20900001D01*
G75*
G02*
X39475001Y-21150000I-249999J0D01*
G01*
X38649999Y-21150000D01*
G75*
G02*
X38400000Y-20900001I0J249999D01*
G01*
G37*
%TD.AperFunction*%
%TO.P,C3,1*%
%TO.N,VS*%
%TA.AperFunction,SMDPad,CuDef*%
G36*
G01*
X35275000Y-20900001D02*
X35275000Y-19599999D01*
G75*
G02*
X35524999Y-19350000I249999J0D01*
G01*
X36350001Y-19350000D01*
G75*
G02*
X36600000Y-19599999I0J-249999D01*
G01*
X36600000Y-20900001D01*
G75*
G02*
X36350001Y-21150000I-249999J0D01*
G01*
X35524999Y-21150000D01*
G75*
G02*
X35275000Y-20900001I0J249999D01*
G01*
G37*
%TD.AperFunction*%
%TD*%
%TO.P,C2,1*%
%TO.N,+5V*%
%TA.AperFunction,SMDPad,CuDef*%
G36*
G01*
X33775000Y-14400001D02*
X33775000Y-13099999D01*
G75*
G02*
X34024999Y-12850000I249999J0D01*
G01*
X34850001Y-12850000D01*
G75*
G02*
X35100000Y-13099999I0J-249999D01*
G01*
X35100000Y-14400001D01*
G75*
G02*
X34850001Y-14650000I-249999J0D01*
G01*
X34024999Y-14650000D01*
G75*
G02*
X33775000Y-14400001I0J249999D01*
G01*
G37*
%TD.AperFunction*%
%TO.P,C2,2*%
%TO.N,GND*%
%TA.AperFunction,SMDPad,CuDef*%
G36*
G01*
X36900000Y-14400001D02*
X36900000Y-13099999D01*
G75*
G02*
X37149999Y-12850000I249999J0D01*
G01*
X37975001Y-12850000D01*
G75*
G02*
X38225000Y-13099999I0J-249999D01*
G01*
X38225000Y-14400001D01*
G75*
G02*
X37975001Y-14650000I-249999J0D01*
G01*
X37149999Y-14650000D01*
G75*
G02*
X36900000Y-14400001I0J249999D01*
G01*
G37*
%TD.AperFunction*%
%TD*%
%TO.P,C1,2*%
%TO.N,GND*%
%TA.AperFunction,SMDPad,CuDef*%
G36*
G01*
X15600000Y-19599999D02*
X15600000Y-20900001D01*
G75*
G02*
X15350001Y-21150000I-249999J0D01*
G01*
X14524999Y-21150000D01*
G75*
G02*
X14275000Y-20900001I0J249999D01*
G01*
X14275000Y-19599999D01*
G75*
G02*
X14524999Y-19350000I249999J0D01*
G01*
X15350001Y-19350000D01*
G75*
G02*
X15600000Y-19599999I0J-249999D01*
G01*
G37*
%TD.AperFunction*%
%TO.P,C1,1*%
%TO.N,VS*%
%TA.AperFunction,SMDPad,CuDef*%
G36*
G01*
X18725000Y-19599999D02*
X18725000Y-20900001D01*
G75*
G02*
X18475001Y-21150000I-249999J0D01*
G01*
X17649999Y-21150000D01*
G75*
G02*
X17400000Y-20900001I0J249999D01*
G01*
X17400000Y-19599999D01*
G75*
G02*
X17649999Y-19350000I249999J0D01*
G01*
X18475001Y-19350000D01*
G75*
G02*
X18725000Y-19599999I0J-249999D01*
G01*
G37*
%TD.AperFunction*%
%TD*%
D20*
%TO.N,GND*%
X15500000Y-18500000D03*
X27000000Y-17500000D03*
X37500000Y-18500000D03*
X39000000Y-13500000D03*
%TO.N,VS*%
X16000000Y-9500000D03*
X34040000Y-16960000D03*
X24290000Y-17040000D03*
%TO.N,+5V*%
X23000000Y-9000000D03*
X31000000Y-17500000D03*
%TO.N,+3V3*%
X23000000Y-18015000D03*
%TD*%
D21*
%TO.N,*%
X0Y0D02*
X0Y-1000000D01*
X0Y-1000000D02*
X1000000Y0D01*
X1000000Y0D02*
X0Y0D01*
D22*
%TO.N,VS*%
X25300000Y-18050000D02*
X25300000Y-20150000D01*
X24290000Y-17040000D02*
X25300000Y-18050000D01*
X18062500Y-17062500D02*
X18040000Y-17040000D01*
X18040000Y-17040000D02*
X24290000Y-17040000D01*
X18062500Y-20250000D02*
X18062500Y-17062500D01*
X13540000Y-17040000D02*
X18040000Y-17040000D01*
X33300000Y-17700000D02*
X33300000Y-20150000D01*
X34040000Y-16960000D02*
X33300000Y-17700000D01*
X35937500Y-17107500D02*
X35790000Y-16960000D01*
X35937500Y-20250000D02*
X35937500Y-17107500D01*
X35790000Y-16960000D02*
X34040000Y-16960000D01*
X40460000Y-16960000D02*
X35790000Y-16960000D01*
X15250000Y-8750000D02*
X16000000Y-9500000D01*
X13850000Y-8750000D02*
X15250000Y-8750000D01*
%TO.N,+5V*%
X43000000Y-14420000D02*
X44580000Y-14420000D01*
X47050000Y-11950000D02*
X47050000Y-8050000D01*
X44580000Y-14420000D02*
X47050000Y-11950000D01*
D23*
X47050000Y-8050000D02*
X50250000Y-8050000D01*
X43750000Y-8050000D02*
X47050000Y-8050000D01*
D24*
X22800000Y-7400000D02*
X22800000Y-7560000D01*
D25*
X31000000Y-20150000D02*
X31000000Y-17500000D01*
X31000000Y-17500000D02*
X31000000Y-13850000D01*
X28500000Y-17500000D02*
X31000000Y-17500000D01*
X27000000Y-16000000D02*
X28500000Y-17500000D01*
X15500000Y-16000000D02*
X27000000Y-16000000D01*
X14000000Y-14500000D02*
X15500000Y-16000000D01*
X11000000Y-14500000D02*
X14000000Y-14500000D01*
D26*
X22800000Y-8500000D02*
X23000000Y-9000000D01*
X22800000Y-7400000D02*
X22800000Y-8500000D01*
D23*
%TO.N,+3V3*%
X30750000Y-8050000D02*
X37250000Y-8050000D01*
D22*
X27200000Y-8050000D02*
X30750000Y-8050000D01*
X24875000Y-10375000D02*
X27200000Y-8050000D01*
X23000000Y-20150000D02*
X23000000Y-18015000D01*
%TO.N,Net-(D1-Pad1)*%
X14300000Y-11500000D02*
X16512500Y-11500000D01*
D23*
%TO.N,Net-(D2-Pad2)*%
X8750000Y-4750000D02*
X13000000Y-4750000D01*
X7905000Y-5595000D02*
X8750000Y-4750000D01*
X7905000Y-8000000D02*
X7905000Y-5595000D01*
D22*
%TO.N,Net-(D3-Pad1)*%
X37487500Y-11500000D02*
X39700000Y-11500000D01*
%TD*%
D27*
%TO.N,GND*%
X11701779Y-2270293D02*
X11714368Y-2285632D01*
X11775580Y-2335868D01*
X11845417Y-2373197D01*
X11921194Y-2396183D01*
X11980253Y-2402000D01*
X11980260Y-2402000D01*
X11999999Y-2403944D01*
X12019739Y-2402000D01*
X51833487Y-2402000D01*
X53598000Y-4166514D01*
X53598001Y-22833485D01*
X52833487Y-23598000D01*
X47166514Y-23598000D01*
X46298223Y-22729710D01*
X46285632Y-22714368D01*
X46224420Y-22664132D01*
X46154583Y-22626803D01*
X46078806Y-22603817D01*
X46019747Y-22598000D01*
X46019739Y-22598000D01*
X46000000Y-22596056D01*
X45980261Y-22598000D01*
X8019739Y-22598000D01*
X8000000Y-22596056D01*
X7980260Y-22598000D01*
X7980253Y-22598000D01*
X7921194Y-22603817D01*
X7845416Y-22626803D01*
X7775580Y-22664132D01*
X7714368Y-22714368D01*
X7701781Y-22729705D01*
X6833487Y-23598000D01*
X1166514Y-23598000D01*
X402000Y-22833487D01*
X402000Y-13750000D01*
X1123000Y-13750000D01*
X1123000Y-21250000D01*
X1130244Y-21323549D01*
X1151697Y-21394272D01*
X1186536Y-21459450D01*
X1233421Y-21516579D01*
X1483421Y-21766579D01*
X1540550Y-21813464D01*
X1605728Y-21848303D01*
X1676451Y-21869756D01*
X1750000Y-21877000D01*
X6500000Y-21877000D01*
X6573549Y-21869756D01*
X6644272Y-21848303D01*
X6709450Y-21813464D01*
X6766579Y-21766579D01*
X7016579Y-21516579D01*
X7063464Y-21459450D01*
X7098303Y-21394272D01*
X7119756Y-21323549D01*
X7127000Y-21250000D01*
X7127000Y-21150000D01*
X13636928Y-21150000D01*
X13649188Y-21274482D01*
X13685498Y-21394180D01*
X13744463Y-21504494D01*
X13823815Y-21601185D01*
X13920506Y-21680537D01*
X14030820Y-21739502D01*
X14150518Y-21775812D01*
X14275000Y-21788072D01*
X14651750Y-21785000D01*
X14810500Y-21626250D01*
X14810500Y-20377000D01*
X15064500Y-20377000D01*
X15064500Y-21626250D01*
X15223250Y-21785000D01*
X15600000Y-21788072D01*
X15724482Y-21775812D01*
X15844180Y-21739502D01*
X15954494Y-21680537D01*
X16051185Y-21601185D01*
X16130537Y-21504494D01*
X16189502Y-21394180D01*
X16225812Y-21274482D01*
X16238072Y-21150000D01*
X16235000Y-20535750D01*
X16076250Y-20377000D01*
X15064500Y-20377000D01*
X14810500Y-20377000D01*
X13798750Y-20377000D01*
X13640000Y-20535750D01*
X13636928Y-21150000D01*
X7127000Y-21150000D01*
X7127000Y-19656158D01*
X7906158Y-18877000D01*
X9500000Y-18877000D01*
X9573936Y-18869679D01*
X10075367Y-18769393D01*
X10046927Y-18797833D01*
X9912647Y-18998798D01*
X9820153Y-19222097D01*
X9773000Y-19459151D01*
X9773000Y-19700849D01*
X9820153Y-19937903D01*
X9912647Y-20161202D01*
X10046927Y-20362167D01*
X10217833Y-20533073D01*
X10418798Y-20667353D01*
X10642097Y-20759847D01*
X10879151Y-20807000D01*
X11120849Y-20807000D01*
X11357903Y-20759847D01*
X11581202Y-20667353D01*
X11782167Y-20533073D01*
X11953073Y-20362167D01*
X12087353Y-20161202D01*
X12179847Y-19937903D01*
X12227000Y-19700849D01*
X12227000Y-19459151D01*
X12205289Y-19350000D01*
X13636928Y-19350000D01*
X13640000Y-19964250D01*
X13798750Y-20123000D01*
X14810500Y-20123000D01*
X14810500Y-18873750D01*
X15064500Y-18873750D01*
X15064500Y-20123000D01*
X16076250Y-20123000D01*
X16235000Y-19964250D01*
X16238072Y-19350000D01*
X16225812Y-19225518D01*
X16189502Y-19105820D01*
X16130537Y-18995506D01*
X16051185Y-18898815D01*
X15954494Y-18819463D01*
X15844180Y-18760498D01*
X15724482Y-18724188D01*
X15600000Y-18711928D01*
X15223250Y-18715000D01*
X15064500Y-18873750D01*
X14810500Y-18873750D01*
X14651750Y-18715000D01*
X14275000Y-18711928D01*
X14150518Y-18724188D01*
X14030820Y-18760498D01*
X13920506Y-18819463D01*
X13823815Y-18898815D01*
X13744463Y-18995506D01*
X13685498Y-19105820D01*
X13649188Y-19225518D01*
X13636928Y-19350000D01*
X12205289Y-19350000D01*
X12179847Y-19222097D01*
X12087353Y-18998798D01*
X11953073Y-18797833D01*
X11782167Y-18626927D01*
X11581202Y-18492647D01*
X11541442Y-18476178D01*
X12073936Y-18369679D01*
X12127170Y-18354904D01*
X12193965Y-18323275D01*
X12253306Y-18279223D01*
X12302912Y-18224440D01*
X12340878Y-18161032D01*
X12365744Y-18091436D01*
X12474956Y-17654589D01*
X12586927Y-17822167D01*
X12757833Y-17993073D01*
X12958798Y-18127353D01*
X13182097Y-18219847D01*
X13419151Y-18267000D01*
X13660849Y-18267000D01*
X13897903Y-18219847D01*
X14121202Y-18127353D01*
X14322167Y-17993073D01*
X14493073Y-17822167D01*
X14513230Y-17792000D01*
X17310501Y-17792000D01*
X17310500Y-19071884D01*
X17300644Y-19077152D01*
X17205354Y-19155354D01*
X17127152Y-19250644D01*
X17069042Y-19359359D01*
X17033259Y-19477322D01*
X17021176Y-19599999D01*
X17021176Y-20900001D01*
X17033259Y-21022678D01*
X17069042Y-21140641D01*
X17127152Y-21249356D01*
X17205354Y-21344646D01*
X17300644Y-21422848D01*
X17409359Y-21480958D01*
X17527322Y-21516741D01*
X17649999Y-21528824D01*
X18475001Y-21528824D01*
X18597678Y-21516741D01*
X18715641Y-21480958D01*
X18824356Y-21422848D01*
X18919646Y-21344646D01*
X18997848Y-21249356D01*
X19050955Y-21150000D01*
X19311928Y-21150000D01*
X19324188Y-21274482D01*
X19360498Y-21394180D01*
X19419463Y-21504494D01*
X19498815Y-21601185D01*
X19595506Y-21680537D01*
X19705820Y-21739502D01*
X19825518Y-21775812D01*
X19950000Y-21788072D01*
X20414250Y-21785000D01*
X20573000Y-21626250D01*
X20573000Y-20277000D01*
X19473750Y-20277000D01*
X19315000Y-20435750D01*
X19311928Y-21150000D01*
X19050955Y-21150000D01*
X19055958Y-21140641D01*
X19091741Y-21022678D01*
X19103824Y-20900001D01*
X19103824Y-19599999D01*
X19091741Y-19477322D01*
X19055958Y-19359359D01*
X18997848Y-19250644D01*
X18919646Y-19155354D01*
X18913123Y-19150000D01*
X19311928Y-19150000D01*
X19315000Y-19864250D01*
X19473750Y-20023000D01*
X20573000Y-20023000D01*
X20573000Y-18673750D01*
X20414250Y-18515000D01*
X19950000Y-18511928D01*
X19825518Y-18524188D01*
X19705820Y-18560498D01*
X19595506Y-18619463D01*
X19498815Y-18698815D01*
X19419463Y-18795506D01*
X19360498Y-18905820D01*
X19324188Y-19025518D01*
X19311928Y-19150000D01*
X18913123Y-19150000D01*
X18824356Y-19077152D01*
X18814500Y-19071884D01*
X18814500Y-17792000D01*
X22252134Y-17792000D01*
X22223000Y-17938472D01*
X22223000Y-18091528D01*
X22248001Y-18217219D01*
X22248001Y-18771373D01*
X22176095Y-18778455D01*
X22105030Y-18800012D01*
X22039537Y-18835019D01*
X22013207Y-18856627D01*
X21980537Y-18795506D01*
X21901185Y-18698815D01*
X21804494Y-18619463D01*
X21694180Y-18560498D01*
X21574482Y-18524188D01*
X21450000Y-18511928D01*
X20985750Y-18515000D01*
X20827000Y-18673750D01*
X20827000Y-20023000D01*
X20847000Y-20023000D01*
X20847000Y-20277000D01*
X20827000Y-20277000D01*
X20827000Y-21626250D01*
X20985750Y-21785000D01*
X21450000Y-21788072D01*
X21574482Y-21775812D01*
X21694180Y-21739502D01*
X21804494Y-21680537D01*
X21901185Y-21601185D01*
X21980537Y-21504494D01*
X22013207Y-21443373D01*
X22039537Y-21464981D01*
X22105030Y-21499988D01*
X22176095Y-21521545D01*
X22250000Y-21528824D01*
X23750000Y-21528824D01*
X23823905Y-21521545D01*
X23894970Y-21499988D01*
X23960463Y-21464981D01*
X24017869Y-21417869D01*
X24064981Y-21360463D01*
X24099988Y-21294970D01*
X24121545Y-21223905D01*
X24128824Y-21150000D01*
X24128824Y-19150000D01*
X24121545Y-19076095D01*
X24099988Y-19005030D01*
X24064981Y-18939537D01*
X24017869Y-18882131D01*
X23960463Y-18835019D01*
X23894970Y-18800012D01*
X23823905Y-18778455D01*
X23752000Y-18771373D01*
X23752000Y-18217215D01*
X23777000Y-18091528D01*
X23777000Y-17938472D01*
X23747866Y-17792000D01*
X23978512Y-17792000D01*
X24548000Y-18361488D01*
X24548000Y-18771373D01*
X24476095Y-18778455D01*
X24405030Y-18800012D01*
X24339537Y-18835019D01*
X24282131Y-18882131D01*
X24235019Y-18939537D01*
X24200012Y-19005030D01*
X24178455Y-19076095D01*
X24171176Y-19150000D01*
X24171176Y-21150000D01*
X24178455Y-21223905D01*
X24200012Y-21294970D01*
X24235019Y-21360463D01*
X24282131Y-21417869D01*
X24339537Y-21464981D01*
X24405030Y-21499988D01*
X24476095Y-21521545D01*
X24550000Y-21528824D01*
X26050000Y-21528824D01*
X26123905Y-21521545D01*
X26194970Y-21499988D01*
X26260463Y-21464981D01*
X26317869Y-21417869D01*
X26364981Y-21360463D01*
X26399988Y-21294970D01*
X26421545Y-21223905D01*
X26428824Y-21150000D01*
X27311928Y-21150000D01*
X27324188Y-21274482D01*
X27360498Y-21394180D01*
X27419463Y-21504494D01*
X27498815Y-21601185D01*
X27595506Y-21680537D01*
X27705820Y-21739502D01*
X27825518Y-21775812D01*
X27950000Y-21788072D01*
X28414250Y-21785000D01*
X28573000Y-21626250D01*
X28573000Y-20277000D01*
X27473750Y-20277000D01*
X27315000Y-20435750D01*
X27311928Y-21150000D01*
X26428824Y-21150000D01*
X26428824Y-19150000D01*
X27311928Y-19150000D01*
X27315000Y-19864250D01*
X27473750Y-20023000D01*
X28573000Y-20023000D01*
X28573000Y-18673750D01*
X28414250Y-18515000D01*
X27950000Y-18511928D01*
X27825518Y-18524188D01*
X27705820Y-18560498D01*
X27595506Y-18619463D01*
X27498815Y-18698815D01*
X27419463Y-18795506D01*
X27360498Y-18905820D01*
X27324188Y-19025518D01*
X27311928Y-19150000D01*
X26428824Y-19150000D01*
X26421545Y-19076095D01*
X26399988Y-19005030D01*
X26364981Y-18939537D01*
X26317869Y-18882131D01*
X26260463Y-18835019D01*
X26194970Y-18800012D01*
X26123905Y-18778455D01*
X26052000Y-18771373D01*
X26052000Y-18086935D01*
X26055638Y-18050000D01*
X26052000Y-18013062D01*
X26041119Y-17902582D01*
X25998118Y-17760830D01*
X25928290Y-17630190D01*
X25834317Y-17515683D01*
X25805622Y-17492134D01*
X24964733Y-16651245D01*
X24948533Y-16627000D01*
X26740289Y-16627000D01*
X28034866Y-17921578D01*
X28054499Y-17945501D01*
X28149972Y-18023853D01*
X28258897Y-18082075D01*
X28377087Y-18117927D01*
X28469206Y-18127000D01*
X28469207Y-18127000D01*
X28499999Y-18130033D01*
X28530791Y-18127000D01*
X30373001Y-18127000D01*
X30373001Y-18771176D01*
X30250000Y-18771176D01*
X30176095Y-18778455D01*
X30105030Y-18800012D01*
X30039537Y-18835019D01*
X30013207Y-18856627D01*
X29980537Y-18795506D01*
X29901185Y-18698815D01*
X29804494Y-18619463D01*
X29694180Y-18560498D01*
X29574482Y-18524188D01*
X29450000Y-18511928D01*
X28985750Y-18515000D01*
X28827000Y-18673750D01*
X28827000Y-20023000D01*
X28847000Y-20023000D01*
X28847000Y-20277000D01*
X28827000Y-20277000D01*
X28827000Y-21626250D01*
X28985750Y-21785000D01*
X29450000Y-21788072D01*
X29574482Y-21775812D01*
X29694180Y-21739502D01*
X29804494Y-21680537D01*
X29901185Y-21601185D01*
X29980537Y-21504494D01*
X30013207Y-21443373D01*
X30039537Y-21464981D01*
X30105030Y-21499988D01*
X30176095Y-21521545D01*
X30250000Y-21528824D01*
X31750000Y-21528824D01*
X31823905Y-21521545D01*
X31894970Y-21499988D01*
X31960463Y-21464981D01*
X32017869Y-21417869D01*
X32064981Y-21360463D01*
X32099988Y-21294970D01*
X32121545Y-21223905D01*
X32128824Y-21150000D01*
X32128824Y-19150000D01*
X32171176Y-19150000D01*
X32171176Y-21150000D01*
X32178455Y-21223905D01*
X32200012Y-21294970D01*
X32235019Y-21360463D01*
X32282131Y-21417869D01*
X32339537Y-21464981D01*
X32405030Y-21499988D01*
X32476095Y-21521545D01*
X32550000Y-21528824D01*
X34050000Y-21528824D01*
X34123905Y-21521545D01*
X34194970Y-21499988D01*
X34260463Y-21464981D01*
X34317869Y-21417869D01*
X34364981Y-21360463D01*
X34399988Y-21294970D01*
X34421545Y-21223905D01*
X34428824Y-21150000D01*
X34428824Y-19150000D01*
X34421545Y-19076095D01*
X34399988Y-19005030D01*
X34364981Y-18939537D01*
X34317869Y-18882131D01*
X34260463Y-18835019D01*
X34194970Y-18800012D01*
X34123905Y-18778455D01*
X34052000Y-18771373D01*
X34052000Y-18011488D01*
X34351489Y-17712000D01*
X35185501Y-17712000D01*
X35185500Y-19071884D01*
X35175644Y-19077152D01*
X35080354Y-19155354D01*
X35002152Y-19250644D01*
X34944042Y-19359359D01*
X34908259Y-19477322D01*
X34896176Y-19599999D01*
X34896176Y-20900001D01*
X34908259Y-21022678D01*
X34944042Y-21140641D01*
X35002152Y-21249356D01*
X35080354Y-21344646D01*
X35175644Y-21422848D01*
X35284359Y-21480958D01*
X35402322Y-21516741D01*
X35524999Y-21528824D01*
X36350001Y-21528824D01*
X36472678Y-21516741D01*
X36590641Y-21480958D01*
X36699356Y-21422848D01*
X36794646Y-21344646D01*
X36872848Y-21249356D01*
X36925955Y-21150000D01*
X37761928Y-21150000D01*
X37774188Y-21274482D01*
X37810498Y-21394180D01*
X37869463Y-21504494D01*
X37948815Y-21601185D01*
X38045506Y-21680537D01*
X38155820Y-21739502D01*
X38275518Y-21775812D01*
X38400000Y-21788072D01*
X38776750Y-21785000D01*
X38935500Y-21626250D01*
X38935500Y-20377000D01*
X39189500Y-20377000D01*
X39189500Y-21626250D01*
X39348250Y-21785000D01*
X39725000Y-21788072D01*
X39849482Y-21775812D01*
X39969180Y-21739502D01*
X40079494Y-21680537D01*
X40176185Y-21601185D01*
X40255537Y-21504494D01*
X40314502Y-21394180D01*
X40350812Y-21274482D01*
X40363072Y-21150000D01*
X40360000Y-20535750D01*
X40201250Y-20377000D01*
X39189500Y-20377000D01*
X38935500Y-20377000D01*
X37923750Y-20377000D01*
X37765000Y-20535750D01*
X37761928Y-21150000D01*
X36925955Y-21150000D01*
X36930958Y-21140641D01*
X36966741Y-21022678D01*
X36978824Y-20900001D01*
X36978824Y-19599999D01*
X36966741Y-19477322D01*
X36930958Y-19359359D01*
X36925956Y-19350000D01*
X37761928Y-19350000D01*
X37765000Y-19964250D01*
X37923750Y-20123000D01*
X38935500Y-20123000D01*
X38935500Y-18873750D01*
X39189500Y-18873750D01*
X39189500Y-20123000D01*
X40201250Y-20123000D01*
X40360000Y-19964250D01*
X40363072Y-19350000D01*
X40350812Y-19225518D01*
X40314502Y-19105820D01*
X40255537Y-18995506D01*
X40176185Y-18898815D01*
X40079494Y-18819463D01*
X39969180Y-18760498D01*
X39849482Y-18724188D01*
X39725000Y-18711928D01*
X39348250Y-18715000D01*
X39189500Y-18873750D01*
X38935500Y-18873750D01*
X38776750Y-18715000D01*
X38400000Y-18711928D01*
X38275518Y-18724188D01*
X38155820Y-18760498D01*
X38045506Y-18819463D01*
X37948815Y-18898815D01*
X37869463Y-18995506D01*
X37810498Y-19105820D01*
X37774188Y-19225518D01*
X37761928Y-19350000D01*
X36925956Y-19350000D01*
X36872848Y-19250644D01*
X36794646Y-19155354D01*
X36699356Y-19077152D01*
X36689500Y-19071884D01*
X36689500Y-17712000D01*
X39486770Y-17712000D01*
X39506927Y-17742167D01*
X39677833Y-17913073D01*
X39878798Y-18047353D01*
X40102097Y-18139847D01*
X40339151Y-18187000D01*
X40580849Y-18187000D01*
X40817903Y-18139847D01*
X41041202Y-18047353D01*
X41242167Y-17913073D01*
X41413073Y-17742167D01*
X41510490Y-17596372D01*
X41634256Y-18091436D01*
X41651547Y-18143907D01*
X41686317Y-18209122D01*
X41733142Y-18266300D01*
X41790222Y-18313245D01*
X41855364Y-18348151D01*
X41905087Y-18363292D01*
X41882131Y-18382131D01*
X41835019Y-18439537D01*
X41800012Y-18505030D01*
X41778455Y-18576095D01*
X41771176Y-18650000D01*
X41771176Y-20350000D01*
X41778455Y-20423905D01*
X41800012Y-20494970D01*
X41835019Y-20560463D01*
X41882131Y-20617869D01*
X41939537Y-20664981D01*
X42005030Y-20699988D01*
X42076095Y-20721545D01*
X42150000Y-20728824D01*
X43850000Y-20728824D01*
X43923905Y-20721545D01*
X43994970Y-20699988D01*
X44060463Y-20664981D01*
X44117869Y-20617869D01*
X44164981Y-20560463D01*
X44199988Y-20494970D01*
X44221545Y-20423905D01*
X44228824Y-20350000D01*
X44228824Y-18830231D01*
X44426064Y-18869679D01*
X44500000Y-18877000D01*
X46093842Y-18877000D01*
X46873000Y-19656158D01*
X46873000Y-21250000D01*
X46880244Y-21323549D01*
X46901697Y-21394272D01*
X46936536Y-21459450D01*
X46983421Y-21516579D01*
X47233421Y-21766579D01*
X47290550Y-21813464D01*
X47355728Y-21848303D01*
X47426451Y-21869756D01*
X47500000Y-21877000D01*
X52250000Y-21877000D01*
X52323549Y-21869756D01*
X52394272Y-21848303D01*
X52459450Y-21813464D01*
X52516579Y-21766579D01*
X52766579Y-21516579D01*
X52813464Y-21459450D01*
X52848303Y-21394272D01*
X52869756Y-21323549D01*
X52877000Y-21250000D01*
X52877000Y-13750000D01*
X52869756Y-13676451D01*
X52848303Y-13605728D01*
X52813464Y-13540550D01*
X52766579Y-13483421D01*
X52516579Y-13233421D01*
X52459450Y-13186536D01*
X52394272Y-13151697D01*
X52323549Y-13130244D01*
X52250000Y-13123000D01*
X47500000Y-13123000D01*
X47426451Y-13130244D01*
X47355728Y-13151697D01*
X47290550Y-13186536D01*
X47233421Y-13233421D01*
X46983421Y-13483421D01*
X46936536Y-13540550D01*
X46901697Y-13605728D01*
X46880244Y-13676451D01*
X46873000Y-13750000D01*
X46873000Y-14093842D01*
X45843842Y-15123000D01*
X44853077Y-15123000D01*
X44869170Y-15118118D01*
X44999810Y-15048290D01*
X45114317Y-14954317D01*
X45137867Y-14925621D01*
X47555627Y-12507862D01*
X47584317Y-12484317D01*
X47607863Y-12455626D01*
X47678290Y-12369811D01*
X47748117Y-12239171D01*
X47748118Y-12239170D01*
X47791119Y-12097418D01*
X47802000Y-11986938D01*
X47802000Y-11986929D01*
X47805637Y-11950001D01*
X47802000Y-11913073D01*
X47802000Y-8927000D01*
X49071176Y-8927000D01*
X49071176Y-9100000D01*
X49083259Y-9222677D01*
X49119042Y-9340641D01*
X49177152Y-9449356D01*
X49255354Y-9544646D01*
X49350644Y-9622848D01*
X49459359Y-9680958D01*
X49577323Y-9716741D01*
X49700000Y-9728824D01*
X50800000Y-9728824D01*
X50922677Y-9716741D01*
X51040641Y-9680958D01*
X51149356Y-9622848D01*
X51244646Y-9544646D01*
X51322848Y-9449356D01*
X51380958Y-9340641D01*
X51416741Y-9222677D01*
X51428824Y-9100000D01*
X51428824Y-7000000D01*
X51416741Y-6877323D01*
X51380958Y-6759359D01*
X51322848Y-6650644D01*
X51244646Y-6555354D01*
X51149356Y-6477152D01*
X51040641Y-6419042D01*
X50936305Y-6387393D01*
X51050000Y-6388072D01*
X51174482Y-6375812D01*
X51294180Y-6339502D01*
X51404494Y-6280537D01*
X51501185Y-6201185D01*
X51580537Y-6104494D01*
X51639502Y-5994180D01*
X51675812Y-5874482D01*
X51688072Y-5750000D01*
X51685000Y-4735750D01*
X51526250Y-4577000D01*
X50377000Y-4577000D01*
X50377000Y-4597000D01*
X50123000Y-4597000D01*
X50123000Y-4577000D01*
X48973750Y-4577000D01*
X48815000Y-4735750D01*
X48811928Y-5750000D01*
X48824188Y-5874482D01*
X48860498Y-5994180D01*
X48919463Y-6104494D01*
X48998815Y-6201185D01*
X49095506Y-6280537D01*
X49205820Y-6339502D01*
X49325518Y-6375812D01*
X49450000Y-6388072D01*
X49563695Y-6387393D01*
X49459359Y-6419042D01*
X49350644Y-6477152D01*
X49255354Y-6555354D01*
X49177152Y-6650644D01*
X49119042Y-6759359D01*
X49083259Y-6877323D01*
X49071176Y-7000000D01*
X49071176Y-7173000D01*
X44928824Y-7173000D01*
X44928824Y-7000000D01*
X44916741Y-6877323D01*
X44880958Y-6759359D01*
X44822848Y-6650644D01*
X44744646Y-6555354D01*
X44649356Y-6477152D01*
X44540641Y-6419042D01*
X44436305Y-6387393D01*
X44550000Y-6388072D01*
X44674482Y-6375812D01*
X44794180Y-6339502D01*
X44904494Y-6280537D01*
X45001185Y-6201185D01*
X45080537Y-6104494D01*
X45139502Y-5994180D01*
X45175812Y-5874482D01*
X45188072Y-5750000D01*
X45185000Y-4735750D01*
X45026250Y-4577000D01*
X43877000Y-4577000D01*
X43877000Y-4597000D01*
X43623000Y-4597000D01*
X43623000Y-4577000D01*
X42473750Y-4577000D01*
X42315000Y-4735750D01*
X42311928Y-5750000D01*
X42324188Y-5874482D01*
X42360498Y-5994180D01*
X42419463Y-6104494D01*
X42498815Y-6201185D01*
X42595506Y-6280537D01*
X42705820Y-6339502D01*
X42825518Y-6375812D01*
X42950000Y-6388072D01*
X43063695Y-6387393D01*
X42959359Y-6419042D01*
X42850644Y-6477152D01*
X42755354Y-6555354D01*
X42677152Y-6650644D01*
X42619042Y-6759359D01*
X42583259Y-6877323D01*
X42571176Y-7000000D01*
X42571176Y-9100000D01*
X42583259Y-9222677D01*
X42619042Y-9340641D01*
X42677152Y-9449356D01*
X42755354Y-9544646D01*
X42850644Y-9622848D01*
X42959359Y-9680958D01*
X43077323Y-9716741D01*
X43200000Y-9728824D01*
X44300000Y-9728824D01*
X44422677Y-9716741D01*
X44540641Y-9680958D01*
X44649356Y-9622848D01*
X44744646Y-9544646D01*
X44822848Y-9449356D01*
X44880958Y-9340641D01*
X44916741Y-9222677D01*
X44928824Y-9100000D01*
X44928824Y-8927000D01*
X46298001Y-8927000D01*
X46298000Y-11638511D01*
X44268512Y-13668000D01*
X43973230Y-13668000D01*
X43953073Y-13637833D01*
X43782167Y-13466927D01*
X43581202Y-13332647D01*
X43357903Y-13240153D01*
X43120849Y-13193000D01*
X42879151Y-13193000D01*
X42642097Y-13240153D01*
X42418798Y-13332647D01*
X42217833Y-13466927D01*
X42046927Y-13637833D01*
X41912647Y-13838798D01*
X41820153Y-14062097D01*
X41773000Y-14299151D01*
X41773000Y-14540849D01*
X41820153Y-14777903D01*
X41912647Y-15001202D01*
X42046927Y-15202167D01*
X42217833Y-15373073D01*
X42418798Y-15507353D01*
X42458558Y-15523822D01*
X41926064Y-15630321D01*
X41872830Y-15645096D01*
X41806035Y-15676725D01*
X41746694Y-15720777D01*
X41697088Y-15775560D01*
X41659122Y-15838968D01*
X41634256Y-15908564D01*
X41525044Y-16345411D01*
X41413073Y-16177833D01*
X41242167Y-16006927D01*
X41041202Y-15872647D01*
X40817903Y-15780153D01*
X40580849Y-15733000D01*
X40339151Y-15733000D01*
X40102097Y-15780153D01*
X39878798Y-15872647D01*
X39677833Y-16006927D01*
X39506927Y-16177833D01*
X39486770Y-16208000D01*
X35826935Y-16208000D01*
X35790000Y-16204362D01*
X35753065Y-16208000D01*
X34242215Y-16208000D01*
X34116528Y-16183000D01*
X33963472Y-16183000D01*
X33813357Y-16212859D01*
X33671952Y-16271431D01*
X33544691Y-16356464D01*
X33436464Y-16464691D01*
X33365268Y-16571243D01*
X32794379Y-17142133D01*
X32765683Y-17165683D01*
X32729382Y-17209917D01*
X32671710Y-17280190D01*
X32619919Y-17377086D01*
X32601882Y-17410831D01*
X32558881Y-17552583D01*
X32548487Y-17658118D01*
X32544362Y-17700000D01*
X32548000Y-17736936D01*
X32548000Y-18771373D01*
X32476095Y-18778455D01*
X32405030Y-18800012D01*
X32339537Y-18835019D01*
X32282131Y-18882131D01*
X32235019Y-18939537D01*
X32200012Y-19005030D01*
X32178455Y-19076095D01*
X32171176Y-19150000D01*
X32128824Y-19150000D01*
X32121545Y-19076095D01*
X32099988Y-19005030D01*
X32064981Y-18939537D01*
X32017869Y-18882131D01*
X31960463Y-18835019D01*
X31894970Y-18800012D01*
X31823905Y-18778455D01*
X31750000Y-18771176D01*
X31627000Y-18771176D01*
X31627000Y-17960193D01*
X31688569Y-17868048D01*
X31747141Y-17726643D01*
X31777000Y-17576528D01*
X31777000Y-17423472D01*
X31747141Y-17273357D01*
X31688569Y-17131952D01*
X31627000Y-17039807D01*
X31627000Y-15877000D01*
X35000000Y-15877000D01*
X35073549Y-15869756D01*
X35144272Y-15848303D01*
X35209450Y-15813464D01*
X35266579Y-15766579D01*
X35766579Y-15266579D01*
X35813464Y-15209450D01*
X35848303Y-15144272D01*
X35869756Y-15073549D01*
X35877000Y-15000000D01*
X35877000Y-14650000D01*
X36261928Y-14650000D01*
X36274188Y-14774482D01*
X36310498Y-14894180D01*
X36369463Y-15004494D01*
X36448815Y-15101185D01*
X36545506Y-15180537D01*
X36655820Y-15239502D01*
X36775518Y-15275812D01*
X36900000Y-15288072D01*
X37276750Y-15285000D01*
X37435500Y-15126250D01*
X37435500Y-13877000D01*
X37689500Y-13877000D01*
X37689500Y-15126250D01*
X37848250Y-15285000D01*
X38225000Y-15288072D01*
X38349482Y-15275812D01*
X38469180Y-15239502D01*
X38579494Y-15180537D01*
X38676185Y-15101185D01*
X38755537Y-15004494D01*
X38814502Y-14894180D01*
X38850812Y-14774482D01*
X38863072Y-14650000D01*
X38860000Y-14035750D01*
X38701250Y-13877000D01*
X37689500Y-13877000D01*
X37435500Y-13877000D01*
X36423750Y-13877000D01*
X36265000Y-14035750D01*
X36261928Y-14650000D01*
X35877000Y-14650000D01*
X35877000Y-12850000D01*
X36261928Y-12850000D01*
X36265000Y-13464250D01*
X36423750Y-13623000D01*
X37435500Y-13623000D01*
X37435500Y-13603000D01*
X37689500Y-13603000D01*
X37689500Y-13623000D01*
X38701250Y-13623000D01*
X38860000Y-13464250D01*
X38863072Y-12850000D01*
X38850812Y-12725518D01*
X38814502Y-12605820D01*
X38755537Y-12495506D01*
X38676185Y-12398815D01*
X38579494Y-12319463D01*
X38549783Y-12303582D01*
X38565430Y-12252000D01*
X38684570Y-12252000D01*
X38719042Y-12365641D01*
X38777152Y-12474356D01*
X38855354Y-12569646D01*
X38950644Y-12647848D01*
X39059359Y-12705958D01*
X39177323Y-12741741D01*
X39300000Y-12753824D01*
X40100000Y-12753824D01*
X40222677Y-12741741D01*
X40340641Y-12705958D01*
X40449356Y-12647848D01*
X40544646Y-12569646D01*
X40622848Y-12474356D01*
X40675955Y-12375000D01*
X41511928Y-12375000D01*
X41524188Y-12499482D01*
X41560498Y-12619180D01*
X41619463Y-12729494D01*
X41698815Y-12826185D01*
X41795506Y-12905537D01*
X41905820Y-12964502D01*
X42025518Y-13000812D01*
X42150000Y-13013072D01*
X42514250Y-13010000D01*
X42673000Y-12851250D01*
X42673000Y-11627000D01*
X42927000Y-11627000D01*
X42927000Y-12851250D01*
X43085750Y-13010000D01*
X43450000Y-13013072D01*
X43574482Y-13000812D01*
X43694180Y-12964502D01*
X43804494Y-12905537D01*
X43901185Y-12826185D01*
X43980537Y-12729494D01*
X44039502Y-12619180D01*
X44075812Y-12499482D01*
X44088072Y-12375000D01*
X44085000Y-11785750D01*
X43926250Y-11627000D01*
X42927000Y-11627000D01*
X42673000Y-11627000D01*
X41673750Y-11627000D01*
X41515000Y-11785750D01*
X41511928Y-12375000D01*
X40675955Y-12375000D01*
X40680958Y-12365641D01*
X40716741Y-12247677D01*
X40728824Y-12125000D01*
X40728824Y-10875000D01*
X40716741Y-10752323D01*
X40680958Y-10634359D01*
X40675956Y-10625000D01*
X41511928Y-10625000D01*
X41515000Y-11214250D01*
X41673750Y-11373000D01*
X42673000Y-11373000D01*
X42673000Y-10148750D01*
X42927000Y-10148750D01*
X42927000Y-11373000D01*
X43926250Y-11373000D01*
X44085000Y-11214250D01*
X44088072Y-10625000D01*
X44075812Y-10500518D01*
X44039502Y-10380820D01*
X43980537Y-10270506D01*
X43901185Y-10173815D01*
X43804494Y-10094463D01*
X43694180Y-10035498D01*
X43574482Y-9999188D01*
X43450000Y-9986928D01*
X43085750Y-9990000D01*
X42927000Y-10148750D01*
X42673000Y-10148750D01*
X42514250Y-9990000D01*
X42150000Y-9986928D01*
X42025518Y-9999188D01*
X41905820Y-10035498D01*
X41795506Y-10094463D01*
X41698815Y-10173815D01*
X41619463Y-10270506D01*
X41560498Y-10380820D01*
X41524188Y-10500518D01*
X41511928Y-10625000D01*
X40675956Y-10625000D01*
X40622848Y-10525644D01*
X40544646Y-10430354D01*
X40449356Y-10352152D01*
X40340641Y-10294042D01*
X40222677Y-10258259D01*
X40100000Y-10246176D01*
X39300000Y-10246176D01*
X39177323Y-10258259D01*
X39059359Y-10294042D01*
X38950644Y-10352152D01*
X38855354Y-10430354D01*
X38777152Y-10525644D01*
X38719042Y-10634359D01*
X38684570Y-10748000D01*
X38565430Y-10748000D01*
X38530958Y-10634359D01*
X38472848Y-10525644D01*
X38394646Y-10430354D01*
X38299356Y-10352152D01*
X38190641Y-10294042D01*
X38072677Y-10258259D01*
X37950000Y-10246176D01*
X37025000Y-10246176D01*
X36902323Y-10258259D01*
X36784359Y-10294042D01*
X36675644Y-10352152D01*
X36580354Y-10430354D01*
X36502152Y-10525644D01*
X36444042Y-10634359D01*
X36408259Y-10752323D01*
X36396176Y-10875000D01*
X36396176Y-12125000D01*
X36408259Y-12247677D01*
X36444042Y-12365641D01*
X36457823Y-12391423D01*
X36448815Y-12398815D01*
X36369463Y-12495506D01*
X36310498Y-12605820D01*
X36274188Y-12725518D01*
X36261928Y-12850000D01*
X35877000Y-12850000D01*
X35877000Y-10250000D01*
X35869756Y-10176451D01*
X35848303Y-10105728D01*
X35813464Y-10040550D01*
X35766579Y-9983421D01*
X35266579Y-9483421D01*
X35209450Y-9436536D01*
X35144272Y-9401697D01*
X35073549Y-9380244D01*
X35000000Y-9373000D01*
X31863662Y-9373000D01*
X31880958Y-9340641D01*
X31916741Y-9222677D01*
X31928824Y-9100000D01*
X31928824Y-8927000D01*
X36071176Y-8927000D01*
X36071176Y-9100000D01*
X36083259Y-9222677D01*
X36119042Y-9340641D01*
X36177152Y-9449356D01*
X36255354Y-9544646D01*
X36350644Y-9622848D01*
X36459359Y-9680958D01*
X36577323Y-9716741D01*
X36700000Y-9728824D01*
X37800000Y-9728824D01*
X37922677Y-9716741D01*
X38040641Y-9680958D01*
X38149356Y-9622848D01*
X38244646Y-9544646D01*
X38322848Y-9449356D01*
X38380958Y-9340641D01*
X38416741Y-9222677D01*
X38428824Y-9100000D01*
X38428824Y-7000000D01*
X38416741Y-6877323D01*
X38380958Y-6759359D01*
X38322848Y-6650644D01*
X38244646Y-6555354D01*
X38149356Y-6477152D01*
X38040641Y-6419042D01*
X37936305Y-6387393D01*
X38050000Y-6388072D01*
X38174482Y-6375812D01*
X38294180Y-6339502D01*
X38404494Y-6280537D01*
X38501185Y-6201185D01*
X38580537Y-6104494D01*
X38639502Y-5994180D01*
X38675812Y-5874482D01*
X38688072Y-5750000D01*
X38685000Y-4735750D01*
X38526250Y-4577000D01*
X37377000Y-4577000D01*
X37377000Y-4597000D01*
X37123000Y-4597000D01*
X37123000Y-4577000D01*
X35973750Y-4577000D01*
X35815000Y-4735750D01*
X35811928Y-5750000D01*
X35824188Y-5874482D01*
X35860498Y-5994180D01*
X35919463Y-6104494D01*
X35998815Y-6201185D01*
X36095506Y-6280537D01*
X36205820Y-6339502D01*
X36325518Y-6375812D01*
X36450000Y-6388072D01*
X36563695Y-6387393D01*
X36459359Y-6419042D01*
X36350644Y-6477152D01*
X36255354Y-6555354D01*
X36177152Y-6650644D01*
X36119042Y-6759359D01*
X36083259Y-6877323D01*
X36071176Y-7000000D01*
X36071176Y-7173000D01*
X31928824Y-7173000D01*
X31928824Y-7000000D01*
X31916741Y-6877323D01*
X31880958Y-6759359D01*
X31822848Y-6650644D01*
X31744646Y-6555354D01*
X31649356Y-6477152D01*
X31540641Y-6419042D01*
X31436305Y-6387393D01*
X31550000Y-6388072D01*
X31674482Y-6375812D01*
X31794180Y-6339502D01*
X31904494Y-6280537D01*
X32001185Y-6201185D01*
X32080537Y-6104494D01*
X32139502Y-5994180D01*
X32175812Y-5874482D01*
X32188072Y-5750000D01*
X32185000Y-4735750D01*
X32026250Y-4577000D01*
X30877000Y-4577000D01*
X30877000Y-4597000D01*
X30623000Y-4597000D01*
X30623000Y-4577000D01*
X29473750Y-4577000D01*
X29315000Y-4735750D01*
X29311928Y-5750000D01*
X29324188Y-5874482D01*
X29360498Y-5994180D01*
X29419463Y-6104494D01*
X29498815Y-6201185D01*
X29595506Y-6280537D01*
X29705820Y-6339502D01*
X29825518Y-6375812D01*
X29950000Y-6388072D01*
X30063695Y-6387393D01*
X29959359Y-6419042D01*
X29850644Y-6477152D01*
X29755354Y-6555354D01*
X29677152Y-6650644D01*
X29619042Y-6759359D01*
X29583259Y-6877323D01*
X29571176Y-7000000D01*
X29571176Y-7298000D01*
X27236935Y-7298000D01*
X27200000Y-7294362D01*
X27163064Y-7298000D01*
X27163062Y-7298000D01*
X27052582Y-7308881D01*
X26910830Y-7351882D01*
X26780190Y-7421710D01*
X26665683Y-7515683D01*
X26642133Y-7544379D01*
X24813512Y-9373000D01*
X23685260Y-9373000D01*
X23688569Y-9368048D01*
X23747141Y-9226643D01*
X23777000Y-9076528D01*
X23777000Y-8923472D01*
X23747141Y-8773357D01*
X23701264Y-8662600D01*
X23749702Y-8674192D01*
X24001652Y-8683907D01*
X24250658Y-8644283D01*
X24487148Y-8556842D01*
X24574566Y-8510116D01*
X24627346Y-8281951D01*
X23925000Y-7579605D01*
X23910858Y-7593748D01*
X23731253Y-7414143D01*
X23745395Y-7400000D01*
X24104605Y-7400000D01*
X24806951Y-8102346D01*
X25035116Y-8049566D01*
X25140509Y-7820512D01*
X25199192Y-7575298D01*
X25208907Y-7323348D01*
X25169283Y-7074342D01*
X25081842Y-6837852D01*
X25035116Y-6750434D01*
X24806951Y-6697654D01*
X24104605Y-7400000D01*
X23745395Y-7400000D01*
X23731253Y-7385858D01*
X23910858Y-7206253D01*
X23925000Y-7220395D01*
X24627346Y-6518049D01*
X24574566Y-6289884D01*
X24345512Y-6184491D01*
X24105279Y-6127000D01*
X27250000Y-6127000D01*
X27274776Y-6124560D01*
X27298601Y-6117333D01*
X27320557Y-6105597D01*
X27339803Y-6089803D01*
X27355597Y-6070557D01*
X27367333Y-6048601D01*
X27374560Y-6024776D01*
X27377000Y-6000000D01*
X27377000Y-3150000D01*
X29311928Y-3150000D01*
X29315000Y-4164250D01*
X29473750Y-4323000D01*
X30623000Y-4323000D01*
X30623000Y-2673750D01*
X30877000Y-2673750D01*
X30877000Y-4323000D01*
X32026250Y-4323000D01*
X32185000Y-4164250D01*
X32188072Y-3150000D01*
X35811928Y-3150000D01*
X35815000Y-4164250D01*
X35973750Y-4323000D01*
X37123000Y-4323000D01*
X37123000Y-2673750D01*
X37377000Y-2673750D01*
X37377000Y-4323000D01*
X38526250Y-4323000D01*
X38685000Y-4164250D01*
X38688072Y-3150000D01*
X42311928Y-3150000D01*
X42315000Y-4164250D01*
X42473750Y-4323000D01*
X43623000Y-4323000D01*
X43623000Y-2673750D01*
X43877000Y-2673750D01*
X43877000Y-4323000D01*
X45026250Y-4323000D01*
X45185000Y-4164250D01*
X45188072Y-3150000D01*
X48811928Y-3150000D01*
X48815000Y-4164250D01*
X48973750Y-4323000D01*
X50123000Y-4323000D01*
X50123000Y-2673750D01*
X50377000Y-2673750D01*
X50377000Y-4323000D01*
X51526250Y-4323000D01*
X51685000Y-4164250D01*
X51688072Y-3150000D01*
X51675812Y-3025518D01*
X51639502Y-2905820D01*
X51580537Y-2795506D01*
X51501185Y-2698815D01*
X51404494Y-2619463D01*
X51294180Y-2560498D01*
X51174482Y-2524188D01*
X51050000Y-2511928D01*
X50535750Y-2515000D01*
X50377000Y-2673750D01*
X50123000Y-2673750D01*
X49964250Y-2515000D01*
X49450000Y-2511928D01*
X49325518Y-2524188D01*
X49205820Y-2560498D01*
X49095506Y-2619463D01*
X48998815Y-2698815D01*
X48919463Y-2795506D01*
X48860498Y-2905820D01*
X48824188Y-3025518D01*
X48811928Y-3150000D01*
X45188072Y-3150000D01*
X45175812Y-3025518D01*
X45139502Y-2905820D01*
X45080537Y-2795506D01*
X45001185Y-2698815D01*
X44904494Y-2619463D01*
X44794180Y-2560498D01*
X44674482Y-2524188D01*
X44550000Y-2511928D01*
X44035750Y-2515000D01*
X43877000Y-2673750D01*
X43623000Y-2673750D01*
X43464250Y-2515000D01*
X42950000Y-2511928D01*
X42825518Y-2524188D01*
X42705820Y-2560498D01*
X42595506Y-2619463D01*
X42498815Y-2698815D01*
X42419463Y-2795506D01*
X42360498Y-2905820D01*
X42324188Y-3025518D01*
X42311928Y-3150000D01*
X38688072Y-3150000D01*
X38675812Y-3025518D01*
X38639502Y-2905820D01*
X38580537Y-2795506D01*
X38501185Y-2698815D01*
X38404494Y-2619463D01*
X38294180Y-2560498D01*
X38174482Y-2524188D01*
X38050000Y-2511928D01*
X37535750Y-2515000D01*
X37377000Y-2673750D01*
X37123000Y-2673750D01*
X36964250Y-2515000D01*
X36450000Y-2511928D01*
X36325518Y-2524188D01*
X36205820Y-2560498D01*
X36095506Y-2619463D01*
X35998815Y-2698815D01*
X35919463Y-2795506D01*
X35860498Y-2905820D01*
X35824188Y-3025518D01*
X35811928Y-3150000D01*
X32188072Y-3150000D01*
X32175812Y-3025518D01*
X32139502Y-2905820D01*
X32080537Y-2795506D01*
X32001185Y-2698815D01*
X31904494Y-2619463D01*
X31794180Y-2560498D01*
X31674482Y-2524188D01*
X31550000Y-2511928D01*
X31035750Y-2515000D01*
X30877000Y-2673750D01*
X30623000Y-2673750D01*
X30464250Y-2515000D01*
X29950000Y-2511928D01*
X29825518Y-2524188D01*
X29705820Y-2560498D01*
X29595506Y-2619463D01*
X29498815Y-2698815D01*
X29419463Y-2795506D01*
X29360498Y-2905820D01*
X29324188Y-3025518D01*
X29311928Y-3150000D01*
X27377000Y-3150000D01*
X27377000Y-2750000D01*
X27374560Y-2725224D01*
X27367333Y-2701399D01*
X27355597Y-2679443D01*
X27339803Y-2660197D01*
X27320557Y-2644403D01*
X27298601Y-2632667D01*
X27274776Y-2625440D01*
X27250000Y-2623000D01*
X15750000Y-2623000D01*
X15725224Y-2625440D01*
X15701399Y-2632667D01*
X15679443Y-2644403D01*
X15660197Y-2660197D01*
X15644403Y-2679443D01*
X15632667Y-2701399D01*
X15625440Y-2725224D01*
X15623000Y-2750000D01*
X15623000Y-6000000D01*
X15625440Y-6024776D01*
X15632667Y-6048601D01*
X15644403Y-6070557D01*
X15660197Y-6089803D01*
X15679443Y-6105597D01*
X15701399Y-6117333D01*
X15725224Y-6124560D01*
X15750000Y-6127000D01*
X18929806Y-6127000D01*
X18749342Y-6155717D01*
X18512852Y-6243158D01*
X18425434Y-6289884D01*
X18372654Y-6518049D01*
X19075000Y-7220395D01*
X19089143Y-7206253D01*
X19268748Y-7385858D01*
X19254605Y-7400000D01*
X19268748Y-7414143D01*
X19089143Y-7593748D01*
X19075000Y-7579605D01*
X18372654Y-8281951D01*
X18425434Y-8510116D01*
X18654488Y-8615509D01*
X18899702Y-8674192D01*
X19151652Y-8683907D01*
X19400658Y-8644283D01*
X19614731Y-8565131D01*
X19695927Y-8610306D01*
X19814997Y-8648626D01*
X19918250Y-8660000D01*
X20077000Y-8501250D01*
X20077000Y-8074576D01*
X20185116Y-8049566D01*
X20223000Y-7967231D01*
X20223000Y-8501250D01*
X20381750Y-8660000D01*
X20485003Y-8648626D01*
X20604073Y-8610306D01*
X20713378Y-8549492D01*
X20808720Y-8468523D01*
X20860018Y-8403824D01*
X21050000Y-8403824D01*
X21123905Y-8396545D01*
X21175000Y-8381046D01*
X21226095Y-8396545D01*
X21300000Y-8403824D01*
X21700000Y-8403824D01*
X21773905Y-8396545D01*
X21825000Y-8381046D01*
X21876095Y-8396545D01*
X21950000Y-8403824D01*
X22248001Y-8403824D01*
X22248001Y-8469514D01*
X22245372Y-8493238D01*
X22248001Y-8523741D01*
X22248001Y-8527109D01*
X22250325Y-8550706D01*
X22254709Y-8601569D01*
X22255657Y-8604835D01*
X22255989Y-8608211D01*
X22270775Y-8656953D01*
X22277413Y-8679837D01*
X22278670Y-8682978D01*
X22283584Y-8699180D01*
X22252859Y-8773357D01*
X22223000Y-8923472D01*
X22223000Y-9076528D01*
X22252859Y-9226643D01*
X22311431Y-9368048D01*
X22314740Y-9373000D01*
X19000000Y-9373000D01*
X18926451Y-9380244D01*
X18855728Y-9401697D01*
X18790550Y-9436536D01*
X18733421Y-9483421D01*
X18233421Y-9983421D01*
X18186536Y-10040550D01*
X18151697Y-10105728D01*
X18130244Y-10176451D01*
X18123000Y-10250000D01*
X18123000Y-15000000D01*
X18130244Y-15073549D01*
X18151697Y-15144272D01*
X18186536Y-15209450D01*
X18233421Y-15266579D01*
X18339842Y-15373000D01*
X15759712Y-15373000D01*
X15663835Y-15277124D01*
X15775000Y-15288072D01*
X16151750Y-15285000D01*
X16310500Y-15126250D01*
X16310500Y-13877000D01*
X16564500Y-13877000D01*
X16564500Y-15126250D01*
X16723250Y-15285000D01*
X17100000Y-15288072D01*
X17224482Y-15275812D01*
X17344180Y-15239502D01*
X17454494Y-15180537D01*
X17551185Y-15101185D01*
X17630537Y-15004494D01*
X17689502Y-14894180D01*
X17725812Y-14774482D01*
X17738072Y-14650000D01*
X17735000Y-14035750D01*
X17576250Y-13877000D01*
X16564500Y-13877000D01*
X16310500Y-13877000D01*
X15298750Y-13877000D01*
X15140000Y-14035750D01*
X15136928Y-14650000D01*
X15147876Y-14761165D01*
X14465138Y-14078427D01*
X14445501Y-14054499D01*
X14350028Y-13976147D01*
X14241103Y-13917925D01*
X14122913Y-13882073D01*
X14030794Y-13873000D01*
X14000000Y-13869967D01*
X13969206Y-13873000D01*
X12228824Y-13873000D01*
X12228824Y-13650000D01*
X12221545Y-13576095D01*
X12199988Y-13505030D01*
X12164981Y-13439537D01*
X12117869Y-13382131D01*
X12060463Y-13335019D01*
X11994970Y-13300012D01*
X11923905Y-13278455D01*
X11850000Y-13271176D01*
X10150000Y-13271176D01*
X10076095Y-13278455D01*
X10005030Y-13300012D01*
X9939537Y-13335019D01*
X9882131Y-13382131D01*
X9835019Y-13439537D01*
X9800012Y-13505030D01*
X9778455Y-13576095D01*
X9771176Y-13650000D01*
X9771176Y-15169769D01*
X9573936Y-15130321D01*
X9500000Y-15123000D01*
X8156158Y-15123000D01*
X7127000Y-14093842D01*
X7127000Y-13750000D01*
X7119756Y-13676451D01*
X7098303Y-13605728D01*
X7063464Y-13540550D01*
X7016579Y-13483421D01*
X6766579Y-13233421D01*
X6709450Y-13186536D01*
X6644272Y-13151697D01*
X6573549Y-13130244D01*
X6500000Y-13123000D01*
X1750000Y-13123000D01*
X1676451Y-13130244D01*
X1605728Y-13151697D01*
X1540550Y-13186536D01*
X1483421Y-13233421D01*
X1233421Y-13483421D01*
X1186536Y-13540550D01*
X1151697Y-13605728D01*
X1130244Y-13676451D01*
X1123000Y-13750000D01*
X402000Y-13750000D01*
X402000Y-12375000D01*
X9911928Y-12375000D01*
X9924188Y-12499482D01*
X9960498Y-12619180D01*
X10019463Y-12729494D01*
X10098815Y-12826185D01*
X10195506Y-12905537D01*
X10305820Y-12964502D01*
X10425518Y-13000812D01*
X10550000Y-13013072D01*
X10914250Y-13010000D01*
X11073000Y-12851250D01*
X11073000Y-11627000D01*
X11327000Y-11627000D01*
X11327000Y-12851250D01*
X11485750Y-13010000D01*
X11850000Y-13013072D01*
X11974482Y-13000812D01*
X12094180Y-12964502D01*
X12204494Y-12905537D01*
X12301185Y-12826185D01*
X12380537Y-12729494D01*
X12439502Y-12619180D01*
X12475812Y-12499482D01*
X12488072Y-12375000D01*
X12485000Y-11785750D01*
X12326250Y-11627000D01*
X11327000Y-11627000D01*
X11073000Y-11627000D01*
X10073750Y-11627000D01*
X9915000Y-11785750D01*
X9911928Y-12375000D01*
X402000Y-12375000D01*
X402000Y-10625000D01*
X9911928Y-10625000D01*
X9915000Y-11214250D01*
X10073750Y-11373000D01*
X11073000Y-11373000D01*
X11073000Y-10148750D01*
X11327000Y-10148750D01*
X11327000Y-11373000D01*
X12326250Y-11373000D01*
X12485000Y-11214250D01*
X12488072Y-10625000D01*
X12475812Y-10500518D01*
X12439502Y-10380820D01*
X12380537Y-10270506D01*
X12301185Y-10173815D01*
X12204494Y-10094463D01*
X12094180Y-10035498D01*
X11974482Y-9999188D01*
X11850000Y-9986928D01*
X11485750Y-9990000D01*
X11327000Y-10148750D01*
X11073000Y-10148750D01*
X10914250Y-9990000D01*
X10550000Y-9986928D01*
X10425518Y-9999188D01*
X10305820Y-10035498D01*
X10195506Y-10094463D01*
X10098815Y-10173815D01*
X10019463Y-10270506D01*
X9960498Y-10380820D01*
X9924188Y-10500518D01*
X9911928Y-10625000D01*
X402000Y-10625000D01*
X402000Y-9384838D01*
X2889767Y-9384838D01*
X3027724Y-9685044D01*
X3376967Y-9860882D01*
X3753804Y-9965207D01*
X4143753Y-9994009D01*
X4531828Y-9946184D01*
X4903116Y-9823568D01*
X5162276Y-9685044D01*
X5300233Y-9384838D01*
X4095000Y-8179605D01*
X2889767Y-9384838D01*
X402000Y-9384838D01*
X402000Y-8048753D01*
X2100991Y-8048753D01*
X2148816Y-8436828D01*
X2271432Y-8808116D01*
X2409956Y-9067276D01*
X2710162Y-9205233D01*
X3915395Y-8000000D01*
X4274605Y-8000000D01*
X5479838Y-9205233D01*
X5780044Y-9067276D01*
X5955882Y-8718033D01*
X6060207Y-8341196D01*
X6089009Y-7951247D01*
X6074056Y-7829905D01*
X6178000Y-7829905D01*
X6178000Y-8170095D01*
X6244368Y-8503747D01*
X6374553Y-8818041D01*
X6563552Y-9100898D01*
X6804102Y-9341448D01*
X7086959Y-9530447D01*
X7401253Y-9660632D01*
X7734905Y-9727000D01*
X8075095Y-9727000D01*
X8408747Y-9660632D01*
X8723041Y-9530447D01*
X9005898Y-9341448D01*
X9246448Y-9100898D01*
X9435447Y-8818041D01*
X9565632Y-8503747D01*
X9632000Y-8170095D01*
X9632000Y-7829905D01*
X9566378Y-7500000D01*
X12571176Y-7500000D01*
X12571176Y-10000000D01*
X12578455Y-10073905D01*
X12600012Y-10144970D01*
X12635019Y-10210463D01*
X12682131Y-10267869D01*
X12739537Y-10314981D01*
X12805030Y-10349988D01*
X12876095Y-10371545D01*
X12950000Y-10378824D01*
X13518144Y-10378824D01*
X13455354Y-10430354D01*
X13377152Y-10525644D01*
X13319042Y-10634359D01*
X13283259Y-10752323D01*
X13271176Y-10875000D01*
X13271176Y-12125000D01*
X13283259Y-12247677D01*
X13319042Y-12365641D01*
X13377152Y-12474356D01*
X13455354Y-12569646D01*
X13550644Y-12647848D01*
X13659359Y-12705958D01*
X13777323Y-12741741D01*
X13900000Y-12753824D01*
X14700000Y-12753824D01*
X14822677Y-12741741D01*
X14940641Y-12705958D01*
X15049356Y-12647848D01*
X15144646Y-12569646D01*
X15222848Y-12474356D01*
X15280958Y-12365641D01*
X15315430Y-12252000D01*
X15434570Y-12252000D01*
X15450217Y-12303582D01*
X15420506Y-12319463D01*
X15323815Y-12398815D01*
X15244463Y-12495506D01*
X15185498Y-12605820D01*
X15149188Y-12725518D01*
X15136928Y-12850000D01*
X15140000Y-13464250D01*
X15298750Y-13623000D01*
X16310500Y-13623000D01*
X16310500Y-13603000D01*
X16564500Y-13603000D01*
X16564500Y-13623000D01*
X17576250Y-13623000D01*
X17735000Y-13464250D01*
X17738072Y-12850000D01*
X17725812Y-12725518D01*
X17689502Y-12605820D01*
X17630537Y-12495506D01*
X17551185Y-12398815D01*
X17542177Y-12391423D01*
X17555958Y-12365641D01*
X17591741Y-12247677D01*
X17603824Y-12125000D01*
X17603824Y-10875000D01*
X17591741Y-10752323D01*
X17555958Y-10634359D01*
X17497848Y-10525644D01*
X17419646Y-10430354D01*
X17324356Y-10352152D01*
X17215641Y-10294042D01*
X17097677Y-10258259D01*
X16975000Y-10246176D01*
X16228973Y-10246176D01*
X16368048Y-10188569D01*
X16495309Y-10103536D01*
X16603536Y-9995309D01*
X16688569Y-9868048D01*
X16747141Y-9726643D01*
X16777000Y-9576528D01*
X16777000Y-9423472D01*
X16747141Y-9273357D01*
X16688569Y-9131952D01*
X16603536Y-9004691D01*
X16495309Y-8896464D01*
X16388757Y-8825268D01*
X15807867Y-8244379D01*
X15784317Y-8215683D01*
X15669810Y-8121710D01*
X15539170Y-8051882D01*
X15397418Y-8008881D01*
X15286938Y-7998000D01*
X15286935Y-7998000D01*
X15250000Y-7994362D01*
X15213065Y-7998000D01*
X15128824Y-7998000D01*
X15128824Y-7500000D01*
X15126525Y-7476652D01*
X17791093Y-7476652D01*
X17830717Y-7725658D01*
X17918158Y-7962148D01*
X17964884Y-8049566D01*
X18193049Y-8102346D01*
X18895395Y-7400000D01*
X18193049Y-6697654D01*
X17964884Y-6750434D01*
X17859491Y-6979488D01*
X17800808Y-7224702D01*
X17791093Y-7476652D01*
X15126525Y-7476652D01*
X15121545Y-7426095D01*
X15099988Y-7355030D01*
X15064981Y-7289537D01*
X15017869Y-7232131D01*
X14960463Y-7185019D01*
X14894970Y-7150012D01*
X14823905Y-7128455D01*
X14750000Y-7121176D01*
X12950000Y-7121176D01*
X12876095Y-7128455D01*
X12805030Y-7150012D01*
X12739537Y-7185019D01*
X12682131Y-7232131D01*
X12635019Y-7289537D01*
X12600012Y-7355030D01*
X12578455Y-7426095D01*
X12571176Y-7500000D01*
X9566378Y-7500000D01*
X9565632Y-7496253D01*
X9435447Y-7181959D01*
X9246448Y-6899102D01*
X9005898Y-6658552D01*
X8782000Y-6508948D01*
X8782000Y-5958265D01*
X9113265Y-5627000D01*
X12571176Y-5627000D01*
X12571176Y-6000000D01*
X12578455Y-6073905D01*
X12600012Y-6144970D01*
X12635019Y-6210463D01*
X12682131Y-6267869D01*
X12739537Y-6314981D01*
X12805030Y-6349988D01*
X12876095Y-6371545D01*
X12950000Y-6378824D01*
X14750000Y-6378824D01*
X14823905Y-6371545D01*
X14894970Y-6349988D01*
X14960463Y-6314981D01*
X15017869Y-6267869D01*
X15064981Y-6210463D01*
X15099988Y-6144970D01*
X15121545Y-6073905D01*
X15128824Y-6000000D01*
X15128824Y-3500000D01*
X15121545Y-3426095D01*
X15099988Y-3355030D01*
X15064981Y-3289537D01*
X15017869Y-3232131D01*
X14960463Y-3185019D01*
X14894970Y-3150012D01*
X14823905Y-3128455D01*
X14750000Y-3121176D01*
X12950000Y-3121176D01*
X12876095Y-3128455D01*
X12805030Y-3150012D01*
X12739537Y-3185019D01*
X12682131Y-3232131D01*
X12635019Y-3289537D01*
X12600012Y-3355030D01*
X12578455Y-3426095D01*
X12571176Y-3500000D01*
X12571176Y-3873000D01*
X8793069Y-3873000D01*
X8749999Y-3868758D01*
X8706930Y-3873000D01*
X8706921Y-3873000D01*
X8578078Y-3885690D01*
X8412763Y-3935838D01*
X8260408Y-4017273D01*
X8126867Y-4126867D01*
X8099403Y-4160332D01*
X7315327Y-4944408D01*
X7281868Y-4971867D01*
X7254409Y-5005326D01*
X7254406Y-5005329D01*
X7172274Y-5105408D01*
X7090838Y-5257764D01*
X7040690Y-5423078D01*
X7023757Y-5595000D01*
X7028001Y-5638089D01*
X7028001Y-6508948D01*
X6804102Y-6658552D01*
X6563552Y-6899102D01*
X6374553Y-7181959D01*
X6244368Y-7496253D01*
X6178000Y-7829905D01*
X6074056Y-7829905D01*
X6041184Y-7563172D01*
X5918568Y-7191884D01*
X5780044Y-6932724D01*
X5479838Y-6794767D01*
X4274605Y-8000000D01*
X3915395Y-8000000D01*
X2710162Y-6794767D01*
X2409956Y-6932724D01*
X2234118Y-7281967D01*
X2129793Y-7658804D01*
X2100991Y-8048753D01*
X402000Y-8048753D01*
X402000Y-6615162D01*
X2889767Y-6615162D01*
X4095000Y-7820395D01*
X5300233Y-6615162D01*
X5162276Y-6314956D01*
X4813033Y-6139118D01*
X4436196Y-6034793D01*
X4046247Y-6005991D01*
X3658172Y-6053816D01*
X3286884Y-6176432D01*
X3027724Y-6314956D01*
X2889767Y-6615162D01*
X402000Y-6615162D01*
X402000Y-2166513D01*
X2166514Y-402000D01*
X9833487Y-402000D01*
X11701779Y-2270293D01*
%TA.AperFunction,Conductor*%
D28*
G36*
X11701779Y-2270293D02*
G01*
X11714368Y-2285632D01*
X11775580Y-2335868D01*
X11845417Y-2373197D01*
X11921194Y-2396183D01*
X11980253Y-2402000D01*
X11980260Y-2402000D01*
X11999999Y-2403944D01*
X12019739Y-2402000D01*
X51833487Y-2402000D01*
X53598000Y-4166514D01*
X53598001Y-22833485D01*
X52833487Y-23598000D01*
X47166514Y-23598000D01*
X46298223Y-22729710D01*
X46285632Y-22714368D01*
X46224420Y-22664132D01*
X46154583Y-22626803D01*
X46078806Y-22603817D01*
X46019747Y-22598000D01*
X46019739Y-22598000D01*
X46000000Y-22596056D01*
X45980261Y-22598000D01*
X8019739Y-22598000D01*
X8000000Y-22596056D01*
X7980260Y-22598000D01*
X7980253Y-22598000D01*
X7921194Y-22603817D01*
X7845416Y-22626803D01*
X7775580Y-22664132D01*
X7714368Y-22714368D01*
X7701781Y-22729705D01*
X6833487Y-23598000D01*
X1166514Y-23598000D01*
X402000Y-22833487D01*
X402000Y-13750000D01*
X1123000Y-13750000D01*
X1123000Y-21250000D01*
X1130244Y-21323549D01*
X1151697Y-21394272D01*
X1186536Y-21459450D01*
X1233421Y-21516579D01*
X1483421Y-21766579D01*
X1540550Y-21813464D01*
X1605728Y-21848303D01*
X1676451Y-21869756D01*
X1750000Y-21877000D01*
X6500000Y-21877000D01*
X6573549Y-21869756D01*
X6644272Y-21848303D01*
X6709450Y-21813464D01*
X6766579Y-21766579D01*
X7016579Y-21516579D01*
X7063464Y-21459450D01*
X7098303Y-21394272D01*
X7119756Y-21323549D01*
X7127000Y-21250000D01*
X7127000Y-21150000D01*
X13636928Y-21150000D01*
X13649188Y-21274482D01*
X13685498Y-21394180D01*
X13744463Y-21504494D01*
X13823815Y-21601185D01*
X13920506Y-21680537D01*
X14030820Y-21739502D01*
X14150518Y-21775812D01*
X14275000Y-21788072D01*
X14651750Y-21785000D01*
X14810500Y-21626250D01*
X14810500Y-20377000D01*
X15064500Y-20377000D01*
X15064500Y-21626250D01*
X15223250Y-21785000D01*
X15600000Y-21788072D01*
X15724482Y-21775812D01*
X15844180Y-21739502D01*
X15954494Y-21680537D01*
X16051185Y-21601185D01*
X16130537Y-21504494D01*
X16189502Y-21394180D01*
X16225812Y-21274482D01*
X16238072Y-21150000D01*
X16235000Y-20535750D01*
X16076250Y-20377000D01*
X15064500Y-20377000D01*
X14810500Y-20377000D01*
X13798750Y-20377000D01*
X13640000Y-20535750D01*
X13636928Y-21150000D01*
X7127000Y-21150000D01*
X7127000Y-19656158D01*
X7906158Y-18877000D01*
X9500000Y-18877000D01*
X9573936Y-18869679D01*
X10075367Y-18769393D01*
X10046927Y-18797833D01*
X9912647Y-18998798D01*
X9820153Y-19222097D01*
X9773000Y-19459151D01*
X9773000Y-19700849D01*
X9820153Y-19937903D01*
X9912647Y-20161202D01*
X10046927Y-20362167D01*
X10217833Y-20533073D01*
X10418798Y-20667353D01*
X10642097Y-20759847D01*
X10879151Y-20807000D01*
X11120849Y-20807000D01*
X11357903Y-20759847D01*
X11581202Y-20667353D01*
X11782167Y-20533073D01*
X11953073Y-20362167D01*
X12087353Y-20161202D01*
X12179847Y-19937903D01*
X12227000Y-19700849D01*
X12227000Y-19459151D01*
X12205289Y-19350000D01*
X13636928Y-19350000D01*
X13640000Y-19964250D01*
X13798750Y-20123000D01*
X14810500Y-20123000D01*
X14810500Y-18873750D01*
X15064500Y-18873750D01*
X15064500Y-20123000D01*
X16076250Y-20123000D01*
X16235000Y-19964250D01*
X16238072Y-19350000D01*
X16225812Y-19225518D01*
X16189502Y-19105820D01*
X16130537Y-18995506D01*
X16051185Y-18898815D01*
X15954494Y-18819463D01*
X15844180Y-18760498D01*
X15724482Y-18724188D01*
X15600000Y-18711928D01*
X15223250Y-18715000D01*
X15064500Y-18873750D01*
X14810500Y-18873750D01*
X14651750Y-18715000D01*
X14275000Y-18711928D01*
X14150518Y-18724188D01*
X14030820Y-18760498D01*
X13920506Y-18819463D01*
X13823815Y-18898815D01*
X13744463Y-18995506D01*
X13685498Y-19105820D01*
X13649188Y-19225518D01*
X13636928Y-19350000D01*
X12205289Y-19350000D01*
X12179847Y-19222097D01*
X12087353Y-18998798D01*
X11953073Y-18797833D01*
X11782167Y-18626927D01*
X11581202Y-18492647D01*
X11541442Y-18476178D01*
X12073936Y-18369679D01*
X12127170Y-18354904D01*
X12193965Y-18323275D01*
X12253306Y-18279223D01*
X12302912Y-18224440D01*
X12340878Y-18161032D01*
X12365744Y-18091436D01*
X12474956Y-17654589D01*
X12586927Y-17822167D01*
X12757833Y-17993073D01*
X12958798Y-18127353D01*
X13182097Y-18219847D01*
X13419151Y-18267000D01*
X13660849Y-18267000D01*
X13897903Y-18219847D01*
X14121202Y-18127353D01*
X14322167Y-17993073D01*
X14493073Y-17822167D01*
X14513230Y-17792000D01*
X17310501Y-17792000D01*
X17310500Y-19071884D01*
X17300644Y-19077152D01*
X17205354Y-19155354D01*
X17127152Y-19250644D01*
X17069042Y-19359359D01*
X17033259Y-19477322D01*
X17021176Y-19599999D01*
X17021176Y-20900001D01*
X17033259Y-21022678D01*
X17069042Y-21140641D01*
X17127152Y-21249356D01*
X17205354Y-21344646D01*
X17300644Y-21422848D01*
X17409359Y-21480958D01*
X17527322Y-21516741D01*
X17649999Y-21528824D01*
X18475001Y-21528824D01*
X18597678Y-21516741D01*
X18715641Y-21480958D01*
X18824356Y-21422848D01*
X18919646Y-21344646D01*
X18997848Y-21249356D01*
X19050955Y-21150000D01*
X19311928Y-21150000D01*
X19324188Y-21274482D01*
X19360498Y-21394180D01*
X19419463Y-21504494D01*
X19498815Y-21601185D01*
X19595506Y-21680537D01*
X19705820Y-21739502D01*
X19825518Y-21775812D01*
X19950000Y-21788072D01*
X20414250Y-21785000D01*
X20573000Y-21626250D01*
X20573000Y-20277000D01*
X19473750Y-20277000D01*
X19315000Y-20435750D01*
X19311928Y-21150000D01*
X19050955Y-21150000D01*
X19055958Y-21140641D01*
X19091741Y-21022678D01*
X19103824Y-20900001D01*
X19103824Y-19599999D01*
X19091741Y-19477322D01*
X19055958Y-19359359D01*
X18997848Y-19250644D01*
X18919646Y-19155354D01*
X18913123Y-19150000D01*
X19311928Y-19150000D01*
X19315000Y-19864250D01*
X19473750Y-20023000D01*
X20573000Y-20023000D01*
X20573000Y-18673750D01*
X20414250Y-18515000D01*
X19950000Y-18511928D01*
X19825518Y-18524188D01*
X19705820Y-18560498D01*
X19595506Y-18619463D01*
X19498815Y-18698815D01*
X19419463Y-18795506D01*
X19360498Y-18905820D01*
X19324188Y-19025518D01*
X19311928Y-19150000D01*
X18913123Y-19150000D01*
X18824356Y-19077152D01*
X18814500Y-19071884D01*
X18814500Y-17792000D01*
X22252134Y-17792000D01*
X22223000Y-17938472D01*
X22223000Y-18091528D01*
X22248001Y-18217219D01*
X22248001Y-18771373D01*
X22176095Y-18778455D01*
X22105030Y-18800012D01*
X22039537Y-18835019D01*
X22013207Y-18856627D01*
X21980537Y-18795506D01*
X21901185Y-18698815D01*
X21804494Y-18619463D01*
X21694180Y-18560498D01*
X21574482Y-18524188D01*
X21450000Y-18511928D01*
X20985750Y-18515000D01*
X20827000Y-18673750D01*
X20827000Y-20023000D01*
X20847000Y-20023000D01*
X20847000Y-20277000D01*
X20827000Y-20277000D01*
X20827000Y-21626250D01*
X20985750Y-21785000D01*
X21450000Y-21788072D01*
X21574482Y-21775812D01*
X21694180Y-21739502D01*
X21804494Y-21680537D01*
X21901185Y-21601185D01*
X21980537Y-21504494D01*
X22013207Y-21443373D01*
X22039537Y-21464981D01*
X22105030Y-21499988D01*
X22176095Y-21521545D01*
X22250000Y-21528824D01*
X23750000Y-21528824D01*
X23823905Y-21521545D01*
X23894970Y-21499988D01*
X23960463Y-21464981D01*
X24017869Y-21417869D01*
X24064981Y-21360463D01*
X24099988Y-21294970D01*
X24121545Y-21223905D01*
X24128824Y-21150000D01*
X24128824Y-19150000D01*
X24121545Y-19076095D01*
X24099988Y-19005030D01*
X24064981Y-18939537D01*
X24017869Y-18882131D01*
X23960463Y-18835019D01*
X23894970Y-18800012D01*
X23823905Y-18778455D01*
X23752000Y-18771373D01*
X23752000Y-18217215D01*
X23777000Y-18091528D01*
X23777000Y-17938472D01*
X23747866Y-17792000D01*
X23978512Y-17792000D01*
X24548000Y-18361488D01*
X24548000Y-18771373D01*
X24476095Y-18778455D01*
X24405030Y-18800012D01*
X24339537Y-18835019D01*
X24282131Y-18882131D01*
X24235019Y-18939537D01*
X24200012Y-19005030D01*
X24178455Y-19076095D01*
X24171176Y-19150000D01*
X24171176Y-21150000D01*
X24178455Y-21223905D01*
X24200012Y-21294970D01*
X24235019Y-21360463D01*
X24282131Y-21417869D01*
X24339537Y-21464981D01*
X24405030Y-21499988D01*
X24476095Y-21521545D01*
X24550000Y-21528824D01*
X26050000Y-21528824D01*
X26123905Y-21521545D01*
X26194970Y-21499988D01*
X26260463Y-21464981D01*
X26317869Y-21417869D01*
X26364981Y-21360463D01*
X26399988Y-21294970D01*
X26421545Y-21223905D01*
X26428824Y-21150000D01*
X27311928Y-21150000D01*
X27324188Y-21274482D01*
X27360498Y-21394180D01*
X27419463Y-21504494D01*
X27498815Y-21601185D01*
X27595506Y-21680537D01*
X27705820Y-21739502D01*
X27825518Y-21775812D01*
X27950000Y-21788072D01*
X28414250Y-21785000D01*
X28573000Y-21626250D01*
X28573000Y-20277000D01*
X27473750Y-20277000D01*
X27315000Y-20435750D01*
X27311928Y-21150000D01*
X26428824Y-21150000D01*
X26428824Y-19150000D01*
X27311928Y-19150000D01*
X27315000Y-19864250D01*
X27473750Y-20023000D01*
X28573000Y-20023000D01*
X28573000Y-18673750D01*
X28414250Y-18515000D01*
X27950000Y-18511928D01*
X27825518Y-18524188D01*
X27705820Y-18560498D01*
X27595506Y-18619463D01*
X27498815Y-18698815D01*
X27419463Y-18795506D01*
X27360498Y-18905820D01*
X27324188Y-19025518D01*
X27311928Y-19150000D01*
X26428824Y-19150000D01*
X26421545Y-19076095D01*
X26399988Y-19005030D01*
X26364981Y-18939537D01*
X26317869Y-18882131D01*
X26260463Y-18835019D01*
X26194970Y-18800012D01*
X26123905Y-18778455D01*
X26052000Y-18771373D01*
X26052000Y-18086935D01*
X26055638Y-18050000D01*
X26052000Y-18013062D01*
X26041119Y-17902582D01*
X25998118Y-17760830D01*
X25928290Y-17630190D01*
X25834317Y-17515683D01*
X25805622Y-17492134D01*
X24964733Y-16651245D01*
X24948533Y-16627000D01*
X26740289Y-16627000D01*
X28034866Y-17921578D01*
X28054499Y-17945501D01*
X28149972Y-18023853D01*
X28258897Y-18082075D01*
X28377087Y-18117927D01*
X28469206Y-18127000D01*
X28469207Y-18127000D01*
X28499999Y-18130033D01*
X28530791Y-18127000D01*
X30373001Y-18127000D01*
X30373001Y-18771176D01*
X30250000Y-18771176D01*
X30176095Y-18778455D01*
X30105030Y-18800012D01*
X30039537Y-18835019D01*
X30013207Y-18856627D01*
X29980537Y-18795506D01*
X29901185Y-18698815D01*
X29804494Y-18619463D01*
X29694180Y-18560498D01*
X29574482Y-18524188D01*
X29450000Y-18511928D01*
X28985750Y-18515000D01*
X28827000Y-18673750D01*
X28827000Y-20023000D01*
X28847000Y-20023000D01*
X28847000Y-20277000D01*
X28827000Y-20277000D01*
X28827000Y-21626250D01*
X28985750Y-21785000D01*
X29450000Y-21788072D01*
X29574482Y-21775812D01*
X29694180Y-21739502D01*
X29804494Y-21680537D01*
X29901185Y-21601185D01*
X29980537Y-21504494D01*
X30013207Y-21443373D01*
X30039537Y-21464981D01*
X30105030Y-21499988D01*
X30176095Y-21521545D01*
X30250000Y-21528824D01*
X31750000Y-21528824D01*
X31823905Y-21521545D01*
X31894970Y-21499988D01*
X31960463Y-21464981D01*
X32017869Y-21417869D01*
X32064981Y-21360463D01*
X32099988Y-21294970D01*
X32121545Y-21223905D01*
X32128824Y-21150000D01*
X32128824Y-19150000D01*
X32171176Y-19150000D01*
X32171176Y-21150000D01*
X32178455Y-21223905D01*
X32200012Y-21294970D01*
X32235019Y-21360463D01*
X32282131Y-21417869D01*
X32339537Y-21464981D01*
X32405030Y-21499988D01*
X32476095Y-21521545D01*
X32550000Y-21528824D01*
X34050000Y-21528824D01*
X34123905Y-21521545D01*
X34194970Y-21499988D01*
X34260463Y-21464981D01*
X34317869Y-21417869D01*
X34364981Y-21360463D01*
X34399988Y-21294970D01*
X34421545Y-21223905D01*
X34428824Y-21150000D01*
X34428824Y-19150000D01*
X34421545Y-19076095D01*
X34399988Y-19005030D01*
X34364981Y-18939537D01*
X34317869Y-18882131D01*
X34260463Y-18835019D01*
X34194970Y-18800012D01*
X34123905Y-18778455D01*
X34052000Y-18771373D01*
X34052000Y-18011488D01*
X34351489Y-17712000D01*
X35185501Y-17712000D01*
X35185500Y-19071884D01*
X35175644Y-19077152D01*
X35080354Y-19155354D01*
X35002152Y-19250644D01*
X34944042Y-19359359D01*
X34908259Y-19477322D01*
X34896176Y-19599999D01*
X34896176Y-20900001D01*
X34908259Y-21022678D01*
X34944042Y-21140641D01*
X35002152Y-21249356D01*
X35080354Y-21344646D01*
X35175644Y-21422848D01*
X35284359Y-21480958D01*
X35402322Y-21516741D01*
X35524999Y-21528824D01*
X36350001Y-21528824D01*
X36472678Y-21516741D01*
X36590641Y-21480958D01*
X36699356Y-21422848D01*
X36794646Y-21344646D01*
X36872848Y-21249356D01*
X36925955Y-21150000D01*
X37761928Y-21150000D01*
X37774188Y-21274482D01*
X37810498Y-21394180D01*
X37869463Y-21504494D01*
X37948815Y-21601185D01*
X38045506Y-21680537D01*
X38155820Y-21739502D01*
X38275518Y-21775812D01*
X38400000Y-21788072D01*
X38776750Y-21785000D01*
X38935500Y-21626250D01*
X38935500Y-20377000D01*
X39189500Y-20377000D01*
X39189500Y-21626250D01*
X39348250Y-21785000D01*
X39725000Y-21788072D01*
X39849482Y-21775812D01*
X39969180Y-21739502D01*
X40079494Y-21680537D01*
X40176185Y-21601185D01*
X40255537Y-21504494D01*
X40314502Y-21394180D01*
X40350812Y-21274482D01*
X40363072Y-21150000D01*
X40360000Y-20535750D01*
X40201250Y-20377000D01*
X39189500Y-20377000D01*
X38935500Y-20377000D01*
X37923750Y-20377000D01*
X37765000Y-20535750D01*
X37761928Y-21150000D01*
X36925955Y-21150000D01*
X36930958Y-21140641D01*
X36966741Y-21022678D01*
X36978824Y-20900001D01*
X36978824Y-19599999D01*
X36966741Y-19477322D01*
X36930958Y-19359359D01*
X36925956Y-19350000D01*
X37761928Y-19350000D01*
X37765000Y-19964250D01*
X37923750Y-20123000D01*
X38935500Y-20123000D01*
X38935500Y-18873750D01*
X39189500Y-18873750D01*
X39189500Y-20123000D01*
X40201250Y-20123000D01*
X40360000Y-19964250D01*
X40363072Y-19350000D01*
X40350812Y-19225518D01*
X40314502Y-19105820D01*
X40255537Y-18995506D01*
X40176185Y-18898815D01*
X40079494Y-18819463D01*
X39969180Y-18760498D01*
X39849482Y-18724188D01*
X39725000Y-18711928D01*
X39348250Y-18715000D01*
X39189500Y-18873750D01*
X38935500Y-18873750D01*
X38776750Y-18715000D01*
X38400000Y-18711928D01*
X38275518Y-18724188D01*
X38155820Y-18760498D01*
X38045506Y-18819463D01*
X37948815Y-18898815D01*
X37869463Y-18995506D01*
X37810498Y-19105820D01*
X37774188Y-19225518D01*
X37761928Y-19350000D01*
X36925956Y-19350000D01*
X36872848Y-19250644D01*
X36794646Y-19155354D01*
X36699356Y-19077152D01*
X36689500Y-19071884D01*
X36689500Y-17712000D01*
X39486770Y-17712000D01*
X39506927Y-17742167D01*
X39677833Y-17913073D01*
X39878798Y-18047353D01*
X40102097Y-18139847D01*
X40339151Y-18187000D01*
X40580849Y-18187000D01*
X40817903Y-18139847D01*
X41041202Y-18047353D01*
X41242167Y-17913073D01*
X41413073Y-17742167D01*
X41510490Y-17596372D01*
X41634256Y-18091436D01*
X41651547Y-18143907D01*
X41686317Y-18209122D01*
X41733142Y-18266300D01*
X41790222Y-18313245D01*
X41855364Y-18348151D01*
X41905087Y-18363292D01*
X41882131Y-18382131D01*
X41835019Y-18439537D01*
X41800012Y-18505030D01*
X41778455Y-18576095D01*
X41771176Y-18650000D01*
X41771176Y-20350000D01*
X41778455Y-20423905D01*
X41800012Y-20494970D01*
X41835019Y-20560463D01*
X41882131Y-20617869D01*
X41939537Y-20664981D01*
X42005030Y-20699988D01*
X42076095Y-20721545D01*
X42150000Y-20728824D01*
X43850000Y-20728824D01*
X43923905Y-20721545D01*
X43994970Y-20699988D01*
X44060463Y-20664981D01*
X44117869Y-20617869D01*
X44164981Y-20560463D01*
X44199988Y-20494970D01*
X44221545Y-20423905D01*
X44228824Y-20350000D01*
X44228824Y-18830231D01*
X44426064Y-18869679D01*
X44500000Y-18877000D01*
X46093842Y-18877000D01*
X46873000Y-19656158D01*
X46873000Y-21250000D01*
X46880244Y-21323549D01*
X46901697Y-21394272D01*
X46936536Y-21459450D01*
X46983421Y-21516579D01*
X47233421Y-21766579D01*
X47290550Y-21813464D01*
X47355728Y-21848303D01*
X47426451Y-21869756D01*
X47500000Y-21877000D01*
X52250000Y-21877000D01*
X52323549Y-21869756D01*
X52394272Y-21848303D01*
X52459450Y-21813464D01*
X52516579Y-21766579D01*
X52766579Y-21516579D01*
X52813464Y-21459450D01*
X52848303Y-21394272D01*
X52869756Y-21323549D01*
X52877000Y-21250000D01*
X52877000Y-13750000D01*
X52869756Y-13676451D01*
X52848303Y-13605728D01*
X52813464Y-13540550D01*
X52766579Y-13483421D01*
X52516579Y-13233421D01*
X52459450Y-13186536D01*
X52394272Y-13151697D01*
X52323549Y-13130244D01*
X52250000Y-13123000D01*
X47500000Y-13123000D01*
X47426451Y-13130244D01*
X47355728Y-13151697D01*
X47290550Y-13186536D01*
X47233421Y-13233421D01*
X46983421Y-13483421D01*
X46936536Y-13540550D01*
X46901697Y-13605728D01*
X46880244Y-13676451D01*
X46873000Y-13750000D01*
X46873000Y-14093842D01*
X45843842Y-15123000D01*
X44853077Y-15123000D01*
X44869170Y-15118118D01*
X44999810Y-15048290D01*
X45114317Y-14954317D01*
X45137867Y-14925621D01*
X47555627Y-12507862D01*
X47584317Y-12484317D01*
X47607863Y-12455626D01*
X47678290Y-12369811D01*
X47748117Y-12239171D01*
X47748118Y-12239170D01*
X47791119Y-12097418D01*
X47802000Y-11986938D01*
X47802000Y-11986929D01*
X47805637Y-11950001D01*
X47802000Y-11913073D01*
X47802000Y-8927000D01*
X49071176Y-8927000D01*
X49071176Y-9100000D01*
X49083259Y-9222677D01*
X49119042Y-9340641D01*
X49177152Y-9449356D01*
X49255354Y-9544646D01*
X49350644Y-9622848D01*
X49459359Y-9680958D01*
X49577323Y-9716741D01*
X49700000Y-9728824D01*
X50800000Y-9728824D01*
X50922677Y-9716741D01*
X51040641Y-9680958D01*
X51149356Y-9622848D01*
X51244646Y-9544646D01*
X51322848Y-9449356D01*
X51380958Y-9340641D01*
X51416741Y-9222677D01*
X51428824Y-9100000D01*
X51428824Y-7000000D01*
X51416741Y-6877323D01*
X51380958Y-6759359D01*
X51322848Y-6650644D01*
X51244646Y-6555354D01*
X51149356Y-6477152D01*
X51040641Y-6419042D01*
X50936305Y-6387393D01*
X51050000Y-6388072D01*
X51174482Y-6375812D01*
X51294180Y-6339502D01*
X51404494Y-6280537D01*
X51501185Y-6201185D01*
X51580537Y-6104494D01*
X51639502Y-5994180D01*
X51675812Y-5874482D01*
X51688072Y-5750000D01*
X51685000Y-4735750D01*
X51526250Y-4577000D01*
X50377000Y-4577000D01*
X50377000Y-4597000D01*
X50123000Y-4597000D01*
X50123000Y-4577000D01*
X48973750Y-4577000D01*
X48815000Y-4735750D01*
X48811928Y-5750000D01*
X48824188Y-5874482D01*
X48860498Y-5994180D01*
X48919463Y-6104494D01*
X48998815Y-6201185D01*
X49095506Y-6280537D01*
X49205820Y-6339502D01*
X49325518Y-6375812D01*
X49450000Y-6388072D01*
X49563695Y-6387393D01*
X49459359Y-6419042D01*
X49350644Y-6477152D01*
X49255354Y-6555354D01*
X49177152Y-6650644D01*
X49119042Y-6759359D01*
X49083259Y-6877323D01*
X49071176Y-7000000D01*
X49071176Y-7173000D01*
X44928824Y-7173000D01*
X44928824Y-7000000D01*
X44916741Y-6877323D01*
X44880958Y-6759359D01*
X44822848Y-6650644D01*
X44744646Y-6555354D01*
X44649356Y-6477152D01*
X44540641Y-6419042D01*
X44436305Y-6387393D01*
X44550000Y-6388072D01*
X44674482Y-6375812D01*
X44794180Y-6339502D01*
X44904494Y-6280537D01*
X45001185Y-6201185D01*
X45080537Y-6104494D01*
X45139502Y-5994180D01*
X45175812Y-5874482D01*
X45188072Y-5750000D01*
X45185000Y-4735750D01*
X45026250Y-4577000D01*
X43877000Y-4577000D01*
X43877000Y-4597000D01*
X43623000Y-4597000D01*
X43623000Y-4577000D01*
X42473750Y-4577000D01*
X42315000Y-4735750D01*
X42311928Y-5750000D01*
X42324188Y-5874482D01*
X42360498Y-5994180D01*
X42419463Y-6104494D01*
X42498815Y-6201185D01*
X42595506Y-6280537D01*
X42705820Y-6339502D01*
X42825518Y-6375812D01*
X42950000Y-6388072D01*
X43063695Y-6387393D01*
X42959359Y-6419042D01*
X42850644Y-6477152D01*
X42755354Y-6555354D01*
X42677152Y-6650644D01*
X42619042Y-6759359D01*
X42583259Y-6877323D01*
X42571176Y-7000000D01*
X42571176Y-9100000D01*
X42583259Y-9222677D01*
X42619042Y-9340641D01*
X42677152Y-9449356D01*
X42755354Y-9544646D01*
X42850644Y-9622848D01*
X42959359Y-9680958D01*
X43077323Y-9716741D01*
X43200000Y-9728824D01*
X44300000Y-9728824D01*
X44422677Y-9716741D01*
X44540641Y-9680958D01*
X44649356Y-9622848D01*
X44744646Y-9544646D01*
X44822848Y-9449356D01*
X44880958Y-9340641D01*
X44916741Y-9222677D01*
X44928824Y-9100000D01*
X44928824Y-8927000D01*
X46298001Y-8927000D01*
X46298000Y-11638511D01*
X44268512Y-13668000D01*
X43973230Y-13668000D01*
X43953073Y-13637833D01*
X43782167Y-13466927D01*
X43581202Y-13332647D01*
X43357903Y-13240153D01*
X43120849Y-13193000D01*
X42879151Y-13193000D01*
X42642097Y-13240153D01*
X42418798Y-13332647D01*
X42217833Y-13466927D01*
X42046927Y-13637833D01*
X41912647Y-13838798D01*
X41820153Y-14062097D01*
X41773000Y-14299151D01*
X41773000Y-14540849D01*
X41820153Y-14777903D01*
X41912647Y-15001202D01*
X42046927Y-15202167D01*
X42217833Y-15373073D01*
X42418798Y-15507353D01*
X42458558Y-15523822D01*
X41926064Y-15630321D01*
X41872830Y-15645096D01*
X41806035Y-15676725D01*
X41746694Y-15720777D01*
X41697088Y-15775560D01*
X41659122Y-15838968D01*
X41634256Y-15908564D01*
X41525044Y-16345411D01*
X41413073Y-16177833D01*
X41242167Y-16006927D01*
X41041202Y-15872647D01*
X40817903Y-15780153D01*
X40580849Y-15733000D01*
X40339151Y-15733000D01*
X40102097Y-15780153D01*
X39878798Y-15872647D01*
X39677833Y-16006927D01*
X39506927Y-16177833D01*
X39486770Y-16208000D01*
X35826935Y-16208000D01*
X35790000Y-16204362D01*
X35753065Y-16208000D01*
X34242215Y-16208000D01*
X34116528Y-16183000D01*
X33963472Y-16183000D01*
X33813357Y-16212859D01*
X33671952Y-16271431D01*
X33544691Y-16356464D01*
X33436464Y-16464691D01*
X33365268Y-16571243D01*
X32794379Y-17142133D01*
X32765683Y-17165683D01*
X32729382Y-17209917D01*
X32671710Y-17280190D01*
X32619919Y-17377086D01*
X32601882Y-17410831D01*
X32558881Y-17552583D01*
X32548487Y-17658118D01*
X32544362Y-17700000D01*
X32548000Y-17736936D01*
X32548000Y-18771373D01*
X32476095Y-18778455D01*
X32405030Y-18800012D01*
X32339537Y-18835019D01*
X32282131Y-18882131D01*
X32235019Y-18939537D01*
X32200012Y-19005030D01*
X32178455Y-19076095D01*
X32171176Y-19150000D01*
X32128824Y-19150000D01*
X32121545Y-19076095D01*
X32099988Y-19005030D01*
X32064981Y-18939537D01*
X32017869Y-18882131D01*
X31960463Y-18835019D01*
X31894970Y-18800012D01*
X31823905Y-18778455D01*
X31750000Y-18771176D01*
X31627000Y-18771176D01*
X31627000Y-17960193D01*
X31688569Y-17868048D01*
X31747141Y-17726643D01*
X31777000Y-17576528D01*
X31777000Y-17423472D01*
X31747141Y-17273357D01*
X31688569Y-17131952D01*
X31627000Y-17039807D01*
X31627000Y-15877000D01*
X35000000Y-15877000D01*
X35073549Y-15869756D01*
X35144272Y-15848303D01*
X35209450Y-15813464D01*
X35266579Y-15766579D01*
X35766579Y-15266579D01*
X35813464Y-15209450D01*
X35848303Y-15144272D01*
X35869756Y-15073549D01*
X35877000Y-15000000D01*
X35877000Y-14650000D01*
X36261928Y-14650000D01*
X36274188Y-14774482D01*
X36310498Y-14894180D01*
X36369463Y-15004494D01*
X36448815Y-15101185D01*
X36545506Y-15180537D01*
X36655820Y-15239502D01*
X36775518Y-15275812D01*
X36900000Y-15288072D01*
X37276750Y-15285000D01*
X37435500Y-15126250D01*
X37435500Y-13877000D01*
X37689500Y-13877000D01*
X37689500Y-15126250D01*
X37848250Y-15285000D01*
X38225000Y-15288072D01*
X38349482Y-15275812D01*
X38469180Y-15239502D01*
X38579494Y-15180537D01*
X38676185Y-15101185D01*
X38755537Y-15004494D01*
X38814502Y-14894180D01*
X38850812Y-14774482D01*
X38863072Y-14650000D01*
X38860000Y-14035750D01*
X38701250Y-13877000D01*
X37689500Y-13877000D01*
X37435500Y-13877000D01*
X36423750Y-13877000D01*
X36265000Y-14035750D01*
X36261928Y-14650000D01*
X35877000Y-14650000D01*
X35877000Y-12850000D01*
X36261928Y-12850000D01*
X36265000Y-13464250D01*
X36423750Y-13623000D01*
X37435500Y-13623000D01*
X37435500Y-13603000D01*
X37689500Y-13603000D01*
X37689500Y-13623000D01*
X38701250Y-13623000D01*
X38860000Y-13464250D01*
X38863072Y-12850000D01*
X38850812Y-12725518D01*
X38814502Y-12605820D01*
X38755537Y-12495506D01*
X38676185Y-12398815D01*
X38579494Y-12319463D01*
X38549783Y-12303582D01*
X38565430Y-12252000D01*
X38684570Y-12252000D01*
X38719042Y-12365641D01*
X38777152Y-12474356D01*
X38855354Y-12569646D01*
X38950644Y-12647848D01*
X39059359Y-12705958D01*
X39177323Y-12741741D01*
X39300000Y-12753824D01*
X40100000Y-12753824D01*
X40222677Y-12741741D01*
X40340641Y-12705958D01*
X40449356Y-12647848D01*
X40544646Y-12569646D01*
X40622848Y-12474356D01*
X40675955Y-12375000D01*
X41511928Y-12375000D01*
X41524188Y-12499482D01*
X41560498Y-12619180D01*
X41619463Y-12729494D01*
X41698815Y-12826185D01*
X41795506Y-12905537D01*
X41905820Y-12964502D01*
X42025518Y-13000812D01*
X42150000Y-13013072D01*
X42514250Y-13010000D01*
X42673000Y-12851250D01*
X42673000Y-11627000D01*
X42927000Y-11627000D01*
X42927000Y-12851250D01*
X43085750Y-13010000D01*
X43450000Y-13013072D01*
X43574482Y-13000812D01*
X43694180Y-12964502D01*
X43804494Y-12905537D01*
X43901185Y-12826185D01*
X43980537Y-12729494D01*
X44039502Y-12619180D01*
X44075812Y-12499482D01*
X44088072Y-12375000D01*
X44085000Y-11785750D01*
X43926250Y-11627000D01*
X42927000Y-11627000D01*
X42673000Y-11627000D01*
X41673750Y-11627000D01*
X41515000Y-11785750D01*
X41511928Y-12375000D01*
X40675955Y-12375000D01*
X40680958Y-12365641D01*
X40716741Y-12247677D01*
X40728824Y-12125000D01*
X40728824Y-10875000D01*
X40716741Y-10752323D01*
X40680958Y-10634359D01*
X40675956Y-10625000D01*
X41511928Y-10625000D01*
X41515000Y-11214250D01*
X41673750Y-11373000D01*
X42673000Y-11373000D01*
X42673000Y-10148750D01*
X42927000Y-10148750D01*
X42927000Y-11373000D01*
X43926250Y-11373000D01*
X44085000Y-11214250D01*
X44088072Y-10625000D01*
X44075812Y-10500518D01*
X44039502Y-10380820D01*
X43980537Y-10270506D01*
X43901185Y-10173815D01*
X43804494Y-10094463D01*
X43694180Y-10035498D01*
X43574482Y-9999188D01*
X43450000Y-9986928D01*
X43085750Y-9990000D01*
X42927000Y-10148750D01*
X42673000Y-10148750D01*
X42514250Y-9990000D01*
X42150000Y-9986928D01*
X42025518Y-9999188D01*
X41905820Y-10035498D01*
X41795506Y-10094463D01*
X41698815Y-10173815D01*
X41619463Y-10270506D01*
X41560498Y-10380820D01*
X41524188Y-10500518D01*
X41511928Y-10625000D01*
X40675956Y-10625000D01*
X40622848Y-10525644D01*
X40544646Y-10430354D01*
X40449356Y-10352152D01*
X40340641Y-10294042D01*
X40222677Y-10258259D01*
X40100000Y-10246176D01*
X39300000Y-10246176D01*
X39177323Y-10258259D01*
X39059359Y-10294042D01*
X38950644Y-10352152D01*
X38855354Y-10430354D01*
X38777152Y-10525644D01*
X38719042Y-10634359D01*
X38684570Y-10748000D01*
X38565430Y-10748000D01*
X38530958Y-10634359D01*
X38472848Y-10525644D01*
X38394646Y-10430354D01*
X38299356Y-10352152D01*
X38190641Y-10294042D01*
X38072677Y-10258259D01*
X37950000Y-10246176D01*
X37025000Y-10246176D01*
X36902323Y-10258259D01*
X36784359Y-10294042D01*
X36675644Y-10352152D01*
X36580354Y-10430354D01*
X36502152Y-10525644D01*
X36444042Y-10634359D01*
X36408259Y-10752323D01*
X36396176Y-10875000D01*
X36396176Y-12125000D01*
X36408259Y-12247677D01*
X36444042Y-12365641D01*
X36457823Y-12391423D01*
X36448815Y-12398815D01*
X36369463Y-12495506D01*
X36310498Y-12605820D01*
X36274188Y-12725518D01*
X36261928Y-12850000D01*
X35877000Y-12850000D01*
X35877000Y-10250000D01*
X35869756Y-10176451D01*
X35848303Y-10105728D01*
X35813464Y-10040550D01*
X35766579Y-9983421D01*
X35266579Y-9483421D01*
X35209450Y-9436536D01*
X35144272Y-9401697D01*
X35073549Y-9380244D01*
X35000000Y-9373000D01*
X31863662Y-9373000D01*
X31880958Y-9340641D01*
X31916741Y-9222677D01*
X31928824Y-9100000D01*
X31928824Y-8927000D01*
X36071176Y-8927000D01*
X36071176Y-9100000D01*
X36083259Y-9222677D01*
X36119042Y-9340641D01*
X36177152Y-9449356D01*
X36255354Y-9544646D01*
X36350644Y-9622848D01*
X36459359Y-9680958D01*
X36577323Y-9716741D01*
X36700000Y-9728824D01*
X37800000Y-9728824D01*
X37922677Y-9716741D01*
X38040641Y-9680958D01*
X38149356Y-9622848D01*
X38244646Y-9544646D01*
X38322848Y-9449356D01*
X38380958Y-9340641D01*
X38416741Y-9222677D01*
X38428824Y-9100000D01*
X38428824Y-7000000D01*
X38416741Y-6877323D01*
X38380958Y-6759359D01*
X38322848Y-6650644D01*
X38244646Y-6555354D01*
X38149356Y-6477152D01*
X38040641Y-6419042D01*
X37936305Y-6387393D01*
X38050000Y-6388072D01*
X38174482Y-6375812D01*
X38294180Y-6339502D01*
X38404494Y-6280537D01*
X38501185Y-6201185D01*
X38580537Y-6104494D01*
X38639502Y-5994180D01*
X38675812Y-5874482D01*
X38688072Y-5750000D01*
X38685000Y-4735750D01*
X38526250Y-4577000D01*
X37377000Y-4577000D01*
X37377000Y-4597000D01*
X37123000Y-4597000D01*
X37123000Y-4577000D01*
X35973750Y-4577000D01*
X35815000Y-4735750D01*
X35811928Y-5750000D01*
X35824188Y-5874482D01*
X35860498Y-5994180D01*
X35919463Y-6104494D01*
X35998815Y-6201185D01*
X36095506Y-6280537D01*
X36205820Y-6339502D01*
X36325518Y-6375812D01*
X36450000Y-6388072D01*
X36563695Y-6387393D01*
X36459359Y-6419042D01*
X36350644Y-6477152D01*
X36255354Y-6555354D01*
X36177152Y-6650644D01*
X36119042Y-6759359D01*
X36083259Y-6877323D01*
X36071176Y-7000000D01*
X36071176Y-7173000D01*
X31928824Y-7173000D01*
X31928824Y-7000000D01*
X31916741Y-6877323D01*
X31880958Y-6759359D01*
X31822848Y-6650644D01*
X31744646Y-6555354D01*
X31649356Y-6477152D01*
X31540641Y-6419042D01*
X31436305Y-6387393D01*
X31550000Y-6388072D01*
X31674482Y-6375812D01*
X31794180Y-6339502D01*
X31904494Y-6280537D01*
X32001185Y-6201185D01*
X32080537Y-6104494D01*
X32139502Y-5994180D01*
X32175812Y-5874482D01*
X32188072Y-5750000D01*
X32185000Y-4735750D01*
X32026250Y-4577000D01*
X30877000Y-4577000D01*
X30877000Y-4597000D01*
X30623000Y-4597000D01*
X30623000Y-4577000D01*
X29473750Y-4577000D01*
X29315000Y-4735750D01*
X29311928Y-5750000D01*
X29324188Y-5874482D01*
X29360498Y-5994180D01*
X29419463Y-6104494D01*
X29498815Y-6201185D01*
X29595506Y-6280537D01*
X29705820Y-6339502D01*
X29825518Y-6375812D01*
X29950000Y-6388072D01*
X30063695Y-6387393D01*
X29959359Y-6419042D01*
X29850644Y-6477152D01*
X29755354Y-6555354D01*
X29677152Y-6650644D01*
X29619042Y-6759359D01*
X29583259Y-6877323D01*
X29571176Y-7000000D01*
X29571176Y-7298000D01*
X27236935Y-7298000D01*
X27200000Y-7294362D01*
X27163064Y-7298000D01*
X27163062Y-7298000D01*
X27052582Y-7308881D01*
X26910830Y-7351882D01*
X26780190Y-7421710D01*
X26665683Y-7515683D01*
X26642133Y-7544379D01*
X24813512Y-9373000D01*
X23685260Y-9373000D01*
X23688569Y-9368048D01*
X23747141Y-9226643D01*
X23777000Y-9076528D01*
X23777000Y-8923472D01*
X23747141Y-8773357D01*
X23701264Y-8662600D01*
X23749702Y-8674192D01*
X24001652Y-8683907D01*
X24250658Y-8644283D01*
X24487148Y-8556842D01*
X24574566Y-8510116D01*
X24627346Y-8281951D01*
X23925000Y-7579605D01*
X23910858Y-7593748D01*
X23731253Y-7414143D01*
X23745395Y-7400000D01*
X24104605Y-7400000D01*
X24806951Y-8102346D01*
X25035116Y-8049566D01*
X25140509Y-7820512D01*
X25199192Y-7575298D01*
X25208907Y-7323348D01*
X25169283Y-7074342D01*
X25081842Y-6837852D01*
X25035116Y-6750434D01*
X24806951Y-6697654D01*
X24104605Y-7400000D01*
X23745395Y-7400000D01*
X23731253Y-7385858D01*
X23910858Y-7206253D01*
X23925000Y-7220395D01*
X24627346Y-6518049D01*
X24574566Y-6289884D01*
X24345512Y-6184491D01*
X24105279Y-6127000D01*
X27250000Y-6127000D01*
X27274776Y-6124560D01*
X27298601Y-6117333D01*
X27320557Y-6105597D01*
X27339803Y-6089803D01*
X27355597Y-6070557D01*
X27367333Y-6048601D01*
X27374560Y-6024776D01*
X27377000Y-6000000D01*
X27377000Y-3150000D01*
X29311928Y-3150000D01*
X29315000Y-4164250D01*
X29473750Y-4323000D01*
X30623000Y-4323000D01*
X30623000Y-2673750D01*
X30877000Y-2673750D01*
X30877000Y-4323000D01*
X32026250Y-4323000D01*
X32185000Y-4164250D01*
X32188072Y-3150000D01*
X35811928Y-3150000D01*
X35815000Y-4164250D01*
X35973750Y-4323000D01*
X37123000Y-4323000D01*
X37123000Y-2673750D01*
X37377000Y-2673750D01*
X37377000Y-4323000D01*
X38526250Y-4323000D01*
X38685000Y-4164250D01*
X38688072Y-3150000D01*
X42311928Y-3150000D01*
X42315000Y-4164250D01*
X42473750Y-4323000D01*
X43623000Y-4323000D01*
X43623000Y-2673750D01*
X43877000Y-2673750D01*
X43877000Y-4323000D01*
X45026250Y-4323000D01*
X45185000Y-4164250D01*
X45188072Y-3150000D01*
X48811928Y-3150000D01*
X48815000Y-4164250D01*
X48973750Y-4323000D01*
X50123000Y-4323000D01*
X50123000Y-2673750D01*
X50377000Y-2673750D01*
X50377000Y-4323000D01*
X51526250Y-4323000D01*
X51685000Y-4164250D01*
X51688072Y-3150000D01*
X51675812Y-3025518D01*
X51639502Y-2905820D01*
X51580537Y-2795506D01*
X51501185Y-2698815D01*
X51404494Y-2619463D01*
X51294180Y-2560498D01*
X51174482Y-2524188D01*
X51050000Y-2511928D01*
X50535750Y-2515000D01*
X50377000Y-2673750D01*
X50123000Y-2673750D01*
X49964250Y-2515000D01*
X49450000Y-2511928D01*
X49325518Y-2524188D01*
X49205820Y-2560498D01*
X49095506Y-2619463D01*
X48998815Y-2698815D01*
X48919463Y-2795506D01*
X48860498Y-2905820D01*
X48824188Y-3025518D01*
X48811928Y-3150000D01*
X45188072Y-3150000D01*
X45175812Y-3025518D01*
X45139502Y-2905820D01*
X45080537Y-2795506D01*
X45001185Y-2698815D01*
X44904494Y-2619463D01*
X44794180Y-2560498D01*
X44674482Y-2524188D01*
X44550000Y-2511928D01*
X44035750Y-2515000D01*
X43877000Y-2673750D01*
X43623000Y-2673750D01*
X43464250Y-2515000D01*
X42950000Y-2511928D01*
X42825518Y-2524188D01*
X42705820Y-2560498D01*
X42595506Y-2619463D01*
X42498815Y-2698815D01*
X42419463Y-2795506D01*
X42360498Y-2905820D01*
X42324188Y-3025518D01*
X42311928Y-3150000D01*
X38688072Y-3150000D01*
X38675812Y-3025518D01*
X38639502Y-2905820D01*
X38580537Y-2795506D01*
X38501185Y-2698815D01*
X38404494Y-2619463D01*
X38294180Y-2560498D01*
X38174482Y-2524188D01*
X38050000Y-2511928D01*
X37535750Y-2515000D01*
X37377000Y-2673750D01*
X37123000Y-2673750D01*
X36964250Y-2515000D01*
X36450000Y-2511928D01*
X36325518Y-2524188D01*
X36205820Y-2560498D01*
X36095506Y-2619463D01*
X35998815Y-2698815D01*
X35919463Y-2795506D01*
X35860498Y-2905820D01*
X35824188Y-3025518D01*
X35811928Y-3150000D01*
X32188072Y-3150000D01*
X32175812Y-3025518D01*
X32139502Y-2905820D01*
X32080537Y-2795506D01*
X32001185Y-2698815D01*
X31904494Y-2619463D01*
X31794180Y-2560498D01*
X31674482Y-2524188D01*
X31550000Y-2511928D01*
X31035750Y-2515000D01*
X30877000Y-2673750D01*
X30623000Y-2673750D01*
X30464250Y-2515000D01*
X29950000Y-2511928D01*
X29825518Y-2524188D01*
X29705820Y-2560498D01*
X29595506Y-2619463D01*
X29498815Y-2698815D01*
X29419463Y-2795506D01*
X29360498Y-2905820D01*
X29324188Y-3025518D01*
X29311928Y-3150000D01*
X27377000Y-3150000D01*
X27377000Y-2750000D01*
X27374560Y-2725224D01*
X27367333Y-2701399D01*
X27355597Y-2679443D01*
X27339803Y-2660197D01*
X27320557Y-2644403D01*
X27298601Y-2632667D01*
X27274776Y-2625440D01*
X27250000Y-2623000D01*
X15750000Y-2623000D01*
X15725224Y-2625440D01*
X15701399Y-2632667D01*
X15679443Y-2644403D01*
X15660197Y-2660197D01*
X15644403Y-2679443D01*
X15632667Y-2701399D01*
X15625440Y-2725224D01*
X15623000Y-2750000D01*
X15623000Y-6000000D01*
X15625440Y-6024776D01*
X15632667Y-6048601D01*
X15644403Y-6070557D01*
X15660197Y-6089803D01*
X15679443Y-6105597D01*
X15701399Y-6117333D01*
X15725224Y-6124560D01*
X15750000Y-6127000D01*
X18929806Y-6127000D01*
X18749342Y-6155717D01*
X18512852Y-6243158D01*
X18425434Y-6289884D01*
X18372654Y-6518049D01*
X19075000Y-7220395D01*
X19089143Y-7206253D01*
X19268748Y-7385858D01*
X19254605Y-7400000D01*
X19268748Y-7414143D01*
X19089143Y-7593748D01*
X19075000Y-7579605D01*
X18372654Y-8281951D01*
X18425434Y-8510116D01*
X18654488Y-8615509D01*
X18899702Y-8674192D01*
X19151652Y-8683907D01*
X19400658Y-8644283D01*
X19614731Y-8565131D01*
X19695927Y-8610306D01*
X19814997Y-8648626D01*
X19918250Y-8660000D01*
X20077000Y-8501250D01*
X20077000Y-8074576D01*
X20185116Y-8049566D01*
X20223000Y-7967231D01*
X20223000Y-8501250D01*
X20381750Y-8660000D01*
X20485003Y-8648626D01*
X20604073Y-8610306D01*
X20713378Y-8549492D01*
X20808720Y-8468523D01*
X20860018Y-8403824D01*
X21050000Y-8403824D01*
X21123905Y-8396545D01*
X21175000Y-8381046D01*
X21226095Y-8396545D01*
X21300000Y-8403824D01*
X21700000Y-8403824D01*
X21773905Y-8396545D01*
X21825000Y-8381046D01*
X21876095Y-8396545D01*
X21950000Y-8403824D01*
X22248001Y-8403824D01*
X22248001Y-8469514D01*
X22245372Y-8493238D01*
X22248001Y-8523741D01*
X22248001Y-8527109D01*
X22250325Y-8550706D01*
X22254709Y-8601569D01*
X22255657Y-8604835D01*
X22255989Y-8608211D01*
X22270775Y-8656953D01*
X22277413Y-8679837D01*
X22278670Y-8682978D01*
X22283584Y-8699180D01*
X22252859Y-8773357D01*
X22223000Y-8923472D01*
X22223000Y-9076528D01*
X22252859Y-9226643D01*
X22311431Y-9368048D01*
X22314740Y-9373000D01*
X19000000Y-9373000D01*
X18926451Y-9380244D01*
X18855728Y-9401697D01*
X18790550Y-9436536D01*
X18733421Y-9483421D01*
X18233421Y-9983421D01*
X18186536Y-10040550D01*
X18151697Y-10105728D01*
X18130244Y-10176451D01*
X18123000Y-10250000D01*
X18123000Y-15000000D01*
X18130244Y-15073549D01*
X18151697Y-15144272D01*
X18186536Y-15209450D01*
X18233421Y-15266579D01*
X18339842Y-15373000D01*
X15759712Y-15373000D01*
X15663835Y-15277124D01*
X15775000Y-15288072D01*
X16151750Y-15285000D01*
X16310500Y-15126250D01*
X16310500Y-13877000D01*
X16564500Y-13877000D01*
X16564500Y-15126250D01*
X16723250Y-15285000D01*
X17100000Y-15288072D01*
X17224482Y-15275812D01*
X17344180Y-15239502D01*
X17454494Y-15180537D01*
X17551185Y-15101185D01*
X17630537Y-15004494D01*
X17689502Y-14894180D01*
X17725812Y-14774482D01*
X17738072Y-14650000D01*
X17735000Y-14035750D01*
X17576250Y-13877000D01*
X16564500Y-13877000D01*
X16310500Y-13877000D01*
X15298750Y-13877000D01*
X15140000Y-14035750D01*
X15136928Y-14650000D01*
X15147876Y-14761165D01*
X14465138Y-14078427D01*
X14445501Y-14054499D01*
X14350028Y-13976147D01*
X14241103Y-13917925D01*
X14122913Y-13882073D01*
X14030794Y-13873000D01*
X14000000Y-13869967D01*
X13969206Y-13873000D01*
X12228824Y-13873000D01*
X12228824Y-13650000D01*
X12221545Y-13576095D01*
X12199988Y-13505030D01*
X12164981Y-13439537D01*
X12117869Y-13382131D01*
X12060463Y-13335019D01*
X11994970Y-13300012D01*
X11923905Y-13278455D01*
X11850000Y-13271176D01*
X10150000Y-13271176D01*
X10076095Y-13278455D01*
X10005030Y-13300012D01*
X9939537Y-13335019D01*
X9882131Y-13382131D01*
X9835019Y-13439537D01*
X9800012Y-13505030D01*
X9778455Y-13576095D01*
X9771176Y-13650000D01*
X9771176Y-15169769D01*
X9573936Y-15130321D01*
X9500000Y-15123000D01*
X8156158Y-15123000D01*
X7127000Y-14093842D01*
X7127000Y-13750000D01*
X7119756Y-13676451D01*
X7098303Y-13605728D01*
X7063464Y-13540550D01*
X7016579Y-13483421D01*
X6766579Y-13233421D01*
X6709450Y-13186536D01*
X6644272Y-13151697D01*
X6573549Y-13130244D01*
X6500000Y-13123000D01*
X1750000Y-13123000D01*
X1676451Y-13130244D01*
X1605728Y-13151697D01*
X1540550Y-13186536D01*
X1483421Y-13233421D01*
X1233421Y-13483421D01*
X1186536Y-13540550D01*
X1151697Y-13605728D01*
X1130244Y-13676451D01*
X1123000Y-13750000D01*
X402000Y-13750000D01*
X402000Y-12375000D01*
X9911928Y-12375000D01*
X9924188Y-12499482D01*
X9960498Y-12619180D01*
X10019463Y-12729494D01*
X10098815Y-12826185D01*
X10195506Y-12905537D01*
X10305820Y-12964502D01*
X10425518Y-13000812D01*
X10550000Y-13013072D01*
X10914250Y-13010000D01*
X11073000Y-12851250D01*
X11073000Y-11627000D01*
X11327000Y-11627000D01*
X11327000Y-12851250D01*
X11485750Y-13010000D01*
X11850000Y-13013072D01*
X11974482Y-13000812D01*
X12094180Y-12964502D01*
X12204494Y-12905537D01*
X12301185Y-12826185D01*
X12380537Y-12729494D01*
X12439502Y-12619180D01*
X12475812Y-12499482D01*
X12488072Y-12375000D01*
X12485000Y-11785750D01*
X12326250Y-11627000D01*
X11327000Y-11627000D01*
X11073000Y-11627000D01*
X10073750Y-11627000D01*
X9915000Y-11785750D01*
X9911928Y-12375000D01*
X402000Y-12375000D01*
X402000Y-10625000D01*
X9911928Y-10625000D01*
X9915000Y-11214250D01*
X10073750Y-11373000D01*
X11073000Y-11373000D01*
X11073000Y-10148750D01*
X11327000Y-10148750D01*
X11327000Y-11373000D01*
X12326250Y-11373000D01*
X12485000Y-11214250D01*
X12488072Y-10625000D01*
X12475812Y-10500518D01*
X12439502Y-10380820D01*
X12380537Y-10270506D01*
X12301185Y-10173815D01*
X12204494Y-10094463D01*
X12094180Y-10035498D01*
X11974482Y-9999188D01*
X11850000Y-9986928D01*
X11485750Y-9990000D01*
X11327000Y-10148750D01*
X11073000Y-10148750D01*
X10914250Y-9990000D01*
X10550000Y-9986928D01*
X10425518Y-9999188D01*
X10305820Y-10035498D01*
X10195506Y-10094463D01*
X10098815Y-10173815D01*
X10019463Y-10270506D01*
X9960498Y-10380820D01*
X9924188Y-10500518D01*
X9911928Y-10625000D01*
X402000Y-10625000D01*
X402000Y-9384838D01*
X2889767Y-9384838D01*
X3027724Y-9685044D01*
X3376967Y-9860882D01*
X3753804Y-9965207D01*
X4143753Y-9994009D01*
X4531828Y-9946184D01*
X4903116Y-9823568D01*
X5162276Y-9685044D01*
X5300233Y-9384838D01*
X4095000Y-8179605D01*
X2889767Y-9384838D01*
X402000Y-9384838D01*
X402000Y-8048753D01*
X2100991Y-8048753D01*
X2148816Y-8436828D01*
X2271432Y-8808116D01*
X2409956Y-9067276D01*
X2710162Y-9205233D01*
X3915395Y-8000000D01*
X4274605Y-8000000D01*
X5479838Y-9205233D01*
X5780044Y-9067276D01*
X5955882Y-8718033D01*
X6060207Y-8341196D01*
X6089009Y-7951247D01*
X6074056Y-7829905D01*
X6178000Y-7829905D01*
X6178000Y-8170095D01*
X6244368Y-8503747D01*
X6374553Y-8818041D01*
X6563552Y-9100898D01*
X6804102Y-9341448D01*
X7086959Y-9530447D01*
X7401253Y-9660632D01*
X7734905Y-9727000D01*
X8075095Y-9727000D01*
X8408747Y-9660632D01*
X8723041Y-9530447D01*
X9005898Y-9341448D01*
X9246448Y-9100898D01*
X9435447Y-8818041D01*
X9565632Y-8503747D01*
X9632000Y-8170095D01*
X9632000Y-7829905D01*
X9566378Y-7500000D01*
X12571176Y-7500000D01*
X12571176Y-10000000D01*
X12578455Y-10073905D01*
X12600012Y-10144970D01*
X12635019Y-10210463D01*
X12682131Y-10267869D01*
X12739537Y-10314981D01*
X12805030Y-10349988D01*
X12876095Y-10371545D01*
X12950000Y-10378824D01*
X13518144Y-10378824D01*
X13455354Y-10430354D01*
X13377152Y-10525644D01*
X13319042Y-10634359D01*
X13283259Y-10752323D01*
X13271176Y-10875000D01*
X13271176Y-12125000D01*
X13283259Y-12247677D01*
X13319042Y-12365641D01*
X13377152Y-12474356D01*
X13455354Y-12569646D01*
X13550644Y-12647848D01*
X13659359Y-12705958D01*
X13777323Y-12741741D01*
X13900000Y-12753824D01*
X14700000Y-12753824D01*
X14822677Y-12741741D01*
X14940641Y-12705958D01*
X15049356Y-12647848D01*
X15144646Y-12569646D01*
X15222848Y-12474356D01*
X15280958Y-12365641D01*
X15315430Y-12252000D01*
X15434570Y-12252000D01*
X15450217Y-12303582D01*
X15420506Y-12319463D01*
X15323815Y-12398815D01*
X15244463Y-12495506D01*
X15185498Y-12605820D01*
X15149188Y-12725518D01*
X15136928Y-12850000D01*
X15140000Y-13464250D01*
X15298750Y-13623000D01*
X16310500Y-13623000D01*
X16310500Y-13603000D01*
X16564500Y-13603000D01*
X16564500Y-13623000D01*
X17576250Y-13623000D01*
X17735000Y-13464250D01*
X17738072Y-12850000D01*
X17725812Y-12725518D01*
X17689502Y-12605820D01*
X17630537Y-12495506D01*
X17551185Y-12398815D01*
X17542177Y-12391423D01*
X17555958Y-12365641D01*
X17591741Y-12247677D01*
X17603824Y-12125000D01*
X17603824Y-10875000D01*
X17591741Y-10752323D01*
X17555958Y-10634359D01*
X17497848Y-10525644D01*
X17419646Y-10430354D01*
X17324356Y-10352152D01*
X17215641Y-10294042D01*
X17097677Y-10258259D01*
X16975000Y-10246176D01*
X16228973Y-10246176D01*
X16368048Y-10188569D01*
X16495309Y-10103536D01*
X16603536Y-9995309D01*
X16688569Y-9868048D01*
X16747141Y-9726643D01*
X16777000Y-9576528D01*
X16777000Y-9423472D01*
X16747141Y-9273357D01*
X16688569Y-9131952D01*
X16603536Y-9004691D01*
X16495309Y-8896464D01*
X16388757Y-8825268D01*
X15807867Y-8244379D01*
X15784317Y-8215683D01*
X15669810Y-8121710D01*
X15539170Y-8051882D01*
X15397418Y-8008881D01*
X15286938Y-7998000D01*
X15286935Y-7998000D01*
X15250000Y-7994362D01*
X15213065Y-7998000D01*
X15128824Y-7998000D01*
X15128824Y-7500000D01*
X15126525Y-7476652D01*
X17791093Y-7476652D01*
X17830717Y-7725658D01*
X17918158Y-7962148D01*
X17964884Y-8049566D01*
X18193049Y-8102346D01*
X18895395Y-7400000D01*
X18193049Y-6697654D01*
X17964884Y-6750434D01*
X17859491Y-6979488D01*
X17800808Y-7224702D01*
X17791093Y-7476652D01*
X15126525Y-7476652D01*
X15121545Y-7426095D01*
X15099988Y-7355030D01*
X15064981Y-7289537D01*
X15017869Y-7232131D01*
X14960463Y-7185019D01*
X14894970Y-7150012D01*
X14823905Y-7128455D01*
X14750000Y-7121176D01*
X12950000Y-7121176D01*
X12876095Y-7128455D01*
X12805030Y-7150012D01*
X12739537Y-7185019D01*
X12682131Y-7232131D01*
X12635019Y-7289537D01*
X12600012Y-7355030D01*
X12578455Y-7426095D01*
X12571176Y-7500000D01*
X9566378Y-7500000D01*
X9565632Y-7496253D01*
X9435447Y-7181959D01*
X9246448Y-6899102D01*
X9005898Y-6658552D01*
X8782000Y-6508948D01*
X8782000Y-5958265D01*
X9113265Y-5627000D01*
X12571176Y-5627000D01*
X12571176Y-6000000D01*
X12578455Y-6073905D01*
X12600012Y-6144970D01*
X12635019Y-6210463D01*
X12682131Y-6267869D01*
X12739537Y-6314981D01*
X12805030Y-6349988D01*
X12876095Y-6371545D01*
X12950000Y-6378824D01*
X14750000Y-6378824D01*
X14823905Y-6371545D01*
X14894970Y-6349988D01*
X14960463Y-6314981D01*
X15017869Y-6267869D01*
X15064981Y-6210463D01*
X15099988Y-6144970D01*
X15121545Y-6073905D01*
X15128824Y-6000000D01*
X15128824Y-3500000D01*
X15121545Y-3426095D01*
X15099988Y-3355030D01*
X15064981Y-3289537D01*
X15017869Y-3232131D01*
X14960463Y-3185019D01*
X14894970Y-3150012D01*
X14823905Y-3128455D01*
X14750000Y-3121176D01*
X12950000Y-3121176D01*
X12876095Y-3128455D01*
X12805030Y-3150012D01*
X12739537Y-3185019D01*
X12682131Y-3232131D01*
X12635019Y-3289537D01*
X12600012Y-3355030D01*
X12578455Y-3426095D01*
X12571176Y-3500000D01*
X12571176Y-3873000D01*
X8793069Y-3873000D01*
X8749999Y-3868758D01*
X8706930Y-3873000D01*
X8706921Y-3873000D01*
X8578078Y-3885690D01*
X8412763Y-3935838D01*
X8260408Y-4017273D01*
X8126867Y-4126867D01*
X8099403Y-4160332D01*
X7315327Y-4944408D01*
X7281868Y-4971867D01*
X7254409Y-5005326D01*
X7254406Y-5005329D01*
X7172274Y-5105408D01*
X7090838Y-5257764D01*
X7040690Y-5423078D01*
X7023757Y-5595000D01*
X7028001Y-5638089D01*
X7028001Y-6508948D01*
X6804102Y-6658552D01*
X6563552Y-6899102D01*
X6374553Y-7181959D01*
X6244368Y-7496253D01*
X6178000Y-7829905D01*
X6074056Y-7829905D01*
X6041184Y-7563172D01*
X5918568Y-7191884D01*
X5780044Y-6932724D01*
X5479838Y-6794767D01*
X4274605Y-8000000D01*
X3915395Y-8000000D01*
X2710162Y-6794767D01*
X2409956Y-6932724D01*
X2234118Y-7281967D01*
X2129793Y-7658804D01*
X2100991Y-8048753D01*
X402000Y-8048753D01*
X402000Y-6615162D01*
X2889767Y-6615162D01*
X4095000Y-7820395D01*
X5300233Y-6615162D01*
X5162276Y-6314956D01*
X4813033Y-6139118D01*
X4436196Y-6034793D01*
X4046247Y-6005991D01*
X3658172Y-6053816D01*
X3286884Y-6176432D01*
X3027724Y-6314956D01*
X2889767Y-6615162D01*
X402000Y-6615162D01*
X402000Y-2166513D01*
X2166514Y-402000D01*
X9833487Y-402000D01*
X11701779Y-2270293D01*
G37*
%TD.AperFunction*%
%TD*%
D27*
%TO.N,+3V3*%
X25373000Y-10302606D02*
X25373000Y-14947394D01*
X24947394Y-15373000D01*
X19052606Y-15373000D01*
X18627000Y-14947394D01*
X18627000Y-10302606D01*
X19052606Y-9877000D01*
X24947394Y-9877000D01*
X25373000Y-10302606D01*
%TA.AperFunction,Conductor*%
D28*
G36*
X25373000Y-10302606D02*
G01*
X25373000Y-14947394D01*
X24947394Y-15373000D01*
X19052606Y-15373000D01*
X18627000Y-14947394D01*
X18627000Y-10302606D01*
X19052606Y-9877000D01*
X24947394Y-9877000D01*
X25373000Y-10302606D01*
G37*
%TD.AperFunction*%
%TD*%
D27*
%TO.N,+5V*%
X35373000Y-10302606D02*
X35373000Y-14947394D01*
X34947394Y-15373000D01*
X29052606Y-15373000D01*
X28627000Y-14947394D01*
X28627000Y-10302606D01*
X29052606Y-9877000D01*
X34947394Y-9877000D01*
X35373000Y-10302606D01*
%TA.AperFunction,Conductor*%
D28*
G36*
X35373000Y-10302606D02*
G01*
X35373000Y-14947394D01*
X34947394Y-15373000D01*
X29052606Y-15373000D01*
X28627000Y-14947394D01*
X28627000Y-10302606D01*
X29052606Y-9877000D01*
X34947394Y-9877000D01*
X35373000Y-10302606D01*
G37*
%TD.AperFunction*%
%TD*%
D27*
%TO.N,GND*%
X27123000Y-5873000D02*
X15877000Y-5873000D01*
X15877000Y-2877000D01*
X27123000Y-2877000D01*
X27123000Y-5873000D01*
%TA.AperFunction,Conductor*%
D28*
G36*
X27123000Y-5873000D02*
G01*
X15877000Y-5873000D01*
X15877000Y-2877000D01*
X27123000Y-2877000D01*
X27123000Y-5873000D01*
G37*
%TD.AperFunction*%
%TD*%
D27*
%TO.N,/VoutRight*%
X52373000Y-13802606D02*
X52373000Y-21197394D01*
X52197394Y-21373000D01*
X47552606Y-21373000D01*
X47377000Y-21197394D01*
X47377000Y-20952075D01*
X47390012Y-20994970D01*
X47425019Y-21060463D01*
X47472131Y-21117869D01*
X47529537Y-21164981D01*
X47595030Y-21199988D01*
X47666095Y-21221545D01*
X47740000Y-21228824D01*
X49440000Y-21228824D01*
X49513905Y-21221545D01*
X49584970Y-21199988D01*
X49650463Y-21164981D01*
X49707869Y-21117869D01*
X49754981Y-21060463D01*
X49789988Y-20994970D01*
X49811545Y-20923905D01*
X49818824Y-20850000D01*
X49818824Y-19150000D01*
X49811545Y-19076095D01*
X49789988Y-19005030D01*
X49754981Y-18939537D01*
X49707869Y-18882131D01*
X49650463Y-18835019D01*
X49584970Y-18800012D01*
X49513905Y-18778455D01*
X49440000Y-18771176D01*
X47740000Y-18771176D01*
X47666095Y-18778455D01*
X47595030Y-18800012D01*
X47529537Y-18835019D01*
X47472131Y-18882131D01*
X47425019Y-18939537D01*
X47390012Y-19005030D01*
X47368455Y-19076095D01*
X47361176Y-19150000D01*
X47361176Y-19439880D01*
X47355597Y-19429443D01*
X47339803Y-19410197D01*
X46339803Y-18410197D01*
X46320557Y-18394403D01*
X46298601Y-18382667D01*
X46274776Y-18375440D01*
X46250000Y-18373000D01*
X44512577Y-18373000D01*
X42103715Y-17891228D01*
X41965697Y-17339151D01*
X47363000Y-17339151D01*
X47363000Y-17580849D01*
X47410153Y-17817903D01*
X47502647Y-18041202D01*
X47636927Y-18242167D01*
X47807833Y-18413073D01*
X48008798Y-18547353D01*
X48232097Y-18639847D01*
X48469151Y-18687000D01*
X48710849Y-18687000D01*
X48947903Y-18639847D01*
X49171202Y-18547353D01*
X49372167Y-18413073D01*
X49543073Y-18242167D01*
X49677353Y-18041202D01*
X49769847Y-17817903D01*
X49817000Y-17580849D01*
X49817000Y-17339151D01*
X49769847Y-17102097D01*
X49677353Y-16878798D01*
X49543073Y-16677833D01*
X49372167Y-16506927D01*
X49171202Y-16372647D01*
X48947903Y-16280153D01*
X48710849Y-16233000D01*
X48469151Y-16233000D01*
X48232097Y-16280153D01*
X48008798Y-16372647D01*
X47807833Y-16506927D01*
X47636927Y-16677833D01*
X47502647Y-16878798D01*
X47410153Y-17102097D01*
X47363000Y-17339151D01*
X41965697Y-17339151D01*
X41880909Y-17000000D01*
X42103715Y-16108772D01*
X44512577Y-15627000D01*
X46000000Y-15627000D01*
X46024776Y-15624560D01*
X46048601Y-15617333D01*
X46070557Y-15605597D01*
X46089803Y-15589803D01*
X46880455Y-14799151D01*
X47363000Y-14799151D01*
X47363000Y-15040849D01*
X47410153Y-15277903D01*
X47502647Y-15501202D01*
X47636927Y-15702167D01*
X47807833Y-15873073D01*
X48008798Y-16007353D01*
X48232097Y-16099847D01*
X48469151Y-16147000D01*
X48710849Y-16147000D01*
X48947903Y-16099847D01*
X49171202Y-16007353D01*
X49372167Y-15873073D01*
X49543073Y-15702167D01*
X49677353Y-15501202D01*
X49769847Y-15277903D01*
X49817000Y-15040849D01*
X49817000Y-14799151D01*
X49769847Y-14562097D01*
X49677353Y-14338798D01*
X49543073Y-14137833D01*
X49372167Y-13966927D01*
X49171202Y-13832647D01*
X48947903Y-13740153D01*
X48710849Y-13693000D01*
X48469151Y-13693000D01*
X48232097Y-13740153D01*
X48008798Y-13832647D01*
X47807833Y-13966927D01*
X47636927Y-14137833D01*
X47502647Y-14338798D01*
X47410153Y-14562097D01*
X47363000Y-14799151D01*
X46880455Y-14799151D01*
X47339803Y-14339803D01*
X47355597Y-14320557D01*
X47367333Y-14298601D01*
X47374560Y-14274776D01*
X47377000Y-14250000D01*
X47377000Y-13802606D01*
X47552606Y-13627000D01*
X52197394Y-13627000D01*
X52373000Y-13802606D01*
%TA.AperFunction,Conductor*%
D28*
G36*
X52373000Y-13802606D02*
G01*
X52373000Y-21197394D01*
X52197394Y-21373000D01*
X47552606Y-21373000D01*
X47377000Y-21197394D01*
X47377000Y-20952075D01*
X47390012Y-20994970D01*
X47425019Y-21060463D01*
X47472131Y-21117869D01*
X47529537Y-21164981D01*
X47595030Y-21199988D01*
X47666095Y-21221545D01*
X47740000Y-21228824D01*
X49440000Y-21228824D01*
X49513905Y-21221545D01*
X49584970Y-21199988D01*
X49650463Y-21164981D01*
X49707869Y-21117869D01*
X49754981Y-21060463D01*
X49789988Y-20994970D01*
X49811545Y-20923905D01*
X49818824Y-20850000D01*
X49818824Y-19150000D01*
X49811545Y-19076095D01*
X49789988Y-19005030D01*
X49754981Y-18939537D01*
X49707869Y-18882131D01*
X49650463Y-18835019D01*
X49584970Y-18800012D01*
X49513905Y-18778455D01*
X49440000Y-18771176D01*
X47740000Y-18771176D01*
X47666095Y-18778455D01*
X47595030Y-18800012D01*
X47529537Y-18835019D01*
X47472131Y-18882131D01*
X47425019Y-18939537D01*
X47390012Y-19005030D01*
X47368455Y-19076095D01*
X47361176Y-19150000D01*
X47361176Y-19439880D01*
X47355597Y-19429443D01*
X47339803Y-19410197D01*
X46339803Y-18410197D01*
X46320557Y-18394403D01*
X46298601Y-18382667D01*
X46274776Y-18375440D01*
X46250000Y-18373000D01*
X44512577Y-18373000D01*
X42103715Y-17891228D01*
X41965697Y-17339151D01*
X47363000Y-17339151D01*
X47363000Y-17580849D01*
X47410153Y-17817903D01*
X47502647Y-18041202D01*
X47636927Y-18242167D01*
X47807833Y-18413073D01*
X48008798Y-18547353D01*
X48232097Y-18639847D01*
X48469151Y-18687000D01*
X48710849Y-18687000D01*
X48947903Y-18639847D01*
X49171202Y-18547353D01*
X49372167Y-18413073D01*
X49543073Y-18242167D01*
X49677353Y-18041202D01*
X49769847Y-17817903D01*
X49817000Y-17580849D01*
X49817000Y-17339151D01*
X49769847Y-17102097D01*
X49677353Y-16878798D01*
X49543073Y-16677833D01*
X49372167Y-16506927D01*
X49171202Y-16372647D01*
X48947903Y-16280153D01*
X48710849Y-16233000D01*
X48469151Y-16233000D01*
X48232097Y-16280153D01*
X48008798Y-16372647D01*
X47807833Y-16506927D01*
X47636927Y-16677833D01*
X47502647Y-16878798D01*
X47410153Y-17102097D01*
X47363000Y-17339151D01*
X41965697Y-17339151D01*
X41880909Y-17000000D01*
X42103715Y-16108772D01*
X44512577Y-15627000D01*
X46000000Y-15627000D01*
X46024776Y-15624560D01*
X46048601Y-15617333D01*
X46070557Y-15605597D01*
X46089803Y-15589803D01*
X46880455Y-14799151D01*
X47363000Y-14799151D01*
X47363000Y-15040849D01*
X47410153Y-15277903D01*
X47502647Y-15501202D01*
X47636927Y-15702167D01*
X47807833Y-15873073D01*
X48008798Y-16007353D01*
X48232097Y-16099847D01*
X48469151Y-16147000D01*
X48710849Y-16147000D01*
X48947903Y-16099847D01*
X49171202Y-16007353D01*
X49372167Y-15873073D01*
X49543073Y-15702167D01*
X49677353Y-15501202D01*
X49769847Y-15277903D01*
X49817000Y-15040849D01*
X49817000Y-14799151D01*
X49769847Y-14562097D01*
X49677353Y-14338798D01*
X49543073Y-14137833D01*
X49372167Y-13966927D01*
X49171202Y-13832647D01*
X48947903Y-13740153D01*
X48710849Y-13693000D01*
X48469151Y-13693000D01*
X48232097Y-13740153D01*
X48008798Y-13832647D01*
X47807833Y-13966927D01*
X47636927Y-14137833D01*
X47502647Y-14338798D01*
X47410153Y-14562097D01*
X47363000Y-14799151D01*
X46880455Y-14799151D01*
X47339803Y-14339803D01*
X47355597Y-14320557D01*
X47367333Y-14298601D01*
X47374560Y-14274776D01*
X47377000Y-14250000D01*
X47377000Y-13802606D01*
X47552606Y-13627000D01*
X52197394Y-13627000D01*
X52373000Y-13802606D01*
G37*
%TD.AperFunction*%
%TD*%
D27*
%TO.N,/VoutLeft*%
X6623000Y-13802606D02*
X6623000Y-14250000D01*
X6625440Y-14274776D01*
X6632667Y-14298601D01*
X6644403Y-14320557D01*
X6660197Y-14339803D01*
X7910197Y-15589803D01*
X7929443Y-15605597D01*
X7951399Y-15617333D01*
X7975224Y-15624560D01*
X8000000Y-15627000D01*
X9487423Y-15627000D01*
X11896285Y-16108772D01*
X12119092Y-17000000D01*
X11896285Y-17891228D01*
X9487423Y-18373000D01*
X7750000Y-18373000D01*
X7725224Y-18375440D01*
X7701399Y-18382667D01*
X7679443Y-18394403D01*
X7660197Y-18410197D01*
X6660197Y-19410197D01*
X6644403Y-19429443D01*
X6632667Y-19451399D01*
X6625440Y-19475224D01*
X6623000Y-19500000D01*
X6623000Y-21197394D01*
X6447394Y-21373000D01*
X1802606Y-21373000D01*
X1627000Y-21197394D01*
X1627000Y-19150000D01*
X1641176Y-19150000D01*
X1641176Y-20850000D01*
X1648455Y-20923905D01*
X1670012Y-20994970D01*
X1705019Y-21060463D01*
X1752131Y-21117869D01*
X1809537Y-21164981D01*
X1875030Y-21199988D01*
X1946095Y-21221545D01*
X2020000Y-21228824D01*
X3720000Y-21228824D01*
X3793905Y-21221545D01*
X3864970Y-21199988D01*
X3930463Y-21164981D01*
X3987869Y-21117869D01*
X4034981Y-21060463D01*
X4069988Y-20994970D01*
X4091545Y-20923905D01*
X4098824Y-20850000D01*
X4098824Y-19150000D01*
X4091545Y-19076095D01*
X4069988Y-19005030D01*
X4034981Y-18939537D01*
X3987869Y-18882131D01*
X3930463Y-18835019D01*
X3864970Y-18800012D01*
X3793905Y-18778455D01*
X3720000Y-18771176D01*
X2020000Y-18771176D01*
X1946095Y-18778455D01*
X1875030Y-18800012D01*
X1809537Y-18835019D01*
X1752131Y-18882131D01*
X1705019Y-18939537D01*
X1670012Y-19005030D01*
X1648455Y-19076095D01*
X1641176Y-19150000D01*
X1627000Y-19150000D01*
X1627000Y-17339151D01*
X1643000Y-17339151D01*
X1643000Y-17580849D01*
X1690153Y-17817903D01*
X1782647Y-18041202D01*
X1916927Y-18242167D01*
X2087833Y-18413073D01*
X2288798Y-18547353D01*
X2512097Y-18639847D01*
X2749151Y-18687000D01*
X2990849Y-18687000D01*
X3227903Y-18639847D01*
X3451202Y-18547353D01*
X3652167Y-18413073D01*
X3823073Y-18242167D01*
X3957353Y-18041202D01*
X4049847Y-17817903D01*
X4097000Y-17580849D01*
X4097000Y-17339151D01*
X4049847Y-17102097D01*
X3957353Y-16878798D01*
X3823073Y-16677833D01*
X3652167Y-16506927D01*
X3451202Y-16372647D01*
X3227903Y-16280153D01*
X2990849Y-16233000D01*
X2749151Y-16233000D01*
X2512097Y-16280153D01*
X2288798Y-16372647D01*
X2087833Y-16506927D01*
X1916927Y-16677833D01*
X1782647Y-16878798D01*
X1690153Y-17102097D01*
X1643000Y-17339151D01*
X1627000Y-17339151D01*
X1627000Y-14799151D01*
X1643000Y-14799151D01*
X1643000Y-15040849D01*
X1690153Y-15277903D01*
X1782647Y-15501202D01*
X1916927Y-15702167D01*
X2087833Y-15873073D01*
X2288798Y-16007353D01*
X2512097Y-16099847D01*
X2749151Y-16147000D01*
X2990849Y-16147000D01*
X3227903Y-16099847D01*
X3451202Y-16007353D01*
X3652167Y-15873073D01*
X3823073Y-15702167D01*
X3957353Y-15501202D01*
X4049847Y-15277903D01*
X4097000Y-15040849D01*
X4097000Y-14799151D01*
X4049847Y-14562097D01*
X3957353Y-14338798D01*
X3823073Y-14137833D01*
X3652167Y-13966927D01*
X3451202Y-13832647D01*
X3227903Y-13740153D01*
X2990849Y-13693000D01*
X2749151Y-13693000D01*
X2512097Y-13740153D01*
X2288798Y-13832647D01*
X2087833Y-13966927D01*
X1916927Y-14137833D01*
X1782647Y-14338798D01*
X1690153Y-14562097D01*
X1643000Y-14799151D01*
X1627000Y-14799151D01*
X1627000Y-13802606D01*
X1802606Y-13627000D01*
X6447394Y-13627000D01*
X6623000Y-13802606D01*
%TA.AperFunction,Conductor*%
D28*
G36*
X6623000Y-13802606D02*
G01*
X6623000Y-14250000D01*
X6625440Y-14274776D01*
X6632667Y-14298601D01*
X6644403Y-14320557D01*
X6660197Y-14339803D01*
X7910197Y-15589803D01*
X7929443Y-15605597D01*
X7951399Y-15617333D01*
X7975224Y-15624560D01*
X8000000Y-15627000D01*
X9487423Y-15627000D01*
X11896285Y-16108772D01*
X12119092Y-17000000D01*
X11896285Y-17891228D01*
X9487423Y-18373000D01*
X7750000Y-18373000D01*
X7725224Y-18375440D01*
X7701399Y-18382667D01*
X7679443Y-18394403D01*
X7660197Y-18410197D01*
X6660197Y-19410197D01*
X6644403Y-19429443D01*
X6632667Y-19451399D01*
X6625440Y-19475224D01*
X6623000Y-19500000D01*
X6623000Y-21197394D01*
X6447394Y-21373000D01*
X1802606Y-21373000D01*
X1627000Y-21197394D01*
X1627000Y-19150000D01*
X1641176Y-19150000D01*
X1641176Y-20850000D01*
X1648455Y-20923905D01*
X1670012Y-20994970D01*
X1705019Y-21060463D01*
X1752131Y-21117869D01*
X1809537Y-21164981D01*
X1875030Y-21199988D01*
X1946095Y-21221545D01*
X2020000Y-21228824D01*
X3720000Y-21228824D01*
X3793905Y-21221545D01*
X3864970Y-21199988D01*
X3930463Y-21164981D01*
X3987869Y-21117869D01*
X4034981Y-21060463D01*
X4069988Y-20994970D01*
X4091545Y-20923905D01*
X4098824Y-20850000D01*
X4098824Y-19150000D01*
X4091545Y-19076095D01*
X4069988Y-19005030D01*
X4034981Y-18939537D01*
X3987869Y-18882131D01*
X3930463Y-18835019D01*
X3864970Y-18800012D01*
X3793905Y-18778455D01*
X3720000Y-18771176D01*
X2020000Y-18771176D01*
X1946095Y-18778455D01*
X1875030Y-18800012D01*
X1809537Y-18835019D01*
X1752131Y-18882131D01*
X1705019Y-18939537D01*
X1670012Y-19005030D01*
X1648455Y-19076095D01*
X1641176Y-19150000D01*
X1627000Y-19150000D01*
X1627000Y-17339151D01*
X1643000Y-17339151D01*
X1643000Y-17580849D01*
X1690153Y-17817903D01*
X1782647Y-18041202D01*
X1916927Y-18242167D01*
X2087833Y-18413073D01*
X2288798Y-18547353D01*
X2512097Y-18639847D01*
X2749151Y-18687000D01*
X2990849Y-18687000D01*
X3227903Y-18639847D01*
X3451202Y-18547353D01*
X3652167Y-18413073D01*
X3823073Y-18242167D01*
X3957353Y-18041202D01*
X4049847Y-17817903D01*
X4097000Y-17580849D01*
X4097000Y-17339151D01*
X4049847Y-17102097D01*
X3957353Y-16878798D01*
X3823073Y-16677833D01*
X3652167Y-16506927D01*
X3451202Y-16372647D01*
X3227903Y-16280153D01*
X2990849Y-16233000D01*
X2749151Y-16233000D01*
X2512097Y-16280153D01*
X2288798Y-16372647D01*
X2087833Y-16506927D01*
X1916927Y-16677833D01*
X1782647Y-16878798D01*
X1690153Y-17102097D01*
X1643000Y-17339151D01*
X1627000Y-17339151D01*
X1627000Y-14799151D01*
X1643000Y-14799151D01*
X1643000Y-15040849D01*
X1690153Y-15277903D01*
X1782647Y-15501202D01*
X1916927Y-15702167D01*
X2087833Y-15873073D01*
X2288798Y-16007353D01*
X2512097Y-16099847D01*
X2749151Y-16147000D01*
X2990849Y-16147000D01*
X3227903Y-16099847D01*
X3451202Y-16007353D01*
X3652167Y-15873073D01*
X3823073Y-15702167D01*
X3957353Y-15501202D01*
X4049847Y-15277903D01*
X4097000Y-15040849D01*
X4097000Y-14799151D01*
X4049847Y-14562097D01*
X3957353Y-14338798D01*
X3823073Y-14137833D01*
X3652167Y-13966927D01*
X3451202Y-13832647D01*
X3227903Y-13740153D01*
X2990849Y-13693000D01*
X2749151Y-13693000D01*
X2512097Y-13740153D01*
X2288798Y-13832647D01*
X2087833Y-13966927D01*
X1916927Y-14137833D01*
X1782647Y-14338798D01*
X1690153Y-14562097D01*
X1643000Y-14799151D01*
X1627000Y-14799151D01*
X1627000Y-13802606D01*
X1802606Y-13627000D01*
X6447394Y-13627000D01*
X6623000Y-13802606D01*
G37*
%TD.AperFunction*%
%TD*%
M02*
