%TF.GenerationSoftware,KiCad,Pcbnew,(5.1.7)-1*%
%TF.CreationDate,2021-03-20T22:52:39+01:00*%
%TF.ProjectId,MicroBBPS,4d696372-6f42-4425-9053-2e6b69636164,rev?*%
%TF.SameCoordinates,Original*%
%TF.FileFunction,Soldermask,Bot*%
%TF.FilePolarity,Negative*%
%FSLAX46Y46*%
G04 Gerber Fmt 4.6, Leading zero omitted, Abs format (unit mm)*
G04 Created by KiCad (PCBNEW (5.1.7)-1) date 2021-03-20 22:52:39*
%MOMM*%
%LPD*%
G01*
G04 APERTURE LIST*
%TA.AperFunction,Profile*%
%ADD10C,0.050000*%
%TD*%
%ADD11O,1.800000X1.800000*%
%ADD12C,3.300000*%
%ADD13C,2.800000*%
%ADD14O,1.200000X1.900000*%
%ADD15C,1.390000*%
G04 APERTURE END LIST*
D10*
X12000000Y-2000000D02*
X10000000Y0D01*
X0Y-2000000D02*
X2000000Y0D01*
X0Y-96000000D02*
X0Y-2000000D01*
X3900000Y-99900000D02*
X0Y-96000000D01*
X14000000Y-99900000D02*
X3900000Y-99800000D01*
X18000000Y-95900000D02*
X14000000Y-99900000D01*
X36000000Y-95900000D02*
X18000000Y-95900000D01*
X40000000Y-99800000D02*
X36000000Y-95900000D01*
X50000000Y-99900000D02*
X40000000Y-99900000D01*
X54000000Y-96000000D02*
X50000000Y-99900000D01*
X54000000Y-4000000D02*
X54000000Y-96000000D01*
X52000000Y-2000000D02*
X54000000Y-4000000D01*
X12000000Y-2000000D02*
X52000000Y-2000000D01*
X2000000Y0D02*
X10000000Y0D01*
D11*
%TO.C,J1*%
X33350000Y-88580000D03*
X48590000Y-88580000D03*
X38430000Y-88580000D03*
X35890000Y-88580000D03*
X30810000Y-88580000D03*
X40970000Y-88580000D03*
X5410000Y-88580000D03*
X2870000Y-88580000D03*
X51130000Y-88580000D03*
X23190000Y-88580000D03*
X13030000Y-88580000D03*
X15570000Y-88580000D03*
X20650000Y-88580000D03*
X18110000Y-88580000D03*
X33350000Y-86040000D03*
X48590000Y-86040000D03*
X38430000Y-86040000D03*
X35890000Y-86040000D03*
X30810000Y-86040000D03*
X40970000Y-86040000D03*
X5410000Y-86040000D03*
X2870000Y-86040000D03*
X51130000Y-86040000D03*
X23190000Y-86040000D03*
X13030000Y-86040000D03*
X15570000Y-86040000D03*
X20650000Y-86040000D03*
X18110000Y-86040000D03*
X33350000Y-83500000D03*
X48590000Y-83500000D03*
X38430000Y-83500000D03*
X35890000Y-83500000D03*
X30810000Y-83500000D03*
X40970000Y-83500000D03*
X5410000Y-83500000D03*
X2870000Y-83500000D03*
X51130000Y-83500000D03*
X23190000Y-83500000D03*
X13030000Y-83500000D03*
X15570000Y-83500000D03*
X20650000Y-83500000D03*
X18110000Y-83500000D03*
X33350000Y-80960000D03*
X48590000Y-80960000D03*
X38430000Y-80960000D03*
X35890000Y-80960000D03*
X30810000Y-80960000D03*
X40970000Y-80960000D03*
X5410000Y-80960000D03*
X2870000Y-80960000D03*
X51130000Y-80960000D03*
X23190000Y-80960000D03*
X13030000Y-80960000D03*
X15570000Y-80960000D03*
X20650000Y-80960000D03*
X18110000Y-80960000D03*
X33350000Y-78420000D03*
X48590000Y-78420000D03*
X38430000Y-78420000D03*
X35890000Y-78420000D03*
X30810000Y-78420000D03*
X40970000Y-78420000D03*
X5410000Y-78420000D03*
X2870000Y-78420000D03*
X51130000Y-78420000D03*
X23190000Y-78420000D03*
X13030000Y-78420000D03*
X15570000Y-78420000D03*
X20650000Y-78420000D03*
X18110000Y-78420000D03*
X33350000Y-75880000D03*
X48590000Y-75880000D03*
X38430000Y-75880000D03*
X35890000Y-75880000D03*
X30810000Y-75880000D03*
X40970000Y-75880000D03*
X5410000Y-75880000D03*
X2870000Y-75880000D03*
X51130000Y-75880000D03*
X23190000Y-75880000D03*
X13030000Y-75880000D03*
X15570000Y-75880000D03*
X20650000Y-75880000D03*
X18110000Y-75880000D03*
X33350000Y-73340000D03*
X48590000Y-73340000D03*
X38430000Y-73340000D03*
X35890000Y-73340000D03*
X30810000Y-73340000D03*
X40970000Y-73340000D03*
X5410000Y-73340000D03*
X2870000Y-73340000D03*
X51130000Y-73340000D03*
X23190000Y-73340000D03*
X13030000Y-73340000D03*
X15570000Y-73340000D03*
X20650000Y-73340000D03*
X18110000Y-73340000D03*
X33350000Y-70800000D03*
X48590000Y-70800000D03*
X38430000Y-70800000D03*
X35890000Y-70800000D03*
X30810000Y-70800000D03*
X40970000Y-70800000D03*
X5410000Y-70800000D03*
X2870000Y-70800000D03*
X51130000Y-70800000D03*
X23190000Y-70800000D03*
X13030000Y-70800000D03*
X15570000Y-70800000D03*
X20650000Y-70800000D03*
X18110000Y-70800000D03*
X33350000Y-68260000D03*
X48590000Y-68260000D03*
X38430000Y-68260000D03*
X35890000Y-68260000D03*
X30810000Y-68260000D03*
X40970000Y-68260000D03*
X5410000Y-68260000D03*
X2870000Y-68260000D03*
X51130000Y-68260000D03*
X23190000Y-68260000D03*
X13030000Y-68260000D03*
X15570000Y-68260000D03*
X20650000Y-68260000D03*
X18110000Y-68260000D03*
X33350000Y-65720000D03*
X48590000Y-65720000D03*
X38430000Y-65720000D03*
X35890000Y-65720000D03*
X30810000Y-65720000D03*
X40970000Y-65720000D03*
X5410000Y-65720000D03*
X2870000Y-65720000D03*
X51130000Y-65720000D03*
X23190000Y-65720000D03*
X13030000Y-65720000D03*
X15570000Y-65720000D03*
X20650000Y-65720000D03*
X18110000Y-65720000D03*
X33350000Y-63180000D03*
X48590000Y-63180000D03*
X38430000Y-63180000D03*
X35890000Y-63180000D03*
X30810000Y-63180000D03*
X40970000Y-63180000D03*
X5410000Y-63180000D03*
X2870000Y-63180000D03*
X51130000Y-63180000D03*
X23190000Y-63180000D03*
X13030000Y-63180000D03*
X15570000Y-63180000D03*
X20650000Y-63180000D03*
X18110000Y-63180000D03*
X33350000Y-60640000D03*
X48590000Y-60640000D03*
X38430000Y-60640000D03*
X35890000Y-60640000D03*
X30810000Y-60640000D03*
X40970000Y-60640000D03*
X5410000Y-60640000D03*
X2870000Y-60640000D03*
X51130000Y-60640000D03*
X23190000Y-60640000D03*
X13030000Y-60640000D03*
X15570000Y-60640000D03*
X20650000Y-60640000D03*
X18110000Y-60640000D03*
X33350000Y-58100000D03*
X48590000Y-58100000D03*
X38430000Y-58100000D03*
X35890000Y-58100000D03*
X30810000Y-58100000D03*
X40970000Y-58100000D03*
X5410000Y-58100000D03*
X2870000Y-58100000D03*
X51130000Y-58100000D03*
X23190000Y-58100000D03*
X13030000Y-58100000D03*
X15570000Y-58100000D03*
X20650000Y-58100000D03*
X18110000Y-58100000D03*
X33350000Y-55560000D03*
X48590000Y-55560000D03*
X38430000Y-55560000D03*
X35890000Y-55560000D03*
X30810000Y-55560000D03*
X40970000Y-55560000D03*
X5410000Y-55560000D03*
X2870000Y-55560000D03*
X51130000Y-55560000D03*
X23190000Y-55560000D03*
X13030000Y-55560000D03*
X15570000Y-55560000D03*
X20650000Y-55560000D03*
X18110000Y-55560000D03*
X33350000Y-53020000D03*
X48590000Y-53020000D03*
X38430000Y-53020000D03*
X35890000Y-53020000D03*
X30810000Y-53020000D03*
X40970000Y-53020000D03*
X5410000Y-53020000D03*
X2870000Y-53020000D03*
X51130000Y-53020000D03*
X23190000Y-53020000D03*
X13030000Y-53020000D03*
X15570000Y-53020000D03*
X20650000Y-53020000D03*
X18110000Y-53020000D03*
X33350000Y-50480000D03*
X48590000Y-50480000D03*
X38430000Y-50480000D03*
X35890000Y-50480000D03*
X30810000Y-50480000D03*
X40970000Y-50480000D03*
X5410000Y-50480000D03*
X2870000Y-50480000D03*
X51130000Y-50480000D03*
X23190000Y-50480000D03*
X13030000Y-50480000D03*
X15570000Y-50480000D03*
X20650000Y-50480000D03*
X18110000Y-50480000D03*
X33350000Y-47940000D03*
X48590000Y-47940000D03*
X38430000Y-47940000D03*
X35890000Y-47940000D03*
X30810000Y-47940000D03*
X40970000Y-47940000D03*
X5410000Y-47940000D03*
X2870000Y-47940000D03*
X51130000Y-47940000D03*
X23190000Y-47940000D03*
X13030000Y-47940000D03*
X15570000Y-47940000D03*
X20650000Y-47940000D03*
X18110000Y-47940000D03*
X33350000Y-45400000D03*
X48590000Y-45400000D03*
X38430000Y-45400000D03*
X35890000Y-45400000D03*
X30810000Y-45400000D03*
X40970000Y-45400000D03*
X5410000Y-45400000D03*
X2870000Y-45400000D03*
X51130000Y-45400000D03*
X23190000Y-45400000D03*
X13030000Y-45400000D03*
X15570000Y-45400000D03*
X20650000Y-45400000D03*
X18110000Y-45400000D03*
X33350000Y-42860000D03*
X48590000Y-42860000D03*
X38430000Y-42860000D03*
X35890000Y-42860000D03*
X30810000Y-42860000D03*
X40970000Y-42860000D03*
X5410000Y-42860000D03*
X2870000Y-42860000D03*
X51130000Y-42860000D03*
X23190000Y-42860000D03*
X13030000Y-42860000D03*
X15570000Y-42860000D03*
X20650000Y-42860000D03*
X18110000Y-42860000D03*
X33350000Y-40320000D03*
X48590000Y-40320000D03*
X38430000Y-40320000D03*
X35890000Y-40320000D03*
X30810000Y-40320000D03*
X40970000Y-40320000D03*
X5410000Y-40320000D03*
X2870000Y-40320000D03*
X51130000Y-40320000D03*
X23190000Y-40320000D03*
X13030000Y-40320000D03*
X15570000Y-40320000D03*
X20650000Y-40320000D03*
X18110000Y-40320000D03*
X33350000Y-37780000D03*
X48590000Y-37780000D03*
X38430000Y-37780000D03*
X35890000Y-37780000D03*
X30810000Y-37780000D03*
X40970000Y-37780000D03*
X5410000Y-37780000D03*
X2870000Y-37780000D03*
X51130000Y-37780000D03*
X23190000Y-37780000D03*
X13030000Y-37780000D03*
X15570000Y-37780000D03*
X20650000Y-37780000D03*
X18110000Y-37780000D03*
X33350000Y-25080000D03*
X48590000Y-25080000D03*
X38430000Y-25080000D03*
X35890000Y-25080000D03*
X30810000Y-25080000D03*
X40970000Y-25080000D03*
X5410000Y-25080000D03*
X2870000Y-25080000D03*
X51130000Y-25080000D03*
X23190000Y-25080000D03*
X13030000Y-25080000D03*
X15570000Y-25080000D03*
X20650000Y-25080000D03*
X18110000Y-25080000D03*
X33350000Y-27620000D03*
X48590000Y-27620000D03*
X38430000Y-27620000D03*
X35890000Y-27620000D03*
X30810000Y-27620000D03*
X40970000Y-27620000D03*
X5410000Y-27620000D03*
X2870000Y-27620000D03*
X51130000Y-27620000D03*
X23190000Y-27620000D03*
X13030000Y-27620000D03*
X15570000Y-27620000D03*
X20650000Y-27620000D03*
X18110000Y-27620000D03*
X33350000Y-30160000D03*
X48590000Y-30160000D03*
X38430000Y-30160000D03*
X35890000Y-30160000D03*
X30810000Y-30160000D03*
X40970000Y-30160000D03*
X5410000Y-30160000D03*
X2870000Y-30160000D03*
X51130000Y-30160000D03*
X23190000Y-30160000D03*
X13030000Y-30160000D03*
X15570000Y-30160000D03*
X20650000Y-30160000D03*
X18110000Y-30160000D03*
X33350000Y-32700000D03*
X48590000Y-32700000D03*
X38430000Y-32700000D03*
X35890000Y-32700000D03*
X30810000Y-32700000D03*
X40970000Y-32700000D03*
X5410000Y-32700000D03*
X2870000Y-32700000D03*
X51130000Y-32700000D03*
X23190000Y-32700000D03*
X13030000Y-32700000D03*
X15570000Y-32700000D03*
X20650000Y-32700000D03*
X18110000Y-32700000D03*
X33350000Y-35240000D03*
X48590000Y-35240000D03*
X38430000Y-35240000D03*
X35890000Y-35240000D03*
X30810000Y-35240000D03*
X40970000Y-35240000D03*
X5410000Y-35240000D03*
X2870000Y-35240000D03*
X51130000Y-35240000D03*
X23190000Y-35240000D03*
X13030000Y-35240000D03*
X15570000Y-35240000D03*
X20650000Y-35240000D03*
X18110000Y-35240000D03*
%TD*%
D12*
%TO.C,REF\u002A\u002A*%
X49000000Y-16000000D03*
%TD*%
%TO.C,REF\u002A\u002A*%
X5000000Y-16000000D03*
%TD*%
%TO.C,J9*%
G36*
G01*
X10100000Y-15350000D02*
X10100000Y-13650000D01*
G75*
G02*
X10150000Y-13600000I50000J0D01*
G01*
X11850000Y-13600000D01*
G75*
G02*
X11900000Y-13650000I0J-50000D01*
G01*
X11900000Y-15350000D01*
G75*
G02*
X11850000Y-15400000I-50000J0D01*
G01*
X10150000Y-15400000D01*
G75*
G02*
X10100000Y-15350000I0J50000D01*
G01*
G37*
D11*
X11000000Y-17040000D03*
X13540000Y-17040000D03*
X11000000Y-19580000D03*
%TD*%
%TO.C,J8*%
G36*
G01*
X43900000Y-18650000D02*
X43900000Y-20350000D01*
G75*
G02*
X43850000Y-20400000I-50000J0D01*
G01*
X42150000Y-20400000D01*
G75*
G02*
X42100000Y-20350000I0J50000D01*
G01*
X42100000Y-18650000D01*
G75*
G02*
X42150000Y-18600000I50000J0D01*
G01*
X43850000Y-18600000D01*
G75*
G02*
X43900000Y-18650000I0J-50000D01*
G01*
G37*
X43000000Y-16960000D03*
X40460000Y-16960000D03*
X43000000Y-14420000D03*
%TD*%
D13*
%TO.C,J5*%
X7905000Y-8000000D03*
X4095000Y-8000000D03*
%TD*%
D14*
%TO.C,J2*%
X17900000Y-4600000D03*
D15*
X19075000Y-7400000D03*
X23925000Y-7400000D03*
D14*
X17900000Y-4600000D03*
X25100000Y-4600000D03*
%TD*%
D12*
%TO.C,REF\u002A\u002A*%
X5000000Y-96000000D03*
%TD*%
%TO.C,REF\u002A\u002A*%
X49000000Y-96000000D03*
%TD*%
M02*
