%TF.GenerationSoftware,KiCad,Pcbnew,(5.1.7)-1*%
%TF.CreationDate,2021-03-20T18:42:02+01:00*%
%TF.ProjectId,MicroBBPS,4d696372-6f42-4425-9053-2e6b69636164,rev?*%
%TF.SameCoordinates,Original*%
%TF.FileFunction,Paste,Top*%
%TF.FilePolarity,Positive*%
%FSLAX46Y46*%
G04 Gerber Fmt 4.6, Leading zero omitted, Abs format (unit mm)*
G04 Created by KiCad (PCBNEW (5.1.7)-1) date 2021-03-20 18:42:02*
%MOMM*%
%LPD*%
G01*
G04 APERTURE LIST*
%TA.AperFunction,Profile*%
%ADD10C,0.050000*%
%TD*%
%ADD11C,0.100000*%
%ADD12R,3.800000X2.000000*%
%ADD13R,1.500000X2.000000*%
%ADD14R,0.400000X1.250000*%
%ADD15R,1.800000X2.500000*%
G04 APERTURE END LIST*
D10*
X53000000Y-24000000D02*
X54000000Y-23000000D01*
X47000000Y-24000000D02*
X53000000Y-24000000D01*
X46000000Y-23000000D02*
X47000000Y-24000000D01*
X8000000Y-23000000D02*
X46000000Y-23000000D01*
X7000000Y-24000000D02*
X8000000Y-23000000D01*
X1000000Y-24000000D02*
X7000000Y-24000000D01*
X0Y-23000000D02*
X1000000Y-24000000D01*
X12000000Y-2000000D02*
X10000000Y0D01*
X0Y-2000000D02*
X2000000Y0D01*
X0Y-23000000D02*
X0Y-2000000D01*
X54000000Y-4000000D02*
X54000000Y-23000000D01*
X52000000Y-2000000D02*
X54000000Y-4000000D01*
X12000000Y-2000000D02*
X52000000Y-2000000D01*
X2000000Y0D02*
X10000000Y0D01*
D11*
%TO.C,J2*%
G36*
X17600000Y-5500000D02*
G01*
X16450000Y-5500000D01*
X16450000Y-3700000D01*
X17600000Y-3700000D01*
X17600000Y-5500000D01*
G37*
X17600000Y-5500000D02*
X16450000Y-5500000D01*
X16450000Y-3700000D01*
X17600000Y-3700000D01*
X17600000Y-5500000D01*
G36*
X25400000Y-3750000D02*
G01*
X26500000Y-3750000D01*
X26500000Y-5500000D01*
X25400000Y-5500000D01*
X25400000Y-3750000D01*
G37*
X25400000Y-3750000D02*
X26500000Y-3750000D01*
X26500000Y-5500000D01*
X25400000Y-5500000D01*
X25400000Y-3750000D01*
%TD*%
D12*
%TO.C,U3*%
X23000000Y-13850000D03*
D13*
X23000000Y-20150000D03*
X25300000Y-20150000D03*
X20700000Y-20150000D03*
%TD*%
D12*
%TO.C,U1*%
X31000000Y-13850000D03*
D13*
X31000000Y-20150000D03*
X33300000Y-20150000D03*
X28700000Y-20150000D03*
%TD*%
%TO.C,R2*%
G36*
G01*
X14950000Y-10875000D02*
X14950000Y-12125000D01*
G75*
G02*
X14700000Y-12375000I-250000J0D01*
G01*
X13900000Y-12375000D01*
G75*
G02*
X13650000Y-12125000I0J250000D01*
G01*
X13650000Y-10875000D01*
G75*
G02*
X13900000Y-10625000I250000J0D01*
G01*
X14700000Y-10625000D01*
G75*
G02*
X14950000Y-10875000I0J-250000D01*
G01*
G37*
G36*
G01*
X11850000Y-10875000D02*
X11850000Y-12125000D01*
G75*
G02*
X11600000Y-12375000I-250000J0D01*
G01*
X10800000Y-12375000D01*
G75*
G02*
X10550000Y-12125000I0J250000D01*
G01*
X10550000Y-10875000D01*
G75*
G02*
X10800000Y-10625000I250000J0D01*
G01*
X11600000Y-10625000D01*
G75*
G02*
X11850000Y-10875000I0J-250000D01*
G01*
G37*
%TD*%
%TO.C,R1*%
G36*
G01*
X39050000Y-12125000D02*
X39050000Y-10875000D01*
G75*
G02*
X39300000Y-10625000I250000J0D01*
G01*
X40100000Y-10625000D01*
G75*
G02*
X40350000Y-10875000I0J-250000D01*
G01*
X40350000Y-12125000D01*
G75*
G02*
X40100000Y-12375000I-250000J0D01*
G01*
X39300000Y-12375000D01*
G75*
G02*
X39050000Y-12125000I0J250000D01*
G01*
G37*
G36*
G01*
X42150000Y-12125000D02*
X42150000Y-10875000D01*
G75*
G02*
X42400000Y-10625000I250000J0D01*
G01*
X43200000Y-10625000D01*
G75*
G02*
X43450000Y-10875000I0J-250000D01*
G01*
X43450000Y-12125000D01*
G75*
G02*
X43200000Y-12375000I-250000J0D01*
G01*
X42400000Y-12375000D01*
G75*
G02*
X42150000Y-12125000I0J250000D01*
G01*
G37*
%TD*%
%TO.C,J2*%
G36*
G01*
X23000000Y-4100000D02*
X23000000Y-5100000D01*
G75*
G02*
X22500000Y-5600000I-500000J0D01*
G01*
X20500000Y-5600000D01*
G75*
G02*
X20000000Y-5100000I0J500000D01*
G01*
X20000000Y-4100000D01*
G75*
G02*
X20500000Y-3600000I500000J0D01*
G01*
X22500000Y-3600000D01*
G75*
G02*
X23000000Y-4100000I0J-500000D01*
G01*
G37*
D14*
X20150000Y-7400000D03*
X20850000Y-7400000D03*
X21500000Y-7400000D03*
X22150000Y-7400000D03*
X22800000Y-7400000D03*
%TD*%
%TO.C,D3*%
G36*
G01*
X38200000Y-10875000D02*
X38200000Y-12125000D01*
G75*
G02*
X37950000Y-12375000I-250000J0D01*
G01*
X37025000Y-12375000D01*
G75*
G02*
X36775000Y-12125000I0J250000D01*
G01*
X36775000Y-10875000D01*
G75*
G02*
X37025000Y-10625000I250000J0D01*
G01*
X37950000Y-10625000D01*
G75*
G02*
X38200000Y-10875000I0J-250000D01*
G01*
G37*
G36*
G01*
X35225000Y-10875000D02*
X35225000Y-12125000D01*
G75*
G02*
X34975000Y-12375000I-250000J0D01*
G01*
X34050000Y-12375000D01*
G75*
G02*
X33800000Y-12125000I0J250000D01*
G01*
X33800000Y-10875000D01*
G75*
G02*
X34050000Y-10625000I250000J0D01*
G01*
X34975000Y-10625000D01*
G75*
G02*
X35225000Y-10875000I0J-250000D01*
G01*
G37*
%TD*%
D15*
%TO.C,D2*%
X13850000Y-4750000D03*
X13850000Y-8750000D03*
%TD*%
%TO.C,D1*%
G36*
G01*
X15800000Y-12125000D02*
X15800000Y-10875000D01*
G75*
G02*
X16050000Y-10625000I250000J0D01*
G01*
X16975000Y-10625000D01*
G75*
G02*
X17225000Y-10875000I0J-250000D01*
G01*
X17225000Y-12125000D01*
G75*
G02*
X16975000Y-12375000I-250000J0D01*
G01*
X16050000Y-12375000D01*
G75*
G02*
X15800000Y-12125000I0J250000D01*
G01*
G37*
G36*
G01*
X18775000Y-12125000D02*
X18775000Y-10875000D01*
G75*
G02*
X19025000Y-10625000I250000J0D01*
G01*
X19950000Y-10625000D01*
G75*
G02*
X20200000Y-10875000I0J-250000D01*
G01*
X20200000Y-12125000D01*
G75*
G02*
X19950000Y-12375000I-250000J0D01*
G01*
X19025000Y-12375000D01*
G75*
G02*
X18775000Y-12125000I0J250000D01*
G01*
G37*
%TD*%
%TO.C,C8*%
G36*
G01*
X31300000Y-9350000D02*
X30200000Y-9350000D01*
G75*
G02*
X29950000Y-9100000I0J250000D01*
G01*
X29950000Y-7000000D01*
G75*
G02*
X30200000Y-6750000I250000J0D01*
G01*
X31300000Y-6750000D01*
G75*
G02*
X31550000Y-7000000I0J-250000D01*
G01*
X31550000Y-9100000D01*
G75*
G02*
X31300000Y-9350000I-250000J0D01*
G01*
G37*
G36*
G01*
X31300000Y-5750000D02*
X30200000Y-5750000D01*
G75*
G02*
X29950000Y-5500000I0J250000D01*
G01*
X29950000Y-3400000D01*
G75*
G02*
X30200000Y-3150000I250000J0D01*
G01*
X31300000Y-3150000D01*
G75*
G02*
X31550000Y-3400000I0J-250000D01*
G01*
X31550000Y-5500000D01*
G75*
G02*
X31300000Y-5750000I-250000J0D01*
G01*
G37*
%TD*%
%TO.C,C7*%
G36*
G01*
X37800000Y-9350000D02*
X36700000Y-9350000D01*
G75*
G02*
X36450000Y-9100000I0J250000D01*
G01*
X36450000Y-7000000D01*
G75*
G02*
X36700000Y-6750000I250000J0D01*
G01*
X37800000Y-6750000D01*
G75*
G02*
X38050000Y-7000000I0J-250000D01*
G01*
X38050000Y-9100000D01*
G75*
G02*
X37800000Y-9350000I-250000J0D01*
G01*
G37*
G36*
G01*
X37800000Y-5750000D02*
X36700000Y-5750000D01*
G75*
G02*
X36450000Y-5500000I0J250000D01*
G01*
X36450000Y-3400000D01*
G75*
G02*
X36700000Y-3150000I250000J0D01*
G01*
X37800000Y-3150000D01*
G75*
G02*
X38050000Y-3400000I0J-250000D01*
G01*
X38050000Y-5500000D01*
G75*
G02*
X37800000Y-5750000I-250000J0D01*
G01*
G37*
%TD*%
%TO.C,C6*%
G36*
G01*
X44300000Y-9350000D02*
X43200000Y-9350000D01*
G75*
G02*
X42950000Y-9100000I0J250000D01*
G01*
X42950000Y-7000000D01*
G75*
G02*
X43200000Y-6750000I250000J0D01*
G01*
X44300000Y-6750000D01*
G75*
G02*
X44550000Y-7000000I0J-250000D01*
G01*
X44550000Y-9100000D01*
G75*
G02*
X44300000Y-9350000I-250000J0D01*
G01*
G37*
G36*
G01*
X44300000Y-5750000D02*
X43200000Y-5750000D01*
G75*
G02*
X42950000Y-5500000I0J250000D01*
G01*
X42950000Y-3400000D01*
G75*
G02*
X43200000Y-3150000I250000J0D01*
G01*
X44300000Y-3150000D01*
G75*
G02*
X44550000Y-3400000I0J-250000D01*
G01*
X44550000Y-5500000D01*
G75*
G02*
X44300000Y-5750000I-250000J0D01*
G01*
G37*
%TD*%
%TO.C,C5*%
G36*
G01*
X50800000Y-9350000D02*
X49700000Y-9350000D01*
G75*
G02*
X49450000Y-9100000I0J250000D01*
G01*
X49450000Y-7000000D01*
G75*
G02*
X49700000Y-6750000I250000J0D01*
G01*
X50800000Y-6750000D01*
G75*
G02*
X51050000Y-7000000I0J-250000D01*
G01*
X51050000Y-9100000D01*
G75*
G02*
X50800000Y-9350000I-250000J0D01*
G01*
G37*
G36*
G01*
X50800000Y-5750000D02*
X49700000Y-5750000D01*
G75*
G02*
X49450000Y-5500000I0J250000D01*
G01*
X49450000Y-3400000D01*
G75*
G02*
X49700000Y-3150000I250000J0D01*
G01*
X50800000Y-3150000D01*
G75*
G02*
X51050000Y-3400000I0J-250000D01*
G01*
X51050000Y-5500000D01*
G75*
G02*
X50800000Y-5750000I-250000J0D01*
G01*
G37*
%TD*%
%TO.C,C4*%
G36*
G01*
X20225000Y-13099999D02*
X20225000Y-14400001D01*
G75*
G02*
X19975001Y-14650000I-249999J0D01*
G01*
X19149999Y-14650000D01*
G75*
G02*
X18900000Y-14400001I0J249999D01*
G01*
X18900000Y-13099999D01*
G75*
G02*
X19149999Y-12850000I249999J0D01*
G01*
X19975001Y-12850000D01*
G75*
G02*
X20225000Y-13099999I0J-249999D01*
G01*
G37*
G36*
G01*
X17100000Y-13099999D02*
X17100000Y-14400001D01*
G75*
G02*
X16850001Y-14650000I-249999J0D01*
G01*
X16024999Y-14650000D01*
G75*
G02*
X15775000Y-14400001I0J249999D01*
G01*
X15775000Y-13099999D01*
G75*
G02*
X16024999Y-12850000I249999J0D01*
G01*
X16850001Y-12850000D01*
G75*
G02*
X17100000Y-13099999I0J-249999D01*
G01*
G37*
%TD*%
%TO.C,C3*%
G36*
G01*
X38400000Y-20900001D02*
X38400000Y-19599999D01*
G75*
G02*
X38649999Y-19350000I249999J0D01*
G01*
X39475001Y-19350000D01*
G75*
G02*
X39725000Y-19599999I0J-249999D01*
G01*
X39725000Y-20900001D01*
G75*
G02*
X39475001Y-21150000I-249999J0D01*
G01*
X38649999Y-21150000D01*
G75*
G02*
X38400000Y-20900001I0J249999D01*
G01*
G37*
G36*
G01*
X35275000Y-20900001D02*
X35275000Y-19599999D01*
G75*
G02*
X35524999Y-19350000I249999J0D01*
G01*
X36350001Y-19350000D01*
G75*
G02*
X36600000Y-19599999I0J-249999D01*
G01*
X36600000Y-20900001D01*
G75*
G02*
X36350001Y-21150000I-249999J0D01*
G01*
X35524999Y-21150000D01*
G75*
G02*
X35275000Y-20900001I0J249999D01*
G01*
G37*
%TD*%
%TO.C,C2*%
G36*
G01*
X33775000Y-14400001D02*
X33775000Y-13099999D01*
G75*
G02*
X34024999Y-12850000I249999J0D01*
G01*
X34850001Y-12850000D01*
G75*
G02*
X35100000Y-13099999I0J-249999D01*
G01*
X35100000Y-14400001D01*
G75*
G02*
X34850001Y-14650000I-249999J0D01*
G01*
X34024999Y-14650000D01*
G75*
G02*
X33775000Y-14400001I0J249999D01*
G01*
G37*
G36*
G01*
X36900000Y-14400001D02*
X36900000Y-13099999D01*
G75*
G02*
X37149999Y-12850000I249999J0D01*
G01*
X37975001Y-12850000D01*
G75*
G02*
X38225000Y-13099999I0J-249999D01*
G01*
X38225000Y-14400001D01*
G75*
G02*
X37975001Y-14650000I-249999J0D01*
G01*
X37149999Y-14650000D01*
G75*
G02*
X36900000Y-14400001I0J249999D01*
G01*
G37*
%TD*%
%TO.C,C1*%
G36*
G01*
X15600000Y-19599999D02*
X15600000Y-20900001D01*
G75*
G02*
X15350001Y-21150000I-249999J0D01*
G01*
X14524999Y-21150000D01*
G75*
G02*
X14275000Y-20900001I0J249999D01*
G01*
X14275000Y-19599999D01*
G75*
G02*
X14524999Y-19350000I249999J0D01*
G01*
X15350001Y-19350000D01*
G75*
G02*
X15600000Y-19599999I0J-249999D01*
G01*
G37*
G36*
G01*
X18725000Y-19599999D02*
X18725000Y-20900001D01*
G75*
G02*
X18475001Y-21150000I-249999J0D01*
G01*
X17649999Y-21150000D01*
G75*
G02*
X17400000Y-20900001I0J249999D01*
G01*
X17400000Y-19599999D01*
G75*
G02*
X17649999Y-19350000I249999J0D01*
G01*
X18475001Y-19350000D01*
G75*
G02*
X18725000Y-19599999I0J-249999D01*
G01*
G37*
%TD*%
M02*
