%TF.GenerationSoftware,KiCad,Pcbnew,(5.1.7)-1*%
%TF.CreationDate,2021-01-09T19:34:55+01:00*%
%TF.ProjectId,MicroBBPS,4d696372-6f42-4425-9053-2e6b69636164,rev?*%
%TF.SameCoordinates,Original*%
%TF.FileFunction,Soldermask,Top*%
%TF.FilePolarity,Negative*%
%FSLAX46Y46*%
G04 Gerber Fmt 4.6, Leading zero omitted, Abs format (unit mm)*
G04 Created by KiCad (PCBNEW (5.1.7)-1) date 2021-01-09 19:34:55*
%MOMM*%
%LPD*%
G01*
G04 APERTURE LIST*
%ADD10C,0.100000*%
%ADD11C,0.120000*%
%ADD12C,2.800000*%
%ADD13O,1.200000X1.900000*%
%ADD14C,1.390000*%
%ADD15O,1.800000X1.800000*%
G04 APERTURE END LIST*
D10*
G36*
X6096000Y-2540000D02*
G01*
X5715000Y-2921000D01*
X5334000Y-2540000D01*
X5715000Y-2159000D01*
X6096000Y-2540000D01*
G37*
X6096000Y-2540000D02*
X5715000Y-2921000D01*
X5334000Y-2540000D01*
X5715000Y-2159000D01*
X6096000Y-2540000D01*
G36*
X5461000Y-3175000D02*
G01*
X5080000Y-3556000D01*
X4699000Y-3175000D01*
X5080000Y-2794000D01*
X5461000Y-3175000D01*
G37*
X5461000Y-3175000D02*
X5080000Y-3556000D01*
X4699000Y-3175000D01*
X5080000Y-2794000D01*
X5461000Y-3175000D01*
G36*
X6096000Y-3810000D02*
G01*
X5715000Y-4191000D01*
X5334000Y-3810000D01*
X5715000Y-3429000D01*
X6096000Y-3810000D01*
G37*
X6096000Y-3810000D02*
X5715000Y-4191000D01*
X5334000Y-3810000D01*
X5715000Y-3429000D01*
X6096000Y-3810000D01*
G36*
X6731000Y-3175000D02*
G01*
X6350000Y-3556000D01*
X5969000Y-3175000D01*
X6350000Y-2794000D01*
X6731000Y-3175000D01*
G37*
X6731000Y-3175000D02*
X6350000Y-3556000D01*
X5969000Y-3175000D01*
X6350000Y-2794000D01*
X6731000Y-3175000D01*
G36*
X6096000Y635000D02*
G01*
X5715000Y254000D01*
X5334000Y635000D01*
X5715000Y1016000D01*
X6096000Y635000D01*
G37*
X6096000Y635000D02*
X5715000Y254000D01*
X5334000Y635000D01*
X5715000Y1016000D01*
X6096000Y635000D01*
G36*
X6731000Y1270000D02*
G01*
X6350000Y889000D01*
X5969000Y1270000D01*
X6350000Y1651000D01*
X6731000Y1270000D01*
G37*
X6731000Y1270000D02*
X6350000Y889000D01*
X5969000Y1270000D01*
X6350000Y1651000D01*
X6731000Y1270000D01*
G36*
X5461000Y1270000D02*
G01*
X5080000Y889000D01*
X4699000Y1270000D01*
X5080000Y1651000D01*
X5461000Y1270000D01*
G37*
X5461000Y1270000D02*
X5080000Y889000D01*
X4699000Y1270000D01*
X5080000Y1651000D01*
X5461000Y1270000D01*
G36*
X6096000Y1905000D02*
G01*
X5715000Y1524000D01*
X5334000Y1905000D01*
X5715000Y2286000D01*
X6096000Y1905000D01*
G37*
X6096000Y1905000D02*
X5715000Y1524000D01*
X5334000Y1905000D01*
X5715000Y2286000D01*
X6096000Y1905000D01*
D11*
%TO.C,J2*%
X19348000Y12032000D02*
X20748000Y12032000D01*
X19348000Y10332000D02*
X20748000Y10332000D01*
X20748000Y12032000D02*
X20748000Y10332000D01*
D10*
G36*
X20748000Y10332000D02*
G01*
X19348000Y10332000D01*
X19348000Y12032000D01*
X20748000Y12032000D01*
X20748000Y10332000D01*
G37*
X20748000Y10332000D02*
X19348000Y10332000D01*
X19348000Y12032000D01*
X20748000Y12032000D01*
X20748000Y10332000D01*
D11*
X12148000Y12032000D02*
X10748000Y12032000D01*
X10748000Y10332000D02*
X10748000Y12032000D01*
D10*
G36*
X10748000Y12032000D02*
G01*
X12148000Y12032000D01*
X12148000Y10332000D01*
X10748000Y10332000D01*
X10748000Y12032000D01*
G37*
X10748000Y12032000D02*
X12148000Y12032000D01*
X12148000Y10332000D01*
X10748000Y10332000D01*
X10748000Y12032000D01*
D11*
X12148000Y10332000D02*
X10748000Y10332000D01*
%TD*%
D12*
%TO.C,J5*%
X1195000Y8200000D03*
X5005000Y8200000D03*
%TD*%
%TO.C,D3*%
G36*
G01*
X18550000Y1400000D02*
X20950000Y1400000D01*
G75*
G02*
X21000000Y1350000I0J-50000D01*
G01*
X21000000Y350000D01*
G75*
G02*
X20950000Y300000I-50000J0D01*
G01*
X18550000Y300000D01*
G75*
G02*
X18500000Y350000I0J50000D01*
G01*
X18500000Y1350000D01*
G75*
G02*
X18550000Y1400000I50000J0D01*
G01*
G37*
G36*
G01*
X20950000Y-1400000D02*
X18550000Y-1400000D01*
G75*
G02*
X18500000Y-1350000I0J50000D01*
G01*
X18500000Y-350000D01*
G75*
G02*
X18550000Y-300000I50000J0D01*
G01*
X20950000Y-300000D01*
G75*
G02*
X21000000Y-350000I0J-50000D01*
G01*
X21000000Y-1350000D01*
G75*
G02*
X20950000Y-1400000I-50000J0D01*
G01*
G37*
%TD*%
%TO.C,D1*%
G36*
G01*
X27300000Y1400000D02*
X29700000Y1400000D01*
G75*
G02*
X29750000Y1350000I0J-50000D01*
G01*
X29750000Y350000D01*
G75*
G02*
X29700000Y300000I-50000J0D01*
G01*
X27300000Y300000D01*
G75*
G02*
X27250000Y350000I0J50000D01*
G01*
X27250000Y1350000D01*
G75*
G02*
X27300000Y1400000I50000J0D01*
G01*
G37*
G36*
G01*
X29700000Y-1400000D02*
X27300000Y-1400000D01*
G75*
G02*
X27250000Y-1350000I0J50000D01*
G01*
X27250000Y-350000D01*
G75*
G02*
X27300000Y-300000I50000J0D01*
G01*
X29700000Y-300000D01*
G75*
G02*
X29750000Y-350000I0J-50000D01*
G01*
X29750000Y-1350000D01*
G75*
G02*
X29700000Y-1400000I-50000J0D01*
G01*
G37*
%TD*%
%TO.C,D2*%
G36*
G01*
X10933000Y4637000D02*
X9133000Y4637000D01*
G75*
G02*
X9083000Y4687000I0J50000D01*
G01*
X9083000Y7187000D01*
G75*
G02*
X9133000Y7237000I50000J0D01*
G01*
X10933000Y7237000D01*
G75*
G02*
X10983000Y7187000I0J-50000D01*
G01*
X10983000Y4687000D01*
G75*
G02*
X10933000Y4637000I-50000J0D01*
G01*
G37*
G36*
G01*
X10933000Y637000D02*
X9133000Y637000D01*
G75*
G02*
X9083000Y687000I0J50000D01*
G01*
X9083000Y3187000D01*
G75*
G02*
X9133000Y3237000I50000J0D01*
G01*
X10933000Y3237000D01*
G75*
G02*
X10983000Y3187000I0J-50000D01*
G01*
X10983000Y687000D01*
G75*
G02*
X10933000Y637000I-50000J0D01*
G01*
G37*
%TD*%
%TO.C,C8*%
G36*
G01*
X45669375Y9340000D02*
X44500625Y9340000D01*
G75*
G02*
X44235000Y9605625I0J265625D01*
G01*
X44235000Y11774375D01*
G75*
G02*
X44500625Y12040000I265625J0D01*
G01*
X45669375Y12040000D01*
G75*
G02*
X45935000Y11774375I0J-265625D01*
G01*
X45935000Y9605625D01*
G75*
G02*
X45669375Y9340000I-265625J0D01*
G01*
G37*
G36*
G01*
X45669375Y5740000D02*
X44500625Y5740000D01*
G75*
G02*
X44235000Y6005625I0J265625D01*
G01*
X44235000Y8174375D01*
G75*
G02*
X44500625Y8440000I265625J0D01*
G01*
X45669375Y8440000D01*
G75*
G02*
X45935000Y8174375I0J-265625D01*
G01*
X45935000Y6005625D01*
G75*
G02*
X45669375Y5740000I-265625J0D01*
G01*
G37*
%TD*%
%TO.C,C7*%
G36*
G01*
X39954375Y9340000D02*
X38785625Y9340000D01*
G75*
G02*
X38520000Y9605625I0J265625D01*
G01*
X38520000Y11774375D01*
G75*
G02*
X38785625Y12040000I265625J0D01*
G01*
X39954375Y12040000D01*
G75*
G02*
X40220000Y11774375I0J-265625D01*
G01*
X40220000Y9605625D01*
G75*
G02*
X39954375Y9340000I-265625J0D01*
G01*
G37*
G36*
G01*
X39954375Y5740000D02*
X38785625Y5740000D01*
G75*
G02*
X38520000Y6005625I0J265625D01*
G01*
X38520000Y8174375D01*
G75*
G02*
X38785625Y8440000I265625J0D01*
G01*
X39954375Y8440000D01*
G75*
G02*
X40220000Y8174375I0J-265625D01*
G01*
X40220000Y6005625D01*
G75*
G02*
X39954375Y5740000I-265625J0D01*
G01*
G37*
%TD*%
%TO.C,C6*%
G36*
G01*
X34239375Y9340000D02*
X33070625Y9340000D01*
G75*
G02*
X32805000Y9605625I0J265625D01*
G01*
X32805000Y11774375D01*
G75*
G02*
X33070625Y12040000I265625J0D01*
G01*
X34239375Y12040000D01*
G75*
G02*
X34505000Y11774375I0J-265625D01*
G01*
X34505000Y9605625D01*
G75*
G02*
X34239375Y9340000I-265625J0D01*
G01*
G37*
G36*
G01*
X34239375Y5740000D02*
X33070625Y5740000D01*
G75*
G02*
X32805000Y6005625I0J265625D01*
G01*
X32805000Y8174375D01*
G75*
G02*
X33070625Y8440000I265625J0D01*
G01*
X34239375Y8440000D01*
G75*
G02*
X34505000Y8174375I0J-265625D01*
G01*
X34505000Y6005625D01*
G75*
G02*
X34239375Y5740000I-265625J0D01*
G01*
G37*
%TD*%
%TO.C,C5*%
G36*
G01*
X28524375Y9340000D02*
X27355625Y9340000D01*
G75*
G02*
X27090000Y9605625I0J265625D01*
G01*
X27090000Y11774375D01*
G75*
G02*
X27355625Y12040000I265625J0D01*
G01*
X28524375Y12040000D01*
G75*
G02*
X28790000Y11774375I0J-265625D01*
G01*
X28790000Y9605625D01*
G75*
G02*
X28524375Y9340000I-265625J0D01*
G01*
G37*
G36*
G01*
X28524375Y5740000D02*
X27355625Y5740000D01*
G75*
G02*
X27090000Y6005625I0J265625D01*
G01*
X27090000Y8174375D01*
G75*
G02*
X27355625Y8440000I265625J0D01*
G01*
X28524375Y8440000D01*
G75*
G02*
X28790000Y8174375I0J-265625D01*
G01*
X28790000Y6005625D01*
G75*
G02*
X28524375Y5740000I-265625J0D01*
G01*
G37*
%TD*%
D13*
%TO.C,J2*%
X19348000Y11182000D03*
X12148000Y11182000D03*
D14*
X18173000Y8382000D03*
X13323000Y8382000D03*
G36*
G01*
X16798000Y7757000D02*
X16798000Y9007000D01*
G75*
G02*
X16848000Y9057000I50000J0D01*
G01*
X17248000Y9057000D01*
G75*
G02*
X17298000Y9007000I0J-50000D01*
G01*
X17298000Y7757000D01*
G75*
G02*
X17248000Y7707000I-50000J0D01*
G01*
X16848000Y7707000D01*
G75*
G02*
X16798000Y7757000I0J50000D01*
G01*
G37*
G36*
G01*
X16148000Y7757000D02*
X16148000Y9007000D01*
G75*
G02*
X16198000Y9057000I50000J0D01*
G01*
X16598000Y9057000D01*
G75*
G02*
X16648000Y9007000I0J-50000D01*
G01*
X16648000Y7757000D01*
G75*
G02*
X16598000Y7707000I-50000J0D01*
G01*
X16198000Y7707000D01*
G75*
G02*
X16148000Y7757000I0J50000D01*
G01*
G37*
G36*
G01*
X15498000Y7757000D02*
X15498000Y9007000D01*
G75*
G02*
X15548000Y9057000I50000J0D01*
G01*
X15948000Y9057000D01*
G75*
G02*
X15998000Y9007000I0J-50000D01*
G01*
X15998000Y7757000D01*
G75*
G02*
X15948000Y7707000I-50000J0D01*
G01*
X15548000Y7707000D01*
G75*
G02*
X15498000Y7757000I0J50000D01*
G01*
G37*
G36*
G01*
X14848000Y7757000D02*
X14848000Y9007000D01*
G75*
G02*
X14898000Y9057000I50000J0D01*
G01*
X15298000Y9057000D01*
G75*
G02*
X15348000Y9007000I0J-50000D01*
G01*
X15348000Y7757000D01*
G75*
G02*
X15298000Y7707000I-50000J0D01*
G01*
X14898000Y7707000D01*
G75*
G02*
X14848000Y7757000I0J50000D01*
G01*
G37*
G36*
G01*
X14148000Y7757000D02*
X14148000Y9007000D01*
G75*
G02*
X14198000Y9057000I50000J0D01*
G01*
X14598000Y9057000D01*
G75*
G02*
X14648000Y9007000I0J-50000D01*
G01*
X14648000Y7757000D01*
G75*
G02*
X14598000Y7707000I-50000J0D01*
G01*
X14198000Y7707000D01*
G75*
G02*
X14148000Y7757000I0J50000D01*
G01*
G37*
G36*
G01*
X17298000Y11707000D02*
X17298000Y10657000D01*
G75*
G02*
X16773000Y10132000I-525000J0D01*
G01*
X14723000Y10132000D01*
G75*
G02*
X14198000Y10657000I0J525000D01*
G01*
X14198000Y11707000D01*
G75*
G02*
X14723000Y12232000I525000J0D01*
G01*
X16773000Y12232000D01*
G75*
G02*
X17298000Y11707000I0J-525000D01*
G01*
G37*
D13*
X12148000Y11182000D03*
%TD*%
D15*
%TO.C,J9*%
X40355000Y-7620000D03*
X37815000Y-5080000D03*
X37815000Y-7620000D03*
G36*
G01*
X36125000Y-8520000D02*
X34425000Y-8520000D01*
G75*
G02*
X34375000Y-8470000I0J50000D01*
G01*
X34375000Y-6770000D01*
G75*
G02*
X34425000Y-6720000I50000J0D01*
G01*
X36125000Y-6720000D01*
G75*
G02*
X36175000Y-6770000I0J-50000D01*
G01*
X36175000Y-8470000D01*
G75*
G02*
X36125000Y-8520000I-50000J0D01*
G01*
G37*
%TD*%
%TO.C,J8*%
X13280000Y-7620000D03*
X10740000Y-5080000D03*
X10740000Y-7620000D03*
G36*
G01*
X9050000Y-8520000D02*
X7350000Y-8520000D01*
G75*
G02*
X7300000Y-8470000I0J50000D01*
G01*
X7300000Y-6770000D01*
G75*
G02*
X7350000Y-6720000I50000J0D01*
G01*
X9050000Y-6720000D01*
G75*
G02*
X9100000Y-6770000I0J-50000D01*
G01*
X9100000Y-8470000D01*
G75*
G02*
X9050000Y-8520000I-50000J0D01*
G01*
G37*
%TD*%
%TO.C,F2*%
G36*
G01*
X31075000Y-725000D02*
X32385000Y-725000D01*
G75*
G02*
X32655000Y-995000I0J-270000D01*
G01*
X32655000Y-1805000D01*
G75*
G02*
X32385000Y-2075000I-270000J0D01*
G01*
X31075000Y-2075000D01*
G75*
G02*
X30805000Y-1805000I0J270000D01*
G01*
X30805000Y-995000D01*
G75*
G02*
X31075000Y-725000I270000J0D01*
G01*
G37*
G36*
G01*
X31075000Y2075000D02*
X32385000Y2075000D01*
G75*
G02*
X32655000Y1805000I0J-270000D01*
G01*
X32655000Y995000D01*
G75*
G02*
X32385000Y725000I-270000J0D01*
G01*
X31075000Y725000D01*
G75*
G02*
X30805000Y995000I0J270000D01*
G01*
X30805000Y1805000D01*
G75*
G02*
X31075000Y2075000I270000J0D01*
G01*
G37*
%TD*%
%TO.C,F1*%
G36*
G01*
X15875000Y-725000D02*
X17185000Y-725000D01*
G75*
G02*
X17455000Y-995000I0J-270000D01*
G01*
X17455000Y-1805000D01*
G75*
G02*
X17185000Y-2075000I-270000J0D01*
G01*
X15875000Y-2075000D01*
G75*
G02*
X15605000Y-1805000I0J270000D01*
G01*
X15605000Y-995000D01*
G75*
G02*
X15875000Y-725000I270000J0D01*
G01*
G37*
G36*
G01*
X15875000Y2075000D02*
X17185000Y2075000D01*
G75*
G02*
X17455000Y1805000I0J-270000D01*
G01*
X17455000Y995000D01*
G75*
G02*
X17185000Y725000I-270000J0D01*
G01*
X15875000Y725000D01*
G75*
G02*
X15605000Y995000I0J270000D01*
G01*
X15605000Y1805000D01*
G75*
G02*
X15875000Y2075000I270000J0D01*
G01*
G37*
%TD*%
%TO.C,C4*%
G36*
G01*
X33588866Y-850000D02*
X34951134Y-850000D01*
G75*
G02*
X35220000Y-1118866I0J-268866D01*
G01*
X35220000Y-2006134D01*
G75*
G02*
X34951134Y-2275000I-268866J0D01*
G01*
X33588866Y-2275000D01*
G75*
G02*
X33320000Y-2006134I0J268866D01*
G01*
X33320000Y-1118866D01*
G75*
G02*
X33588866Y-850000I268866J0D01*
G01*
G37*
G36*
G01*
X33588866Y2275000D02*
X34951134Y2275000D01*
G75*
G02*
X35220000Y2006134I0J-268866D01*
G01*
X35220000Y1118866D01*
G75*
G02*
X34951134Y850000I-268866J0D01*
G01*
X33588866Y850000D01*
G75*
G02*
X33320000Y1118866I0J268866D01*
G01*
X33320000Y2006134D01*
G75*
G02*
X33588866Y2275000I268866J0D01*
G01*
G37*
%TD*%
%TO.C,C3*%
G36*
G01*
X35775000Y-12111134D02*
X35775000Y-10748866D01*
G75*
G02*
X36043866Y-10480000I268866J0D01*
G01*
X36931134Y-10480000D01*
G75*
G02*
X37200000Y-10748866I0J-268866D01*
G01*
X37200000Y-12111134D01*
G75*
G02*
X36931134Y-12380000I-268866J0D01*
G01*
X36043866Y-12380000D01*
G75*
G02*
X35775000Y-12111134I0J268866D01*
G01*
G37*
G36*
G01*
X32650000Y-12111134D02*
X32650000Y-10748866D01*
G75*
G02*
X32918866Y-10480000I268866J0D01*
G01*
X33806134Y-10480000D01*
G75*
G02*
X34075000Y-10748866I0J-268866D01*
G01*
X34075000Y-12111134D01*
G75*
G02*
X33806134Y-12380000I-268866J0D01*
G01*
X32918866Y-12380000D01*
G75*
G02*
X32650000Y-12111134I0J268866D01*
G01*
G37*
%TD*%
%TO.C,C2*%
G36*
G01*
X13308866Y-850000D02*
X14671134Y-850000D01*
G75*
G02*
X14940000Y-1118866I0J-268866D01*
G01*
X14940000Y-2006134D01*
G75*
G02*
X14671134Y-2275000I-268866J0D01*
G01*
X13308866Y-2275000D01*
G75*
G02*
X13040000Y-2006134I0J268866D01*
G01*
X13040000Y-1118866D01*
G75*
G02*
X13308866Y-850000I268866J0D01*
G01*
G37*
G36*
G01*
X13308866Y2275000D02*
X14671134Y2275000D01*
G75*
G02*
X14940000Y2006134I0J-268866D01*
G01*
X14940000Y1118866D01*
G75*
G02*
X14671134Y850000I-268866J0D01*
G01*
X13308866Y850000D01*
G75*
G02*
X13040000Y1118866I0J268866D01*
G01*
X13040000Y2006134D01*
G75*
G02*
X13308866Y2275000I268866J0D01*
G01*
G37*
%TD*%
%TO.C,C1*%
G36*
G01*
X12485000Y-10748866D02*
X12485000Y-12111134D01*
G75*
G02*
X12216134Y-12380000I-268866J0D01*
G01*
X11328866Y-12380000D01*
G75*
G02*
X11060000Y-12111134I0J268866D01*
G01*
X11060000Y-10748866D01*
G75*
G02*
X11328866Y-10480000I268866J0D01*
G01*
X12216134Y-10480000D01*
G75*
G02*
X12485000Y-10748866I0J-268866D01*
G01*
G37*
G36*
G01*
X15610000Y-10748866D02*
X15610000Y-12111134D01*
G75*
G02*
X15341134Y-12380000I-268866J0D01*
G01*
X14453866Y-12380000D01*
G75*
G02*
X14185000Y-12111134I0J268866D01*
G01*
X14185000Y-10748866D01*
G75*
G02*
X14453866Y-10480000I268866J0D01*
G01*
X15341134Y-10480000D01*
G75*
G02*
X15610000Y-10748866I0J-268866D01*
G01*
G37*
%TD*%
%TO.C,R2*%
G36*
G01*
X26055770Y850000D02*
X24744230Y850000D01*
G75*
G02*
X24475000Y1119230I0J269230D01*
G01*
X24475000Y1980770D01*
G75*
G02*
X24744230Y2250000I269230J0D01*
G01*
X26055770Y2250000D01*
G75*
G02*
X26325000Y1980770I0J-269230D01*
G01*
X26325000Y1119230D01*
G75*
G02*
X26055770Y850000I-269230J0D01*
G01*
G37*
G36*
G01*
X26055770Y-2250000D02*
X24744230Y-2250000D01*
G75*
G02*
X24475000Y-1980770I0J269230D01*
G01*
X24475000Y-1119230D01*
G75*
G02*
X24744230Y-850000I269230J0D01*
G01*
X26055770Y-850000D01*
G75*
G02*
X26325000Y-1119230I0J-269230D01*
G01*
X26325000Y-1980770D01*
G75*
G02*
X26055770Y-2250000I-269230J0D01*
G01*
G37*
%TD*%
%TO.C,R1*%
G36*
G01*
X23515770Y850000D02*
X22204230Y850000D01*
G75*
G02*
X21935000Y1119230I0J269230D01*
G01*
X21935000Y1980770D01*
G75*
G02*
X22204230Y2250000I269230J0D01*
G01*
X23515770Y2250000D01*
G75*
G02*
X23785000Y1980770I0J-269230D01*
G01*
X23785000Y1119230D01*
G75*
G02*
X23515770Y850000I-269230J0D01*
G01*
G37*
G36*
G01*
X23515770Y-2250000D02*
X22204230Y-2250000D01*
G75*
G02*
X21935000Y-1980770I0J269230D01*
G01*
X21935000Y-1119230D01*
G75*
G02*
X22204230Y-850000I269230J0D01*
G01*
X23515770Y-850000D01*
G75*
G02*
X23785000Y-1119230I0J-269230D01*
G01*
X23785000Y-1980770D01*
G75*
G02*
X23515770Y-2250000I-269230J0D01*
G01*
G37*
%TD*%
%TO.C,Right1*%
X45720000Y-7620000D03*
X48260000Y-7620000D03*
X45720000Y-5080000D03*
X48260000Y-5080000D03*
X45720000Y-2540000D03*
X48260000Y-2540000D03*
X45720000Y0D03*
G36*
G01*
X49160000Y850000D02*
X49160000Y-850000D01*
G75*
G02*
X49110000Y-900000I-50000J0D01*
G01*
X47410000Y-900000D01*
G75*
G02*
X47360000Y-850000I0J50000D01*
G01*
X47360000Y850000D01*
G75*
G02*
X47410000Y900000I50000J0D01*
G01*
X49110000Y900000D01*
G75*
G02*
X49160000Y850000I0J-50000D01*
G01*
G37*
%TD*%
%TO.C,Left1*%
X0Y-7620000D03*
X2540000Y-7620000D03*
X0Y-5080000D03*
X2540000Y-5080000D03*
X0Y-2540000D03*
X2540000Y-2540000D03*
X0Y0D03*
G36*
G01*
X3440000Y850000D02*
X3440000Y-850000D01*
G75*
G02*
X3390000Y-900000I-50000J0D01*
G01*
X1690000Y-900000D01*
G75*
G02*
X1640000Y-850000I0J50000D01*
G01*
X1640000Y850000D01*
G75*
G02*
X1690000Y900000I50000J0D01*
G01*
X3390000Y900000D01*
G75*
G02*
X3440000Y850000I0J-50000D01*
G01*
G37*
%TD*%
%TO.C,U3*%
G36*
G01*
X26390000Y-11820000D02*
X24890000Y-11820000D01*
G75*
G02*
X24840000Y-11770000I0J50000D01*
G01*
X24840000Y-9770000D01*
G75*
G02*
X24890000Y-9720000I50000J0D01*
G01*
X26390000Y-9720000D01*
G75*
G02*
X26440000Y-9770000I0J-50000D01*
G01*
X26440000Y-11770000D01*
G75*
G02*
X26390000Y-11820000I-50000J0D01*
G01*
G37*
G36*
G01*
X30990000Y-11820000D02*
X29490000Y-11820000D01*
G75*
G02*
X29440000Y-11770000I0J50000D01*
G01*
X29440000Y-9770000D01*
G75*
G02*
X29490000Y-9720000I50000J0D01*
G01*
X30990000Y-9720000D01*
G75*
G02*
X31040000Y-9770000I0J-50000D01*
G01*
X31040000Y-11770000D01*
G75*
G02*
X30990000Y-11820000I-50000J0D01*
G01*
G37*
G36*
G01*
X28690000Y-11820000D02*
X27190000Y-11820000D01*
G75*
G02*
X27140000Y-11770000I0J50000D01*
G01*
X27140000Y-9770000D01*
G75*
G02*
X27190000Y-9720000I50000J0D01*
G01*
X28690000Y-9720000D01*
G75*
G02*
X28740000Y-9770000I0J-50000D01*
G01*
X28740000Y-11770000D01*
G75*
G02*
X28690000Y-11820000I-50000J0D01*
G01*
G37*
G36*
G01*
X29840000Y-5520000D02*
X26040000Y-5520000D01*
G75*
G02*
X25990000Y-5470000I0J50000D01*
G01*
X25990000Y-3470000D01*
G75*
G02*
X26040000Y-3420000I50000J0D01*
G01*
X29840000Y-3420000D01*
G75*
G02*
X29890000Y-3470000I0J-50000D01*
G01*
X29890000Y-5470000D01*
G75*
G02*
X29840000Y-5520000I-50000J0D01*
G01*
G37*
%TD*%
%TO.C,U1*%
G36*
G01*
X18770000Y-11820000D02*
X17270000Y-11820000D01*
G75*
G02*
X17220000Y-11770000I0J50000D01*
G01*
X17220000Y-9770000D01*
G75*
G02*
X17270000Y-9720000I50000J0D01*
G01*
X18770000Y-9720000D01*
G75*
G02*
X18820000Y-9770000I0J-50000D01*
G01*
X18820000Y-11770000D01*
G75*
G02*
X18770000Y-11820000I-50000J0D01*
G01*
G37*
G36*
G01*
X23370000Y-11820000D02*
X21870000Y-11820000D01*
G75*
G02*
X21820000Y-11770000I0J50000D01*
G01*
X21820000Y-9770000D01*
G75*
G02*
X21870000Y-9720000I50000J0D01*
G01*
X23370000Y-9720000D01*
G75*
G02*
X23420000Y-9770000I0J-50000D01*
G01*
X23420000Y-11770000D01*
G75*
G02*
X23370000Y-11820000I-50000J0D01*
G01*
G37*
G36*
G01*
X21070000Y-11820000D02*
X19570000Y-11820000D01*
G75*
G02*
X19520000Y-11770000I0J50000D01*
G01*
X19520000Y-9770000D01*
G75*
G02*
X19570000Y-9720000I50000J0D01*
G01*
X21070000Y-9720000D01*
G75*
G02*
X21120000Y-9770000I0J-50000D01*
G01*
X21120000Y-11770000D01*
G75*
G02*
X21070000Y-11820000I-50000J0D01*
G01*
G37*
G36*
G01*
X22220000Y-5520000D02*
X18420000Y-5520000D01*
G75*
G02*
X18370000Y-5470000I0J50000D01*
G01*
X18370000Y-3470000D01*
G75*
G02*
X18420000Y-3420000I50000J0D01*
G01*
X22220000Y-3420000D01*
G75*
G02*
X22270000Y-3470000I0J-50000D01*
G01*
X22270000Y-5470000D01*
G75*
G02*
X22220000Y-5520000I-50000J0D01*
G01*
G37*
%TD*%
M02*
