M48
; DRILL file {KiCad (5.1.7)-1} date 01/09/21 19:34:59
; FORMAT={-:-/ absolute / inch / decimal}
; #@! TF.CreationDate,2021-01-09T19:34:59+01:00
; #@! TF.GenerationSoftware,Kicad,Pcbnew,(5.1.7)-1
; #@! TF.FileFunction,Plated,1,2,PTH
FMAT,2
INCH
T1C0.0157
T2C0.0197
T3C0.0276
T4C0.0394
T5C0.0512
%
G90
G05
T1
X0.575Y-0.175
X0.7Y-0.25
X0.7Y-0.3
X0.7Y-0.35
X0.75Y-0.25
X0.75Y-0.3
X0.75Y-0.35
X0.8Y-0.25
X0.8Y-0.3
X0.8Y-0.35
X0.85Y-0.25
X0.85Y-0.3
X0.85Y-0.35
X0.9Y-0.25
X0.9Y-0.3
X0.9Y-0.35
X1.0Y-0.25
X1.0Y-0.3
X1.0Y-0.35
X1.05Y-0.25
X1.05Y-0.3
X1.05Y-0.35
X1.1Y-0.25
X1.1Y-0.3
X1.1Y-0.35
X1.15Y-0.25
X1.15Y-0.3
X1.15Y-0.35
X1.2Y-0.25
X1.2Y-0.3
X1.2Y-0.35
X1.27Y-0.15
T3
X0.5245Y0.33
X0.7155Y0.33
T4
X1.8Y0.0
X1.8Y-0.1
X1.8Y-0.2
X1.8Y-0.3
X1.9Y0.0
X1.9Y-0.1
X1.9Y-0.2
X1.9Y-0.3
X1.3888Y-0.3
X1.4888Y-0.2
X1.4888Y-0.3
X1.5888Y-0.3
X0.3228Y-0.3
X0.4228Y-0.2
X0.4228Y-0.3
X0.5228Y-0.3
X0.0Y0.0
X0.0Y-0.1
X0.0Y-0.2
X0.0Y-0.3
X0.1Y0.0
X0.1Y-0.1
X0.1Y-0.2
X0.1Y-0.3
T5
X0.047Y0.3228
X0.197Y0.3228
T2
G00X0.4783Y0.456
M15
G01X0.4783Y0.4245
M16
G05
G00X0.4783Y0.456
M15
G01X0.4783Y0.4245
M16
G05
G00X0.7617Y0.4245
M15
G01X0.7617Y0.456
M16
G05
T0
M30
