%TF.GenerationSoftware,KiCad,Pcbnew,(5.1.7)-1*%
%TF.CreationDate,2021-01-09T19:34:55+01:00*%
%TF.ProjectId,MicroBBPS,4d696372-6f42-4425-9053-2e6b69636164,rev?*%
%TF.SameCoordinates,Original*%
%TF.FileFunction,Legend,Top*%
%TF.FilePolarity,Positive*%
%FSLAX46Y46*%
G04 Gerber Fmt 4.6, Leading zero omitted, Abs format (unit mm)*
G04 Created by KiCad (PCBNEW (5.1.7)-1) date 2021-01-09 19:34:55*
%MOMM*%
%LPD*%
G01*
G04 APERTURE LIST*
%ADD10C,0.100000*%
%ADD11C,0.120000*%
%ADD12C,0.125000*%
%ADD13C,0.250000*%
%ADD14C,0.280000*%
%ADD15C,0.010000*%
%ADD16C,0.150000*%
G04 APERTURE END LIST*
D10*
G36*
X5960000Y11700000D02*
G01*
X250000Y11700000D01*
X250000Y13170000D01*
X5950000Y13170000D01*
X5960000Y11700000D01*
G37*
X5960000Y11700000D02*
X250000Y11700000D01*
X250000Y13170000D01*
X5950000Y13170000D01*
X5960000Y11700000D01*
D11*
X41994000Y568000D02*
X41486000Y1838000D01*
X40978000Y568000D02*
X41486000Y1838000D01*
X41994000Y568000D02*
X42375000Y-575000D01*
X40978000Y568000D02*
X41994000Y568000D01*
X40597000Y-575000D02*
X40978000Y568000D01*
X40597000Y-575000D02*
X41486000Y-1083000D01*
X42375000Y-575000D02*
X40597000Y-575000D01*
X41486000Y-1083000D02*
X42375000Y-575000D01*
X41486000Y-1083000D02*
X42121000Y-1337000D01*
X40851000Y-1337000D02*
X41486000Y-1083000D01*
X40216000Y568000D02*
X40851000Y-1337000D01*
X41486000Y1838000D02*
X40216000Y568000D01*
X42756000Y568000D02*
X41486000Y1838000D01*
X42121000Y-1337000D02*
X42756000Y568000D01*
X5715000Y-1905000D02*
X4445000Y-1905000D01*
X4445000Y-1905000D02*
X5715000Y-3175000D01*
X4445000Y-4445000D02*
X5080000Y-5080000D01*
X5080000Y-1270000D02*
X5715000Y-1905000D01*
X5715000Y-3175000D02*
X4445000Y-4445000D01*
X5080000Y-2540000D02*
X5715000Y-1905000D01*
X5715000Y-4445000D02*
X6350000Y-3810000D01*
X5715000Y-4445000D02*
X5080000Y-3810000D01*
X5080000Y-3810000D02*
X4445000Y-3175000D01*
X4445000Y-3175000D02*
X5080000Y-2540000D01*
X4445000Y-1905000D02*
X5080000Y-1270000D01*
X6350000Y-3810000D02*
X5715000Y-3175000D01*
X5080000Y-5080000D02*
X5715000Y-4445000D01*
X5715000Y-1397000D02*
X5080000Y-1270000D01*
X4445000Y-4445000D02*
X4699000Y-3810000D01*
X6350000Y-1270000D02*
X5715000Y-1397000D01*
X6350000Y-2540000D02*
X5715000Y-3175000D01*
X4445000Y-4445000D02*
X5715000Y-4445000D01*
X5715000Y-1905000D02*
X6350000Y-2540000D01*
X6350000Y-3810000D02*
X6985000Y-3175000D01*
X4699000Y-2540000D02*
X4445000Y-1905000D01*
X6985000Y-3175000D02*
X6350000Y-2540000D01*
X6350000Y-2540000D02*
X6985000Y-1905000D01*
X6985000Y-1905000D02*
X6350000Y-1270000D01*
X6350000Y-1270000D02*
X5715000Y-1905000D01*
X5715000Y-1905000D02*
X6985000Y-1905000D01*
X6985000Y-3175000D02*
X6731000Y-2540000D01*
X4699000Y-3810000D02*
X4445000Y-3175000D01*
X4445000Y-3175000D02*
X4699000Y-2540000D01*
X6731000Y-2540000D02*
X6985000Y-1905000D01*
D12*
X28089285Y2371428D02*
X28089285Y2835714D01*
X28375000Y2585714D01*
X28375000Y2692857D01*
X28410714Y2764285D01*
X28446428Y2800000D01*
X28517857Y2835714D01*
X28696428Y2835714D01*
X28767857Y2800000D01*
X28803571Y2764285D01*
X28839285Y2692857D01*
X28839285Y2478571D01*
X28803571Y2407142D01*
X28767857Y2371428D01*
X28089285Y3050000D02*
X28839285Y3300000D01*
X28089285Y3550000D01*
X28089285Y3728571D02*
X28089285Y4192857D01*
X28375000Y3942857D01*
X28375000Y4050000D01*
X28410714Y4121428D01*
X28446428Y4157142D01*
X28517857Y4192857D01*
X28696428Y4192857D01*
X28767857Y4157142D01*
X28803571Y4121428D01*
X28839285Y4050000D01*
X28839285Y3835714D01*
X28803571Y3764285D01*
X28767857Y3728571D01*
X19289285Y3032142D02*
X19289285Y2675000D01*
X19646428Y2639285D01*
X19610714Y2675000D01*
X19575000Y2746428D01*
X19575000Y2925000D01*
X19610714Y2996428D01*
X19646428Y3032142D01*
X19717857Y3067857D01*
X19896428Y3067857D01*
X19967857Y3032142D01*
X20003571Y2996428D01*
X20039285Y2925000D01*
X20039285Y2746428D01*
X20003571Y2675000D01*
X19967857Y2639285D01*
X19289285Y3282142D02*
X20039285Y3532142D01*
X19289285Y3782142D01*
D11*
X-635000Y-9525000D02*
X3175000Y-9525000D01*
X41275000Y-12700000D02*
X39370000Y-12700000D01*
X41910000Y-12065000D02*
X41275000Y-12700000D01*
X41910000Y-12065000D02*
X40005000Y-12065000D01*
X42545000Y-11430000D02*
X41910000Y-12065000D01*
X42545000Y-11430000D02*
X40640000Y-11430000D01*
X43180000Y-10795000D02*
X42545000Y-11430000D01*
X43180000Y-10795000D02*
X41275000Y-10795000D01*
X43815000Y-10160000D02*
X43180000Y-10795000D01*
X6985000Y-12700000D02*
X8890000Y-12700000D01*
X6350000Y-12065000D02*
X6985000Y-12700000D01*
X6350000Y-12065000D02*
X8255000Y-12065000D01*
X5715000Y-11430000D02*
X6350000Y-12065000D01*
X5715000Y-11430000D02*
X7620000Y-11430000D01*
X5080000Y-10795000D02*
X5715000Y-11430000D01*
X5080000Y-10795000D02*
X6985000Y-10795000D01*
X4445000Y-10160000D02*
X5080000Y-10795000D01*
D13*
X32070523Y-7861904D02*
X32070523Y-8466666D01*
X32675285Y-8527142D01*
X32614809Y-8466666D01*
X32554333Y-8345714D01*
X32554333Y-8043333D01*
X32614809Y-7922380D01*
X32675285Y-7861904D01*
X32796238Y-7801428D01*
X33098619Y-7801428D01*
X33219571Y-7861904D01*
X33280047Y-7922380D01*
X33340523Y-8043333D01*
X33340523Y-8345714D01*
X33280047Y-8466666D01*
X33219571Y-8527142D01*
X32070523Y-7438571D02*
X33340523Y-7015238D01*
X32070523Y-6591904D01*
X36384047Y-1879523D02*
X36807380Y-3149523D01*
X37230714Y-1879523D01*
X37654047Y-3149523D02*
X37654047Y-1879523D01*
X38258809Y-3149523D02*
X38258809Y-1879523D01*
X38984523Y-3149523D01*
X38984523Y-1879523D01*
X42484523Y-9192380D02*
X42484523Y-8406190D01*
X42968333Y-8829523D01*
X42968333Y-8648095D01*
X43028809Y-8527142D01*
X43089285Y-8466666D01*
X43210238Y-8406190D01*
X43512619Y-8406190D01*
X43633571Y-8466666D01*
X43694047Y-8527142D01*
X43754523Y-8648095D01*
X43754523Y-9010952D01*
X43694047Y-9131904D01*
X43633571Y-9192380D01*
X42484523Y-8043333D02*
X43754523Y-7620000D01*
X42484523Y-7196666D01*
X42484523Y-6894285D02*
X42484523Y-6108095D01*
X42968333Y-6531428D01*
X42968333Y-6350000D01*
X43028809Y-6229047D01*
X43089285Y-6168571D01*
X43210238Y-6108095D01*
X43512619Y-6108095D01*
X43633571Y-6168571D01*
X43694047Y-6229047D01*
X43754523Y-6350000D01*
X43754523Y-6712857D01*
X43694047Y-6833809D01*
X43633571Y-6894285D01*
D10*
G36*
X24765000Y5207000D02*
G01*
X21590000Y5207000D01*
X20955000Y5715000D01*
X24765000Y5715000D01*
X24765000Y5207000D01*
G37*
X24765000Y5207000D02*
X21590000Y5207000D01*
X20955000Y5715000D01*
X24765000Y5715000D01*
X24765000Y5207000D01*
D11*
X24765000Y5207000D02*
X24765000Y5715000D01*
X23495000Y8890000D02*
X22860000Y8636000D01*
X24130000Y8636000D02*
X23495000Y8890000D01*
X24130000Y8636000D02*
X24765000Y8255000D01*
X23495000Y8255000D02*
X24130000Y8636000D01*
X22860000Y8636000D02*
X23495000Y8255000D01*
X22225000Y8255000D02*
X22860000Y8636000D01*
X21590000Y7239000D02*
X21971000Y7620000D01*
X21590000Y5969000D02*
X21971000Y6350000D01*
X21209000Y6350000D02*
X21590000Y6731000D01*
X22733000Y6477000D02*
X22479000Y6731000D01*
X23241000Y5969000D02*
X22987000Y6223000D01*
X24003000Y6223000D02*
X23749000Y5969000D01*
X24511000Y6731000D02*
X24257000Y6477000D01*
X24257000Y7493000D02*
X24511000Y7239000D01*
X23749000Y8001000D02*
X24003000Y7747000D01*
X22987000Y7747000D02*
X23241000Y8001000D01*
X22479000Y7239000D02*
X22733000Y7493000D01*
X24765000Y6985000D02*
X23495000Y6985000D01*
X23495000Y5715000D02*
X23495000Y6985000D01*
X23495000Y6858000D02*
X23495000Y5715000D01*
X23495000Y6985000D02*
X24765000Y5715000D01*
X23495000Y6985000D02*
X24765000Y8255000D01*
X23495000Y6985000D02*
X23495000Y8255000D01*
X23495000Y6985000D02*
X22225000Y8255000D01*
X23495000Y6985000D02*
X22225000Y6985000D01*
X22225000Y5715000D02*
X23495000Y6985000D01*
X22225000Y6985000D02*
X22225000Y5715000D01*
X22225000Y6985000D02*
X22225000Y8128000D01*
X22225000Y6985000D02*
X20955000Y5715000D01*
X20955000Y6985000D02*
X22225000Y6985000D01*
X20955000Y5715000D02*
X20955000Y6985000D01*
X24765000Y8255000D02*
X24765000Y5715000D01*
X23495000Y8255000D02*
X24765000Y8255000D01*
X22225000Y8255000D02*
X23495000Y8255000D01*
X20955000Y6985000D02*
X22225000Y8255000D01*
D14*
X6577142Y3047142D02*
X6520000Y2989999D01*
X6405714Y2932857D01*
X6120000Y2932857D01*
X6005714Y2989999D01*
X5948571Y3047142D01*
X5891428Y3161428D01*
X5891428Y3275714D01*
X5948571Y3447142D01*
X6634285Y4132857D01*
X5891428Y4132857D01*
X5148571Y2932857D02*
X5034285Y2932857D01*
X4920000Y2990000D01*
X4862857Y3047142D01*
X4805714Y3161428D01*
X4748571Y3390000D01*
X4748571Y3675714D01*
X4805714Y3904285D01*
X4862857Y4018571D01*
X4920000Y4075714D01*
X5034285Y4132857D01*
X5148571Y4132857D01*
X5262857Y4075714D01*
X5320000Y4018571D01*
X5377142Y3904285D01*
X5434285Y3675714D01*
X5434285Y3389999D01*
X5377142Y3161428D01*
X5320000Y3047142D01*
X5262857Y2990000D01*
X5148571Y2932857D01*
X4405714Y2932857D02*
X4005714Y4132857D01*
X3605714Y2932857D01*
X2291428Y4132857D02*
X2291428Y2932857D01*
X1891428Y3790000D01*
X1491428Y2932857D01*
X1491428Y4132857D01*
X977142Y3790000D02*
X405714Y3790000D01*
X1091428Y4132857D02*
X691428Y2932857D01*
X291428Y4132857D01*
X5714Y2932857D02*
X-794285Y4132857D01*
X-794285Y2932857D02*
X5714Y4132857D01*
D11*
X7493000Y1270000D02*
X7620000Y1905000D01*
X7620000Y635000D02*
X7493000Y1270000D01*
X6350000Y254000D02*
X6985000Y0D01*
X5715000Y0D02*
X6350000Y254000D01*
X6350000Y2286000D02*
X6985000Y2540000D01*
X5715000Y2540000D02*
X6350000Y2286000D01*
X5080000Y2286000D02*
X5715000Y2540000D01*
X4445000Y2540000D02*
X5080000Y2286000D01*
X6985000Y1270000D02*
X6985000Y0D01*
X4445000Y2540000D02*
X4445000Y1270000D01*
X7620000Y635000D02*
X6985000Y1270000D01*
X6985000Y0D02*
X7620000Y635000D01*
X6350000Y635000D02*
X6985000Y0D01*
X5715000Y0D02*
X6350000Y635000D01*
X5080000Y635000D02*
X5715000Y0D01*
X6985000Y1270000D02*
X6350000Y635000D01*
X6350000Y635000D02*
X5715000Y1270000D01*
X5080000Y635000D02*
X5715000Y1270000D01*
X4445000Y1270000D02*
X5080000Y635000D01*
X7620000Y1905000D02*
X6985000Y1270000D01*
X6985000Y2540000D02*
X7620000Y1905000D01*
X4445000Y2540000D02*
X3810000Y1905000D01*
X5715000Y1270000D02*
X4445000Y2540000D01*
X6985000Y2540000D02*
X5715000Y1270000D01*
X6985000Y1270000D02*
X6985000Y2540000D01*
X6350000Y1905000D02*
X6985000Y1270000D01*
X5715000Y2540000D02*
X6350000Y1905000D01*
X5080000Y1905000D02*
X5715000Y2540000D01*
X4445000Y1270000D02*
X5080000Y1905000D01*
X3810000Y1905000D02*
X4445000Y1270000D01*
X-1905000Y635000D02*
X-1905000Y-8255000D01*
X4445000Y635000D02*
X4445000Y-635000D01*
X-635000Y1905000D02*
X-1905000Y635000D01*
X3175000Y1905000D02*
X-635000Y1905000D01*
X-1905000Y-8255000D02*
X-635000Y-9525000D01*
X48895000Y-9525000D02*
X45085000Y-9525000D01*
X50165000Y-8255000D02*
X48895000Y-9525000D01*
X50165000Y635000D02*
X50165000Y-8255000D01*
X48895000Y1905000D02*
X50165000Y635000D01*
X45085000Y1905000D02*
X48895000Y1905000D01*
D10*
G36*
X39180000Y4155000D02*
G01*
X38545000Y4155000D01*
X37910000Y3520000D01*
X38545000Y3520000D01*
X37910000Y2885000D01*
X36640000Y2885000D01*
X38545000Y4790000D01*
X39815000Y4790000D01*
X39180000Y4155000D01*
G37*
X39180000Y4155000D02*
X38545000Y4155000D01*
X37910000Y3520000D01*
X38545000Y3520000D01*
X37910000Y2885000D01*
X36640000Y2885000D01*
X38545000Y4790000D01*
X39815000Y4790000D01*
X39180000Y4155000D01*
D11*
X45530000Y2885000D02*
X46165000Y3520000D01*
X45530000Y3520000D02*
X46165000Y4155000D01*
X45530000Y3520000D02*
X44895000Y2885000D01*
X37275000Y4790000D02*
X36640000Y4155000D01*
X37910000Y4790000D02*
X37275000Y4155000D01*
X41085000Y4790000D02*
X39180000Y2885000D01*
X42990000Y4790000D02*
X41085000Y2885000D01*
X44895000Y4790000D02*
X42990000Y2885000D01*
D10*
G36*
X44260000Y2885000D02*
G01*
X43625000Y2885000D01*
X45530000Y4790000D01*
X46165000Y4790000D01*
X44260000Y2885000D01*
G37*
X44260000Y2885000D02*
X43625000Y2885000D01*
X45530000Y4790000D01*
X46165000Y4790000D01*
X44260000Y2885000D01*
G36*
X42355000Y2885000D02*
G01*
X41720000Y2885000D01*
X43625000Y4790000D01*
X44260000Y4790000D01*
X42355000Y2885000D01*
G37*
X42355000Y2885000D02*
X41720000Y2885000D01*
X43625000Y4790000D01*
X44260000Y4790000D01*
X42355000Y2885000D01*
G36*
X40450000Y2885000D02*
G01*
X39815000Y2885000D01*
X41720000Y4790000D01*
X42355000Y4790000D01*
X40450000Y2885000D01*
G37*
X40450000Y2885000D02*
X39815000Y2885000D01*
X41720000Y4790000D01*
X42355000Y4790000D01*
X40450000Y2885000D01*
D11*
X45530000Y4790000D02*
X43625000Y2885000D01*
X44260000Y4790000D02*
X45530000Y4790000D01*
X42355000Y2885000D02*
X44260000Y4790000D01*
X41720000Y2885000D02*
X42355000Y2885000D01*
X43625000Y4790000D02*
X41720000Y2885000D01*
X42355000Y4790000D02*
X43625000Y4790000D01*
X40450000Y2885000D02*
X42355000Y4790000D01*
X39815000Y2885000D02*
X40450000Y2885000D01*
X41720000Y4790000D02*
X39815000Y2885000D01*
X40450000Y4790000D02*
X41720000Y4790000D01*
X38545000Y2885000D02*
X40450000Y4790000D01*
X44260000Y2885000D02*
X36640000Y2885000D01*
X46165000Y4790000D02*
X44260000Y2885000D01*
X38545000Y4790000D02*
X46165000Y4790000D01*
X36640000Y2885000D02*
X38545000Y4790000D01*
D13*
X9309047Y-1879523D02*
X9732380Y-3149523D01*
X10155714Y-1879523D01*
X10579047Y-3149523D02*
X10579047Y-1879523D01*
X11183809Y-3149523D02*
X11183809Y-1879523D01*
X11909523Y-3149523D01*
X11909523Y-1879523D01*
X15179523Y-7741904D02*
X15179523Y-8346666D01*
X15784285Y-8407142D01*
X15723809Y-8346666D01*
X15663333Y-8225714D01*
X15663333Y-7923333D01*
X15723809Y-7802380D01*
X15784285Y-7741904D01*
X15905238Y-7681428D01*
X16207619Y-7681428D01*
X16328571Y-7741904D01*
X16389047Y-7802380D01*
X16449523Y-7923333D01*
X16449523Y-8225714D01*
X16389047Y-8346666D01*
X16328571Y-8407142D01*
X15179523Y-7318571D02*
X16449523Y-6895238D01*
X15179523Y-6471904D01*
X4604523Y-9122380D02*
X4604523Y-8336190D01*
X5088333Y-8759523D01*
X5088333Y-8578095D01*
X5148809Y-8457142D01*
X5209285Y-8396666D01*
X5330238Y-8336190D01*
X5632619Y-8336190D01*
X5753571Y-8396666D01*
X5814047Y-8457142D01*
X5874523Y-8578095D01*
X5874523Y-8940952D01*
X5814047Y-9061904D01*
X5753571Y-9122380D01*
X4604523Y-7973333D02*
X5874523Y-7550000D01*
X4604523Y-7126666D01*
X4604523Y-6824285D02*
X4604523Y-6038095D01*
X5088333Y-6461428D01*
X5088333Y-6280000D01*
X5148809Y-6159047D01*
X5209285Y-6098571D01*
X5330238Y-6038095D01*
X5632619Y-6038095D01*
X5753571Y-6098571D01*
X5814047Y-6159047D01*
X5874523Y-6280000D01*
X5874523Y-6642857D01*
X5814047Y-6763809D01*
X5753571Y-6824285D01*
D11*
%TO.C,J5*%
X7100000Y4500000D02*
X-900000Y4500000D01*
X7100000Y11800000D02*
X7100000Y4500000D01*
X-900000Y11800000D02*
X-900000Y4500000D01*
X3100000Y11800000D02*
X7100000Y11800000D01*
X3100000Y11800000D02*
X-900000Y11800000D01*
%TO.C,D3*%
X18250000Y-2100000D02*
X18750000Y-2200000D01*
X18150000Y-1600000D02*
X18250000Y-2100000D01*
X18150000Y-1600000D02*
X18750000Y-2200000D01*
X21150000Y0D02*
X21150000Y-1600000D01*
X21150000Y-1600000D02*
X20750000Y-2000000D01*
X20750000Y-2000000D02*
X19750000Y-2000000D01*
X18350000Y0D02*
X18350000Y1600000D01*
X18350000Y1600000D02*
X18750000Y2000000D01*
X18750000Y2000000D02*
X19750000Y2000000D01*
X21150000Y0D02*
X21150000Y1600000D01*
X21150000Y1600000D02*
X20750000Y2000000D01*
X20750000Y2000000D02*
X19750000Y2000000D01*
X19050000Y-2000000D02*
X19750000Y-2000000D01*
X18350000Y0D02*
X18350000Y-1300000D01*
%TO.C,D1*%
X27000000Y-2100000D02*
X27500000Y-2200000D01*
X26900000Y-1600000D02*
X27000000Y-2100000D01*
X26900000Y-1600000D02*
X27500000Y-2200000D01*
X29900000Y0D02*
X29900000Y-1600000D01*
X29900000Y-1600000D02*
X29500000Y-2000000D01*
X29500000Y-2000000D02*
X28500000Y-2000000D01*
X27100000Y0D02*
X27100000Y1600000D01*
X27100000Y1600000D02*
X27500000Y2000000D01*
X27500000Y2000000D02*
X28500000Y2000000D01*
X29900000Y0D02*
X29900000Y1600000D01*
X29900000Y1600000D02*
X29500000Y2000000D01*
X29500000Y2000000D02*
X28500000Y2000000D01*
X27800000Y-2000000D02*
X28500000Y-2000000D01*
X27100000Y0D02*
X27100000Y-1300000D01*
%TO.C,D2*%
X8383000Y537000D02*
X8383000Y5937000D01*
X11683000Y537000D02*
X11683000Y5937000D01*
X8383000Y537000D02*
X11683000Y537000D01*
%TO.C,C8*%
X43275000Y6140000D02*
X43775000Y6140000D01*
X43525000Y5890000D02*
X43525000Y6390000D01*
X46280563Y6630000D02*
X47345000Y7694437D01*
X43889437Y6630000D02*
X42825000Y7694437D01*
X43889437Y6630000D02*
X44025000Y6630000D01*
X46280563Y6630000D02*
X46145000Y6630000D01*
X47345000Y7694437D02*
X47345000Y11150000D01*
X42825000Y7694437D02*
X42825000Y11150000D01*
X42825000Y11150000D02*
X44025000Y11150000D01*
X47345000Y11150000D02*
X46145000Y11150000D01*
%TO.C,C7*%
X37560000Y6140000D02*
X38060000Y6140000D01*
X37810000Y5890000D02*
X37810000Y6390000D01*
X40565563Y6630000D02*
X41630000Y7694437D01*
X38174437Y6630000D02*
X37110000Y7694437D01*
X38174437Y6630000D02*
X38310000Y6630000D01*
X40565563Y6630000D02*
X40430000Y6630000D01*
X41630000Y7694437D02*
X41630000Y11150000D01*
X37110000Y7694437D02*
X37110000Y11150000D01*
X37110000Y11150000D02*
X38310000Y11150000D01*
X41630000Y11150000D02*
X40430000Y11150000D01*
%TO.C,C6*%
X31845000Y6140000D02*
X32345000Y6140000D01*
X32095000Y5890000D02*
X32095000Y6390000D01*
X34850563Y6630000D02*
X35915000Y7694437D01*
X32459437Y6630000D02*
X31395000Y7694437D01*
X32459437Y6630000D02*
X32595000Y6630000D01*
X34850563Y6630000D02*
X34715000Y6630000D01*
X35915000Y7694437D02*
X35915000Y11150000D01*
X31395000Y7694437D02*
X31395000Y11150000D01*
X31395000Y11150000D02*
X32595000Y11150000D01*
X35915000Y11150000D02*
X34715000Y11150000D01*
%TO.C,C5*%
X26130000Y6140000D02*
X26630000Y6140000D01*
X26380000Y5890000D02*
X26380000Y6390000D01*
X29135563Y6630000D02*
X30200000Y7694437D01*
X26744437Y6630000D02*
X25680000Y7694437D01*
X26744437Y6630000D02*
X26880000Y6630000D01*
X29135563Y6630000D02*
X29000000Y6630000D01*
X30200000Y7694437D02*
X30200000Y11150000D01*
X25680000Y7694437D02*
X25680000Y11150000D01*
X25680000Y11150000D02*
X26880000Y11150000D01*
X30200000Y11150000D02*
X29000000Y11150000D01*
D15*
%TO.C,G\u002A\u002A\u002A*%
G36*
X46516942Y-10120653D02*
G01*
X46787619Y-10121625D01*
X47023178Y-10122540D01*
X47311893Y-10123676D01*
X47561341Y-10124790D01*
X47774591Y-10125974D01*
X47954709Y-10127321D01*
X48104764Y-10128921D01*
X48227821Y-10130866D01*
X48326949Y-10133248D01*
X48405215Y-10136158D01*
X48465686Y-10139688D01*
X48511429Y-10143930D01*
X48545512Y-10148974D01*
X48571002Y-10154914D01*
X48590966Y-10161840D01*
X48608471Y-10169843D01*
X48608548Y-10169881D01*
X48716076Y-10241359D01*
X48813561Y-10338826D01*
X48885069Y-10446353D01*
X48885118Y-10446452D01*
X48896865Y-10472635D01*
X48906177Y-10501836D01*
X48913336Y-10539039D01*
X48918621Y-10589224D01*
X48922312Y-10657375D01*
X48924690Y-10748474D01*
X48926036Y-10867501D01*
X48926628Y-11019441D01*
X48926750Y-11186583D01*
X48926592Y-11372043D01*
X48925931Y-11520152D01*
X48924486Y-11635892D01*
X48921978Y-11724247D01*
X48918127Y-11790197D01*
X48912651Y-11838725D01*
X48905272Y-11874813D01*
X48895707Y-11903444D01*
X48885118Y-11926715D01*
X48813641Y-12034243D01*
X48716173Y-12131727D01*
X48608647Y-12203236D01*
X48608548Y-12203285D01*
X48591149Y-12211261D01*
X48571378Y-12218162D01*
X48546180Y-12224074D01*
X48512502Y-12229084D01*
X48467289Y-12233279D01*
X48407488Y-12236747D01*
X48330045Y-12239575D01*
X48231905Y-12241849D01*
X48110016Y-12243656D01*
X47961323Y-12245085D01*
X47782772Y-12246220D01*
X47571309Y-12247151D01*
X47323880Y-12247963D01*
X47037432Y-12248743D01*
X47011167Y-12248811D01*
X46697625Y-12249421D01*
X46424316Y-12249509D01*
X46189142Y-12249048D01*
X45990004Y-12248010D01*
X45824806Y-12246367D01*
X45691448Y-12244090D01*
X45587833Y-12241152D01*
X45511863Y-12237523D01*
X45461440Y-12233177D01*
X45434466Y-12228085D01*
X45433259Y-12227645D01*
X45292082Y-12152417D01*
X45177896Y-12049101D01*
X45095617Y-11922843D01*
X45064788Y-11842264D01*
X45056520Y-11794269D01*
X45050527Y-11712933D01*
X45046755Y-11596256D01*
X45045153Y-11442235D01*
X45045466Y-11324869D01*
X45444833Y-11324869D01*
X46556083Y-11313583D01*
X46556083Y-11059583D01*
X45444833Y-11048297D01*
X45444833Y-11324869D01*
X45045466Y-11324869D01*
X45045669Y-11248869D01*
X45046623Y-11144250D01*
X45048918Y-10953024D01*
X45051969Y-10798849D01*
X45056873Y-10676440D01*
X45064727Y-10580517D01*
X45076629Y-10505796D01*
X45093676Y-10446996D01*
X45109632Y-10414000D01*
X46947667Y-10414000D01*
X46947667Y-11959167D01*
X47074667Y-11959167D01*
X47074667Y-11070167D01*
X47519167Y-11070167D01*
X47519167Y-11324167D01*
X47900167Y-11324167D01*
X47900167Y-11662833D01*
X48175333Y-11662833D01*
X48175333Y-11324167D01*
X48535167Y-11324167D01*
X48535167Y-11070167D01*
X48175333Y-11070167D01*
X48175333Y-10710333D01*
X47900167Y-10710333D01*
X47900167Y-11070167D01*
X47519167Y-11070167D01*
X47074667Y-11070167D01*
X47074667Y-10414000D01*
X46947667Y-10414000D01*
X45109632Y-10414000D01*
X45116966Y-10398834D01*
X45147596Y-10356027D01*
X45186664Y-10313295D01*
X45227690Y-10272729D01*
X45257054Y-10243910D01*
X45283930Y-10218868D01*
X45311352Y-10197351D01*
X45342354Y-10179104D01*
X45379972Y-10163874D01*
X45427241Y-10151406D01*
X45487193Y-10141446D01*
X45562865Y-10133742D01*
X45657291Y-10128039D01*
X45773506Y-10124082D01*
X45914544Y-10121620D01*
X46083439Y-10120396D01*
X46283227Y-10120159D01*
X46516942Y-10120653D01*
G37*
X46516942Y-10120653D02*
X46787619Y-10121625D01*
X47023178Y-10122540D01*
X47311893Y-10123676D01*
X47561341Y-10124790D01*
X47774591Y-10125974D01*
X47954709Y-10127321D01*
X48104764Y-10128921D01*
X48227821Y-10130866D01*
X48326949Y-10133248D01*
X48405215Y-10136158D01*
X48465686Y-10139688D01*
X48511429Y-10143930D01*
X48545512Y-10148974D01*
X48571002Y-10154914D01*
X48590966Y-10161840D01*
X48608471Y-10169843D01*
X48608548Y-10169881D01*
X48716076Y-10241359D01*
X48813561Y-10338826D01*
X48885069Y-10446353D01*
X48885118Y-10446452D01*
X48896865Y-10472635D01*
X48906177Y-10501836D01*
X48913336Y-10539039D01*
X48918621Y-10589224D01*
X48922312Y-10657375D01*
X48924690Y-10748474D01*
X48926036Y-10867501D01*
X48926628Y-11019441D01*
X48926750Y-11186583D01*
X48926592Y-11372043D01*
X48925931Y-11520152D01*
X48924486Y-11635892D01*
X48921978Y-11724247D01*
X48918127Y-11790197D01*
X48912651Y-11838725D01*
X48905272Y-11874813D01*
X48895707Y-11903444D01*
X48885118Y-11926715D01*
X48813641Y-12034243D01*
X48716173Y-12131727D01*
X48608647Y-12203236D01*
X48608548Y-12203285D01*
X48591149Y-12211261D01*
X48571378Y-12218162D01*
X48546180Y-12224074D01*
X48512502Y-12229084D01*
X48467289Y-12233279D01*
X48407488Y-12236747D01*
X48330045Y-12239575D01*
X48231905Y-12241849D01*
X48110016Y-12243656D01*
X47961323Y-12245085D01*
X47782772Y-12246220D01*
X47571309Y-12247151D01*
X47323880Y-12247963D01*
X47037432Y-12248743D01*
X47011167Y-12248811D01*
X46697625Y-12249421D01*
X46424316Y-12249509D01*
X46189142Y-12249048D01*
X45990004Y-12248010D01*
X45824806Y-12246367D01*
X45691448Y-12244090D01*
X45587833Y-12241152D01*
X45511863Y-12237523D01*
X45461440Y-12233177D01*
X45434466Y-12228085D01*
X45433259Y-12227645D01*
X45292082Y-12152417D01*
X45177896Y-12049101D01*
X45095617Y-11922843D01*
X45064788Y-11842264D01*
X45056520Y-11794269D01*
X45050527Y-11712933D01*
X45046755Y-11596256D01*
X45045153Y-11442235D01*
X45045466Y-11324869D01*
X45444833Y-11324869D01*
X46556083Y-11313583D01*
X46556083Y-11059583D01*
X45444833Y-11048297D01*
X45444833Y-11324869D01*
X45045466Y-11324869D01*
X45045669Y-11248869D01*
X45046623Y-11144250D01*
X45048918Y-10953024D01*
X45051969Y-10798849D01*
X45056873Y-10676440D01*
X45064727Y-10580517D01*
X45076629Y-10505796D01*
X45093676Y-10446996D01*
X45109632Y-10414000D01*
X46947667Y-10414000D01*
X46947667Y-11959167D01*
X47074667Y-11959167D01*
X47074667Y-11070167D01*
X47519167Y-11070167D01*
X47519167Y-11324167D01*
X47900167Y-11324167D01*
X47900167Y-11662833D01*
X48175333Y-11662833D01*
X48175333Y-11324167D01*
X48535167Y-11324167D01*
X48535167Y-11070167D01*
X48175333Y-11070167D01*
X48175333Y-10710333D01*
X47900167Y-10710333D01*
X47900167Y-11070167D01*
X47519167Y-11070167D01*
X47074667Y-11070167D01*
X47074667Y-10414000D01*
X46947667Y-10414000D01*
X45109632Y-10414000D01*
X45116966Y-10398834D01*
X45147596Y-10356027D01*
X45186664Y-10313295D01*
X45227690Y-10272729D01*
X45257054Y-10243910D01*
X45283930Y-10218868D01*
X45311352Y-10197351D01*
X45342354Y-10179104D01*
X45379972Y-10163874D01*
X45427241Y-10151406D01*
X45487193Y-10141446D01*
X45562865Y-10133742D01*
X45657291Y-10128039D01*
X45773506Y-10124082D01*
X45914544Y-10121620D01*
X46083439Y-10120396D01*
X46283227Y-10120159D01*
X46516942Y-10120653D01*
G36*
X796942Y-10120653D02*
G01*
X1067619Y-10121625D01*
X1303178Y-10122540D01*
X1591893Y-10123676D01*
X1841341Y-10124790D01*
X2054591Y-10125974D01*
X2234709Y-10127321D01*
X2384764Y-10128921D01*
X2507821Y-10130866D01*
X2606949Y-10133248D01*
X2685215Y-10136158D01*
X2745686Y-10139688D01*
X2791429Y-10143930D01*
X2825512Y-10148974D01*
X2851002Y-10154914D01*
X2870966Y-10161840D01*
X2888471Y-10169843D01*
X2888548Y-10169881D01*
X2996076Y-10241359D01*
X3093561Y-10338826D01*
X3165069Y-10446353D01*
X3165118Y-10446452D01*
X3176865Y-10472635D01*
X3186177Y-10501836D01*
X3193336Y-10539039D01*
X3198621Y-10589224D01*
X3202312Y-10657375D01*
X3204690Y-10748474D01*
X3206036Y-10867501D01*
X3206628Y-11019441D01*
X3206750Y-11186583D01*
X3206592Y-11372043D01*
X3205931Y-11520152D01*
X3204486Y-11635892D01*
X3201978Y-11724247D01*
X3198127Y-11790197D01*
X3192651Y-11838725D01*
X3185272Y-11874813D01*
X3175707Y-11903444D01*
X3165118Y-11926715D01*
X3093641Y-12034243D01*
X2996173Y-12131727D01*
X2888647Y-12203236D01*
X2888548Y-12203285D01*
X2871149Y-12211261D01*
X2851378Y-12218162D01*
X2826180Y-12224074D01*
X2792502Y-12229084D01*
X2747289Y-12233279D01*
X2687488Y-12236747D01*
X2610045Y-12239575D01*
X2511905Y-12241849D01*
X2390016Y-12243656D01*
X2241323Y-12245085D01*
X2062772Y-12246220D01*
X1851309Y-12247151D01*
X1603880Y-12247963D01*
X1317432Y-12248743D01*
X1291167Y-12248811D01*
X977625Y-12249421D01*
X704316Y-12249509D01*
X469142Y-12249048D01*
X270004Y-12248010D01*
X104806Y-12246367D01*
X-28552Y-12244090D01*
X-132167Y-12241152D01*
X-208137Y-12237523D01*
X-258560Y-12233177D01*
X-285534Y-12228085D01*
X-286741Y-12227645D01*
X-427918Y-12152417D01*
X-542104Y-12049101D01*
X-624383Y-11922843D01*
X-655212Y-11842264D01*
X-663480Y-11794269D01*
X-669473Y-11712933D01*
X-673245Y-11596256D01*
X-674847Y-11442235D01*
X-674534Y-11324869D01*
X-275167Y-11324869D01*
X836083Y-11313583D01*
X836083Y-11059583D01*
X-275167Y-11048297D01*
X-275167Y-11324869D01*
X-674534Y-11324869D01*
X-674331Y-11248869D01*
X-673377Y-11144250D01*
X-671082Y-10953024D01*
X-668031Y-10798849D01*
X-663127Y-10676440D01*
X-655273Y-10580517D01*
X-643371Y-10505796D01*
X-626324Y-10446996D01*
X-610368Y-10414000D01*
X1227667Y-10414000D01*
X1227667Y-11959167D01*
X1354667Y-11959167D01*
X1354667Y-11070167D01*
X1799167Y-11070167D01*
X1799167Y-11324167D01*
X2180167Y-11324167D01*
X2180167Y-11662833D01*
X2455333Y-11662833D01*
X2455333Y-11324167D01*
X2815167Y-11324167D01*
X2815167Y-11070167D01*
X2455333Y-11070167D01*
X2455333Y-10710333D01*
X2180167Y-10710333D01*
X2180167Y-11070167D01*
X1799167Y-11070167D01*
X1354667Y-11070167D01*
X1354667Y-10414000D01*
X1227667Y-10414000D01*
X-610368Y-10414000D01*
X-603034Y-10398834D01*
X-572404Y-10356027D01*
X-533336Y-10313295D01*
X-492310Y-10272729D01*
X-462946Y-10243910D01*
X-436070Y-10218868D01*
X-408648Y-10197351D01*
X-377646Y-10179104D01*
X-340028Y-10163874D01*
X-292759Y-10151406D01*
X-232807Y-10141446D01*
X-157135Y-10133742D01*
X-62709Y-10128039D01*
X53506Y-10124082D01*
X194544Y-10121620D01*
X363439Y-10120396D01*
X563227Y-10120159D01*
X796942Y-10120653D01*
G37*
X796942Y-10120653D02*
X1067619Y-10121625D01*
X1303178Y-10122540D01*
X1591893Y-10123676D01*
X1841341Y-10124790D01*
X2054591Y-10125974D01*
X2234709Y-10127321D01*
X2384764Y-10128921D01*
X2507821Y-10130866D01*
X2606949Y-10133248D01*
X2685215Y-10136158D01*
X2745686Y-10139688D01*
X2791429Y-10143930D01*
X2825512Y-10148974D01*
X2851002Y-10154914D01*
X2870966Y-10161840D01*
X2888471Y-10169843D01*
X2888548Y-10169881D01*
X2996076Y-10241359D01*
X3093561Y-10338826D01*
X3165069Y-10446353D01*
X3165118Y-10446452D01*
X3176865Y-10472635D01*
X3186177Y-10501836D01*
X3193336Y-10539039D01*
X3198621Y-10589224D01*
X3202312Y-10657375D01*
X3204690Y-10748474D01*
X3206036Y-10867501D01*
X3206628Y-11019441D01*
X3206750Y-11186583D01*
X3206592Y-11372043D01*
X3205931Y-11520152D01*
X3204486Y-11635892D01*
X3201978Y-11724247D01*
X3198127Y-11790197D01*
X3192651Y-11838725D01*
X3185272Y-11874813D01*
X3175707Y-11903444D01*
X3165118Y-11926715D01*
X3093641Y-12034243D01*
X2996173Y-12131727D01*
X2888647Y-12203236D01*
X2888548Y-12203285D01*
X2871149Y-12211261D01*
X2851378Y-12218162D01*
X2826180Y-12224074D01*
X2792502Y-12229084D01*
X2747289Y-12233279D01*
X2687488Y-12236747D01*
X2610045Y-12239575D01*
X2511905Y-12241849D01*
X2390016Y-12243656D01*
X2241323Y-12245085D01*
X2062772Y-12246220D01*
X1851309Y-12247151D01*
X1603880Y-12247963D01*
X1317432Y-12248743D01*
X1291167Y-12248811D01*
X977625Y-12249421D01*
X704316Y-12249509D01*
X469142Y-12249048D01*
X270004Y-12248010D01*
X104806Y-12246367D01*
X-28552Y-12244090D01*
X-132167Y-12241152D01*
X-208137Y-12237523D01*
X-258560Y-12233177D01*
X-285534Y-12228085D01*
X-286741Y-12227645D01*
X-427918Y-12152417D01*
X-542104Y-12049101D01*
X-624383Y-11922843D01*
X-655212Y-11842264D01*
X-663480Y-11794269D01*
X-669473Y-11712933D01*
X-673245Y-11596256D01*
X-674847Y-11442235D01*
X-674534Y-11324869D01*
X-275167Y-11324869D01*
X836083Y-11313583D01*
X836083Y-11059583D01*
X-275167Y-11048297D01*
X-275167Y-11324869D01*
X-674534Y-11324869D01*
X-674331Y-11248869D01*
X-673377Y-11144250D01*
X-671082Y-10953024D01*
X-668031Y-10798849D01*
X-663127Y-10676440D01*
X-655273Y-10580517D01*
X-643371Y-10505796D01*
X-626324Y-10446996D01*
X-610368Y-10414000D01*
X1227667Y-10414000D01*
X1227667Y-11959167D01*
X1354667Y-11959167D01*
X1354667Y-11070167D01*
X1799167Y-11070167D01*
X1799167Y-11324167D01*
X2180167Y-11324167D01*
X2180167Y-11662833D01*
X2455333Y-11662833D01*
X2455333Y-11324167D01*
X2815167Y-11324167D01*
X2815167Y-11070167D01*
X2455333Y-11070167D01*
X2455333Y-10710333D01*
X2180167Y-10710333D01*
X2180167Y-11070167D01*
X1799167Y-11070167D01*
X1354667Y-11070167D01*
X1354667Y-10414000D01*
X1227667Y-10414000D01*
X-610368Y-10414000D01*
X-603034Y-10398834D01*
X-572404Y-10356027D01*
X-533336Y-10313295D01*
X-492310Y-10272729D01*
X-462946Y-10243910D01*
X-436070Y-10218868D01*
X-408648Y-10197351D01*
X-377646Y-10179104D01*
X-340028Y-10163874D01*
X-292759Y-10151406D01*
X-232807Y-10141446D01*
X-157135Y-10133742D01*
X-62709Y-10128039D01*
X53506Y-10124082D01*
X194544Y-10121620D01*
X363439Y-10120396D01*
X563227Y-10120159D01*
X796942Y-10120653D01*
G36*
X4524826Y15242912D02*
G01*
X5946916Y14832018D01*
X5946916Y13167440D01*
X4571083Y12769321D01*
X4336582Y12701583D01*
X4112826Y12637178D01*
X3903330Y12577104D01*
X3711607Y12522356D01*
X3541172Y12473932D01*
X3395538Y12432829D01*
X3278220Y12400044D01*
X3192731Y12376573D01*
X3142586Y12363413D01*
X3131750Y12360993D01*
X3098504Y12364192D01*
X3028929Y12378797D01*
X2922475Y12404957D01*
X2778592Y12442820D01*
X2596731Y12492536D01*
X2376342Y12554254D01*
X2116876Y12628123D01*
X1817782Y12714292D01*
X1660666Y12759866D01*
X253083Y13168948D01*
X253083Y14211667D01*
X750500Y14211667D01*
X750500Y13788334D01*
X2443833Y13788334D01*
X2443833Y14211667D01*
X750500Y14211667D01*
X253083Y14211667D01*
X253083Y14830777D01*
X1407412Y15164167D01*
X3036500Y15164167D01*
X3036500Y12835834D01*
X3227000Y12835834D01*
X3227000Y14190500D01*
X3904333Y14190500D01*
X3904333Y13809500D01*
X4475833Y13809500D01*
X4475833Y13280334D01*
X4878000Y13280334D01*
X4878000Y13809500D01*
X5449500Y13809500D01*
X5449500Y14190500D01*
X4878000Y14190500D01*
X4878000Y14719667D01*
X4475833Y14719667D01*
X4475833Y14190500D01*
X3904333Y14190500D01*
X3227000Y14190500D01*
X3227000Y15164167D01*
X3036500Y15164167D01*
X1407412Y15164167D01*
X1677909Y15242291D01*
X3102735Y15653804D01*
X4524826Y15242912D01*
G37*
X4524826Y15242912D02*
X5946916Y14832018D01*
X5946916Y13167440D01*
X4571083Y12769321D01*
X4336582Y12701583D01*
X4112826Y12637178D01*
X3903330Y12577104D01*
X3711607Y12522356D01*
X3541172Y12473932D01*
X3395538Y12432829D01*
X3278220Y12400044D01*
X3192731Y12376573D01*
X3142586Y12363413D01*
X3131750Y12360993D01*
X3098504Y12364192D01*
X3028929Y12378797D01*
X2922475Y12404957D01*
X2778592Y12442820D01*
X2596731Y12492536D01*
X2376342Y12554254D01*
X2116876Y12628123D01*
X1817782Y12714292D01*
X1660666Y12759866D01*
X253083Y13168948D01*
X253083Y14211667D01*
X750500Y14211667D01*
X750500Y13788334D01*
X2443833Y13788334D01*
X2443833Y14211667D01*
X750500Y14211667D01*
X253083Y14211667D01*
X253083Y14830777D01*
X1407412Y15164167D01*
X3036500Y15164167D01*
X3036500Y12835834D01*
X3227000Y12835834D01*
X3227000Y14190500D01*
X3904333Y14190500D01*
X3904333Y13809500D01*
X4475833Y13809500D01*
X4475833Y13280334D01*
X4878000Y13280334D01*
X4878000Y13809500D01*
X5449500Y13809500D01*
X5449500Y14190500D01*
X4878000Y14190500D01*
X4878000Y14719667D01*
X4475833Y14719667D01*
X4475833Y14190500D01*
X3904333Y14190500D01*
X3227000Y14190500D01*
X3227000Y15164167D01*
X3036500Y15164167D01*
X1407412Y15164167D01*
X1677909Y15242291D01*
X3102735Y15653804D01*
X4524826Y15242912D01*
D11*
%TO.C,J2*%
X14248000Y6382000D02*
X13748000Y7382000D01*
X17248000Y6382000D02*
X17748000Y7382000D01*
X17248000Y6382000D02*
X18248000Y5882000D01*
X15748000Y6382000D02*
X17248000Y6382000D01*
X14248000Y6382000D02*
X15748000Y6382000D01*
X13248000Y5882000D02*
X14248000Y6382000D01*
X18248000Y5882000D02*
X19998000Y8382000D01*
X13248000Y5882000D02*
X18248000Y5882000D01*
X11498000Y8382000D02*
X13248000Y5882000D01*
X12998000Y9632000D02*
X15748000Y9632000D01*
X12248000Y8382000D02*
X12998000Y9632000D01*
X10748000Y8382000D02*
X12248000Y8382000D01*
X9998000Y9632000D02*
X10748000Y8382000D01*
X9998000Y12132000D02*
X9998000Y9632000D01*
X10498000Y12632000D02*
X9998000Y12132000D01*
X12748000Y12632000D02*
X10498000Y12632000D01*
X13248000Y13382000D02*
X12748000Y12632000D01*
X15748000Y13382000D02*
X13248000Y13382000D01*
X19248000Y8382000D02*
X18498000Y9632000D01*
X15748000Y13382000D02*
X18248000Y13382000D01*
X18248000Y13382000D02*
X18748000Y12632000D01*
X18498000Y9632000D02*
X15748000Y9632000D01*
X21498000Y9632000D02*
X20748000Y8382000D01*
X20748000Y8382000D02*
X19248000Y8382000D01*
X21498000Y12132000D02*
X21498000Y9632000D01*
X20998000Y12632000D02*
X21498000Y12132000D01*
X18748000Y12632000D02*
X20998000Y12632000D01*
%TO.C,J9*%
X36275000Y-4620000D02*
X36275000Y-4120000D01*
X36275000Y-4120000D02*
X36775000Y-3620000D01*
X36775000Y-3620000D02*
X37775000Y-3620000D01*
X36275000Y-4620000D02*
X36275000Y-5120000D01*
X36275000Y-5120000D02*
X35775000Y-5620000D01*
X35775000Y-5620000D02*
X35275000Y-6120000D01*
X35275000Y-6120000D02*
X34275000Y-6120000D01*
X34275000Y-6120000D02*
X33775000Y-6620000D01*
X33775000Y-6620000D02*
X33775000Y-8620000D01*
X33775000Y-8620000D02*
X34275000Y-9120000D01*
X34275000Y-9120000D02*
X37775000Y-9120000D01*
X37775000Y-3620000D02*
X38775000Y-3620000D01*
X38775000Y-3620000D02*
X39275000Y-4120000D01*
X39275000Y-4120000D02*
X39275000Y-5120000D01*
X39275000Y-5120000D02*
X40275000Y-6120000D01*
X40275000Y-6120000D02*
X41275000Y-6120000D01*
X41275000Y-6120000D02*
X41775000Y-6620000D01*
X41775000Y-6620000D02*
X41775000Y-8620000D01*
X41775000Y-8620000D02*
X41275000Y-9120000D01*
X41275000Y-9120000D02*
X37775000Y-9120000D01*
X35775000Y-5620000D02*
X36775000Y-6620000D01*
X39775000Y-5620000D02*
X38775000Y-6620000D01*
X38775000Y-6620000D02*
X39275000Y-9120000D01*
X36775000Y-6620000D02*
X36275000Y-9120000D01*
X36775000Y-6620000D02*
X37775000Y-6320000D01*
X37775000Y-6320000D02*
X38775000Y-6620000D01*
%TO.C,J8*%
X9200000Y-4620000D02*
X9200000Y-4120000D01*
X9200000Y-4120000D02*
X9700000Y-3620000D01*
X9700000Y-3620000D02*
X10700000Y-3620000D01*
X9200000Y-4620000D02*
X9200000Y-5120000D01*
X9200000Y-5120000D02*
X8700000Y-5620000D01*
X8700000Y-5620000D02*
X8200000Y-6120000D01*
X8200000Y-6120000D02*
X7200000Y-6120000D01*
X7200000Y-6120000D02*
X6700000Y-6620000D01*
X6700000Y-6620000D02*
X6700000Y-8620000D01*
X6700000Y-8620000D02*
X7200000Y-9120000D01*
X7200000Y-9120000D02*
X10700000Y-9120000D01*
X10700000Y-3620000D02*
X11700000Y-3620000D01*
X11700000Y-3620000D02*
X12200000Y-4120000D01*
X12200000Y-4120000D02*
X12200000Y-5120000D01*
X12200000Y-5120000D02*
X13200000Y-6120000D01*
X13200000Y-6120000D02*
X14200000Y-6120000D01*
X14200000Y-6120000D02*
X14700000Y-6620000D01*
X14700000Y-6620000D02*
X14700000Y-8620000D01*
X14700000Y-8620000D02*
X14200000Y-9120000D01*
X14200000Y-9120000D02*
X10700000Y-9120000D01*
X8700000Y-5620000D02*
X9700000Y-6620000D01*
X12700000Y-5620000D02*
X11700000Y-6620000D01*
X11700000Y-6620000D02*
X12200000Y-9120000D01*
X9700000Y-6620000D02*
X9200000Y-9120000D01*
X9700000Y-6620000D02*
X10700000Y-6320000D01*
X10700000Y-6320000D02*
X11700000Y-6620000D01*
%TO.C,F2*%
X30820000Y602064D02*
X30820000Y-602064D01*
X32640000Y602064D02*
X32640000Y-602064D01*
%TO.C,F1*%
X15620000Y602064D02*
X15620000Y-602064D01*
X17440000Y602064D02*
X17440000Y-602064D01*
%TO.C,C4*%
X33360000Y711252D02*
X33360000Y-711252D01*
X35180000Y711252D02*
X35180000Y-711252D01*
%TO.C,C3*%
X34213748Y-12340000D02*
X35636252Y-12340000D01*
X34213748Y-10520000D02*
X35636252Y-10520000D01*
%TO.C,C2*%
X13080000Y711252D02*
X13080000Y-711252D01*
X14900000Y711252D02*
X14900000Y-711252D01*
%TO.C,C1*%
X14046252Y-10520000D02*
X12623748Y-10520000D01*
X14046252Y-12340000D02*
X12623748Y-12340000D01*
%TO.C,R2*%
X26310000Y-727064D02*
X26310000Y727064D01*
X24490000Y-727064D02*
X24490000Y727064D01*
%TO.C,R1*%
X23770000Y-727064D02*
X23770000Y727064D01*
X21950000Y-727064D02*
X21950000Y727064D01*
%TO.C,U3*%
X24530000Y-11720000D02*
X24530000Y-5710000D01*
X31350000Y-9470000D02*
X31350000Y-5710000D01*
X24530000Y-5710000D02*
X25790000Y-5710000D01*
X31350000Y-5710000D02*
X30090000Y-5710000D01*
%TO.C,U1*%
X16910000Y-11720000D02*
X16910000Y-5710000D01*
X23730000Y-9470000D02*
X23730000Y-5710000D01*
X16910000Y-5710000D02*
X18170000Y-5710000D01*
X23730000Y-5710000D02*
X22470000Y-5710000D01*
%TO.C,D2*%
D16*
X9088380Y7897904D02*
X8088380Y7897904D01*
X8088380Y8136000D01*
X8136000Y8278857D01*
X8231238Y8374095D01*
X8326476Y8421714D01*
X8516952Y8469333D01*
X8659809Y8469333D01*
X8850285Y8421714D01*
X8945523Y8374095D01*
X9040761Y8278857D01*
X9088380Y8136000D01*
X9088380Y7897904D01*
X8183619Y8850285D02*
X8136000Y8897904D01*
X8088380Y8993142D01*
X8088380Y9231238D01*
X8136000Y9326476D01*
X8183619Y9374095D01*
X8278857Y9421714D01*
X8374095Y9421714D01*
X8516952Y9374095D01*
X9088380Y8802666D01*
X9088380Y9421714D01*
%TO.C,C8*%
D12*
X47627000Y6082142D02*
X47591285Y6046428D01*
X47484142Y6010714D01*
X47412714Y6010714D01*
X47305571Y6046428D01*
X47234142Y6117857D01*
X47198428Y6189285D01*
X47162714Y6332142D01*
X47162714Y6439285D01*
X47198428Y6582142D01*
X47234142Y6653571D01*
X47305571Y6725000D01*
X47412714Y6760714D01*
X47484142Y6760714D01*
X47591285Y6725000D01*
X47627000Y6689285D01*
X48055571Y6439285D02*
X47984142Y6475000D01*
X47948428Y6510714D01*
X47912714Y6582142D01*
X47912714Y6617857D01*
X47948428Y6689285D01*
X47984142Y6725000D01*
X48055571Y6760714D01*
X48198428Y6760714D01*
X48269857Y6725000D01*
X48305571Y6689285D01*
X48341285Y6617857D01*
X48341285Y6582142D01*
X48305571Y6510714D01*
X48269857Y6475000D01*
X48198428Y6439285D01*
X48055571Y6439285D01*
X47984142Y6403571D01*
X47948428Y6367857D01*
X47912714Y6296428D01*
X47912714Y6153571D01*
X47948428Y6082142D01*
X47984142Y6046428D01*
X48055571Y6010714D01*
X48198428Y6010714D01*
X48269857Y6046428D01*
X48305571Y6082142D01*
X48341285Y6153571D01*
X48341285Y6296428D01*
X48305571Y6367857D01*
X48269857Y6403571D01*
X48198428Y6439285D01*
%TO.C,C7*%
X41785000Y6082142D02*
X41749285Y6046428D01*
X41642142Y6010714D01*
X41570714Y6010714D01*
X41463571Y6046428D01*
X41392142Y6117857D01*
X41356428Y6189285D01*
X41320714Y6332142D01*
X41320714Y6439285D01*
X41356428Y6582142D01*
X41392142Y6653571D01*
X41463571Y6725000D01*
X41570714Y6760714D01*
X41642142Y6760714D01*
X41749285Y6725000D01*
X41785000Y6689285D01*
X42035000Y6760714D02*
X42535000Y6760714D01*
X42213571Y6010714D01*
%TO.C,C6*%
X36070000Y6082142D02*
X36034285Y6046428D01*
X35927142Y6010714D01*
X35855714Y6010714D01*
X35748571Y6046428D01*
X35677142Y6117857D01*
X35641428Y6189285D01*
X35605714Y6332142D01*
X35605714Y6439285D01*
X35641428Y6582142D01*
X35677142Y6653571D01*
X35748571Y6725000D01*
X35855714Y6760714D01*
X35927142Y6760714D01*
X36034285Y6725000D01*
X36070000Y6689285D01*
X36712857Y6760714D02*
X36570000Y6760714D01*
X36498571Y6725000D01*
X36462857Y6689285D01*
X36391428Y6582142D01*
X36355714Y6439285D01*
X36355714Y6153571D01*
X36391428Y6082142D01*
X36427142Y6046428D01*
X36498571Y6010714D01*
X36641428Y6010714D01*
X36712857Y6046428D01*
X36748571Y6082142D01*
X36784285Y6153571D01*
X36784285Y6332142D01*
X36748571Y6403571D01*
X36712857Y6439285D01*
X36641428Y6475000D01*
X36498571Y6475000D01*
X36427142Y6439285D01*
X36391428Y6403571D01*
X36355714Y6332142D01*
%TO.C,C5*%
X30355000Y6082142D02*
X30319285Y6046428D01*
X30212142Y6010714D01*
X30140714Y6010714D01*
X30033571Y6046428D01*
X29962142Y6117857D01*
X29926428Y6189285D01*
X29890714Y6332142D01*
X29890714Y6439285D01*
X29926428Y6582142D01*
X29962142Y6653571D01*
X30033571Y6725000D01*
X30140714Y6760714D01*
X30212142Y6760714D01*
X30319285Y6725000D01*
X30355000Y6689285D01*
X31033571Y6760714D02*
X30676428Y6760714D01*
X30640714Y6403571D01*
X30676428Y6439285D01*
X30747857Y6475000D01*
X30926428Y6475000D01*
X30997857Y6439285D01*
X31033571Y6403571D01*
X31069285Y6332142D01*
X31069285Y6153571D01*
X31033571Y6082142D01*
X30997857Y6046428D01*
X30926428Y6010714D01*
X30747857Y6010714D01*
X30676428Y6046428D01*
X30640714Y6082142D01*
%TO.C,F2*%
X31676428Y2925000D02*
X31676428Y2675000D01*
X32069285Y2675000D02*
X31319285Y2675000D01*
X31319285Y3032142D01*
X31390714Y3282142D02*
X31355000Y3317857D01*
X31319285Y3389285D01*
X31319285Y3567857D01*
X31355000Y3639285D01*
X31390714Y3675000D01*
X31462142Y3710714D01*
X31533571Y3710714D01*
X31640714Y3675000D01*
X32069285Y3246428D01*
X32069285Y3710714D01*
%TO.C,F1*%
X16476428Y2925000D02*
X16476428Y2675000D01*
X16869285Y2675000D02*
X16119285Y2675000D01*
X16119285Y3032142D01*
X16869285Y3710714D02*
X16869285Y3282142D01*
X16869285Y3496428D02*
X16119285Y3496428D01*
X16226428Y3425000D01*
X16297857Y3353571D01*
X16333571Y3282142D01*
%TO.C,C4*%
X34537857Y3050000D02*
X34573571Y3014285D01*
X34609285Y2907142D01*
X34609285Y2835714D01*
X34573571Y2728571D01*
X34502142Y2657142D01*
X34430714Y2621428D01*
X34287857Y2585714D01*
X34180714Y2585714D01*
X34037857Y2621428D01*
X33966428Y2657142D01*
X33895000Y2728571D01*
X33859285Y2835714D01*
X33859285Y2907142D01*
X33895000Y3014285D01*
X33930714Y3050000D01*
X34109285Y3692857D02*
X34609285Y3692857D01*
X33823571Y3514285D02*
X34359285Y3335714D01*
X34359285Y3800000D01*
%TO.C,C3*%
D16*
X38568333Y-11787142D02*
X38520714Y-11834761D01*
X38377857Y-11882380D01*
X38282619Y-11882380D01*
X38139761Y-11834761D01*
X38044523Y-11739523D01*
X37996904Y-11644285D01*
X37949285Y-11453809D01*
X37949285Y-11310952D01*
X37996904Y-11120476D01*
X38044523Y-11025238D01*
X38139761Y-10930000D01*
X38282619Y-10882380D01*
X38377857Y-10882380D01*
X38520714Y-10930000D01*
X38568333Y-10977619D01*
X38901666Y-10882380D02*
X39520714Y-10882380D01*
X39187380Y-11263333D01*
X39330238Y-11263333D01*
X39425476Y-11310952D01*
X39473095Y-11358571D01*
X39520714Y-11453809D01*
X39520714Y-11691904D01*
X39473095Y-11787142D01*
X39425476Y-11834761D01*
X39330238Y-11882380D01*
X39044523Y-11882380D01*
X38949285Y-11834761D01*
X38901666Y-11787142D01*
%TO.C,C2*%
D12*
X14257857Y3050000D02*
X14293571Y3014285D01*
X14329285Y2907142D01*
X14329285Y2835714D01*
X14293571Y2728571D01*
X14222142Y2657142D01*
X14150714Y2621428D01*
X14007857Y2585714D01*
X13900714Y2585714D01*
X13757857Y2621428D01*
X13686428Y2657142D01*
X13615000Y2728571D01*
X13579285Y2835714D01*
X13579285Y2907142D01*
X13615000Y3014285D01*
X13650714Y3050000D01*
X13650714Y3335714D02*
X13615000Y3371428D01*
X13579285Y3442857D01*
X13579285Y3621428D01*
X13615000Y3692857D01*
X13650714Y3728571D01*
X13722142Y3764285D01*
X13793571Y3764285D01*
X13900714Y3728571D01*
X14329285Y3300000D01*
X14329285Y3764285D01*
%TO.C,C1*%
D16*
X9358333Y-11787142D02*
X9310714Y-11834761D01*
X9167857Y-11882380D01*
X9072619Y-11882380D01*
X8929761Y-11834761D01*
X8834523Y-11739523D01*
X8786904Y-11644285D01*
X8739285Y-11453809D01*
X8739285Y-11310952D01*
X8786904Y-11120476D01*
X8834523Y-11025238D01*
X8929761Y-10930000D01*
X9072619Y-10882380D01*
X9167857Y-10882380D01*
X9310714Y-10930000D01*
X9358333Y-10977619D01*
X10310714Y-11882380D02*
X9739285Y-11882380D01*
X10025000Y-11882380D02*
X10025000Y-10882380D01*
X9929761Y-11025238D01*
X9834523Y-11120476D01*
X9739285Y-11168095D01*
%TO.C,R2*%
D12*
X25739285Y3050000D02*
X25382142Y2800000D01*
X25739285Y2621428D02*
X24989285Y2621428D01*
X24989285Y2907142D01*
X25025000Y2978571D01*
X25060714Y3014285D01*
X25132142Y3050000D01*
X25239285Y3050000D01*
X25310714Y3014285D01*
X25346428Y2978571D01*
X25382142Y2907142D01*
X25382142Y2621428D01*
X25060714Y3335714D02*
X25025000Y3371428D01*
X24989285Y3442857D01*
X24989285Y3621428D01*
X25025000Y3692857D01*
X25060714Y3728571D01*
X25132142Y3764285D01*
X25203571Y3764285D01*
X25310714Y3728571D01*
X25739285Y3300000D01*
X25739285Y3764285D01*
%TO.C,R1*%
X23199285Y3050000D02*
X22842142Y2800000D01*
X23199285Y2621428D02*
X22449285Y2621428D01*
X22449285Y2907142D01*
X22485000Y2978571D01*
X22520714Y3014285D01*
X22592142Y3050000D01*
X22699285Y3050000D01*
X22770714Y3014285D01*
X22806428Y2978571D01*
X22842142Y2907142D01*
X22842142Y2621428D01*
X23199285Y3764285D02*
X23199285Y3335714D01*
X23199285Y3550000D02*
X22449285Y3550000D01*
X22556428Y3478571D01*
X22627857Y3407142D01*
X22663571Y3335714D01*
%TO.C,U3*%
X30416571Y-4542285D02*
X30416571Y-5149428D01*
X30452285Y-5220857D01*
X30488000Y-5256571D01*
X30559428Y-5292285D01*
X30702285Y-5292285D01*
X30773714Y-5256571D01*
X30809428Y-5220857D01*
X30845142Y-5149428D01*
X30845142Y-4542285D01*
X31130857Y-4542285D02*
X31595142Y-4542285D01*
X31345142Y-4828000D01*
X31452285Y-4828000D01*
X31523714Y-4863714D01*
X31559428Y-4899428D01*
X31595142Y-4970857D01*
X31595142Y-5149428D01*
X31559428Y-5220857D01*
X31523714Y-5256571D01*
X31452285Y-5292285D01*
X31238000Y-5292285D01*
X31166571Y-5256571D01*
X31130857Y-5220857D01*
%TO.C,U1*%
X16700571Y-4542285D02*
X16700571Y-5149428D01*
X16736285Y-5220857D01*
X16772000Y-5256571D01*
X16843428Y-5292285D01*
X16986285Y-5292285D01*
X17057714Y-5256571D01*
X17093428Y-5220857D01*
X17129142Y-5149428D01*
X17129142Y-4542285D01*
X17879142Y-5292285D02*
X17450571Y-5292285D01*
X17664857Y-5292285D02*
X17664857Y-4542285D01*
X17593428Y-4649428D01*
X17522000Y-4720857D01*
X17450571Y-4756571D01*
%TD*%
M02*
