M48
; DRILL file {KiCad (5.1.7)-1} date 03/20/21 23:16:37
; FORMAT={-:-/ absolute / metric / decimal}
; #@! TF.CreationDate,2021-03-20T23:16:37+01:00
; #@! TF.GenerationSoftware,Kicad,Pcbnew,(5.1.7)-1
; #@! TF.FileFunction,Plated,1,2,PTH
FMAT,2
METRIC
T1C0.400
T2C0.500
T3C0.700
T4C1.000
T5C1.300
%
G90
G05
T1
X15.5Y-18.5
X16.0Y-9.5
X23.0Y-9.0
X23.0Y-18.015
X24.29Y-17.04
X27.0Y-17.5
X31.0Y-17.5
X34.04Y-16.96
X37.5Y-18.5
X39.0Y-13.5
T3
X19.075Y-7.4
X23.925Y-7.4
T4
X40.46Y-16.96
X43.0Y-14.42
X43.0Y-16.96
X43.0Y-19.5
X2.87Y-14.92
X2.87Y-17.46
X2.87Y-20.0
X5.41Y-14.92
X5.41Y-17.46
X5.41Y-20.0
X48.59Y-14.92
X48.59Y-17.46
X48.59Y-20.0
X51.13Y-14.92
X51.13Y-17.46
X51.13Y-20.0
X11.0Y-14.5
X11.0Y-17.04
X11.0Y-19.58
X13.54Y-17.04
T5
X4.095Y-8.0
X7.905Y-8.0
T2
G00X17.9Y-4.2
M15
G01X17.9Y-5.0
M16
G05
G00X17.9Y-4.2
M15
G01X17.9Y-5.0
M16
G05
G00X25.1Y-5.0
M15
G01X25.1Y-4.2
M16
G05
T0
M30
