%TF.GenerationSoftware,KiCad,Pcbnew,(5.1.7)-1*%
%TF.CreationDate,2021-01-09T19:34:55+01:00*%
%TF.ProjectId,MicroBBPS,4d696372-6f42-4425-9053-2e6b69636164,rev?*%
%TF.SameCoordinates,Original*%
%TF.FileFunction,Copper,L1,Top*%
%TF.FilePolarity,Positive*%
%FSLAX46Y46*%
G04 Gerber Fmt 4.6, Leading zero omitted, Abs format (unit mm)*
G04 Created by KiCad (PCBNEW (5.1.7)-1) date 2021-01-09 19:34:55*
%MOMM*%
%LPD*%
G01*
G04 APERTURE LIST*
%TA.AperFunction,ComponentPad*%
%ADD10C,2.700000*%
%TD*%
%TA.AperFunction,SMDPad,CuDef*%
%ADD11R,2.400000X1.000000*%
%TD*%
%TA.AperFunction,SMDPad,CuDef*%
%ADD12R,1.800000X2.500000*%
%TD*%
%TA.AperFunction,ComponentPad*%
%ADD13O,1.100000X1.800000*%
%TD*%
%TA.AperFunction,ComponentPad*%
%ADD14C,1.290000*%
%TD*%
%TA.AperFunction,SMDPad,CuDef*%
%ADD15R,0.400000X1.250000*%
%TD*%
%TA.AperFunction,ComponentPad*%
%ADD16O,1.700000X1.700000*%
%TD*%
%TA.AperFunction,ComponentPad*%
%ADD17R,1.700000X1.700000*%
%TD*%
%TA.AperFunction,SMDPad,CuDef*%
%ADD18R,1.500000X2.000000*%
%TD*%
%TA.AperFunction,SMDPad,CuDef*%
%ADD19R,3.800000X2.000000*%
%TD*%
%TA.AperFunction,ViaPad*%
%ADD20C,0.800000*%
%TD*%
%TA.AperFunction,Conductor*%
%ADD21C,0.750000*%
%TD*%
%TA.AperFunction,Conductor*%
%ADD22C,0.500000*%
%TD*%
%TA.AperFunction,Conductor*%
%ADD23C,1.000000*%
%TD*%
%TA.AperFunction,Conductor*%
%ADD24C,0.250000*%
%TD*%
%TA.AperFunction,Conductor*%
%ADD25C,0.100000*%
%TD*%
%TA.AperFunction,Conductor*%
%ADD26C,0.254000*%
%TD*%
G04 APERTURE END LIST*
D10*
%TO.P,J5,2*%
%TO.N,GND*%
X1195000Y8200000D03*
%TO.P,J5,1*%
%TO.N,Net-(D2-Pad2)*%
X5005000Y8200000D03*
%TD*%
D11*
%TO.P,D3,2*%
%TO.N,+5V*%
X19750000Y850000D03*
%TO.P,D3,1*%
%TO.N,Net-(D3-Pad1)*%
X19750000Y-850000D03*
%TD*%
%TO.P,D1,2*%
%TO.N,+3V3*%
X28500000Y850000D03*
%TO.P,D1,1*%
%TO.N,Net-(D1-Pad1)*%
X28500000Y-850000D03*
%TD*%
D12*
%TO.P,D2,2*%
%TO.N,Net-(D2-Pad2)*%
X10033000Y5937000D03*
%TO.P,D2,1*%
%TO.N,VS*%
X10033000Y1937000D03*
%TD*%
%TO.P,C8,2*%
%TO.N,GND*%
%TA.AperFunction,SMDPad,CuDef*%
G36*
G01*
X45635000Y9390000D02*
X44535000Y9390000D01*
G75*
G02*
X44285000Y9640000I0J250000D01*
G01*
X44285000Y11740000D01*
G75*
G02*
X44535000Y11990000I250000J0D01*
G01*
X45635000Y11990000D01*
G75*
G02*
X45885000Y11740000I0J-250000D01*
G01*
X45885000Y9640000D01*
G75*
G02*
X45635000Y9390000I-250000J0D01*
G01*
G37*
%TD.AperFunction*%
%TO.P,C8,1*%
%TO.N,+3V3*%
%TA.AperFunction,SMDPad,CuDef*%
G36*
G01*
X45635000Y5790000D02*
X44535000Y5790000D01*
G75*
G02*
X44285000Y6040000I0J250000D01*
G01*
X44285000Y8140000D01*
G75*
G02*
X44535000Y8390000I250000J0D01*
G01*
X45635000Y8390000D01*
G75*
G02*
X45885000Y8140000I0J-250000D01*
G01*
X45885000Y6040000D01*
G75*
G02*
X45635000Y5790000I-250000J0D01*
G01*
G37*
%TD.AperFunction*%
%TD*%
%TO.P,C7,2*%
%TO.N,GND*%
%TA.AperFunction,SMDPad,CuDef*%
G36*
G01*
X39920000Y9390000D02*
X38820000Y9390000D01*
G75*
G02*
X38570000Y9640000I0J250000D01*
G01*
X38570000Y11740000D01*
G75*
G02*
X38820000Y11990000I250000J0D01*
G01*
X39920000Y11990000D01*
G75*
G02*
X40170000Y11740000I0J-250000D01*
G01*
X40170000Y9640000D01*
G75*
G02*
X39920000Y9390000I-250000J0D01*
G01*
G37*
%TD.AperFunction*%
%TO.P,C7,1*%
%TO.N,+3V3*%
%TA.AperFunction,SMDPad,CuDef*%
G36*
G01*
X39920000Y5790000D02*
X38820000Y5790000D01*
G75*
G02*
X38570000Y6040000I0J250000D01*
G01*
X38570000Y8140000D01*
G75*
G02*
X38820000Y8390000I250000J0D01*
G01*
X39920000Y8390000D01*
G75*
G02*
X40170000Y8140000I0J-250000D01*
G01*
X40170000Y6040000D01*
G75*
G02*
X39920000Y5790000I-250000J0D01*
G01*
G37*
%TD.AperFunction*%
%TD*%
%TO.P,C6,2*%
%TO.N,GND*%
%TA.AperFunction,SMDPad,CuDef*%
G36*
G01*
X34205000Y9390000D02*
X33105000Y9390000D01*
G75*
G02*
X32855000Y9640000I0J250000D01*
G01*
X32855000Y11740000D01*
G75*
G02*
X33105000Y11990000I250000J0D01*
G01*
X34205000Y11990000D01*
G75*
G02*
X34455000Y11740000I0J-250000D01*
G01*
X34455000Y9640000D01*
G75*
G02*
X34205000Y9390000I-250000J0D01*
G01*
G37*
%TD.AperFunction*%
%TO.P,C6,1*%
%TO.N,+5V*%
%TA.AperFunction,SMDPad,CuDef*%
G36*
G01*
X34205000Y5790000D02*
X33105000Y5790000D01*
G75*
G02*
X32855000Y6040000I0J250000D01*
G01*
X32855000Y8140000D01*
G75*
G02*
X33105000Y8390000I250000J0D01*
G01*
X34205000Y8390000D01*
G75*
G02*
X34455000Y8140000I0J-250000D01*
G01*
X34455000Y6040000D01*
G75*
G02*
X34205000Y5790000I-250000J0D01*
G01*
G37*
%TD.AperFunction*%
%TD*%
%TO.P,C5,2*%
%TO.N,GND*%
%TA.AperFunction,SMDPad,CuDef*%
G36*
G01*
X28490000Y9390000D02*
X27390000Y9390000D01*
G75*
G02*
X27140000Y9640000I0J250000D01*
G01*
X27140000Y11740000D01*
G75*
G02*
X27390000Y11990000I250000J0D01*
G01*
X28490000Y11990000D01*
G75*
G02*
X28740000Y11740000I0J-250000D01*
G01*
X28740000Y9640000D01*
G75*
G02*
X28490000Y9390000I-250000J0D01*
G01*
G37*
%TD.AperFunction*%
%TO.P,C5,1*%
%TO.N,+5V*%
%TA.AperFunction,SMDPad,CuDef*%
G36*
G01*
X28490000Y5790000D02*
X27390000Y5790000D01*
G75*
G02*
X27140000Y6040000I0J250000D01*
G01*
X27140000Y8140000D01*
G75*
G02*
X27390000Y8390000I250000J0D01*
G01*
X28490000Y8390000D01*
G75*
G02*
X28740000Y8140000I0J-250000D01*
G01*
X28740000Y6040000D01*
G75*
G02*
X28490000Y5790000I-250000J0D01*
G01*
G37*
%TD.AperFunction*%
%TD*%
D13*
%TO.P,J2,6*%
%TO.N,GND*%
X19348000Y11182000D03*
X12148000Y11182000D03*
D14*
X18173000Y8382000D03*
X13323000Y8382000D03*
D15*
%TO.P,J2,1*%
%TO.N,+5V*%
X17048000Y8382000D03*
%TO.P,J2,2*%
%TO.N,/USB_Conn_D-*%
X16398000Y8382000D03*
%TO.P,J2,3*%
%TO.N,/USB_Conn_D+*%
X15748000Y8382000D03*
%TO.P,J2,4*%
%TO.N,Net-(J2-Pad4)*%
X15098000Y8382000D03*
%TO.P,J2,5*%
%TO.N,GND*%
X14398000Y8382000D03*
%TO.P,J2,6*%
%TA.AperFunction,SMDPad,CuDef*%
G36*
G01*
X17248000Y11682000D02*
X17248000Y10682000D01*
G75*
G02*
X16748000Y10182000I-500000J0D01*
G01*
X14748000Y10182000D01*
G75*
G02*
X14248000Y10682000I0J500000D01*
G01*
X14248000Y11682000D01*
G75*
G02*
X14748000Y12182000I500000J0D01*
G01*
X16748000Y12182000D01*
G75*
G02*
X17248000Y11682000I0J-500000D01*
G01*
G37*
%TD.AperFunction*%
D13*
X12148000Y11182000D03*
%TD*%
D16*
%TO.P,J9,3*%
%TO.N,+3V3*%
X40355000Y-7620000D03*
%TO.P,J9,4*%
%TO.N,VS*%
X37815000Y-5080000D03*
%TO.P,J9,2*%
%TO.N,/VoutRight*%
X37815000Y-7620000D03*
D17*
%TO.P,J9,1*%
%TO.N,+5V*%
X35275000Y-7620000D03*
%TD*%
D16*
%TO.P,J8,3*%
%TO.N,+5V*%
X13280000Y-7620000D03*
%TO.P,J8,4*%
%TO.N,VS*%
X10740000Y-5080000D03*
%TO.P,J8,2*%
%TO.N,/VoutLeft*%
X10740000Y-7620000D03*
D17*
%TO.P,J8,1*%
%TO.N,+3V3*%
X8200000Y-7620000D03*
%TD*%
%TO.P,F2,2*%
%TO.N,Net-(F2-Pad2)*%
%TA.AperFunction,SMDPad,CuDef*%
G36*
G01*
X31105000Y-775000D02*
X32355000Y-775000D01*
G75*
G02*
X32605000Y-1025000I0J-250000D01*
G01*
X32605000Y-1775000D01*
G75*
G02*
X32355000Y-2025000I-250000J0D01*
G01*
X31105000Y-2025000D01*
G75*
G02*
X30855000Y-1775000I0J250000D01*
G01*
X30855000Y-1025000D01*
G75*
G02*
X31105000Y-775000I250000J0D01*
G01*
G37*
%TD.AperFunction*%
%TO.P,F2,1*%
%TO.N,+3V3*%
%TA.AperFunction,SMDPad,CuDef*%
G36*
G01*
X31105000Y2025000D02*
X32355000Y2025000D01*
G75*
G02*
X32605000Y1775000I0J-250000D01*
G01*
X32605000Y1025000D01*
G75*
G02*
X32355000Y775000I-250000J0D01*
G01*
X31105000Y775000D01*
G75*
G02*
X30855000Y1025000I0J250000D01*
G01*
X30855000Y1775000D01*
G75*
G02*
X31105000Y2025000I250000J0D01*
G01*
G37*
%TD.AperFunction*%
%TD*%
%TO.P,F1,2*%
%TO.N,Net-(F1-Pad2)*%
%TA.AperFunction,SMDPad,CuDef*%
G36*
G01*
X15905000Y-775000D02*
X17155000Y-775000D01*
G75*
G02*
X17405000Y-1025000I0J-250000D01*
G01*
X17405000Y-1775000D01*
G75*
G02*
X17155000Y-2025000I-250000J0D01*
G01*
X15905000Y-2025000D01*
G75*
G02*
X15655000Y-1775000I0J250000D01*
G01*
X15655000Y-1025000D01*
G75*
G02*
X15905000Y-775000I250000J0D01*
G01*
G37*
%TD.AperFunction*%
%TO.P,F1,1*%
%TO.N,+5V*%
%TA.AperFunction,SMDPad,CuDef*%
G36*
G01*
X15905000Y2025000D02*
X17155000Y2025000D01*
G75*
G02*
X17405000Y1775000I0J-250000D01*
G01*
X17405000Y1025000D01*
G75*
G02*
X17155000Y775000I-250000J0D01*
G01*
X15905000Y775000D01*
G75*
G02*
X15655000Y1025000I0J250000D01*
G01*
X15655000Y1775000D01*
G75*
G02*
X15905000Y2025000I250000J0D01*
G01*
G37*
%TD.AperFunction*%
%TD*%
%TO.P,C4,2*%
%TO.N,GND*%
%TA.AperFunction,SMDPad,CuDef*%
G36*
G01*
X33619999Y-900000D02*
X34920001Y-900000D01*
G75*
G02*
X35170000Y-1149999I0J-249999D01*
G01*
X35170000Y-1975001D01*
G75*
G02*
X34920001Y-2225000I-249999J0D01*
G01*
X33619999Y-2225000D01*
G75*
G02*
X33370000Y-1975001I0J249999D01*
G01*
X33370000Y-1149999D01*
G75*
G02*
X33619999Y-900000I249999J0D01*
G01*
G37*
%TD.AperFunction*%
%TO.P,C4,1*%
%TO.N,+3V3*%
%TA.AperFunction,SMDPad,CuDef*%
G36*
G01*
X33619999Y2225000D02*
X34920001Y2225000D01*
G75*
G02*
X35170000Y1975001I0J-249999D01*
G01*
X35170000Y1149999D01*
G75*
G02*
X34920001Y900000I-249999J0D01*
G01*
X33619999Y900000D01*
G75*
G02*
X33370000Y1149999I0J249999D01*
G01*
X33370000Y1975001D01*
G75*
G02*
X33619999Y2225000I249999J0D01*
G01*
G37*
%TD.AperFunction*%
%TD*%
%TO.P,C3,2*%
%TO.N,GND*%
%TA.AperFunction,SMDPad,CuDef*%
G36*
G01*
X35825000Y-12080001D02*
X35825000Y-10779999D01*
G75*
G02*
X36074999Y-10530000I249999J0D01*
G01*
X36900001Y-10530000D01*
G75*
G02*
X37150000Y-10779999I0J-249999D01*
G01*
X37150000Y-12080001D01*
G75*
G02*
X36900001Y-12330000I-249999J0D01*
G01*
X36074999Y-12330000D01*
G75*
G02*
X35825000Y-12080001I0J249999D01*
G01*
G37*
%TD.AperFunction*%
%TO.P,C3,1*%
%TO.N,VS*%
%TA.AperFunction,SMDPad,CuDef*%
G36*
G01*
X32700000Y-12080001D02*
X32700000Y-10779999D01*
G75*
G02*
X32949999Y-10530000I249999J0D01*
G01*
X33775001Y-10530000D01*
G75*
G02*
X34025000Y-10779999I0J-249999D01*
G01*
X34025000Y-12080001D01*
G75*
G02*
X33775001Y-12330000I-249999J0D01*
G01*
X32949999Y-12330000D01*
G75*
G02*
X32700000Y-12080001I0J249999D01*
G01*
G37*
%TD.AperFunction*%
%TD*%
%TO.P,C2,2*%
%TO.N,GND*%
%TA.AperFunction,SMDPad,CuDef*%
G36*
G01*
X13339999Y-900000D02*
X14640001Y-900000D01*
G75*
G02*
X14890000Y-1149999I0J-249999D01*
G01*
X14890000Y-1975001D01*
G75*
G02*
X14640001Y-2225000I-249999J0D01*
G01*
X13339999Y-2225000D01*
G75*
G02*
X13090000Y-1975001I0J249999D01*
G01*
X13090000Y-1149999D01*
G75*
G02*
X13339999Y-900000I249999J0D01*
G01*
G37*
%TD.AperFunction*%
%TO.P,C2,1*%
%TO.N,+5V*%
%TA.AperFunction,SMDPad,CuDef*%
G36*
G01*
X13339999Y2225000D02*
X14640001Y2225000D01*
G75*
G02*
X14890000Y1975001I0J-249999D01*
G01*
X14890000Y1149999D01*
G75*
G02*
X14640001Y900000I-249999J0D01*
G01*
X13339999Y900000D01*
G75*
G02*
X13090000Y1149999I0J249999D01*
G01*
X13090000Y1975001D01*
G75*
G02*
X13339999Y2225000I249999J0D01*
G01*
G37*
%TD.AperFunction*%
%TD*%
%TO.P,C1,2*%
%TO.N,GND*%
%TA.AperFunction,SMDPad,CuDef*%
G36*
G01*
X12435000Y-10779999D02*
X12435000Y-12080001D01*
G75*
G02*
X12185001Y-12330000I-249999J0D01*
G01*
X11359999Y-12330000D01*
G75*
G02*
X11110000Y-12080001I0J249999D01*
G01*
X11110000Y-10779999D01*
G75*
G02*
X11359999Y-10530000I249999J0D01*
G01*
X12185001Y-10530000D01*
G75*
G02*
X12435000Y-10779999I0J-249999D01*
G01*
G37*
%TD.AperFunction*%
%TO.P,C1,1*%
%TO.N,VS*%
%TA.AperFunction,SMDPad,CuDef*%
G36*
G01*
X15560000Y-10779999D02*
X15560000Y-12080001D01*
G75*
G02*
X15310001Y-12330000I-249999J0D01*
G01*
X14484999Y-12330000D01*
G75*
G02*
X14235000Y-12080001I0J249999D01*
G01*
X14235000Y-10779999D01*
G75*
G02*
X14484999Y-10530000I249999J0D01*
G01*
X15310001Y-10530000D01*
G75*
G02*
X15560000Y-10779999I0J-249999D01*
G01*
G37*
%TD.AperFunction*%
%TD*%
%TO.P,R2,2*%
%TO.N,GND*%
%TA.AperFunction,SMDPad,CuDef*%
G36*
G01*
X26025000Y900000D02*
X24775000Y900000D01*
G75*
G02*
X24525000Y1150000I0J250000D01*
G01*
X24525000Y1950000D01*
G75*
G02*
X24775000Y2200000I250000J0D01*
G01*
X26025000Y2200000D01*
G75*
G02*
X26275000Y1950000I0J-250000D01*
G01*
X26275000Y1150000D01*
G75*
G02*
X26025000Y900000I-250000J0D01*
G01*
G37*
%TD.AperFunction*%
%TO.P,R2,1*%
%TO.N,Net-(D1-Pad1)*%
%TA.AperFunction,SMDPad,CuDef*%
G36*
G01*
X26025000Y-2200000D02*
X24775000Y-2200000D01*
G75*
G02*
X24525000Y-1950000I0J250000D01*
G01*
X24525000Y-1150000D01*
G75*
G02*
X24775000Y-900000I250000J0D01*
G01*
X26025000Y-900000D01*
G75*
G02*
X26275000Y-1150000I0J-250000D01*
G01*
X26275000Y-1950000D01*
G75*
G02*
X26025000Y-2200000I-250000J0D01*
G01*
G37*
%TD.AperFunction*%
%TD*%
%TO.P,R1,2*%
%TO.N,GND*%
%TA.AperFunction,SMDPad,CuDef*%
G36*
G01*
X23485000Y900000D02*
X22235000Y900000D01*
G75*
G02*
X21985000Y1150000I0J250000D01*
G01*
X21985000Y1950000D01*
G75*
G02*
X22235000Y2200000I250000J0D01*
G01*
X23485000Y2200000D01*
G75*
G02*
X23735000Y1950000I0J-250000D01*
G01*
X23735000Y1150000D01*
G75*
G02*
X23485000Y900000I-250000J0D01*
G01*
G37*
%TD.AperFunction*%
%TO.P,R1,1*%
%TO.N,Net-(D3-Pad1)*%
%TA.AperFunction,SMDPad,CuDef*%
G36*
G01*
X23485000Y-2200000D02*
X22235000Y-2200000D01*
G75*
G02*
X21985000Y-1950000I0J250000D01*
G01*
X21985000Y-1150000D01*
G75*
G02*
X22235000Y-900000I250000J0D01*
G01*
X23485000Y-900000D01*
G75*
G02*
X23735000Y-1150000I0J-250000D01*
G01*
X23735000Y-1950000D01*
G75*
G02*
X23485000Y-2200000I-250000J0D01*
G01*
G37*
%TD.AperFunction*%
%TD*%
D16*
%TO.P,Right1,8*%
%TO.N,GND*%
X45720000Y-7620000D03*
%TO.P,Right1,7*%
%TO.N,/VoutRight*%
X48260000Y-7620000D03*
%TO.P,Right1,6*%
%TO.N,GND*%
X45720000Y-5080000D03*
%TO.P,Right1,5*%
%TO.N,/VoutRight*%
X48260000Y-5080000D03*
%TO.P,Right1,4*%
%TO.N,GND*%
X45720000Y-2540000D03*
%TO.P,Right1,3*%
%TO.N,/VoutRight*%
X48260000Y-2540000D03*
%TO.P,Right1,2*%
%TO.N,GND*%
X45720000Y0D03*
D17*
%TO.P,Right1,1*%
%TO.N,/VoutRight*%
X48260000Y0D03*
%TD*%
D16*
%TO.P,Left1,8*%
%TO.N,GND*%
X0Y-7620000D03*
%TO.P,Left1,7*%
%TO.N,/VoutLeft*%
X2540000Y-7620000D03*
%TO.P,Left1,6*%
%TO.N,GND*%
X0Y-5080000D03*
%TO.P,Left1,5*%
%TO.N,/VoutLeft*%
X2540000Y-5080000D03*
%TO.P,Left1,4*%
%TO.N,GND*%
X0Y-2540000D03*
%TO.P,Left1,3*%
%TO.N,/VoutLeft*%
X2540000Y-2540000D03*
%TO.P,Left1,2*%
%TO.N,GND*%
X0Y0D03*
D17*
%TO.P,Left1,1*%
%TO.N,/VoutLeft*%
X2540000Y0D03*
%TD*%
D18*
%TO.P,U3,1*%
%TO.N,GND*%
X25640000Y-10770000D03*
%TO.P,U3,3*%
%TO.N,VS*%
X30240000Y-10770000D03*
%TO.P,U3,2*%
%TO.N,Net-(F2-Pad2)*%
X27940000Y-10770000D03*
D19*
X27940000Y-4470000D03*
%TD*%
D18*
%TO.P,U1,1*%
%TO.N,GND*%
X18020000Y-10770000D03*
%TO.P,U1,3*%
%TO.N,VS*%
X22620000Y-10770000D03*
%TO.P,U1,2*%
%TO.N,Net-(F1-Pad2)*%
X20320000Y-10770000D03*
D19*
X20320000Y-4470000D03*
%TD*%
D20*
%TO.N,VS*%
X32258000Y-3810000D03*
X14605000Y-4445000D03*
%TO.N,Net-(F1-Pad2)*%
X17780000Y-7620000D03*
X20320000Y-7620000D03*
X19050000Y-7620000D03*
X17780000Y-8890000D03*
X19050000Y-6350000D03*
X17780000Y-6350000D03*
X20320000Y-6350000D03*
X20320000Y-8890000D03*
X19050000Y-8890000D03*
X21590000Y-8890000D03*
X22860000Y-7620000D03*
X21590000Y-7620000D03*
X22860000Y-6350000D03*
X21590000Y-6350000D03*
X22860000Y-8890000D03*
%TO.N,Net-(F2-Pad2)*%
X27940000Y-7620000D03*
X26670000Y-7620000D03*
X25400000Y-7620000D03*
X27940000Y-6350000D03*
X25400000Y-6350000D03*
X26670000Y-6350000D03*
X25400000Y-8890000D03*
X27940000Y-8890000D03*
X26670000Y-8890000D03*
X29210000Y-6350000D03*
X29210000Y-7620000D03*
X30480000Y-7620000D03*
X30480000Y-6350000D03*
X30480000Y-8890000D03*
X29210000Y-8890000D03*
%TD*%
D21*
%TO.N,+5V*%
X33655000Y7090000D02*
X27940000Y7090000D01*
D22*
X24870000Y7090000D02*
X27940000Y7090000D01*
X23622000Y5842000D02*
X24870000Y7090000D01*
X17840000Y5842000D02*
X23622000Y5842000D01*
X17048000Y6634000D02*
X17840000Y5842000D01*
X17048000Y8382000D02*
X17048000Y6634000D01*
X14152500Y1400000D02*
X13990000Y1562500D01*
X13280000Y-3755000D02*
X13280000Y-7620000D01*
X16367500Y1562500D02*
X16530000Y1400000D01*
X13990000Y1562500D02*
X16367500Y1562500D01*
X19200000Y1400000D02*
X19750000Y850000D01*
X16530000Y1400000D02*
X19200000Y1400000D01*
X13280000Y-3755000D02*
X12000000Y-2475000D01*
X12000000Y-2475000D02*
X12000000Y1200000D01*
X12362500Y1562500D02*
X13990000Y1562500D01*
X12000000Y1200000D02*
X12362500Y1562500D01*
X33655000Y5080000D02*
X33655000Y7090000D01*
X17510000Y3810000D02*
X32385000Y3810000D01*
X32385000Y3810000D02*
X33655000Y5080000D01*
X16530000Y2830000D02*
X17510000Y3810000D01*
X16530000Y1400000D02*
X16530000Y2830000D01*
%TO.N,Net-(D1-Pad1)*%
X27800000Y-1550000D02*
X28500000Y-850000D01*
X25400000Y-1550000D02*
X27800000Y-1550000D01*
%TO.N,VS*%
X33362500Y-11430000D02*
X32258000Y-11430000D01*
X31598000Y-10770000D02*
X30240000Y-10770000D01*
X32258000Y-11430000D02*
X31598000Y-10770000D01*
X16002000Y-11430000D02*
X14897500Y-11430000D01*
X22098000Y-12700000D02*
X17272000Y-12700000D01*
X22620000Y-12178000D02*
X22098000Y-12700000D01*
X17272000Y-12700000D02*
X16002000Y-11430000D01*
X22620000Y-10770000D02*
X22620000Y-12178000D01*
X33362500Y-11430000D02*
X33362500Y-9994500D01*
X32258000Y-8890000D02*
X32258000Y-3810000D01*
X33362500Y-9994500D02*
X32258000Y-8890000D01*
D23*
X10033000Y1937000D02*
X10033000Y-1143000D01*
X10740000Y-1850000D02*
X10740000Y-5080000D01*
X10033000Y-1143000D02*
X10740000Y-1850000D01*
D22*
X14897500Y-11430000D02*
X14897500Y-5930500D01*
X14605000Y-5638000D02*
X14897500Y-5930500D01*
X14605000Y-4445000D02*
X14605000Y-5638000D01*
%TO.N,Net-(F1-Pad2)*%
X20320000Y-4470000D02*
X19456000Y-4470000D01*
X16530000Y-5100000D02*
X17780000Y-6350000D01*
X16530000Y-1400000D02*
X16530000Y-5100000D01*
%TO.N,Net-(F2-Pad2)*%
X28804000Y-4470000D02*
X27940000Y-4470000D01*
X31730000Y-2520000D02*
X31730000Y-1400000D01*
X31000000Y-3250000D02*
X31730000Y-2520000D01*
X28500000Y-3250000D02*
X31000000Y-3250000D01*
X27940000Y-3810000D02*
X28500000Y-3250000D01*
X27940000Y-4470000D02*
X27940000Y-3810000D01*
%TO.N,Net-(D3-Pad1)*%
X20450000Y-1550000D02*
X19750000Y-850000D01*
X22860000Y-1550000D02*
X20450000Y-1550000D01*
%TO.N,+3V3*%
X39370000Y7090000D02*
X45085000Y7090000D01*
X39370000Y3302000D02*
X39370000Y7090000D01*
X45085000Y7090000D02*
X45085000Y4572000D01*
X40355000Y-158000D02*
X40355000Y-7620000D01*
X45085000Y4572000D02*
X40355000Y-158000D01*
X29050000Y1400000D02*
X28500000Y850000D01*
X31730000Y1400000D02*
X29050000Y1400000D01*
X31892500Y1562500D02*
X31730000Y1400000D01*
X34270000Y1562500D02*
X31892500Y1562500D01*
X37630500Y1562500D02*
X39370000Y3302000D01*
X34270000Y1562500D02*
X37630500Y1562500D01*
%TD*%
D24*
%TO.N,GND*%
X9101737Y12938578D02*
X9114735Y12922847D01*
X9144724Y12898402D01*
X9174696Y12873804D01*
X9175288Y12873487D01*
X9175809Y12873063D01*
X9209963Y12854953D01*
X9244185Y12836661D01*
X9244830Y12836465D01*
X9245421Y12836152D01*
X9282480Y12825045D01*
X9319585Y12813789D01*
X9320252Y12813723D01*
X9320897Y12813530D01*
X9359657Y12809842D01*
X9397999Y12806066D01*
X9418298Y12808065D01*
X47459865Y12934450D01*
X50400000Y9994314D01*
X50400001Y-11264313D01*
X48729315Y-12935000D01*
X22746883Y-12935000D01*
X23040234Y-12641650D01*
X23064080Y-12622080D01*
X23083652Y-12598232D01*
X23142182Y-12526913D01*
X23200218Y-12418336D01*
X23230087Y-12319872D01*
X23235957Y-12300521D01*
X23245000Y-12208704D01*
X23245000Y-12208695D01*
X23248023Y-12178001D01*
X23245000Y-12147307D01*
X23245000Y-12146814D01*
X23370000Y-12146814D01*
X23443513Y-12139574D01*
X23514200Y-12118131D01*
X23579347Y-12083309D01*
X23636448Y-12036448D01*
X23683309Y-11979347D01*
X23718131Y-11914200D01*
X23739574Y-11843513D01*
X23746814Y-11770000D01*
X23746814Y-9770000D01*
X23739574Y-9696487D01*
X23718131Y-9625800D01*
X23701550Y-9594780D01*
X24130000Y-9166330D01*
X24626835Y-9663165D01*
X24683661Y-9709801D01*
X24748494Y-9744455D01*
X24818841Y-9765794D01*
X24892000Y-9773000D01*
X26514670Y-9773000D01*
X26549000Y-9807330D01*
X26549000Y-11938000D01*
X26556206Y-12011159D01*
X26577545Y-12081506D01*
X26612199Y-12146339D01*
X26658835Y-12203165D01*
X26715661Y-12249801D01*
X26780494Y-12284455D01*
X26850841Y-12305794D01*
X26924000Y-12313000D01*
X28956000Y-12313000D01*
X29029159Y-12305794D01*
X29099506Y-12284455D01*
X29164339Y-12249801D01*
X29221165Y-12203165D01*
X29267801Y-12146339D01*
X29296861Y-12091972D01*
X29345800Y-12118131D01*
X29416487Y-12139574D01*
X29490000Y-12146814D01*
X30990000Y-12146814D01*
X31063513Y-12139574D01*
X31134200Y-12118131D01*
X31199347Y-12083309D01*
X31256448Y-12036448D01*
X31303309Y-11979347D01*
X31338131Y-11914200D01*
X31359574Y-11843513D01*
X31366814Y-11770000D01*
X31366814Y-11422696D01*
X31794346Y-11850229D01*
X31813920Y-11874080D01*
X31909089Y-11952183D01*
X32017666Y-12010219D01*
X32135479Y-12045957D01*
X32227296Y-12055000D01*
X32227306Y-12055000D01*
X32258000Y-12058023D01*
X32288694Y-12055000D01*
X32323186Y-12055000D01*
X32323186Y-12080001D01*
X32335230Y-12202286D01*
X32370899Y-12319872D01*
X32428823Y-12428240D01*
X32506775Y-12523225D01*
X32601760Y-12601177D01*
X32710128Y-12659101D01*
X32827714Y-12694770D01*
X32949999Y-12706814D01*
X33775001Y-12706814D01*
X33897286Y-12694770D01*
X34014872Y-12659101D01*
X34123240Y-12601177D01*
X34218225Y-12523225D01*
X34296177Y-12428240D01*
X34354101Y-12319872D01*
X34389770Y-12202286D01*
X34401814Y-12080001D01*
X34401814Y-10779999D01*
X34389770Y-10657714D01*
X34354101Y-10540128D01*
X34296177Y-10431760D01*
X34218225Y-10336775D01*
X34123240Y-10258823D01*
X34014872Y-10200899D01*
X33987500Y-10192596D01*
X33987500Y-10025201D01*
X33990524Y-9994500D01*
X33987500Y-9963796D01*
X33978457Y-9871979D01*
X33942719Y-9754166D01*
X33884683Y-9645589D01*
X33806580Y-9550420D01*
X33782729Y-9530846D01*
X32883000Y-8631118D01*
X32883000Y-6770000D01*
X34048186Y-6770000D01*
X34048186Y-8470000D01*
X34055426Y-8543513D01*
X34076869Y-8614200D01*
X34111691Y-8679347D01*
X34158552Y-8736448D01*
X34215653Y-8783309D01*
X34280800Y-8818131D01*
X34351487Y-8839574D01*
X34425000Y-8846814D01*
X36125000Y-8846814D01*
X36198513Y-8839574D01*
X36269200Y-8818131D01*
X36334347Y-8783309D01*
X36391448Y-8736448D01*
X36438309Y-8679347D01*
X36473131Y-8614200D01*
X36494574Y-8543513D01*
X36501814Y-8470000D01*
X36501814Y-7499348D01*
X36590000Y-7499348D01*
X36590000Y-7740652D01*
X36637076Y-7977319D01*
X36729419Y-8200255D01*
X36863481Y-8400892D01*
X37034108Y-8571519D01*
X37234745Y-8705581D01*
X37457681Y-8797924D01*
X37694348Y-8845000D01*
X37935652Y-8845000D01*
X38172319Y-8797924D01*
X38395255Y-8705581D01*
X38595892Y-8571519D01*
X38766519Y-8400892D01*
X38900581Y-8200255D01*
X38992924Y-7977319D01*
X39040000Y-7740652D01*
X39040000Y-7499348D01*
X38992924Y-7262681D01*
X38900581Y-7039745D01*
X38766519Y-6839108D01*
X38595892Y-6668481D01*
X38395255Y-6534419D01*
X38172319Y-6442076D01*
X37935652Y-6395000D01*
X37694348Y-6395000D01*
X37457681Y-6442076D01*
X37234745Y-6534419D01*
X37034108Y-6668481D01*
X36863481Y-6839108D01*
X36729419Y-7039745D01*
X36637076Y-7262681D01*
X36590000Y-7499348D01*
X36501814Y-7499348D01*
X36501814Y-6770000D01*
X36494574Y-6696487D01*
X36473131Y-6625800D01*
X36438309Y-6560653D01*
X36391448Y-6503552D01*
X36334347Y-6456691D01*
X36269200Y-6421869D01*
X36198513Y-6400426D01*
X36125000Y-6393186D01*
X34425000Y-6393186D01*
X34351487Y-6400426D01*
X34280800Y-6421869D01*
X34215653Y-6456691D01*
X34158552Y-6503552D01*
X34111691Y-6560653D01*
X34076869Y-6625800D01*
X34055426Y-6696487D01*
X34048186Y-6770000D01*
X32883000Y-6770000D01*
X32883000Y-4959348D01*
X36590000Y-4959348D01*
X36590000Y-5200652D01*
X36637076Y-5437319D01*
X36729419Y-5660255D01*
X36863481Y-5860892D01*
X37034108Y-6031519D01*
X37234745Y-6165581D01*
X37457681Y-6257924D01*
X37694348Y-6305000D01*
X37935652Y-6305000D01*
X38172319Y-6257924D01*
X38395255Y-6165581D01*
X38595892Y-6031519D01*
X38766519Y-5860892D01*
X38900581Y-5660255D01*
X38992924Y-5437319D01*
X39040000Y-5200652D01*
X39040000Y-4959348D01*
X38992924Y-4722681D01*
X38900581Y-4499745D01*
X38766519Y-4299108D01*
X38595892Y-4128481D01*
X38395255Y-3994419D01*
X38172319Y-3902076D01*
X37935652Y-3855000D01*
X37694348Y-3855000D01*
X37457681Y-3902076D01*
X37234745Y-3994419D01*
X37034108Y-4128481D01*
X36863481Y-4299108D01*
X36729419Y-4499745D01*
X36637076Y-4722681D01*
X36590000Y-4959348D01*
X32883000Y-4959348D01*
X32883000Y-4269585D01*
X32944796Y-4177100D01*
X33003217Y-4036059D01*
X33033000Y-3886331D01*
X33033000Y-3733669D01*
X33003217Y-3583941D01*
X32944796Y-3442900D01*
X32859982Y-3315966D01*
X32752034Y-3208018D01*
X32625100Y-3123204D01*
X32484059Y-3064783D01*
X32334331Y-3035000D01*
X32181669Y-3035000D01*
X32078327Y-3055556D01*
X32150230Y-2983653D01*
X32174080Y-2964080D01*
X32252183Y-2868911D01*
X32310219Y-2760334D01*
X32345957Y-2642521D01*
X32355000Y-2550704D01*
X32355000Y-2550702D01*
X32358024Y-2520000D01*
X32355000Y-2489299D01*
X32355000Y-2401814D01*
X32477285Y-2389770D01*
X32594871Y-2354101D01*
X32703239Y-2296177D01*
X32798224Y-2218224D01*
X32876177Y-2123239D01*
X32934101Y-2014871D01*
X32969770Y-1897285D01*
X32981814Y-1775000D01*
X32981814Y-1025000D01*
X32969770Y-902715D01*
X32934101Y-785129D01*
X32876177Y-676761D01*
X32798224Y-581776D01*
X32703239Y-503823D01*
X32594871Y-445899D01*
X32477285Y-410230D01*
X32355000Y-398186D01*
X31105000Y-398186D01*
X30982715Y-410230D01*
X30865129Y-445899D01*
X30756761Y-503823D01*
X30661776Y-581776D01*
X30583823Y-676761D01*
X30525899Y-785129D01*
X30490230Y-902715D01*
X30478186Y-1025000D01*
X30478186Y-1775000D01*
X30490230Y-1897285D01*
X30525899Y-2014871D01*
X30583823Y-2123239D01*
X30661776Y-2218224D01*
X30756761Y-2296177D01*
X30865129Y-2354101D01*
X30977829Y-2388288D01*
X30741118Y-2625000D01*
X28530702Y-2625000D01*
X28500000Y-2621976D01*
X28469298Y-2625000D01*
X28469296Y-2625000D01*
X28377479Y-2634043D01*
X28259666Y-2669781D01*
X28209124Y-2696796D01*
X28151088Y-2727817D01*
X28079769Y-2786347D01*
X28079765Y-2786351D01*
X28055920Y-2805920D01*
X28036350Y-2829766D01*
X27772931Y-3093186D01*
X26040000Y-3093186D01*
X25966487Y-3100426D01*
X25895800Y-3121869D01*
X25830653Y-3156691D01*
X25773552Y-3203552D01*
X25726691Y-3260653D01*
X25691869Y-3325800D01*
X25670426Y-3396487D01*
X25663186Y-3470000D01*
X25663186Y-3943000D01*
X25400000Y-3943000D01*
X25326841Y-3950206D01*
X25256494Y-3971545D01*
X25191661Y-4006199D01*
X25134835Y-4052835D01*
X24130000Y-5057670D01*
X23125165Y-4052835D01*
X23068339Y-4006199D01*
X23003506Y-3971545D01*
X22933159Y-3950206D01*
X22860000Y-3943000D01*
X22596814Y-3943000D01*
X22596814Y-3470000D01*
X22589574Y-3396487D01*
X22568131Y-3325800D01*
X22533309Y-3260653D01*
X22486448Y-3203552D01*
X22429347Y-3156691D01*
X22364200Y-3121869D01*
X22293513Y-3100426D01*
X22220000Y-3093186D01*
X18420000Y-3093186D01*
X18346487Y-3100426D01*
X18275800Y-3121869D01*
X18210653Y-3156691D01*
X18153552Y-3203552D01*
X18106691Y-3260653D01*
X18071869Y-3325800D01*
X18050426Y-3396487D01*
X18043186Y-3470000D01*
X18043186Y-3943000D01*
X17780000Y-3943000D01*
X17706841Y-3950206D01*
X17636494Y-3971545D01*
X17571661Y-4006199D01*
X17514835Y-4052835D01*
X17155000Y-4412670D01*
X17155000Y-2401814D01*
X17277285Y-2389770D01*
X17394871Y-2354101D01*
X17503239Y-2296177D01*
X17598224Y-2218224D01*
X17676177Y-2123239D01*
X17734101Y-2014871D01*
X17769770Y-1897285D01*
X17781814Y-1775000D01*
X17781814Y-1025000D01*
X17769770Y-902715D01*
X17734101Y-785129D01*
X17676177Y-676761D01*
X17598224Y-581776D01*
X17503239Y-503823D01*
X17394871Y-445899D01*
X17277285Y-410230D01*
X17155000Y-398186D01*
X15905000Y-398186D01*
X15782715Y-410230D01*
X15665129Y-445899D01*
X15556761Y-503823D01*
X15461776Y-581776D01*
X15383823Y-676761D01*
X15325899Y-785129D01*
X15290230Y-902715D01*
X15278186Y-1025000D01*
X15278186Y-1775000D01*
X15290230Y-1897285D01*
X15325899Y-2014871D01*
X15383823Y-2123239D01*
X15461776Y-2218224D01*
X15556761Y-2296177D01*
X15665129Y-2354101D01*
X15782715Y-2389770D01*
X15905000Y-2401814D01*
X15905001Y-5069296D01*
X15901977Y-5100000D01*
X15905001Y-5130704D01*
X15914044Y-5222521D01*
X15949782Y-5340334D01*
X16007818Y-5448911D01*
X16085921Y-5544080D01*
X16109772Y-5563654D01*
X16389000Y-5842882D01*
X16389000Y-8890000D01*
X16396206Y-8963159D01*
X16417545Y-9033506D01*
X16452199Y-9098339D01*
X16498835Y-9155165D01*
X17006835Y-9663165D01*
X17063661Y-9709801D01*
X17128494Y-9744455D01*
X17198841Y-9765794D01*
X17272000Y-9773000D01*
X18894670Y-9773000D01*
X18929000Y-9807330D01*
X18929000Y-11938000D01*
X18936206Y-12011159D01*
X18955571Y-12075000D01*
X17530883Y-12075000D01*
X16465658Y-11009776D01*
X16446080Y-10985920D01*
X16350911Y-10907817D01*
X16242334Y-10849781D01*
X16124521Y-10814043D01*
X16032704Y-10805000D01*
X16032694Y-10805000D01*
X16002000Y-10801977D01*
X15971306Y-10805000D01*
X15936814Y-10805000D01*
X15936814Y-10779999D01*
X15924770Y-10657714D01*
X15889101Y-10540128D01*
X15831177Y-10431760D01*
X15753225Y-10336775D01*
X15658240Y-10258823D01*
X15549872Y-10200899D01*
X15522500Y-10192596D01*
X15522500Y-5961193D01*
X15525523Y-5930499D01*
X15522500Y-5899805D01*
X15522500Y-5899796D01*
X15513457Y-5807979D01*
X15477719Y-5690166D01*
X15419683Y-5581589D01*
X15341580Y-5486420D01*
X15317728Y-5466846D01*
X15230000Y-5379117D01*
X15230000Y-4904585D01*
X15291796Y-4812100D01*
X15350217Y-4671059D01*
X15380000Y-4521331D01*
X15380000Y-4368669D01*
X15350217Y-4218941D01*
X15291796Y-4077900D01*
X15206982Y-3950966D01*
X15099034Y-3843018D01*
X14972100Y-3758204D01*
X14831059Y-3699783D01*
X14681331Y-3670000D01*
X14528669Y-3670000D01*
X14378941Y-3699783D01*
X14237900Y-3758204D01*
X14110966Y-3843018D01*
X14003018Y-3950966D01*
X13918204Y-4077900D01*
X13905000Y-4109777D01*
X13905000Y-3785693D01*
X13908023Y-3754999D01*
X13905000Y-3724305D01*
X13905000Y-3724296D01*
X13895957Y-3632479D01*
X13860219Y-3514666D01*
X13802183Y-3406089D01*
X13802182Y-3406087D01*
X13743652Y-3334769D01*
X13724080Y-3310920D01*
X13700230Y-3291347D01*
X12625000Y-2216118D01*
X12625000Y937500D01*
X12752596Y937500D01*
X12760899Y910128D01*
X12818823Y801760D01*
X12896775Y706775D01*
X12991760Y628823D01*
X13100128Y570899D01*
X13217714Y535230D01*
X13339999Y523186D01*
X14640001Y523186D01*
X14762286Y535230D01*
X14879872Y570899D01*
X14988240Y628823D01*
X15083225Y706775D01*
X15161177Y801760D01*
X15219101Y910128D01*
X15227404Y937500D01*
X15286804Y937500D01*
X15290230Y902715D01*
X15325899Y785129D01*
X15383823Y676761D01*
X15461776Y581776D01*
X15556761Y503823D01*
X15665129Y445899D01*
X15782715Y410230D01*
X15905000Y398186D01*
X17155000Y398186D01*
X17277285Y410230D01*
X17394871Y445899D01*
X17503239Y503823D01*
X17598224Y581776D01*
X17676177Y676761D01*
X17728687Y775000D01*
X18173186Y775000D01*
X18173186Y350000D01*
X18180426Y276487D01*
X18201869Y205800D01*
X18236691Y140653D01*
X18283552Y83552D01*
X18340653Y36691D01*
X18405800Y1869D01*
X18411961Y0D01*
X18405800Y-1869D01*
X18340653Y-36691D01*
X18283552Y-83552D01*
X18236691Y-140653D01*
X18201869Y-205800D01*
X18180426Y-276487D01*
X18173186Y-350000D01*
X18173186Y-1350000D01*
X18180426Y-1423513D01*
X18201869Y-1494200D01*
X18236691Y-1559347D01*
X18283552Y-1616448D01*
X18340653Y-1663309D01*
X18405800Y-1698131D01*
X18476487Y-1719574D01*
X18550000Y-1726814D01*
X19742931Y-1726814D01*
X19986350Y-1970234D01*
X20005920Y-1994080D01*
X20029765Y-2013649D01*
X20029768Y-2013652D01*
X20101087Y-2072182D01*
X20101089Y-2072183D01*
X20209666Y-2130219D01*
X20327479Y-2165957D01*
X20419296Y-2175000D01*
X20419305Y-2175000D01*
X20449999Y-2178023D01*
X20480693Y-2175000D01*
X21651388Y-2175000D01*
X21655899Y-2189871D01*
X21713823Y-2298239D01*
X21791776Y-2393224D01*
X21886761Y-2471177D01*
X21995129Y-2529101D01*
X22112715Y-2564770D01*
X22235000Y-2576814D01*
X23485000Y-2576814D01*
X23607285Y-2564770D01*
X23724871Y-2529101D01*
X23833239Y-2471177D01*
X23928224Y-2393224D01*
X24006177Y-2298239D01*
X24064101Y-2189871D01*
X24099770Y-2072285D01*
X24111814Y-1950000D01*
X24111814Y-1150000D01*
X24148186Y-1150000D01*
X24148186Y-1950000D01*
X24160230Y-2072285D01*
X24195899Y-2189871D01*
X24253823Y-2298239D01*
X24331776Y-2393224D01*
X24426761Y-2471177D01*
X24535129Y-2529101D01*
X24652715Y-2564770D01*
X24775000Y-2576814D01*
X26025000Y-2576814D01*
X26147285Y-2564770D01*
X26264871Y-2529101D01*
X26373239Y-2471177D01*
X26468224Y-2393224D01*
X26546177Y-2298239D01*
X26604101Y-2189871D01*
X26608612Y-2175000D01*
X27769306Y-2175000D01*
X27800000Y-2178023D01*
X27830694Y-2175000D01*
X27830704Y-2175000D01*
X27922521Y-2165957D01*
X28040334Y-2130219D01*
X28148911Y-2072183D01*
X28244080Y-1994080D01*
X28263658Y-1970224D01*
X28507069Y-1726814D01*
X29700000Y-1726814D01*
X29773513Y-1719574D01*
X29844200Y-1698131D01*
X29909347Y-1663309D01*
X29966448Y-1616448D01*
X30013309Y-1559347D01*
X30048131Y-1494200D01*
X30069574Y-1423513D01*
X30076814Y-1350000D01*
X30076814Y-350000D01*
X30069574Y-276487D01*
X30048131Y-205800D01*
X30013309Y-140653D01*
X29966448Y-83552D01*
X29909347Y-36691D01*
X29844200Y-1869D01*
X29838039Y0D01*
X29844200Y1869D01*
X29909347Y36691D01*
X29966448Y83552D01*
X30013309Y140653D01*
X30048131Y205800D01*
X30069574Y276487D01*
X30076814Y350000D01*
X30076814Y775000D01*
X30531313Y775000D01*
X30583823Y676761D01*
X30661776Y581776D01*
X30756761Y503823D01*
X30865129Y445899D01*
X30982715Y410230D01*
X31105000Y398186D01*
X32355000Y398186D01*
X32477285Y410230D01*
X32594871Y445899D01*
X32703239Y503823D01*
X32798224Y581776D01*
X32876177Y676761D01*
X32934101Y785129D01*
X32969770Y902715D01*
X32973196Y937500D01*
X33032596Y937500D01*
X33040899Y910128D01*
X33098823Y801760D01*
X33176775Y706775D01*
X33271760Y628823D01*
X33380128Y570899D01*
X33497714Y535230D01*
X33619999Y523186D01*
X34920001Y523186D01*
X35042286Y535230D01*
X35159872Y570899D01*
X35268240Y628823D01*
X35363225Y706775D01*
X35441177Y801760D01*
X35499101Y910128D01*
X35507404Y937500D01*
X37599806Y937500D01*
X37630500Y934477D01*
X37661194Y937500D01*
X37661204Y937500D01*
X37753021Y946543D01*
X37870834Y982281D01*
X37979411Y1040317D01*
X38074580Y1118420D01*
X38094158Y1142276D01*
X39790236Y2838352D01*
X39814080Y2857920D01*
X39891717Y2952521D01*
X39892182Y2953087D01*
X39950218Y3061664D01*
X39952848Y3070334D01*
X39985957Y3179479D01*
X39995000Y3271296D01*
X39995000Y3271305D01*
X39998023Y3301999D01*
X39995000Y3332693D01*
X39995000Y5420573D01*
X40042285Y5425230D01*
X40159871Y5460899D01*
X40268239Y5518823D01*
X40363224Y5596776D01*
X40441177Y5691761D01*
X40499101Y5800129D01*
X40534770Y5917715D01*
X40546814Y6040000D01*
X40546814Y6465000D01*
X43908186Y6465000D01*
X43908186Y6040000D01*
X43920230Y5917715D01*
X43955899Y5800129D01*
X44013823Y5691761D01*
X44091776Y5596776D01*
X44186761Y5518823D01*
X44295129Y5460899D01*
X44412715Y5425230D01*
X44460001Y5420573D01*
X44460001Y4830884D01*
X39934776Y305658D01*
X39910920Y286080D01*
X39832817Y190910D01*
X39774781Y82333D01*
X39739043Y-35480D01*
X39730000Y-127297D01*
X39730000Y-127306D01*
X39726977Y-158000D01*
X39730000Y-188694D01*
X39730001Y-6564316D01*
X39574108Y-6668481D01*
X39403481Y-6839108D01*
X39269419Y-7039745D01*
X39177076Y-7262681D01*
X39130000Y-7499348D01*
X39130000Y-7740652D01*
X39177076Y-7977319D01*
X39269419Y-8200255D01*
X39403481Y-8400892D01*
X39574108Y-8571519D01*
X39774745Y-8705581D01*
X39997681Y-8797924D01*
X40234348Y-8845000D01*
X40475652Y-8845000D01*
X40712319Y-8797924D01*
X40935255Y-8705581D01*
X41135892Y-8571519D01*
X41306519Y-8400892D01*
X41440581Y-8200255D01*
X41532924Y-7977319D01*
X41560977Y-7836285D01*
X44514245Y-7836285D01*
X44523259Y-7881602D01*
X44597290Y-8110048D01*
X44714466Y-8319662D01*
X44870284Y-8502388D01*
X45058756Y-8651205D01*
X45272640Y-8760393D01*
X45503715Y-8825756D01*
X45695000Y-8750996D01*
X45695000Y-7645000D01*
X45745000Y-7645000D01*
X45745000Y-8750996D01*
X45936285Y-8825756D01*
X46167360Y-8760393D01*
X46381244Y-8651205D01*
X46569716Y-8502388D01*
X46725534Y-8319662D01*
X46842710Y-8110048D01*
X46916741Y-7881602D01*
X46925755Y-7836285D01*
X46850974Y-7645000D01*
X45745000Y-7645000D01*
X45695000Y-7645000D01*
X44589026Y-7645000D01*
X44514245Y-7836285D01*
X41560977Y-7836285D01*
X41580000Y-7740652D01*
X41580000Y-7499348D01*
X41560978Y-7403715D01*
X44514245Y-7403715D01*
X44589026Y-7595000D01*
X45695000Y-7595000D01*
X45695000Y-6489004D01*
X45745000Y-6489004D01*
X45745000Y-7595000D01*
X46850974Y-7595000D01*
X46888368Y-7499348D01*
X47035000Y-7499348D01*
X47035000Y-7740652D01*
X47082076Y-7977319D01*
X47174419Y-8200255D01*
X47308481Y-8400892D01*
X47479108Y-8571519D01*
X47679745Y-8705581D01*
X47902681Y-8797924D01*
X48139348Y-8845000D01*
X48380652Y-8845000D01*
X48617319Y-8797924D01*
X48840255Y-8705581D01*
X49040892Y-8571519D01*
X49211519Y-8400892D01*
X49345581Y-8200255D01*
X49437924Y-7977319D01*
X49485000Y-7740652D01*
X49485000Y-7499348D01*
X49437924Y-7262681D01*
X49345581Y-7039745D01*
X49211519Y-6839108D01*
X49040892Y-6668481D01*
X48840255Y-6534419D01*
X48617319Y-6442076D01*
X48380652Y-6395000D01*
X48139348Y-6395000D01*
X47902681Y-6442076D01*
X47679745Y-6534419D01*
X47479108Y-6668481D01*
X47308481Y-6839108D01*
X47174419Y-7039745D01*
X47082076Y-7262681D01*
X47035000Y-7499348D01*
X46888368Y-7499348D01*
X46925755Y-7403715D01*
X46916741Y-7358398D01*
X46842710Y-7129952D01*
X46725534Y-6920338D01*
X46569716Y-6737612D01*
X46381244Y-6588795D01*
X46167360Y-6479607D01*
X45936285Y-6414244D01*
X45745000Y-6489004D01*
X45695000Y-6489004D01*
X45503715Y-6414244D01*
X45272640Y-6479607D01*
X45058756Y-6588795D01*
X44870284Y-6737612D01*
X44714466Y-6920338D01*
X44597290Y-7129952D01*
X44523259Y-7358398D01*
X44514245Y-7403715D01*
X41560978Y-7403715D01*
X41532924Y-7262681D01*
X41440581Y-7039745D01*
X41306519Y-6839108D01*
X41135892Y-6668481D01*
X40980000Y-6564317D01*
X40980000Y-5296285D01*
X44514245Y-5296285D01*
X44523259Y-5341602D01*
X44597290Y-5570048D01*
X44714466Y-5779662D01*
X44870284Y-5962388D01*
X45058756Y-6111205D01*
X45272640Y-6220393D01*
X45503715Y-6285756D01*
X45695000Y-6210996D01*
X45695000Y-5105000D01*
X45745000Y-5105000D01*
X45745000Y-6210996D01*
X45936285Y-6285756D01*
X46167360Y-6220393D01*
X46381244Y-6111205D01*
X46569716Y-5962388D01*
X46725534Y-5779662D01*
X46842710Y-5570048D01*
X46916741Y-5341602D01*
X46925755Y-5296285D01*
X46850974Y-5105000D01*
X45745000Y-5105000D01*
X45695000Y-5105000D01*
X44589026Y-5105000D01*
X44514245Y-5296285D01*
X40980000Y-5296285D01*
X40980000Y-4863715D01*
X44514245Y-4863715D01*
X44589026Y-5055000D01*
X45695000Y-5055000D01*
X45695000Y-3949004D01*
X45745000Y-3949004D01*
X45745000Y-5055000D01*
X46850974Y-5055000D01*
X46888368Y-4959348D01*
X47035000Y-4959348D01*
X47035000Y-5200652D01*
X47082076Y-5437319D01*
X47174419Y-5660255D01*
X47308481Y-5860892D01*
X47479108Y-6031519D01*
X47679745Y-6165581D01*
X47902681Y-6257924D01*
X48139348Y-6305000D01*
X48380652Y-6305000D01*
X48617319Y-6257924D01*
X48840255Y-6165581D01*
X49040892Y-6031519D01*
X49211519Y-5860892D01*
X49345581Y-5660255D01*
X49437924Y-5437319D01*
X49485000Y-5200652D01*
X49485000Y-4959348D01*
X49437924Y-4722681D01*
X49345581Y-4499745D01*
X49211519Y-4299108D01*
X49040892Y-4128481D01*
X48840255Y-3994419D01*
X48617319Y-3902076D01*
X48380652Y-3855000D01*
X48139348Y-3855000D01*
X47902681Y-3902076D01*
X47679745Y-3994419D01*
X47479108Y-4128481D01*
X47308481Y-4299108D01*
X47174419Y-4499745D01*
X47082076Y-4722681D01*
X47035000Y-4959348D01*
X46888368Y-4959348D01*
X46925755Y-4863715D01*
X46916741Y-4818398D01*
X46842710Y-4589952D01*
X46725534Y-4380338D01*
X46569716Y-4197612D01*
X46381244Y-4048795D01*
X46167360Y-3939607D01*
X45936285Y-3874244D01*
X45745000Y-3949004D01*
X45695000Y-3949004D01*
X45503715Y-3874244D01*
X45272640Y-3939607D01*
X45058756Y-4048795D01*
X44870284Y-4197612D01*
X44714466Y-4380338D01*
X44597290Y-4589952D01*
X44523259Y-4818398D01*
X44514245Y-4863715D01*
X40980000Y-4863715D01*
X40980000Y-2756285D01*
X44514245Y-2756285D01*
X44523259Y-2801602D01*
X44597290Y-3030048D01*
X44714466Y-3239662D01*
X44870284Y-3422388D01*
X45058756Y-3571205D01*
X45272640Y-3680393D01*
X45503715Y-3745756D01*
X45695000Y-3670996D01*
X45695000Y-2565000D01*
X45745000Y-2565000D01*
X45745000Y-3670996D01*
X45936285Y-3745756D01*
X46167360Y-3680393D01*
X46381244Y-3571205D01*
X46569716Y-3422388D01*
X46725534Y-3239662D01*
X46842710Y-3030048D01*
X46916741Y-2801602D01*
X46925755Y-2756285D01*
X46850974Y-2565000D01*
X45745000Y-2565000D01*
X45695000Y-2565000D01*
X44589026Y-2565000D01*
X44514245Y-2756285D01*
X40980000Y-2756285D01*
X40980000Y-2323715D01*
X44514245Y-2323715D01*
X44589026Y-2515000D01*
X45695000Y-2515000D01*
X45695000Y-1409004D01*
X45745000Y-1409004D01*
X45745000Y-2515000D01*
X46850974Y-2515000D01*
X46888368Y-2419348D01*
X47035000Y-2419348D01*
X47035000Y-2660652D01*
X47082076Y-2897319D01*
X47174419Y-3120255D01*
X47308481Y-3320892D01*
X47479108Y-3491519D01*
X47679745Y-3625581D01*
X47902681Y-3717924D01*
X48139348Y-3765000D01*
X48380652Y-3765000D01*
X48617319Y-3717924D01*
X48840255Y-3625581D01*
X49040892Y-3491519D01*
X49211519Y-3320892D01*
X49345581Y-3120255D01*
X49437924Y-2897319D01*
X49485000Y-2660652D01*
X49485000Y-2419348D01*
X49437924Y-2182681D01*
X49345581Y-1959745D01*
X49211519Y-1759108D01*
X49040892Y-1588481D01*
X48840255Y-1454419D01*
X48617319Y-1362076D01*
X48380652Y-1315000D01*
X48139348Y-1315000D01*
X47902681Y-1362076D01*
X47679745Y-1454419D01*
X47479108Y-1588481D01*
X47308481Y-1759108D01*
X47174419Y-1959745D01*
X47082076Y-2182681D01*
X47035000Y-2419348D01*
X46888368Y-2419348D01*
X46925755Y-2323715D01*
X46916741Y-2278398D01*
X46842710Y-2049952D01*
X46725534Y-1840338D01*
X46569716Y-1657612D01*
X46381244Y-1508795D01*
X46167360Y-1399607D01*
X45936285Y-1334244D01*
X45745000Y-1409004D01*
X45695000Y-1409004D01*
X45503715Y-1334244D01*
X45272640Y-1399607D01*
X45058756Y-1508795D01*
X44870284Y-1657612D01*
X44714466Y-1840338D01*
X44597290Y-2049952D01*
X44523259Y-2278398D01*
X44514245Y-2323715D01*
X40980000Y-2323715D01*
X40980000Y-416882D01*
X41180597Y-216285D01*
X44514245Y-216285D01*
X44523259Y-261602D01*
X44597290Y-490048D01*
X44714466Y-699662D01*
X44870284Y-882388D01*
X45058756Y-1031205D01*
X45272640Y-1140393D01*
X45503715Y-1205756D01*
X45695000Y-1130996D01*
X45695000Y-25000D01*
X45745000Y-25000D01*
X45745000Y-1130996D01*
X45936285Y-1205756D01*
X46167360Y-1140393D01*
X46381244Y-1031205D01*
X46569716Y-882388D01*
X46725534Y-699662D01*
X46842710Y-490048D01*
X46916741Y-261602D01*
X46925755Y-216285D01*
X46850974Y-25000D01*
X45745000Y-25000D01*
X45695000Y-25000D01*
X44589026Y-25000D01*
X44514245Y-216285D01*
X41180597Y-216285D01*
X41613167Y216285D01*
X44514245Y216285D01*
X44589026Y25000D01*
X45695000Y25000D01*
X45695000Y1130996D01*
X45745000Y1130996D01*
X45745000Y25000D01*
X46850974Y25000D01*
X46925755Y216285D01*
X46916741Y261602D01*
X46842710Y490048D01*
X46725534Y699662D01*
X46597335Y850000D01*
X47033186Y850000D01*
X47033186Y-850000D01*
X47040426Y-923513D01*
X47061869Y-994200D01*
X47096691Y-1059347D01*
X47143552Y-1116448D01*
X47200653Y-1163309D01*
X47265800Y-1198131D01*
X47336487Y-1219574D01*
X47410000Y-1226814D01*
X49110000Y-1226814D01*
X49183513Y-1219574D01*
X49254200Y-1198131D01*
X49319347Y-1163309D01*
X49376448Y-1116448D01*
X49423309Y-1059347D01*
X49458131Y-994200D01*
X49479574Y-923513D01*
X49486814Y-850000D01*
X49486814Y850000D01*
X49479574Y923513D01*
X49458131Y994200D01*
X49423309Y1059347D01*
X49376448Y1116448D01*
X49319347Y1163309D01*
X49254200Y1198131D01*
X49183513Y1219574D01*
X49110000Y1226814D01*
X47410000Y1226814D01*
X47336487Y1219574D01*
X47265800Y1198131D01*
X47200653Y1163309D01*
X47143552Y1116448D01*
X47096691Y1059347D01*
X47061869Y994200D01*
X47040426Y923513D01*
X47033186Y850000D01*
X46597335Y850000D01*
X46569716Y882388D01*
X46381244Y1031205D01*
X46167360Y1140393D01*
X45936285Y1205756D01*
X45745000Y1130996D01*
X45695000Y1130996D01*
X45503715Y1205756D01*
X45272640Y1140393D01*
X45058756Y1031205D01*
X44870284Y882388D01*
X44714466Y699662D01*
X44597290Y490048D01*
X44523259Y261602D01*
X44514245Y216285D01*
X41613167Y216285D01*
X45505229Y4108346D01*
X45529080Y4127920D01*
X45568273Y4175677D01*
X45607182Y4223087D01*
X45665218Y4331664D01*
X45665219Y4331666D01*
X45700957Y4449479D01*
X45710000Y4541296D01*
X45710000Y4541305D01*
X45713023Y4571999D01*
X45710000Y4602693D01*
X45710000Y5420573D01*
X45757285Y5425230D01*
X45874871Y5460899D01*
X45983239Y5518823D01*
X46078224Y5596776D01*
X46156177Y5691761D01*
X46214101Y5800129D01*
X46249770Y5917715D01*
X46261814Y6040000D01*
X46261814Y8140000D01*
X46249770Y8262285D01*
X46214101Y8379871D01*
X46156177Y8488239D01*
X46078224Y8583224D01*
X45983239Y8661177D01*
X45874871Y8719101D01*
X45757285Y8754770D01*
X45635000Y8766814D01*
X44535000Y8766814D01*
X44412715Y8754770D01*
X44295129Y8719101D01*
X44186761Y8661177D01*
X44091776Y8583224D01*
X44013823Y8488239D01*
X43955899Y8379871D01*
X43920230Y8262285D01*
X43908186Y8140000D01*
X43908186Y7715000D01*
X40546814Y7715000D01*
X40546814Y8140000D01*
X40534770Y8262285D01*
X40499101Y8379871D01*
X40441177Y8488239D01*
X40363224Y8583224D01*
X40268239Y8661177D01*
X40159871Y8719101D01*
X40042285Y8754770D01*
X39920000Y8766814D01*
X38820000Y8766814D01*
X38697715Y8754770D01*
X38580129Y8719101D01*
X38471761Y8661177D01*
X38376776Y8583224D01*
X38298823Y8488239D01*
X38240899Y8379871D01*
X38205230Y8262285D01*
X38193186Y8140000D01*
X38193186Y6040000D01*
X38205230Y5917715D01*
X38240899Y5800129D01*
X38298823Y5691761D01*
X38376776Y5596776D01*
X38471761Y5518823D01*
X38580129Y5460899D01*
X38697715Y5425230D01*
X38745001Y5420573D01*
X38745000Y3560884D01*
X37371618Y2187500D01*
X35507404Y2187500D01*
X35499101Y2214872D01*
X35441177Y2323240D01*
X35363225Y2418225D01*
X35268240Y2496177D01*
X35159872Y2554101D01*
X35042286Y2589770D01*
X34920001Y2601814D01*
X33619999Y2601814D01*
X33497714Y2589770D01*
X33380128Y2554101D01*
X33271760Y2496177D01*
X33176775Y2418225D01*
X33098823Y2323240D01*
X33040899Y2214872D01*
X33032596Y2187500D01*
X32823439Y2187500D01*
X32798224Y2218224D01*
X32703239Y2296177D01*
X32594871Y2354101D01*
X32477285Y2389770D01*
X32355000Y2401814D01*
X31105000Y2401814D01*
X30982715Y2389770D01*
X30865129Y2354101D01*
X30756761Y2296177D01*
X30661776Y2218224D01*
X30583823Y2123239D01*
X30531313Y2025000D01*
X29080693Y2025000D01*
X29049999Y2028023D01*
X29019305Y2025000D01*
X29019296Y2025000D01*
X28927479Y2015957D01*
X28809666Y1980219D01*
X28809664Y1980218D01*
X28701087Y1922182D01*
X28629768Y1863652D01*
X28629765Y1863649D01*
X28605920Y1844080D01*
X28586350Y1820234D01*
X28492930Y1726814D01*
X27300000Y1726814D01*
X27226487Y1719574D01*
X27155800Y1698131D01*
X27090653Y1663309D01*
X27033552Y1616448D01*
X26986691Y1559347D01*
X26951869Y1494200D01*
X26930426Y1423513D01*
X26923186Y1350000D01*
X26923186Y350000D01*
X26930426Y276487D01*
X26951869Y205800D01*
X26986691Y140653D01*
X27033552Y83552D01*
X27090653Y36691D01*
X27155800Y1869D01*
X27161961Y0D01*
X27155800Y-1869D01*
X27090653Y-36691D01*
X27033552Y-83552D01*
X26986691Y-140653D01*
X26951869Y-205800D01*
X26930426Y-276487D01*
X26923186Y-350000D01*
X26923186Y-925000D01*
X26608612Y-925000D01*
X26604101Y-910129D01*
X26546177Y-801761D01*
X26468224Y-706776D01*
X26373239Y-628823D01*
X26264871Y-570899D01*
X26147285Y-535230D01*
X26025000Y-523186D01*
X24775000Y-523186D01*
X24652715Y-535230D01*
X24535129Y-570899D01*
X24426761Y-628823D01*
X24331776Y-706776D01*
X24253823Y-801761D01*
X24195899Y-910129D01*
X24160230Y-1027715D01*
X24148186Y-1150000D01*
X24111814Y-1150000D01*
X24099770Y-1027715D01*
X24064101Y-910129D01*
X24006177Y-801761D01*
X23928224Y-706776D01*
X23833239Y-628823D01*
X23724871Y-570899D01*
X23607285Y-535230D01*
X23485000Y-523186D01*
X22235000Y-523186D01*
X22112715Y-535230D01*
X21995129Y-570899D01*
X21886761Y-628823D01*
X21791776Y-706776D01*
X21713823Y-801761D01*
X21655899Y-910129D01*
X21651388Y-925000D01*
X21326814Y-925000D01*
X21326814Y-350000D01*
X21319574Y-276487D01*
X21298131Y-205800D01*
X21263309Y-140653D01*
X21216448Y-83552D01*
X21159347Y-36691D01*
X21094200Y-1869D01*
X21088039Y0D01*
X21094200Y1869D01*
X21159347Y36691D01*
X21216448Y83552D01*
X21263309Y140653D01*
X21298131Y205800D01*
X21319574Y276487D01*
X21326814Y350000D01*
X21326814Y1350000D01*
X21319574Y1423513D01*
X21298131Y1494200D01*
X21263309Y1559347D01*
X21216448Y1616448D01*
X21159347Y1663309D01*
X21094200Y1698131D01*
X21023513Y1719574D01*
X20950000Y1726814D01*
X19757068Y1726814D01*
X19663658Y1820224D01*
X19644080Y1844080D01*
X19548911Y1922183D01*
X19440334Y1980219D01*
X19322521Y2015957D01*
X19230704Y2025000D01*
X19230694Y2025000D01*
X19200000Y2028023D01*
X19169306Y2025000D01*
X17728687Y2025000D01*
X17676177Y2123239D01*
X17598224Y2218224D01*
X17503239Y2296177D01*
X17394871Y2354101D01*
X17277285Y2389770D01*
X17155000Y2401814D01*
X17155000Y2571118D01*
X17768883Y3185000D01*
X32354306Y3185000D01*
X32385000Y3181977D01*
X32415694Y3185000D01*
X32415704Y3185000D01*
X32507521Y3194043D01*
X32625334Y3229781D01*
X32733911Y3287817D01*
X32829080Y3365920D01*
X32848658Y3389776D01*
X34075230Y4616347D01*
X34099080Y4635920D01*
X34141000Y4687000D01*
X34177182Y4731087D01*
X34235218Y4839664D01*
X34259864Y4920911D01*
X34270957Y4957479D01*
X34280000Y5049296D01*
X34280000Y5049305D01*
X34283023Y5079999D01*
X34280000Y5110693D01*
X34280000Y5420573D01*
X34327285Y5425230D01*
X34444871Y5460899D01*
X34553239Y5518823D01*
X34648224Y5596776D01*
X34726177Y5691761D01*
X34784101Y5800129D01*
X34819770Y5917715D01*
X34831814Y6040000D01*
X34831814Y8140000D01*
X34819770Y8262285D01*
X34784101Y8379871D01*
X34726177Y8488239D01*
X34648224Y8583224D01*
X34553239Y8661177D01*
X34444871Y8719101D01*
X34327285Y8754770D01*
X34205000Y8766814D01*
X33105000Y8766814D01*
X32982715Y8754770D01*
X32865129Y8719101D01*
X32756761Y8661177D01*
X32661776Y8583224D01*
X32583823Y8488239D01*
X32525899Y8379871D01*
X32490230Y8262285D01*
X32478186Y8140000D01*
X32478186Y7840000D01*
X29116814Y7840000D01*
X29116814Y8140000D01*
X29104770Y8262285D01*
X29069101Y8379871D01*
X29011177Y8488239D01*
X28933224Y8583224D01*
X28838239Y8661177D01*
X28729871Y8719101D01*
X28612285Y8754770D01*
X28490000Y8766814D01*
X27390000Y8766814D01*
X27267715Y8754770D01*
X27150129Y8719101D01*
X27041761Y8661177D01*
X26946776Y8583224D01*
X26868823Y8488239D01*
X26810899Y8379871D01*
X26775230Y8262285D01*
X26763186Y8140000D01*
X26763186Y7715000D01*
X24900702Y7715000D01*
X24870000Y7718024D01*
X24839298Y7715000D01*
X24839296Y7715000D01*
X24747479Y7705957D01*
X24629666Y7670219D01*
X24579124Y7643204D01*
X24521088Y7612183D01*
X24449769Y7553653D01*
X24449765Y7553649D01*
X24425920Y7534080D01*
X24406350Y7510234D01*
X23363118Y6467000D01*
X18098883Y6467000D01*
X17673000Y6892882D01*
X17673000Y7492931D01*
X17766733Y7441023D01*
X17958114Y7379844D01*
X18157754Y7357178D01*
X18357980Y7373896D01*
X18551097Y7429353D01*
X18729684Y7521421D01*
X18755037Y7538362D01*
X18813532Y7706113D01*
X18173000Y8346645D01*
X18158858Y8332503D01*
X18123503Y8367858D01*
X18137645Y8382000D01*
X18208355Y8382000D01*
X18848887Y7741468D01*
X19016638Y7799963D01*
X19113977Y7975733D01*
X19175156Y8167114D01*
X19197822Y8366754D01*
X19181104Y8566980D01*
X19125647Y8760097D01*
X19033579Y8938684D01*
X19016638Y8964037D01*
X18848887Y9022532D01*
X18208355Y8382000D01*
X18137645Y8382000D01*
X18123503Y8396143D01*
X18158858Y8431498D01*
X18173000Y8417355D01*
X18813532Y9057887D01*
X18755037Y9225638D01*
X18579267Y9322977D01*
X18387886Y9384156D01*
X18188246Y9406822D01*
X17988020Y9390104D01*
X17794903Y9334647D01*
X17616316Y9242579D01*
X17590963Y9225638D01*
X17577295Y9186440D01*
X17561309Y9216347D01*
X17514448Y9273448D01*
X17457347Y9320309D01*
X17392200Y9355131D01*
X17321513Y9376574D01*
X17248000Y9383814D01*
X16848000Y9383814D01*
X16774487Y9376574D01*
X16723000Y9360955D01*
X16671513Y9376574D01*
X16598000Y9383814D01*
X16198000Y9383814D01*
X16124487Y9376574D01*
X16073000Y9360955D01*
X16021513Y9376574D01*
X15948000Y9383814D01*
X15548000Y9383814D01*
X15474487Y9376574D01*
X15423000Y9360955D01*
X15371513Y9376574D01*
X15298000Y9383814D01*
X14898000Y9383814D01*
X14824487Y9376574D01*
X14753800Y9355131D01*
X14688653Y9320309D01*
X14631552Y9273448D01*
X14584691Y9216347D01*
X14549869Y9151200D01*
X14528426Y9080513D01*
X14521186Y9007000D01*
X14521186Y7757000D01*
X14528426Y7683487D01*
X14549869Y7612800D01*
X14584691Y7547653D01*
X14631552Y7490552D01*
X14688653Y7443691D01*
X14753800Y7408869D01*
X14824487Y7387426D01*
X14898000Y7380186D01*
X15298000Y7380186D01*
X15371513Y7387426D01*
X15423000Y7403045D01*
X15474487Y7387426D01*
X15548000Y7380186D01*
X15948000Y7380186D01*
X16021513Y7387426D01*
X16073000Y7403045D01*
X16124487Y7387426D01*
X16198000Y7380186D01*
X16423001Y7380186D01*
X16423001Y6664704D01*
X16419977Y6634000D01*
X16423001Y6603296D01*
X16432044Y6511479D01*
X16467782Y6393666D01*
X16525818Y6285089D01*
X16603921Y6189920D01*
X16627772Y6170346D01*
X17376346Y5421771D01*
X17395920Y5397920D01*
X17419769Y5378348D01*
X17491087Y5319818D01*
X17491089Y5319817D01*
X17599666Y5261781D01*
X17717479Y5226043D01*
X17809296Y5217000D01*
X17809305Y5217000D01*
X17839999Y5213977D01*
X17870693Y5217000D01*
X23591306Y5217000D01*
X23622000Y5213977D01*
X23652694Y5217000D01*
X23652704Y5217000D01*
X23744521Y5226043D01*
X23862334Y5261781D01*
X23970911Y5319817D01*
X24066080Y5397920D01*
X24085658Y5421776D01*
X25128884Y6465000D01*
X26763186Y6465000D01*
X26763186Y6040000D01*
X26775230Y5917715D01*
X26810899Y5800129D01*
X26868823Y5691761D01*
X26946776Y5596776D01*
X27041761Y5518823D01*
X27150129Y5460899D01*
X27267715Y5425230D01*
X27390000Y5413186D01*
X28490000Y5413186D01*
X28612285Y5425230D01*
X28729871Y5460899D01*
X28838239Y5518823D01*
X28933224Y5596776D01*
X29011177Y5691761D01*
X29069101Y5800129D01*
X29104770Y5917715D01*
X29116814Y6040000D01*
X29116814Y6340000D01*
X32478186Y6340000D01*
X32478186Y6040000D01*
X32490230Y5917715D01*
X32525899Y5800129D01*
X32583823Y5691761D01*
X32661776Y5596776D01*
X32756761Y5518823D01*
X32865129Y5460899D01*
X32982715Y5425230D01*
X33030000Y5420573D01*
X33030000Y5338883D01*
X32126118Y4435000D01*
X17540693Y4435000D01*
X17509999Y4438023D01*
X17479305Y4435000D01*
X17479296Y4435000D01*
X17387479Y4425957D01*
X17269666Y4390219D01*
X17269664Y4390218D01*
X17161087Y4332182D01*
X17113677Y4293273D01*
X17065920Y4254080D01*
X17046347Y4230230D01*
X16109772Y3293654D01*
X16085921Y3274080D01*
X16014456Y3187000D01*
X16007818Y3178911D01*
X15949782Y3070334D01*
X15914044Y2952521D01*
X15901977Y2830000D01*
X15905001Y2799297D01*
X15905001Y2401814D01*
X15905000Y2401814D01*
X15782715Y2389770D01*
X15665129Y2354101D01*
X15556761Y2296177D01*
X15461776Y2218224D01*
X15436561Y2187500D01*
X15227404Y2187500D01*
X15219101Y2214872D01*
X15161177Y2323240D01*
X15083225Y2418225D01*
X14988240Y2496177D01*
X14879872Y2554101D01*
X14762286Y2589770D01*
X14640001Y2601814D01*
X13339999Y2601814D01*
X13217714Y2589770D01*
X13100128Y2554101D01*
X12991760Y2496177D01*
X12896775Y2418225D01*
X12818823Y2323240D01*
X12760899Y2214872D01*
X12752596Y2187500D01*
X12393193Y2187500D01*
X12362499Y2190523D01*
X12331805Y2187500D01*
X12331796Y2187500D01*
X12239979Y2178457D01*
X12122166Y2142719D01*
X12122164Y2142718D01*
X12013587Y2084682D01*
X11966177Y2045773D01*
X11918420Y2006580D01*
X11898847Y1982730D01*
X11579771Y1663653D01*
X11555921Y1644080D01*
X11536348Y1620230D01*
X11477818Y1548911D01*
X11419782Y1440334D01*
X11384044Y1322521D01*
X11371977Y1200000D01*
X11375001Y1169296D01*
X11375000Y-1244480D01*
X11361712Y-1228288D01*
X11328326Y-1200889D01*
X10908000Y-780564D01*
X10908000Y310186D01*
X10933000Y310186D01*
X11006513Y317426D01*
X11077200Y338869D01*
X11142347Y373691D01*
X11199448Y420552D01*
X11246309Y477653D01*
X11281131Y542800D01*
X11302574Y613487D01*
X11309814Y687000D01*
X11309814Y3187000D01*
X11302574Y3260513D01*
X11281131Y3331200D01*
X11246309Y3396347D01*
X11199448Y3453448D01*
X11142347Y3500309D01*
X11077200Y3535131D01*
X11006513Y3556574D01*
X10933000Y3563814D01*
X9133000Y3563814D01*
X9059487Y3556574D01*
X8988800Y3535131D01*
X8923653Y3500309D01*
X8866552Y3453448D01*
X8819691Y3396347D01*
X8784869Y3331200D01*
X8763426Y3260513D01*
X8756186Y3187000D01*
X8756186Y687000D01*
X8763426Y613487D01*
X8784869Y542800D01*
X8819691Y477653D01*
X8866552Y420552D01*
X8923653Y373691D01*
X8988800Y338869D01*
X9059487Y317426D01*
X9133000Y310186D01*
X9158001Y310186D01*
X9158001Y-1100011D01*
X9153767Y-1143000D01*
X9170661Y-1314529D01*
X9220695Y-1479467D01*
X9220696Y-1479468D01*
X9301945Y-1631476D01*
X9411289Y-1764712D01*
X9444676Y-1792112D01*
X9865000Y-2212437D01*
X9865001Y-4222588D01*
X9788481Y-4299108D01*
X9654419Y-4499745D01*
X9562076Y-4722681D01*
X9515000Y-4959348D01*
X9515000Y-5200652D01*
X9562076Y-5437319D01*
X9654419Y-5660255D01*
X9788481Y-5860892D01*
X9959108Y-6031519D01*
X10159745Y-6165581D01*
X10382681Y-6257924D01*
X10619348Y-6305000D01*
X10860652Y-6305000D01*
X11097319Y-6257924D01*
X11320255Y-6165581D01*
X11520892Y-6031519D01*
X11691519Y-5860892D01*
X11825581Y-5660255D01*
X11917924Y-5437319D01*
X11965000Y-5200652D01*
X11965000Y-4959348D01*
X11917924Y-4722681D01*
X11825581Y-4499745D01*
X11691519Y-4299108D01*
X11615000Y-4222589D01*
X11615000Y-2973882D01*
X12655000Y-4013883D01*
X12655001Y-6564316D01*
X12499108Y-6668481D01*
X12328481Y-6839108D01*
X12194419Y-7039745D01*
X12102076Y-7262681D01*
X12055000Y-7499348D01*
X12055000Y-7740652D01*
X12102076Y-7977319D01*
X12194419Y-8200255D01*
X12328481Y-8400892D01*
X12499108Y-8571519D01*
X12699745Y-8705581D01*
X12922681Y-8797924D01*
X13159348Y-8845000D01*
X13400652Y-8845000D01*
X13637319Y-8797924D01*
X13860255Y-8705581D01*
X14060892Y-8571519D01*
X14231519Y-8400892D01*
X14272501Y-8339559D01*
X14272500Y-10192596D01*
X14245128Y-10200899D01*
X14136760Y-10258823D01*
X14041775Y-10336775D01*
X13963823Y-10431760D01*
X13905899Y-10540128D01*
X13870230Y-10657714D01*
X13858186Y-10779999D01*
X13858186Y-12080001D01*
X13870230Y-12202286D01*
X13905899Y-12319872D01*
X13963823Y-12428240D01*
X14041775Y-12523225D01*
X14136760Y-12601177D01*
X14245128Y-12659101D01*
X14362714Y-12694770D01*
X14484999Y-12706814D01*
X15310001Y-12706814D01*
X15432286Y-12694770D01*
X15549872Y-12659101D01*
X15658240Y-12601177D01*
X15753225Y-12523225D01*
X15831177Y-12428240D01*
X15889101Y-12319872D01*
X15916771Y-12228654D01*
X16623117Y-12935000D01*
X-469314Y-12935000D01*
X-2140000Y-11264315D01*
X-2140000Y-7836285D01*
X-1205755Y-7836285D01*
X-1196741Y-7881602D01*
X-1122710Y-8110048D01*
X-1005534Y-8319662D01*
X-849716Y-8502388D01*
X-661244Y-8651205D01*
X-447360Y-8760393D01*
X-216285Y-8825756D01*
X-25000Y-8750996D01*
X-25000Y-7645000D01*
X25000Y-7645000D01*
X25000Y-8750996D01*
X216285Y-8825756D01*
X447360Y-8760393D01*
X661244Y-8651205D01*
X849716Y-8502388D01*
X1005534Y-8319662D01*
X1122710Y-8110048D01*
X1196741Y-7881602D01*
X1205755Y-7836285D01*
X1130974Y-7645000D01*
X25000Y-7645000D01*
X-25000Y-7645000D01*
X-1130974Y-7645000D01*
X-1205755Y-7836285D01*
X-2140000Y-7836285D01*
X-2140000Y-7403715D01*
X-1205755Y-7403715D01*
X-1130974Y-7595000D01*
X-25000Y-7595000D01*
X-25000Y-6489004D01*
X25000Y-6489004D01*
X25000Y-7595000D01*
X1130974Y-7595000D01*
X1168368Y-7499348D01*
X1315000Y-7499348D01*
X1315000Y-7740652D01*
X1362076Y-7977319D01*
X1454419Y-8200255D01*
X1588481Y-8400892D01*
X1759108Y-8571519D01*
X1959745Y-8705581D01*
X2182681Y-8797924D01*
X2419348Y-8845000D01*
X2660652Y-8845000D01*
X2897319Y-8797924D01*
X3120255Y-8705581D01*
X3320892Y-8571519D01*
X3491519Y-8400892D01*
X3625581Y-8200255D01*
X3717924Y-7977319D01*
X3765000Y-7740652D01*
X3765000Y-7499348D01*
X3717924Y-7262681D01*
X3625581Y-7039745D01*
X3491519Y-6839108D01*
X3422411Y-6770000D01*
X6973186Y-6770000D01*
X6973186Y-8470000D01*
X6980426Y-8543513D01*
X7001869Y-8614200D01*
X7036691Y-8679347D01*
X7083552Y-8736448D01*
X7140653Y-8783309D01*
X7205800Y-8818131D01*
X7276487Y-8839574D01*
X7350000Y-8846814D01*
X9050000Y-8846814D01*
X9123513Y-8839574D01*
X9194200Y-8818131D01*
X9259347Y-8783309D01*
X9316448Y-8736448D01*
X9363309Y-8679347D01*
X9398131Y-8614200D01*
X9419574Y-8543513D01*
X9426814Y-8470000D01*
X9426814Y-7499348D01*
X9515000Y-7499348D01*
X9515000Y-7740652D01*
X9562076Y-7977319D01*
X9654419Y-8200255D01*
X9788481Y-8400892D01*
X9959108Y-8571519D01*
X10159745Y-8705581D01*
X10382681Y-8797924D01*
X10619348Y-8845000D01*
X10860652Y-8845000D01*
X11097319Y-8797924D01*
X11320255Y-8705581D01*
X11520892Y-8571519D01*
X11691519Y-8400892D01*
X11825581Y-8200255D01*
X11917924Y-7977319D01*
X11965000Y-7740652D01*
X11965000Y-7499348D01*
X11917924Y-7262681D01*
X11825581Y-7039745D01*
X11691519Y-6839108D01*
X11520892Y-6668481D01*
X11320255Y-6534419D01*
X11097319Y-6442076D01*
X10860652Y-6395000D01*
X10619348Y-6395000D01*
X10382681Y-6442076D01*
X10159745Y-6534419D01*
X9959108Y-6668481D01*
X9788481Y-6839108D01*
X9654419Y-7039745D01*
X9562076Y-7262681D01*
X9515000Y-7499348D01*
X9426814Y-7499348D01*
X9426814Y-6770000D01*
X9419574Y-6696487D01*
X9398131Y-6625800D01*
X9363309Y-6560653D01*
X9316448Y-6503552D01*
X9259347Y-6456691D01*
X9194200Y-6421869D01*
X9123513Y-6400426D01*
X9050000Y-6393186D01*
X7350000Y-6393186D01*
X7276487Y-6400426D01*
X7205800Y-6421869D01*
X7140653Y-6456691D01*
X7083552Y-6503552D01*
X7036691Y-6560653D01*
X7001869Y-6625800D01*
X6980426Y-6696487D01*
X6973186Y-6770000D01*
X3422411Y-6770000D01*
X3320892Y-6668481D01*
X3120255Y-6534419D01*
X2897319Y-6442076D01*
X2660652Y-6395000D01*
X2419348Y-6395000D01*
X2182681Y-6442076D01*
X1959745Y-6534419D01*
X1759108Y-6668481D01*
X1588481Y-6839108D01*
X1454419Y-7039745D01*
X1362076Y-7262681D01*
X1315000Y-7499348D01*
X1168368Y-7499348D01*
X1205755Y-7403715D01*
X1196741Y-7358398D01*
X1122710Y-7129952D01*
X1005534Y-6920338D01*
X849716Y-6737612D01*
X661244Y-6588795D01*
X447360Y-6479607D01*
X216285Y-6414244D01*
X25000Y-6489004D01*
X-25000Y-6489004D01*
X-216285Y-6414244D01*
X-447360Y-6479607D01*
X-661244Y-6588795D01*
X-849716Y-6737612D01*
X-1005534Y-6920338D01*
X-1122710Y-7129952D01*
X-1196741Y-7358398D01*
X-1205755Y-7403715D01*
X-2140000Y-7403715D01*
X-2140000Y-5296285D01*
X-1205755Y-5296285D01*
X-1196741Y-5341602D01*
X-1122710Y-5570048D01*
X-1005534Y-5779662D01*
X-849716Y-5962388D01*
X-661244Y-6111205D01*
X-447360Y-6220393D01*
X-216285Y-6285756D01*
X-25000Y-6210996D01*
X-25000Y-5105000D01*
X25000Y-5105000D01*
X25000Y-6210996D01*
X216285Y-6285756D01*
X447360Y-6220393D01*
X661244Y-6111205D01*
X849716Y-5962388D01*
X1005534Y-5779662D01*
X1122710Y-5570048D01*
X1196741Y-5341602D01*
X1205755Y-5296285D01*
X1130974Y-5105000D01*
X25000Y-5105000D01*
X-25000Y-5105000D01*
X-1130974Y-5105000D01*
X-1205755Y-5296285D01*
X-2140000Y-5296285D01*
X-2140000Y-4863715D01*
X-1205755Y-4863715D01*
X-1130974Y-5055000D01*
X-25000Y-5055000D01*
X-25000Y-3949004D01*
X25000Y-3949004D01*
X25000Y-5055000D01*
X1130974Y-5055000D01*
X1168368Y-4959348D01*
X1315000Y-4959348D01*
X1315000Y-5200652D01*
X1362076Y-5437319D01*
X1454419Y-5660255D01*
X1588481Y-5860892D01*
X1759108Y-6031519D01*
X1959745Y-6165581D01*
X2182681Y-6257924D01*
X2419348Y-6305000D01*
X2660652Y-6305000D01*
X2897319Y-6257924D01*
X3120255Y-6165581D01*
X3320892Y-6031519D01*
X3491519Y-5860892D01*
X3625581Y-5660255D01*
X3717924Y-5437319D01*
X3765000Y-5200652D01*
X3765000Y-4959348D01*
X3717924Y-4722681D01*
X3625581Y-4499745D01*
X3491519Y-4299108D01*
X3320892Y-4128481D01*
X3120255Y-3994419D01*
X2897319Y-3902076D01*
X2660652Y-3855000D01*
X2419348Y-3855000D01*
X2182681Y-3902076D01*
X1959745Y-3994419D01*
X1759108Y-4128481D01*
X1588481Y-4299108D01*
X1454419Y-4499745D01*
X1362076Y-4722681D01*
X1315000Y-4959348D01*
X1168368Y-4959348D01*
X1205755Y-4863715D01*
X1196741Y-4818398D01*
X1122710Y-4589952D01*
X1005534Y-4380338D01*
X849716Y-4197612D01*
X661244Y-4048795D01*
X447360Y-3939607D01*
X216285Y-3874244D01*
X25000Y-3949004D01*
X-25000Y-3949004D01*
X-216285Y-3874244D01*
X-447360Y-3939607D01*
X-661244Y-4048795D01*
X-849716Y-4197612D01*
X-1005534Y-4380338D01*
X-1122710Y-4589952D01*
X-1196741Y-4818398D01*
X-1205755Y-4863715D01*
X-2140000Y-4863715D01*
X-2140000Y-2756285D01*
X-1205755Y-2756285D01*
X-1196741Y-2801602D01*
X-1122710Y-3030048D01*
X-1005534Y-3239662D01*
X-849716Y-3422388D01*
X-661244Y-3571205D01*
X-447360Y-3680393D01*
X-216285Y-3745756D01*
X-25000Y-3670996D01*
X-25000Y-2565000D01*
X25000Y-2565000D01*
X25000Y-3670996D01*
X216285Y-3745756D01*
X447360Y-3680393D01*
X661244Y-3571205D01*
X849716Y-3422388D01*
X1005534Y-3239662D01*
X1122710Y-3030048D01*
X1196741Y-2801602D01*
X1205755Y-2756285D01*
X1130974Y-2565000D01*
X25000Y-2565000D01*
X-25000Y-2565000D01*
X-1130974Y-2565000D01*
X-1205755Y-2756285D01*
X-2140000Y-2756285D01*
X-2140000Y-2323715D01*
X-1205755Y-2323715D01*
X-1130974Y-2515000D01*
X-25000Y-2515000D01*
X-25000Y-1409004D01*
X25000Y-1409004D01*
X25000Y-2515000D01*
X1130974Y-2515000D01*
X1168368Y-2419348D01*
X1315000Y-2419348D01*
X1315000Y-2660652D01*
X1362076Y-2897319D01*
X1454419Y-3120255D01*
X1588481Y-3320892D01*
X1759108Y-3491519D01*
X1959745Y-3625581D01*
X2182681Y-3717924D01*
X2419348Y-3765000D01*
X2660652Y-3765000D01*
X2897319Y-3717924D01*
X3120255Y-3625581D01*
X3320892Y-3491519D01*
X3491519Y-3320892D01*
X3625581Y-3120255D01*
X3717924Y-2897319D01*
X3765000Y-2660652D01*
X3765000Y-2419348D01*
X3717924Y-2182681D01*
X3625581Y-1959745D01*
X3491519Y-1759108D01*
X3320892Y-1588481D01*
X3120255Y-1454419D01*
X2897319Y-1362076D01*
X2660652Y-1315000D01*
X2419348Y-1315000D01*
X2182681Y-1362076D01*
X1959745Y-1454419D01*
X1759108Y-1588481D01*
X1588481Y-1759108D01*
X1454419Y-1959745D01*
X1362076Y-2182681D01*
X1315000Y-2419348D01*
X1168368Y-2419348D01*
X1205755Y-2323715D01*
X1196741Y-2278398D01*
X1122710Y-2049952D01*
X1005534Y-1840338D01*
X849716Y-1657612D01*
X661244Y-1508795D01*
X447360Y-1399607D01*
X216285Y-1334244D01*
X25000Y-1409004D01*
X-25000Y-1409004D01*
X-216285Y-1334244D01*
X-447360Y-1399607D01*
X-661244Y-1508795D01*
X-849716Y-1657612D01*
X-1005534Y-1840338D01*
X-1122710Y-2049952D01*
X-1196741Y-2278398D01*
X-1205755Y-2323715D01*
X-2140000Y-2323715D01*
X-2140000Y-216285D01*
X-1205755Y-216285D01*
X-1196741Y-261602D01*
X-1122710Y-490048D01*
X-1005534Y-699662D01*
X-849716Y-882388D01*
X-661244Y-1031205D01*
X-447360Y-1140393D01*
X-216285Y-1205756D01*
X-25000Y-1130996D01*
X-25000Y-25000D01*
X25000Y-25000D01*
X25000Y-1130996D01*
X216285Y-1205756D01*
X447360Y-1140393D01*
X661244Y-1031205D01*
X849716Y-882388D01*
X1005534Y-699662D01*
X1122710Y-490048D01*
X1196741Y-261602D01*
X1205755Y-216285D01*
X1130974Y-25000D01*
X25000Y-25000D01*
X-25000Y-25000D01*
X-1130974Y-25000D01*
X-1205755Y-216285D01*
X-2140000Y-216285D01*
X-2140000Y216285D01*
X-1205755Y216285D01*
X-1130974Y25000D01*
X-25000Y25000D01*
X-25000Y1130996D01*
X25000Y1130996D01*
X25000Y25000D01*
X1130974Y25000D01*
X1205755Y216285D01*
X1196741Y261602D01*
X1122710Y490048D01*
X1005534Y699662D01*
X877335Y850000D01*
X1313186Y850000D01*
X1313186Y-850000D01*
X1320426Y-923513D01*
X1341869Y-994200D01*
X1376691Y-1059347D01*
X1423552Y-1116448D01*
X1480653Y-1163309D01*
X1545800Y-1198131D01*
X1616487Y-1219574D01*
X1690000Y-1226814D01*
X3390000Y-1226814D01*
X3463513Y-1219574D01*
X3534200Y-1198131D01*
X3599347Y-1163309D01*
X3656448Y-1116448D01*
X3703309Y-1059347D01*
X3738131Y-994200D01*
X3759574Y-923513D01*
X3766814Y-850000D01*
X3766814Y850000D01*
X3759574Y923513D01*
X3738131Y994200D01*
X3703309Y1059347D01*
X3656448Y1116448D01*
X3599347Y1163309D01*
X3534200Y1198131D01*
X3463513Y1219574D01*
X3390000Y1226814D01*
X1690000Y1226814D01*
X1616487Y1219574D01*
X1545800Y1198131D01*
X1480653Y1163309D01*
X1423552Y1116448D01*
X1376691Y1059347D01*
X1341869Y994200D01*
X1320426Y923513D01*
X1313186Y850000D01*
X877335Y850000D01*
X849716Y882388D01*
X661244Y1031205D01*
X447360Y1140393D01*
X216285Y1205756D01*
X25000Y1130996D01*
X-25000Y1130996D01*
X-216285Y1205756D01*
X-447360Y1140393D01*
X-661244Y1031205D01*
X-849716Y882388D01*
X-1005534Y699662D01*
X-1122710Y490048D01*
X-1196741Y261602D01*
X-1205755Y216285D01*
X-2140000Y216285D01*
X-2140000Y7023087D01*
X53443Y7023087D01*
X196495Y6783144D01*
X492096Y6615570D01*
X814709Y6508885D01*
X1151937Y6467188D01*
X1490820Y6492083D01*
X1818334Y6582611D01*
X2121893Y6735295D01*
X2193505Y6783144D01*
X2336557Y7023087D01*
X1195000Y8164645D01*
X53443Y7023087D01*
X-2140000Y7023087D01*
X-2140000Y8243063D01*
X-537812Y8243063D01*
X-512917Y7904180D01*
X-422389Y7576666D01*
X-269705Y7273107D01*
X-221856Y7201495D01*
X18087Y7058443D01*
X1159645Y8200000D01*
X1230355Y8200000D01*
X2371913Y7058443D01*
X2611856Y7201495D01*
X2779430Y7497096D01*
X2886115Y7819709D01*
X2927812Y8156937D01*
X2902917Y8495820D01*
X2812389Y8823334D01*
X2659705Y9126893D01*
X2611856Y9198505D01*
X2371913Y9341557D01*
X1230355Y8200000D01*
X1159645Y8200000D01*
X18087Y9341557D01*
X-221856Y9198505D01*
X-389430Y8902904D01*
X-496115Y8580291D01*
X-537812Y8243063D01*
X-2140000Y8243063D01*
X-2140000Y9376913D01*
X53443Y9376913D01*
X1195000Y8235355D01*
X2336557Y9376913D01*
X2248269Y9525000D01*
X3054000Y9525000D01*
X3054000Y6985000D01*
X3061206Y6911841D01*
X3082545Y6841494D01*
X3117199Y6776661D01*
X3163835Y6719835D01*
X3671835Y6211835D01*
X3728661Y6165199D01*
X3793494Y6130545D01*
X3863841Y6109206D01*
X3937000Y6102000D01*
X6067670Y6102000D01*
X8116835Y4052835D01*
X8173661Y4006199D01*
X8238494Y3971545D01*
X8308841Y3950206D01*
X8382000Y3943000D01*
X11176000Y3943000D01*
X11249159Y3950206D01*
X11319506Y3971545D01*
X11384339Y4006199D01*
X11441165Y4052835D01*
X11822165Y4433835D01*
X11868801Y4490661D01*
X11903455Y4555494D01*
X11924794Y4625841D01*
X11932000Y4699000D01*
X11932000Y7706113D01*
X12682468Y7706113D01*
X12740963Y7538362D01*
X12916733Y7441023D01*
X13108114Y7379844D01*
X13307754Y7357178D01*
X13507980Y7373896D01*
X13701097Y7429353D01*
X13879684Y7521421D01*
X13905037Y7538362D01*
X13963532Y7706113D01*
X13323000Y8346645D01*
X12682468Y7706113D01*
X11932000Y7706113D01*
X11932000Y8255000D01*
X11917183Y8359369D01*
X11902046Y8397246D01*
X12298178Y8397246D01*
X12314896Y8197020D01*
X12370353Y8003903D01*
X12462421Y7825316D01*
X12479362Y7799963D01*
X12647113Y7741468D01*
X13287645Y8382000D01*
X13358355Y8382000D01*
X13998887Y7741468D01*
X14166638Y7799963D01*
X14263977Y7975733D01*
X14325156Y8167114D01*
X14347822Y8366754D01*
X14331104Y8566980D01*
X14275647Y8760097D01*
X14183579Y8938684D01*
X14166638Y8964037D01*
X13998887Y9022532D01*
X13358355Y8382000D01*
X13287645Y8382000D01*
X12647113Y9022532D01*
X12479362Y8964037D01*
X12382023Y8788267D01*
X12320844Y8596886D01*
X12298178Y8397246D01*
X11902046Y8397246D01*
X11889901Y8427632D01*
X11849826Y8489261D01*
X11394926Y9057887D01*
X12682468Y9057887D01*
X13323000Y8417355D01*
X13963532Y9057887D01*
X13905037Y9225638D01*
X13729267Y9322977D01*
X13537886Y9384156D01*
X13338246Y9406822D01*
X13138020Y9390104D01*
X12944903Y9334647D01*
X12766316Y9242579D01*
X12740963Y9225638D01*
X12682468Y9057887D01*
X11394926Y9057887D01*
X11341826Y9124261D01*
X11314165Y9155165D01*
X11257339Y9201801D01*
X11192506Y9236455D01*
X11122159Y9257794D01*
X11049000Y9265000D01*
X7140330Y9265000D01*
X6361165Y10044165D01*
X6304339Y10090801D01*
X6239506Y10125455D01*
X6169159Y10146794D01*
X6096000Y10154000D01*
X3683000Y10154000D01*
X3609841Y10146794D01*
X3539494Y10125455D01*
X3474661Y10090801D01*
X3417835Y10044165D01*
X3163835Y9790165D01*
X3117199Y9733339D01*
X3082545Y9668506D01*
X3061206Y9598159D01*
X3054000Y9525000D01*
X2248269Y9525000D01*
X2193505Y9616856D01*
X1897904Y9784430D01*
X1575291Y9891115D01*
X1238063Y9932812D01*
X899180Y9907917D01*
X571666Y9817389D01*
X268107Y9664705D01*
X196495Y9616856D01*
X53443Y9376913D01*
X-2140000Y9376913D01*
X-2140000Y11157000D01*
X11223000Y11157000D01*
X11223000Y10807000D01*
X11245651Y10627022D01*
X11302979Y10454921D01*
X11392780Y10297311D01*
X11511604Y10160249D01*
X11654884Y10049002D01*
X11817114Y9967845D01*
X11978659Y9922633D01*
X12123000Y10001126D01*
X12123000Y11157000D01*
X12173000Y11157000D01*
X12173000Y10001126D01*
X12317341Y9922633D01*
X12478886Y9967845D01*
X12641116Y10049002D01*
X12784396Y10160249D01*
X12903220Y10297311D01*
X12993021Y10454921D01*
X13050349Y10627022D01*
X13073000Y10807000D01*
X13073000Y11157000D01*
X18423000Y11157000D01*
X18423000Y10807000D01*
X18445651Y10627022D01*
X18502979Y10454921D01*
X18592780Y10297311D01*
X18711604Y10160249D01*
X18854884Y10049002D01*
X19017114Y9967845D01*
X19178659Y9922633D01*
X19323000Y10001126D01*
X19323000Y11157000D01*
X19373000Y11157000D01*
X19373000Y10001126D01*
X19517341Y9922633D01*
X19678886Y9967845D01*
X19841116Y10049002D01*
X19984396Y10160249D01*
X20103220Y10297311D01*
X20193021Y10454921D01*
X20250349Y10627022D01*
X20273000Y10807000D01*
X20273000Y11157000D01*
X19373000Y11157000D01*
X19323000Y11157000D01*
X18423000Y11157000D01*
X13073000Y11157000D01*
X12173000Y11157000D01*
X12123000Y11157000D01*
X11223000Y11157000D01*
X-2140000Y11157000D01*
X-2140000Y11557000D01*
X11223000Y11557000D01*
X11223000Y11207000D01*
X12123000Y11207000D01*
X12123000Y12362874D01*
X12173000Y12362874D01*
X12173000Y11207000D01*
X13073000Y11207000D01*
X13073000Y11557000D01*
X18423000Y11557000D01*
X18423000Y11207000D01*
X19323000Y11207000D01*
X19323000Y12362874D01*
X19373000Y12362874D01*
X19373000Y11207000D01*
X20273000Y11207000D01*
X20273000Y11557000D01*
X20250349Y11736978D01*
X20193021Y11909079D01*
X20103220Y12066689D01*
X19984396Y12203751D01*
X19841116Y12314998D01*
X19678886Y12396155D01*
X19517341Y12441367D01*
X19373000Y12362874D01*
X19323000Y12362874D01*
X19178659Y12441367D01*
X19017114Y12396155D01*
X18854884Y12314998D01*
X18711604Y12203751D01*
X18592780Y12066689D01*
X18502979Y11909079D01*
X18445651Y11736978D01*
X18423000Y11557000D01*
X13073000Y11557000D01*
X13050349Y11736978D01*
X12993021Y11909079D01*
X12903220Y12066689D01*
X12784396Y12203751D01*
X12641116Y12314998D01*
X12478886Y12396155D01*
X12317341Y12441367D01*
X12173000Y12362874D01*
X12123000Y12362874D01*
X11978659Y12441367D01*
X11817114Y12396155D01*
X11654884Y12314998D01*
X11511604Y12203751D01*
X11392780Y12066689D01*
X11302979Y11909079D01*
X11245651Y11736978D01*
X11223000Y11557000D01*
X-2140000Y11557000D01*
X-2140000Y13550315D01*
X673686Y16364000D01*
X5676315Y16364000D01*
X9101737Y12938578D01*
%TA.AperFunction,Conductor*%
D25*
G36*
X9101737Y12938578D02*
G01*
X9114735Y12922847D01*
X9144724Y12898402D01*
X9174696Y12873804D01*
X9175288Y12873487D01*
X9175809Y12873063D01*
X9209963Y12854953D01*
X9244185Y12836661D01*
X9244830Y12836465D01*
X9245421Y12836152D01*
X9282480Y12825045D01*
X9319585Y12813789D01*
X9320252Y12813723D01*
X9320897Y12813530D01*
X9359657Y12809842D01*
X9397999Y12806066D01*
X9418298Y12808065D01*
X47459865Y12934450D01*
X50400000Y9994314D01*
X50400001Y-11264313D01*
X48729315Y-12935000D01*
X22746883Y-12935000D01*
X23040234Y-12641650D01*
X23064080Y-12622080D01*
X23083652Y-12598232D01*
X23142182Y-12526913D01*
X23200218Y-12418336D01*
X23230087Y-12319872D01*
X23235957Y-12300521D01*
X23245000Y-12208704D01*
X23245000Y-12208695D01*
X23248023Y-12178001D01*
X23245000Y-12147307D01*
X23245000Y-12146814D01*
X23370000Y-12146814D01*
X23443513Y-12139574D01*
X23514200Y-12118131D01*
X23579347Y-12083309D01*
X23636448Y-12036448D01*
X23683309Y-11979347D01*
X23718131Y-11914200D01*
X23739574Y-11843513D01*
X23746814Y-11770000D01*
X23746814Y-9770000D01*
X23739574Y-9696487D01*
X23718131Y-9625800D01*
X23701550Y-9594780D01*
X24130000Y-9166330D01*
X24626835Y-9663165D01*
X24683661Y-9709801D01*
X24748494Y-9744455D01*
X24818841Y-9765794D01*
X24892000Y-9773000D01*
X26514670Y-9773000D01*
X26549000Y-9807330D01*
X26549000Y-11938000D01*
X26556206Y-12011159D01*
X26577545Y-12081506D01*
X26612199Y-12146339D01*
X26658835Y-12203165D01*
X26715661Y-12249801D01*
X26780494Y-12284455D01*
X26850841Y-12305794D01*
X26924000Y-12313000D01*
X28956000Y-12313000D01*
X29029159Y-12305794D01*
X29099506Y-12284455D01*
X29164339Y-12249801D01*
X29221165Y-12203165D01*
X29267801Y-12146339D01*
X29296861Y-12091972D01*
X29345800Y-12118131D01*
X29416487Y-12139574D01*
X29490000Y-12146814D01*
X30990000Y-12146814D01*
X31063513Y-12139574D01*
X31134200Y-12118131D01*
X31199347Y-12083309D01*
X31256448Y-12036448D01*
X31303309Y-11979347D01*
X31338131Y-11914200D01*
X31359574Y-11843513D01*
X31366814Y-11770000D01*
X31366814Y-11422696D01*
X31794346Y-11850229D01*
X31813920Y-11874080D01*
X31909089Y-11952183D01*
X32017666Y-12010219D01*
X32135479Y-12045957D01*
X32227296Y-12055000D01*
X32227306Y-12055000D01*
X32258000Y-12058023D01*
X32288694Y-12055000D01*
X32323186Y-12055000D01*
X32323186Y-12080001D01*
X32335230Y-12202286D01*
X32370899Y-12319872D01*
X32428823Y-12428240D01*
X32506775Y-12523225D01*
X32601760Y-12601177D01*
X32710128Y-12659101D01*
X32827714Y-12694770D01*
X32949999Y-12706814D01*
X33775001Y-12706814D01*
X33897286Y-12694770D01*
X34014872Y-12659101D01*
X34123240Y-12601177D01*
X34218225Y-12523225D01*
X34296177Y-12428240D01*
X34354101Y-12319872D01*
X34389770Y-12202286D01*
X34401814Y-12080001D01*
X34401814Y-10779999D01*
X34389770Y-10657714D01*
X34354101Y-10540128D01*
X34296177Y-10431760D01*
X34218225Y-10336775D01*
X34123240Y-10258823D01*
X34014872Y-10200899D01*
X33987500Y-10192596D01*
X33987500Y-10025201D01*
X33990524Y-9994500D01*
X33987500Y-9963796D01*
X33978457Y-9871979D01*
X33942719Y-9754166D01*
X33884683Y-9645589D01*
X33806580Y-9550420D01*
X33782729Y-9530846D01*
X32883000Y-8631118D01*
X32883000Y-6770000D01*
X34048186Y-6770000D01*
X34048186Y-8470000D01*
X34055426Y-8543513D01*
X34076869Y-8614200D01*
X34111691Y-8679347D01*
X34158552Y-8736448D01*
X34215653Y-8783309D01*
X34280800Y-8818131D01*
X34351487Y-8839574D01*
X34425000Y-8846814D01*
X36125000Y-8846814D01*
X36198513Y-8839574D01*
X36269200Y-8818131D01*
X36334347Y-8783309D01*
X36391448Y-8736448D01*
X36438309Y-8679347D01*
X36473131Y-8614200D01*
X36494574Y-8543513D01*
X36501814Y-8470000D01*
X36501814Y-7499348D01*
X36590000Y-7499348D01*
X36590000Y-7740652D01*
X36637076Y-7977319D01*
X36729419Y-8200255D01*
X36863481Y-8400892D01*
X37034108Y-8571519D01*
X37234745Y-8705581D01*
X37457681Y-8797924D01*
X37694348Y-8845000D01*
X37935652Y-8845000D01*
X38172319Y-8797924D01*
X38395255Y-8705581D01*
X38595892Y-8571519D01*
X38766519Y-8400892D01*
X38900581Y-8200255D01*
X38992924Y-7977319D01*
X39040000Y-7740652D01*
X39040000Y-7499348D01*
X38992924Y-7262681D01*
X38900581Y-7039745D01*
X38766519Y-6839108D01*
X38595892Y-6668481D01*
X38395255Y-6534419D01*
X38172319Y-6442076D01*
X37935652Y-6395000D01*
X37694348Y-6395000D01*
X37457681Y-6442076D01*
X37234745Y-6534419D01*
X37034108Y-6668481D01*
X36863481Y-6839108D01*
X36729419Y-7039745D01*
X36637076Y-7262681D01*
X36590000Y-7499348D01*
X36501814Y-7499348D01*
X36501814Y-6770000D01*
X36494574Y-6696487D01*
X36473131Y-6625800D01*
X36438309Y-6560653D01*
X36391448Y-6503552D01*
X36334347Y-6456691D01*
X36269200Y-6421869D01*
X36198513Y-6400426D01*
X36125000Y-6393186D01*
X34425000Y-6393186D01*
X34351487Y-6400426D01*
X34280800Y-6421869D01*
X34215653Y-6456691D01*
X34158552Y-6503552D01*
X34111691Y-6560653D01*
X34076869Y-6625800D01*
X34055426Y-6696487D01*
X34048186Y-6770000D01*
X32883000Y-6770000D01*
X32883000Y-4959348D01*
X36590000Y-4959348D01*
X36590000Y-5200652D01*
X36637076Y-5437319D01*
X36729419Y-5660255D01*
X36863481Y-5860892D01*
X37034108Y-6031519D01*
X37234745Y-6165581D01*
X37457681Y-6257924D01*
X37694348Y-6305000D01*
X37935652Y-6305000D01*
X38172319Y-6257924D01*
X38395255Y-6165581D01*
X38595892Y-6031519D01*
X38766519Y-5860892D01*
X38900581Y-5660255D01*
X38992924Y-5437319D01*
X39040000Y-5200652D01*
X39040000Y-4959348D01*
X38992924Y-4722681D01*
X38900581Y-4499745D01*
X38766519Y-4299108D01*
X38595892Y-4128481D01*
X38395255Y-3994419D01*
X38172319Y-3902076D01*
X37935652Y-3855000D01*
X37694348Y-3855000D01*
X37457681Y-3902076D01*
X37234745Y-3994419D01*
X37034108Y-4128481D01*
X36863481Y-4299108D01*
X36729419Y-4499745D01*
X36637076Y-4722681D01*
X36590000Y-4959348D01*
X32883000Y-4959348D01*
X32883000Y-4269585D01*
X32944796Y-4177100D01*
X33003217Y-4036059D01*
X33033000Y-3886331D01*
X33033000Y-3733669D01*
X33003217Y-3583941D01*
X32944796Y-3442900D01*
X32859982Y-3315966D01*
X32752034Y-3208018D01*
X32625100Y-3123204D01*
X32484059Y-3064783D01*
X32334331Y-3035000D01*
X32181669Y-3035000D01*
X32078327Y-3055556D01*
X32150230Y-2983653D01*
X32174080Y-2964080D01*
X32252183Y-2868911D01*
X32310219Y-2760334D01*
X32345957Y-2642521D01*
X32355000Y-2550704D01*
X32355000Y-2550702D01*
X32358024Y-2520000D01*
X32355000Y-2489299D01*
X32355000Y-2401814D01*
X32477285Y-2389770D01*
X32594871Y-2354101D01*
X32703239Y-2296177D01*
X32798224Y-2218224D01*
X32876177Y-2123239D01*
X32934101Y-2014871D01*
X32969770Y-1897285D01*
X32981814Y-1775000D01*
X32981814Y-1025000D01*
X32969770Y-902715D01*
X32934101Y-785129D01*
X32876177Y-676761D01*
X32798224Y-581776D01*
X32703239Y-503823D01*
X32594871Y-445899D01*
X32477285Y-410230D01*
X32355000Y-398186D01*
X31105000Y-398186D01*
X30982715Y-410230D01*
X30865129Y-445899D01*
X30756761Y-503823D01*
X30661776Y-581776D01*
X30583823Y-676761D01*
X30525899Y-785129D01*
X30490230Y-902715D01*
X30478186Y-1025000D01*
X30478186Y-1775000D01*
X30490230Y-1897285D01*
X30525899Y-2014871D01*
X30583823Y-2123239D01*
X30661776Y-2218224D01*
X30756761Y-2296177D01*
X30865129Y-2354101D01*
X30977829Y-2388288D01*
X30741118Y-2625000D01*
X28530702Y-2625000D01*
X28500000Y-2621976D01*
X28469298Y-2625000D01*
X28469296Y-2625000D01*
X28377479Y-2634043D01*
X28259666Y-2669781D01*
X28209124Y-2696796D01*
X28151088Y-2727817D01*
X28079769Y-2786347D01*
X28079765Y-2786351D01*
X28055920Y-2805920D01*
X28036350Y-2829766D01*
X27772931Y-3093186D01*
X26040000Y-3093186D01*
X25966487Y-3100426D01*
X25895800Y-3121869D01*
X25830653Y-3156691D01*
X25773552Y-3203552D01*
X25726691Y-3260653D01*
X25691869Y-3325800D01*
X25670426Y-3396487D01*
X25663186Y-3470000D01*
X25663186Y-3943000D01*
X25400000Y-3943000D01*
X25326841Y-3950206D01*
X25256494Y-3971545D01*
X25191661Y-4006199D01*
X25134835Y-4052835D01*
X24130000Y-5057670D01*
X23125165Y-4052835D01*
X23068339Y-4006199D01*
X23003506Y-3971545D01*
X22933159Y-3950206D01*
X22860000Y-3943000D01*
X22596814Y-3943000D01*
X22596814Y-3470000D01*
X22589574Y-3396487D01*
X22568131Y-3325800D01*
X22533309Y-3260653D01*
X22486448Y-3203552D01*
X22429347Y-3156691D01*
X22364200Y-3121869D01*
X22293513Y-3100426D01*
X22220000Y-3093186D01*
X18420000Y-3093186D01*
X18346487Y-3100426D01*
X18275800Y-3121869D01*
X18210653Y-3156691D01*
X18153552Y-3203552D01*
X18106691Y-3260653D01*
X18071869Y-3325800D01*
X18050426Y-3396487D01*
X18043186Y-3470000D01*
X18043186Y-3943000D01*
X17780000Y-3943000D01*
X17706841Y-3950206D01*
X17636494Y-3971545D01*
X17571661Y-4006199D01*
X17514835Y-4052835D01*
X17155000Y-4412670D01*
X17155000Y-2401814D01*
X17277285Y-2389770D01*
X17394871Y-2354101D01*
X17503239Y-2296177D01*
X17598224Y-2218224D01*
X17676177Y-2123239D01*
X17734101Y-2014871D01*
X17769770Y-1897285D01*
X17781814Y-1775000D01*
X17781814Y-1025000D01*
X17769770Y-902715D01*
X17734101Y-785129D01*
X17676177Y-676761D01*
X17598224Y-581776D01*
X17503239Y-503823D01*
X17394871Y-445899D01*
X17277285Y-410230D01*
X17155000Y-398186D01*
X15905000Y-398186D01*
X15782715Y-410230D01*
X15665129Y-445899D01*
X15556761Y-503823D01*
X15461776Y-581776D01*
X15383823Y-676761D01*
X15325899Y-785129D01*
X15290230Y-902715D01*
X15278186Y-1025000D01*
X15278186Y-1775000D01*
X15290230Y-1897285D01*
X15325899Y-2014871D01*
X15383823Y-2123239D01*
X15461776Y-2218224D01*
X15556761Y-2296177D01*
X15665129Y-2354101D01*
X15782715Y-2389770D01*
X15905000Y-2401814D01*
X15905001Y-5069296D01*
X15901977Y-5100000D01*
X15905001Y-5130704D01*
X15914044Y-5222521D01*
X15949782Y-5340334D01*
X16007818Y-5448911D01*
X16085921Y-5544080D01*
X16109772Y-5563654D01*
X16389000Y-5842882D01*
X16389000Y-8890000D01*
X16396206Y-8963159D01*
X16417545Y-9033506D01*
X16452199Y-9098339D01*
X16498835Y-9155165D01*
X17006835Y-9663165D01*
X17063661Y-9709801D01*
X17128494Y-9744455D01*
X17198841Y-9765794D01*
X17272000Y-9773000D01*
X18894670Y-9773000D01*
X18929000Y-9807330D01*
X18929000Y-11938000D01*
X18936206Y-12011159D01*
X18955571Y-12075000D01*
X17530883Y-12075000D01*
X16465658Y-11009776D01*
X16446080Y-10985920D01*
X16350911Y-10907817D01*
X16242334Y-10849781D01*
X16124521Y-10814043D01*
X16032704Y-10805000D01*
X16032694Y-10805000D01*
X16002000Y-10801977D01*
X15971306Y-10805000D01*
X15936814Y-10805000D01*
X15936814Y-10779999D01*
X15924770Y-10657714D01*
X15889101Y-10540128D01*
X15831177Y-10431760D01*
X15753225Y-10336775D01*
X15658240Y-10258823D01*
X15549872Y-10200899D01*
X15522500Y-10192596D01*
X15522500Y-5961193D01*
X15525523Y-5930499D01*
X15522500Y-5899805D01*
X15522500Y-5899796D01*
X15513457Y-5807979D01*
X15477719Y-5690166D01*
X15419683Y-5581589D01*
X15341580Y-5486420D01*
X15317728Y-5466846D01*
X15230000Y-5379117D01*
X15230000Y-4904585D01*
X15291796Y-4812100D01*
X15350217Y-4671059D01*
X15380000Y-4521331D01*
X15380000Y-4368669D01*
X15350217Y-4218941D01*
X15291796Y-4077900D01*
X15206982Y-3950966D01*
X15099034Y-3843018D01*
X14972100Y-3758204D01*
X14831059Y-3699783D01*
X14681331Y-3670000D01*
X14528669Y-3670000D01*
X14378941Y-3699783D01*
X14237900Y-3758204D01*
X14110966Y-3843018D01*
X14003018Y-3950966D01*
X13918204Y-4077900D01*
X13905000Y-4109777D01*
X13905000Y-3785693D01*
X13908023Y-3754999D01*
X13905000Y-3724305D01*
X13905000Y-3724296D01*
X13895957Y-3632479D01*
X13860219Y-3514666D01*
X13802183Y-3406089D01*
X13802182Y-3406087D01*
X13743652Y-3334769D01*
X13724080Y-3310920D01*
X13700230Y-3291347D01*
X12625000Y-2216118D01*
X12625000Y937500D01*
X12752596Y937500D01*
X12760899Y910128D01*
X12818823Y801760D01*
X12896775Y706775D01*
X12991760Y628823D01*
X13100128Y570899D01*
X13217714Y535230D01*
X13339999Y523186D01*
X14640001Y523186D01*
X14762286Y535230D01*
X14879872Y570899D01*
X14988240Y628823D01*
X15083225Y706775D01*
X15161177Y801760D01*
X15219101Y910128D01*
X15227404Y937500D01*
X15286804Y937500D01*
X15290230Y902715D01*
X15325899Y785129D01*
X15383823Y676761D01*
X15461776Y581776D01*
X15556761Y503823D01*
X15665129Y445899D01*
X15782715Y410230D01*
X15905000Y398186D01*
X17155000Y398186D01*
X17277285Y410230D01*
X17394871Y445899D01*
X17503239Y503823D01*
X17598224Y581776D01*
X17676177Y676761D01*
X17728687Y775000D01*
X18173186Y775000D01*
X18173186Y350000D01*
X18180426Y276487D01*
X18201869Y205800D01*
X18236691Y140653D01*
X18283552Y83552D01*
X18340653Y36691D01*
X18405800Y1869D01*
X18411961Y0D01*
X18405800Y-1869D01*
X18340653Y-36691D01*
X18283552Y-83552D01*
X18236691Y-140653D01*
X18201869Y-205800D01*
X18180426Y-276487D01*
X18173186Y-350000D01*
X18173186Y-1350000D01*
X18180426Y-1423513D01*
X18201869Y-1494200D01*
X18236691Y-1559347D01*
X18283552Y-1616448D01*
X18340653Y-1663309D01*
X18405800Y-1698131D01*
X18476487Y-1719574D01*
X18550000Y-1726814D01*
X19742931Y-1726814D01*
X19986350Y-1970234D01*
X20005920Y-1994080D01*
X20029765Y-2013649D01*
X20029768Y-2013652D01*
X20101087Y-2072182D01*
X20101089Y-2072183D01*
X20209666Y-2130219D01*
X20327479Y-2165957D01*
X20419296Y-2175000D01*
X20419305Y-2175000D01*
X20449999Y-2178023D01*
X20480693Y-2175000D01*
X21651388Y-2175000D01*
X21655899Y-2189871D01*
X21713823Y-2298239D01*
X21791776Y-2393224D01*
X21886761Y-2471177D01*
X21995129Y-2529101D01*
X22112715Y-2564770D01*
X22235000Y-2576814D01*
X23485000Y-2576814D01*
X23607285Y-2564770D01*
X23724871Y-2529101D01*
X23833239Y-2471177D01*
X23928224Y-2393224D01*
X24006177Y-2298239D01*
X24064101Y-2189871D01*
X24099770Y-2072285D01*
X24111814Y-1950000D01*
X24111814Y-1150000D01*
X24148186Y-1150000D01*
X24148186Y-1950000D01*
X24160230Y-2072285D01*
X24195899Y-2189871D01*
X24253823Y-2298239D01*
X24331776Y-2393224D01*
X24426761Y-2471177D01*
X24535129Y-2529101D01*
X24652715Y-2564770D01*
X24775000Y-2576814D01*
X26025000Y-2576814D01*
X26147285Y-2564770D01*
X26264871Y-2529101D01*
X26373239Y-2471177D01*
X26468224Y-2393224D01*
X26546177Y-2298239D01*
X26604101Y-2189871D01*
X26608612Y-2175000D01*
X27769306Y-2175000D01*
X27800000Y-2178023D01*
X27830694Y-2175000D01*
X27830704Y-2175000D01*
X27922521Y-2165957D01*
X28040334Y-2130219D01*
X28148911Y-2072183D01*
X28244080Y-1994080D01*
X28263658Y-1970224D01*
X28507069Y-1726814D01*
X29700000Y-1726814D01*
X29773513Y-1719574D01*
X29844200Y-1698131D01*
X29909347Y-1663309D01*
X29966448Y-1616448D01*
X30013309Y-1559347D01*
X30048131Y-1494200D01*
X30069574Y-1423513D01*
X30076814Y-1350000D01*
X30076814Y-350000D01*
X30069574Y-276487D01*
X30048131Y-205800D01*
X30013309Y-140653D01*
X29966448Y-83552D01*
X29909347Y-36691D01*
X29844200Y-1869D01*
X29838039Y0D01*
X29844200Y1869D01*
X29909347Y36691D01*
X29966448Y83552D01*
X30013309Y140653D01*
X30048131Y205800D01*
X30069574Y276487D01*
X30076814Y350000D01*
X30076814Y775000D01*
X30531313Y775000D01*
X30583823Y676761D01*
X30661776Y581776D01*
X30756761Y503823D01*
X30865129Y445899D01*
X30982715Y410230D01*
X31105000Y398186D01*
X32355000Y398186D01*
X32477285Y410230D01*
X32594871Y445899D01*
X32703239Y503823D01*
X32798224Y581776D01*
X32876177Y676761D01*
X32934101Y785129D01*
X32969770Y902715D01*
X32973196Y937500D01*
X33032596Y937500D01*
X33040899Y910128D01*
X33098823Y801760D01*
X33176775Y706775D01*
X33271760Y628823D01*
X33380128Y570899D01*
X33497714Y535230D01*
X33619999Y523186D01*
X34920001Y523186D01*
X35042286Y535230D01*
X35159872Y570899D01*
X35268240Y628823D01*
X35363225Y706775D01*
X35441177Y801760D01*
X35499101Y910128D01*
X35507404Y937500D01*
X37599806Y937500D01*
X37630500Y934477D01*
X37661194Y937500D01*
X37661204Y937500D01*
X37753021Y946543D01*
X37870834Y982281D01*
X37979411Y1040317D01*
X38074580Y1118420D01*
X38094158Y1142276D01*
X39790236Y2838352D01*
X39814080Y2857920D01*
X39891717Y2952521D01*
X39892182Y2953087D01*
X39950218Y3061664D01*
X39952848Y3070334D01*
X39985957Y3179479D01*
X39995000Y3271296D01*
X39995000Y3271305D01*
X39998023Y3301999D01*
X39995000Y3332693D01*
X39995000Y5420573D01*
X40042285Y5425230D01*
X40159871Y5460899D01*
X40268239Y5518823D01*
X40363224Y5596776D01*
X40441177Y5691761D01*
X40499101Y5800129D01*
X40534770Y5917715D01*
X40546814Y6040000D01*
X40546814Y6465000D01*
X43908186Y6465000D01*
X43908186Y6040000D01*
X43920230Y5917715D01*
X43955899Y5800129D01*
X44013823Y5691761D01*
X44091776Y5596776D01*
X44186761Y5518823D01*
X44295129Y5460899D01*
X44412715Y5425230D01*
X44460001Y5420573D01*
X44460001Y4830884D01*
X39934776Y305658D01*
X39910920Y286080D01*
X39832817Y190910D01*
X39774781Y82333D01*
X39739043Y-35480D01*
X39730000Y-127297D01*
X39730000Y-127306D01*
X39726977Y-158000D01*
X39730000Y-188694D01*
X39730001Y-6564316D01*
X39574108Y-6668481D01*
X39403481Y-6839108D01*
X39269419Y-7039745D01*
X39177076Y-7262681D01*
X39130000Y-7499348D01*
X39130000Y-7740652D01*
X39177076Y-7977319D01*
X39269419Y-8200255D01*
X39403481Y-8400892D01*
X39574108Y-8571519D01*
X39774745Y-8705581D01*
X39997681Y-8797924D01*
X40234348Y-8845000D01*
X40475652Y-8845000D01*
X40712319Y-8797924D01*
X40935255Y-8705581D01*
X41135892Y-8571519D01*
X41306519Y-8400892D01*
X41440581Y-8200255D01*
X41532924Y-7977319D01*
X41560977Y-7836285D01*
X44514245Y-7836285D01*
X44523259Y-7881602D01*
X44597290Y-8110048D01*
X44714466Y-8319662D01*
X44870284Y-8502388D01*
X45058756Y-8651205D01*
X45272640Y-8760393D01*
X45503715Y-8825756D01*
X45695000Y-8750996D01*
X45695000Y-7645000D01*
X45745000Y-7645000D01*
X45745000Y-8750996D01*
X45936285Y-8825756D01*
X46167360Y-8760393D01*
X46381244Y-8651205D01*
X46569716Y-8502388D01*
X46725534Y-8319662D01*
X46842710Y-8110048D01*
X46916741Y-7881602D01*
X46925755Y-7836285D01*
X46850974Y-7645000D01*
X45745000Y-7645000D01*
X45695000Y-7645000D01*
X44589026Y-7645000D01*
X44514245Y-7836285D01*
X41560977Y-7836285D01*
X41580000Y-7740652D01*
X41580000Y-7499348D01*
X41560978Y-7403715D01*
X44514245Y-7403715D01*
X44589026Y-7595000D01*
X45695000Y-7595000D01*
X45695000Y-6489004D01*
X45745000Y-6489004D01*
X45745000Y-7595000D01*
X46850974Y-7595000D01*
X46888368Y-7499348D01*
X47035000Y-7499348D01*
X47035000Y-7740652D01*
X47082076Y-7977319D01*
X47174419Y-8200255D01*
X47308481Y-8400892D01*
X47479108Y-8571519D01*
X47679745Y-8705581D01*
X47902681Y-8797924D01*
X48139348Y-8845000D01*
X48380652Y-8845000D01*
X48617319Y-8797924D01*
X48840255Y-8705581D01*
X49040892Y-8571519D01*
X49211519Y-8400892D01*
X49345581Y-8200255D01*
X49437924Y-7977319D01*
X49485000Y-7740652D01*
X49485000Y-7499348D01*
X49437924Y-7262681D01*
X49345581Y-7039745D01*
X49211519Y-6839108D01*
X49040892Y-6668481D01*
X48840255Y-6534419D01*
X48617319Y-6442076D01*
X48380652Y-6395000D01*
X48139348Y-6395000D01*
X47902681Y-6442076D01*
X47679745Y-6534419D01*
X47479108Y-6668481D01*
X47308481Y-6839108D01*
X47174419Y-7039745D01*
X47082076Y-7262681D01*
X47035000Y-7499348D01*
X46888368Y-7499348D01*
X46925755Y-7403715D01*
X46916741Y-7358398D01*
X46842710Y-7129952D01*
X46725534Y-6920338D01*
X46569716Y-6737612D01*
X46381244Y-6588795D01*
X46167360Y-6479607D01*
X45936285Y-6414244D01*
X45745000Y-6489004D01*
X45695000Y-6489004D01*
X45503715Y-6414244D01*
X45272640Y-6479607D01*
X45058756Y-6588795D01*
X44870284Y-6737612D01*
X44714466Y-6920338D01*
X44597290Y-7129952D01*
X44523259Y-7358398D01*
X44514245Y-7403715D01*
X41560978Y-7403715D01*
X41532924Y-7262681D01*
X41440581Y-7039745D01*
X41306519Y-6839108D01*
X41135892Y-6668481D01*
X40980000Y-6564317D01*
X40980000Y-5296285D01*
X44514245Y-5296285D01*
X44523259Y-5341602D01*
X44597290Y-5570048D01*
X44714466Y-5779662D01*
X44870284Y-5962388D01*
X45058756Y-6111205D01*
X45272640Y-6220393D01*
X45503715Y-6285756D01*
X45695000Y-6210996D01*
X45695000Y-5105000D01*
X45745000Y-5105000D01*
X45745000Y-6210996D01*
X45936285Y-6285756D01*
X46167360Y-6220393D01*
X46381244Y-6111205D01*
X46569716Y-5962388D01*
X46725534Y-5779662D01*
X46842710Y-5570048D01*
X46916741Y-5341602D01*
X46925755Y-5296285D01*
X46850974Y-5105000D01*
X45745000Y-5105000D01*
X45695000Y-5105000D01*
X44589026Y-5105000D01*
X44514245Y-5296285D01*
X40980000Y-5296285D01*
X40980000Y-4863715D01*
X44514245Y-4863715D01*
X44589026Y-5055000D01*
X45695000Y-5055000D01*
X45695000Y-3949004D01*
X45745000Y-3949004D01*
X45745000Y-5055000D01*
X46850974Y-5055000D01*
X46888368Y-4959348D01*
X47035000Y-4959348D01*
X47035000Y-5200652D01*
X47082076Y-5437319D01*
X47174419Y-5660255D01*
X47308481Y-5860892D01*
X47479108Y-6031519D01*
X47679745Y-6165581D01*
X47902681Y-6257924D01*
X48139348Y-6305000D01*
X48380652Y-6305000D01*
X48617319Y-6257924D01*
X48840255Y-6165581D01*
X49040892Y-6031519D01*
X49211519Y-5860892D01*
X49345581Y-5660255D01*
X49437924Y-5437319D01*
X49485000Y-5200652D01*
X49485000Y-4959348D01*
X49437924Y-4722681D01*
X49345581Y-4499745D01*
X49211519Y-4299108D01*
X49040892Y-4128481D01*
X48840255Y-3994419D01*
X48617319Y-3902076D01*
X48380652Y-3855000D01*
X48139348Y-3855000D01*
X47902681Y-3902076D01*
X47679745Y-3994419D01*
X47479108Y-4128481D01*
X47308481Y-4299108D01*
X47174419Y-4499745D01*
X47082076Y-4722681D01*
X47035000Y-4959348D01*
X46888368Y-4959348D01*
X46925755Y-4863715D01*
X46916741Y-4818398D01*
X46842710Y-4589952D01*
X46725534Y-4380338D01*
X46569716Y-4197612D01*
X46381244Y-4048795D01*
X46167360Y-3939607D01*
X45936285Y-3874244D01*
X45745000Y-3949004D01*
X45695000Y-3949004D01*
X45503715Y-3874244D01*
X45272640Y-3939607D01*
X45058756Y-4048795D01*
X44870284Y-4197612D01*
X44714466Y-4380338D01*
X44597290Y-4589952D01*
X44523259Y-4818398D01*
X44514245Y-4863715D01*
X40980000Y-4863715D01*
X40980000Y-2756285D01*
X44514245Y-2756285D01*
X44523259Y-2801602D01*
X44597290Y-3030048D01*
X44714466Y-3239662D01*
X44870284Y-3422388D01*
X45058756Y-3571205D01*
X45272640Y-3680393D01*
X45503715Y-3745756D01*
X45695000Y-3670996D01*
X45695000Y-2565000D01*
X45745000Y-2565000D01*
X45745000Y-3670996D01*
X45936285Y-3745756D01*
X46167360Y-3680393D01*
X46381244Y-3571205D01*
X46569716Y-3422388D01*
X46725534Y-3239662D01*
X46842710Y-3030048D01*
X46916741Y-2801602D01*
X46925755Y-2756285D01*
X46850974Y-2565000D01*
X45745000Y-2565000D01*
X45695000Y-2565000D01*
X44589026Y-2565000D01*
X44514245Y-2756285D01*
X40980000Y-2756285D01*
X40980000Y-2323715D01*
X44514245Y-2323715D01*
X44589026Y-2515000D01*
X45695000Y-2515000D01*
X45695000Y-1409004D01*
X45745000Y-1409004D01*
X45745000Y-2515000D01*
X46850974Y-2515000D01*
X46888368Y-2419348D01*
X47035000Y-2419348D01*
X47035000Y-2660652D01*
X47082076Y-2897319D01*
X47174419Y-3120255D01*
X47308481Y-3320892D01*
X47479108Y-3491519D01*
X47679745Y-3625581D01*
X47902681Y-3717924D01*
X48139348Y-3765000D01*
X48380652Y-3765000D01*
X48617319Y-3717924D01*
X48840255Y-3625581D01*
X49040892Y-3491519D01*
X49211519Y-3320892D01*
X49345581Y-3120255D01*
X49437924Y-2897319D01*
X49485000Y-2660652D01*
X49485000Y-2419348D01*
X49437924Y-2182681D01*
X49345581Y-1959745D01*
X49211519Y-1759108D01*
X49040892Y-1588481D01*
X48840255Y-1454419D01*
X48617319Y-1362076D01*
X48380652Y-1315000D01*
X48139348Y-1315000D01*
X47902681Y-1362076D01*
X47679745Y-1454419D01*
X47479108Y-1588481D01*
X47308481Y-1759108D01*
X47174419Y-1959745D01*
X47082076Y-2182681D01*
X47035000Y-2419348D01*
X46888368Y-2419348D01*
X46925755Y-2323715D01*
X46916741Y-2278398D01*
X46842710Y-2049952D01*
X46725534Y-1840338D01*
X46569716Y-1657612D01*
X46381244Y-1508795D01*
X46167360Y-1399607D01*
X45936285Y-1334244D01*
X45745000Y-1409004D01*
X45695000Y-1409004D01*
X45503715Y-1334244D01*
X45272640Y-1399607D01*
X45058756Y-1508795D01*
X44870284Y-1657612D01*
X44714466Y-1840338D01*
X44597290Y-2049952D01*
X44523259Y-2278398D01*
X44514245Y-2323715D01*
X40980000Y-2323715D01*
X40980000Y-416882D01*
X41180597Y-216285D01*
X44514245Y-216285D01*
X44523259Y-261602D01*
X44597290Y-490048D01*
X44714466Y-699662D01*
X44870284Y-882388D01*
X45058756Y-1031205D01*
X45272640Y-1140393D01*
X45503715Y-1205756D01*
X45695000Y-1130996D01*
X45695000Y-25000D01*
X45745000Y-25000D01*
X45745000Y-1130996D01*
X45936285Y-1205756D01*
X46167360Y-1140393D01*
X46381244Y-1031205D01*
X46569716Y-882388D01*
X46725534Y-699662D01*
X46842710Y-490048D01*
X46916741Y-261602D01*
X46925755Y-216285D01*
X46850974Y-25000D01*
X45745000Y-25000D01*
X45695000Y-25000D01*
X44589026Y-25000D01*
X44514245Y-216285D01*
X41180597Y-216285D01*
X41613167Y216285D01*
X44514245Y216285D01*
X44589026Y25000D01*
X45695000Y25000D01*
X45695000Y1130996D01*
X45745000Y1130996D01*
X45745000Y25000D01*
X46850974Y25000D01*
X46925755Y216285D01*
X46916741Y261602D01*
X46842710Y490048D01*
X46725534Y699662D01*
X46597335Y850000D01*
X47033186Y850000D01*
X47033186Y-850000D01*
X47040426Y-923513D01*
X47061869Y-994200D01*
X47096691Y-1059347D01*
X47143552Y-1116448D01*
X47200653Y-1163309D01*
X47265800Y-1198131D01*
X47336487Y-1219574D01*
X47410000Y-1226814D01*
X49110000Y-1226814D01*
X49183513Y-1219574D01*
X49254200Y-1198131D01*
X49319347Y-1163309D01*
X49376448Y-1116448D01*
X49423309Y-1059347D01*
X49458131Y-994200D01*
X49479574Y-923513D01*
X49486814Y-850000D01*
X49486814Y850000D01*
X49479574Y923513D01*
X49458131Y994200D01*
X49423309Y1059347D01*
X49376448Y1116448D01*
X49319347Y1163309D01*
X49254200Y1198131D01*
X49183513Y1219574D01*
X49110000Y1226814D01*
X47410000Y1226814D01*
X47336487Y1219574D01*
X47265800Y1198131D01*
X47200653Y1163309D01*
X47143552Y1116448D01*
X47096691Y1059347D01*
X47061869Y994200D01*
X47040426Y923513D01*
X47033186Y850000D01*
X46597335Y850000D01*
X46569716Y882388D01*
X46381244Y1031205D01*
X46167360Y1140393D01*
X45936285Y1205756D01*
X45745000Y1130996D01*
X45695000Y1130996D01*
X45503715Y1205756D01*
X45272640Y1140393D01*
X45058756Y1031205D01*
X44870284Y882388D01*
X44714466Y699662D01*
X44597290Y490048D01*
X44523259Y261602D01*
X44514245Y216285D01*
X41613167Y216285D01*
X45505229Y4108346D01*
X45529080Y4127920D01*
X45568273Y4175677D01*
X45607182Y4223087D01*
X45665218Y4331664D01*
X45665219Y4331666D01*
X45700957Y4449479D01*
X45710000Y4541296D01*
X45710000Y4541305D01*
X45713023Y4571999D01*
X45710000Y4602693D01*
X45710000Y5420573D01*
X45757285Y5425230D01*
X45874871Y5460899D01*
X45983239Y5518823D01*
X46078224Y5596776D01*
X46156177Y5691761D01*
X46214101Y5800129D01*
X46249770Y5917715D01*
X46261814Y6040000D01*
X46261814Y8140000D01*
X46249770Y8262285D01*
X46214101Y8379871D01*
X46156177Y8488239D01*
X46078224Y8583224D01*
X45983239Y8661177D01*
X45874871Y8719101D01*
X45757285Y8754770D01*
X45635000Y8766814D01*
X44535000Y8766814D01*
X44412715Y8754770D01*
X44295129Y8719101D01*
X44186761Y8661177D01*
X44091776Y8583224D01*
X44013823Y8488239D01*
X43955899Y8379871D01*
X43920230Y8262285D01*
X43908186Y8140000D01*
X43908186Y7715000D01*
X40546814Y7715000D01*
X40546814Y8140000D01*
X40534770Y8262285D01*
X40499101Y8379871D01*
X40441177Y8488239D01*
X40363224Y8583224D01*
X40268239Y8661177D01*
X40159871Y8719101D01*
X40042285Y8754770D01*
X39920000Y8766814D01*
X38820000Y8766814D01*
X38697715Y8754770D01*
X38580129Y8719101D01*
X38471761Y8661177D01*
X38376776Y8583224D01*
X38298823Y8488239D01*
X38240899Y8379871D01*
X38205230Y8262285D01*
X38193186Y8140000D01*
X38193186Y6040000D01*
X38205230Y5917715D01*
X38240899Y5800129D01*
X38298823Y5691761D01*
X38376776Y5596776D01*
X38471761Y5518823D01*
X38580129Y5460899D01*
X38697715Y5425230D01*
X38745001Y5420573D01*
X38745000Y3560884D01*
X37371618Y2187500D01*
X35507404Y2187500D01*
X35499101Y2214872D01*
X35441177Y2323240D01*
X35363225Y2418225D01*
X35268240Y2496177D01*
X35159872Y2554101D01*
X35042286Y2589770D01*
X34920001Y2601814D01*
X33619999Y2601814D01*
X33497714Y2589770D01*
X33380128Y2554101D01*
X33271760Y2496177D01*
X33176775Y2418225D01*
X33098823Y2323240D01*
X33040899Y2214872D01*
X33032596Y2187500D01*
X32823439Y2187500D01*
X32798224Y2218224D01*
X32703239Y2296177D01*
X32594871Y2354101D01*
X32477285Y2389770D01*
X32355000Y2401814D01*
X31105000Y2401814D01*
X30982715Y2389770D01*
X30865129Y2354101D01*
X30756761Y2296177D01*
X30661776Y2218224D01*
X30583823Y2123239D01*
X30531313Y2025000D01*
X29080693Y2025000D01*
X29049999Y2028023D01*
X29019305Y2025000D01*
X29019296Y2025000D01*
X28927479Y2015957D01*
X28809666Y1980219D01*
X28809664Y1980218D01*
X28701087Y1922182D01*
X28629768Y1863652D01*
X28629765Y1863649D01*
X28605920Y1844080D01*
X28586350Y1820234D01*
X28492930Y1726814D01*
X27300000Y1726814D01*
X27226487Y1719574D01*
X27155800Y1698131D01*
X27090653Y1663309D01*
X27033552Y1616448D01*
X26986691Y1559347D01*
X26951869Y1494200D01*
X26930426Y1423513D01*
X26923186Y1350000D01*
X26923186Y350000D01*
X26930426Y276487D01*
X26951869Y205800D01*
X26986691Y140653D01*
X27033552Y83552D01*
X27090653Y36691D01*
X27155800Y1869D01*
X27161961Y0D01*
X27155800Y-1869D01*
X27090653Y-36691D01*
X27033552Y-83552D01*
X26986691Y-140653D01*
X26951869Y-205800D01*
X26930426Y-276487D01*
X26923186Y-350000D01*
X26923186Y-925000D01*
X26608612Y-925000D01*
X26604101Y-910129D01*
X26546177Y-801761D01*
X26468224Y-706776D01*
X26373239Y-628823D01*
X26264871Y-570899D01*
X26147285Y-535230D01*
X26025000Y-523186D01*
X24775000Y-523186D01*
X24652715Y-535230D01*
X24535129Y-570899D01*
X24426761Y-628823D01*
X24331776Y-706776D01*
X24253823Y-801761D01*
X24195899Y-910129D01*
X24160230Y-1027715D01*
X24148186Y-1150000D01*
X24111814Y-1150000D01*
X24099770Y-1027715D01*
X24064101Y-910129D01*
X24006177Y-801761D01*
X23928224Y-706776D01*
X23833239Y-628823D01*
X23724871Y-570899D01*
X23607285Y-535230D01*
X23485000Y-523186D01*
X22235000Y-523186D01*
X22112715Y-535230D01*
X21995129Y-570899D01*
X21886761Y-628823D01*
X21791776Y-706776D01*
X21713823Y-801761D01*
X21655899Y-910129D01*
X21651388Y-925000D01*
X21326814Y-925000D01*
X21326814Y-350000D01*
X21319574Y-276487D01*
X21298131Y-205800D01*
X21263309Y-140653D01*
X21216448Y-83552D01*
X21159347Y-36691D01*
X21094200Y-1869D01*
X21088039Y0D01*
X21094200Y1869D01*
X21159347Y36691D01*
X21216448Y83552D01*
X21263309Y140653D01*
X21298131Y205800D01*
X21319574Y276487D01*
X21326814Y350000D01*
X21326814Y1350000D01*
X21319574Y1423513D01*
X21298131Y1494200D01*
X21263309Y1559347D01*
X21216448Y1616448D01*
X21159347Y1663309D01*
X21094200Y1698131D01*
X21023513Y1719574D01*
X20950000Y1726814D01*
X19757068Y1726814D01*
X19663658Y1820224D01*
X19644080Y1844080D01*
X19548911Y1922183D01*
X19440334Y1980219D01*
X19322521Y2015957D01*
X19230704Y2025000D01*
X19230694Y2025000D01*
X19200000Y2028023D01*
X19169306Y2025000D01*
X17728687Y2025000D01*
X17676177Y2123239D01*
X17598224Y2218224D01*
X17503239Y2296177D01*
X17394871Y2354101D01*
X17277285Y2389770D01*
X17155000Y2401814D01*
X17155000Y2571118D01*
X17768883Y3185000D01*
X32354306Y3185000D01*
X32385000Y3181977D01*
X32415694Y3185000D01*
X32415704Y3185000D01*
X32507521Y3194043D01*
X32625334Y3229781D01*
X32733911Y3287817D01*
X32829080Y3365920D01*
X32848658Y3389776D01*
X34075230Y4616347D01*
X34099080Y4635920D01*
X34141000Y4687000D01*
X34177182Y4731087D01*
X34235218Y4839664D01*
X34259864Y4920911D01*
X34270957Y4957479D01*
X34280000Y5049296D01*
X34280000Y5049305D01*
X34283023Y5079999D01*
X34280000Y5110693D01*
X34280000Y5420573D01*
X34327285Y5425230D01*
X34444871Y5460899D01*
X34553239Y5518823D01*
X34648224Y5596776D01*
X34726177Y5691761D01*
X34784101Y5800129D01*
X34819770Y5917715D01*
X34831814Y6040000D01*
X34831814Y8140000D01*
X34819770Y8262285D01*
X34784101Y8379871D01*
X34726177Y8488239D01*
X34648224Y8583224D01*
X34553239Y8661177D01*
X34444871Y8719101D01*
X34327285Y8754770D01*
X34205000Y8766814D01*
X33105000Y8766814D01*
X32982715Y8754770D01*
X32865129Y8719101D01*
X32756761Y8661177D01*
X32661776Y8583224D01*
X32583823Y8488239D01*
X32525899Y8379871D01*
X32490230Y8262285D01*
X32478186Y8140000D01*
X32478186Y7840000D01*
X29116814Y7840000D01*
X29116814Y8140000D01*
X29104770Y8262285D01*
X29069101Y8379871D01*
X29011177Y8488239D01*
X28933224Y8583224D01*
X28838239Y8661177D01*
X28729871Y8719101D01*
X28612285Y8754770D01*
X28490000Y8766814D01*
X27390000Y8766814D01*
X27267715Y8754770D01*
X27150129Y8719101D01*
X27041761Y8661177D01*
X26946776Y8583224D01*
X26868823Y8488239D01*
X26810899Y8379871D01*
X26775230Y8262285D01*
X26763186Y8140000D01*
X26763186Y7715000D01*
X24900702Y7715000D01*
X24870000Y7718024D01*
X24839298Y7715000D01*
X24839296Y7715000D01*
X24747479Y7705957D01*
X24629666Y7670219D01*
X24579124Y7643204D01*
X24521088Y7612183D01*
X24449769Y7553653D01*
X24449765Y7553649D01*
X24425920Y7534080D01*
X24406350Y7510234D01*
X23363118Y6467000D01*
X18098883Y6467000D01*
X17673000Y6892882D01*
X17673000Y7492931D01*
X17766733Y7441023D01*
X17958114Y7379844D01*
X18157754Y7357178D01*
X18357980Y7373896D01*
X18551097Y7429353D01*
X18729684Y7521421D01*
X18755037Y7538362D01*
X18813532Y7706113D01*
X18173000Y8346645D01*
X18158858Y8332503D01*
X18123503Y8367858D01*
X18137645Y8382000D01*
X18208355Y8382000D01*
X18848887Y7741468D01*
X19016638Y7799963D01*
X19113977Y7975733D01*
X19175156Y8167114D01*
X19197822Y8366754D01*
X19181104Y8566980D01*
X19125647Y8760097D01*
X19033579Y8938684D01*
X19016638Y8964037D01*
X18848887Y9022532D01*
X18208355Y8382000D01*
X18137645Y8382000D01*
X18123503Y8396143D01*
X18158858Y8431498D01*
X18173000Y8417355D01*
X18813532Y9057887D01*
X18755037Y9225638D01*
X18579267Y9322977D01*
X18387886Y9384156D01*
X18188246Y9406822D01*
X17988020Y9390104D01*
X17794903Y9334647D01*
X17616316Y9242579D01*
X17590963Y9225638D01*
X17577295Y9186440D01*
X17561309Y9216347D01*
X17514448Y9273448D01*
X17457347Y9320309D01*
X17392200Y9355131D01*
X17321513Y9376574D01*
X17248000Y9383814D01*
X16848000Y9383814D01*
X16774487Y9376574D01*
X16723000Y9360955D01*
X16671513Y9376574D01*
X16598000Y9383814D01*
X16198000Y9383814D01*
X16124487Y9376574D01*
X16073000Y9360955D01*
X16021513Y9376574D01*
X15948000Y9383814D01*
X15548000Y9383814D01*
X15474487Y9376574D01*
X15423000Y9360955D01*
X15371513Y9376574D01*
X15298000Y9383814D01*
X14898000Y9383814D01*
X14824487Y9376574D01*
X14753800Y9355131D01*
X14688653Y9320309D01*
X14631552Y9273448D01*
X14584691Y9216347D01*
X14549869Y9151200D01*
X14528426Y9080513D01*
X14521186Y9007000D01*
X14521186Y7757000D01*
X14528426Y7683487D01*
X14549869Y7612800D01*
X14584691Y7547653D01*
X14631552Y7490552D01*
X14688653Y7443691D01*
X14753800Y7408869D01*
X14824487Y7387426D01*
X14898000Y7380186D01*
X15298000Y7380186D01*
X15371513Y7387426D01*
X15423000Y7403045D01*
X15474487Y7387426D01*
X15548000Y7380186D01*
X15948000Y7380186D01*
X16021513Y7387426D01*
X16073000Y7403045D01*
X16124487Y7387426D01*
X16198000Y7380186D01*
X16423001Y7380186D01*
X16423001Y6664704D01*
X16419977Y6634000D01*
X16423001Y6603296D01*
X16432044Y6511479D01*
X16467782Y6393666D01*
X16525818Y6285089D01*
X16603921Y6189920D01*
X16627772Y6170346D01*
X17376346Y5421771D01*
X17395920Y5397920D01*
X17419769Y5378348D01*
X17491087Y5319818D01*
X17491089Y5319817D01*
X17599666Y5261781D01*
X17717479Y5226043D01*
X17809296Y5217000D01*
X17809305Y5217000D01*
X17839999Y5213977D01*
X17870693Y5217000D01*
X23591306Y5217000D01*
X23622000Y5213977D01*
X23652694Y5217000D01*
X23652704Y5217000D01*
X23744521Y5226043D01*
X23862334Y5261781D01*
X23970911Y5319817D01*
X24066080Y5397920D01*
X24085658Y5421776D01*
X25128884Y6465000D01*
X26763186Y6465000D01*
X26763186Y6040000D01*
X26775230Y5917715D01*
X26810899Y5800129D01*
X26868823Y5691761D01*
X26946776Y5596776D01*
X27041761Y5518823D01*
X27150129Y5460899D01*
X27267715Y5425230D01*
X27390000Y5413186D01*
X28490000Y5413186D01*
X28612285Y5425230D01*
X28729871Y5460899D01*
X28838239Y5518823D01*
X28933224Y5596776D01*
X29011177Y5691761D01*
X29069101Y5800129D01*
X29104770Y5917715D01*
X29116814Y6040000D01*
X29116814Y6340000D01*
X32478186Y6340000D01*
X32478186Y6040000D01*
X32490230Y5917715D01*
X32525899Y5800129D01*
X32583823Y5691761D01*
X32661776Y5596776D01*
X32756761Y5518823D01*
X32865129Y5460899D01*
X32982715Y5425230D01*
X33030000Y5420573D01*
X33030000Y5338883D01*
X32126118Y4435000D01*
X17540693Y4435000D01*
X17509999Y4438023D01*
X17479305Y4435000D01*
X17479296Y4435000D01*
X17387479Y4425957D01*
X17269666Y4390219D01*
X17269664Y4390218D01*
X17161087Y4332182D01*
X17113677Y4293273D01*
X17065920Y4254080D01*
X17046347Y4230230D01*
X16109772Y3293654D01*
X16085921Y3274080D01*
X16014456Y3187000D01*
X16007818Y3178911D01*
X15949782Y3070334D01*
X15914044Y2952521D01*
X15901977Y2830000D01*
X15905001Y2799297D01*
X15905001Y2401814D01*
X15905000Y2401814D01*
X15782715Y2389770D01*
X15665129Y2354101D01*
X15556761Y2296177D01*
X15461776Y2218224D01*
X15436561Y2187500D01*
X15227404Y2187500D01*
X15219101Y2214872D01*
X15161177Y2323240D01*
X15083225Y2418225D01*
X14988240Y2496177D01*
X14879872Y2554101D01*
X14762286Y2589770D01*
X14640001Y2601814D01*
X13339999Y2601814D01*
X13217714Y2589770D01*
X13100128Y2554101D01*
X12991760Y2496177D01*
X12896775Y2418225D01*
X12818823Y2323240D01*
X12760899Y2214872D01*
X12752596Y2187500D01*
X12393193Y2187500D01*
X12362499Y2190523D01*
X12331805Y2187500D01*
X12331796Y2187500D01*
X12239979Y2178457D01*
X12122166Y2142719D01*
X12122164Y2142718D01*
X12013587Y2084682D01*
X11966177Y2045773D01*
X11918420Y2006580D01*
X11898847Y1982730D01*
X11579771Y1663653D01*
X11555921Y1644080D01*
X11536348Y1620230D01*
X11477818Y1548911D01*
X11419782Y1440334D01*
X11384044Y1322521D01*
X11371977Y1200000D01*
X11375001Y1169296D01*
X11375000Y-1244480D01*
X11361712Y-1228288D01*
X11328326Y-1200889D01*
X10908000Y-780564D01*
X10908000Y310186D01*
X10933000Y310186D01*
X11006513Y317426D01*
X11077200Y338869D01*
X11142347Y373691D01*
X11199448Y420552D01*
X11246309Y477653D01*
X11281131Y542800D01*
X11302574Y613487D01*
X11309814Y687000D01*
X11309814Y3187000D01*
X11302574Y3260513D01*
X11281131Y3331200D01*
X11246309Y3396347D01*
X11199448Y3453448D01*
X11142347Y3500309D01*
X11077200Y3535131D01*
X11006513Y3556574D01*
X10933000Y3563814D01*
X9133000Y3563814D01*
X9059487Y3556574D01*
X8988800Y3535131D01*
X8923653Y3500309D01*
X8866552Y3453448D01*
X8819691Y3396347D01*
X8784869Y3331200D01*
X8763426Y3260513D01*
X8756186Y3187000D01*
X8756186Y687000D01*
X8763426Y613487D01*
X8784869Y542800D01*
X8819691Y477653D01*
X8866552Y420552D01*
X8923653Y373691D01*
X8988800Y338869D01*
X9059487Y317426D01*
X9133000Y310186D01*
X9158001Y310186D01*
X9158001Y-1100011D01*
X9153767Y-1143000D01*
X9170661Y-1314529D01*
X9220695Y-1479467D01*
X9220696Y-1479468D01*
X9301945Y-1631476D01*
X9411289Y-1764712D01*
X9444676Y-1792112D01*
X9865000Y-2212437D01*
X9865001Y-4222588D01*
X9788481Y-4299108D01*
X9654419Y-4499745D01*
X9562076Y-4722681D01*
X9515000Y-4959348D01*
X9515000Y-5200652D01*
X9562076Y-5437319D01*
X9654419Y-5660255D01*
X9788481Y-5860892D01*
X9959108Y-6031519D01*
X10159745Y-6165581D01*
X10382681Y-6257924D01*
X10619348Y-6305000D01*
X10860652Y-6305000D01*
X11097319Y-6257924D01*
X11320255Y-6165581D01*
X11520892Y-6031519D01*
X11691519Y-5860892D01*
X11825581Y-5660255D01*
X11917924Y-5437319D01*
X11965000Y-5200652D01*
X11965000Y-4959348D01*
X11917924Y-4722681D01*
X11825581Y-4499745D01*
X11691519Y-4299108D01*
X11615000Y-4222589D01*
X11615000Y-2973882D01*
X12655000Y-4013883D01*
X12655001Y-6564316D01*
X12499108Y-6668481D01*
X12328481Y-6839108D01*
X12194419Y-7039745D01*
X12102076Y-7262681D01*
X12055000Y-7499348D01*
X12055000Y-7740652D01*
X12102076Y-7977319D01*
X12194419Y-8200255D01*
X12328481Y-8400892D01*
X12499108Y-8571519D01*
X12699745Y-8705581D01*
X12922681Y-8797924D01*
X13159348Y-8845000D01*
X13400652Y-8845000D01*
X13637319Y-8797924D01*
X13860255Y-8705581D01*
X14060892Y-8571519D01*
X14231519Y-8400892D01*
X14272501Y-8339559D01*
X14272500Y-10192596D01*
X14245128Y-10200899D01*
X14136760Y-10258823D01*
X14041775Y-10336775D01*
X13963823Y-10431760D01*
X13905899Y-10540128D01*
X13870230Y-10657714D01*
X13858186Y-10779999D01*
X13858186Y-12080001D01*
X13870230Y-12202286D01*
X13905899Y-12319872D01*
X13963823Y-12428240D01*
X14041775Y-12523225D01*
X14136760Y-12601177D01*
X14245128Y-12659101D01*
X14362714Y-12694770D01*
X14484999Y-12706814D01*
X15310001Y-12706814D01*
X15432286Y-12694770D01*
X15549872Y-12659101D01*
X15658240Y-12601177D01*
X15753225Y-12523225D01*
X15831177Y-12428240D01*
X15889101Y-12319872D01*
X15916771Y-12228654D01*
X16623117Y-12935000D01*
X-469314Y-12935000D01*
X-2140000Y-11264315D01*
X-2140000Y-7836285D01*
X-1205755Y-7836285D01*
X-1196741Y-7881602D01*
X-1122710Y-8110048D01*
X-1005534Y-8319662D01*
X-849716Y-8502388D01*
X-661244Y-8651205D01*
X-447360Y-8760393D01*
X-216285Y-8825756D01*
X-25000Y-8750996D01*
X-25000Y-7645000D01*
X25000Y-7645000D01*
X25000Y-8750996D01*
X216285Y-8825756D01*
X447360Y-8760393D01*
X661244Y-8651205D01*
X849716Y-8502388D01*
X1005534Y-8319662D01*
X1122710Y-8110048D01*
X1196741Y-7881602D01*
X1205755Y-7836285D01*
X1130974Y-7645000D01*
X25000Y-7645000D01*
X-25000Y-7645000D01*
X-1130974Y-7645000D01*
X-1205755Y-7836285D01*
X-2140000Y-7836285D01*
X-2140000Y-7403715D01*
X-1205755Y-7403715D01*
X-1130974Y-7595000D01*
X-25000Y-7595000D01*
X-25000Y-6489004D01*
X25000Y-6489004D01*
X25000Y-7595000D01*
X1130974Y-7595000D01*
X1168368Y-7499348D01*
X1315000Y-7499348D01*
X1315000Y-7740652D01*
X1362076Y-7977319D01*
X1454419Y-8200255D01*
X1588481Y-8400892D01*
X1759108Y-8571519D01*
X1959745Y-8705581D01*
X2182681Y-8797924D01*
X2419348Y-8845000D01*
X2660652Y-8845000D01*
X2897319Y-8797924D01*
X3120255Y-8705581D01*
X3320892Y-8571519D01*
X3491519Y-8400892D01*
X3625581Y-8200255D01*
X3717924Y-7977319D01*
X3765000Y-7740652D01*
X3765000Y-7499348D01*
X3717924Y-7262681D01*
X3625581Y-7039745D01*
X3491519Y-6839108D01*
X3422411Y-6770000D01*
X6973186Y-6770000D01*
X6973186Y-8470000D01*
X6980426Y-8543513D01*
X7001869Y-8614200D01*
X7036691Y-8679347D01*
X7083552Y-8736448D01*
X7140653Y-8783309D01*
X7205800Y-8818131D01*
X7276487Y-8839574D01*
X7350000Y-8846814D01*
X9050000Y-8846814D01*
X9123513Y-8839574D01*
X9194200Y-8818131D01*
X9259347Y-8783309D01*
X9316448Y-8736448D01*
X9363309Y-8679347D01*
X9398131Y-8614200D01*
X9419574Y-8543513D01*
X9426814Y-8470000D01*
X9426814Y-7499348D01*
X9515000Y-7499348D01*
X9515000Y-7740652D01*
X9562076Y-7977319D01*
X9654419Y-8200255D01*
X9788481Y-8400892D01*
X9959108Y-8571519D01*
X10159745Y-8705581D01*
X10382681Y-8797924D01*
X10619348Y-8845000D01*
X10860652Y-8845000D01*
X11097319Y-8797924D01*
X11320255Y-8705581D01*
X11520892Y-8571519D01*
X11691519Y-8400892D01*
X11825581Y-8200255D01*
X11917924Y-7977319D01*
X11965000Y-7740652D01*
X11965000Y-7499348D01*
X11917924Y-7262681D01*
X11825581Y-7039745D01*
X11691519Y-6839108D01*
X11520892Y-6668481D01*
X11320255Y-6534419D01*
X11097319Y-6442076D01*
X10860652Y-6395000D01*
X10619348Y-6395000D01*
X10382681Y-6442076D01*
X10159745Y-6534419D01*
X9959108Y-6668481D01*
X9788481Y-6839108D01*
X9654419Y-7039745D01*
X9562076Y-7262681D01*
X9515000Y-7499348D01*
X9426814Y-7499348D01*
X9426814Y-6770000D01*
X9419574Y-6696487D01*
X9398131Y-6625800D01*
X9363309Y-6560653D01*
X9316448Y-6503552D01*
X9259347Y-6456691D01*
X9194200Y-6421869D01*
X9123513Y-6400426D01*
X9050000Y-6393186D01*
X7350000Y-6393186D01*
X7276487Y-6400426D01*
X7205800Y-6421869D01*
X7140653Y-6456691D01*
X7083552Y-6503552D01*
X7036691Y-6560653D01*
X7001869Y-6625800D01*
X6980426Y-6696487D01*
X6973186Y-6770000D01*
X3422411Y-6770000D01*
X3320892Y-6668481D01*
X3120255Y-6534419D01*
X2897319Y-6442076D01*
X2660652Y-6395000D01*
X2419348Y-6395000D01*
X2182681Y-6442076D01*
X1959745Y-6534419D01*
X1759108Y-6668481D01*
X1588481Y-6839108D01*
X1454419Y-7039745D01*
X1362076Y-7262681D01*
X1315000Y-7499348D01*
X1168368Y-7499348D01*
X1205755Y-7403715D01*
X1196741Y-7358398D01*
X1122710Y-7129952D01*
X1005534Y-6920338D01*
X849716Y-6737612D01*
X661244Y-6588795D01*
X447360Y-6479607D01*
X216285Y-6414244D01*
X25000Y-6489004D01*
X-25000Y-6489004D01*
X-216285Y-6414244D01*
X-447360Y-6479607D01*
X-661244Y-6588795D01*
X-849716Y-6737612D01*
X-1005534Y-6920338D01*
X-1122710Y-7129952D01*
X-1196741Y-7358398D01*
X-1205755Y-7403715D01*
X-2140000Y-7403715D01*
X-2140000Y-5296285D01*
X-1205755Y-5296285D01*
X-1196741Y-5341602D01*
X-1122710Y-5570048D01*
X-1005534Y-5779662D01*
X-849716Y-5962388D01*
X-661244Y-6111205D01*
X-447360Y-6220393D01*
X-216285Y-6285756D01*
X-25000Y-6210996D01*
X-25000Y-5105000D01*
X25000Y-5105000D01*
X25000Y-6210996D01*
X216285Y-6285756D01*
X447360Y-6220393D01*
X661244Y-6111205D01*
X849716Y-5962388D01*
X1005534Y-5779662D01*
X1122710Y-5570048D01*
X1196741Y-5341602D01*
X1205755Y-5296285D01*
X1130974Y-5105000D01*
X25000Y-5105000D01*
X-25000Y-5105000D01*
X-1130974Y-5105000D01*
X-1205755Y-5296285D01*
X-2140000Y-5296285D01*
X-2140000Y-4863715D01*
X-1205755Y-4863715D01*
X-1130974Y-5055000D01*
X-25000Y-5055000D01*
X-25000Y-3949004D01*
X25000Y-3949004D01*
X25000Y-5055000D01*
X1130974Y-5055000D01*
X1168368Y-4959348D01*
X1315000Y-4959348D01*
X1315000Y-5200652D01*
X1362076Y-5437319D01*
X1454419Y-5660255D01*
X1588481Y-5860892D01*
X1759108Y-6031519D01*
X1959745Y-6165581D01*
X2182681Y-6257924D01*
X2419348Y-6305000D01*
X2660652Y-6305000D01*
X2897319Y-6257924D01*
X3120255Y-6165581D01*
X3320892Y-6031519D01*
X3491519Y-5860892D01*
X3625581Y-5660255D01*
X3717924Y-5437319D01*
X3765000Y-5200652D01*
X3765000Y-4959348D01*
X3717924Y-4722681D01*
X3625581Y-4499745D01*
X3491519Y-4299108D01*
X3320892Y-4128481D01*
X3120255Y-3994419D01*
X2897319Y-3902076D01*
X2660652Y-3855000D01*
X2419348Y-3855000D01*
X2182681Y-3902076D01*
X1959745Y-3994419D01*
X1759108Y-4128481D01*
X1588481Y-4299108D01*
X1454419Y-4499745D01*
X1362076Y-4722681D01*
X1315000Y-4959348D01*
X1168368Y-4959348D01*
X1205755Y-4863715D01*
X1196741Y-4818398D01*
X1122710Y-4589952D01*
X1005534Y-4380338D01*
X849716Y-4197612D01*
X661244Y-4048795D01*
X447360Y-3939607D01*
X216285Y-3874244D01*
X25000Y-3949004D01*
X-25000Y-3949004D01*
X-216285Y-3874244D01*
X-447360Y-3939607D01*
X-661244Y-4048795D01*
X-849716Y-4197612D01*
X-1005534Y-4380338D01*
X-1122710Y-4589952D01*
X-1196741Y-4818398D01*
X-1205755Y-4863715D01*
X-2140000Y-4863715D01*
X-2140000Y-2756285D01*
X-1205755Y-2756285D01*
X-1196741Y-2801602D01*
X-1122710Y-3030048D01*
X-1005534Y-3239662D01*
X-849716Y-3422388D01*
X-661244Y-3571205D01*
X-447360Y-3680393D01*
X-216285Y-3745756D01*
X-25000Y-3670996D01*
X-25000Y-2565000D01*
X25000Y-2565000D01*
X25000Y-3670996D01*
X216285Y-3745756D01*
X447360Y-3680393D01*
X661244Y-3571205D01*
X849716Y-3422388D01*
X1005534Y-3239662D01*
X1122710Y-3030048D01*
X1196741Y-2801602D01*
X1205755Y-2756285D01*
X1130974Y-2565000D01*
X25000Y-2565000D01*
X-25000Y-2565000D01*
X-1130974Y-2565000D01*
X-1205755Y-2756285D01*
X-2140000Y-2756285D01*
X-2140000Y-2323715D01*
X-1205755Y-2323715D01*
X-1130974Y-2515000D01*
X-25000Y-2515000D01*
X-25000Y-1409004D01*
X25000Y-1409004D01*
X25000Y-2515000D01*
X1130974Y-2515000D01*
X1168368Y-2419348D01*
X1315000Y-2419348D01*
X1315000Y-2660652D01*
X1362076Y-2897319D01*
X1454419Y-3120255D01*
X1588481Y-3320892D01*
X1759108Y-3491519D01*
X1959745Y-3625581D01*
X2182681Y-3717924D01*
X2419348Y-3765000D01*
X2660652Y-3765000D01*
X2897319Y-3717924D01*
X3120255Y-3625581D01*
X3320892Y-3491519D01*
X3491519Y-3320892D01*
X3625581Y-3120255D01*
X3717924Y-2897319D01*
X3765000Y-2660652D01*
X3765000Y-2419348D01*
X3717924Y-2182681D01*
X3625581Y-1959745D01*
X3491519Y-1759108D01*
X3320892Y-1588481D01*
X3120255Y-1454419D01*
X2897319Y-1362076D01*
X2660652Y-1315000D01*
X2419348Y-1315000D01*
X2182681Y-1362076D01*
X1959745Y-1454419D01*
X1759108Y-1588481D01*
X1588481Y-1759108D01*
X1454419Y-1959745D01*
X1362076Y-2182681D01*
X1315000Y-2419348D01*
X1168368Y-2419348D01*
X1205755Y-2323715D01*
X1196741Y-2278398D01*
X1122710Y-2049952D01*
X1005534Y-1840338D01*
X849716Y-1657612D01*
X661244Y-1508795D01*
X447360Y-1399607D01*
X216285Y-1334244D01*
X25000Y-1409004D01*
X-25000Y-1409004D01*
X-216285Y-1334244D01*
X-447360Y-1399607D01*
X-661244Y-1508795D01*
X-849716Y-1657612D01*
X-1005534Y-1840338D01*
X-1122710Y-2049952D01*
X-1196741Y-2278398D01*
X-1205755Y-2323715D01*
X-2140000Y-2323715D01*
X-2140000Y-216285D01*
X-1205755Y-216285D01*
X-1196741Y-261602D01*
X-1122710Y-490048D01*
X-1005534Y-699662D01*
X-849716Y-882388D01*
X-661244Y-1031205D01*
X-447360Y-1140393D01*
X-216285Y-1205756D01*
X-25000Y-1130996D01*
X-25000Y-25000D01*
X25000Y-25000D01*
X25000Y-1130996D01*
X216285Y-1205756D01*
X447360Y-1140393D01*
X661244Y-1031205D01*
X849716Y-882388D01*
X1005534Y-699662D01*
X1122710Y-490048D01*
X1196741Y-261602D01*
X1205755Y-216285D01*
X1130974Y-25000D01*
X25000Y-25000D01*
X-25000Y-25000D01*
X-1130974Y-25000D01*
X-1205755Y-216285D01*
X-2140000Y-216285D01*
X-2140000Y216285D01*
X-1205755Y216285D01*
X-1130974Y25000D01*
X-25000Y25000D01*
X-25000Y1130996D01*
X25000Y1130996D01*
X25000Y25000D01*
X1130974Y25000D01*
X1205755Y216285D01*
X1196741Y261602D01*
X1122710Y490048D01*
X1005534Y699662D01*
X877335Y850000D01*
X1313186Y850000D01*
X1313186Y-850000D01*
X1320426Y-923513D01*
X1341869Y-994200D01*
X1376691Y-1059347D01*
X1423552Y-1116448D01*
X1480653Y-1163309D01*
X1545800Y-1198131D01*
X1616487Y-1219574D01*
X1690000Y-1226814D01*
X3390000Y-1226814D01*
X3463513Y-1219574D01*
X3534200Y-1198131D01*
X3599347Y-1163309D01*
X3656448Y-1116448D01*
X3703309Y-1059347D01*
X3738131Y-994200D01*
X3759574Y-923513D01*
X3766814Y-850000D01*
X3766814Y850000D01*
X3759574Y923513D01*
X3738131Y994200D01*
X3703309Y1059347D01*
X3656448Y1116448D01*
X3599347Y1163309D01*
X3534200Y1198131D01*
X3463513Y1219574D01*
X3390000Y1226814D01*
X1690000Y1226814D01*
X1616487Y1219574D01*
X1545800Y1198131D01*
X1480653Y1163309D01*
X1423552Y1116448D01*
X1376691Y1059347D01*
X1341869Y994200D01*
X1320426Y923513D01*
X1313186Y850000D01*
X877335Y850000D01*
X849716Y882388D01*
X661244Y1031205D01*
X447360Y1140393D01*
X216285Y1205756D01*
X25000Y1130996D01*
X-25000Y1130996D01*
X-216285Y1205756D01*
X-447360Y1140393D01*
X-661244Y1031205D01*
X-849716Y882388D01*
X-1005534Y699662D01*
X-1122710Y490048D01*
X-1196741Y261602D01*
X-1205755Y216285D01*
X-2140000Y216285D01*
X-2140000Y7023087D01*
X53443Y7023087D01*
X196495Y6783144D01*
X492096Y6615570D01*
X814709Y6508885D01*
X1151937Y6467188D01*
X1490820Y6492083D01*
X1818334Y6582611D01*
X2121893Y6735295D01*
X2193505Y6783144D01*
X2336557Y7023087D01*
X1195000Y8164645D01*
X53443Y7023087D01*
X-2140000Y7023087D01*
X-2140000Y8243063D01*
X-537812Y8243063D01*
X-512917Y7904180D01*
X-422389Y7576666D01*
X-269705Y7273107D01*
X-221856Y7201495D01*
X18087Y7058443D01*
X1159645Y8200000D01*
X1230355Y8200000D01*
X2371913Y7058443D01*
X2611856Y7201495D01*
X2779430Y7497096D01*
X2886115Y7819709D01*
X2927812Y8156937D01*
X2902917Y8495820D01*
X2812389Y8823334D01*
X2659705Y9126893D01*
X2611856Y9198505D01*
X2371913Y9341557D01*
X1230355Y8200000D01*
X1159645Y8200000D01*
X18087Y9341557D01*
X-221856Y9198505D01*
X-389430Y8902904D01*
X-496115Y8580291D01*
X-537812Y8243063D01*
X-2140000Y8243063D01*
X-2140000Y9376913D01*
X53443Y9376913D01*
X1195000Y8235355D01*
X2336557Y9376913D01*
X2248269Y9525000D01*
X3054000Y9525000D01*
X3054000Y6985000D01*
X3061206Y6911841D01*
X3082545Y6841494D01*
X3117199Y6776661D01*
X3163835Y6719835D01*
X3671835Y6211835D01*
X3728661Y6165199D01*
X3793494Y6130545D01*
X3863841Y6109206D01*
X3937000Y6102000D01*
X6067670Y6102000D01*
X8116835Y4052835D01*
X8173661Y4006199D01*
X8238494Y3971545D01*
X8308841Y3950206D01*
X8382000Y3943000D01*
X11176000Y3943000D01*
X11249159Y3950206D01*
X11319506Y3971545D01*
X11384339Y4006199D01*
X11441165Y4052835D01*
X11822165Y4433835D01*
X11868801Y4490661D01*
X11903455Y4555494D01*
X11924794Y4625841D01*
X11932000Y4699000D01*
X11932000Y7706113D01*
X12682468Y7706113D01*
X12740963Y7538362D01*
X12916733Y7441023D01*
X13108114Y7379844D01*
X13307754Y7357178D01*
X13507980Y7373896D01*
X13701097Y7429353D01*
X13879684Y7521421D01*
X13905037Y7538362D01*
X13963532Y7706113D01*
X13323000Y8346645D01*
X12682468Y7706113D01*
X11932000Y7706113D01*
X11932000Y8255000D01*
X11917183Y8359369D01*
X11902046Y8397246D01*
X12298178Y8397246D01*
X12314896Y8197020D01*
X12370353Y8003903D01*
X12462421Y7825316D01*
X12479362Y7799963D01*
X12647113Y7741468D01*
X13287645Y8382000D01*
X13358355Y8382000D01*
X13998887Y7741468D01*
X14166638Y7799963D01*
X14263977Y7975733D01*
X14325156Y8167114D01*
X14347822Y8366754D01*
X14331104Y8566980D01*
X14275647Y8760097D01*
X14183579Y8938684D01*
X14166638Y8964037D01*
X13998887Y9022532D01*
X13358355Y8382000D01*
X13287645Y8382000D01*
X12647113Y9022532D01*
X12479362Y8964037D01*
X12382023Y8788267D01*
X12320844Y8596886D01*
X12298178Y8397246D01*
X11902046Y8397246D01*
X11889901Y8427632D01*
X11849826Y8489261D01*
X11394926Y9057887D01*
X12682468Y9057887D01*
X13323000Y8417355D01*
X13963532Y9057887D01*
X13905037Y9225638D01*
X13729267Y9322977D01*
X13537886Y9384156D01*
X13338246Y9406822D01*
X13138020Y9390104D01*
X12944903Y9334647D01*
X12766316Y9242579D01*
X12740963Y9225638D01*
X12682468Y9057887D01*
X11394926Y9057887D01*
X11341826Y9124261D01*
X11314165Y9155165D01*
X11257339Y9201801D01*
X11192506Y9236455D01*
X11122159Y9257794D01*
X11049000Y9265000D01*
X7140330Y9265000D01*
X6361165Y10044165D01*
X6304339Y10090801D01*
X6239506Y10125455D01*
X6169159Y10146794D01*
X6096000Y10154000D01*
X3683000Y10154000D01*
X3609841Y10146794D01*
X3539494Y10125455D01*
X3474661Y10090801D01*
X3417835Y10044165D01*
X3163835Y9790165D01*
X3117199Y9733339D01*
X3082545Y9668506D01*
X3061206Y9598159D01*
X3054000Y9525000D01*
X2248269Y9525000D01*
X2193505Y9616856D01*
X1897904Y9784430D01*
X1575291Y9891115D01*
X1238063Y9932812D01*
X899180Y9907917D01*
X571666Y9817389D01*
X268107Y9664705D01*
X196495Y9616856D01*
X53443Y9376913D01*
X-2140000Y9376913D01*
X-2140000Y11157000D01*
X11223000Y11157000D01*
X11223000Y10807000D01*
X11245651Y10627022D01*
X11302979Y10454921D01*
X11392780Y10297311D01*
X11511604Y10160249D01*
X11654884Y10049002D01*
X11817114Y9967845D01*
X11978659Y9922633D01*
X12123000Y10001126D01*
X12123000Y11157000D01*
X12173000Y11157000D01*
X12173000Y10001126D01*
X12317341Y9922633D01*
X12478886Y9967845D01*
X12641116Y10049002D01*
X12784396Y10160249D01*
X12903220Y10297311D01*
X12993021Y10454921D01*
X13050349Y10627022D01*
X13073000Y10807000D01*
X13073000Y11157000D01*
X18423000Y11157000D01*
X18423000Y10807000D01*
X18445651Y10627022D01*
X18502979Y10454921D01*
X18592780Y10297311D01*
X18711604Y10160249D01*
X18854884Y10049002D01*
X19017114Y9967845D01*
X19178659Y9922633D01*
X19323000Y10001126D01*
X19323000Y11157000D01*
X19373000Y11157000D01*
X19373000Y10001126D01*
X19517341Y9922633D01*
X19678886Y9967845D01*
X19841116Y10049002D01*
X19984396Y10160249D01*
X20103220Y10297311D01*
X20193021Y10454921D01*
X20250349Y10627022D01*
X20273000Y10807000D01*
X20273000Y11157000D01*
X19373000Y11157000D01*
X19323000Y11157000D01*
X18423000Y11157000D01*
X13073000Y11157000D01*
X12173000Y11157000D01*
X12123000Y11157000D01*
X11223000Y11157000D01*
X-2140000Y11157000D01*
X-2140000Y11557000D01*
X11223000Y11557000D01*
X11223000Y11207000D01*
X12123000Y11207000D01*
X12123000Y12362874D01*
X12173000Y12362874D01*
X12173000Y11207000D01*
X13073000Y11207000D01*
X13073000Y11557000D01*
X18423000Y11557000D01*
X18423000Y11207000D01*
X19323000Y11207000D01*
X19323000Y12362874D01*
X19373000Y12362874D01*
X19373000Y11207000D01*
X20273000Y11207000D01*
X20273000Y11557000D01*
X20250349Y11736978D01*
X20193021Y11909079D01*
X20103220Y12066689D01*
X19984396Y12203751D01*
X19841116Y12314998D01*
X19678886Y12396155D01*
X19517341Y12441367D01*
X19373000Y12362874D01*
X19323000Y12362874D01*
X19178659Y12441367D01*
X19017114Y12396155D01*
X18854884Y12314998D01*
X18711604Y12203751D01*
X18592780Y12066689D01*
X18502979Y11909079D01*
X18445651Y11736978D01*
X18423000Y11557000D01*
X13073000Y11557000D01*
X13050349Y11736978D01*
X12993021Y11909079D01*
X12903220Y12066689D01*
X12784396Y12203751D01*
X12641116Y12314998D01*
X12478886Y12396155D01*
X12317341Y12441367D01*
X12173000Y12362874D01*
X12123000Y12362874D01*
X11978659Y12441367D01*
X11817114Y12396155D01*
X11654884Y12314998D01*
X11511604Y12203751D01*
X11392780Y12066689D01*
X11302979Y11909079D01*
X11245651Y11736978D01*
X11223000Y11557000D01*
X-2140000Y11557000D01*
X-2140000Y13550315D01*
X673686Y16364000D01*
X5676315Y16364000D01*
X9101737Y12938578D01*
G37*
%TD.AperFunction*%
%TD*%
D24*
%TO.N,Net-(F1-Pad2)*%
X23751000Y-5385776D02*
X23751000Y-8838224D01*
X23316224Y-9273000D01*
X21590000Y-9273000D01*
X21565614Y-9275402D01*
X21542165Y-9282515D01*
X21520554Y-9294066D01*
X21501612Y-9309612D01*
X21247612Y-9563612D01*
X21232066Y-9582554D01*
X21220515Y-9604165D01*
X21213402Y-9627614D01*
X21211000Y-9652000D01*
X21211000Y-11813000D01*
X19429000Y-11813000D01*
X19429000Y-9652000D01*
X19426598Y-9627614D01*
X19419485Y-9604165D01*
X19407934Y-9582554D01*
X19392388Y-9563612D01*
X19138388Y-9309612D01*
X19119446Y-9294066D01*
X19097835Y-9282515D01*
X19074386Y-9275402D01*
X19050000Y-9273000D01*
X17323776Y-9273000D01*
X16889000Y-8838224D01*
X16889000Y-5385776D01*
X17831776Y-4443000D01*
X22808224Y-4443000D01*
X23751000Y-5385776D01*
%TA.AperFunction,Conductor*%
D25*
G36*
X23751000Y-5385776D02*
G01*
X23751000Y-8838224D01*
X23316224Y-9273000D01*
X21590000Y-9273000D01*
X21565614Y-9275402D01*
X21542165Y-9282515D01*
X21520554Y-9294066D01*
X21501612Y-9309612D01*
X21247612Y-9563612D01*
X21232066Y-9582554D01*
X21220515Y-9604165D01*
X21213402Y-9627614D01*
X21211000Y-9652000D01*
X21211000Y-11813000D01*
X19429000Y-11813000D01*
X19429000Y-9652000D01*
X19426598Y-9627614D01*
X19419485Y-9604165D01*
X19407934Y-9582554D01*
X19392388Y-9563612D01*
X19138388Y-9309612D01*
X19119446Y-9294066D01*
X19097835Y-9282515D01*
X19074386Y-9275402D01*
X19050000Y-9273000D01*
X17323776Y-9273000D01*
X16889000Y-8838224D01*
X16889000Y-5385776D01*
X17831776Y-4443000D01*
X22808224Y-4443000D01*
X23751000Y-5385776D01*
G37*
%TD.AperFunction*%
%TD*%
D24*
%TO.N,Net-(F2-Pad2)*%
X31371000Y-5385776D02*
X31371000Y-8838224D01*
X30936224Y-9273000D01*
X29210000Y-9273000D01*
X29185614Y-9275402D01*
X29162165Y-9282515D01*
X29140554Y-9294066D01*
X29121612Y-9309612D01*
X28867612Y-9563612D01*
X28852066Y-9582554D01*
X28840515Y-9604165D01*
X28833402Y-9627614D01*
X28831000Y-9652000D01*
X28831000Y-11813000D01*
X27049000Y-11813000D01*
X27049000Y-9652000D01*
X27046598Y-9627614D01*
X27039485Y-9604165D01*
X27027934Y-9582554D01*
X27012388Y-9563612D01*
X26758388Y-9309612D01*
X26739446Y-9294066D01*
X26717835Y-9282515D01*
X26694386Y-9275402D01*
X26670000Y-9273000D01*
X24943776Y-9273000D01*
X24509000Y-8838224D01*
X24509000Y-5385776D01*
X25451776Y-4443000D01*
X30428224Y-4443000D01*
X31371000Y-5385776D01*
%TA.AperFunction,Conductor*%
D25*
G36*
X31371000Y-5385776D02*
G01*
X31371000Y-8838224D01*
X30936224Y-9273000D01*
X29210000Y-9273000D01*
X29185614Y-9275402D01*
X29162165Y-9282515D01*
X29140554Y-9294066D01*
X29121612Y-9309612D01*
X28867612Y-9563612D01*
X28852066Y-9582554D01*
X28840515Y-9604165D01*
X28833402Y-9627614D01*
X28831000Y-9652000D01*
X28831000Y-11813000D01*
X27049000Y-11813000D01*
X27049000Y-9652000D01*
X27046598Y-9627614D01*
X27039485Y-9604165D01*
X27027934Y-9582554D01*
X27012388Y-9563612D01*
X26758388Y-9309612D01*
X26739446Y-9294066D01*
X26717835Y-9282515D01*
X26694386Y-9275402D01*
X26670000Y-9273000D01*
X24943776Y-9273000D01*
X24509000Y-8838224D01*
X24509000Y-5385776D01*
X25451776Y-4443000D01*
X30428224Y-4443000D01*
X31371000Y-5385776D01*
G37*
%TD.AperFunction*%
%TD*%
D26*
%TO.N,Net-(D2-Pad2)*%
X6895197Y8800197D02*
X6914443Y8784403D01*
X6936399Y8772667D01*
X6960224Y8765440D01*
X6985000Y8763000D01*
X10987961Y8763000D01*
X11430000Y8210452D01*
X11430000Y4751606D01*
X11123394Y4445000D01*
X8434606Y4445000D01*
X6312803Y6566803D01*
X6293557Y6582597D01*
X6271601Y6594333D01*
X6247776Y6601560D01*
X6223000Y6604000D01*
X3989606Y6604000D01*
X3556000Y7037606D01*
X3556000Y9472394D01*
X3735606Y9652000D01*
X6043394Y9652000D01*
X6895197Y8800197D01*
%TA.AperFunction,Conductor*%
D25*
G36*
X6895197Y8800197D02*
G01*
X6914443Y8784403D01*
X6936399Y8772667D01*
X6960224Y8765440D01*
X6985000Y8763000D01*
X10987961Y8763000D01*
X11430000Y8210452D01*
X11430000Y4751606D01*
X11123394Y4445000D01*
X8434606Y4445000D01*
X6312803Y6566803D01*
X6293557Y6582597D01*
X6271601Y6594333D01*
X6247776Y6601560D01*
X6223000Y6604000D01*
X3989606Y6604000D01*
X3556000Y7037606D01*
X3556000Y9472394D01*
X3735606Y9652000D01*
X6043394Y9652000D01*
X6895197Y8800197D01*
G37*
%TD.AperFunction*%
%TD*%
M02*
