M48
; DRILL file {KiCad (5.1.7)-1} date 03/20/21 22:52:42
; FORMAT={-:-/ absolute / metric / decimal}
; #@! TF.CreationDate,2021-03-20T22:52:42+01:00
; #@! TF.GenerationSoftware,Kicad,Pcbnew,(5.1.7)-1
; #@! TF.FileFunction,Plated,1,2,PTH
FMAT,2
METRIC
T1C0.400
T2C0.500
T3C0.700
T4C1.000
T5C1.300
%
G90
G05
T1
X15.5Y-18.5
X16.0Y-9.5
X23.0Y-9.0
X23.0Y-18.015
X24.29Y-17.04
X27.0Y-17.5
X31.0Y-17.5
X34.04Y-16.96
X37.5Y-18.5
X39.0Y-13.5
T3
X19.075Y-7.4
X23.925Y-7.4
T4
X11.0Y-14.5
X11.0Y-17.04
X11.0Y-19.58
X13.54Y-17.04
X2.87Y-25.08
X2.87Y-27.62
X2.87Y-30.16
X2.87Y-32.7
X2.87Y-35.24
X2.87Y-37.78
X2.87Y-40.32
X2.87Y-42.86
X2.87Y-45.4
X2.87Y-47.94
X2.87Y-50.48
X2.87Y-53.02
X2.87Y-55.56
X2.87Y-58.1
X2.87Y-60.64
X2.87Y-63.18
X2.87Y-65.72
X2.87Y-68.26
X2.87Y-70.8
X2.87Y-73.34
X2.87Y-75.88
X2.87Y-78.42
X2.87Y-80.96
X2.87Y-83.5
X2.87Y-86.04
X2.87Y-88.58
X5.41Y-25.08
X5.41Y-27.62
X5.41Y-30.16
X5.41Y-32.7
X5.41Y-35.24
X5.41Y-37.78
X5.41Y-40.32
X5.41Y-42.86
X5.41Y-45.4
X5.41Y-47.94
X5.41Y-50.48
X5.41Y-53.02
X5.41Y-55.56
X5.41Y-58.1
X5.41Y-60.64
X5.41Y-63.18
X5.41Y-65.72
X5.41Y-68.26
X5.41Y-70.8
X5.41Y-73.34
X5.41Y-75.88
X5.41Y-78.42
X5.41Y-80.96
X5.41Y-83.5
X5.41Y-86.04
X5.41Y-88.58
X13.03Y-25.08
X13.03Y-27.62
X13.03Y-30.16
X13.03Y-32.7
X13.03Y-35.24
X13.03Y-37.78
X13.03Y-40.32
X13.03Y-42.86
X13.03Y-45.4
X13.03Y-47.94
X13.03Y-50.48
X13.03Y-53.02
X13.03Y-55.56
X13.03Y-58.1
X13.03Y-60.64
X13.03Y-63.18
X13.03Y-65.72
X13.03Y-68.26
X13.03Y-70.8
X13.03Y-73.34
X13.03Y-75.88
X13.03Y-78.42
X13.03Y-80.96
X13.03Y-83.5
X13.03Y-86.04
X13.03Y-88.58
X15.57Y-25.08
X15.57Y-27.62
X15.57Y-30.16
X15.57Y-32.7
X15.57Y-35.24
X15.57Y-37.78
X15.57Y-40.32
X15.57Y-42.86
X15.57Y-45.4
X15.57Y-47.94
X15.57Y-50.48
X15.57Y-53.02
X15.57Y-55.56
X15.57Y-58.1
X15.57Y-60.64
X15.57Y-63.18
X15.57Y-65.72
X15.57Y-68.26
X15.57Y-70.8
X15.57Y-73.34
X15.57Y-75.88
X15.57Y-78.42
X15.57Y-80.96
X15.57Y-83.5
X15.57Y-86.04
X15.57Y-88.58
X18.11Y-25.08
X18.11Y-27.62
X18.11Y-30.16
X18.11Y-32.7
X18.11Y-35.24
X18.11Y-37.78
X18.11Y-40.32
X18.11Y-42.86
X18.11Y-45.4
X18.11Y-47.94
X18.11Y-50.48
X18.11Y-53.02
X18.11Y-55.56
X18.11Y-58.1
X18.11Y-60.64
X18.11Y-63.18
X18.11Y-65.72
X18.11Y-68.26
X18.11Y-70.8
X18.11Y-73.34
X18.11Y-75.88
X18.11Y-78.42
X18.11Y-80.96
X18.11Y-83.5
X18.11Y-86.04
X18.11Y-88.58
X20.65Y-25.08
X20.65Y-27.62
X20.65Y-30.16
X20.65Y-32.7
X20.65Y-35.24
X20.65Y-37.78
X20.65Y-40.32
X20.65Y-42.86
X20.65Y-45.4
X20.65Y-47.94
X20.65Y-50.48
X20.65Y-53.02
X20.65Y-55.56
X20.65Y-58.1
X20.65Y-60.64
X20.65Y-63.18
X20.65Y-65.72
X20.65Y-68.26
X20.65Y-70.8
X20.65Y-73.34
X20.65Y-75.88
X20.65Y-78.42
X20.65Y-80.96
X20.65Y-83.5
X20.65Y-86.04
X20.65Y-88.58
X23.19Y-25.08
X23.19Y-27.62
X23.19Y-30.16
X23.19Y-32.7
X23.19Y-35.24
X23.19Y-37.78
X23.19Y-40.32
X23.19Y-42.86
X23.19Y-45.4
X23.19Y-47.94
X23.19Y-50.48
X23.19Y-53.02
X23.19Y-55.56
X23.19Y-58.1
X23.19Y-60.64
X23.19Y-63.18
X23.19Y-65.72
X23.19Y-68.26
X23.19Y-70.8
X23.19Y-73.34
X23.19Y-75.88
X23.19Y-78.42
X23.19Y-80.96
X23.19Y-83.5
X23.19Y-86.04
X23.19Y-88.58
X30.81Y-25.08
X30.81Y-27.62
X30.81Y-30.16
X30.81Y-32.7
X30.81Y-35.24
X30.81Y-37.78
X30.81Y-40.32
X30.81Y-42.86
X30.81Y-45.4
X30.81Y-47.94
X30.81Y-50.48
X30.81Y-53.02
X30.81Y-55.56
X30.81Y-58.1
X30.81Y-60.64
X30.81Y-63.18
X30.81Y-65.72
X30.81Y-68.26
X30.81Y-70.8
X30.81Y-73.34
X30.81Y-75.88
X30.81Y-78.42
X30.81Y-80.96
X30.81Y-83.5
X30.81Y-86.04
X30.81Y-88.58
X33.35Y-25.08
X33.35Y-27.62
X33.35Y-30.16
X33.35Y-32.7
X33.35Y-35.24
X33.35Y-37.78
X33.35Y-40.32
X33.35Y-42.86
X33.35Y-45.4
X33.35Y-47.94
X33.35Y-50.48
X33.35Y-53.02
X33.35Y-55.56
X33.35Y-58.1
X33.35Y-60.64
X33.35Y-63.18
X33.35Y-65.72
X33.35Y-68.26
X33.35Y-70.8
X33.35Y-73.34
X33.35Y-75.88
X33.35Y-78.42
X33.35Y-80.96
X33.35Y-83.5
X33.35Y-86.04
X33.35Y-88.58
X35.89Y-25.08
X35.89Y-27.62
X35.89Y-30.16
X35.89Y-32.7
X35.89Y-35.24
X35.89Y-37.78
X35.89Y-40.32
X35.89Y-42.86
X35.89Y-45.4
X35.89Y-47.94
X35.89Y-50.48
X35.89Y-53.02
X35.89Y-55.56
X35.89Y-58.1
X35.89Y-60.64
X35.89Y-63.18
X35.89Y-65.72
X35.89Y-68.26
X35.89Y-70.8
X35.89Y-73.34
X35.89Y-75.88
X35.89Y-78.42
X35.89Y-80.96
X35.89Y-83.5
X35.89Y-86.04
X35.89Y-88.58
X38.43Y-25.08
X38.43Y-27.62
X38.43Y-30.16
X38.43Y-32.7
X38.43Y-35.24
X38.43Y-37.78
X38.43Y-40.32
X38.43Y-42.86
X38.43Y-45.4
X38.43Y-47.94
X38.43Y-50.48
X38.43Y-53.02
X38.43Y-55.56
X38.43Y-58.1
X38.43Y-60.64
X38.43Y-63.18
X38.43Y-65.72
X38.43Y-68.26
X38.43Y-70.8
X38.43Y-73.34
X38.43Y-75.88
X38.43Y-78.42
X38.43Y-80.96
X38.43Y-83.5
X38.43Y-86.04
X38.43Y-88.58
X40.97Y-25.08
X40.97Y-27.62
X40.97Y-30.16
X40.97Y-32.7
X40.97Y-35.24
X40.97Y-37.78
X40.97Y-40.32
X40.97Y-42.86
X40.97Y-45.4
X40.97Y-47.94
X40.97Y-50.48
X40.97Y-53.02
X40.97Y-55.56
X40.97Y-58.1
X40.97Y-60.64
X40.97Y-63.18
X40.97Y-65.72
X40.97Y-68.26
X40.97Y-70.8
X40.97Y-73.34
X40.97Y-75.88
X40.97Y-78.42
X40.97Y-80.96
X40.97Y-83.5
X40.97Y-86.04
X40.97Y-88.58
X48.59Y-25.08
X48.59Y-27.62
X48.59Y-30.16
X48.59Y-32.7
X48.59Y-35.24
X48.59Y-37.78
X48.59Y-40.32
X48.59Y-42.86
X48.59Y-45.4
X48.59Y-47.94
X48.59Y-50.48
X48.59Y-53.02
X48.59Y-55.56
X48.59Y-58.1
X48.59Y-60.64
X48.59Y-63.18
X48.59Y-65.72
X48.59Y-68.26
X48.59Y-70.8
X48.59Y-73.34
X48.59Y-75.88
X48.59Y-78.42
X48.59Y-80.96
X48.59Y-83.5
X48.59Y-86.04
X48.59Y-88.58
X51.13Y-25.08
X51.13Y-27.62
X51.13Y-30.16
X51.13Y-32.7
X51.13Y-35.24
X51.13Y-37.78
X51.13Y-40.32
X51.13Y-42.86
X51.13Y-45.4
X51.13Y-47.94
X51.13Y-50.48
X51.13Y-53.02
X51.13Y-55.56
X51.13Y-58.1
X51.13Y-60.64
X51.13Y-63.18
X51.13Y-65.72
X51.13Y-68.26
X51.13Y-70.8
X51.13Y-73.34
X51.13Y-75.88
X51.13Y-78.42
X51.13Y-80.96
X51.13Y-83.5
X51.13Y-86.04
X51.13Y-88.58
X40.46Y-16.96
X43.0Y-14.42
X43.0Y-16.96
X43.0Y-19.5
T5
X4.095Y-8.0
X7.905Y-8.0
T2
G00X17.9Y-4.2
M15
G01X17.9Y-5.0
M16
G05
G00X17.9Y-4.2
M15
G01X17.9Y-5.0
M16
G05
G00X25.1Y-5.0
M15
G01X25.1Y-4.2
M16
G05
T0
M30
