{
    "asset": {
        "generator": "COLLADA2GLTF",
        "version": "2.0"
    },
    "scenes": [
        {
            "nodes": [
                0
            ]
        }
    ],
    "scene": 0,
    "nodes": [
        {
            "children": [
                4,
                3,
                2,
                1
            ],
            "matrix": [
                1.0,
                0.0,
                0.0,
                0.0,
                0.0,
                0.0,
                -1.0,
                0.0,
                0.0,
                1.0,
                0.0,
                0.0,
                0.0,
                0.0,
                0.0,
                1.0
            ],
            "name": "Z_UP"
        },
        {
            "mesh": 0,
            "name": "node3"
        },
        {
            "mesh": 1,
            "name": "node2"
        },
        {
            "mesh": 2,
            "name": "node1"
        },
        {
            "mesh": 3,
            "name": "node0"
        }
    ],
    "meshes": [
        {
            "primitives": [
                {
                    "attributes": {
                        "NORMAL": 1,
                        "POSITION": 2
                    },
                    "indices": 0,
                    "mode": 4,
                    "material": 0
                }
            ],
            "name": "Part__Feature003"
        },
        {
            "primitives": [
                {
                    "attributes": {
                        "NORMAL": 4,
                        "POSITION": 5
                    },
                    "indices": 3,
                    "mode": 4,
                    "material": 1
                }
            ],
            "name": "Part__Feature002"
        },
        {
            "primitives": [
                {
                    "attributes": {
                        "NORMAL": 7,
                        "POSITION": 8
                    },
                    "indices": 6,
                    "mode": 4,
                    "material": 2
                }
            ],
            "name": "Part__Feature001"
        },
        {
            "primitives": [
                {
                    "attributes": {
                        "NORMAL": 10,
                        "POSITION": 11
                    },
                    "indices": 9,
                    "mode": 4,
                    "material": 3
                }
            ],
            "name": "Part__Feature"
        }
    ],
    "accessors": [
        {
            "bufferView": 0,
            "byteOffset": 0,
            "componentType": 5123,
            "count": 4164,
            "max": [
                2575
            ],
            "min": [
                0
            ],
            "type": "SCALAR"
        },
        {
            "bufferView": 1,
            "byteOffset": 0,
            "componentType": 5126,
            "count": 2576,
            "max": [
                1.0,
                1.0,
                1.0
            ],
            "min": [
                -1.0,
                -1.0,
                -1.0
            ],
            "type": "VEC3"
        },
        {
            "bufferView": 1,
            "byteOffset": 30912,
            "componentType": 5126,
            "count": 2576,
            "max": [
                0.039000000804662707,
                0.029000001028180124,
                0.0210999995470047
            ],
            "min": [
                -0.039000000804662707,
                -0.029000001028180124,
                0.008099998347461224
            ],
            "type": "VEC3"
        },
        {
            "bufferView": 0,
            "byteOffset": 8328,
            "componentType": 5123,
            "count": 300,
            "max": [
                164
            ],
            "min": [
                0
            ],
            "type": "SCALAR"
        },
        {
            "bufferView": 1,
            "byteOffset": 61824,
            "componentType": 5126,
            "count": 165,
            "max": [
                0.99270898103714,
                1.0,
                1.0
            ],
            "min": [
                -0.99270898103714,
                -1.0,
                -1.0
            ],
            "type": "VEC3"
        },
        {
            "bufferView": 1,
            "byteOffset": 63804,
            "componentType": 5126,
            "count": 165,
            "max": [
                0.026499999687075616,
                0.012489059939980509,
                0.0210999995470047
            ],
            "min": [
                0.023499999195337297,
                0.00951093714684248,
                0.008800000883638859
            ],
            "type": "VEC3"
        },
        {
            "bufferView": 0,
            "byteOffset": 8928,
            "componentType": 5123,
            "count": 300,
            "max": [
                176
            ],
            "min": [
                0
            ],
            "type": "SCALAR"
        },
        {
            "bufferView": 1,
            "byteOffset": 65784,
            "componentType": 5126,
            "count": 177,
            "max": [
                0.99270898103714,
                1.0,
                1.0
            ],
            "min": [
                -0.99270898103714,
                -1.0,
                -1.0
            ],
            "type": "VEC3"
        },
        {
            "bufferView": 1,
            "byteOffset": 67908,
            "componentType": 5126,
            "count": 177,
            "max": [
                0.026499999687075616,
                0.0014890629099681974,
                0.021100010722875596
            ],
            "min": [
                0.023499999195337297,
                -0.0014890629099681974,
                0.008800008334219456
            ],
            "type": "VEC3"
        },
        {
            "bufferView": 0,
            "byteOffset": 9528,
            "componentType": 5123,
            "count": 3588,
            "max": [
                2180
            ],
            "min": [
                0
            ],
            "type": "SCALAR"
        },
        {
            "bufferView": 1,
            "byteOffset": 70032,
            "componentType": 5126,
            "count": 2181,
            "max": [
                1.0,
                1.0,
                1.0
            ],
            "min": [
                -1.0,
                -1.0,
                -1.0
            ],
            "type": "VEC3"
        },
        {
            "bufferView": 1,
            "byteOffset": 96204,
            "componentType": 5126,
            "count": 2181,
            "max": [
                0.039000000804662707,
                0.029000001028180124,
                0.010900000110268593
            ],
            "min": [
                -0.039000000804662707,
                -0.029000001028180124,
                0.0030999998562037946
            ],
            "type": "VEC3"
        }
    ],
    "materials": [
        {
            "pbrMetallicRoughness": {
                "baseColorFactor": [
                    0.800000011920929,
                    0.4392156898975373,
                    0.1764705926179886,
                    1.0
                ],
                "metallicFactor": 0.0
            },
            "emissiveFactor": [
                0.0,
                0.0,
                0.0
            ],
            "name": "effect_Part__Feature003"
        },
        {
            "pbrMetallicRoughness": {
                "baseColorFactor": [
                    0.800000011920929,
                    0.800000011920929,
                    0.800000011920929,
                    1.0
                ],
                "metallicFactor": 0.0
            },
            "emissiveFactor": [
                0.0,
                0.0,
                0.0
            ],
            "name": "effect_Part__Feature002"
        },
        {
            "pbrMetallicRoughness": {
                "baseColorFactor": [
                    0.800000011920929,
                    0.800000011920929,
                    0.800000011920929,
                    1.0
                ],
                "metallicFactor": 0.0
            },
            "emissiveFactor": [
                0.0,
                0.0,
                0.0
            ],
            "name": "effect_Part__Feature001"
        },
        {
            "pbrMetallicRoughness": {
                "baseColorFactor": [
                    0.800000011920929,
                    0.5764706134796143,
                    0.21960784494876865,
                    1.0
                ],
                "metallicFactor": 0.0
            },
            "emissiveFactor": [
                0.0,
                0.0,
                0.0
            ],
            "name": "effect_Part__Feature"
        }
    ],
    "bufferViews": [
        {
            "buffer": 0,
            "byteOffset": 122376,
            "byteLength": 16704,
            "target": 34963
        },
        {
            "buffer": 0,
            "byteOffset": 0,
            "byteLength": 122376,
            "byteStride": 12,
            "target": 34962
        }
    ],
    "buffers": [
        {
            "byteLength": 139080,
            "uri": "data:application/octet-stream;base64,"
        }
    ]
}
